<?xml version="1.0" encoding="UTF-8" standalone="no"?>
<svg
   xmlns:dc="http://purl.org/dc/elements/1.1/"
   xmlns:cc="http://creativecommons.org/ns#"
   xmlns:rdf="http://www.w3.org/1999/02/22-rdf-syntax-ns#"
   xmlns:svg="http://www.w3.org/2000/svg"
   xmlns="http://www.w3.org/2000/svg"
   xmlns:xlink="http://www.w3.org/1999/xlink"
   xmlns:sodipodi="http://sodipodi.sourceforge.net/DTD/sodipodi-0.dtd"
   xmlns:inkscape="http://www.inkscape.org/namespaces/inkscape"
   width="24"
   height="24"
   version="1"
   id="svg16"
   sodipodi:docname="dialog-error.svg"
   inkscape:version="0.92.3 (2405546, 2018-03-11)">
  <metadata
     id="metadata22">
    <rdf:RDF>
      <cc:Work
         rdf:about="">
        <dc:format>image/svg+xml</dc:format>
        <dc:type
           rdf:resource="http://purl.org/dc/dcmitype/StillImage" />
      </cc:Work>
    </rdf:RDF>
  </metadata>
  <defs
     id="defs20">
    <linearGradient
       inkscape:collect="always"
       id="linearGradient833">
      <stop
         style="stop-color:#db3c30;stop-opacity:1;"
         offset="0"
         id="stop829" />
      <stop
         style="stop-color:#e15d53;stop-opacity:1"
         offset="1"
         id="stop831" />
    </linearGradient>
    <linearGradient
       inkscape:collect="always"
       xlink:href="#linearGradient833"
       id="linearGradient835"
       x1="-22"
       y1="-12"
       x2="-2"
       y2="-12"
       gradientUnits="userSpaceOnUse" />
  </defs>
  <sodipodi:namedview
     pagecolor="#ffffff"
     bordercolor="#666666"
     borderopacity="1"
     objecttolerance="10"
     gridtolerance="10"
     guidetolerance="10"
     inkscape:pageopacity="0"
     inkscape:pageshadow="2"
     inkscape:window-width="1366"
     inkscape:window-height="704"
     id="namedview18"
     showgrid="false"
     inkscape:zoom="19.666667"
     inkscape:cx="8.6877724"
     inkscape:cy="12.754608"
     inkscape:window-x="0"
     inkscape:window-y="30"
     inkscape:window-maximized="1"
     inkscape:current-layer="svg16" />
  <rect
     fill="#db3c30"
     width="20"
     height="20"
     x="-22"
     y="-22"
     rx="10"
     ry="10"
     transform="matrix(0,-1,-1,0,0,0)"
     id="rect2"
     style="fill-opacity:1;fill:url(#linearGradient835)" />
  <g
     opacity=".2"
     transform="translate(-534 361.5)"
     id="g6">
    <path
       class="error"
       d="m545-355h2v9.0001h-2zm0 11h2v2h-2z"
       id="path4" />
  </g>
  <g
     transform="translate(-534 361)"
     id="g10">
    <path
       fill="#fff"
       class="error"
       d="m545-355h2v9.0001h-2zm0 11h2v2h-2z"
       id="path8" />
  </g>
  <path
     fill="#fff"
     opacity=".2"
     d="m12 2c-5.54 0-10 4.46-10 10 0 0.084 0.004 0.166 0.0058 0.25 0.1324-5.423 4.5382-9.75 9.9942-9.75 5.4558 0 9.862 4.327 9.994 9.75 0.002-0.08343 0.0059-0.16606 0.0059-0.25 0-5.54-4.46-10-10-10z"
     id="path12"
     style="opacity:0.4" />
  <path
     d="M 2.0058,11.75 C 2.0038,11.834 2,11.916 2,12 2,17.54 6.46,22 12,22 17.54,22 22,17.54 22,12 22,11.916 21.996,11.8335 21.994,11.75 21.862,17.173 17.456,21.5 12,21.5 6.544,21.5 2.138,17.173 2.006,11.75 Z"
     id="path14"
     inkscape:connector-curvature="0"
     style="opacity:0.3" />
</svg>
