<?xml version="1.0" encoding="UTF-8" standalone="no"?>
<svg
   xmlns:dc="http://purl.org/dc/elements/1.1/"
   xmlns:cc="http://creativecommons.org/ns#"
   xmlns:rdf="http://www.w3.org/1999/02/22-rdf-syntax-ns#"
   xmlns:svg="http://www.w3.org/2000/svg"
   xmlns="http://www.w3.org/2000/svg"
   xmlns:sodipodi="http://sodipodi.sourceforge.net/DTD/sodipodi-0.dtd"
   xmlns:inkscape="http://www.inkscape.org/namespaces/inkscape"
   width="24"
   height="24"
   version="1"
   id="svg20"
   sodipodi:docname="image-missing.svg"
   inkscape:version="0.92.3 (2405546, 2018-03-11)">
  <metadata
     id="metadata26">
    <rdf:RDF>
      <cc:Work
         rdf:about="">
        <dc:format>image/svg+xml</dc:format>
        <dc:type
           rdf:resource="http://purl.org/dc/dcmitype/StillImage" />
        <dc:title></dc:title>
      </cc:Work>
    </rdf:RDF>
  </metadata>
  <defs
     id="defs24" />
  <sodipodi:namedview
     pagecolor="#ffffff"
     bordercolor="#666666"
     borderopacity="1"
     objecttolerance="10"
     gridtolerance="10"
     guidetolerance="10"
     inkscape:pageopacity="0"
     inkscape:pageshadow="2"
     inkscape:window-width="1366"
     inkscape:window-height="704"
     id="namedview22"
     showgrid="false"
     inkscape:zoom="19.666667"
     inkscape:cx="9.0829939"
     inkscape:cy="8.8267872"
     inkscape:window-x="0"
     inkscape:window-y="30"
     inkscape:window-maximized="1"
     inkscape:current-layer="svg20" />
  <path
     inkscape:connector-curvature="0"
     style="opacity:0.2;stroke-width:0.5"
     d="M 22,6.0000002 C 22,5.4460001 21.554,5 21,5 H 3 C 2.446,5 2,5.4460001 2,6.0000002 V 20 c 0,0.554001 0.446,1 1,1 h 13 l 0.5,-5.499999 5.5,-0.805196 z"
     id="path2"
     sodipodi:nodetypes="sssssscccs" />
  <path
     style="fill:#e4e4e4;stroke-width:0.5"
     inkscape:connector-curvature="0"
     d="M 22,5.0000002 C 22,4.4460001 21.554,4 21,4 H 3 C 2.446,4 2,4.4460001 2,5.0000002 V 19 c 0,0.553999 0.446,1 1,1 H 16 L 18.025424,16.889831 22,14.694805 Z"
     id="path4"
     sodipodi:nodetypes="sssssscccs" />
  <path
     inkscape:connector-curvature="0"
     style="opacity:0.2;stroke-width:0.53518468"
     d="m 22,14.694805 h -5.513637 c -0.609037,0 -1.102727,0.465159 -1.102727,1.038962 v 5.194804 z"
     id="path8" />
  <path
     style="fill:#ffffff;fill-opacity:1;stroke-width:0.50964719"
     inkscape:connector-curvature="0"
     d="m 22,14.694805 h -5 c -0.5523,0 -1,0.465159 -1,1.038962 v 5.194804 z"
     id="path10" />
  <path
     sodipodi:type="inkscape:offset"
     inkscape:radius="0"
     inkscape:original="M 4.0078125 -7.078125 L 4.4765625 12.6875 L 7.3671875 12.6875 L 7.8359375 -7.078125 L 4.0078125 -7.078125 z M 3.96875 16.515625 L 3.96875 20.441406 L 7.7578125 20.441406 L 7.7578125 16.515625 L 3.96875 16.515625 z "
     style="font-style:normal;font-weight:normal;font-size:40px;line-height:1.25;font-family:sans-serif;letter-spacing:0px;word-spacing:0px;fill:#000000;fill-opacity:1;stroke:none;opacity:0.2"
     id="text820"
     d="m 4.0078125,-7.078125 0.46875,19.765625 h 2.890625 l 0.46875,-19.765625 z M 3.96875,16.515625 v 3.925781 h 3.7890625 v -3.925781 z"
     transform="matrix(0.51717172,0,0,0.29070263,8.9474747,10.05763)" />
</svg>
