<?xml version="1.0" encoding="UTF-8" standalone="no"?>
<svg
   xmlns:dc="http://purl.org/dc/elements/1.1/"
   xmlns:cc="http://creativecommons.org/ns#"
   xmlns:rdf="http://www.w3.org/1999/02/22-rdf-syntax-ns#"
   xmlns:svg="http://www.w3.org/2000/svg"
   xmlns="http://www.w3.org/2000/svg"
   xmlns:sodipodi="http://sodipodi.sourceforge.net/DTD/sodipodi-0.dtd"
   xmlns:inkscape="http://www.inkscape.org/namespaces/inkscape"
   width="24"
   height="24"
   version="1.1"
   id="svg16"
   sodipodi:docname="application-vnd.oasis.opendocument.graphics.svg"
   inkscape:version="0.92.3 (2405546, 2018-03-11)">
  <metadata
     id="metadata22">
    <rdf:RDF>
      <cc:Work
         rdf:about="">
        <dc:format>image/svg+xml</dc:format>
        <dc:type
           rdf:resource="http://purl.org/dc/dcmitype/StillImage" />
      </cc:Work>
    </rdf:RDF>
  </metadata>
  <defs
     id="defs20" />
  <sodipodi:namedview
     pagecolor="#ffffff"
     bordercolor="#666666"
     borderopacity="1"
     objecttolerance="10"
     gridtolerance="10"
     guidetolerance="10"
     inkscape:pageopacity="0"
     inkscape:pageshadow="2"
     inkscape:window-width="1366"
     inkscape:window-height="704"
     id="namedview18"
     showgrid="false"
     inkscape:zoom="9.8333333"
     inkscape:cx="1.2711864"
     inkscape:cy="12"
     inkscape:window-x="0"
     inkscape:window-y="30"
     inkscape:window-maximized="1"
     inkscape:current-layer="svg16" />
  <path
     style="opacity:0.2"
     d="m 5,2.5 c -0.554,0 -1,0.446 -1,1 v 18 c 0,0.554 0.446,1 1,1 h 14 c 0.554,0 1,-0.446 1,-1 V 8.5 L 14.5,8 14,2.5 Z"
     id="path2" />
  <path
     fill="#fec006"
     d="m5 2c-0.554 0-1 0.446-1 1v18c0 0.554 0.446 1 1 1h14c0.554 0 1-0.446 1-1v-13l-5.5-0.5-0.5-5.5z"
     id="path4"
     style="fill:#e4e4e4;fill-opacity:1" />
  <path
     fill="#fff"
     opacity=".2"
     d="m5 2c-0.554 0-1 0.446-1 1v0.5c0-0.554 0.446-1 1-1h9l5.5 5.5h0.5l-6-6z"
     id="path6" />
  <path
     style="opacity:0.2"
     d="m 14,2.5 v 5 c 0,0.5523 0.44772,1 1,1 h 5 z"
     id="path8" />
  <path
     fill="#fed861"
     d="m14 2v5c0 0.5523 0.44772 1 1 1h5l-6-6z"
     id="path10"
     style="fill:#fafafa;fill-opacity:1" />
  <path
     fill="none"
     stroke="#fff"
     stroke-linecap="square"
     d="m7.503 15.339 0.75352 0.01682c1.483 0.03266 2.8917 0.40606 3.4173 1.2302 1.2262 1.9228-1.2025 2.5463-2.1782 1.1883-0.91186-1.4905-0.59676-4.5871 0.71704-4.9467 2.3773-0.54736 2.771 3.2646 4.2345 2.5204 1.1305-0.57482-0.71474-3.1874 0.39122-3.8089 0.47401-0.26638 1.4656 0.71469 1.4656 0.71469"
     id="path14"
     style="stroke:#fec006;stroke-opacity:1" />
</svg>
