<?xml version="1.0" encoding="UTF-8" standalone="no"?>
<svg
   xmlns:dc="http://purl.org/dc/elements/1.1/"
   xmlns:cc="http://creativecommons.org/ns#"
   xmlns:rdf="http://www.w3.org/1999/02/22-rdf-syntax-ns#"
   xmlns:svg="http://www.w3.org/2000/svg"
   xmlns="http://www.w3.org/2000/svg"
   xmlns:xlink="http://www.w3.org/1999/xlink"
   xmlns:sodipodi="http://sodipodi.sourceforge.net/DTD/sodipodi-0.dtd"
   xmlns:inkscape="http://www.inkscape.org/namespaces/inkscape"
   width="24"
   height="24"
   version="1"
   id="svg12"
   sodipodi:docname="application-x-bittorrent.svg"
   inkscape:version="0.92.4 5da689c313, 2019-01-14">
  <metadata
     id="metadata18">
    <rdf:RDF>
      <cc:Work
         rdf:about="">
        <dc:format>image/svg+xml</dc:format>
        <dc:type
           rdf:resource="http://purl.org/dc/dcmitype/StillImage" />
        <dc:title />
      </cc:Work>
    </rdf:RDF>
  </metadata>
  <defs
     id="defs16">
    <linearGradient
       gradientTransform="matrix(0.0283688,0,0,0.0283688,6.553195,10.553198)"
       inkscape:collect="always"
       xlink:href="#linearGradient844"
       id="linearGradient846"
       x1="184.97034"
       y1="366.10168"
       x2="187.63983"
       y2="242.44067"
       gradientUnits="userSpaceOnUse" />
    <linearGradient
       inkscape:collect="always"
       id="linearGradient844">
      <stop
         style="stop-color:#000000;stop-opacity:1;"
         offset="0"
         id="stop840" />
      <stop
         style="stop-color:#000000;stop-opacity:0;"
         offset="1"
         id="stop842" />
    </linearGradient>
    <linearGradient
       gradientTransform="matrix(0.0283688,0,0,0.0283688,6.553195,-21.446818)"
       inkscape:collect="always"
       xlink:href="#linearGradient876"
       id="linearGradient846-4"
       x1="184.97034"
       y1="366.10168"
       x2="187.63983"
       y2="242.44067"
       gradientUnits="userSpaceOnUse" />
    <linearGradient
       id="linearGradient876"
       inkscape:collect="always">
      <stop
         id="stop872"
         offset="0"
         style="stop-color:#ffffff;stop-opacity:1" />
      <stop
         id="stop874"
         offset="1"
         style="stop-color:#ffffff;stop-opacity:0" />
    </linearGradient>
  </defs>
  <sodipodi:namedview
     pagecolor="#ffffff"
     bordercolor="#666666"
     borderopacity="1"
     objecttolerance="10"
     gridtolerance="10"
     guidetolerance="10"
     inkscape:pageopacity="0"
     inkscape:pageshadow="2"
     inkscape:window-width="1366"
     inkscape:window-height="708"
     id="namedview14"
     showgrid="false"
     inkscape:zoom="9.8333333"
     inkscape:cx="6"
     inkscape:cy="-1.1694919"
     inkscape:window-x="0"
     inkscape:window-y="25"
     inkscape:window-maximized="1"
     inkscape:current-layer="svg12" />
  <path
     style="opacity:0.2"
     d="m 5,2.5 c -0.554,0 -1,0.446 -1,1 v 18 c 0,0.554 0.446,1 1,1 h 14 c 0.554,0 1,-0.446 1,-1 V 8.5 L 14.5,8 14,2.5 Z"
     id="path2" />
  <path
     style="fill:#e4e4e4"
     d="M 5,2 C 4.446,2 4,2.446 4,3 v 18 c 0,0.554 0.446,1 1,1 h 14 c 0.554,0 1,-0.446 1,-1 V 8 L 14.5,7.5 14,2 Z"
     id="path4" />
  <path
     style="opacity:0.2;fill:#ffffff"
     d="M 5,2 C 4.446,2 4,2.446 4,3 v 0.5 c 0,-0.554 0.446,-1 1,-1 h 9 L 19.5,8 H 20 L 14,2 Z"
     id="path6" />
  <path
     style="opacity:0.2"
     d="m 14,2.5 v 5 c 0,0.5523 0.447715,1 1,1 h 5 z"
     id="path8" />
  <path
     style="fill:#fafafa"
     d="m 14,2 v 5 c 0,0.5523 0.447715,1 1,1 h 5 z"
     id="path10" />
  <circle
     style="opacity:1;fill:#00a441;fill-opacity:1;stroke:none;stroke-width:0.32690603;stroke-miterlimit:4;stroke-dasharray:none;stroke-opacity:0;paint-order:stroke fill markers"
     id="path823"
     cx="12"
     cy="16"
     r="5" />
  <path
     d="m 11.370695,11.801938 c -0.0413,10e-4 -0.0843,0.007 -0.12862,0.0184 -0.8406,0.20842 -1.55274,0.61631 -2.1853,1.25179 -0.45498,0.45691 -0.7654,0.91646 -0.98327,1.45522 -0.1564,0.38663 -0.23262,0.68195 -0.28803,1.11706 -0.0303,0.23891 -0.0303,0.8899 0,1.12868 0.0523,0.41044 0.12595,0.70538 0.26452,1.05964 0.23982,0.61269 0.5986,1.13041 1.13494,1.63743 0.75614,0.71483 1.62512,1.11571 2.68308,1.23774 0.14671,0.0169 0.34096,0.0206 1.3523,0.0262 l 0.53475,-0.0539 c 0.47992,-0.22169 1.01301,-0.46467 1.40136,-0.80911 l -1.33197,0.0115 c -1.87886,0.0163 -1.82687,0.002 -2.20088,-0.0699 -0.56372,-0.1078 -1.09194,-0.35038 -1.56836,-0.72026 -0.16841,-0.13073 -0.52833,-0.48333 -0.65153,-0.63811 -0.25752,-0.32404 -0.44427,-0.65591 -0.57484,-1.02188 -0.24835,-0.69594 -0.27147,-1.54726 -0.0615,-2.25881 0.13289,-0.44985 0.35454,-0.86395 0.66358,-1.2395 0.13496,-0.16385 0.44595,-0.468 0.61629,-0.60275 0.4063,-0.32127 0.88591,-0.55926 1.36491,-0.67726 0.0652,-0.0161 0.14452,-0.0421 0.17629,-0.0578 0.0757,-0.0374 0.15214,-0.11536 0.19334,-0.19709 0.0293,-0.0582 0.0332,-0.0787 0.0332,-0.17557 0,-0.10037 -0.003,-0.11596 -0.0385,-0.1856 -0.0799,-0.1584 -0.22678,-0.24181 -0.40579,-0.23611 z m 0.5664,1.03857 c -0.0705,10e-4 -0.15927,0.0137 -0.27879,0.0379 -0.50509,0.10213 -0.97014,0.31598 -1.38508,0.63675 -0.16066,0.12417 -0.48935,0.44407 -0.61281,0.59633 -0.41688,0.51395 -0.65555,1.08581 -0.7209,1.72709 -0.0183,0.17921 -0.0152,0.61623 0.006,0.79066 0.0918,0.76847 0.41986,1.4216 0.99778,1.98693 0.43832,0.4287 0.95023,0.72791 1.49432,0.87349 0.15213,0.0407 0.24734,0.0599 0.47205,0.0954 l 0.16529,0.0261 1.85129,0.004 c 0.67147,10e-4 1.19621,-0.001 1.52083,0.002 0.25228,-0.25795 0.48889,-0.49514 0.68305,-0.79925 l -4.0433,-0.0475 -0.13585,-0.0255 c -0.29032,-0.0547 -0.487,-0.11814 -0.72075,-0.23249 -0.49218,-0.24092 -0.93736,-0.67639 -1.1839,-1.15848 -0.30349,-0.59355 -0.35059,-1.34931 -0.12459,-2.00281 0.0767,-0.22215 0.25181,-0.53134 0.40575,-0.71659 0.44181,-0.53209 0.99312,-0.85926 1.60592,-0.95321 0.15265,-0.0234 0.24385,-0.0659 0.32289,-0.15015 0.0839,-0.0896 0.11169,-0.16685 0.10562,-0.2943 -0.004,-0.078 -0.0114,-0.11235 -0.0367,-0.16273 -0.0396,-0.079 -0.12899,-0.16206 -0.2181,-0.20274 -0.0468,-0.0214 -0.0992,-0.0316 -0.16975,-0.0305 z m 0.42763,1.12371 c -0.35698,10e-5 -0.62948,0.0606 -0.93955,0.20608 -0.25558,0.12002 -0.44632,0.257 -0.66729,0.47941 -0.26565,0.26736 -0.42293,0.51372 -0.53219,0.83347 -0.15729,0.46031 -0.15651,0.99239 0.002,1.45685 0.20883,0.61206 0.72476,1.13658 1.35072,1.37347 0.14723,0.0557 0.23351,0.079 0.42555,0.11511 l 0.16529,0.0311 2.2115,0.004 c 1.10729,0.002 1.67641,0.004 1.95908,0.008 0.14276,-0.26169 0.26325,-0.53666 0.3591,-0.82253 l -2.08302,-1.1e-4 c -1.49446,-2.3e-4 -2.3582,-0.004 -2.41128,-0.0118 -0.18558,-0.0259 -0.38459,-0.0939 -0.53478,-0.18226 -0.17306,-0.10201 -0.37787,-0.29329 -0.495,-0.46218 -0.14865,-0.21459 -0.22785,-0.487 -0.22798,-0.7846 -1.1e-4,-0.39368 0.12592,-0.70032 0.405,-0.98494 0.13819,-0.14093 0.2609,-0.23023 0.42517,-0.30945 0.21129,-0.10175 0.33862,-0.1287 0.67569,-0.14256 0.18739,-0.008 0.21862,-0.0117 0.26447,-0.0348 0.17783,-0.0897 0.27279,-0.29143 0.2201,-0.46787 -0.0378,-0.1272 -0.11922,-0.21985 -0.23971,-0.2735 -0.0488,-0.0217 -0.0819,-0.0255 -0.26025,-0.0293 -0.0246,-5.1e-4 -0.0488,-7.7e-4 -0.0726,-7.7e-4 z"
     style="fill:#ffffff;fill-opacity:1;stroke-width:0.02677592"
     id="path2-3"
     inkscape:connector-curvature="0"
     sodipodi:nodetypes="ccccccccccccsccccccccccscccccccccccccccccccccccccccccccccccccccccccccccccccc" />
  <circle
     style="opacity:0.4;fill:none;fill-opacity:1;stroke:url(#linearGradient846);stroke-width:0.20833331;stroke-miterlimit:4;stroke-dasharray:none;stroke-opacity:1;paint-order:stroke fill markers"
     id="path823-5"
     cx="12"
     cy="16"
     r="4.895833" />
  <circle
     style="opacity:0.4;fill:none;fill-opacity:1;stroke:url(#linearGradient846-4);stroke-width:0.20833331;stroke-miterlimit:4;stroke-dasharray:none;stroke-opacity:1;paint-order:stroke fill markers"
     id="path823-5-9"
     cx="12"
     cy="-16"
     r="4.895833"
     transform="scale(1,-1)" />
</svg>
