<?xml version="1.0" encoding="UTF-8" standalone="no"?>
<svg
   xmlns:dc="http://purl.org/dc/elements/1.1/"
   xmlns:cc="http://creativecommons.org/ns#"
   xmlns:rdf="http://www.w3.org/1999/02/22-rdf-syntax-ns#"
   xmlns:svg="http://www.w3.org/2000/svg"
   xmlns="http://www.w3.org/2000/svg"
   xmlns:sodipodi="http://sodipodi.sourceforge.net/DTD/sodipodi-0.dtd"
   xmlns:inkscape="http://www.inkscape.org/namespaces/inkscape"
   width="24"
   height="24"
   version="1"
   id="svg16"
   sodipodi:docname="application-vnd.oasis.opendocument.formula.svg"
   inkscape:version="0.92.3 (2405546, 2018-03-11)">
  <metadata
     id="metadata22">
    <rdf:RDF>
      <cc:Work
         rdf:about="">
        <dc:format>image/svg+xml</dc:format>
        <dc:type
           rdf:resource="http://purl.org/dc/dcmitype/StillImage" />
      </cc:Work>
    </rdf:RDF>
  </metadata>
  <defs
     id="defs20" />
  <sodipodi:namedview
     pagecolor="#ffffff"
     bordercolor="#666666"
     borderopacity="1"
     objecttolerance="10"
     gridtolerance="10"
     guidetolerance="10"
     inkscape:pageopacity="0"
     inkscape:pageshadow="2"
     inkscape:window-width="1366"
     inkscape:window-height="704"
     id="namedview18"
     showgrid="false"
     inkscape:zoom="13.906433"
     inkscape:cx="7.1424448"
     inkscape:cy="15.213857"
     inkscape:window-x="0"
     inkscape:window-y="30"
     inkscape:window-maximized="1"
     inkscape:current-layer="svg16" />
  <path
     style="opacity:0.2"
     d="m 5,2.5 c -0.554,0 -1,0.446 -1,1 v 18 c 0,0.554 0.446,1 1,1 h 14 c 0.554,0 1,-0.446 1,-1 V 8.5 L 14.5,8 14,2.5 Z"
     id="path2" />
  <path
     fill="#636e73"
     d="m5 2c-0.554 0-1 0.446-1 1v18c0 0.554 0.446 1 1 1h14c0.554 0 1-0.446 1-1v-13l-5.5-0.5-0.5-5.5z"
     id="path4"
     style="fill:#e4e4e4;fill-opacity:1" />
  <path
     fill="#fff"
     style="opacity:0.1"
     d="m5 2c-0.554 0-1 0.446-1 1v0.5c0-0.554 0.446-1 1-1h9l5.5 5.5h0.5l-6-6z"
     id="path6" />
  <path
     style="opacity:0.2"
     d="m 14,2.5 v 5 c 0,0.5523 0.44772,1 1,1 h 5 z"
     id="path8" />
  <path
     fill="#909b9f"
     d="m14 2v5c0 0.5523 0.44772 1 1 1h5l-6-6z"
     id="path10"
     style="fill:#fafafa;fill-opacity:1" />
  <path
     fill="#fff"
     d="m11.958 12-1.5576 4.9698-1.1533-2.8974h-2.247v1.0068h1.5908l1.5605 3.9208h0.68944l1.8496-5.9933h3.1991v-1.0068h-3.9316zm0.74898 2.5004 1.6289 2.1455-1.7802 2.3545h0.88768l1.334-1.7676 1.334 1.7676h0.88863l-1.7441-2.3095 1.6582-2.1904h-0.88863l-1.2148 1.6035-1.2158-1.6035h-0.88768z"
     id="path14"
     style="fill:#636e73;fill-opacity:1" />
</svg>
