<?xml version="1.0" encoding="UTF-8" standalone="no"?>
<svg
   xmlns:dc="http://purl.org/dc/elements/1.1/"
   xmlns:cc="http://creativecommons.org/ns#"
   xmlns:rdf="http://www.w3.org/1999/02/22-rdf-syntax-ns#"
   xmlns:svg="http://www.w3.org/2000/svg"
   xmlns="http://www.w3.org/2000/svg"
   xmlns:sodipodi="http://sodipodi.sourceforge.net/DTD/sodipodi-0.dtd"
   xmlns:inkscape="http://www.inkscape.org/namespaces/inkscape"
   width="24"
   height="24"
   version="1"
   id="svg12"
   sodipodi:docname="application-x-krita.svg"
   inkscape:version="0.92.3 (2405546, 2018-03-11)">
  <metadata
     id="metadata18">
    <rdf:RDF>
      <cc:Work
         rdf:about="">
        <dc:format>image/svg+xml</dc:format>
        <dc:type
           rdf:resource="http://purl.org/dc/dcmitype/StillImage" />
        <dc:title></dc:title>
      </cc:Work>
    </rdf:RDF>
  </metadata>
  <defs
     id="defs16" />
  <sodipodi:namedview
     pagecolor="#ffffff"
     bordercolor="#666666"
     borderopacity="1"
     objecttolerance="10"
     gridtolerance="10"
     guidetolerance="10"
     inkscape:pageopacity="0"
     inkscape:pageshadow="2"
     inkscape:window-width="1366"
     inkscape:window-height="704"
     id="namedview14"
     showgrid="false"
     inkscape:zoom="9.8333333"
     inkscape:cx="1.2711864"
     inkscape:cy="11.033898"
     inkscape:window-x="0"
     inkscape:window-y="30"
     inkscape:window-maximized="1"
     inkscape:current-layer="svg12" />
  <path
     style="opacity:0.2"
     d="m 5,2.5 c -0.554,0 -1,0.446 -1,1 v 18 c 0,0.554 0.446,1 1,1 h 14 c 0.554,0 1,-0.446 1,-1 V 8.5 L 14.5,8 14,2.5 Z"
     id="path2" />
  <path
     style="fill:#e4e4e4"
     d="M 5,2 C 4.446,2 4,2.446 4,3 v 18 c 0,0.554 0.446,1 1,1 h 14 c 0.554,0 1,-0.446 1,-1 V 8 L 14.5,7.5 14,2 Z"
     id="path4" />
  <path
     style="opacity:0.2;fill:#ffffff"
     d="M 5,2 C 4.446,2 4,2.446 4,3 v 0.5 c 0,-0.554 0.446,-1 1,-1 h 9 L 19.5,8 H 20 L 14,2 Z"
     id="path6" />
  <path
     style="opacity:0.2"
     d="m 14,2.5 v 5 c 0,0.5523 0.447715,1 1,1 h 5 z"
     id="path8" />
  <path
     style="fill:#fafafa"
     d="m 14,2 v 5 c 0,0.5523 0.447715,1 1,1 h 5 z"
     id="path10" />
  <circle
     style="opacity:0.2;stroke:#000000;stroke-width:0;stroke-linecap:round;stroke-linejoin:round"
     cx="12.172411"
     cy="16.172413"
     r="4.8275862"
     id="circle2" />
  <ellipse
     style="fill:#ffffff;stroke:#000000;stroke-width:0;stroke-linecap:round;stroke-linejoin:round"
     cx="12.170342"
     cy="16.00293"
     rx="4.7081032"
     ry="4.7089653"
     id="ellipse4" />
  <path
     inkscape:connector-curvature="0"
     style="fill:#e040fb;stroke:#000000;stroke-width:0;stroke-linecap:round;stroke-linejoin:round"
     d="M 16.352251,13.58806 A 4.8288285,4.829683 0 0 0 9.755949,11.820273 4.8288285,4.829683 0 0 0 7.982803,13.609362 l 4.18756,2.39354 z"
     id="path6-3" />
  <path
     inkscape:connector-curvature="0"
     style="fill:#fdfd4b;stroke:#000000;stroke-width:0;stroke-linecap:round;stroke-linejoin:round"
     d="m 16.352251,13.58806 -4.181888,2.414842 -0.02145,4.824589 a 4.8288285,4.829683 0 0 0 2.435869,-0.641961 4.8288285,4.829683 0 0 0 1.767474,-6.59747 z"
     id="path8-6" />
  <path
     inkscape:connector-curvature="0"
     style="fill:#18ffff;stroke:#000000;stroke-width:0;stroke-linecap:round;stroke-linejoin:round"
     d="m 12.170363,16.002902 -4.18756,-2.39354 a 4.8288285,4.829683 0 0 0 0.0057,4.808381 4.8288285,4.829683 0 0 0 4.160434,2.409748 z"
     id="path10-7" />
  <path
     inkscape:connector-curvature="0"
     style="opacity:0.2;fill:#ffffff;stroke:#000000;stroke-width:0;stroke-linecap:round;stroke-linejoin:round"
     d="m 12.172411,11.172413 a 4.8275858,4.8275858 0 0 0 -4.827586,4.827586 4.8275858,4.8275858 0 0 0 0.003,0.08486 4.8275858,4.8275858 0 0 1 4.824555,-4.740032 4.8275858,4.8275858 0 0 1 4.823209,4.740032 4.8275858,4.8275858 0 0 0 0.0044,-0.08486 4.8275858,4.8275858 0 0 0 -4.827587,-4.827586 z"
     id="path12" />
  <path
     inkscape:connector-curvature="0"
     style="opacity:0.1;stroke-width:0.1724138"
     d="M 13.123512,16.643434 C 12.377898,17.330093 10.943434,16.240912 10.337964,15.556855 9.715219,14.853277 7.389906,12.4803 7.219943,12.326399 7.049988,12.172504 6.914633,11.98245 7.064916,11.793358 c 0.156449,-0.184152 0.372801,-0.09266 0.560442,0.03971 0.187654,0.132379 3.02006,1.888302 3.846095,2.344512 0.803112,0.443553 2.178942,1.604089 1.652059,2.46585 z"
     id="path14" />
  <path
     inkscape:connector-curvature="0"
     style="fill:#4f4f4f;stroke-width:0.1724138"
     d="M 13.123512,16.47102 C 12.377898,17.157679 10.943434,16.068499 10.337964,15.384441 9.715219,14.680863 7.389906,12.307887 7.219943,12.153985 7.049988,12.00009 6.914633,11.810036 7.064916,11.620945 c 0.156449,-0.184153 0.372801,-0.09266 0.560442,0.03971 0.187654,0.132378 3.02006,1.888301 3.846095,2.344511 0.803112,0.443554 2.178942,1.604089 1.652059,2.46585 z"
     id="path16" />
  <path
     inkscape:connector-curvature="0"
     style="opacity:0.1;stroke-width:0.1724138"
     d="m 14.206894,17.151649 c -2.724138,2.373423 -5.21709,0.253586 -5.578646,-0.57711 0.213807,1.441853 1.202084,2.732142 2.69506,3.228707 1.127564,0.375021 3.448511,0.126457 3.623132,-1.023439 z"
     id="path18" />
  <path
     inkscape:connector-curvature="0"
     style="fill:#4883f7;stroke-width:0.1724138"
     d="m 14.206894,16.979235 c -2.724138,2.373423 -5.21709,0.253586 -5.578646,-0.57711 0.213807,1.441854 1.202084,2.732142 2.69506,3.228707 1.127564,0.375021 3.448511,0.126457 3.623132,-1.023439 z"
     id="path20" />
  <path
     inkscape:connector-curvature="0"
     style="opacity:0.1;stroke-width:0.1724138"
     d="m 14.164551,17.490078 c -0.233053,0.104933 -0.20785,0.180776 -0.41478,0.148059 -0.142723,-0.02257 -1.379132,-0.943947 -1.379132,-0.943947 -0.06267,-0.147854 0.01251,-0.351112 0.153718,-0.511986 0.130972,-0.169035 0.317762,-0.283294 0.477853,-0.253523 0,0 1.172194,0.999214 1.224107,1.131848 0.07527,0.192306 -0.0054,0.183713 -0.06177,0.429549 z"
     id="path22" />
  <path
     inkscape:connector-curvature="0"
     style="fill:#9b9b9b;stroke-width:0.1724138"
     d="m 14.164551,17.317664 c -0.233053,0.104933 -0.20785,0.180776 -0.41478,0.148059 -0.142723,-0.02257 -1.379132,-0.943947 -1.379132,-0.943947 -0.06267,-0.147854 0.01251,-0.351112 0.153718,-0.511985 0.130972,-0.169036 0.317762,-0.283294 0.477853,-0.253523 0,0 1.172194,0.999213 1.224107,1.131847 0.07527,0.192306 -0.0054,0.183713 -0.06177,0.429549 z"
     id="path24" />
  <path
     inkscape:connector-curvature="0"
     style="opacity:0.1;stroke-width:0.1724138"
     d="m 14.394231,19.51171 c 0.876432,-0.492984 1.08249,-1.381327 0.736423,-2.009645 -0.268927,-0.48826 -0.710491,-0.580573 -1.015477,-0.344485 -0.302552,0.234205 -0.329224,0.51328 -0.238974,0.790451 0.18405,0.565304 0.973302,0.980645 0.518028,1.563679 z"
     id="path26" />
  <path
     inkscape:connector-curvature="0"
     style="fill:#3f3f3f;stroke-width:0.1724138"
     d="m 14.394231,19.339296 c 0.876432,-0.492984 1.08249,-1.381327 0.736423,-2.009645 -0.268927,-0.48826 -0.710491,-0.580573 -1.015477,-0.344485 -0.302552,0.234205 -0.329224,0.513281 -0.238974,0.790452 0.18405,0.565303 0.973302,0.980644 0.518028,1.563678 z"
     id="path28" />
</svg>
