<?xml version="1.0" encoding="UTF-8" standalone="no"?>
<svg
   xmlns:dc="http://purl.org/dc/elements/1.1/"
   xmlns:cc="http://creativecommons.org/ns#"
   xmlns:rdf="http://www.w3.org/1999/02/22-rdf-syntax-ns#"
   xmlns:svg="http://www.w3.org/2000/svg"
   xmlns="http://www.w3.org/2000/svg"
   xmlns:sodipodi="http://sodipodi.sourceforge.net/DTD/sodipodi-0.dtd"
   xmlns:inkscape="http://www.inkscape.org/namespaces/inkscape"
   width="24"
   height="24"
   version="1"
   id="svg16"
   sodipodi:docname="application-vnd.oasis.opendocument.database.svg"
   inkscape:version="0.92.3 (2405546, 2018-03-11)">
  <metadata
     id="metadata22">
    <rdf:RDF>
      <cc:Work
         rdf:about="">
        <dc:format>image/svg+xml</dc:format>
        <dc:type
           rdf:resource="http://purl.org/dc/dcmitype/StillImage" />
      </cc:Work>
    </rdf:RDF>
  </metadata>
  <defs
     id="defs20" />
  <sodipodi:namedview
     pagecolor="#ffffff"
     bordercolor="#666666"
     borderopacity="1"
     objecttolerance="10"
     gridtolerance="10"
     guidetolerance="10"
     inkscape:pageopacity="0"
     inkscape:pageshadow="2"
     inkscape:window-width="1366"
     inkscape:window-height="704"
     id="namedview18"
     showgrid="false"
     inkscape:zoom="9.8333333"
     inkscape:cx="1.2711864"
     inkscape:cy="12"
     inkscape:window-x="0"
     inkscape:window-y="30"
     inkscape:window-maximized="1"
     inkscape:current-layer="svg16" />
  <path
     style="opacity:0.2"
     d="m 5,2.5 c -0.554,0 -1,0.446 -1,1 v 18 c 0,0.554 0.446,1 1,1 h 14 c 0.554,0 1,-0.446 1,-1 V 8.5 L 14.5,8 14,2.5 Z"
     id="path2" />
  <path
     fill="#e81d62"
     d="m5 2c-0.554 0-1 0.446-1 1v18c0 0.554 0.446 1 1 1h14c0.554 0 1-0.446 1-1v-13l-5.5-0.5-0.5-5.5z"
     id="path4"
     style="fill:#e4e4e4;fill-opacity:1" />
  <path
     fill="#fff"
     opacity=".2"
     d="m5 2c-0.554 0-1 0.446-1 1v0.5c0-0.554 0.446-1 1-1h9l5.5 5.5h0.5l-6-6z"
     id="path6" />
  <path
     style="opacity:0.2"
     d="m 14,2.5 v 5 c 0,0.5523 0.44772,1 1,1 h 5 z"
     id="path8" />
  <path
     fill="#f0729d"
     d="m14 2v5c0 0.5523 0.44772 1 1 1h5l-6-6z"
     id="path10"
     style="fill:#fafafa;fill-opacity:1" />
  <path
     fill="#fff"
     d="m12.5 10c-1.4682 0-2.7226 0.51755-3.2422 1.25-0.04363 0.0615-0.082315 0.12412-0.11524 0.18848-0.031285 0.06116-0.058035 0.12309-0.0791 0.18652a3.5 2 0 0 0 -0.01465 0.0586c-0.0116 0.043-0.0247 0.086-0.0318 0.129a3.5 2 0 0 0 -0.017 0.187c0.0001925 0.06499 0.00638 0.12989 0.01758 0.19434a3.5 2 0 0 0 0.04785 0.1875 3.5 2 0 0 0 0.081055 0.18652 3.5 2 0 0 0 0.1115 0.1815 3.5 2 0 0 0 3.242 1.25 3.5 2 0 0 0 3.2422 -1.25 3.5 2 0 0 0 0.001 -0.0019 3.5 2 0 0 0 0.09473 -0.1543c0.0056-0.01014 0.01231-0.02009 0.01758-0.03028a3.5 2 0 0 0 0.05762 -0.13281c0.0082-0.02093 0.01842-0.04144 0.02539-0.0625a3.5 2 0 0 0 0.02832 -0.11133c0.0067-0.02933 0.01409-0.05839 0.01855-0.08789a3.5 2 0 0 0 0.0145 -0.1685 3.5 2 0 0 0 -0.0185 -0.199c-0.0335-0.1935-0.1165-0.378-0.2395-0.551-0.5195-0.7325-1.774-1.25-3.242-1.25zm-3.2422 3.75a3.5 2 0 0 0 -0.25781 0.75 3.5 2 0 0 0 3.5 2 3.5 2 0 0 0 3.5 -2 3.5 2 0 0 0 -0.25781 -0.75 3.5 2 0 0 1 -3.2422 1.25 3.5 2 0 0 1 -3.2422 -1.25zm0 2.5a3.5 2 0 0 0 -0.2574 0.75 3.5 2 0 0 0 3.5 2 3.5 2 0 0 0 3.5 -2 3.5 2 0 0 0 -0.25781 -0.75 3.5 2 0 0 1 -3.2422 1.25 3.5 2 0 0 1 -3.2422 -1.25z"
     id="path14"
     style="fill:#e81d62;fill-opacity:1" />
</svg>
