<?xml version="1.0" encoding="UTF-8" standalone="no"?>
<svg
   xmlns:dc="http://purl.org/dc/elements/1.1/"
   xmlns:cc="http://creativecommons.org/ns#"
   xmlns:rdf="http://www.w3.org/1999/02/22-rdf-syntax-ns#"
   xmlns:svg="http://www.w3.org/2000/svg"
   xmlns="http://www.w3.org/2000/svg"
   xmlns:xlink="http://www.w3.org/1999/xlink"
   xmlns:sodipodi="http://sodipodi.sourceforge.net/DTD/sodipodi-0.dtd"
   xmlns:inkscape="http://www.inkscape.org/namespaces/inkscape"
   width="24"
   height="24"
   version="1"
   id="svg16"
   sodipodi:docname="audio-x-generic.svg"
   inkscape:version="0.92.3 (2405546, 2018-03-11)">
  <metadata
     id="metadata22">
    <rdf:RDF>
      <cc:Work
         rdf:about="">
        <dc:format>image/svg+xml</dc:format>
        <dc:type
           rdf:resource="http://purl.org/dc/dcmitype/StillImage" />
        <dc:title />
      </cc:Work>
    </rdf:RDF>
  </metadata>
  <defs
     id="defs20">
    <linearGradient
       inkscape:collect="always"
       id="linearGradient848">
      <stop
         style="stop-color:#dcdcdc;stop-opacity:1;"
         offset="0"
         id="stop844" />
      <stop
         style="stop-color:#f0f0f0;stop-opacity:1"
         offset="1"
         id="stop846" />
    </linearGradient>
    <linearGradient
       inkscape:collect="always"
       xlink:href="#linearGradient848"
       id="linearGradient850"
       x1="31.118645"
       y1="59.661018"
       x2="32.610168"
       y2="4.8813558"
       gradientUnits="userSpaceOnUse"
       gradientTransform="matrix(0.35714285,0,0,0.35714285,0.57142857,0.57142862)" />
  </defs>
  <sodipodi:namedview
     pagecolor="#ffffff"
     bordercolor="#666666"
     borderopacity="1"
     objecttolerance="10"
     gridtolerance="10"
     guidetolerance="10"
     inkscape:pageopacity="0"
     inkscape:pageshadow="2"
     inkscape:window-width="1366"
     inkscape:window-height="704"
     id="namedview18"
     showgrid="false"
     inkscape:zoom="41.7193"
     inkscape:cx="13.019401"
     inkscape:cy="20.147384"
     inkscape:window-x="0"
     inkscape:window-y="30"
     inkscape:window-maximized="1"
     inkscape:current-layer="svg16" />
  <rect
     style="fill:url(#linearGradient850);fill-opacity:1;stroke-width:0.35714287"
     width="20"
     height="20"
     x="2"
     y="2"
     rx="1.0714285"
     ry="1.0714285"
     id="rect4" />
  <path
     style="opacity:1;fill:#ffffff;stroke-width:0.35714287"
     d="M 3.0714286,2 C 2.4778571,2 2,2.477857 2,3.0714286 V 3.4285714 C 2,2.835 2.4778571,2.357143 3.0714286,2.357143 H 20.928571 C 21.522143,2.357143 22,2.835 22,3.4285714 V 3.0714286 C 22,2.477857 21.522143,2 20.928571,2 Z"
     id="path6"
     inkscape:connector-curvature="0" />
  <path
     inkscape:connector-curvature="0"
     style="opacity:0.2;fill:#000000;fill-opacity:1;stroke-width:0.35714287"
     d="M 3.0714286,22 C 2.4778571,22 2,21.522143 2,20.928571 V 20.571429 C 2,21.165 2.4778571,21.642857 3.0714286,21.642857 H 20.928571 C 21.522143,21.642857 22,21.165 22,20.571429 v 0.357142 C 22,21.522143 21.522143,22 20.928571,22 Z"
     id="path6-3" />
  <path
     style="color:#4d4d4d;opacity:0.3;fill:#000000;fill-opacity:1;stroke:none;stroke-width:0.71428573"
     class="ColorScheme-Text"
     d="M 15.124541,6.2857145 9.8548679,7.6469795 C 9.4589621,7.7529664 9.1395486,8.1743386 9.1395486,8.5838257 V 15.076452 C 8.7380893,14.866436 8.222455,14.781551 7.6879148,14.920311 c -0.9645872,0.250393 -1.5684257,1.05939 -1.3616572,1.806978 0.2067686,0.747587 1.15738,1.164532 2.1219653,0.914134 0.76954,-0.19976 1.29955,-0.763829 1.3841507,-1.359846 l 0.022493,-6.136341 5.0027394,-1.3385546 v 4.8417906 c -0.401466,-0.210017 -0.917098,-0.294904 -1.451636,-0.156141 -0.964586,0.250393 -1.569924,1.059384 -1.363157,1.806977 0.206768,0.747587 1.157383,1.164533 2.121966,0.914135 0.769542,-0.199762 1.299551,-0.763827 1.384151,-1.359847 l 0.0225,-7.9873215 c 0,-0.3071145 -0.190224,-0.537361 -0.446887,-0.58056 z"
     id="path4"
     inkscape:connector-curvature="0" />
</svg>
