<?xml version="1.0" encoding="UTF-8" standalone="no"?>
<svg
   xmlns:dc="http://purl.org/dc/elements/1.1/"
   xmlns:cc="http://creativecommons.org/ns#"
   xmlns:rdf="http://www.w3.org/1999/02/22-rdf-syntax-ns#"
   xmlns:svg="http://www.w3.org/2000/svg"
   xmlns="http://www.w3.org/2000/svg"
   xmlns:xlink="http://www.w3.org/1999/xlink"
   xmlns:sodipodi="http://sodipodi.sourceforge.net/DTD/sodipodi-0.dtd"
   xmlns:inkscape="http://www.inkscape.org/namespaces/inkscape"
   width="24"
   height="24"
   version="1"
   id="svg20"
   sodipodi:docname="image-x-xcf.svg"
   inkscape:version="0.92.3 (2405546, 2018-03-11)">
  <metadata
     id="metadata26">
    <rdf:RDF>
      <cc:Work
         rdf:about="">
        <dc:format>image/svg+xml</dc:format>
        <dc:type
           rdf:resource="http://purl.org/dc/dcmitype/StillImage" />
        <dc:title></dc:title>
      </cc:Work>
    </rdf:RDF>
  </metadata>
  <defs
     id="defs24">
    <linearGradient
       inkscape:collect="always"
       xlink:href="#linearGradient852"
       id="linearGradient854"
       x1="31.9517"
       y1="191.9989"
       x2="339.66656"
       y2="191.9989"
       gradientUnits="userSpaceOnUse" />
    <linearGradient
       inkscape:collect="always"
       id="linearGradient852">
      <stop
         style="stop-color:#925130;stop-opacity:1;"
         offset="0"
         id="stop848" />
      <stop
         style="stop-color:#754127;stop-opacity:1"
         offset="1"
         id="stop850" />
    </linearGradient>
    <linearGradient
       inkscape:collect="always"
       xlink:href="#linearGradient844"
       id="linearGradient846"
       x1="272.83267"
       y1="173.62025"
       x2="370.54828"
       y2="95.383087"
       gradientUnits="userSpaceOnUse" />
    <linearGradient
       inkscape:collect="always"
       id="linearGradient844">
      <stop
         style="stop-color:#0049ff;stop-opacity:1;"
         offset="0"
         id="stop840" />
      <stop
         style="stop-color:#ff0041;stop-opacity:1"
         offset="1"
         id="stop842" />
    </linearGradient>
  </defs>
  <sodipodi:namedview
     pagecolor="#ffffff"
     bordercolor="#666666"
     borderopacity="1"
     objecttolerance="10"
     gridtolerance="10"
     guidetolerance="10"
     inkscape:pageopacity="0"
     inkscape:pageshadow="2"
     inkscape:window-width="1366"
     inkscape:window-height="704"
     id="namedview22"
     showgrid="false"
     inkscape:zoom="19.666667"
     inkscape:cx="13.15079"
     inkscape:cy="11.8112"
     inkscape:window-x="0"
     inkscape:window-y="30"
     inkscape:window-maximized="1"
     inkscape:current-layer="svg20" />
  <path
     inkscape:connector-curvature="0"
     style="opacity:0.2;stroke-width:0.5"
     d="M 22,6.0000002 C 22,5.4460001 21.554,5 21,5 H 3 C 2.446,5 2,5.4460001 2,6.0000002 V 20 c 0,0.554001 0.446,1 1,1 h 13 l 0.5,-5.499999 5.5,-0.805196 z"
     id="path2"
     sodipodi:nodetypes="sssssscccs" />
  <path
     style="fill:#e4e4e4;stroke-width:0.5"
     inkscape:connector-curvature="0"
     d="M 22,5.0000002 C 22,4.4460001 21.554,4 21,4 H 3 C 2.446,4 2,4.4460001 2,5.0000002 V 19 c 0,0.553999 0.446,1 1,1 H 16 L 18.025424,16.889831 22,14.694805 Z"
     id="path4"
     sodipodi:nodetypes="sssssscccs" />
  <path
     inkscape:connector-curvature="0"
     style="opacity:0.2;stroke-width:0.53518468"
     d="m 22,14.694805 h -5.513637 c -0.609037,0 -1.102727,0.465159 -1.102727,1.038962 v 5.194804 z"
     id="path8" />
  <path
     style="fill:#ffffff;fill-opacity:1;stroke-width:0.50964719"
     inkscape:connector-curvature="0"
     d="m 22,14.694805 h -5 c -0.5523,0 -1,0.465159 -1,1.038962 v 5.194804 z"
     id="path10" />
  <ellipse
     cx="9.7330999"
     cy="12.827623"
     rx="1.116303"
     ry="1.4785881"
     style="fill:#ffffff;stroke-width:0.03404297;paint-order:markers fill stroke"
     id="ellipse2" />
  <g
     id="g12"
     style="stroke-width:1.36000001"
     transform="matrix(0.03404297,0,0,0.03404297,5.4637716,5.4637873)">
    <path
       d="m 211.47,52.615 c -8.6431,14.604 -14.349,30.726 -24.617,44.337 -8.0322,10.651 -16.962,20.867 -28.495,28.628 22.391,-8.2075 49.32,-11.793 66.276,-19.533 0.57904,-0.27624 1.2059,-0.57905 1.8009,-0.8606 -2.6615,-17.876 -7.416,-35.72 -14.965,-52.571 z"
       id="path4-3"
       style="fill:#4b2a19;fill-opacity:1"
       inkscape:connector-curvature="0" />
    <path
       d="m 300.43,43.142 c -7.4107,28.49 -47.539,48.576 -74.467,61.421 -0.1753,0.085 -0.3566,0.16999 -0.5319,0.25499 -0.42498,0.20186 -0.85993,0.40905 -1.269,0.60561 -0.48873,0.22311 -0.98343,0.44158 -1.4881,0.65938 -0.0797,0.0319 -0.15341,0.0637 -0.23309,0.0956 -0.2603,0.11157 -0.52724,0.21714 -0.79286,0.32871 -0.42498,0.1753 -0.85528,0.35194 -1.2909,0.52192 -0.22312,0.085 -0.45023,0.17399 -0.67334,0.25898 -0.47811,0.18593 -0.96286,0.36125 -1.4463,0.54186 l -0.6056,0.22312 c -0.6428,0.22843 -1.2962,0.45819 -1.9603,0.6813 -0.0319,0.0106 -0.0625,0.0252 -0.0996,0.0359 0,0 -0.006,6.7e-4 -0.0119,0.006 -0.72248,0.24438 -1.4596,0.48409 -2.2033,0.72315 -0.14345,0.0425 -0.28687,0.089 -0.43031,0.13148 -0.6056,0.19125 -1.2119,0.37784 -1.8228,0.56377 -0.19654,0.0637 -0.39311,0.12284 -0.58966,0.18128 -0.61623,0.18062 -1.2318,0.36522 -1.8586,0.54584 -0.13812,0.0372 -0.27624,0.0803 -0.41437,0.11754 -1.02,0.29748 -2.0612,0.58369 -3.1077,0.87055 -0.92434,0.24968 -1.8606,0.49935 -2.8009,0.74904 -0.45686,0.12218 -0.91771,0.24038 -1.3746,0.36256 -0.26031,0.0638 -0.52193,0.13148 -0.77692,0.19523 -1.5884,0.40905 -3.1914,0.81943 -4.817,1.2232 -5.0998,1.275 -10.348,2.5486 -15.602,3.9085 -7.4372,1.9284 -14.881,4.044 -21.877,6.6098 -5.4876,2.0134 -10.709,4.2977 -15.437,6.9963 -21.398,12.202 -36.963,28.835 -49.086,48.171 -16.303,26.02 -5.0102,59.472 -49.618,84.36 -0.73841,0.87654 -1.6455,1.6827 -2.6814,2.4423 0.04781,-0.0372 0.09961,-0.0744 0.14742,-0.11156 1.5034,0.86059 2.9231,3.9218 2.9284,9.5104 0.0053,14.37 -6.0029,30.21 -10.757,34.657 -0.23905,0.22312 -0.60693,0.51529 -1.0478,0.81279 15.916,15.501 38.951,26.068 63.881,28.208 12.346,1.3334 29.748,0.70588 37.079,0.69526 62.298,-0.15406 121.66,-29.073 157.33,-70.095 2.6491,-3.2168 13.069,-15.443 13.273,-17.634 16.426,-26.323 34.651,-53.265 35.77,-83.418 h -0.002 c -17.809,5.2848 -36.552,11.198 -55.684,12.979 0.20187,-0.005 0.39378,-0.0109 0.57971,-0.016 0.085,0 0.17597,-0.006 0.26097,-0.006 0.0191,0 0.0369,-2e-5 0.0558,0 -4.8912,0.0535 -14.152,1.9525 -16.359,-0.37651 21.016,-23.486 40.953,-49.107 45.388,-78.585 2.7837,-20.468 -0.72845,-42.584 -13.473,-60.407 z m -15.286,139.37 c 0.0605,7.9e-4 0.12219,3e-5 0.18328,0.002 0.0797,0 0.16468,5.3e-4 0.23906,0.006 0.14343,0.005 0.26961,0.0152 0.40241,0.0259 0.0875,0.005 0.17551,0.0112 0.25897,0.0199 -0.3254,-0.0333 -0.68601,-0.052 -1.0837,-0.0538 z m -155.67,3.1197 c 12.712,-0.016 13.663,19.741 15.06,28.607 2.1143,13.26 4.5686,28.166 -15.029,33.133 -1.3334,0.56842 -6.4804,3.8581 -4.9664,-0.21116 5.5673,-9.6844 -4.0858,-34.137 -18.987,-21.977 -1.4821,-13.801 3.4524,-29.591 17.716,-38.245 2.3321,-0.89778 4.3886,-1.3068 6.2054,-1.3068 z m 174.14,66.999 c -0.62824,0.0227 -2.3416,1.1246 -5.6477,3.8408 -2.2585,1.2327 -3.9643,1.8836 -5.2672,2.0997 0.0365,-0.006 0.0705,-0.009 0.10756,-0.016 0.31874,-0.0638 0.66405,-0.15005 1.0359,-0.26694 0.18062,-0.0585 0.37187,-0.12215 0.57374,-0.19124 0.79153,-0.28689 1.6906,-0.67932 2.7053,-1.2052 0.25499,-0.13286 0.51929,-0.27158 0.7849,-0.42033 0.53122,-0.4303 1.01,-0.81146 1.4562,-1.1674 0.17531,-0.13811 0.32337,-0.251 0.48806,-0.3785 0.26561,-0.20718 0.5259,-0.40243 0.76498,-0.57772 0.14341,-0.11151 0.28156,-0.2072 0.41436,-0.30279 0.21781,-0.1594 0.4263,-0.30348 0.61756,-0.43629 0.15936,-0.10621 0.32804,-0.22244 0.46614,-0.31276 0.0319,-0.0159 0.0651,-0.0377 0.0916,-0.0538 0.20187,-0.12742 0.38115,-0.23372 0.54585,-0.31874 0.0638,-0.0319 0.12875,-0.0691 0.18725,-0.0956 0.0265,-0.0109 0.0532,-0.0273 0.0797,-0.0378 0.0797,-0.0372 0.15405,-0.0631 0.22311,-0.0896 0.0109,0 0.0152,-0.004 0.0259,-0.0104 0.0744,-0.0265 0.14343,-0.043 0.20718,-0.0538 h 0.0219 c 0.0428,-0.005 0.0795,-0.009 0.11754,-0.006 z m -11.391,5.9983 c -0.15706,0.0137 -0.30841,0.0207 -0.45222,0.0199 0.14596,-0.001 0.2929,-0.004 0.45222,-0.0199 z m -251.49,8.5322 c -0.08501,0.0637 -0.17398,0.12086 -0.25898,0.1793 0.085,-0.0584 0.17398,-0.11554 0.25898,-0.1793 z m -8.7813,44.261 v 0.006 c 0.05844,0.0585 0.12284,0.11687 0.18129,0.17531 -0.05845,-0.0584 -0.11754,-0.12285 -0.18129,-0.18127 z"
       id="path6"
       style="fill:url(#linearGradient854);fill-opacity:1"
       inkscape:connector-curvature="0" />
    <path
       d="m 349.33,88.574 c -18.163,3.1661 2.688,22.168 -1.6628,32.538 15.767,-4.388 18.907,-28.166 1.6628,-32.538 z m 7.5382,40.188 c -0.87653,0.0106 -1.838,0.32937 -2.4384,0.76498 -11.336,8.2447 -3.5327,25.759 -11.097,36.033 5.3495,0.30281 10.72,-1.4662 15.443,-3.3521 15.353,-5.0467 9.7162,-25.876 -0.52061,-33.096 -0.36655,-0.25499 -0.8606,-0.36124 -1.3865,-0.35062 z m -23.443,0.79685 c -5.4611,-0.0425 -3.6018,14.317 2.4012,14.556 5.0733,0.20186 5.6258,-8.335 3.4955,-12.096 -0.92965,-1.6309 -4.5048,-2.449 -5.8967,-2.4596 z m 6.2367,39.996 c -17.812,5.2858 -36.559,11.198 -55.694,12.978 h 0.0107 c 0.20187,-0.005 0.39312,-0.0106 0.57905,-0.016 0.085,0 0.1753,-0.005 0.26029,-0.005 0.17531,0 0.34,0 0.51,0.005 0.0797,0 0.16467,0 0.23905,0.005 0.14343,0.005 0.27093,0.016 0.40373,0.0265 0.0957,0.005 0.19125,0.0107 0.28155,0.0213 0.17531,0.0212 0.34,0.0425 0.49405,0.0744 h 0.005 c 0.005,0 0.0107,0 0.016,0.005 0.0744,0.016 0.14875,0.0318 0.2178,0.0532 0.0107,0 0.0212,0.005 0.0319,0.005 0.069,0.0213 0.1328,0.0425 0.19124,0.0637 0.005,0.005 0.0106,0.005 0.0106,0.005 0.0637,0.0265 0.1275,0.0532 0.18063,0.085 0.28155,0.14344 0.44092,0.34531 0.46748,0.61092 0.005,0.0106 0.005,0.0213 0.005,0.0318 0.005,0.0425 0,0.085 -0.005,0.1275 0,0.0213 0,0.0372 -0.005,0.0532 -0.005,0.0478 -0.016,0.0957 -0.0319,0.14344 0,0.0212 -0.005,0.0372 -0.0159,0.0584 -0.016,0.0478 -0.0319,0.0957 -0.0584,0.14875 -0.0106,0.0265 -0.016,0.0478 -0.0318,0.0744 -0.0213,0.0478 -0.0478,0.0956 -0.0744,0.14343 -0.016,0.0318 -0.0372,0.069 -0.0584,0.10089 -0.0319,0.0478 -0.0637,0.10089 -0.0956,0.14875 -0.0265,0.0425 -0.0532,0.0797 -0.085,0.11687 -0.0319,0.0532 -0.0744,0.1009 -0.11687,0.15406 -0.0319,0.0425 -0.069,0.0903 -0.10624,0.13281 -0.0425,0.0532 -0.085,0.10624 -0.13281,0.15936 -0.0425,0.0478 -0.085,0.0957 -0.13281,0.14875 -0.0585,0.0637 -0.11687,0.12218 -0.18062,0.19124 -0.0212,0.0265 -0.0532,0.0532 -0.0797,0.0797 -0.18593,0.19124 -0.40374,0.39843 -0.63748,0.61622 -0.15406,0.13813 -0.33999,0.29749 -0.52061,0.44624 -0.13812,0.12218 -0.2603,0.23375 -0.40905,0.35593 -0.21249,0.17531 -0.45686,0.36655 -0.69059,0.55248 -0.15938,0.12218 -0.30281,0.23905 -0.4728,0.37186 -0.41968,0.32405 -0.87653,0.66404 -1.3706,1.02 -0.55778,0.61092 -1.0571,1.2112 -1.5034,1.8062 -1.3281,1.7956 -2.1462,3.5486 -2.518,5.2433 -0.0584,0.28155 -0.11156,0.5631 -0.14874,0.84465 -0.14343,1.0837 -0.10625,2.1409 0.0903,3.1662 0.005,0.0372 0.005,0.069 0.016,0.10624 0.0532,0.26562 0.11688,0.52592 0.19125,0.78623 0.22312,0.78622 0.53654,1.5565 0.94028,2.3002 0.13281,0.24968 0.27624,0.49936 0.42499,0.74373 h 0.005 c 0.14875,0.24436 0.31343,0.48342 0.48342,0.72778 0.17001,0.23905 0.34531,0.47812 0.53124,0.71185 0.19125,0.23375 0.3878,0.46748 0.58966,0.70123 0.20187,0.22843 0.41436,0.45686 0.63749,0.68529 0.44092,0.45155 0.9084,0.89247 1.4078,1.3228 2.0028,1.7212 4.457,3.2777 7.2088,4.627 -0.13812,0.28686 -0.29749,0.56841 -0.47811,0.86059 -0.0903,0.14343 -0.18593,0.28686 -0.28686,0.4303 -0.1009,0.14875 -0.20718,0.29217 -0.31874,0.44092 -0.2178,0.29217 -0.45686,0.58966 -0.71185,0.88716 -0.255,0.29749 -0.52592,0.59498 -0.81278,0.89777 -0.57374,0.60562 -1.2006,1.2165 -1.8593,1.8328 -0.66405,0.61624 -1.3653,1.2378 -2.0877,1.8646 -1.7956,1.5671 -3.7133,3.1555 -5.4558,4.7386 -2.6136,2.3852 -4.8395,4.7545 -5.6948,7.0229 -0.0584,0.15405 -0.10624,0.3028 -0.15405,0.45686 -0.0425,0.14875 -0.0797,0.29749 -0.11156,0.44624 -0.0637,0.29749 -0.10089,0.59498 -0.11155,0.89246 -0.005,0.29218 0.016,0.58436 0.069,0.87653 0.0265,0.14344 0.0584,0.28687 0.1009,0.4303 0.0425,0.14344 0.0956,0.28687 0.15405,0.4303 0.11688,0.28686 0.26561,0.56842 0.45155,0.84466 0.0957,0.13811 0.19655,0.27624 0.30812,0.41436 0.11156,0.13812 0.23373,0.27625 0.36655,0.41436 0.26029,0.27093 0.55779,0.54186 0.89778,0.80747 0.16999,0.13281 0.35061,0.26562 0.54186,0.39843 0.37717,0.2603 0.80215,0.5206 1.2696,0.77559 0.46218,0.255 0.97747,0.50999 1.53,0.75435 0.46749,0.21249 0.97747,0.41436 1.514,0.61623 0.1009,0.0372 0.19656,0.0797 0.29749,0.11688 0.65342,0.23905 1.3546,0.4781 2.1037,0.70653 0.36655,0.0265 0.70654,0.0744 1.0253,0.13812 0.0319,0.005 0.0637,0.0106 0.0904,0.016 h 0.005 c 0.0372,0.005 0.0744,0.016 0.11155,0.0265 0.30281,0.069 0.58968,0.14875 0.85529,0.24968 0.14875,0.0532 0.29217,0.11688 0.4303,0.18062 0.13812,0.0637 0.27093,0.13812 0.39842,0.21249 0.255,0.14875 0.48343,0.31343 0.70122,0.49404 0.10625,0.0904 0.20719,0.18594 0.30281,0.28157 0.10089,0.10089 0.19125,0.20186 0.28155,0.30811 0.085,0.10624 0.16999,0.21249 0.24968,0.32405 0.0797,0.11687 0.15406,0.22843 0.22844,0.35061 0.21249,0.35592 0.3931,0.73841 0.54184,1.1422 0.1275,0.3453 0.23375,0.71185 0.31875,1.089 0.016,0.0637 0.0372,0.12219 0.0478,0.18593 0.069,0.29218 0.12218,0.59498 0.16468,0.9031 0.0478,0.30811 0.085,0.61622 0.11687,0.93497 0.0265,0.31873 0.0532,0.63747 0.069,0.95622 v 0.0319 c 0.0372,0.63217 0.0532,1.275 0.0637,1.9071 0.0106,0.64279 0.016,1.2803 0.0319,1.8965 0.0213,0.92434 0.0637,1.8062 0.17531,2.5977 0.0372,0.2603 0.0797,0.50998 0.1328,0.75435 0.0265,0.11686 0.0585,0.23905 0.0903,0.35061 0.0319,0.11687 0.0637,0.22311 0.1009,0.33468 0.0372,0.10624 0.0797,0.20718 0.12217,0.30811 0.0425,0.1009 0.0904,0.19656 0.13813,0.29218 0.016,0.0319 0.0372,0.0584 0.0532,0.085 0.085,0.15406 0.18062,0.29749 0.28156,0.42499 0.0637,0.0744 0.13281,0.14875 0.20187,0.21781 0.2178,0.20187 0.46216,0.36654 0.75435,0.48342 0.28686,0.11687 0.62153,0.18593 0.99871,0.20717 0.255,0.0107 0.52592,0 0.82341,-0.0372 0.14874,-0.016 0.3028,-0.0425 0.46217,-0.069 0.31874,-0.0637 0.66404,-0.14875 1.0359,-0.26561 0.18062,-0.0584 0.37186,-0.12219 0.57374,-0.19125 0.79153,-0.28686 1.6893,-0.67997 2.704,-1.2059 0.25499,-0.13281 0.5206,-0.27093 0.78621,-0.41968 0.53124,-0.43029 1.0093,-0.81278 1.4556,-1.1687 0.1753,-0.13813 0.32405,-0.24969 0.48873,-0.37718 0.26562,-0.20718 0.52592,-0.40373 0.76497,-0.57904 0.14344,-0.11156 0.28156,-0.20718 0.41436,-0.30281 0.21781,-0.15936 0.42499,-0.30279 0.61624,-0.4356 0.15937,-0.10626 0.32936,-0.22312 0.46748,-0.31343 0.0319,-0.016 0.0637,-0.0372 0.0903,-0.0532 0.20186,-0.1275 0.38249,-0.23375 0.54717,-0.31875 0.0637,-0.0318 0.12749,-0.069 0.18593,-0.0956 0.0265,-0.0107 0.0532,-0.0265 0.0797,-0.0372 0.0797,-0.0372 0.15407,-0.0637 0.22313,-0.0903 0.0106,0 0.016,-0.005 0.0265,-0.0106 0.0744,-0.0265 0.14344,-0.0425 0.20718,-0.0532 h 0.0213 c 0.0478,-0.005 0.0903,-0.0106 0.1328,-0.005 0.0106,0 0.0213,0.005 0.0318,0.005 0.0319,0.005 0.0584,0.016 0.0797,0.0319 0.0106,0.005 0.016,0.0106 0.0212,0.016 0.0265,0.016 0.0425,0.0425 0.0584,0.069 0,0.005 0.005,0.0106 0.005,0.016 0.016,0.0318 0.0212,0.0744 0.0212,0.12218 0,0.0532 -0.005,0.11156 -0.016,0.17531 16.442,-26.354 34.711,-53.325 35.832,-83.515 z"
       id="path8-6"
       style="fill:url(#linearGradient846);fill-opacity:1"
       inkscape:connector-curvature="0" />
    <path
       d="m 41.681,266.66 c -10.832,8.0907 -32.952,8.096 -23.735,25.207 4.9511,7.6497 8.76,13.839 14.853,19.772 0.44092,-0.29749 0.80747,-0.58967 1.0518,-0.81279 4.7492,-4.4517 10.763,-20.288 10.752,-34.663 0,-5.5886 -1.4237,-8.6431 -2.9218,-9.5037 z"
       id="path10-7"
       style="fill:#4b2819;fill-opacity:1"
       inkscape:connector-curvature="0" />
  </g>
  <path
     d="m 10.616856,15.159566 c -0.01048,-8.58e-4 -0.02198,0.0035 -0.02992,0.01144 -0.0079,0.008 -0.01319,0.01868 -0.01715,0.03231 -2.36e-4,8.79e-4 -4.29e-4,0.0018 -5.36e-4,0.0027 -0.0033,0.02782 -0.01029,0.04306 -0.02533,0.06416 -0.01494,0.02095 -0.03846,0.04707 -0.07134,0.08983 -0.305883,0.31921 -0.6155651,0.710749 -0.9135094,0.95293 -6.21e-4,5.15e-4 -0.0012,0.001 -0.0017,0.0016 -0.0067,0.0074 -0.03038,0.02491 -0.06163,0.04415 -0.03126,0.01924 -0.07084,0.0414 -0.112968,0.0633 -0.08425,0.0438 -0.179386,0.08654 -0.237239,0.102793 -0.0058,0.0016 -0.01019,0.0062 -0.01164,0.01197 -0.0028,0.01118 0.0064,0.02175 0.01782,0.02054 0.243846,-0.02494 0.359664,-0.03601 0.6510042,-0.275537 2.357e-4,-2.04e-4 4.928e-4,-4.07e-4 7.5e-4,-6e-4 0.3193062,-0.293708 0.5978622,-0.636399 0.8948192,-0.954462 0.0018,-0.002 0.0031,-0.0043 0.0038,-0.0068 0.0057,-0.02014 0.0022,-0.04241 -0.0048,-0.06456 -0.007,-0.02215 -0.01812,-0.04397 -0.03132,-0.0615 -0.0132,-0.01753 -0.02805,-0.03251 -0.049,-0.03424 z"
     dominant-baseline="auto"
     style="color:#000000;font-variant-ligatures:normal;font-variant-position:normal;font-variant-caps:normal;font-variant-numeric:normal;font-variant-alternates:normal;font-feature-settings:normal;text-indent:0;text-decoration:none;text-decoration-line:none;text-decoration-style:solid;text-decoration-color:#000000;text-transform:none;text-orientation:mixed;dominant-baseline:auto;white-space:normal;shape-padding:0;isolation:auto;mix-blend-mode:normal;solid-color:#000000;fill-rule:evenodd;stroke-width:0.03404297;color-rendering:auto;image-rendering:auto;shape-rendering:auto"
     id="path14"
     inkscape:connector-curvature="0" />
  <path
     d="m 16.17786,8.4160793 c -0.0042,0.106638 -0.01353,0.212716 -0.02778,0.317518 -0.151008,1.003519 -0.829721,1.8757247 -1.54516,2.6752667 0.03122,0.03294 0.104116,0.04092 0.190346,0.039 0.641956,-0.740332 1.2173,-1.5450827 1.354791,-2.4589317 0.02559,-0.188178 0.03541,-0.380456 0.02778,-0.572841 z m 0.849099,2.8197787 c -0.0074,0.0022 -0.01514,0.0045 -0.02259,0.0067 -0.001,0.0079 -0.0018,0.01591 -0.0029,0.02384 -0.0031,0.02164 -0.0067,0.04323 -0.01017,0.06478 -0.0016,0.0098 -0.0029,0.01962 -0.0046,0.02937 0,1.7e-4 -2.3e-5,3.21e-4 -6.8e-5,4.5e-4 -0.0054,0.03111 -0.01135,0.06213 -0.0177,0.09305 -0.0064,0.03129 -0.01333,0.06249 -0.02069,0.0936 -0.0073,0.03067 -0.01496,0.06126 -0.02309,0.09176 -2.6e-5,2.78e-4 -1.02e-4,5.14e-4 -2.04e-4,7.93e-4 -0.0081,0.03044 -0.01668,0.06083 -0.02563,0.09111 -1.02e-4,3.21e-4 -1.37e-4,5.78e-4 -2.36e-4,8.57e-4 -0.009,0.03025 -0.01828,0.06038 -0.02803,0.09046 -6.8e-5,3.43e-4 -2.05e-4,7.5e-4 -3.22e-4,10e-4 -0.0097,0.03003 -0.01984,0.05999 -0.03032,0.08986 -1.7e-4,3.64e-4 -2.78e-4,7.72e-4 -4.07e-4,0.0011 -0.01048,0.02983 -0.02133,0.05959 -0.03251,0.08926 -1.7e-4,4.07e-4 -3.21e-4,7.72e-4 -4.5e-4,0.0012 -0.01118,0.02965 -0.02276,0.05922 -0.03461,0.08871 -1.7e-4,4.5e-4 -3.64e-4,8.79e-4 -5.36e-4,0.0013 -0.02386,0.05935 -0.04902,0.118445 -0.07535,0.17723 -0.01029,0.02299 -0.02157,0.04571 -0.03221,0.06862 -0.153862,0.331229 -0.342004,0.654237 -0.53827,0.97242 -5.78e-4,9.21e-4 -0.0011,0.0018 -0.0017,0.0027 -0.104373,0.169164 -0.210728,0.337025 -0.315016,0.504159 -0.0048,0.05088 -0.170459,0.25951 -0.304498,0.422533 0.02252,-0.0089 0.04669,-0.01955 0.074,-0.03371 0.0087,-0.0045 0.01769,-0.0092 0.02673,-0.01431 0.01808,-0.01465 0.03438,-0.02768 0.04957,-0.03979 0.006,-0.0047 0.011,-0.0085 0.01661,-0.01282 0.009,-0.0071 0.01789,-0.01378 0.02603,-0.01975 0.0049,-0.0038 0.0096,-0.007 0.01411,-0.01028 0.0074,-0.0054 0.01454,-0.01029 0.02105,-0.01481 0.0054,-0.0036 0.01116,-0.0076 0.01586,-0.01072 0.0011,-5.36e-4 0.0022,-0.0012 0.0031,-0.0017 0.0069,-0.0043 0.01295,-0.008 0.01855,-0.01087 0.0022,-0.0011 0.0044,-0.0023 0.0064,-0.0032 9.22e-4,-3.65e-4 0.0018,-9.43e-4 0.0027,-0.0013 0.0027,-0.0013 0.0053,-0.0021 0.0076,-0.003 3.65e-4,0 4.93e-4,-2.36e-4 8.57e-4,-4.07e-4 0.0025,-9.22e-4 0.0049,-0.0015 0.0071,-0.0019 h 7.5e-4 c 0.0013,-1.37e-4 0.0023,-1.71e-4 0.0035,-1.37e-4 -0.0217,0.0012 -0.07986,0.03879 -0.191741,0.130702 -0.03944,0.02153 -0.07321,0.03706 -0.103275,0.04867 -0.06225,0.07571 -0.118271,0.142464 -0.146862,0.177178 -1.214033,1.396485 -3.234935,2.380956 -5.355896,2.38619 -0.2495703,3.65e-4 -0.8420024,0.02175 -1.2622884,-0.02364 -0.848718,-0.07285 -1.632864,-0.432564 -2.174683,-0.960264 0.0045,-0.003 0.0083,-0.0059 0.01227,-0.0089 -0.205315,-0.200926 -0.334651,-0.410635 -0.502219,-0.669532 -0.02069,-0.0384 -0.03644,-0.07408 -0.04827,-0.107665 -0.04317,0.08952 -0.037,0.204677 0.04827,0.362992 0.167563,0.258897 0.296889,0.468593 0.502219,0.669532 -0.004,0.003 -0.0078,0.0058 -0.01227,0.0089 0.541819,0.5277 1.325965,0.887423 2.174682,0.960292 0.420286,0.04539 1.0127358,0.024 1.2622874,0.02364 2.120784,-0.0052 4.141838,-0.989705 5.355896,-2.386216 0.09018,-0.109508 0.444873,-0.525708 0.451843,-0.600314 0.104286,-0.167126 0.210641,-0.335008 0.315017,-0.504159 5.78e-4,-9.21e-4 0.0011,-0.0018 0.0017,-0.0027 0.196256,-0.318182 0.384413,-0.641191 0.53827,-0.97242 0.01064,-0.02291 0.02192,-0.04563 0.03221,-0.06862 0.02633,-0.05879 0.05149,-0.117878 0.07535,-0.17723 1.7e-4,-4.5e-4 3.64e-4,-8.78e-4 5.36e-4,-0.0014 0.01185,-0.0295 0.02343,-0.05907 0.03461,-0.08871 1.36e-4,-4.29e-4 2.78e-4,-7.71e-4 4.5e-4,-0.0012 0.01118,-0.02967 0.02204,-0.05944 0.03251,-0.08926 1.36e-4,-3.64e-4 2.36e-4,-7.72e-4 4.07e-4,-0.0011 0.01048,-0.02987 0.02059,-0.05983 0.03032,-0.08986 1.02e-4,-3.22e-4 2.36e-4,-7.07e-4 3.21e-4,-0.001 0.0097,-0.03008 0.01907,-0.06021 0.02803,-0.09046 1.03e-4,-2.79e-4 1.71e-4,-5.36e-4 2.36e-4,-8.57e-4 0.009,-0.03027 0.0175,-0.06067 0.02563,-0.09111 1.02e-4,-2.79e-4 1.36e-4,-5.15e-4 2.04e-4,-7.93e-4 0.0081,-0.03049 0.01582,-0.06109 0.02309,-0.09176 0.0074,-0.03111 0.01426,-0.06231 0.02069,-0.0936 0.0063,-0.03092 0.0123,-0.06195 0.0177,-0.09305 2.5e-5,-1.36e-4 6.8e-5,-2.78e-4 6.8e-5,-4.5e-4 0.0017,-0.0098 0.003,-0.0196 0.0046,-0.02937 0.0035,-0.02155 0.0071,-0.04314 0.01017,-0.06478 0.0088,-0.06288 0.01568,-0.126109 0.0203,-0.189797 3e-6,-2.5e-5 -3e-6,-1.36e-4 0,-1.7e-4 0.0023,-0.03187 0.0041,-0.06382 0.0053,-0.09589 z m -7.1554062,0.292038 c -0.061849,0 -0.1318483,0.01392 -0.2112383,0.04448 -0.4742609,0.287748 -0.6454289,0.807227 -0.6061349,1.269028 0.03288,-0.387349 0.217925,-0.778171 0.6061349,-1.013706 0.07939,-0.03057 0.1493893,-0.04448 0.2112383,-0.04448 0.4327712,-5.36e-4 0.4651212,0.672034 0.5126872,0.973876 0.01608,0.100826 0.0323,0.20436 0.04104,0.306386 0.02039,-0.178189 -0.01123,-0.374736 -0.04104,-0.561709 -0.04756,-0.301842 -0.07992,-0.974412 -0.5126872,-0.973875 z m 5.9278172,2.280896 c -0.0011,-2.6e-5 -0.0022,1.3e-5 -0.0035,1.69e-4 h -7.5e-4 c -0.0022,3.65e-4 -0.0046,9.43e-4 -0.0071,0.0019 -3.64e-4,1.7e-4 -4.93e-4,4.07e-4 -8.57e-4,4.07e-4 -0.0023,9.21e-4 -0.0049,0.0018 -0.0076,0.003 -9.22e-4,3.64e-4 -0.0018,9.21e-4 -0.0027,0.0013 -0.002,9.22e-4 -0.0042,0.0021 -0.0064,0.0032 -0.0056,0.0029 -0.01168,0.0065 -0.01855,0.01087 -9.22e-4,5.36e-4 -0.0021,0.0012 -0.0031,0.0017 -0.0047,0.0031 -0.01043,0.0071 -0.01586,0.01072 -0.0065,0.0045 -0.01363,0.0094 -0.02105,0.01481 -0.0045,0.0033 -0.0092,0.0065 -0.01411,0.01027 -0.0081,0.006 -0.01699,0.01269 -0.02603,0.01975 -0.0056,0.0043 -0.01064,0.0081 -0.01661,0.01281 -0.01519,0.01212 -0.03148,0.02515 -0.04957,0.03979 -0.009,0.0051 -0.01805,0.0098 -0.02673,0.01431 -0.0341,0.01768 -0.06431,0.03086 -0.09101,0.04059 0.03397,-0.01199 0.07306,-0.02945 0.119782,-0.05495 0.111874,-0.09191 0.170041,-0.129497 0.191741,-0.130702 z m -8.9487904,0.494635 c -0.0029,0.0022 -0.0059,0.0041 -0.0088,0.0061 0.0029,-0.002 0.0059,-0.0039 0.0088,-0.0061 z m -0.298905,1.50681 c 0.0022,0.002 0.0041,0.0041 0.0061,0.0061 -0.002,-0.002 -0.0041,-0.0039 -0.0061,-0.0059 z m 0,0.255322 v 2.05e-4 c 0.002,0.002 0.0041,0.0039 0.0061,0.0059 -0.002,-0.002 -0.004,-0.0041 -0.0061,-0.0061 z"
     id="path16"
     inkscape:connector-curvature="0"
     style="opacity:0.3;stroke-width:0.04629759" />
  <path
     d="m 15.691471,6.9324783 -1.02e-4,6.8e-5 c 2.1e-5,3e-5 2.5e-5,6.8e-5 3.4e-5,1.02e-4 1.3e-5,-6.8e-5 2.5e-5,-1.02e-4 6.8e-5,-1.36e-4 z m -6.8e-5,1.36e-4 c -0.251342,0.965807 -1.606794,1.647671 -2.52335,2.085165 -0.09134,-0.599573 -0.252047,-1.19764 -0.505257,-1.762872 -0.294234,0.497138 -0.488458,1.046004 -0.838019,1.509338 -0.255034,0.3382 -0.536713,0.663429 -0.892045,0.920053 -0.03156,0.01089 -0.06288,0.02201 -0.09395,0.03341 -0.186814,0.06854 -0.3646,0.146297 -0.525555,0.238167 -0.7284604,0.4154097 -1.2583304,0.9816117 -1.6710084,1.6399097 -0.555019,0.885789 -0.170542,2.024603 -1.68911,2.871865 -0.02514,0.02984 -0.05604,0.05727 -0.09131,0.08313 0.0016,-0.0013 0.0034,-0.0025 0.005,-0.0038 0.0015,8.36e-4 0.0029,0.002 0.0043,0.0029 -0.270309,0.193858 -0.730553,0.25065 -0.844606,0.487206 -2.8e-5,-6.8e-5 -7.1e-5,-1.7e-4 -9.8e-5,-2.78e-4 -0.0027,0.0056 -0.0052,0.01131 -0.0075,0.01711 -4.5e-5,1.02e-4 -5.8e-5,2.36e-4 -9.9e-5,3.43e-4 -0.0016,0.004 -0.0029,0.0081 -0.0043,0.01222 -0.002,0.0057 -0.0037,0.01154 -0.0052,0.01745 -0.0014,0.0055 -0.0027,0.01108 -0.0038,0.01675 -0.0012,0.0064 -0.0023,0.01285 -0.003,0.01945 -5.79e-4,0.0049 -0.0011,0.0098 -0.0014,0.01476 -5.36e-4,0.0079 -7.07e-4,0.01605 -6e-4,0.02433 5.1e-5,0.0035 2.8e-5,0.0069 2.01e-4,0.01042 4.93e-4,0.01036 0.0016,0.0211 0.0031,0.03201 4.29e-4,0.0031 8.36e-4,0.0061 0.0013,0.0092 0.0019,0.01154 0.0044,0.02343 0.0075,0.03561 7.07e-4,0.0029 0.0015,0.0057 0.0023,0.0086 0.0033,0.01204 0.0072,0.02442 0.01162,0.0371 7e-6,1.3e-5 -7e-6,2.5e-5 0,6.8e-5 2.8e-5,6.8e-5 7.9e-5,1.02e-4 9.9e-5,1.7e-4 0.114045,-0.236556 0.574296,-0.29334 0.844606,-0.487206 -0.0015,-9.43e-4 -0.0029,-0.0021 -0.0043,-0.0029 -0.0016,0.0013 -0.0034,0.0025 -0.005,0.0038 0.03527,-0.02586 0.06617,-0.05329 0.09131,-0.08313 1.51858,-0.847261 1.13409,-1.986101 1.68911,-2.871864 0.412703,-0.658272 0.942573,-1.2245 1.6710074,-1.63991 0.160955,-0.09187 0.338736,-0.169626 0.525555,-0.2381667 0.03107,-0.0114 0.06239,-0.02252 0.09395,-0.03341 0.355307,-0.256625 0.637004,-0.58188 0.892045,-0.920054 0.349588,-0.463334 0.543786,-1.0122 0.838019,-1.509338 0.253213,0.565233 0.413929,1.1633 0.505257,1.762873 0.916531,-0.437469 2.271934,-1.119307 2.52335,-2.085064 -2.5e-5,-3.4e-5 -6.8e-5,-1.02e-4 -1.02e-4,-1.36e-4 l 1.7e-4,-1.02e-4 c -2.1e-5,6.8e-5 -2.5e-5,1.7e-4 -6.8e-5,2.38e-4 0.317289,0.443801 0.465887,0.965782 0.486006,1.486792 5.79e-4,-0.01369 0.0012,-0.02738 0.0016,-0.04109 1.3e-5,-4.87e-4 3.4e-5,-9.71e-4 3.4e-5,-0.0015 1.8e-5,-6.58e-4 6.8e-5,-0.0013 6.8e-5,-0.0019 6.21e-4,-0.02333 9.64e-4,-0.04669 0.0011,-0.07006 0.003,-0.567111 -0.142888,-1.143833 -0.488829,-1.627669 z m 1.335463,4.3034557 c -0.0074,0.0022 -0.01515,0.0045 -0.02259,0.0067 v 3.4e-5 c -0.05643,0.01677 -0.114234,0.03374 -0.171196,0.05072 -0.08867,0.02643 -0.176625,0.05282 -0.266505,0.07894 -2.6e-5,10e-6 -6.9e-5,3.4e-5 -1.02e-4,3.4e-5 -0.07759,0.02255 -0.155627,0.04479 -0.234029,0.06642 -2.5e-5,9e-6 -6.8e-5,0 -1.02e-4,0 -0.03918,0.01081 -0.07846,0.02145 -0.117836,0.03192 -2.6e-5,1.3e-5 -1.37e-4,6.8e-5 -1.71e-4,6.8e-5 -0.03936,0.01046 -0.07885,0.02073 -0.118385,0.03077 -2.6e-5,1.2e-5 -1.36e-4,6.8e-5 -1.7e-4,6.8e-5 -0.0082,0.0021 -0.01643,0.004 -0.02463,0.0061 -0.105244,0.02642 -0.21107,0.05112 -0.317468,0.07341 -0.0054,0.0011 -0.01086,0.0024 -0.0163,0.0035 -6.8e-5,1.4e-5 -1.36e-4,0 -2.04e-4,0 -0.007,0.0015 -0.01411,0.0027 -0.02114,0.0041 -0.193512,0.03941 -0.388728,0.07064 -0.585148,0.08891 h 4.07e-4 c 0.0069,-1.7e-4 0.01338,-3.64e-4 0.0197,-5.36e-4 0.0029,0 0.006,-1.02e-4 0.0089,-1.02e-4 h 7.07e-4 c -0.09734,0.0012 -0.244596,0.0234 -0.365417,0.02608 -1.5e-5,1.8e-5 -2.5e-5,2.5e-5 -3.4e-5,3.4e-5 -0.06298,0.07263 -0.126377,0.144895 -0.190294,0.216327 0.07498,0.07911 0.388932,0.01496 0.555734,0.01287 h -6.85e-4 c -0.0029,0 -0.006,1.7e-4 -0.0089,1.7e-4 -0.0063,1.7e-4 -0.01285,3.64e-4 -0.0197,5.36e-4 h -3.43e-4 c 0.196421,-0.01827 0.391639,-0.04955 0.585147,-0.08897 0.007,-0.0014 0.01411,-0.0027 0.02114,-0.0041 6.8e-5,0 1.36e-4,1.4e-5 2.05e-4,0 0.0054,-0.0011 0.01086,-0.0024 0.01631,-0.0035 0.106387,-0.02228 0.212213,-0.04698 0.317467,-0.07341 0.0082,-0.0021 0.01644,-0.004 0.02463,-0.0061 2.6e-5,0 6.9e-5,-2.5e-5 1.02e-4,-3.4e-5 0.03954,-0.01004 0.07903,-0.02031 0.118386,-0.03077 2.5e-5,0 1.36e-4,1.4e-5 1.7e-4,0 0.03937,-0.01046 0.07865,-0.0211 0.117837,-0.03192 2.5e-5,0 6.7e-5,-6.8e-5 1.02e-4,-6.8e-5 0.0784,-0.02164 0.156436,-0.04387 0.234028,-0.06642 2.6e-5,0 6.8e-5,1.1e-5 1.02e-4,0 0.08987,-0.02612 0.177819,-0.05251 0.266505,-0.07894 0.05696,-0.01697 0.114765,-0.03394 0.171196,-0.05071 v -6.8e-5 c 3.5e-5,-1.5e-5 1.02e-4,-2.5e-5 1.37e-4,-3.4e-5 0.01146,-0.08658 0.01932,-0.173864 0.02259,-0.262011 z m -1.855785,0.441121 c 0.0021,2.6e-5 0.0042,-1e-6 0.0062,3.4e-5 0.0027,0 0.0056,9e-6 0.0081,2.04e-4 0.0049,1.7e-4 0.0092,5.36e-4 0.01371,8.79e-4 0.003,1.7e-4 0.006,3.43e-4 0.0088,6.64e-4 -0.01108,-0.0011 -0.02336,-0.0017 -0.0369,-0.0018 z m 0,0.255322 c 0.01354,3.4e-5 0.02582,6.65e-4 0.0369,0.0018 -0.0028,-3.21e-4 -0.0059,-4.92e-4 -0.0088,-6.64e-4 -0.0045,-3.64e-4 -0.0088,-7.5e-4 -0.01371,-8.78e-4 -0.0025,-1.71e-4 -0.0054,-2.04e-4 -0.0081,-2.04e-4 -0.0021,-6.9e-5 -0.0042,-2.5e-5 -0.0062,-6.9e-5 z m -8.3204414,2.370999 c -0.0029,0.0022 -0.0059,0.0041 -0.0088,0.0061 0.0029,-0.002 0.0059,-0.0039 0.0088,-0.0061 z m 8.6541484,0.194834 c -9.43e-4,3.65e-4 -0.0019,7.72e-4 -0.0029,0.0011 -0.0045,0.0018 -0.0095,0.004 -0.01386,0.0056 0.0053,-0.0019 0.0101,-0.0033 0.01566,-0.0054 3.21e-4,-3.64e-4 4.07e-4,-4.93e-4 6.85e-4,-8.57e-4 1.36e-4,-1.7e-4 2.79e-4,-3.43e-4 4.07e-4,-4.93e-4 z m -8.6541484,0.06049 c -0.0029,0.0022 -0.0059,0.0041 -0.0088,0.0061 0.0029,-0.002 0.0059,-0.0039 0.0088,-0.0061 z"
     id="path18"
     inkscape:connector-curvature="0"
     style="opacity:0.1;fill:#ffffff;stroke-width:0.04629759" />
  <ellipse
     cx="9.2639875"
     cy="13.402948"
     rx="0.14722222"
     ry="0.18693334"
     style="opacity:0.3;fill:#070707;stroke-width:0.03404297;paint-order:markers fill stroke"
     id="ellipse20" />
  <ellipse
     cx="9.2639875"
     cy="13.300821"
     rx="0.14722222"
     ry="0.18693334"
     style="fill:#ffffff;stroke-width:0.03404297;paint-order:markers fill stroke"
     id="ellipse22" />
</svg>
