<?xml version="1.0" encoding="UTF-8" standalone="no"?>
<svg
   xmlns:dc="http://purl.org/dc/elements/1.1/"
   xmlns:cc="http://creativecommons.org/ns#"
   xmlns:rdf="http://www.w3.org/1999/02/22-rdf-syntax-ns#"
   xmlns:svg="http://www.w3.org/2000/svg"
   xmlns="http://www.w3.org/2000/svg"
   xmlns:sodipodi="http://sodipodi.sourceforge.net/DTD/sodipodi-0.dtd"
   xmlns:inkscape="http://www.inkscape.org/namespaces/inkscape"
   width="24"
   height="24"
   version="1"
   id="svg20"
   sodipodi:docname="image-jpeg.svg"
   inkscape:version="0.92.3 (2405546, 2018-03-11)">
  <metadata
     id="metadata26">
    <rdf:RDF>
      <cc:Work
         rdf:about="">
        <dc:format>image/svg+xml</dc:format>
        <dc:type
           rdf:resource="http://purl.org/dc/dcmitype/StillImage" />
        <dc:title></dc:title>
      </cc:Work>
    </rdf:RDF>
  </metadata>
  <defs
     id="defs24" />
  <sodipodi:namedview
     pagecolor="#ffffff"
     bordercolor="#666666"
     borderopacity="1"
     objecttolerance="10"
     gridtolerance="10"
     guidetolerance="10"
     inkscape:pageopacity="0"
     inkscape:pageshadow="2"
     inkscape:window-width="1366"
     inkscape:window-height="704"
     id="namedview22"
     showgrid="false"
     inkscape:zoom="19.666667"
     inkscape:cx="12.820282"
     inkscape:cy="7.7434033"
     inkscape:window-x="0"
     inkscape:window-y="30"
     inkscape:window-maximized="1"
     inkscape:current-layer="svg20" />
  <path
     inkscape:connector-curvature="0"
     style="opacity:0.2;stroke-width:0.5"
     d="M 22,6.0000002 C 22,5.4460001 21.554,5 21,5 H 3 C 2.446,5 2,5.4460001 2,6.0000002 V 20 c 0,0.554001 0.446,1 1,1 h 13 l 0.5,-5.499999 5.5,-0.805196 z"
     id="path2"
     sodipodi:nodetypes="sssssscccs" />
  <path
     style="fill:#e4e4e4;stroke-width:0.5"
     inkscape:connector-curvature="0"
     d="M 22,5.0000002 C 22,4.4460001 21.554,4 21,4 H 3 C 2.446,4 2,4.4460001 2,5.0000002 V 19 c 0,0.553999 0.446,1 1,1 H 16 L 18.025424,16.889831 22,14.694805 Z"
     id="path4"
     sodipodi:nodetypes="sssssscccs" />
  <path
     style="fill:#0083d7;stroke-width:0.4437061;fill-opacity:1"
     inkscape:connector-curvature="0"
     d="M 21,5.875 C 21,5.3902496 20.5986,5 20.1,5 H 3.9000002 c -0.4986,0 -0.9000001,0.3902496 -0.9000001,0.875 v 12.25 c 0,0.48475 0.4014001,0.875 0.9000001,0.875 H 16.355046 L 17.77582,16.380729 21,14.361227 Z"
     id="path4-3"
     sodipodi:nodetypes="sssssscccs" />
  <ellipse
     style="opacity:1;fill:#ffff00;fill-opacity:1;stroke:none;stroke-width:0.53944302;stroke-miterlimit:4;stroke-dasharray:none;stroke-opacity:1"
     id="path870"
     cx="11.754505"
     cy="8.2220926"
     rx="1.9841267"
     ry="2.1295476" />
  <path
     style="fill:#006600;fill-opacity:1;stroke:none;stroke-width:0.50399798px;stroke-linecap:butt;stroke-linejoin:miter;stroke-opacity:1"
     d="m 3.0000012,15.015095 3.2335324,-2.559113 2.9101803,2.193525 4.6347291,-4.167698 2.727387,4.375505 4.494169,-3.571212 -0.03593,3.546199 L 16.360982,18.92453 3.0000007,19 Z"
     id="path868"
     inkscape:connector-curvature="0"
     sodipodi:nodetypes="cccccccccc" />
  <path
     inkscape:connector-curvature="0"
     style="opacity:0.2;stroke-width:0.53518468"
     d="m 22,14.694805 h -5.513637 c -0.609037,0 -1.102727,0.465159 -1.102727,1.038962 v 5.194804 z"
     id="path8" />
  <path
     style="fill:#ffffff;fill-opacity:1;stroke-width:0.50964719"
     inkscape:connector-curvature="0"
     d="m 22,14.694805 h -5 c -0.5523,0 -1,0.465159 -1,1.038962 v 5.194804 z"
     id="path10" />
</svg>
