<?xml version="1.0" encoding="UTF-8" standalone="no"?>
<svg
   xmlns:dc="http://purl.org/dc/elements/1.1/"
   xmlns:cc="http://creativecommons.org/ns#"
   xmlns:rdf="http://www.w3.org/1999/02/22-rdf-syntax-ns#"
   xmlns:svg="http://www.w3.org/2000/svg"
   xmlns="http://www.w3.org/2000/svg"
   xmlns:sodipodi="http://sodipodi.sourceforge.net/DTD/sodipodi-0.dtd"
   xmlns:inkscape="http://www.inkscape.org/namespaces/inkscape"
   width="24"
   height="24"
   version="1"
   id="svg20"
   sodipodi:docname="image-x-svg+xml.svg"
   inkscape:version="0.92.3 (2405546, 2018-03-11)">
  <metadata
     id="metadata26">
    <rdf:RDF>
      <cc:Work
         rdf:about="">
        <dc:format>image/svg+xml</dc:format>
        <dc:type
           rdf:resource="http://purl.org/dc/dcmitype/StillImage" />
        <dc:title />
      </cc:Work>
    </rdf:RDF>
  </metadata>
  <defs
     id="defs24" />
  <sodipodi:namedview
     pagecolor="#ffffff"
     bordercolor="#666666"
     borderopacity="1"
     objecttolerance="10"
     gridtolerance="10"
     guidetolerance="10"
     inkscape:pageopacity="0"
     inkscape:pageshadow="2"
     inkscape:window-width="1366"
     inkscape:window-height="704"
     id="namedview22"
     showgrid="false"
     inkscape:zoom="13.906434"
     inkscape:cx="6.5285662"
     inkscape:cy="5.4765362"
     inkscape:window-x="0"
     inkscape:window-y="30"
     inkscape:window-maximized="1"
     inkscape:current-layer="svg20" />
  <path
     inkscape:connector-curvature="0"
     style="opacity:0.2;stroke-width:0.5"
     d="M 22,6.0000002 C 22,5.4460001 21.554,5 21,5 H 3 C 2.446,5 2,5.4460001 2,6.0000002 V 20 c 0,0.554001 0.446,1 1,1 h 13 l 0.5,-5.499999 5.5,-0.805196 z"
     id="path2"
     sodipodi:nodetypes="sssssscccs" />
  <path
     style="fill:#e4e4e4;stroke-width:0.5"
     inkscape:connector-curvature="0"
     d="M 22,5.0000002 C 22,4.4460001 21.554,4 21,4 H 3 C 2.446,4 2,4.4460001 2,5.0000002 V 19 c 0,0.553999 0.446,1 1,1 H 16 L 18.025424,16.889831 22,14.694805 Z"
     id="path4"
     sodipodi:nodetypes="sssssscccs" />
  <path
     style="fill:#7d18ac;stroke-width:0.4437061;fill-opacity:1"
     inkscape:connector-curvature="0"
     d="M 21,5.875 C 21,5.3902496 20.5986,5 20.1,5 H 3.9000002 c -0.4986,0 -0.9000001,0.3902496 -0.9000001,0.875 v 12.25 c 0,0.48475 0.4014001,0.875 0.9000001,0.875 H 16.355046 L 17.77582,16.380729 21,14.361227 Z"
     id="path4-3"
     sodipodi:nodetypes="sssssscccs" />
  <path
     inkscape:connector-curvature="0"
     style="opacity:0.4;fill:currentColor;stroke-width:0.66666657"
     class="ColorScheme-Text"
     d="m 14.333334,6.996099 v 1.036459 c -0.242,0.0142 -0.482023,0.02702 -0.74349,0.05209 -0.8526,0.0818 -1.774576,0.219313 -2.589843,0.48698 V 8.329436 H 8.333335 v 2.666666 H 8.41797 c -0.3796,0.902733 -0.6132726,1.954216 -0.7747396,2.927083 -0.023613,0.142 -0.037067,0.26825 -0.057293,0.40625 H 7 v 2.666666 h 0.6666667 l 0.333333,0.0078 v -0.0078 h 1.6666666 v -2.666666 h -1.407552 c 0.0154,-0.102667 0.024333,-0.194178 0.041667,-0.298178 0.1736663,-1.046266 0.4653247,-2.171088 0.8697913,-3.035155 H 10.999999 V 9.295581 c 0.7756,-0.2826 1.751713,-0.46171 2.653646,-0.548176 0.238333,-0.02293 0.457021,-0.03465 0.679687,-0.04818 v 0.963541 h 2.666666 V 6.9961 Z m -2.666667,4 3.20052,5.999998 L 17,14.746098 Z"
     id="path820" />
  <path
     inkscape:connector-curvature="0"
     style="opacity:0.2;stroke-width:0.53518468"
     d="m 22,14.694805 h -5.513637 c -0.609037,0 -1.102727,0.465159 -1.102727,1.038962 v 5.194804 z"
     id="path8" />
  <path
     style="fill:#ffffff;fill-opacity:1;stroke-width:0.50964719"
     inkscape:connector-curvature="0"
     d="m 22,14.694805 h -5 c -0.5523,0 -1,0.465159 -1,1.038962 v 5.194804 z"
     id="path10" />
</svg>
