<?xml version="1.0" encoding="UTF-8" standalone="no"?>
<svg
   xmlns:dc="http://purl.org/dc/elements/1.1/"
   xmlns:cc="http://creativecommons.org/ns#"
   xmlns:rdf="http://www.w3.org/1999/02/22-rdf-syntax-ns#"
   xmlns:svg="http://www.w3.org/2000/svg"
   xmlns="http://www.w3.org/2000/svg"
   xmlns:xlink="http://www.w3.org/1999/xlink"
   xmlns:sodipodi="http://sodipodi.sourceforge.net/DTD/sodipodi-0.dtd"
   xmlns:inkscape="http://www.inkscape.org/namespaces/inkscape"
   width="24"
   height="24"
   version="1"
   id="svg26"
   sodipodi:docname="video-x-generic.svg"
   inkscape:version="0.92.4 5da689c313, 2019-01-14">
  <metadata
     id="metadata32">
    <rdf:RDF>
      <cc:Work
         rdf:about="">
        <dc:format>image/svg+xml</dc:format>
        <dc:type
           rdf:resource="http://purl.org/dc/dcmitype/StillImage" />
        <dc:title></dc:title>
      </cc:Work>
    </rdf:RDF>
  </metadata>
  <defs
     id="defs30">
    <linearGradient
       inkscape:collect="always"
       id="linearGradient824">
      <stop
         style="stop-color:#0083d7;stop-opacity:1;"
         offset="0"
         id="stop820" />
      <stop
         style="stop-color:#00cc00;stop-opacity:1"
         offset="1"
         id="stop822" />
    </linearGradient>
    <linearGradient
       inkscape:collect="always"
       xlink:href="#linearGradient824"
       id="linearGradient826"
       x1="23.326996"
       y1="40.420635"
       x2="24.30724"
       y2="4.2099466"
       gradientUnits="userSpaceOnUse"
       gradientTransform="matrix(0.49999999,0,0,0.51020405,0,-0.22448972)" />
    <linearGradient
       inkscape:collect="always"
       xlink:href="#linearGradient824"
       id="linearGradient834"
       x1="22.961231"
       y1="40.315289"
       x2="23.758593"
       y2="4.2874856"
       gradientUnits="userSpaceOnUse"
       gradientTransform="matrix(0.49999999,0,0,0.51020405,0,0.59183918)" />
  </defs>
  <sodipodi:namedview
     pagecolor="#ffffff"
     bordercolor="#666666"
     borderopacity="1"
     objecttolerance="10"
     gridtolerance="10"
     guidetolerance="10"
     inkscape:pageopacity="0"
     inkscape:pageshadow="2"
     inkscape:window-width="1366"
     inkscape:window-height="712"
     id="namedview28"
     showgrid="false"
     inkscape:zoom="3.8664592"
     inkscape:cx="14.802074"
     inkscape:cy="30.088775"
     inkscape:window-x="0"
     inkscape:window-y="25"
     inkscape:window-maximized="1"
     inkscape:current-layer="svg26" />
  <rect
     style="fill:#000000;fill-opacity:1;stroke-width:0.49937615"
     width="19.950125"
     height="20"
     x="-22"
     y="-22"
     rx="0.9975062"
     ry="1"
     transform="matrix(0,-1,-1,0,0,0)"
     id="rect2" />
  <path
     style="opacity:0.2;stroke-width:0.49937615"
     d="M 3,22 C 2.446,22 2,21.555112 2,21.002494 v -0.498753 c 0,0.552618 0.446,0.997506 1,0.997506 h 18 c 0.554,0 1,-0.444888 1,-0.997506 v 0.498753 C 22,21.555112 21.554,22 21,22 Z"
     id="path6"
     inkscape:connector-curvature="0" />
  <path
     style="fill:#ffffff;stroke-width:0.49937615"
     d="M 3,3.0473816 V 5.042394 H 5 V 3.0473816 Z m 16,0 V 5.042394 h 2 V 3.0473816 Z M 3,7.0374065 V 9.0324193 H 5 V 7.0374065 Z m 16,0 v 1.9950128 h 2 V 7.0374065 Z M 3,11.027431 v 1.995013 h 2 v -1.995013 z m 16,0 v 1.995013 h 2 V 11.027431 Z M 3,15.017456 v 1.995013 h 2 v -1.995013 z m 16,0 v 1.995013 h 2 V 15.017456 Z M 3,19.007481 v 1.995013 h 2 v -1.995013 z m 16,0 v 1.995013 h 2 v -1.995013 z"
     id="path10"
     inkscape:connector-curvature="0" />
  <rect
     style="fill:url(#linearGradient826);fill-opacity:1;stroke-width:0.50507623"
     width="10"
     height="7.1428571"
     x="7"
     y="3.8571429"
     id="rect14" />
  <rect
     style="fill:url(#linearGradient834);fill-opacity:1;stroke-width:0.50507623"
     width="10"
     height="7.1428571"
     x="7"
     y="13.857143"
     id="rect18" />
  <path
     style="opacity:0.4;fill:#ffffff;stroke-width:0.34503278"
     d="M 3,2 C 2.446,2 2,2.212381 2,2.4761905 v 0.238095 c 0,-0.2638095 0.446,-0.47619 1,-0.47619 h 18 c 0.554,0 1,0.2123805 1,0.47619 V 2.4761905 C 22,2.212381 21.554,2 21,2 Z"
     id="path4"
     inkscape:connector-curvature="0" />
</svg>
