<?xml version="1.0" encoding="UTF-8" standalone="no"?>
<svg
   xmlns:dc="http://purl.org/dc/elements/1.1/"
   xmlns:cc="http://creativecommons.org/ns#"
   xmlns:rdf="http://www.w3.org/1999/02/22-rdf-syntax-ns#"
   xmlns:svg="http://www.w3.org/2000/svg"
   xmlns="http://www.w3.org/2000/svg"
   xmlns:xlink="http://www.w3.org/1999/xlink"
   xmlns:sodipodi="http://sodipodi.sourceforge.net/DTD/sodipodi-0.dtd"
   xmlns:inkscape="http://www.inkscape.org/namespaces/inkscape"
   width="64"
   height="64"
   version="1"
   id="svg22"
   sodipodi:docname="camera-photo.svg"
   inkscape:version="0.92.3 (2405546, 2018-03-11)">
  <metadata
     id="metadata28">
    <rdf:RDF>
      <cc:Work
         rdf:about="">
        <dc:format>image/svg+xml</dc:format>
        <dc:type
           rdf:resource="http://purl.org/dc/dcmitype/StillImage" />
      </cc:Work>
    </rdf:RDF>
  </metadata>
  <defs
     id="defs26">
    <linearGradient
       inkscape:collect="always"
       id="linearGradient839">
      <stop
         style="stop-color:#dcdcdc;stop-opacity:1;"
         offset="0"
         id="stop835" />
      <stop
         style="stop-color:#f0f0f0;stop-opacity:1"
         offset="1"
         id="stop837" />
    </linearGradient>
    <linearGradient
       inkscape:collect="always"
       xlink:href="#linearGradient839"
       id="linearGradient841"
       x1="32.033897"
       y1="52.610168"
       x2="34.949154"
       y2="11.118644"
       gradientUnits="userSpaceOnUse" />
  </defs>
  <sodipodi:namedview
     pagecolor="#ffffff"
     bordercolor="#666666"
     borderopacity="1"
     objecttolerance="10"
     gridtolerance="10"
     guidetolerance="10"
     inkscape:pageopacity="0"
     inkscape:pageshadow="2"
     inkscape:window-width="1366"
     inkscape:window-height="704"
     id="namedview24"
     showgrid="false"
     inkscape:zoom="10.429825"
     inkscape:cx="21.259987"
     inkscape:cy="19.868457"
     inkscape:window-x="0"
     inkscape:window-y="30"
     inkscape:window-maximized="1"
     inkscape:current-layer="svg22" />
  <rect
     style="fill:#4f4f4f"
     width="8"
     height="8"
     x="10"
     y="10"
     rx="2"
     ry="2"
     id="rect4" />
  <rect
     style="fill:url(#linearGradient841);fill-opacity:1"
     width="52"
     height="40"
     x="6"
     y="12"
     rx="2.5"
     ry="2.5"
     id="rect6" />
  <circle
     style="opacity:0.40"
     cx="52"
     cy="18"
     r="2"
     id="circle8" />
  <circle
     style="opacity:0.40"
     cx="32"
     cy="32"
     r="16"
     id="circle10" />
  <circle
     style="opacity:0.2"
     cx="32"
     cy="-33"
     r="12"
     transform="scale(1,-1)"
     id="circle12" />
  <circle
     style="fill:#009587"
     cx="32"
     cy="-32"
     r="12"
     transform="scale(1,-1)"
     id="circle14" />
  <circle
     style="opacity:0.2"
     cx="32"
     cy="33"
     r="8"
     id="circle16" />
  <circle
     style="fill:#66bfb7"
     cx="32"
     cy="32"
     r="8"
     id="circle18" />
  <path
     style="opacity:0.1;fill:#ffffff"
     d="M 8.5,12 C 7.115,12 6,13.115 6,14.5 V 15.5 C 6,14.115 7.115,13 8.5,13 H 55.5 C 56.88,13 58,14.115 58,15.5 V 14.5 C 58,13.115 56.88,12 55.5,12 Z"
     id="path20" />
  <path
     inkscape:connector-curvature="0"
     style="opacity:0.2;fill:#000000;fill-opacity:1"
     d="M 8.5,52 C 7.115,52 6,50.885 6,49.5 v -1 C 6,49.885 7.115,51 8.5,51 h 47 c 1.38,0 2.5,-1.115 2.5,-2.5 v 1 c 0,1.385 -1.12,2.5 -2.5,2.5 z"
     id="path20-3" />
</svg>
