<?xml version="1.0" encoding="UTF-8" standalone="no"?>
<svg
   xmlns:dc="http://purl.org/dc/elements/1.1/"
   xmlns:cc="http://creativecommons.org/ns#"
   xmlns:rdf="http://www.w3.org/1999/02/22-rdf-syntax-ns#"
   xmlns:svg="http://www.w3.org/2000/svg"
   xmlns="http://www.w3.org/2000/svg"
   xmlns:xlink="http://www.w3.org/1999/xlink"
   xmlns:sodipodi="http://sodipodi.sourceforge.net/DTD/sodipodi-0.dtd"
   xmlns:inkscape="http://www.inkscape.org/namespaces/inkscape"
   width="64"
   height="64"
   version="1"
   id="svg10"
   sodipodi:docname="drive-optical.svg"
   inkscape:version="0.92.3 (2405546, 2018-03-11)">
  <metadata
     id="metadata16">
    <rdf:RDF>
      <cc:Work
         rdf:about="">
        <dc:format>image/svg+xml</dc:format>
        <dc:type
           rdf:resource="http://purl.org/dc/dcmitype/StillImage" />
      </cc:Work>
    </rdf:RDF>
  </metadata>
  <defs
     id="defs14">
    <linearGradient
       inkscape:collect="always"
       id="linearGradient842">
      <stop
         style="stop-color:#d2d2d2;stop-opacity:1"
         offset="0"
         id="stop838" />
      <stop
         style="stop-color:#dcdcdc;stop-opacity:1"
         offset="1"
         id="stop840" />
    </linearGradient>
    <linearGradient
       inkscape:collect="always"
       xlink:href="#linearGradient842"
       id="linearGradient844"
       x1="-60"
       y1="-32"
       x2="-4"
       y2="-32"
       gradientUnits="userSpaceOnUse" />
  </defs>
  <sodipodi:namedview
     pagecolor="#ffffff"
     bordercolor="#666666"
     borderopacity="1"
     objecttolerance="10"
     gridtolerance="10"
     guidetolerance="10"
     inkscape:pageopacity="0"
     inkscape:pageshadow="2"
     inkscape:window-width="1366"
     inkscape:window-height="704"
     id="namedview12"
     showgrid="false"
     inkscape:zoom="5.2149125"
     inkscape:cx="16.20407"
     inkscape:cy="30.004598"
     inkscape:window-x="0"
     inkscape:window-y="30"
     inkscape:window-maximized="1"
     inkscape:current-layer="svg10" />
  <rect
     style="fill:url(#linearGradient844);fill-opacity:1"
     width="56"
     height="56"
     x="-60"
     y="-60"
     rx="2.5"
     ry="2.5"
     transform="matrix(0,-1,-1,0,0,0)"
     id="rect4" />
  <path
     style="opacity:0.5"
     d="M 32,12 A 20,20 0 0 0 12,32 20,20 0 0 0 32,52 20,20 0 0 0 52,32 20,20 0 0 0 32,12 Z M 32,24 A 8,8 0 0 1 40,32 8,8 0 0 1 32,40 8,8 0 0 1 24,32 8,8 0 0 1 32,24 Z"
     id="path6" />
  <path
     style="opacity:0.4;fill:#ffffff"
     d="M 6.5,4 C 5.115,4 4,5.115 4,6.5 V 7.5 C 4,6.115 5.115,5 6.5,5 H 57.5 C 58.89,5 60,6.115 60,7.5 V 6.5 C 60,5.115 58.89,4 57.5,4 Z"
     id="path8" />
  <path
     inkscape:connector-curvature="0"
     style="opacity:0.2;fill:#000000"
     d="m 6.7711865,60 c -1.385,0 -2.5,-1.115 -2.5,-2.5 v -1 c 0,1.385 1.115,2.5 2.5,2.5 H 57.771186 c 1.39,0 2.5,-1.115 2.5,-2.5 v 1 c 0,1.385 -1.11,2.5 -2.5,2.5 z"
     id="path8-3" />
</svg>
