<?xml version="1.0" encoding="UTF-8" standalone="no"?>
<svg
   xmlns:dc="http://purl.org/dc/elements/1.1/"
   xmlns:cc="http://creativecommons.org/ns#"
   xmlns:rdf="http://www.w3.org/1999/02/22-rdf-syntax-ns#"
   xmlns:svg="http://www.w3.org/2000/svg"
   xmlns="http://www.w3.org/2000/svg"
   xmlns:sodipodi="http://sodipodi.sourceforge.net/DTD/sodipodi-0.dtd"
   xmlns:inkscape="http://www.inkscape.org/namespaces/inkscape"
   width="64"
   height="64"
   version="1"
   id="svg20"
   sodipodi:docname="phone.svg"
   inkscape:version="0.92.3 (2405546, 2018-03-11)">
  <metadata
     id="metadata26">
    <rdf:RDF>
      <cc:Work
         rdf:about="">
        <dc:format>image/svg+xml</dc:format>
        <dc:type
           rdf:resource="http://purl.org/dc/dcmitype/StillImage" />
      </cc:Work>
    </rdf:RDF>
  </metadata>
  <defs
     id="defs24" />
  <sodipodi:namedview
     pagecolor="#ffffff"
     bordercolor="#666666"
     borderopacity="1"
     objecttolerance="10"
     gridtolerance="10"
     guidetolerance="10"
     inkscape:pageopacity="0"
     inkscape:pageshadow="2"
     inkscape:window-width="1366"
     inkscape:window-height="704"
     id="namedview22"
     showgrid="false"
     inkscape:zoom="3.6875"
     inkscape:cx="3.3898305"
     inkscape:cy="32"
     inkscape:window-x="0"
     inkscape:window-y="30"
     inkscape:window-maximized="1"
     inkscape:current-layer="svg20" />
  <rect
     style="opacity:0.2"
     width="40"
     height="60"
     x="12"
     y="3"
     rx="3"
     ry="3"
     id="rect2" />
  <rect
     style="fill:#f0f0f0;fill-opacity:1"
     width="40"
     height="60"
     x="12"
     y="2"
     rx="3"
     ry="3"
     id="rect4" />
  <rect
     style="fill:#333333"
     width="36"
     height="46"
     x="14"
     y="8"
     id="rect6" />
  <rect
     style="fill:#333333"
     width="10"
     height="2"
     x="27"
     y="4"
     rx="1.25"
     ry="1"
     id="rect8" />
  <path
     style="fill:#ffffff;opacity:0.2"
     d="M 15 2 C 13.338 2 12 3.338 12 5 L 12 6 C 12 4.338 13.338 3 15 3 L 49 3 C 50.662 3 52 4.338 52 6 L 52 5 C 52 3.338 50.662 2 49 2 L 15 2 z"
     id="path10" />
  <rect
     style="fill:#4d4d4d"
     width="6"
     height="6"
     x="29"
     y="55"
     rx="1.5"
     ry="1.5"
     id="rect12" />
  <circle
     style="fill:#333333"
     cx="40"
     cy="5"
     r="1"
     id="circle18" />
</svg>
