<?xml version="1.0" encoding="UTF-8" standalone="no"?>
<svg
   xmlns:dc="http://purl.org/dc/elements/1.1/"
   xmlns:cc="http://creativecommons.org/ns#"
   xmlns:rdf="http://www.w3.org/1999/02/22-rdf-syntax-ns#"
   xmlns:svg="http://www.w3.org/2000/svg"
   xmlns="http://www.w3.org/2000/svg"
   xmlns:xlink="http://www.w3.org/1999/xlink"
   xmlns:sodipodi="http://sodipodi.sourceforge.net/DTD/sodipodi-0.dtd"
   xmlns:inkscape="http://www.inkscape.org/namespaces/inkscape"
   width="32"
   height="32"
   version="1"
   id="svg16"
   sodipodi:docname="dialog-error.svg"
   inkscape:version="0.92.3 (2405546, 2018-03-11)">
  <metadata
     id="metadata22">
    <rdf:RDF>
      <cc:Work
         rdf:about="">
        <dc:format>image/svg+xml</dc:format>
        <dc:type
           rdf:resource="http://purl.org/dc/dcmitype/StillImage" />
      </cc:Work>
    </rdf:RDF>
  </metadata>
  <defs
     id="defs20">
    <linearGradient
       inkscape:collect="always"
       id="linearGradient833">
      <stop
         style="stop-color:#db3c30;stop-opacity:1;"
         offset="0"
         id="stop829" />
      <stop
         style="stop-color:#e15d53;stop-opacity:1"
         offset="1"
         id="stop831" />
    </linearGradient>
    <linearGradient
       inkscape:collect="always"
       xlink:href="#linearGradient833"
       id="linearGradient835"
       x1="-30"
       y1="-16"
       x2="-2"
       y2="-16"
       gradientUnits="userSpaceOnUse" />
  </defs>
  <sodipodi:namedview
     pagecolor="#ffffff"
     bordercolor="#666666"
     borderopacity="1"
     objecttolerance="10"
     gridtolerance="10"
     guidetolerance="10"
     inkscape:pageopacity="0"
     inkscape:pageshadow="2"
     inkscape:window-width="1366"
     inkscape:window-height="704"
     id="namedview18"
     showgrid="false"
     inkscape:zoom="7.375"
     inkscape:cx="2.779661"
     inkscape:cy="16"
     inkscape:window-x="0"
     inkscape:window-y="30"
     inkscape:window-maximized="1"
     inkscape:current-layer="svg16" />
  <rect
     fill="#db3c30"
     width="28"
     height="28"
     x="-30"
     y="-30"
     rx="14"
     ry="14"
     transform="matrix(0,-1,-1,0,0,0)"
     id="rect2"
     style="fill-opacity:1;fill:url(#linearGradient835)" />
  <g
     opacity=".2"
     transform="matrix(1 0 0 1.3846 -530 499.53)"
     id="g6">
    <path
       class="error"
       d="m545-355h2v9.389h-2zm0 11.556h2v1.4445h-2z"
       id="path4" />
  </g>
  <g
     transform="matrix(1 0 0 1.3846 -530 498.53)"
     id="g10">
    <path
       fill="#fff"
       class="error"
       d="m545-355h2v9.389h-2zm0 11.556h2v1.4445h-2z"
       id="path8" />
  </g>
  <path
     fill="#fff"
     opacity=".2"
     d="m16 2c-7.756 0-14 6.244-14 14 0 0.169 0.0195 0.333 0.0254 0.5 0.2637-7.5206 6.3874-13.5 13.975-13.5 7.587 0 13.711 5.9794 13.975 13.5 0.005-0.167 0.025-0.331 0.025-0.5 0-7.756-6.244-14-14-14z"
     id="path12"
     style="opacity:0.4" />
  <path
     d="M 2.0254,15.5 C 2.0195,15.667 2,15.831 2,16 c 0,7.756 6.244,14 14,14 7.756,0 14,-6.244 14,-14 0,-0.16884 -0.01952,-0.33264 -0.02539,-0.5 -0.264,7.521 -6.388,13.5 -13.975,13.5 -7.5872,0 -13.711,-5.979 -13.975,-13.5 z"
     id="path14"
     inkscape:connector-curvature="0"
     style="opacity:0.2" />
</svg>
