<?xml version="1.0" encoding="UTF-8" standalone="no"?>
<svg
   xmlns:dc="http://purl.org/dc/elements/1.1/"
   xmlns:cc="http://creativecommons.org/ns#"
   xmlns:rdf="http://www.w3.org/1999/02/22-rdf-syntax-ns#"
   xmlns:svg="http://www.w3.org/2000/svg"
   xmlns="http://www.w3.org/2000/svg"
   xmlns:xlink="http://www.w3.org/1999/xlink"
   xmlns:sodipodi="http://sodipodi.sourceforge.net/DTD/sodipodi-0.dtd"
   xmlns:inkscape="http://www.inkscape.org/namespaces/inkscape"
   width="32"
   height="32"
   version="1"
   id="svg24"
   sodipodi:docname="user-trash.svg"
   inkscape:version="0.92.4 5da689c313, 2019-01-14">
  <metadata
     id="metadata30">
    <rdf:RDF>
      <cc:Work
         rdf:about="">
        <dc:format>image/svg+xml</dc:format>
        <dc:type
           rdf:resource="http://purl.org/dc/dcmitype/StillImage" />
        <dc:title></dc:title>
      </cc:Work>
    </rdf:RDF>
  </metadata>
  <defs
     id="defs28">
    <linearGradient
       inkscape:collect="always"
       id="linearGradient1481">
      <stop
         style="stop-color:#000000;stop-opacity:1;"
         offset="0"
         id="stop1477" />
      <stop
         style="stop-color:#000000;stop-opacity:0;"
         offset="1"
         id="stop1479" />
    </linearGradient>
    <linearGradient
       inkscape:collect="always"
       id="linearGradient1425">
      <stop
         style="stop-color:#ffffff;stop-opacity:1;"
         offset="0"
         id="stop1421" />
      <stop
         style="stop-color:#ffffff;stop-opacity:0;"
         offset="1"
         id="stop1423" />
    </linearGradient>
    <linearGradient
       inkscape:collect="always"
       xlink:href="#linearGradient849"
       id="linearGradient851"
       x1="17.426399"
       y1="136"
       x2="238.57359"
       y2="136"
       gradientUnits="userSpaceOnUse"
       gradientTransform="matrix(0.00511165,0,0,0.00521515,20.432712,228.60343)" />
    <linearGradient
       inkscape:collect="always"
       id="linearGradient849">
      <stop
         style="stop-color:#d6d6d6;stop-opacity:1"
         offset="0"
         id="stop845" />
      <stop
         style="stop-color:#eaeaea;stop-opacity:1"
         offset="1"
         id="stop847" />
    </linearGradient>
    <linearGradient
       inkscape:collect="always"
       xlink:href="#linearGradient1425"
       id="linearGradient1427"
       x1="130.78624"
       y1="46.669899"
       x2="130.75026"
       y2="66.303192"
       gradientUnits="userSpaceOnUse"
       gradientTransform="matrix(0.05957448,0,0,0.05957448,19.283183,226.80238)" />
    <linearGradient
       inkscape:collect="always"
       xlink:href="#linearGradient1481"
       id="linearGradient1483"
       x1="124.48611"
       y1="231.85847"
       x2="124.72912"
       y2="211.17752"
       gradientUnits="userSpaceOnUse"
       gradientTransform="matrix(0.05957448,0,0,0.05957448,19.283183,227.04749)" />
  </defs>
  <sodipodi:namedview
     pagecolor="#ffffff"
     bordercolor="#666666"
     borderopacity="1"
     objecttolerance="10"
     gridtolerance="10"
     guidetolerance="10"
     inkscape:pageopacity="0"
     inkscape:pageshadow="2"
     inkscape:window-width="1366"
     inkscape:window-height="691"
     id="namedview26"
     showgrid="false"
     inkscape:zoom="16.1875"
     inkscape:cx="-2.8108108"
     inkscape:cy="20.355212"
     inkscape:window-x="0"
     inkscape:window-y="0"
     inkscape:window-maximized="1"
     inkscape:current-layer="user-trash" />
  <g
     style="fill:none;fill-rule:evenodd;stroke:none;stroke-width:0.08848412"
     id="user-trash"
     transform="matrix(2.374092,0,0,2.4478583,-47.883767,-559.14628)">
    <path
       inkscape:connector-curvature="0"
       style="opacity:0.2;fill:none;fill-opacity:1;fill-rule:evenodd;stroke:url(#linearGradient1483);stroke-width:0.24712592;stroke-linecap:round;stroke-linejoin:round;stroke-miterlimit:4;stroke-dasharray:none;stroke-opacity:1"
       id="path15-5-7"
       d="m 22.572105,239.85305 c 0.04564,0.52373 0.490162,0.94676 0.993033,0.94676 h 6.687156 c 0.500158,0 0.947466,-0.42388 0.993033,-0.94676 l 0.795325,-8.98851 c 0.361314,0 0.641492,-0.33506 0.641492,-0.68519 0,-0.35258 -0.305371,-0.57099 -0.641492,-0.57099 H 21.776779 c -0.334558,0 -0.641492,0.22086 -0.641492,0.57099 0,0.35258 0.305373,0.68519 0.641492,0.68519 z" />
    <path
       inkscape:connector-curvature="0"
       style="opacity:0.9;fill:url(#linearGradient851);fill-opacity:1;stroke:none;stroke-width:0.02420512;stroke-linecap:round;stroke-linejoin:round;stroke-miterlimit:4;stroke-dasharray:none;stroke-opacity:0.39215686"
       id="path15"
       d="m 22.572105,239.71059 c 0.04564,0.5353 0.490163,0.96766 0.993033,0.96766 h 6.687156 c 0.500158,0 0.947466,-0.43323 0.993033,-0.96766 l 0.795325,-9.18699 c 0.361314,0 0.641492,-0.34245 0.641492,-0.70032 0,-0.36036 -0.305371,-0.58359 -0.641492,-0.58359 H 21.776779 c -0.334558,0 -0.641492,0.22573 -0.641492,0.58359 0,0.36036 0.305373,0.70032 0.641492,0.70032 z" />
    <path
       style="fill:#ffffff;stroke-width:0.00527139"
       inkscape:connector-curvature="0"
       id="Fill-1"
       d="m 26.88692,233.86914 c -0.610914,-1.34214 -1.253544,-0.26138 -1.253544,-0.26138 l -0.48726,0.91973 1.003019,0.62408 z m 2.169223,-0.41116 -0.540582,0.326 -0.198121,-0.3725 c 0,0 -0.153074,-0.38766 -0.908326,-0.34704 0,0 -0.935906,0.0279 -1.033357,0.009 0,0 0.265234,0.0558 0.397162,0.27461 l 0.597582,1.12579 -0.436695,0.26236 1.465456,0.0338 z m -3.591929,3.24621 c -0.758009,1.25257 0.44359,1.27656 0.44359,1.27656 l 0.989688,-0.0347 -0.01977,-1.23691 z m -1.456262,-1.75918 0.542421,0.32208 -0.196742,0.37347 c 0,0 -0.230759,0.34165 0.194444,1.00636 0,0 0.509784,0.83799 0.5438,0.93637 0,0 -0.09332,-0.27019 0.01379,-0.50416 l 0.592984,-1.12873 0.438074,0.25991 -0.735026,-1.34997 z m 4.572424,1.57171 c 1.396963,0.094 0.830179,-1.03377 0.830179,-1.03377 l -0.511622,-0.90406 -1.003938,0.62261 z m -1.481545,0.95791 0.749276,-1.34166 v 0.535 h 1.214012 c 0.244089,-0.0147 0.420146,-0.23347 0.420146,-0.23347 -0.0639,0.0793 -0.502429,0.96231 -0.502429,0.96231 -0.337404,0.71953 -0.72997,0.67156 -0.72997,0.67156 h -0.401759 v 0.66079 z" />
    <path
       inkscape:connector-curvature="0"
       style="fill:#007dcb;fill-opacity:1;stroke-width:0.00527139"
       id="path18"
       d="m 26.88692,233.75 c -0.610914,-1.34215 -1.253544,-0.26138 -1.253544,-0.26138 l -0.48726,0.91973 1.003019,0.62407 z m 2.169223,-0.41116 -0.540582,0.32599 -0.198121,-0.37249 c 0,0 -0.153074,-0.38767 -0.908326,-0.34704 0,0 -0.935906,0.0279 -1.033357,0.009 0,0 0.265234,0.0558 0.397162,0.27459 l 0.597582,1.1258 -0.436695,0.26236 1.465456,0.0338 z m -3.591929,3.2462 c -0.758009,1.25258 0.44359,1.27656 0.44359,1.27656 l 0.989688,-0.0347 -0.01977,-1.23691 z m -1.456262,-1.75918 0.542421,0.32208 -0.196742,0.37348 c 0,0 -0.230759,0.34165 0.194444,1.00636 0,0 0.509784,0.83798 0.5438,0.93637 0,0 -0.09332,-0.2702 0.01379,-0.50416 l 0.592984,-1.12873 0.438074,0.25991 -0.735026,-1.34998 z m 4.572424,1.57171 c 1.396963,0.094 0.830179,-1.03377 0.830179,-1.03377 l -0.511622,-0.90406 -1.003938,0.62261 z m -1.481545,0.95792 0.749276,-1.34166 v 0.535 h 1.214012 c 0.244089,-0.0147 0.420146,-0.23349 0.420146,-0.23349 -0.0639,0.0793 -0.502429,0.96231 -0.502429,0.96231 -0.337404,0.71953 -0.72997,0.67157 -0.72997,0.67157 h -0.401759 v 0.66079 z" />
    <g
       transform="matrix(0.05458684,0,0,0.05957448,23.961027,232.93856)"
       id="Group"
       style="stroke-width:0.0924382">
      <path
         inkscape:connector-curvature="0"
         style="fill:#005285;fill-opacity:1;stroke-width:0.0924382"
         id="path20"
         d="m 98.627559,60.782404 c 1.190715,-2.074987 2.165851,-3.699715 2.518411,-4.100606 0,0 -3.225268,3.672648 -7.696847,3.919135 h -22.24 v -8.980325 l -13.726316,22.520649 0.629954,0.96644 13.096362,-21.487089 v 8.980325 h 22.24 c 2.05254,-0.113142 3.842483,-0.948172 5.178436,-1.818529 z" />
      <path
         inkscape:connector-curvature="0"
         style="fill:#005285;fill-opacity:1;stroke-width:0.0924382"
         id="path22"
         d="m 101.87349,49.538031 c 0.38982,-4.396404 -2.041209,-8.828558 -2.041209,-8.828558 L 90.459649,25.534122 72.06807,35.985149 l 0.859638,1.51151 17.531941,-9.962537 9.372632,15.175351 c 0,0 1.745459,3.182261 2.041209,6.828558 z" />
      <path
         inkscape:connector-curvature="0"
         style="fill:#005285;fill-opacity:1;stroke-width:0.0924382"
         id="path24"
         d="m 22.990685,74.032242 c -0.311157,-3.059027 0.836105,-7.204849 4.546859,-12.823309 l 25.894737,0.08216 0.362105,20.762378 -0.03486,0.0011 -0.327244,-18.7635 -25.894737,-0.08216 c -2.957659,4.478196 -4.286757,8.020841 -4.546859,10.823309 z" />
      <polygon
         style="fill:#005285;fill-opacity:1;stroke-width:0.0924382"
         points="62.459649,25.767635 61.581178,24.251222 54.459649,28.171527 57.958577,28.245415 "
         id="Path" />
      <path
         inkscape:connector-curvature="0"
         style="fill:#005285;fill-opacity:1;stroke-width:0.0924382"
         id="path27"
         d="m 7.1922807,43.355095 c 0,0 -1.3989572,1.897849 -1.10444,5.634109 0.2039637,-2.412508 1.10444,-3.634109 1.10444,-3.634109 L 10.796491,39.086122 10.900002,37 Z" />
      <path
         inkscape:connector-curvature="0"
         style="fill:#005285;fill-opacity:1;stroke-width:0.0924382"
         id="path29"
         d="m 22.579878,25.167248 -0.869703,-0.495829 8.926316,-15.43827 c 0,0 11.772632,-18.1414055 22.964211,4.387459 l -0.564387,0.898895 C 42.016955,-6.3039334 30.636491,11.233149 30.636491,11.233149 Z" />
      <polygon
         style="fill:#005285;fill-opacity:1;stroke-width:0.0924382"
         points="26.392281,32.258446 4.1944644,33.494202 0.85964912,31.679852 26.392281,30.258446 39.857544,52.918771 38.101985,51.964388 "
         id="polygon31" />
      <path
         inkscape:connector-curvature="0"
         style="fill:#005589;fill-opacity:1;stroke-width:0.0924382"
         id="path33"
         d="M 49.041794,2.3707458 C 46.736367,0.74293632 44.236491,0.26104084 44.236491,0.26104084 46.021754,0.58147327 63.167017,0.11314895 63.167017,0.11314895 c 13.83579,-0.68194594 16.64,5.82529725 16.64,5.82529725 l 3.629474,6.2525408 9.903158,-5.4720002 -1.565842,2.8652079 -8.337316,4.6067923 -3.629474,-6.2525408 c 0,0 -2.80421,-6.5072432 -16.64,-5.8252973 0,0 -8.471807,0.2314082 -14.125223,0.2575969 z" />
    </g>
    <path
       inkscape:connector-curvature="0"
       style="opacity:0.8;fill:none;fill-opacity:1;fill-rule:evenodd;stroke:url(#linearGradient1427);stroke-width:0.24712592;stroke-linecap:round;stroke-linejoin:round;stroke-miterlimit:4;stroke-dasharray:none;stroke-opacity:1"
       id="path15-5"
       d="m 22.572105,239.60794 c 0.04564,0.52373 0.490162,0.94676 0.993033,0.94676 h 6.687156 c 0.500158,0 0.947466,-0.42388 0.993033,-0.94676 l 0.795325,-8.98851 c 0.361314,0 0.641492,-0.33506 0.641492,-0.68519 0,-0.35258 -0.305371,-0.57099 -0.641492,-0.57099 H 21.776779 c -0.334558,0 -0.641492,0.22086 -0.641492,0.57099 0,0.35258 0.305373,0.68519 0.641492,0.68519 z" />
  </g>
</svg>
