<?xml version="1.0" encoding="UTF-8" standalone="no"?>
<svg
   xmlns:dc="http://purl.org/dc/elements/1.1/"
   xmlns:cc="http://creativecommons.org/ns#"
   xmlns:rdf="http://www.w3.org/1999/02/22-rdf-syntax-ns#"
   xmlns:svg="http://www.w3.org/2000/svg"
   xmlns="http://www.w3.org/2000/svg"
   xmlns:xlink="http://www.w3.org/1999/xlink"
   xmlns:sodipodi="http://sodipodi.sourceforge.net/DTD/sodipodi-0.dtd"
   xmlns:inkscape="http://www.inkscape.org/namespaces/inkscape"
   width="64"
   height="64"
   version="1.1"
   viewBox="0 0 48 48"
   id="svg52"
   sodipodi:docname="accessories-calculator.svg"
   inkscape:version="0.92.4 5da689c313, 2019-01-14">
  <metadata
     id="metadata56">
    <rdf:RDF>
      <cc:Work
         rdf:about="">
        <dc:format>image/svg+xml</dc:format>
        <dc:type
           rdf:resource="http://purl.org/dc/dcmitype/StillImage" />
        <dc:title />
      </cc:Work>
    </rdf:RDF>
  </metadata>
  <sodipodi:namedview
     pagecolor="#ffffff"
     bordercolor="#666666"
     borderopacity="1"
     objecttolerance="10"
     gridtolerance="10"
     guidetolerance="10"
     inkscape:pageopacity="0"
     inkscape:pageshadow="2"
     inkscape:window-width="1366"
     inkscape:window-height="691"
     id="namedview54"
     showgrid="false"
     inkscape:zoom="6.2976698"
     inkscape:cx="2.4934269"
     inkscape:cy="22.047195"
     inkscape:window-x="0"
     inkscape:window-y="0"
     inkscape:window-maximized="1"
     inkscape:current-layer="g50" />
  <defs
     id="defs14">
    <linearGradient
       inkscape:collect="always"
       id="linearGradient912">
      <stop
         style="stop-color:#003399;stop-opacity:1"
         offset="0"
         id="stop908" />
      <stop
         style="stop-color:#0099ff;stop-opacity:1"
         offset="1"
         id="stop910" />
    </linearGradient>
    <clipPath
       id="clipPath4">
      <rect
         width="384"
         height="384"
         id="rect2"
         x="0"
         y="0" />
    </clipPath>
    <clipPath
       id="clipPath8">
      <rect
         width="384"
         height="384"
         id="rect6"
         x="0"
         y="0" />
    </clipPath>
    <clipPath
       id="clipPath12">
      <rect
         width="384"
         height="384"
         id="rect10"
         x="0"
         y="0" />
    </clipPath>
    <linearGradient
       inkscape:collect="always"
       xlink:href="#linearGradient912"
       id="linearGradient914"
       x1="23.246401"
       y1="192.00459"
       x2="360.75366"
       y2="192.00459"
       gradientUnits="userSpaceOnUse"
       gradientTransform="matrix(0.12444044,0,0,0.12444105,0.11720842,336.12675)" />
  </defs>
  <g
     transform="translate(-0.01,-336.02)"
     id="g50">
    <path
       style="opacity:0.2;fill:#000000;fill-opacity:1;stroke-width:0.12444073"
       inkscape:connector-curvature="0"
       id="path16-0"
       d="m 24.012485,339.76988 v 20.99943 h -0.0019 V 339.77237 H 6.4109337 c -1.749508,0.01 -3.1790798,1.30663 -3.4007082,2.9958 v 18.00413 h 0.00389 v 17.53996 c 0,1.91329 1.5404481,3.45374 3.4537199,3.45374 H 24.008957 v 0.004 h 17.568501 c 1.886019,-0.0102 3.402202,-1.51619 3.432316,-3.39686 v -17.6034 h -0.01069 v -17.55117 c -8e-6,-1.87396 -1.477733,-3.38617 -3.335629,-3.44839 z" />
    <path
       style="fill:url(#linearGradient914);fill-opacity:1;stroke-width:0.12444074"
       inkscape:connector-curvature="0"
       id="path16"
       d="m 24.012262,339.02 v 20.99943 h -0.0019 V 339.02249 H 6.410709 c -1.7495081,0.01 -3.1790799,1.30663 -3.4007083,2.9958 v 18.00413 h 0.00389 v 17.53996 c 0,1.91329 1.5404482,3.45374 3.45372,3.45374 H 24.008734 v 0.004 h 17.568501 c 1.886019,-0.0102 3.402202,-1.51619 3.432316,-3.39686 v -17.60343 h -0.01069 v -17.55117 c -5e-6,-1.87396 -1.47773,-3.38617 -3.335626,-3.44839 z" />
    <path
       style="fill:#000000;fill-opacity:0.39215686;stroke-width:0.12444074"
       inkscape:connector-curvature="0"
       id="path20"
       d="m 3.0143063,360.02068 v 17.53996 c 0,1.91328 1.5404482,3.45374 3.45372,3.45374 H 24.010395 v -20.99445 z" />
    <path
       d="m 6.4111574,339.022 c -1.749508,0.01 -3.17908,1.30663 -3.400708,2.99579 v 18.00413 H 24.011017 v -20.99943 z"
       id="path30"
       inkscape:connector-curvature="0"
       style="fill:#000000;fill-opacity:0.19607843;stroke-width:0.12444074" />
    <path
       d="m 14.343239,346.14316 v 3.66516 h 3.65158 v 1.65084 h -3.65158 v 3.66566 h -1.664391 v -3.66566 H 9.0272684 v -1.65084 h 3.6515796 v -3.66516 z"
       id="path32"
       inkscape:connector-curvature="0"
       style="opacity:0.3;stroke-width:0.12444074" />
    <path
       d="m 14.324637,344.89789 v 3.6466 h 3.638801 v 1.64248 h -3.638801 v 3.64709 H 12.66607 v -3.64709 H 9.0272684 v -1.64248 H 12.66607 v -3.6466 z"
       id="path34"
       inkscape:connector-curvature="0"
       style="fill:#ffffff;stroke-width:0.12390786" />
    <path
       d="m 17.723042,368.42294 -3.036099,3.03574 3.036099,3.02155 -1.175378,1.17538 -3.035724,-3.02205 -3.035724,3.02205 -1.1753776,-1.17538 3.0357246,-3.02155 -3.0357246,-3.03574 1.1753776,-1.17539 3.035724,3.03574 3.035724,-3.03574 z"
       id="path40"
       inkscape:connector-curvature="0"
       style="opacity:0.3;stroke-width:0.12444074" />
    <path
       d="m 17.723042,367.48963 -3.036099,3.03574 3.036099,3.02155 -1.175378,1.17538 -3.035724,-3.02205 -3.035724,3.02205 -1.1753776,-1.17538 3.0357246,-3.02155 -3.0357246,-3.03574 1.1753776,-1.17538 3.035724,3.03573 3.035724,-3.03573 z"
       id="path42"
       inkscape:connector-curvature="0"
       style="fill:#ffffff;stroke-width:0.12444074" />
    <path
       d="m 24.012572,339.02 v 0.93331 h 17.650632 c 1.857834,0.0622 3.33544,1.5744 3.33544,3.4483 v -0.93331 c -6e-6,-1.8739 -1.477606,-3.38614 -3.33544,-3.4483 z m -17.6011656,0.002 c -1.749477,0.01 -3.179018,1.30654 -3.400771,2.99573 v 0.93331 c 0.22166,-1.68919 1.651294,-2.98603 3.400771,-2.99573 H 24.010706 V 339.022 Z m 17.5992996,20.99663 v 0.9333 h 0.002 v -0.9333 z m 20.988124,0 v 0.9333 h 0.01076 v -0.9333 z"
       id="path48"
       inkscape:connector-curvature="0"
       style="opacity:0.3;fill:#ffffff;stroke-width:0.12443764" />
    <path
       d="m 30.66282,357.70007 h 8.757494 v 1.8044 H 30.66282 Z"
       id="path36-7"
       inkscape:connector-curvature="0"
       style="opacity:0.3;stroke-width:0.12444073" />
    <path
       d="m 30.66282,356.24776 h 8.757494 v 1.78723 H 30.66282 Z"
       id="path38-4"
       inkscape:connector-curvature="0"
       style="fill:#ffffff;stroke-width:0.12384753" />
    <path
       d="m 30.68112,361.09424 h 8.757494 v 1.8044 H 30.68112 Z"
       id="path36-0-5"
       inkscape:connector-curvature="0"
       style="opacity:0.3;stroke-width:0.12444073" />
    <path
       d="m 30.68112,359.99937 h 8.757494 v 1.78723 H 30.68112 Z"
       id="path38-5-5"
       inkscape:connector-curvature="0"
       style="fill:#ffffff;stroke-width:0.12384753" />
  </g>
</svg>
