<?xml version="1.0" encoding="UTF-8" standalone="no"?>
<svg
   xmlns:dc="http://purl.org/dc/elements/1.1/"
   xmlns:cc="http://creativecommons.org/ns#"
   xmlns:rdf="http://www.w3.org/1999/02/22-rdf-syntax-ns#"
   xmlns:svg="http://www.w3.org/2000/svg"
   xmlns="http://www.w3.org/2000/svg"
   xmlns:xlink="http://www.w3.org/1999/xlink"
   xmlns:sodipodi="http://sodipodi.sourceforge.net/DTD/sodipodi-0.dtd"
   xmlns:inkscape="http://www.inkscape.org/namespaces/inkscape"
   width="64"
   height="64"
   version="1"
   id="svg18"
   sodipodi:docname="applets-screenshooter.svg"
   inkscape:version="0.92.4 5da689c313, 2019-01-14">
  <metadata
     id="metadata24">
    <rdf:RDF>
      <cc:Work
         rdf:about="">
        <dc:format>image/svg+xml</dc:format>
        <dc:type
           rdf:resource="http://purl.org/dc/dcmitype/StillImage" />
        <dc:title />
      </cc:Work>
    </rdf:RDF>
  </metadata>
  <defs
     id="defs22">
    <linearGradient
       id="linearGradient1748"
       inkscape:collect="always">
      <stop
         id="stop1744"
         offset="0"
         style="stop-color:#ffffff;stop-opacity:1" />
      <stop
         id="stop1746"
         offset="1"
         style="stop-color:#ffffff;stop-opacity:0" />
    </linearGradient>
    <linearGradient
       inkscape:collect="always"
       xlink:href="#linearGradient4556"
       id="linearGradient4558"
       x1="-6.2112632"
       y1="-27.4408"
       x2="538.62769"
       y2="562.73615"
       gradientUnits="userSpaceOnUse"
       gradientTransform="matrix(0.71778417,0,0,0.71778402,4.0087243,1.4851768)" />
    <linearGradient
       inkscape:collect="always"
       id="linearGradient4556">
      <stop
         style="stop-color:#12d79c;stop-opacity:1"
         offset="0"
         id="stop4552" />
      <stop
         style="stop-color:#6020a7;stop-opacity:1"
         offset="1"
         id="stop4554" />
    </linearGradient>
    <linearGradient
       x1="24.979176"
       y1="4.5588341"
       x2="24.939274"
       y2="8.2648869"
       id="linearGradient3058"
       xlink:href="#linearGradient3924-1"
       gradientUnits="userSpaceOnUse"
       gradientTransform="matrix(0.81280613,0,0,0.67055313,9.3017455,-8.2769919)" />
    <linearGradient
       id="linearGradient3924-1">
      <stop
         id="stop3926-3"
         style="stop-color:#ffffff;stop-opacity:1"
         offset="0" />
      <stop
         id="stop3930-6"
         style="stop-color:#ffffff;stop-opacity:0.15686275"
         offset="1" />
      <stop
         id="stop3932-6"
         style="stop-color:#ffffff;stop-opacity:0"
         offset="1" />
    </linearGradient>
    <linearGradient
       gradientTransform="translate(-1.0053726e-5,-383.99992)"
       inkscape:collect="always"
       xlink:href="#linearGradient1748"
       id="linearGradient1718-5"
       x1="196.63319"
       y1="330.93137"
       x2="196.63321"
       y2="309.85748"
       gradientUnits="userSpaceOnUse" />
  </defs>
  <sodipodi:namedview
     pagecolor="#ffffff"
     bordercolor="#666666"
     borderopacity="1"
     objecttolerance="10"
     gridtolerance="10"
     guidetolerance="10"
     inkscape:pageopacity="0"
     inkscape:pageshadow="2"
     inkscape:window-width="1366"
     inkscape:window-height="691"
     id="namedview20"
     showgrid="false"
     inkscape:zoom="8"
     inkscape:cx="-1.180044"
     inkscape:cy="33.003889"
     inkscape:window-x="0"
     inkscape:window-y="0"
     inkscape:window-maximized="1"
     inkscape:current-layer="g882" />
  <g
     transform="matrix(1.4836578,0,0,1.4836578,-18.656975,-487.06763)"
     id="g921">
    <g
       id="g866"
       transform="matrix(0.91330589,0,0,0.90000569,2.4925618,35.52286)">
      <g
         transform="matrix(1.2710655,0,0,1.2761094,-1.8895507,-104.07869)"
         id="g887"
         style="stroke-width:0.09361701">
        <g
           id="g882"
           transform="matrix(0.09398591,0,0,0.09398591,10.705927,337.20349)"
           style="stroke-width:0.09361701">
          <rect
             height="287.22894"
             ry="20.532398"
             width="345.94522"
             x="19.027391"
             y="54.629601"
             id="rect7-6"
             style="opacity:0.2;fill:#000000;fill-opacity:1;stroke:none;stroke-width:0.80378199;stroke-linecap:round;stroke-linejoin:round;stroke-miterlimit:4;stroke-dasharray:none;stroke-dashoffset:0;stroke-opacity:0.78431373;paint-order:normal"
             rx="20.532398" />
          <rect
             height="287.22894"
             ry="20.532398"
             width="345.94522"
             x="19.02739"
             y="48.385517"
             id="rect7"
             style="opacity:1;fill:url(#linearGradient4558);fill-opacity:1;stroke:none;stroke-width:0.80378193;stroke-linecap:round;stroke-linejoin:round;stroke-miterlimit:4;stroke-dasharray:none;stroke-dashoffset:0;stroke-opacity:0.78431373;paint-order:normal"
             rx="20.532398" />
          <g
             style="fill:#ffffff;stroke-width:0.09361701"
             id="g17"
             transform="matrix(6.8639495,0,0,6.9593763,-1974.2664,-3443.6834)">
            <path
               inkscape:connector-curvature="0"
               style="opacity:0.75;fill:#ffffff;fill-opacity:1;stroke-width:0.09361701"
               id="path9"
               d="m 294.90044,506.26511 v 1 4 h 1 v -4 h 4 v -1 z" />
            <path
               inkscape:connector-curvature="0"
               style="opacity:0.75;fill:#ffffff;fill-opacity:1;stroke-width:0.09361701"
               id="path11"
               d="m 294.90044,538.56511 h 1 4 v -1 h -4 v -4 h -1 z" />
            <path
               inkscape:connector-curvature="0"
               style="opacity:0.75;fill:#ffffff;fill-opacity:1;stroke-width:0.09361701"
               id="path13"
               d="m 336.2007,538.06511 v -1 -4 h -1 v 4 h -4 v 1 z" />
            <path
               inkscape:connector-curvature="0"
               style="opacity:0.75;fill:#ffffff;fill-opacity:1;stroke-width:0.09361701"
               id="path15"
               d="m 336.3007,506.56472 h -1 -4 v 1 h 4 v 4 h 1 z" />
          </g>
          <path
             inkscape:connector-curvature="0"
             style="opacity:0.75;fill:#ffffff;fill-opacity:1;stroke-width:0.83567369"
             id="path19"
             d="m 257.4934,148.15632 c -3.70052,-3.75174 -8.16395,-5.62806 -13.39408,-5.62806 h -16.57667 l -3.77307,-10.20642 c -0.93739,-2.45118 -2.65129,-4.56528 -5.14381,-6.34212 -2.49145,-1.77612 -5.04469,-2.66494 -7.65971,-2.66494 h -37.89028 c -2.61502,0 -5.16835,0.88928 -7.65989,2.66494 -2.49137,1.77684 -4.20545,3.89094 -5.14284,6.34212 l -3.77404,10.20642 h -16.57667 c -5.23013,0 -9.69443,1.87632 -13.39485,5.62806 -3.69956,3.75282 -5.54981,8.28027 -5.54981,13.58425 v 67.24394 c 0,5.30399 1.85025,9.83244 5.54981,13.58326 3.70042,3.75283 8.16472,5.62915 13.39485,5.62915 h 104.19619 c 5.22996,0 9.69348,-1.87632 13.39399,-5.62915 3.69946,-3.75082 5.54981,-8.27927 5.54981,-13.58326 v -67.24394 c 6.1e-4,-5.30398 -1.84938,-9.83143 -5.54893,-13.58425 z m -42.07129,70.95985 c -6.48711,6.57981 -14.29413,9.86925 -23.42167,9.86925 -9.12764,0 -16.93368,-3.28944 -23.42177,-9.86925 -6.48816,-6.57891 -9.73158,-14.49691 -9.73158,-23.75267 0,-9.25658 3.24438,-17.17304 9.73158,-23.75276 6.48712,-6.5798 14.29413,-9.86926 23.42177,-9.86926 9.12754,0 16.93369,3.29035 23.42167,9.86926 6.48808,6.57881 9.73177,14.49618 9.73177,23.75276 0,9.25576 -3.24457,17.17286 -9.73177,23.75267 z m -23.42167,-45.36752 c -5.87132,0 -10.89069,2.11402 -15.05986,6.34222 -4.16917,4.22802 -6.25367,9.31824 -6.25367,15.27263 0,5.95421 2.0845,11.04452 6.25367,15.27254 4.16917,4.22719 9.18854,6.34129 15.05986,6.34129 5.87036,0 10.89069,-2.1141 15.05986,-6.34129 4.16907,-4.22802 6.25366,-9.31833 6.25366,-15.27254 0,-5.95439 -2.08459,-11.04461 -6.25366,-15.27263 -4.16917,-4.2282 -9.1895,-6.34222 -15.05986,-6.34222 z" />
          <rect
             height="281.1387"
             ry="20.097038"
             width="339.85501"
             x="22.072496"
             y="-332.56931"
             id="rect7-5-7"
             style="opacity:0.4;fill:none;fill-opacity:1;stroke:url(#linearGradient1718-5);stroke-width:6.09023714;stroke-linecap:round;stroke-linejoin:round;stroke-miterlimit:4;stroke-dasharray:none;stroke-dashoffset:0;stroke-opacity:1;paint-order:normal"
             rx="20.170937"
             transform="scale(1,-1)" />
        </g>
      </g>
    </g>
  </g>
</svg>
