<?xml version="1.0" encoding="UTF-8" standalone="no"?>
<svg
   xmlns:dc="http://purl.org/dc/elements/1.1/"
   xmlns:cc="http://creativecommons.org/ns#"
   xmlns:rdf="http://www.w3.org/1999/02/22-rdf-syntax-ns#"
   xmlns:svg="http://www.w3.org/2000/svg"
   xmlns="http://www.w3.org/2000/svg"
   xmlns:xlink="http://www.w3.org/1999/xlink"
   xmlns:sodipodi="http://sodipodi.sourceforge.net/DTD/sodipodi-0.dtd"
   xmlns:inkscape="http://www.inkscape.org/namespaces/inkscape"
   width="64"
   height="64"
   version="1"
   id="svg20"
   sodipodi:docname="applications-utilities.svg"
   inkscape:version="0.92.4 5da689c313, 2019-01-14">
  <metadata
     id="metadata26">
    <rdf:RDF>
      <cc:Work
         rdf:about="">
        <dc:format>image/svg+xml</dc:format>
        <dc:type
           rdf:resource="http://purl.org/dc/dcmitype/StillImage" />
        <dc:title />
      </cc:Work>
    </rdf:RDF>
  </metadata>
  <defs
     id="defs24">
    <linearGradient
       inkscape:collect="always"
       id="linearGradient894">
      <stop
         style="stop-color:#454545;stop-opacity:1"
         offset="0"
         id="stop890" />
      <stop
         style="stop-color:#636363;stop-opacity:1"
         offset="1"
         id="stop892" />
    </linearGradient>
    <linearGradient
       inkscape:collect="always"
       xlink:href="#linearGradient894"
       id="linearGradient896"
       x1="31.661018"
       y1="56.949154"
       x2="33.423729"
       y2="9.4915257"
       gradientUnits="userSpaceOnUse"
       gradientTransform="matrix(1,0,0,1.12,0,-3.84)" />
    <filter
       inkscape:collect="always"
       style="color-interpolation-filters:sRGB"
       id="filter1491"
       x="-0.045254237"
       width="1.0905085"
       y="-0.089000003"
       height="1.178">
      <feGaussianBlur
         inkscape:collect="always"
         stdDeviation="1.0559322"
         id="feGaussianBlur1493" />
    </filter>
  </defs>
  <sodipodi:namedview
     pagecolor="#ffffff"
     bordercolor="#666666"
     borderopacity="1"
     objecttolerance="10"
     gridtolerance="10"
     guidetolerance="10"
     inkscape:pageopacity="0"
     inkscape:pageshadow="2"
     inkscape:window-width="1366"
     inkscape:window-height="691"
     id="namedview22"
     showgrid="false"
     showguides="true"
     inkscape:guide-bbox="true"
     inkscape:zoom="7.375"
     inkscape:cx="-10.646985"
     inkscape:cy="29.686265"
     inkscape:window-x="0"
     inkscape:window-y="0"
     inkscape:window-maximized="1"
     inkscape:current-layer="svg20" />
  <path
     style="opacity:0.2;fill:#000000;fill-opacity:1;stroke-width:1.0583005"
     d="m 6.7999998,5 c -1.5512,0 -2.8,1.387555 -2.8,3.111111 v 37.333334 12.444444 c 0,1.723556 1.2488,3.111111 2.8,3.111111 H 57.200001 C 58.751199,61 60,59.612445 60,57.888889 V 45.444445 8.111111 C 60,6.387555 58.751199,5 57.200001,5 Z"
     id="path4-2"
     inkscape:connector-curvature="0" />
  <path
     style="fill:url(#linearGradient896);fill-opacity:1;stroke-width:1.0583005"
     d="m 6.8000005,4.0000004 c -1.5512,0 -2.8,1.3875555 -2.8,3.111111 V 44.444445 56.888889 c 0,1.723556 1.2488,3.111111 2.8,3.111111 H 57.200001 C 58.7512,60 60,58.612445 60,56.888889 V 44.444445 7.1111114 c 0,-1.7235555 -1.2488,-3.111111 -2.799999,-3.111111 z"
     id="path4"
     inkscape:connector-curvature="0" />
  <rect
     style="opacity:0.2;stroke:#000000;stroke-width:0;stroke-linejoin:round"
     width="56"
     height="3.3599999"
     x="4"
     y="32"
     id="rect6" />
  <rect
     style="opacity:0.2;stroke:#000000;stroke-width:0;stroke-linejoin:round"
     width="56"
     height="3.3599999"
     x="4"
     y="11.84"
     id="rect8" />
  <rect
     style="opacity:0.2;stroke:#000000;stroke-width:0;stroke-linejoin:round"
     width="56"
     height="3.3599999"
     x="4"
     y="25.280001"
     id="rect10" />
  <path
     style="opacity:0.4;fill:#ffffff;stroke-width:1.0583005"
     d="M 6.8007812,4 C 5.2495813,4 4,5.3870696 4,7.1106251 V 8.2306253 C 4,6.5070694 5.2495813,5.12 6.8007812,5.12 H 57.199219 C 58.75042,5.12 60,6.5070694 60,8.2306253 V 7.1106251 C 60,5.3870695 58.75042,4 57.199219,4 Z"
     id="path12"
     inkscape:connector-curvature="0" />
  <rect
     style="opacity:0.2;stroke:#000000;stroke-width:0;stroke-linejoin:round"
     width="56"
     height="3.3599999"
     x="4"
     y="18.560001"
     id="rect14" />
  <rect
     style="opacity:0.2;stroke:#000000;stroke-width:0;stroke-linejoin:round"
     width="56"
     height="3.3599999"
     x="4"
     y="53.279602"
     id="rect6-6" />
  <rect
     style="opacity:0.2;stroke:#000000;stroke-width:0;stroke-linejoin:round"
     width="56"
     height="3.3599999"
     x="4"
     y="46.559601"
     id="rect10-9" />
  <rect
     style="opacity:0.2;stroke:#000000;stroke-width:0;stroke-linejoin:round"
     width="56"
     height="3.3599999"
     x="4"
     y="39.839603"
     id="rect14-1" />
  <rect
     style="opacity:0.2;stroke:#000000;stroke-width:0;stroke-linejoin:round"
     width="56"
     height="3.3599999"
     x="4"
     y="6.2399988"
     id="rect8-7" />
  <path
     style="fill:none;stroke:#16c344;stroke-width:2.11660099;stroke-linecap:butt;stroke-linejoin:miter;stroke-miterlimit:4;stroke-dasharray:none;stroke-opacity:1"
     d="M 4,35.36 H 17.491525 L 27.254237,15.66404 35.932204,47.555565 41.491526,35.36 H 60"
     id="path1454"
     inkscape:connector-curvature="0"
     sodipodi:nodetypes="cccccc" />
  <path
     style="fill:none;stroke:#16c344;stroke-width:2;stroke-linecap:butt;stroke-linejoin:miter;stroke-miterlimit:4;stroke-dasharray:none;stroke-opacity:1;filter:url(#filter1491)"
     d="M 4,35 H 17.491525 L 27.254237,17.414322 35.932204,45.888897 41.491526,35 H 60"
     id="path1454-3"
     inkscape:connector-curvature="0"
     sodipodi:nodetypes="cccccc"
     transform="matrix(0.91319464,0,0,1.1281567,2.7777719,-4.0981724)" />
</svg>
