<?xml version="1.0" encoding="UTF-8" standalone="no"?>
<svg
   xmlns:dc="http://purl.org/dc/elements/1.1/"
   xmlns:cc="http://creativecommons.org/ns#"
   xmlns:rdf="http://www.w3.org/1999/02/22-rdf-syntax-ns#"
   xmlns:svg="http://www.w3.org/2000/svg"
   xmlns="http://www.w3.org/2000/svg"
   xmlns:xlink="http://www.w3.org/1999/xlink"
   xmlns:sodipodi="http://sodipodi.sourceforge.net/DTD/sodipodi-0.dtd"
   xmlns:inkscape="http://www.inkscape.org/namespaces/inkscape"
   width="64"
   height="64"
   version="1.1"
   viewBox="0 0 48 48"
   id="svg26"
   sodipodi:docname="ark.svg"
   inkscape:version="0.92.4 5da689c313, 2019-01-14">
  <metadata
     id="metadata32">
    <rdf:RDF>
      <cc:Work
         rdf:about="">
        <dc:format>image/svg+xml</dc:format>
        <dc:type
           rdf:resource="http://purl.org/dc/dcmitype/StillImage" />
        <dc:title />
      </cc:Work>
    </rdf:RDF>
  </metadata>
  <defs
     id="defs30">
    <linearGradient
       inkscape:collect="always"
       id="linearGradient921">
      <stop
         style="stop-color:#ffffff;stop-opacity:1;"
         offset="0"
         id="stop917" />
      <stop
         style="stop-color:#ffffff;stop-opacity:0;"
         offset="1"
         id="stop919" />
    </linearGradient>
    <linearGradient
       inkscape:collect="always"
       xlink:href="#linearGradient1105"
       id="linearGradient1107"
       x1="194.61057"
       y1="16.483648"
       x2="198.72252"
       y2="365.54987"
       gradientUnits="userSpaceOnUse"
       gradientTransform="matrix(0.12488997,0,0,0.12480801,0.04279383,-1.0283005)" />
    <linearGradient
       inkscape:collect="always"
       id="linearGradient1105">
      <stop
         style="stop-color:#58d46a;stop-opacity:1"
         offset="0"
         id="stop1101" />
      <stop
         style="stop-color:#38cc4e;stop-opacity:1"
         offset="1"
         id="stop1103" />
    </linearGradient>
    <linearGradient
       inkscape:collect="always"
       xlink:href="#linearGradient921"
       id="linearGradient923"
       x1="193.14771"
       y1="32.876022"
       x2="193.1534"
       y2="50.482765"
       gradientUnits="userSpaceOnUse"
       gradientTransform="matrix(0.12472497,0,0,0.12468153,0.07444387,-1.0029431)" />
  </defs>
  <sodipodi:namedview
     pagecolor="#ffffff"
     bordercolor="#666666"
     borderopacity="1"
     objecttolerance="10"
     gridtolerance="10"
     guidetolerance="10"
     inkscape:pageopacity="0"
     inkscape:pageshadow="2"
     inkscape:window-width="1366"
     inkscape:window-height="691"
     id="namedview28"
     showgrid="false"
     inkscape:zoom="14.75"
     inkscape:cx="25.89874"
     inkscape:cy="45.78201"
     inkscape:window-x="0"
     inkscape:window-y="0"
     inkscape:window-maximized="1"
     inkscape:current-layer="svg26"
     inkscape:snap-nodes="true" />
  <rect
     style="opacity:0.2;fill:#000000;fill-opacity:1;stroke:none;stroke-width:0.93636727;stroke-linecap:round;stroke-linejoin:round;stroke-miterlimit:4;stroke-dasharray:none;stroke-opacity:1;paint-order:stroke fill markers"
     id="rect837-55"
     width="36"
     height="42"
     x="6"
     y="3.75"
     rx="2.6576161"
     ry="2.6558723" />
  <rect
     style="opacity:1;fill:url(#linearGradient1107);fill-opacity:1;stroke:none;stroke-width:0.93636733;stroke-linecap:round;stroke-linejoin:round;stroke-miterlimit:4;stroke-dasharray:none;stroke-opacity:1;paint-order:stroke fill markers"
     id="rect837"
     width="36"
     height="42"
     x="6"
     y="3"
     rx="2.6576161"
     ry="2.6558723" />
  <path
     style="fill-opacity:0.66666697;fill-rule:evenodd;stroke-width:0.08241817"
     inkscape:connector-curvature="0"
     d="M 21.297267,3.7407846 V 18.075738 h -0.01519 v 4.693777 c -0.31012,3.022837 5.756805,3.022837 5.435009,0 v -2.322551 h 0.0018 V 3.7407846 H 21.29742 Z"
     id="path11" />
  <g
     transform="matrix(0.92015853,0,0,0.91211842,-351.74074,-453.50234)"
     style="fill:#ffffff;stroke-width:0.08996344"
     id="g25">
    <rect
       rx="0.087458909"
       style="opacity:0.92900002;stroke-width:0.08996344"
       height="2.197578"
       ry="0.08822985"
       width="4.395155"
       x="406.2309"
       y="502.52133"
       id="rect13" />
    <rect
       rx="0.087458909"
       style="opacity:0.92900002;stroke-width:0.08996344"
       height="2.197578"
       ry="0.08822985"
       width="4.395155"
       x="406.22171"
       y="505.69974"
       id="rect15" />
    <rect
       rx="0.087458909"
       style="opacity:0.92900002;stroke-width:0.08996344"
       height="2.197578"
       ry="0.08822985"
       width="4.395155"
       x="406.19412"
       y="508.83987"
       id="rect17" />
    <rect
       rx="0.087458909"
       style="opacity:0.92900002;stroke-width:0.08996344"
       height="2.197578"
       ry="0.08822985"
       width="4.395155"
       x="406.24228"
       y="512.10864"
       id="rect19" />
    <rect
       rx="0.087458909"
       style="opacity:0.92900002;stroke-width:0.08996344"
       height="2.197578"
       ry="0.08822985"
       width="4.395155"
       x="406.24228"
       y="515.32019"
       id="rect21" />
    <rect
       rx="0.087458909"
       style="opacity:0.92900002;stroke-width:0.08996344"
       height="2.197578"
       ry="0.08822985"
       width="4.395155"
       x="406.24222"
       y="518.60736"
       id="rect23" />
  </g>
  <path
     style="fill-opacity:0.66666697;stroke-width:0.08241817"
     inkscape:connector-curvature="0"
     d="m 25.569149,24.892356 v -1.26493 c 0,-0.352417 -0.287309,-0.638239 -0.641553,-0.638239 h -1.782449 c -0.354242,0 -0.641616,0.285907 -0.641616,0.638239 v 1.264309 l -0.991397,2.897617 c -0.277391,0.807584 -0.144299,1.704838 0.355513,2.400228 0.499839,0.69411 1.310303,1.108668 2.168691,1.108668 0.858547,0 1.669097,-0.414558 2.168915,-1.108668 0.499823,-0.69539 0.63275,-1.592644 0.35544,-2.399593 z m -0.414082,4.54988 c -0.514303,0.716067 -1.72316,0.716067 -2.237538,0 -0.257793,-0.358732 -0.326426,-0.821438 -0.183968,-1.238394 l 0.332731,-0.971897 h 1.940005 l 0.332813,0.972529 c 0.142522,0.416324 0.0738,0.87903 -0.184043,1.237762 z"
     id="path27" />
  <path
     style="fill:#f0f5f1;stroke-width:0.08241817"
     inkscape:connector-curvature="0"
     d="m 25.569149,24.462951 v -1.264928 c 0,-0.352417 -0.287309,-0.63824 -0.641553,-0.63824 h -1.782449 c -0.354242,0 -0.641616,0.285893 -0.641616,0.63824 v 1.264307 l -0.991397,2.89762 c -0.277391,0.80757 -0.144299,1.704836 0.355513,2.400213 0.499839,0.694123 1.310303,1.108681 2.168691,1.108681 0.858547,0 1.669097,-0.414558 2.168915,-1.108681 0.499823,-0.695377 0.63275,-1.592643 0.35544,-2.399594 z m -0.414082,4.549867 c -0.514303,0.716067 -1.72316,0.716067 -2.237538,0 -0.257793,-0.358703 -0.326426,-0.821424 -0.183968,-1.238381 l 0.332731,-0.971895 h 1.940005 l 0.332813,0.97253 c 0.142522,0.416322 0.0738,0.879043 -0.184043,1.237746 z"
     id="path31" />
  <rect
     style="opacity:0.4;fill:none;fill-opacity:1;stroke:url(#linearGradient923);stroke-width:0.9352743;stroke-linecap:round;stroke-linejoin:round;stroke-miterlimit:4;stroke-dasharray:none;stroke-opacity:1;paint-order:stroke fill markers"
     id="rect837-5"
     width="35.064728"
     height="41.064724"
     x="6.4676361"
     y="3.467638"
     rx="2.1518488"
     ry="2.1510992" />
</svg>
