<?xml version="1.0" encoding="UTF-8" standalone="no"?>
<svg
   xmlns:dc="http://purl.org/dc/elements/1.1/"
   xmlns:cc="http://creativecommons.org/ns#"
   xmlns:rdf="http://www.w3.org/1999/02/22-rdf-syntax-ns#"
   xmlns:svg="http://www.w3.org/2000/svg"
   xmlns="http://www.w3.org/2000/svg"
   xmlns:xlink="http://www.w3.org/1999/xlink"
   xmlns:sodipodi="http://sodipodi.sourceforge.net/DTD/sodipodi-0.dtd"
   xmlns:inkscape="http://www.inkscape.org/namespaces/inkscape"
   width="64"
   height="64"
   version="1"
   id="svg12"
   sodipodi:docname="ciano.svg"
   inkscape:version="0.92.4 5da689c313, 2019-01-14">
  <metadata
     id="metadata18">
    <rdf:RDF>
      <cc:Work
         rdf:about="">
        <dc:format>image/svg+xml</dc:format>
        <dc:type
           rdf:resource="http://purl.org/dc/dcmitype/StillImage" />
      </cc:Work>
    </rdf:RDF>
  </metadata>
  <defs
     id="defs16">
    <linearGradient
       inkscape:collect="always"
       id="linearGradient840">
      <stop
         style="stop-color:#1b9dce;stop-opacity:1;"
         offset="0"
         id="stop836" />
      <stop
         style="stop-color:#27afe3;stop-opacity:1"
         offset="1"
         id="stop838" />
    </linearGradient>
    <linearGradient
       inkscape:collect="always"
       xlink:href="#linearGradient840"
       id="linearGradient842"
       x1="-58"
       y1="-32"
       x2="-6"
       y2="-32"
       gradientUnits="userSpaceOnUse"
       gradientTransform="matrix(1.0769231,0,0,1.0769231,2.4615385,2.4615385)" />
  </defs>
  <sodipodi:namedview
     pagecolor="#ffffff"
     bordercolor="#666666"
     borderopacity="1"
     objecttolerance="10"
     gridtolerance="10"
     guidetolerance="10"
     inkscape:pageopacity="0"
     inkscape:pageshadow="2"
     inkscape:window-width="1366"
     inkscape:window-height="691"
     id="namedview14"
     showgrid="false"
     inkscape:zoom="3.6875"
     inkscape:cx="15.407557"
     inkscape:cy="29.619928"
     inkscape:window-x="0"
     inkscape:window-y="0"
     inkscape:window-maximized="1"
     inkscape:current-layer="svg12" />
  <rect
     style="opacity:0.2;fill:#000000;fill-opacity:1;stroke-width:1.07692313"
     width="56"
     height="56"
     x="-61"
     y="-60"
     rx="28"
     ry="28"
     transform="matrix(0,-1,-1,0,0,0)"
     id="rect2-6" />
  <rect
     style="fill:url(#linearGradient842);fill-opacity:1;stroke-width:1.07692313"
     width="56"
     height="56"
     x="-60"
     y="-60"
     rx="28"
     ry="28"
     transform="matrix(0,-1,-1,0,0,0)"
     id="rect2" />
  <path
     style="opacity:0.4;fill:#ffffff;stroke-width:1.07692313"
     d="M 32,4 C 16.488239,4 4,16.488239 4,32 4,32.119452 4.012498,32.235623 4.01893,32.353365 4.4013591,17.179777 16.730972,5.0769231 32,5.0769231 c 15.269028,0 27.59864,12.1028539 27.98107,27.2764419 C 59.987448,32.235623 60,32.119452 60,32 60,16.488239 47.511761,4 32,4 Z"
     id="path4"
     inkscape:connector-curvature="0" />
  <path
     style="opacity:0.2;stroke-width:1.07692313"
     d="m 32.002103,13.691387 c -1.811499,-0.01874 -3.610391,0.249395 -5.357271,0.727764 C 18.51032,16.601213 12.557166,24.652259 12.680589,33.078106 H 8.307692 c 2.229191,3.277792 6.461539,9.690204 6.461539,9.690204 0,0 6.461538,-9.693334 6.461538,-9.694411 h -4.219351 c -0.01551,-3.528646 1.308836,-7.077084 3.657753,-9.711238 4.414801,-5.307938 12.409129,-7.517536 18.557993,-3.007813 1.949223,2.551447 6.200491,-0.343742 4.006911,-2.866886 -3.230972,-2.516188 -7.152762,-3.78796 -11.231972,-3.796575 z m 17.228666,9.692308 c 0,0 -6.461538,9.69123 -6.461538,9.692307 h 4.219351 c 0.01551,3.528646 -1.308836,7.079188 -3.657753,9.713341 -4.414801,5.307939 -12.409128,7.517536 -18.557993,3.007813 -1.949223,-2.551446 -6.200491,0.343742 -4.006911,2.866887 3.230972,2.516187 7.152762,3.787959 11.231972,3.796575 1.811499,0.01874 3.610391,-0.249395 5.357271,-0.727764 8.134512,-2.182062 14.087666,-10.233109 13.964243,-18.658955 h 4.372897 c -2.229191,-3.277792 -6.461539,-9.690204 -6.461539,-9.690204 z"
     id="path8"
     inkscape:connector-curvature="0" />
  <path
     style="fill:#ffffff;fill-opacity:1;stroke-width:1.07692313"
     d="M 32.002103,12.615385 C 30.190604,12.596646 28.391712,12.86478 26.644832,13.343149 18.51032,15.52521 12.557166,23.576257 12.680589,32.002103 H 8.307692 c 2.229191,3.277792 6.461539,9.690205 6.461539,9.690205 0,0 6.461538,-9.693334 6.461538,-9.694411 h -4.219351 c -0.01551,-3.528646 1.308836,-7.077084 3.657753,-9.711238 4.414801,-5.307939 12.409129,-7.517536 18.557993,-3.007813 1.949223,2.551446 6.200491,-0.343742 4.006911,-2.866886 C 40.003103,13.895772 36.081313,12.624 32.002103,12.615385 Z m 17.228666,9.692307 c 0,0 -6.461538,9.691231 -6.461538,9.692308 h 4.219351 c 0.01551,3.528646 -1.308836,7.079187 -3.657753,9.713341 -4.414801,5.307939 -12.409128,7.517536 -18.557993,3.007813 -1.949223,-2.551446 -6.200491,0.343742 -4.006911,2.866886 3.230972,2.516188 7.152762,3.78796 11.231972,3.796575 1.811499,0.01874 3.610391,-0.249395 5.357271,-0.727764 C 45.48968,48.47479 51.442834,40.423743 51.319411,31.997897 h 4.372897 c -2.229191,-3.277792 -6.461539,-9.690205 -6.461539,-9.690205 z"
     id="path10"
     inkscape:connector-curvature="0" />
</svg>
