<?xml version="1.0" encoding="UTF-8" standalone="no"?>
<svg
   xmlns:dc="http://purl.org/dc/elements/1.1/"
   xmlns:cc="http://creativecommons.org/ns#"
   xmlns:rdf="http://www.w3.org/1999/02/22-rdf-syntax-ns#"
   xmlns:svg="http://www.w3.org/2000/svg"
   xmlns="http://www.w3.org/2000/svg"
   xmlns:xlink="http://www.w3.org/1999/xlink"
   xmlns:sodipodi="http://sodipodi.sourceforge.net/DTD/sodipodi-0.dtd"
   xmlns:inkscape="http://www.inkscape.org/namespaces/inkscape"
   id="svg4569"
   height="64"
   width="64"
   version="1.0"
   sodipodi:docname="cs-login.svg"
   inkscape:version="0.92.3 (2405546, 2018-03-11)">
  <sodipodi:namedview
     pagecolor="#ffffff"
     bordercolor="#666666"
     borderopacity="1"
     objecttolerance="10"
     gridtolerance="10"
     guidetolerance="10"
     inkscape:pageopacity="0"
     inkscape:pageshadow="2"
     inkscape:window-width="1366"
     inkscape:window-height="704"
     id="namedview45"
     showgrid="false"
     inkscape:zoom="4.4531248"
     inkscape:cx="10.58337"
     inkscape:cy="39.2519"
     inkscape:window-x="0"
     inkscape:window-y="30"
     inkscape:window-maximized="1"
     inkscape:current-layer="g1107" />
  <metadata
     id="metadata46">
    <rdf:RDF>
      <cc:Work
         rdf:about="">
        <dc:format>image/svg+xml</dc:format>
        <dc:type
           rdf:resource="http://purl.org/dc/dcmitype/StillImage" />
        <dc:title></dc:title>
      </cc:Work>
    </rdf:RDF>
  </metadata>
  <defs
     id="defs4571">
    <linearGradient
       id="linearGradient3912">
      <stop
         offset="0"
         style="stop-color:#787878;stop-opacity:1"
         id="stop3914" />
      <stop
         offset="0.35046947"
         style="stop-color:#b4b4b4;stop-opacity:1"
         id="stop3916" />
      <stop
         offset="0.49417919"
         style="stop-color:#c8c8c8;stop-opacity:1"
         id="stop3918" />
      <stop
         offset="0.58907253"
         style="stop-color:#e6e6e6;stop-opacity:1"
         id="stop3920" />
      <stop
         offset="1"
         style="stop-color:#8c8c8c;stop-opacity:1"
         id="stop3922" />
    </linearGradient>
    <linearGradient
       id="linearGradient6592-2-7">
      <stop
         offset="0"
         style="stop-color:#ffffff;stop-opacity:0.27450982"
         id="stop6594-0-2" />
      <stop
         offset="1"
         style="stop-color:#ffffff;stop-opacity:0"
         id="stop6596-2-5" />
    </linearGradient>
    <linearGradient
       id="linearGradient10691-1">
      <stop
         offset="0"
         style="stop-color:#000000;stop-opacity:1"
         id="stop10693-3" />
      <stop
         offset="1"
         style="stop-color:#000000;stop-opacity:0"
         id="stop10695-1" />
    </linearGradient>
    <linearGradient
       gradientTransform="matrix(1.1918818,0,0,1.1345345,-394.87007,-50.561254)"
       gradientUnits="userSpaceOnUse"
       xlink:href="#linearGradient3912"
       id="linearGradient3221"
       y2="94.396416"
       x2="361.10583"
       y1="87.050117"
       x1="361.10583" />
    <radialGradient
       gradientTransform="matrix(19.609558,0,0,4.1283273,124.56278,120.73303)"
       gradientUnits="userSpaceOnUse"
       xlink:href="#linearGradient10691-1"
       id="radialGradient3226"
       fy="73.615715"
       fx="6.702713"
       r="7.228416"
       cy="73.615715"
       cx="6.702713" />
    <linearGradient
       id="linearGradient4084">
      <stop
         offset="0"
         style="stop-color:#ffffff;stop-opacity:1"
         id="stop4086" />
      <stop
         offset="0.01596775"
         style="stop-color:#ffffff;stop-opacity:0.23529412"
         id="stop4088" />
      <stop
         offset="0.99257565"
         style="stop-color:#ffffff;stop-opacity:0.15686275"
         id="stop4090" />
      <stop
         offset="1"
         style="stop-color:#ffffff;stop-opacity:0.39215687"
         id="stop4092" />
    </linearGradient>
    <linearGradient
       id="outerBackgroundGradient-5-0">
      <stop
         id="stop3864-8-6-4"
         offset="0"
         style="stop-color:#0036cb;stop-opacity:1" />
      <stop
         id="stop3866-9-1-86"
         offset="1"
         style="stop-color:#0fdb00;stop-opacity:1" />
    </linearGradient>
    <linearGradient
       xlink:href="#linearGradient6592-2-7"
       id="linearGradient3141"
       gradientUnits="userSpaceOnUse"
       gradientTransform="matrix(11.563494,0,0,11.697807,13.166596,124.82849)"
       x1="10"
       y1="-3"
       x2="20"
       y2="12" />
    <linearGradient
       xlink:href="#linearGradient4084"
       id="linearGradient3144"
       gradientUnits="userSpaceOnUse"
       gradientTransform="matrix(12.400257,0,0,8.6700979,-41.606263,-14.574369)"
       x1="23.99999"
       y1="5.7531762"
       x2="23.99999"
       y2="42.121033" />
    <linearGradient
       xlink:href="#outerBackgroundGradient-5-0"
       id="linearGradient3148"
       gradientUnits="userSpaceOnUse"
       gradientTransform="matrix(10.664852,0,0,13.003648,32.03815,146.26633)"
       x1="-2.5488214"
       y1="28.788479"
       x2="44.631618"
       y2="-12.349135" />
    <linearGradient
       id="linearGradient4054-5">
      <stop
         offset="0"
         style="stop-color:#ffffff;stop-opacity:1"
         id="stop4056-0" />
      <stop
         offset="0.01719457"
         style="stop-color:#ffffff;stop-opacity:0.23529412"
         id="stop4058-4" />
      <stop
         offset="1"
         style="stop-color:#ffffff;stop-opacity:0.15686275"
         id="stop4060-4" />
      <stop
         offset="1"
         style="stop-color:#ffffff;stop-opacity:0.39215687"
         id="stop4062-0" />
    </linearGradient>
    <linearGradient
       xlink:href="#linearGradient4054-5"
       id="linearGradient3152-7"
       gradientUnits="userSpaceOnUse"
       gradientTransform="matrix(4.5366797,0,0,3.1252681,27.212142,49.812456)"
       x1="47.546879"
       y1="121.84093"
       x2="47.546879"
       y2="99.079079" />
    <linearGradient
       xlink:href="#linearGradient10691-1"
       id="linearGradient3148-3"
       gradientUnits="userSpaceOnUse"
       gradientTransform="matrix(10.664852,0,0,12.508438,41.430903,566.40042)"
       x1="15"
       y1="24.618645"
       x2="15"
       y2="2" />
    <clipPath
       id="clip1">
      <rect
         width="384"
         height="384"
         x="0"
         y="0"
         id="rect10" />
    </clipPath>
    <mask
       id="mask0">
      <g
         id="g7"
         style="filter:url(#alpha)">
        <rect
           width="384"
           height="384"
           x="0"
           y="0"
           style="fill:#000000;fill-opacity:0.2"
           id="rect5" />
      </g>
    </mask>
    <filter
       id="alpha"
       width="1"
       height="1"
       x="0"
       y="0"
       filterUnits="objectBoundingBox">
      <feColorMatrix
         in="SourceGraphic"
         type="matrix"
         values="0 0 0 0 1 0 0 0 0 1 0 0 0 0 1 0 0 0 1 0"
         id="feColorMatrix2" />
    </filter>
    <clipPath
       id="clipPath873">
      <rect
         width="384"
         height="384"
         x="0"
         y="0"
         id="rect871" />
    </clipPath>
    <clipPath
       id="clip1-4">
      <rect
         width="384"
         height="384"
         x="0"
         y="0"
         id="rect10-0" />
    </clipPath>
    <clipPath
       id="clip1-48">
      <rect
         width="384"
         height="384"
         x="0"
         y="0"
         id="rect10-8" />
    </clipPath>
  </defs>
  <path
     style="display:inline;overflow:visible;visibility:visible;fill:url(#linearGradient3221);fill-opacity:1;fill-rule:nonzero;stroke:none;stroke-width:0.44485077;stroke-linecap:round;stroke-linejoin:round;stroke-miterlimit:4;stroke-dasharray:none;stroke-dashoffset:0.5;stroke-opacity:1;marker:none;enable-background:new"
     id="rect1789"
     d="m 24.671394,47.292489 c 0,0 0.177135,4.829893 -0.668702,5.955666 -0.845837,1.125782 -2.528897,1.843359 -2.528897,1.843359 -1.080014,0.118268 -1.088947,1.559758 0,1.559758 h 21.100559 c 1.088949,0 1.080241,-1.443001 0,-1.559758 0,0 -1.682988,-0.717581 -2.528811,-1.843359 -0.845824,-1.125769 -0.668702,-5.955666 -0.668702,-5.955666 H 24.678944 Z"
     inkscape:connector-curvature="0" />
  <path
     id="rect2722-0-5"
     d="M 4,6 H 60 V 48 H 4 Z"
     style="display:inline;fill:#000000;fill-opacity:1;stroke:none;stroke-width:0.52448803"
     inkscape:connector-curvature="0" />
  <path
     style="color:#000000;clip-rule:nonzero;display:inline;overflow:visible;visibility:visible;opacity:0.4;isolation:auto;mix-blend-mode:normal;color-interpolation:sRGB;color-interpolation-filters:linearRGB;solid-color:#000000;solid-opacity:1;fill:none;fill-opacity:1;fill-rule:nonzero;stroke:#000000;stroke-width:0.44485077;stroke-linecap:round;stroke-linejoin:round;stroke-miterlimit:4;stroke-dasharray:none;stroke-dashoffset:0.5;stroke-opacity:1;marker:none;color-rendering:auto;image-rendering:auto;shape-rendering:auto;text-rendering:auto;enable-background:new"
     id="rect1789-8"
     d="m 24.671394,47.292489 c 0,0 0.177135,4.829893 -0.668702,5.955666 -0.845837,1.125782 -2.528897,1.843359 -2.528897,1.843359 -1.080014,0.118268 -1.088947,1.559758 0,1.559758 h 21.100559 c 1.088949,0 1.080241,-1.443001 0,-1.559758 0,0 -1.682988,-0.717581 -2.528811,-1.843359 -0.845824,-1.125769 -0.668702,-5.955666 -0.668702,-5.955666 H 24.678944 Z"
     inkscape:connector-curvature="0" />
  <path
     id="rect2722-0"
     d="M 6,8 H 58 V 46 H 6 Z"
     style="display:inline;fill:#0083d7;fill-opacity:1;stroke:none;stroke-width:0.48074019"
     inkscape:connector-curvature="0" />
  <g
     id="g1107"
     transform="matrix(0.60362309,0,0,0.53333069,37.029616,29.584327)">
    <rect
       y="14.817441"
       x="-28.212234"
       height="4.7120419"
       width="39.759712"
       id="rect848"
       style="opacity:1;fill:#ffffff;fill-opacity:1;stroke:none;stroke-width:2.57568383;stroke-linejoin:round;stroke-miterlimit:4;stroke-dasharray:none;stroke-opacity:0.58823529;paint-order:normal" />
    <path
       id="path865"
       d="M -7.8611048,-29.986551 A 16.566588,18.750046 0 0 0 -24.427734,-11.236458 16.566588,18.750046 0 0 0 -7.8611048,7.5136348 16.566588,18.750046 0 0 0 8.7055247,-11.236458 16.566588,18.750046 0 0 0 -7.8611048,-29.986551 Z m -0.039239,7.170068 c 0.6245853,0 1.2266242,0.112474 1.7794805,0.333078 0.5528564,0.220597 1.0564165,0.549873 1.4812655,0.985912 0.4248489,0.436038 0.7717983,0.979099 1.0123615,1.625422 0.2405631,0.646324 0.3747319,1.395717 0.3747308,2.247169 0,1.107464 -0.2460937,2.223441 -0.6533265,3.237522 -0.4072328,1.014082 -0.9763241,1.925592 -1.6205631,2.624658 h 0.00785 c -0.2471664,0.791537 -0.1731931,1.281588 -0.021581,1.578791 0.1516118,0.2972041 0.3807877,0.4026153 0.4433986,0.4241203 0.7486963,0.270989 1.5477872,0.6416234 2.3229381,1.1124818 0.7751459,0.4708584 1.5260096,1.0418372 2.18167326,1.7075818 0.6556637,0.6657448 1.21659534,1.4270495 1.60682964,2.2826974 0.3902369,0.8556478 0.6097221,1.806142 0.5885849,2.8467099 H -17.32747 c -0.01895,-1.0892739 0.267683,-2.0951243 0.733766,-2.9977056 0.466083,-0.9025811 1.112446,-1.7032527 1.816758,-2.3870617 0.704311,-0.6838089 1.466324,-1.2501989 2.162058,-1.6831562 0.695734,-0.4329572 1.325398,-0.7315216 1.765747,-0.8815474 0.09445,-0.036068 0.366916,-0.1842449 0.553267,-0.4973973 0.186352,-0.313152 0.286008,-0.791735 0.03335,-1.48997 -0.648203,-0.697416 -1.217642,-1.612012 -1.624486,-2.629099 -0.406845,-1.017087 -0.651365,-2.136589 -0.651365,-3.248625 0,-0.851662 0.133287,-1.603026 0.372769,-2.249389 0.239481,-0.646363 0.584965,-1.187216 1.008437,-1.623202 0.423472,-0.435987 0.925372,-0.76538 1.4773418,-0.985912 0.55197,-0.220532 1.1545038,-0.333078 1.7794805,-0.333078 z"
       style="opacity:1;fill:#ffffff;fill-opacity:1;stroke:none;stroke-width:1.98032379;stroke-linejoin:round;stroke-miterlimit:4;stroke-dasharray:none;stroke-opacity:0.58823529;paint-order:normal"
       inkscape:connector-curvature="0" />
  </g>
</svg>
