<?xml version="1.0" encoding="UTF-8" standalone="no"?>
<svg
   xmlns:dc="http://purl.org/dc/elements/1.1/"
   xmlns:cc="http://creativecommons.org/ns#"
   xmlns:rdf="http://www.w3.org/1999/02/22-rdf-syntax-ns#"
   xmlns:svg="http://www.w3.org/2000/svg"
   xmlns="http://www.w3.org/2000/svg"
   xmlns:xlink="http://www.w3.org/1999/xlink"
   xmlns:sodipodi="http://sodipodi.sourceforge.net/DTD/sodipodi-0.dtd"
   xmlns:inkscape="http://www.inkscape.org/namespaces/inkscape"
   width="64"
   height="64"
   version="1.1"
   viewBox="0 0 48 48"
   id="svg22"
   sodipodi:docname="disk-utility.svg"
   inkscape:version="0.92.3 (2405546, 2018-03-11)">
  <metadata
     id="metadata28">
    <rdf:RDF>
      <cc:Work
         rdf:about="">
        <dc:format>image/svg+xml</dc:format>
        <dc:type
           rdf:resource="http://purl.org/dc/dcmitype/StillImage" />
        <dc:title></dc:title>
      </cc:Work>
    </rdf:RDF>
  </metadata>
  <defs
     id="defs26">
    <linearGradient
       inkscape:collect="always"
       id="linearGradient957">
      <stop
         style="stop-color:#d2d2d2;stop-opacity:1;"
         offset="0"
         id="stop953" />
      <stop
         style="stop-color:#dcdcdc;stop-opacity:1"
         offset="1"
         id="stop955" />
    </linearGradient>
    <linearGradient
       inkscape:collect="always"
       id="linearGradient924">
      <stop
         style="stop-color:#ffffff;stop-opacity:1;"
         offset="0"
         id="stop920" />
      <stop
         style="stop-color:#ffffff;stop-opacity:0;"
         offset="1"
         id="stop922" />
    </linearGradient>
    <linearGradient
       inkscape:collect="always"
       id="linearGradient892">
      <stop
         style="stop-color:#000000;stop-opacity:1;"
         offset="0"
         id="stop888" />
      <stop
         style="stop-color:#000000;stop-opacity:0;"
         offset="1"
         id="stop890" />
    </linearGradient>
    <linearGradient
       inkscape:collect="always"
       xlink:href="#linearGradient892"
       id="linearGradient894"
       x1="195.51483"
       y1="364.47458"
       x2="194.18008"
       y2="336.81357"
       gradientUnits="userSpaceOnUse"
       gradientTransform="matrix(0.11448763,0,0,0.11667814,2.0183755,1.1623183)" />
    <linearGradient
       inkscape:collect="always"
       xlink:href="#linearGradient924"
       id="linearGradient926"
       x1="180.87076"
       y1="18.711864"
       x2="180.34958"
       y2="46.372883"
       gradientUnits="userSpaceOnUse"
       gradientTransform="matrix(0.11448763,0,0,0.11667814,2.0183755,1.1623183)" />
    <linearGradient
       inkscape:collect="always"
       xlink:href="#linearGradient957"
       id="linearGradient959"
       x1="197.80704"
       y1="369.35593"
       x2="187.82008"
       y2="14.644068"
       gradientUnits="userSpaceOnUse"
       gradientTransform="matrix(0.11448763,0,0,0.11667814,2.0183755,1.1623183)" />
    <linearGradient
       gradientTransform="matrix(0.11448763,0,0,0.10348843,2.0183755,-42.034162)"
       inkscape:collect="always"
       xlink:href="#linearGradient924"
       id="linearGradient926-5"
       x1="180.87076"
       y1="18.711864"
       x2="180.34958"
       y2="35.170052"
       gradientUnits="userSpaceOnUse" />
  </defs>
  <sodipodi:namedview
     pagecolor="#ffffff"
     bordercolor="#666666"
     borderopacity="1"
     objecttolerance="10"
     gridtolerance="10"
     guidetolerance="10"
     inkscape:pageopacity="0"
     inkscape:pageshadow="2"
     inkscape:window-width="1366"
     inkscape:window-height="704"
     id="namedview24"
     showgrid="false"
     inkscape:zoom="12.578651"
     inkscape:cx="50.160715"
     inkscape:cy="20.4759"
     inkscape:window-x="0"
     inkscape:window-y="30"
     inkscape:window-maximized="1"
     inkscape:current-layer="svg22"
     showguides="true"
     inkscape:guide-bbox="true" />
  <rect
     style="opacity:0.4;fill:none;fill-opacity:1;stroke:url(#linearGradient894);stroke-width:0.86683255;stroke-linecap:round;stroke-linejoin:round;stroke-miterlimit:4;stroke-dasharray:none;stroke-opacity:1;paint-order:stroke fill markers"
     id="rect837-3"
     width="32.133263"
     height="40.253956"
     x="7.9333687"
     y="4.3126283"
     rx="2.4362576"
     ry="2.4828713" />
  <rect
     style="opacity:1;fill:url(#linearGradient959);fill-opacity:1;stroke:none;stroke-width:0.86683238;stroke-linecap:round;stroke-linejoin:round;stroke-miterlimit:4;stroke-dasharray:none;stroke-opacity:1;paint-order:stroke fill markers"
     id="rect837"
     width="32.946758"
     height="41.12904"
     x="7.5266166"
     y="2.9999995"
     rx="2.4362576"
     ry="2.4828713" />
  <rect
     style="opacity:0.4;fill:none;fill-opacity:1;stroke:url(#linearGradient926);stroke-width:0.86683255;stroke-linecap:round;stroke-linejoin:round;stroke-miterlimit:4;stroke-dasharray:none;stroke-opacity:1;paint-order:stroke fill markers"
     id="rect837-3-3"
     width="32.133263"
     height="40.253956"
     x="7.9333687"
     y="3.4375424"
     rx="2.4362576"
     ry="2.4828713" />
  <ellipse
     style="fill:#000000;fill-opacity:0.58823529;stroke:none;stroke-width:1.10076058;stroke-miterlimit:4;stroke-dasharray:none;stroke-opacity:1"
     id="path833-2"
     cx="24"
     cy="22.164383"
     rx="12.879857"
     ry="13.12629" />
  <ellipse
     style="fill:#e6e6e6;fill-opacity:1;stroke:none;stroke-width:1.10076058;stroke-miterlimit:4;stroke-dasharray:none;stroke-opacity:1"
     id="path833"
     cx="24"
     cy="21.464314"
     rx="12.879857"
     ry="13.12629" />
  <ellipse
     style="fill:#000000;fill-opacity:0.19607843;stroke:none;stroke-width:0.1834601;stroke-miterlimit:4;stroke-dasharray:none;stroke-opacity:1"
     id="path833-6"
     cx="24"
     cy="21.289299"
     rx="2.1466429"
     ry="2.1877148" />
  <rect
     style="opacity:1;fill:#000000;fill-opacity:0.58823529;stroke:none;stroke-width:0.26099804;stroke-linecap:round;stroke-linejoin:round;stroke-miterlimit:4;stroke-dasharray:none;stroke-opacity:1;paint-order:stroke fill markers"
     id="rect837-1"
     width="32.946758"
     height="3.7286599"
     x="7.5266166"
     y="40.400383"
     rx="1.5714318"
     ry="1.6014982" />
  <rect
     style="opacity:0.4;fill:none;fill-opacity:1;stroke:url(#linearGradient926-5);stroke-width:0.81636876;stroke-linecap:round;stroke-linejoin:round;stroke-miterlimit:4;stroke-dasharray:none;stroke-opacity:1;paint-order:stroke fill markers"
     id="rect837-3-3-4"
     width="32.133263"
     height="35.703506"
     x="7.9333687"
     y="-40.01614"
     rx="0"
     ry="0"
     transform="scale(1,-1)" />
  <ellipse
     style="fill:#000000;fill-opacity:0.39215686;stroke:none;stroke-width:0.68045539;stroke-miterlimit:4;stroke-dasharray:none;stroke-opacity:1"
     id="path1084"
     cx="11.015229"
     cy="6.7880473"
     rx="0.85865712"
     ry="0.87508601" />
  <ellipse
     style="fill:#000000;fill-opacity:0.39215686;stroke:none;stroke-width:0.68045539;stroke-miterlimit:4;stroke-dasharray:none;stroke-opacity:1"
     id="path1084-0"
     cx="37.051586"
     cy="6.7880726"
     rx="0.85865712"
     ry="0.87508601" />
  <ellipse
     style="fill:#000000;fill-opacity:0.39215686;stroke:none;stroke-width:0.68045539;stroke-miterlimit:4;stroke-dasharray:none;stroke-opacity:1"
     id="path1084-8"
     cx="11.015215"
     cy="36.602295"
     rx="0.85865712"
     ry="0.87508601" />
  <ellipse
     style="fill:#000000;fill-opacity:0.39215686;stroke:none;stroke-width:0.68045539;stroke-miterlimit:4;stroke-dasharray:none;stroke-opacity:1"
     id="path1084-8-5"
     cx="37.051586"
     cy="36.602253"
     rx="0.85865712"
     ry="0.87508601" />
  <path
     inkscape:connector-curvature="0"
     style="opacity:0.2;stroke-width:0.75"
     d="m 47.767646,34.887672 a 12,12 0 0 1 -11.9685,11.364 12,12 0 0 1 -11.9685,-11.136 12,12 0 0 0 -0.0315,0.636 12,12 0 0 0 12,12 12,12 0 0 0 12,-12 12,12 0 0 0 -0.03222,-0.864255 z"
     id="path10" />
  <circle
     style="fill:#8561c5;stroke-width:0.75"
     cx="35.799149"
     cy="35.001671"
     r="12"
     id="circle12" />
  <path
     inkscape:connector-curvature="0"
     style="fill:#ffffff;stroke-width:0.75"
     d="m 34.299146,29.001672 -0.1323,1.5804 a 4.71435,4.71435 0 0 0 -1.37778,0.79689 l -1.436385,-0.67635 -1.5,2.59815 1.304115,0.9057 a 4.71435,4.71435 0 0 0 -0.072,0.795195 4.71435,4.71435 0 0 0 0.06855,0.798555 l -1.300785,0.90234 1.5,2.59815 1.43304,-0.67467 a 4.71435,4.71435 0 0 0 1.381125,0.79185 l 0.1323,1.5837 h 3 l 0.1323,-1.5804 a 4.71435,4.71435 0 0 0 1.37781,-0.79689 l 1.43637,0.67635 1.5,-2.59815 -1.30413,-0.9057 a 4.71435,4.71435 0 0 0 0.072,-0.795195 4.71435,4.71435 0 0 0 -0.06855,-0.798555 l 1.300785,-0.90234 -1.5,-2.59815 -1.43304,0.67467 a 4.71435,4.71435 0 0 0 -1.3815,-0.792 l -0.132,-1.584 h -3 z m 1.5,4.2858 a 1.71435,1.71435 0 0 1 1.7145,1.7145 1.71435,1.71435 0 0 1 -1.7145,1.7145 1.71435,1.71435 0 0 1 -1.7145,-1.7145 1.71435,1.71435 0 0 1 1.7145,-1.7145 z"
     id="path14" />
</svg>
