<?xml version="1.0" encoding="UTF-8" standalone="no"?>
<!-- This Source Code Form is subject to the terms of the Mozilla Public
   - License, v. 2.0. If a copy of the MPL was not distributed with this
   - file, You can obtain one at http://mozilla.org/MPL/2.0/. -->

<!-- IMPORTANT - The text part needs 'context-fill' for dark mode support on some pages -->

<svg
   xmlns:dc="http://purl.org/dc/elements/1.1/"
   xmlns:cc="http://creativecommons.org/ns#"
   xmlns:rdf="http://www.w3.org/1999/02/22-rdf-syntax-ns#"
   xmlns:svg="http://www.w3.org/2000/svg"
   xmlns="http://www.w3.org/2000/svg"
   xmlns:sodipodi="http://sodipodi.sourceforge.net/DTD/sodipodi-0.dtd"
   xmlns:inkscape="http://www.inkscape.org/namespaces/inkscape"
   viewBox="0 0 64 64"
   version="1.1"
   id="svg4959"
   sodipodi:docname="firefox-developer-icon.svg"
   width="64"
   height="64"
   inkscape:version="0.92.4 5da689c313, 2019-01-14">
  <metadata
     id="metadata4963">
    <rdf:RDF>
      <cc:Work
         rdf:about="">
        <dc:format>image/svg+xml</dc:format>
        <dc:type
           rdf:resource="http://purl.org/dc/dcmitype/StillImage" />
        <dc:title></dc:title>
      </cc:Work>
    </rdf:RDF>
  </metadata>
  <sodipodi:namedview
     pagecolor="#ffffff"
     bordercolor="#666666"
     borderopacity="1"
     objecttolerance="10"
     gridtolerance="10"
     guidetolerance="10"
     inkscape:pageopacity="0"
     inkscape:pageshadow="2"
     inkscape:window-width="1366"
     inkscape:window-height="708"
     id="namedview4961"
     showgrid="false"
     fit-margin-top="0"
     fit-margin-left="0"
     fit-margin-right="0"
     fit-margin-bottom="0"
     inkscape:zoom="3.281106"
     inkscape:cx="27.48299"
     inkscape:cy="39.997708"
     inkscape:window-x="0"
     inkscape:window-y="19"
     inkscape:window-maximized="1"
     inkscape:current-layer="svg4959" />
  <defs
     id="defs4647">
    <linearGradient
       x1="84.162506"
       y1="-3.6041653"
       x2="91.017914"
       y2="41.136391"
       id="f"
       gradientTransform="matrix(0.49741703,0,0,1.0493279,3.0947532,3.0999801)"
       gradientUnits="userSpaceOnUse">
      <stop
         stop-color="#AAF2FF"
         offset="0%"
         id="stop4518" />
      <stop
         stop-color="#0DF"
         offset="29%"
         id="stop4520" />
      <stop
         stop-color="#0090ED"
         offset="61%"
         id="stop4522" />
      <stop
         stop-color="#0250BB"
         offset="89%"
         id="stop4524" />
    </linearGradient>
    <linearGradient
       x1="59.666759"
       y1="0.0084456606"
       x2="65.72345"
       y2="30.049629"
       id="g"
       gradientTransform="matrix(0.55469835,0,0,0.9409683,3.0947532,3.0999801)"
       gradientUnits="userSpaceOnUse">
      <stop
         stop-color="#AAF2FF"
         offset="0%"
         id="stop4527" />
      <stop
         stop-color="#0DF"
         offset="29%"
         id="stop4529" />
      <stop
         stop-color="#0090ED"
         offset="74%"
         id="stop4531" />
      <stop
         stop-color="#0250BB"
         offset="100%"
         id="stop4533" />
    </linearGradient>
    <linearGradient
       x1="68.991951"
       y1="11.815484"
       x2="17.021517"
       y2="66.148209"
       id="k"
       gradientTransform="matrix(0.71116927,0,0,0.7339372,3.0947532,3.0999801)"
       gradientUnits="userSpaceOnUse">
      <stop
         stop-color="#80EBFF"
         stop-opacity=".5"
         offset="24%"
         id="stop4536" />
      <stop
         stop-color="#0DF"
         stop-opacity="0"
         offset="70%"
         id="stop4538" />
    </linearGradient>
    <linearGradient
       x1="32.206059"
       y1="33.089981"
       x2="25.120728"
       y2="60.567245"
       id="l"
       gradientTransform="matrix(0.74435744,0,0,0.70121358,3.0947532,3.0999801)"
       gradientUnits="userSpaceOnUse">
      <stop
         stop-color="#BFF3FF"
         stop-opacity=".9"
         offset="0%"
         id="stop4541" />
      <stop
         stop-color="#80EBFF"
         stop-opacity=".5"
         offset="100%"
         id="stop4543" />
    </linearGradient>
    <linearGradient
       x1="95.009483"
       y1="-0.82379484"
       x2="93.769226"
       y2="57.467999"
       id="m"
       gradientTransform="matrix(0.46434003,0,0,1.1240762,3.0947532,3.0999801)"
       gradientUnits="userSpaceOnUse">
      <stop
         stop-color="#BFF3FF"
         offset="0%"
         id="stop4546" />
      <stop
         stop-color="#0DF"
         stop-opacity="0"
         offset="100%"
         id="stop4548" />
    </linearGradient>
    <linearGradient
       x1="56.13681"
       y1="-0.63725394"
       x2="55.329029"
       y2="23.111471"
       id="n"
       gradientTransform="matrix(0.58912927,0,0,0.88597459,3.0947532,3.0999801)"
       gradientUnits="userSpaceOnUse">
      <stop
         stop-color="#BFF3FF"
         offset="0%"
         id="stop4551" />
      <stop
         stop-color="#AAF2FF"
         stop-opacity=".5"
         offset="100%"
         id="stop4553" />
    </linearGradient>
    <linearGradient
       x1="58.332546"
       y1="25.308983"
       x2="56.715939"
       y2="64.10762"
       id="o"
       gradientTransform="matrix(0.64396478,0,0,0.8105312,3.0947532,3.0999801)"
       gradientUnits="userSpaceOnUse">
      <stop
         stop-color="#BFF3FF"
         offset="0%"
         id="stop4556" />
      <stop
         stop-color="#0DF"
         stop-opacity="0"
         offset="100%"
         id="stop4558" />
    </linearGradient>
    <linearGradient
       x1="23.729013"
       y1="33.093102"
       x2="25.866491"
       y2="66.491219"
       id="p"
       gradientTransform="matrix(0.76763377,0,0,0.67995129,3.0947532,3.0999801)"
       gradientUnits="userSpaceOnUse">
      <stop
         stop-color="#BFF3FF"
         stop-opacity=".8"
         offset="0%"
         id="stop4561" />
      <stop
         stop-color="#80EBFF"
         stop-opacity=".2"
         offset="100%"
         id="stop4563" />
    </linearGradient>
    <linearGradient
       x1="29.194855"
       y1="12.974803"
       x2="20.563929"
       y2="26.988457"
       id="q"
       gradientTransform="matrix(0.70786214,0,0,0.73736616,3.0947532,3.0999801)"
       gradientUnits="userSpaceOnUse">
      <stop
         stop-color="#BFF3FF"
         stop-opacity=".8"
         offset="0%"
         id="stop4566" />
      <stop
         stop-color="#80EBFF"
         stop-opacity=".2"
         offset="100%"
         id="stop4568" />
    </linearGradient>
    <linearGradient
       x1="18.502363"
       y1="29.405516"
       x2="16.874853"
       y2="74.324791"
       id="r"
       gradientTransform="matrix(0.57796728,0,0,0.90308499,3.0947532,3.0999801)"
       gradientUnits="userSpaceOnUse">
      <stop
         stop-color="#0DF"
         stop-opacity=".4"
         offset="0%"
         id="stop4571" />
      <stop
         stop-color="#0DF"
         stop-opacity="0"
         offset="100%"
         id="stop4573" />
    </linearGradient>
    <linearGradient
       x1="25.577993"
       y1="4.5553231"
       x2="25.577993"
       y2="57.36784"
       id="s"
       gradientTransform="matrix(0.57421077,0,0,0.90899301,3.0947532,3.0999801)"
       gradientUnits="userSpaceOnUse">
      <stop
         stop-color="#BFF3FF"
         offset="0%"
         id="stop4576" />
      <stop
         stop-color="#0DF"
         stop-opacity="0"
         offset="100%"
         id="stop4578" />
    </linearGradient>
    <linearGradient
       x1="68.298668"
       y1="12.77847"
       x2="65.108376"
       y2="89.877266"
       id="t"
       gradientTransform="matrix(0.60998676,0,0,0.85568018,3.0947532,3.0999801)"
       gradientUnits="userSpaceOnUse">
      <stop
         stop-color="#BFF3FF"
         stop-opacity=".8"
         offset="0%"
         id="stop4581" />
      <stop
         stop-color="#0DF"
         stop-opacity="0"
         offset="100%"
         id="stop4583" />
    </linearGradient>
    <linearGradient
       x1="-0.1"
       y1="0.66000003"
       x2="1.1"
       y2="0.33000001"
       id="u">
      <stop
         offset="0"
         stop-color="#0250bb"
         id="stop4586" />
      <stop
         offset=".123"
         stop-color="#024eb6"
         id="stop4588" />
      <stop
         offset="1"
         stop-color="#054096"
         id="stop4590" />
    </linearGradient>
    <radialGradient
       cx="42.067257"
       cy="30.945194"
       r="22.6548"
       id="a"
       gradientTransform="matrix(0.72265492,0,0,0.72227222,3.0947532,3.0999801)"
       fx="42.067257"
       fy="30.945194"
       gradientUnits="userSpaceOnUse">
      <stop
         stop-color="#0DF"
         stop-opacity=".4"
         offset="10%"
         id="stop4593" />
      <stop
         stop-color="#7542E5"
         stop-opacity=".25"
         offset="90%"
         id="stop4595" />
    </radialGradient>
    <radialGradient
       cx="39.89164"
       cy="41.40416"
       fx="39.801777"
       fy="41.40416"
       r="19.256578"
       id="b"
       gradientTransform="matrix(0.72265492,0,0,0.72227222,3.0947532,3.0999801)"
       gradientUnits="userSpaceOnUse">
      <stop
         stop-color="#7542E5"
         stop-opacity="0"
         offset="91%"
         id="stop4598" />
      <stop
         stop-color="#0DF"
         stop-opacity=".4"
         offset="100%"
         id="stop4600" />
    </radialGradient>
    <radialGradient
       cx="61.200493"
       cy="9.810463"
       fx="61.200493"
       fy="9.810463"
       r="89.403168"
       gradientTransform="matrix(0.80171989,0,0,0.65104231,3.0947532,3.0999801)"
       id="c"
       gradientUnits="userSpaceOnUse">
      <stop
         stop-color="#80EBFF"
         offset="0%"
         id="stop4603" />
      <stop
         stop-color="#0DF"
         offset="26%"
         id="stop4605" />
      <stop
         stop-color="#0090ED"
         offset="53%"
         id="stop4607" />
      <stop
         stop-color="#0060DF"
         offset="86%"
         id="stop4609" />
    </radialGradient>
    <radialGradient
       cx="34.469643"
       cy="46.828964"
       fx="34.658924"
       fy="46.828964"
       r="89.403168"
       gradientTransform="matrix(0.80171989,0,0,0.65104231,3.0947532,3.0999801)"
       id="d"
       gradientUnits="userSpaceOnUse">
      <stop
         stop-color="#321C64"
         stop-opacity=".8"
         offset="30%"
         id="stop4612" />
      <stop
         stop-color="#212F83"
         stop-opacity=".5"
         offset="37%"
         id="stop4614" />
      <stop
         stop-color="#0A47AC"
         stop-opacity=".14"
         offset="48%"
         id="stop4616" />
      <stop
         stop-color="#0250BB"
         stop-opacity="0"
         offset="53%"
         id="stop4618" />
    </radialGradient>
    <radialGradient
       cx="61.191902"
       cy="-19.160242"
       r="139.74019"
       gradientTransform="matrix(0.78889197,0,0,0.66162871,3.0947532,3.0999801)"
       id="e"
       fx="61.191902"
       fy="-19.160242"
       gradientUnits="userSpaceOnUse">
      <stop
         stop-color="#80EBFF"
         offset="0%"
         id="stop4621" />
      <stop
         stop-color="#00B3F4"
         offset="47%"
         id="stop4623" />
      <stop
         stop-color="#0060DF"
         offset="84%"
         id="stop4625" />
      <stop
         stop-color="#592ACB"
         offset="100%"
         id="stop4627" />
    </radialGradient>
    <radialGradient
       cx="37.300232"
       cy="5.5633535"
       fx="37.300232"
       fy="5.5633535"
       r="28.381479"
       gradientTransform="matrix(0.72158586,0,0,0.72334227,3.0947532,3.0999801)"
       id="h"
       gradientUnits="userSpaceOnUse">
      <stop
         stop-color="#0DF"
         offset="0%"
         id="stop4630" />
      <stop
         stop-color="#0090ED"
         offset="82%"
         id="stop4632" />
    </radialGradient>
    <radialGradient
       cx="52.950813"
       cy="21.181152"
       fx="52.950813"
       fy="21.181152"
       r="85.359634"
       gradientTransform="matrix(0.76385803,0,0,0.68331231,3.0947532,3.0999801)"
       id="i"
       gradientUnits="userSpaceOnUse">
      <stop
         stop-color="#80EBFF"
         offset="29%"
         id="stop4635" />
      <stop
         stop-color="#00B3F4"
         offset="100%"
         id="stop4637" />
    </radialGradient>
    <radialGradient
       cx="36.138844"
       cy="15.884185"
       fx="36.138844"
       fy="15.884185"
       r="71.746956"
       gradientTransform="matrix(0.72970443,0,0,0.7152945,3.0947532,3.0999801)"
       id="j"
       gradientUnits="userSpaceOnUse">
      <stop
         stop-color="#AAF2FF"
         offset="18%"
         id="stop4640" />
      <stop
         stop-color="#0DF"
         offset="43%"
         id="stop4642" />
      <stop
         stop-color="#0060DF"
         offset="69%"
         id="stop4644" />
    </radialGradient>
  </defs>
  <path
     d="m 19.24976,36.787732 1.764256,4.891078 2.650719,3.576917 6.223301,1.18773 2.977272,0.252863 5.083254,-1.270091 2.189787,-2.098757 z"
     id="path4649"
     inkscape:connector-curvature="0"
     style="fill:#09204d;stroke-width:0.72246355" />
  <path
     d="m 45.588614,29.572489 -0.623486,-2.067691 -1.781595,-3.362345 -2.03807,-2.148607 -2.163778,-1.545349 -1.878406,-0.736913 -2.254086,-0.801934 -3.711295,-0.236246 -2.340782,0.421919 -1.909471,0.587363 -3.388354,1.983162 -2.117541,2.363178 -1.952819,3.171615 -0.767978,2.699124 -0.143771,4.095646 0.732578,2.792321 1.615429,3.17884 1.138602,1.535235 1.575693,1.444927 1.967269,1.330778 2.426032,1.055519 4.059523,0.476103 2.12043,0.05924 3.136937,-0.883573 2.804603,-1.539569 1.803992,-1.53957 1.399412,-1.668891 1.978105,-3.872404 0.436368,-2.649274 z"
     id="path4651"
     inkscape:connector-curvature="0"
     style="fill:#09204d;stroke-width:0.72246355" />
  <path
     d="m 31.20581,20.53447 -1.662389,1.648662 2.711406,1.099589 2.017118,-2.501891 z"
     id="path4653"
     inkscape:connector-curvature="0"
     style="fill:#0e56d7;stroke-width:0.72246355" />
  <path
     d="m 32.254827,23.282721 5.24942,-0.159664 -3.232302,-2.342227 z"
     id="path4655"
     inkscape:connector-curvature="0"
     style="fill:#1053d1;stroke-width:0.72246355" />
  <path
     d="m 37.114116,20.763491 -2.842171,0.01734 3.232302,2.342227 2.988831,-0.195065 z"
     id="path4657"
     inkscape:connector-curvature="0"
     style="fill:#0b4fbf;stroke-width:0.72246355" />
  <path
     d="m 40.493078,22.927992 -1.699234,-2.34295 2.351619,1.408804 z"
     id="path4659"
     inkscape:connector-curvature="0"
     style="fill:#0b48b0;stroke-width:0.72246355" />
  <path
     d="m 42.74283,24.362804 -2.249752,-1.434812 0.652385,-0.934146 z"
     id="path4661"
     inkscape:connector-curvature="0"
     style="fill:#0c45a7;stroke-width:0.72246355" />
  <path
     d="m 40.493078,22.927992 -0.376403,1.605314 2.057576,0.822886 z"
     id="path4663"
     inkscape:connector-curvature="0"
     style="fill:#0f46af;stroke-width:0.72246355" />
  <path
     d="m 40.493078,22.927992 2.249752,1.434812 -0.568579,0.993388 z"
     id="path4665"
     inkscape:connector-curvature="0"
     style="fill:#0c47ad;stroke-width:0.72246355" />
  <path
     d="m 37.504247,23.123057 2.988831,-0.195065 -0.376403,1.605314 z"
     id="path4667"
     inkscape:connector-curvature="0"
     style="fill:#0e4fc3;stroke-width:0.72246355" />
  <path
     d="m 37.504247,23.123057 -2.361734,2.138492 3.039404,1.488275 z"
     id="path4669"
     inkscape:connector-curvature="0"
     style="fill:#174dca;stroke-width:0.72246355" />
  <path
     d="m 32.254827,23.282721 5.24942,-0.159664 -2.361734,2.138492 z"
     id="path4671"
     inkscape:connector-curvature="0"
     style="fill:#1650d4;stroke-width:0.72246355" />
  <path
     d="m 40.116675,24.533306 1.429033,2.772815 0.628543,-1.949929 z"
     id="path4673"
     inkscape:connector-curvature="0"
     style="fill:#1246b2;stroke-width:0.72246355" />
  <path
     d="m 41.545708,27.306121 0.628543,-1.949929 1.497667,3.561745 z"
     id="path4675"
     inkscape:connector-curvature="0"
     style="fill:#133ea1;stroke-width:0.72246355" />
  <path
     d="m 42.174251,25.356192 2.282262,1.67178 -0.784595,1.889965 z"
     id="path4677"
     inkscape:connector-curvature="0"
     style="fill:#103d98;stroke-width:0.72246355" />
  <path
     d="m 42.74283,24.362804 0.440703,-0.220351 1.27298,2.885519 z"
     id="path4679"
     inkscape:connector-curvature="0"
     style="fill:#0b3785;stroke-width:0.72246355" />
  <path
     d="m 44.456513,27.027972 0.508615,0.476826 -1.781595,-3.362345 z"
     id="path4681"
     inkscape:connector-curvature="0"
     style="fill:#0b3685;stroke-width:0.72246355" />
  <path
     d="m 44.456513,27.027972 -1.713683,-2.665168 -0.568579,0.993388 z m -3.31105,-5.034126 1.597367,2.368958 0.440703,-0.216739 z"
     id="path4683"
     inkscape:connector-curvature="0"
     style="fill:#0c3b91;stroke-width:0.72246355" />
  <path
     d="m 45.473742,31.187917 -0.508614,-3.683119 0.623486,2.067691 -0.122819,1.615428 z"
     id="path4685"
     inkscape:connector-curvature="0"
     style="fill:#0b3279;stroke-width:0.72246355" />
  <path
     d="m 44.456513,27.027972 1.017229,4.159945 -0.508614,-3.683119 z"
     id="path4687"
     inkscape:connector-curvature="0"
     style="fill:#0f388d;stroke-width:0.72246355" />
  <path
     d="m 43.671918,28.917937 1.801824,2.26998 -1.017229,-4.159945 z"
     id="path4689"
     inkscape:connector-curvature="0"
     style="fill:#0d3481;stroke-width:0.72246355" />
  <path
     d="m 45.465795,31.187917 0.122819,-1.615428 0.123541,4.142606 -0.238413,-2.527178 z"
     id="path4691"
     inkscape:connector-curvature="0"
     style="fill:#0b2e71;stroke-width:0.72246355" />
  <path
     d="m 45.171752,34.462122 0.540403,-0.747027 -0.238413,-2.527178 z"
     id="path4693"
     inkscape:connector-curvature="0"
     style="fill:#0e2f77;stroke-width:0.72246355" />
  <path
     d="m 45.275787,36.364369 -0.432033,0.208069 0.868401,-2.857343 z"
     id="path4695"
     inkscape:connector-curvature="0"
     style="fill:#0e2969;stroke-width:0.72246355" />
  <path
     d="m 44.843754,36.572438 0.868401,-2.857343 -0.540403,0.747027 z"
     id="path4697"
     inkscape:connector-curvature="0"
     style="fill:#0c2a69;stroke-width:0.72246355" />
  <path
     d="m 45.171752,34.462122 0.30199,-3.274205 -0.925476,1.091643 z"
     id="path4699"
     inkscape:connector-curvature="0"
     style="fill:#123180;stroke-width:0.72246355" />
  <path
     d="m 44.843754,36.572438 0.327998,-2.110316 -1.785207,3.000391 z"
     id="path4701"
     inkscape:connector-curvature="0"
     style="fill:#112b70;stroke-width:0.72246355" />
  <path
     d="m 43.671918,28.917937 1.801824,2.26998 -0.925476,1.091643 z"
     id="path4703"
     inkscape:connector-curvature="0"
     style="fill:#12378c;stroke-width:0.72246355" />
  <path
     d="m 45.171752,34.462122 -0.623486,-2.182562 -0.94137,2.687564 z"
     id="path4705"
     inkscape:connector-curvature="0"
     style="fill:#122e7b;stroke-width:0.72246355" />
  <path
     d="m 43.297682,40.236773 1.546072,-3.664335 -1.446372,2.670948 z"
     id="path4707"
     inkscape:connector-curvature="0"
     style="fill:#11296c;stroke-width:0.72246355" />
  <path
     d="m 43.397382,39.243386 1.446372,-2.670948 -1.457209,0.890075 z"
     id="path4709"
     inkscape:connector-curvature="0"
     style="fill:#142a72;stroke-width:0.72246355" />
  <path
     d="m 44.843754,36.572438 -1.546072,3.662168 1.978105,-3.872405 z m -2.944762,5.333226 1.39869,-1.668891 0.0997,-0.993387 z m -1.806158,1.53957 1.806158,-1.53957 -1.907303,0.877071 z"
     id="path4711"
     inkscape:connector-curvature="0"
     style="fill:#112768;stroke-width:0.72246355" />
  <path
     d="m 29.56365,44.51737 -1.822776,0.446482 0.05563,-1.272981 z"
     id="path4713"
     inkscape:connector-curvature="0"
     style="fill:#1c226a;stroke-width:0.72246355" />
  <path
     d="m 19.428931,27.200641 0.502835,-0.186396 -1.270813,2.88552 z"
     id="path4715"
     inkscape:connector-curvature="0"
     style="fill:#182b7a;stroke-width:0.72246355" />
  <path
     d="m 18.660953,29.899765 0.962321,-0.179171 0.308492,-2.706349 z"
     id="path4717"
     inkscape:connector-curvature="0"
     style="fill:#1f308d;stroke-width:0.72246355" />
  <path
     d="m 18.71875,33.365422 -0.0578,-3.465657 0.962321,-0.179171 z"
     id="path4719"
     inkscape:connector-curvature="0"
     style="fill:#1e2b7f;stroke-width:0.72246355" />
  <path
     d="m 40.116675,24.533306 -1.934758,2.216518 3.363791,0.556297 z m -16.882528,-2.272871 2.46938,-1.689842 -2.204236,1.0967 z"
     id="path4721"
     inkscape:connector-curvature="0"
     style="fill:#1346b5;stroke-width:0.72246355" />
  <path
     d="m 23.499291,21.665848 3.388354,-1.983162 -1.184118,0.887907 -2.204236,1.095255"
     id="path4723"
     inkscape:connector-curvature="0"
     style="fill:#1244ac;stroke-width:0.72246355" />
  <path
     d="m 25.703527,20.570593 3.093589,-1.47527 -1.909471,0.587363 z"
     id="path4725"
     inkscape:connector-curvature="0"
     style="fill:#0e4ab6;stroke-width:0.72246355" />
  <path
     d="m 37.504247,23.123057 0.67767,3.626767 1.934758,-2.216518 z m -9.91798,-2.72441 2.88263,-1.155942 -1.673226,-0.150272 z"
     id="path4727"
     inkscape:connector-curvature="0"
     style="fill:#0e4bba;stroke-width:0.72246355" />
  <path
     d="m 31.137898,18.673404 -2.340782,0.421919 1.673226,0.150272 z"
     id="path4729"
     inkscape:connector-curvature="0"
     style="fill:#0a4ebc;stroke-width:0.72246355" />
  <path
     d="m 33.351526,19.217419 -2.881184,0.02818 0.667556,-0.572191"
     id="path4731"
     inkscape:connector-curvature="0"
     style="fill:#0c54cc;stroke-width:0.72246355" />
  <path
     d="m 38.793844,20.583598 -1.679728,0.178448 3.378962,2.167391 z m -5.442318,-1.366179 3.751753,0.494165 -2.254086,-0.801934 z"
     id="path4733"
     inkscape:connector-curvature="0"
     style="fill:#0b4bb4;stroke-width:0.72246355" />
  <path
     d="m 38.793844,20.585042 -1.690565,-0.873458 1.878406,0.736913 z"
     id="path4735"
     inkscape:connector-curvature="0"
     style="fill:#0c3889;stroke-width:0.72246355" />
  <path
     d="m 19.24976,36.787732 1.111872,0.912472 -1.639992,-4.334782 z m 15.30828,8.621158 0.975326,-2.29599 -3.553798,0.954375 z m 0.975326,-2.29599 2.97077,0.824331 0.179894,-2.297434 z"
     id="path4737"
     inkscape:connector-curvature="0"
     style="fill:#202575;stroke-width:0.72246355" />
  <path
     d="M 39.991689,42.782735 38.68403,41.639797 41.843363,39.540318 Z"
     id="path4739"
     inkscape:connector-curvature="0"
     style="fill:#1b2773;stroke-width:0.72246355" />
  <path
     d="m 41.843363,39.540318 -1.851674,3.242417 1.907303,-0.877071 1.49839,-2.662278 z"
     id="path4741"
     inkscape:connector-curvature="0"
     style="fill:#15276d;stroke-width:0.72246355" />
  <path
     d="m 38.981685,20.448497 -0.187841,0.136545 2.351619,1.408804 z m -1.867569,0.314994 1.679728,-0.178449 -1.690565,-0.873458 z"
     id="path4743"
     inkscape:connector-curvature="0"
     style="fill:#0c409d;stroke-width:0.72246355" />
  <path
     d="m 31.137898,18.673404 2.213628,0.544015 1.497667,-0.307769 z m 5.965381,1.03818 -3.751753,-0.494165 3.76259,1.546072 z"
     id="path4745"
     inkscape:connector-curvature="0"
     style="fill:#0b4cb7;stroke-width:0.72246355" />
  <path
     d="m 33.351526,19.217419 0.920419,1.563411 2.842171,-0.01734 z"
     id="path4747"
     inkscape:connector-curvature="0"
     style="fill:#0b55ce;stroke-width:0.72246355" />
  <path
     d="M 33.351526,19.217419 34.271945,20.78083 31.20581,20.53447 Z"
     id="path4749"
     inkscape:connector-curvature="0"
     style="fill:#0a52c5;stroke-width:0.72246355" />
  <path
     d="m 30.470342,19.245595 0.735468,1.288875 2.145716,-1.317051 z"
     id="path4751"
     inkscape:connector-curvature="0"
     style="fill:#0951c4;stroke-width:0.72246355" />
  <path
     d="m 27.587712,20.398647 2.88263,-1.153052 0.735468,1.288875 z"
     id="path4753"
     inkscape:connector-curvature="0"
     style="fill:#0b50c4;stroke-width:0.72246355" />
  <path
     d="m 25.703527,20.570593 1.884185,-0.171946 1.209404,-1.300434 z m 1.884185,-0.171946 1.955709,1.784485 1.661666,-1.648662 z"
     id="path4755"
     inkscape:connector-curvature="0"
     style="fill:#0f4dbf;stroke-width:0.72246355" />
  <path
     d="m 27.587712,20.398647 -3.183897,2.985942 1.299712,-2.813996 z"
     id="path4757"
     inkscape:connector-curvature="0"
     style="fill:#1546b6;stroke-width:0.72246355" />
  <path
     d="m 24.403815,23.384589 2.031568,0.33739 1.152329,-3.323332 z"
     id="path4759"
     inkscape:connector-curvature="0"
     style="fill:#1549bd;stroke-width:0.72246355" />
  <path
     d="m 26.435383,23.721979 1.152329,-3.323332 1.955709,1.784485 z"
     id="path4761"
     inkscape:connector-curvature="0"
     style="fill:#144bc3;stroke-width:0.72246355" />
  <path
     d="m 21.38175,24.029026 0.123542,1.200734 1.728855,-2.969325 z"
     id="path4763"
     inkscape:connector-curvature="0"
     style="fill:#173794;stroke-width:0.72246355" />
  <path
     d="m 19.931766,27.014245 1.449984,-2.985219 0.123542,1.200734 z"
     id="path4765"
     inkscape:connector-curvature="0"
     style="fill:#192f84;stroke-width:0.72246355" />
  <path
     d="m 21.505292,25.22976 1.728855,-2.969325 1.169668,1.124154 z"
     id="path4767"
     inkscape:connector-curvature="0"
     style="fill:#1a389b;stroke-width:0.72246355" />
  <path
     d="m 21.400534,27.80462 0.104758,-2.57486 -1.573526,1.784485 z"
     id="path4769"
     inkscape:connector-curvature="0"
     style="fill:#1d3089;stroke-width:0.72246355" />
  <path
     d="m 21.400534,27.80462 0.104758,-2.57486 2.042404,1.658054 z"
     id="path4771"
     inkscape:connector-curvature="0"
     style="fill:#1e389f;stroke-width:0.72246355" />
  <path
     d="m 23.547696,26.887814 0.856119,-3.503225 -2.898523,1.845171 z"
     id="path4773"
     inkscape:connector-curvature="0"
     style="fill:#1c40af;stroke-width:0.72246355" />
  <path
     d="m 23.547696,26.887814 0.856119,-3.503225 2.031568,0.33739 z"
     id="path4775"
     inkscape:connector-curvature="0"
     style="fill:#1e41b7;stroke-width:0.72246355" />
  <path
     d="m 19.623274,29.720594 0.308492,-2.706349 1.468768,0.790375 z"
     id="path4777"
     inkscape:connector-curvature="0"
     style="fill:#192c7d;stroke-width:0.72246355" />
  <path
     d="m 34.55804,45.40889 2.731635,-0.424087 1.214461,-1.047572 z m -16.03869,-11.414924 0.201567,-0.629989 -0.0578,-3.467825 z m 1.106091,-4.274817 -0.904524,3.644828 1.639992,4.334782 -0.802657,-5.021122 z"
     id="path4779"
     inkscape:connector-curvature="0"
     style="fill:#162467;stroke-width:0.72246355" />
  <path
     d="m 20.358742,37.700204 1.353174,0.190008 -0.947872,-2.212184 z"
     id="path4781"
     inkscape:connector-curvature="0"
     style="fill:#1a236a;stroke-width:0.72246355" />
  <path
     d="m 39.991689,42.782735 -1.487553,1.155941 -1.214461,1.047572 2.804603,-1.539569 z m -7.959381,3.026399 2.12043,0.05924 3.136937,-0.883573 -2.731635,0.424087 z m -10.4107,-5.593312 1.421808,0.273091 -1.3315,-2.600869 z"
     id="path4783"
     inkscape:connector-curvature="0"
     style="fill:#132668;stroke-width:0.72246355" />
  <path
     d="m 27.796504,43.690871 -2.407971,-1.853841 -1.000612,0.963044 3.352953,2.163778 z m -8.546744,-6.903139 1.615429,3.17884 -0.505725,-2.266368 z m -0.732578,-2.792321 0.732578,2.792321 -0.53101,-3.42231 z m 13.462386,10.071864 -4.183064,-0.376404 1.767146,0.826499 -1.822776,0.446482 -2.194121,-0.68345 2.426032,1.055519 4.059523,0.476103 2.528622,-0.400245 z m -10.267652,-6.177063 -1.350284,-0.190008 1.262866,2.515618 z m -2.153664,-5.212575 0.80338,5.022567 0.405302,-2.022898 z m 3.485164,7.811276 -1.421808,-0.273091 -0.754252,-0.24925 1.138603,1.535235 1.575693,1.444927 1.965101,1.333668 -1.155942,-1.477438 z"
     id="path4785"
     inkscape:connector-curvature="0"
     style="fill:#1b2268;stroke-width:0.72246355" />
  <path
     d="m 19.623274,29.720594 1.909471,2.954153 -0.132211,-4.870127 z"
     id="path4787"
     inkscape:connector-curvature="0"
     style="fill:#212a81;stroke-width:0.72246355" />
  <path
     d="m 19.558252,32.677637 1.205792,3.000391 0.768701,-3.003281 z"
     id="path4789"
     inkscape:connector-curvature="0"
     style="fill:#21267a;stroke-width:0.72246355" />
  <path
     d="m 20.764044,35.678028 0.768701,-3.003281 0.954375,2.373293 z"
     id="path4791"
     inkscape:connector-curvature="0"
     style="fill:#262781;stroke-width:0.72246355" />
  <path
     d="M 21.711916,37.890212 25.373361,40.159469 22.48712,35.04804 Z"
     id="path4793"
     inkscape:connector-curvature="0"
     style="fill:#272379;stroke-width:0.72246355" />
  <path
     d="m 20.867356,39.966572 0.75642,0.24925 -1.262144,-2.515618 z m 8.087257,1.305491 -1.155942,2.418808 4.183064,0.376404 z m -7.242697,-3.381851 1.3315,2.600868 1.344505,2.311884 1.000612,-0.963044 -0.01517,-1.677561 z"
     id="path4795"
     inkscape:connector-curvature="0"
     style="fill:#1e226d;stroke-width:0.72246355" />
  <path
     d="m 38.68403,41.639797 -0.179894,2.297434 1.487553,-1.155941 z m -6.40175,-0.330166 -0.304157,2.757644 3.555243,-0.954375 -0.126431,-3.100091 z"
     id="path4797"
     inkscape:connector-curvature="0"
     style="fill:#222475;stroke-width:0.72246355" />
  <path
     d="m 19.558252,32.677637 h 1.974493 l -1.909471,-2.954153 z m 15.848683,7.335172 0.126431,3.100091 3.150664,-1.473103 z"
     id="path4799"
     inkscape:connector-curvature="0"
     style="fill:#23277d;stroke-width:0.72246355" />
  <path
     d="m 35.406935,40.012809 2.027955,-1.836502 1.24914,3.46349 z"
     id="path4801"
     inkscape:connector-curvature="0"
     style="fill:#1e2776;stroke-width:0.72246355" />
  <path
     d="m 38.68403,41.639797 1.533067,-4.643273 -2.782207,1.179783 z"
     id="path4803"
     inkscape:connector-curvature="0"
     style="fill:#222b86;stroke-width:0.72246355" />
  <path
     d="m 41.843363,39.540318 -3.159333,2.099479 1.533067,-4.643273 z"
     id="path4805"
     inkscape:connector-curvature="0"
     style="fill:#192974;stroke-width:0.72246355" />
  <path
     d="m 43.386545,37.462513 -3.169448,-0.465989 1.626266,2.543794 1.554019,-0.296932 z"
     id="path4807"
     inkscape:connector-curvature="0"
     style="fill:#172a75;stroke-width:0.72246355" />
  <path
     d="m 43.606896,34.967124 -3.389799,2.0294 3.169448,0.465989 1.785207,-3.001113 z"
     id="path4809"
     inkscape:connector-curvature="0"
     style="fill:#172d7d;stroke-width:0.72246355" />
  <path
     d="m 19.931766,27.013523 1.449984,-2.985219 -1.950651,3.171615 z m 22.410819,3.695401 1.264311,4.257478 0.939203,-2.687565 z"
     id="path4811"
     inkscape:connector-curvature="0"
     style="fill:#18338a;stroke-width:0.72246355" />
  <path
     d="m 44.548266,32.27956 -0.876348,-3.361623 -1.329333,1.791709 z"
     id="path4813"
     inkscape:connector-curvature="0"
     style="fill:#153791;stroke-width:0.72246355" />
  <path
     d="m 40.217097,36.996524 3.389799,-2.0294 -3.285042,-1.462266 z"
     id="path4815"
     inkscape:connector-curvature="0"
     style="fill:#1b318b;stroke-width:0.72246355" />
  <path
     d="m 40.217097,36.996524 -3.071915,-3.103703 0.289708,4.283486 z"
     id="path4817"
     inkscape:connector-curvature="0"
     style="fill:#242d8d;stroke-width:0.72246355" />
  <path
     d="m 35.406935,40.012809 -2.358843,-2.088642 4.386798,0.25214 z"
     id="path4819"
     inkscape:connector-curvature="0"
     style="fill:#2a2b8f;stroke-width:0.72246355" />
  <path
     d="m 21.711916,37.890212 0.775204,-2.842172 -1.723076,0.629988 z m 11.336176,0.03251 -0.765812,3.386909 3.12321,-1.296822 z"
     id="path4821"
     inkscape:connector-curvature="0"
     style="fill:#27267f;stroke-width:0.72246355" />
  <path
     d="m 28.165683,38.61701 -2.26998,-1.154497 -0.522342,2.696956 3.579085,1.112594 3.331279,0.03757 z"
     id="path4823"
     inkscape:connector-curvature="0"
     style="fill:#2d2381;stroke-width:0.72246355" />
  <path
     d="m 32.283725,41.309631 0.764367,-3.385464 -4.882409,0.692843 z"
     id="path4825"
     inkscape:connector-curvature="0"
     style="fill:#2f2485;stroke-width:0.72246355" />
  <path
     d="M 21.532745,32.674747 22.511683,29.547925 21.400534,27.80462 Z"
     id="path4827"
     inkscape:connector-curvature="0"
     style="fill:#233196;stroke-width:0.72246355" />
  <path
     d="m 23.547696,26.887814 4.298658,-1.252752 -2.270703,4.638939 z"
     id="path4829"
     inkscape:connector-curvature="0"
     style="fill:#293cb7;stroke-width:0.72246355" />
  <path
     d="m 40.217097,36.996524 -3.071915,-3.103703 3.176672,-0.387963 z"
     id="path4831"
     inkscape:connector-curvature="0"
     style="fill:#25339c;stroke-width:0.72246355" />
  <path
     d="m 43.606896,34.967124 -1.264311,-4.257478 -2.020731,2.795212 z"
     id="path4833"
     inkscape:connector-curvature="0"
     style="fill:#19348f;stroke-width:0.72246355" />
  <path
     d="m 37.43489,38.176307 -3.51334,-3.397023 3.223632,-0.886463 z"
     id="path4835"
     inkscape:connector-curvature="0"
     style="fill:#2a309a;stroke-width:0.72246355" />
  <path
     d="m 33.048092,37.924167 4.386798,0.25214 -3.51334,-3.397023 z"
     id="path4837"
     inkscape:connector-curvature="0"
     style="fill:#302b96;stroke-width:0.72246355" />
  <path
     d="M 33.048092,37.924167 30.6459,35.967736 33.92155,34.779284 Z"
     id="path4839"
     inkscape:connector-curvature="0"
     style="fill:#3630a7;stroke-width:0.72246355" />
  <path
     d="m 23.234147,22.260435 0.265144,-0.594587 -2.117541,2.363178 z m 18.311561,5.045686 0.79471,3.403525 1.329333,-1.791709 z"
     id="path4841"
     inkscape:connector-curvature="0"
     style="fill:#173da2;stroke-width:0.72246355" />
  <path
     d="m 23.547696,26.887814 2.027955,3.386187 -3.063968,-0.726076 z"
     id="path4843"
     inkscape:connector-curvature="0"
     style="fill:#2a36a8;stroke-width:0.72246355" />
  <path
     d="m 22.511683,29.547925 3.063968,0.726076 -2.072025,3.263368 z"
     id="path4845"
     inkscape:connector-curvature="0"
     style="fill:#312e9f;stroke-width:0.72246355" />
  <path
     d="m 27.846354,25.635062 1.697067,-3.45193 -3.108038,1.538847 z"
     id="path4847"
     inkscape:connector-curvature="0"
     style="fill:#184dcd;stroke-width:0.72246355" />
  <path
     d="m 21.532745,32.674747 1.970881,0.862622 -1.016506,1.510671 z"
     id="path4849"
     inkscape:connector-curvature="0"
     style="fill:#272986;stroke-width:0.72246355" />
  <path
     d="m 23.503626,33.537369 -1.016506,1.510671 2.886241,5.111429 0.522342,-2.696956 z"
     id="path4851"
     inkscape:connector-curvature="0"
     style="fill:#2c2584;stroke-width:0.72246355" />
  <path
     d="m 25.895703,37.462513 0.319328,-4.748753 -2.711405,0.823609 z"
     id="path4853"
     inkscape:connector-curvature="0"
     style="fill:#32268b;stroke-width:0.72246355" />
  <path
     d="M 25.895703,37.462513 30.6459,35.967736 26.215031,32.71376 Z"
     id="path4855"
     inkscape:connector-curvature="0"
     style="fill:#372999;stroke-width:0.72246355" />
  <path
     d="m 30.6459,35.967736 -0.463099,-3.67156 -3.96777,0.417584 z"
     id="path4857"
     inkscape:connector-curvature="0"
     style="fill:#392da5;stroke-width:0.72246355" />
  <path
     d="m 30.182801,32.296176 3.350786,-1.252751 0.387963,3.735859 z"
     id="path4859"
     inkscape:connector-curvature="0"
     style="fill:#3338bc;stroke-width:0.72246355" />
  <path
     d="M 28.165683,38.61701 33.048092,37.924167 30.6459,35.967736 Z"
     id="path4861"
     inkscape:connector-curvature="0"
     style="fill:#362896;stroke-width:0.72246355" />
  <path
     d="M 28.165683,38.61701 25.895703,37.462513 30.6459,35.967736 Z"
     id="path4863"
     inkscape:connector-curvature="0"
     style="fill:#35268f;stroke-width:0.72246355" />
  <path
     d="m 27.846354,25.635062 2.909361,0.30777 -1.212294,-3.7597 z"
     id="path4865"
     inkscape:connector-curvature="0"
     style="fill:#2648d3;stroke-width:0.72246355" />
  <path
     d="m 32.254827,23.282721 -2.711406,-1.099589 1.212294,3.7597 z"
     id="path4867"
     inkscape:connector-curvature="0"
     style="fill:#1057dc;stroke-width:0.72246355" />
  <path
     d="m 32.254827,23.282721 2.887686,1.978828 -4.386798,0.681283 z"
     id="path4869"
     inkscape:connector-curvature="0"
     style="fill:#1653da;stroke-width:0.72246355" />
  <path
     d="m 30.755715,25.942832 4.302993,2.282262 -1.525121,2.818331 z"
     id="path4871"
     inkscape:connector-curvature="0"
     style="fill:#2b46d5;stroke-width:0.72246355" />
  <path
     d="m 35.058708,28.225094 0.08381,-2.963545 -4.386798,0.681283 z"
     id="path4873"
     inkscape:connector-curvature="0"
     style="fill:#244ad7;stroke-width:0.72246355" />
  <path
     d="m 35.058708,28.225094 0.08381,-2.963545 3.039404,1.488275 z"
     id="path4875"
     inkscape:connector-curvature="0"
     style="fill:#2547cf;stroke-width:0.72246355" />
  <path
     d="m 30.755715,25.942832 2.777872,5.100593 -4.871572,-2.440482 z"
     id="path4877"
     inkscape:connector-curvature="0"
     style="fill:#333cc5;stroke-width:0.72246355" />
  <path
     d="m 30.182801,32.296176 3.350786,-1.252751 -4.871572,-2.440482 z"
     id="path4879"
     inkscape:connector-curvature="0"
     style="fill:#3833b6;stroke-width:0.72246355" />
  <path
     d="m 33.533587,31.043425 4.296491,-0.785318 -2.77137,-2.033013 z"
     id="path4881"
     inkscape:connector-curvature="0"
     style="fill:#2a41c6;stroke-width:0.72246355" />
  <path
     d="m 38.181917,26.749824 -0.351839,3.508283 -2.77137,-2.033013 z"
     id="path4883"
     inkscape:connector-curvature="0"
     style="fill:#2045c1;stroke-width:0.72246355" />
  <path
     d="m 38.181917,26.749824 2.027956,2.754753 -2.379795,0.75353 z"
     id="path4885"
     inkscape:connector-curvature="0"
     style="fill:#1b43b7;stroke-width:0.72246355" />
  <path
     d="m 41.545708,27.306121 -3.363791,-0.556297 2.027956,2.754753 z"
     id="path4887"
     inkscape:connector-curvature="0"
     style="fill:#1742af;stroke-width:0.72246355" />
  <path
     d="m 24.407428,23.384589 1.300434,-2.817608 -2.46938,1.689842 z m 17.141892,3.921532 -1.335835,2.198456 2.132712,1.205069 z"
     id="path4889"
     inkscape:connector-curvature="0"
     style="fill:#1740a9;stroke-width:0.72246355" />
  <path
     d="m 40.321854,33.504858 2.020731,-2.795212 -2.132712,-1.205069 z"
     id="path4891"
     inkscape:connector-curvature="0"
     style="fill:#1b3ca4;stroke-width:0.72246355" />
  <path
     d="m 40.321854,33.504858 -0.111981,-4.000281 -2.379795,0.75353 z"
     id="path4893"
     inkscape:connector-curvature="0"
     style="fill:#1f3dad;stroke-width:0.72246355" />
  <path
     d="m 23.547696,26.887814 4.298658,-1.252752 -1.410971,-1.913083 z m 9.985891,4.155611 3.612318,2.849396 0.684895,-3.634714 z"
     id="path4895"
     inkscape:connector-curvature="0"
     style="fill:#2543c3;stroke-width:0.72246355" />
  <path
     d="m 33.92155,34.779284 3.223632,-0.886463 -3.611595,-2.849396 z"
     id="path4897"
     inkscape:connector-curvature="0"
     style="fill:#2e37b2;stroke-width:0.72246355" />
  <path
     d="m 27.846354,25.635062 0.815661,2.967881 2.0937,-2.660111 z"
     id="path4899"
     inkscape:connector-curvature="0"
     style="fill:#2d40c7;stroke-width:0.72246355" />
  <path
     d="m 27.846354,25.635062 -2.270703,4.638939 3.086364,-1.671058 z"
     id="path4901"
     inkscape:connector-curvature="0"
     style="fill:#3537b8;stroke-width:0.72246355" />
  <path
     d="m 28.662015,28.602943 -2.446984,4.110817 3.96777,-0.417584 z"
     id="path4903"
     inkscape:connector-curvature="0"
     style="fill:#3931b0;stroke-width:0.72246355" />
  <path
     d="m 30.182801,32.296176 0.463099,3.67156 3.27565,-1.188452 z m -3.969215,0.417584 2.446984,-4.110817 -3.086364,1.671058 z"
     id="path4905"
     inkscape:connector-curvature="0"
     style="fill:#3735b8;stroke-width:0.72246355" />
  <path
     d="m 23.503626,33.537369 2.072025,-3.263368 0.63938,2.439759 z"
     id="path4907"
     inkscape:connector-curvature="0"
     style="fill:#342892;stroke-width:0.72246355" />
  <path
     d="m 25.546753,44.280402 2.194121,0.68634 -3.352953,-2.163778 z m -0.15822,-2.440482 2.407971,1.853841 1.155942,-2.418808 -3.579085,-1.112594 z m 6.591035,2.230245 0.304157,-2.757644 -3.331279,-0.03757 z m 3.553798,-0.957265 -0.975326,2.29599 3.946096,-1.471659 z"
     id="path4909"
     inkscape:connector-curvature="0"
     style="fill:#232372;stroke-width:0.72246355" />
  <path
     d="m 21.532745,32.674747 0.978938,-3.126822 0.991943,3.989444 z"
     id="path4911"
     inkscape:connector-curvature="0"
     style="fill:#2a2f96;stroke-width:0.72246355" />
  <path
     d="m 22.511683,29.547925 1.036013,-2.660111 -2.146439,0.920419 z m 15.316227,0.710182 -0.684895,3.634714 3.178839,-0.387963 z"
     id="path4913"
     inkscape:connector-curvature="0"
     style="fill:#2636a5;stroke-width:0.72246355" />
  <path
     d="m 45.773564,33.718707 v -0.0058 l -0.125708,-4.142606 v -0.01445 l -0.622764,-2.066968 v -0.0043 l -1.781595,-3.362345 -2.053241,-2.170281 h -0.0043 L 39.0229,20.408053 h -0.0087 l -1.87841,-0.736927 h -0.013 L 34.8687,18.869192 h -0.01517 l -3.711295,-0.236246 h -0.01589 l -2.340782,0.422641 h -0.0087 l -1.908026,0.586641 h -0.01228 l -3.388354,1.97088 -2.116818,2.361733 -1.950652,3.170893 v 0.0079 l -0.768701,2.699124 v 0.01011 l -0.144493,4.095646 v 0.01951 l 0.731856,2.790155 v 0.0094 l 1.614706,3.178839 v 0.0051 l 1.116929,1.573526 v 0.0036 l 1.57497,1.444927 h 0.0043 l 1.967268,1.330778 h 0.0043 l 2.426032,1.054797 h 0.01517 l 4.059523,0.476104 h 0.0058 l 2.119708,0.05924 h 0.01662 l 3.136937,-0.884296 h 0.01084 l 2.803158,-1.538847 0.0051,-0.0036 h 0.0036 l 1.806159,-1.538848 1.398689,-1.669613 0.0051,-0.0072 1.978106,-3.872404 v -0.01517 l 0.433478,-2.647829 v -0.0065 z m -22.155789,9.179622 -0.408192,-0.374236 0.917529,0.718851 z m 5.954544,1.555464 -1.43409,-0.670446 3.395579,0.305602 z m 0.522342,-12.209634 -3.764035,0.39591 2.321275,-3.901303 z m -1.313439,-3.51334 4.599203,2.303936 -3.163668,1.180505 z m 1.348117,3.632546 0.437813,3.467825 -4.190289,-3.075527 z m 0.382906,3.581975 -4.551521,1.431922 0.305602,-4.55152 z m -0.252863,-3.524177 3.526345,2.341504 -3.089254,1.121263 z m 0.05635,-0.109815 3.164391,-1.183395 0.366289,3.528512 z m 4.861458,-4.075417 2.932479,-1.38424 -0.330888,3.293711 z m 2.501168,1.987497 -4.031346,0.736913 1.431923,-2.646384 z m -4.146218,0.691398 -2.622543,-4.822444 4.068193,2.157276 z m -0.144493,-0.01373 -4.629546,-2.319108 1.989665,-2.528622 z m -7.148776,1.655887 -0.590253,-2.252642 2.848674,-1.541737 z M 25.84874,37.266 23.597544,33.573489 26.14784,32.798285 Z m 4.594146,-1.169668 -2.288764,2.444816 -2.095145,-1.064911 z m 3.389077,-1.218796 -0.816384,2.940426 -2.250474,-1.829278 z m -0.221074,-3.696124 3.402803,2.683952 -3.034347,0.83589 z m 0.06791,-0.10259 4.075417,-0.744137 -0.650217,3.446873 z m 4.2228,-0.906691 0.326553,-3.257589 1.88274,2.557521 z m 2.250474,-0.585196 0.104034,3.730079 -2.323442,-3.026399 z m -5.027624,-1.460099 0.07803,-2.76848 2.840004,1.390742 z m -0.122819,0 -4.05302,-2.150051 4.131769,-0.641548 z m -6.311442,0.344615 -0.759309,-2.764145 2.709961,0.288985 z m -0.09898,0.103313 -2.876127,1.554019 2.115373,-4.321055 z m -2.449874,4.097813 -2.496111,0.758587 1.908026,-3.006171 z m -0.45154,4.568137 -3.118152,-2.207849 0.92981,-1.380628 z m 0.251418,0.313549 2.095144,1.064911 -2.576305,1.423253 z m 4.711184,-1.502724 2.249752,1.832167 -4.571749,0.650218 z m 3.301659,-1.155942 3.323332,3.210628 -4.146218,-0.23769 z m 0.08814,-0.08525 3.047352,-0.838057 0.273813,4.05013 z m 3.823277,-4.407027 2.34295,3.052408 -2.986665,0.361232 z m 2.409416,-0.79471 1.977383,1.120541 -1.878405,2.592922 z m 0.02095,-0.128599 1.228188,-2.016395 0.728243,3.123932 z m -0.09031,-0.08814 -1.884185,-2.558966 3.1261,0.516561 z m -4.953933,-4.148386 2.212906,-2.003391 0.635046,3.399191 z m -4.379574,0.616984 1.40447,-2.491777 2.704903,1.853842 z m -2.931757,-0.277426 1.58942,-3.236637 1.137158,3.525623 z m -2.36968,4.562357 -1.928978,-3.220742 4.088421,-1.192065 z m -2.041682,3.238804 -0.933423,-3.753198 2.88263,0.682728 z m -1.028066,1.533068 -0.855396,-2.124043 1.766423,0.773036 z m 3.326945,2.57197 -0.481161,2.494667 -2.673115,-4.727802 z m 2.301046,1.217351 0.731856,2.472271 -3.332002,-1.036013 z m 4.840506,-0.710181 -0.726076,3.213517 -3.907805,-2.556076 z m 4.315997,0.23191 -1.878405,1.701402 -2.185452,-1.934757 z m -0.06791,-4.176561 2.889854,2.923087 -2.620375,1.111149 z m 0.05924,-0.11415 2.981607,-0.361231 -0.101145,3.275649 z m 5.042795,-3.091421 1.19062,4.010395 -3.095034,-1.377015 z m -0.675503,-3.389799 1.942704,1.473103 -1.214461,1.637103 z m -3.343561,-0.749195 1.806158,-2.065523 1.331501,2.58353 z m -0.08164,-0.0932 -0.630711,-3.376073 2.431813,1.312717 z M 35.137444,25.183518 32.4441,23.338346 37.339513,23.189518 Z m -4.365847,0.606869 -1.129211,-3.501058 2.525011,1.023731 z m -2.936092,-0.273091 -1.306936,-1.772926 2.880462,-1.426865 z m -0.09031,0.08381 -4.005338,1.167501 2.690455,-2.949819 z m -2.296711,4.579696 -2.853731,-0.676226 0.965211,-2.477327 z m -2.034458,3.251086 -1.806159,-0.791098 0.898023,-2.866012 z m -1.007114,1.580028 -1.554019,0.568579 0.692843,-2.709239 z m 2.795212,4.969104 -3.418698,-2.118986 0.722464,-2.654331 z m 3.481551,1.271536 -3.234469,0.512949 -0.01373,-1.522953 z m -0.411804,-2.493222 3.803048,2.48672 -3.076972,-0.03468 z m 4.813775,-0.722463 2.207126,1.954986 -2.923088,1.213739 z m 4.326111,0.247082 1.166779,3.233747 -3.060356,-1.517173 z m 0.104035,-0.07225 2.600869,-1.103924 -1.434813,4.345618 z m 2.86818,-4.612207 3.094312,1.377015 -3.192567,1.911639 z m 2.071303,-2.735247 2.022898,1.439869 -0.866956,2.465768 z m -0.0224,-0.166889 1.215906,-1.638548 0.801212,3.074805 z m -0.812049,-3.412918 0.559187,-1.751974 1.344504,3.199068 z m -0.08453,-0.136546 -1.29032,-2.496834 1.852396,0.740525 z m -3.81244,-3.973549 2.694066,-0.176281 -0.339558,1.444927 z m -5.333949,0.04696 1.896467,-2.353064 3.040127,2.202791 z m -0.111982,-0.05635 -0.97677,-2.558244 2.853731,0.229744 z m -0.127153,0.01156 -2.494667,-1.011449 1.529456,-1.517173 z m -5.604872,0.428421 1.072858,-3.095034 1.821331,1.661666 z m -2.877573,3.068303 0.785318,-3.215686 1.864679,0.309937 z m -1.166056,2.745361 -1.007114,-1.581473 1.946317,-0.830833 z m -0.05346,0.144493 -0.861177,2.745361 -0.115594,-4.281319 z m -0.991942,3.178839 -0.702235,2.745362 -1.101757,-2.745362 z m -1.832168,-0.119929 0.05852,-2.694066 1.740414,2.691899 z m 2.775705,2.528623 -0.701512,2.555353 -0.852507,-1.991832 z m 2.800269,4.976329 -2.118986,0.299822 -1.210849,-2.363901 z m 0.115594,0.106924 0.01373,1.501279 -2.095145,-1.205791 z m 3.533569,1.121264 -1.075748,2.241082 -2.235302,-1.720909 z m 0.125709,0.0224 2.830612,2.613873 -3.916475,-0.352562 z m 0.138713,-0.03829 3.106593,0.0354 -0.283206,2.569803 z m 6.238472,-1.228188 0.118484,2.902859 -3.044461,-1.695622 z m 0.123542,0.01084 3.07047,1.524398 -2.951986,1.379906 z m 4.762479,-2.975104 1.524398,2.384129 -2.9621,1.967991 z m 0.106202,-0.06213 2.934647,0.433478 -1.432645,1.914528 z m 0.05418,-0.115594 3.139827,-1.878406 -0.204458,2.311884 z m 4.146941,-4.479274 0.554129,1.939814 -1.390742,0.449372 z m -0.741248,-3.308883 1.58942,2.002668 -0.816384,0.963767 z m -1.488275,-3.647719 2.065524,1.512839 -0.710182,1.710071 z m -2.128377,-1.039625 0.333055,-1.419641 1.48683,2.147162 z m -2.631935,-1.434813 -0.361232,-2.16739 3.106594,1.989664 z m -0.136546,-0.07225 -2.9621,-2.144994 2.600869,-0.01662 z m -6.021733,-2.498279 1.93259,-1.186285 0.83011,1.408804 z m -1.856009,1.612539 -1.789542,-1.632768 3.309605,0.124264 z m -3.147774,1.552574 -1.858176,-0.309214 2.912251,-2.730912 z m -2.882629,3.1261 -1.901524,-1.543905 2.698401,-1.718018 z m -0.08092,0.09248 -1.964378,0.838058 0.09537,-2.355954 z m -1.965101,5.586088 -1.764978,-2.73019 1.642882,-1.77148 z m -0.765089,3.225077 -0.3345,1.670336 -0.661055,-4.147663 z m 0.08525,0.1994 0.827221,1.931145 -1.179061,-0.164721 z m 2.145717,4.5219 -1.246972,-0.242026 0.07947,-2.038792 z m 2.355953,1.444927 -0.88574,0.851784 -1.189898,-2.045294 z m 0.10548,0.06791 2.127655,1.640715 -3.01195,-0.787485 z m 6.94143,-0.510059 3.034346,1.684785 -3.323332,0.892242 z m 6.280375,0.331611 -0.166166,2.118985 -2.73886,-0.760754 z m 3.047351,-2.004837 -1.68623,2.957044 -1.191342,-1.044683 z m 1.661667,-2.087919 0.0087,1.546072 -1.348839,0.257919 z m 0.338112,-2.63338 1.372681,-0.443592 -1.563411,2.631212 z m 0.951485,-2.719353 0.778816,-0.918251 -0.249973,2.754754 z m -0.873458,-3.385464 0.699344,-1.684062 0.905969,3.705515 z m -1.487553,-3.56897 0.491275,-0.857564 1.480328,2.301769 z m -0.08525,-0.09753 -1.453596,-2.095144 1.944872,1.239747 z m -4.875906,-4.435204 1.470936,-0.156774 1.488275,2.052519 z m -2.987387,-0.08669 -0.809881,-1.376293 3.311772,1.361121 z m -3.079139,-0.270202 -0.650218,-1.142937 2.556076,-0.02601 z m -0.130044,0.01951 -3.219297,-0.120652 2.565468,-1.025175 z m -6.502172,2.655776 1.155942,-2.496112 1.671781,-0.15244 z m -0.207347,0.156052 -1.053352,-1.011449 2.223743,-1.521508 z m -0.07875,0.09392 -2.620376,1.668168 1.565579,-2.683952 z m -2.962101,4.329724 -1.314883,-0.707292 1.408803,-1.597367 z m -0.04118,0.116317 -1.59809,1.72163 0.277426,-2.43109 z m -1.808326,4.828224 -0.675504,0.551962 0.727521,-2.92959 z m 0.01662,0.144492 0.68923,4.324667 -1.412416,-3.732247 z m 2.134158,5.150443 -0.07875,2.03229 -1.101034,-2.197734 z m 1.356064,2.600869 1.124153,1.9297 -2.307549,-2.155832 z m 4.729246,3.193288 -0.0484,1.116207 -2.941872,-1.897912 z m 0.120651,0.04768 1.527288,0.713794 -1.57497,0.385073 z m 4.066748,0.355452 0.04768,1.565579 -2.218685,-1.160999 z m 3.50756,-0.939203 -0.900189,2.118986 -2.379795,-1.23758 z m 0.144493,-0.01878 2.737414,0.760032 -3.635436,1.356064 z m 3.16728,-1.41964 1.159554,1.011449 -1.321386,1.028788 z m 3.147051,-2.171003 1.336558,-0.255752 -2.930312,3.045906 z m 1.574248,-0.590976 -0.0094,-1.507781 1.233245,-0.753529 z m 0.10837,-1.723075 1.495499,-2.512728 -0.275258,1.769313 z m 1.908748,-5.432926 0.174837,1.849507 -0.39591,0.546905 z m -0.911749,-4.631714 0.341726,0.320774 0.342447,2.47805 z m -1.733912,-2.826277 0.321496,-0.161832 0.930533,2.108871 z m -2.251919,-1.476716 0.564967,-0.808436 1.382795,2.051074 z m -0.08814,-0.08814 -1.472381,-2.031567 2.038792,1.221685 z m -3.316831,-2.126933 -0.0094,-0.88285 1.418919,0.732578 z m -0.122818,-0.02384 -3.243139,-1.332223 3.233747,0.425531 z m -6.414754,-1.488997 0.516561,-0.44287 1.711516,0.421196 z m -2.817608,1.057686 1.003502,-1.083695 1.388575,0.124986 z m -0.259364,0.0997 -1.517174,0.137991 2.496112,-1.189175 z m -4.180174,1.746917 0.167611,-0.376403 1.395077,-0.692843 z m -1.831446,2.949096 -0.101867,-0.984718 1.517174,-1.444927 z m -0.105479,0.173391 -1.258532,1.426866 1.159554,-2.38413 z m -1.874793,4.459045 -0.80338,0.14955 1.061299,-2.409416 z m -0.02673,0.130044 -0.767979,3.095756 -0.04913,-2.944039 z m 0.676948,7.707963 -0.913194,-0.751362 -0.437813,-2.817608 z m 1.280205,2.600869 -0.583028,-0.191453 -0.39013,-1.747639 z m 2.493222,2.404359 -1.934757,-1.049017 -0.311382,-1.046127 z m 0.354007,0.332333 0.83878,1.069246 -2.564745,-2.009171 z m 0.313549,0.201567 2.668058,1.721631 -1.746194,-0.546182 z m 4.894691,1.533068 2.07347,1.083695 -3.60437,-0.710181 z m 2.488887,-0.412527 2.320553,1.207237 -2.273593,0.361232 z m 6.161169,-0.05635 -0.939203,0.813494 -2.12043,0.328721 z m 1.741137,-1.218073 0.07875,0.505724 -1.218074,0.376404 z m 3.160778,-3.262646 -1.249862,2.229523 -1.594477,0.7333 z m 0.349672,-0.371346 0.838781,-1.549684 -0.896578,2.12621 z m 1.772926,-4.775484 0.316439,-0.437813 -0.505725,1.674671 z m 0.30488,-3.303103 -0.0043,-0.03251 0.03179,-0.414694 0.03179,1.074303 z m -0.08453,-0.610482 -0.316439,-2.295989 0.392298,1.300434 z m -0.939202,-3.580529 -0.577971,-1.311272 0.809159,1.528011 z m -1.744027,-2.707794 -1.155942,-1.712961 1.473826,1.553297 z m -3.859401,-3.696845 0.0773,-0.05563 0.88574,0.6336 z m -0.117039,-0.06719 -0.600367,-0.309936 0.667557,0.262254 z m -5.068804,-1.312716 1.125598,-0.231188 1.693455,0.602534 z m -0.367011,-0.04913 -1.532345,-0.377126 2.56908,0.163276 z m -2.902859,0.02818 -1.194954,-0.107647 1.672503,-0.30199 z m -4.217019,1.067801 0.68345,-0.512227 1.102479,-0.339558 z m -0.561355,0.267311 -0.593142,0.294765 0.911749,-0.533178 z m -2.488164,1.706459 -0.70368,0.671891 0.804102,-0.8973 z m -3.295879,4.741528 -0.312826,0.115594 1.215906,-1.974492 z m -0.407469,0.281039 0.33739,-0.124987 -0.853229,1.93837 z m -0.840225,5.030513 0.01734,1.078638 -0.06213,0.19651 z m 0.05852,1.354619 0.30777,1.983163 -0.424086,-1.618319 z m 1.606037,4.102148 0.395187,1.770036 -1.262144,-2.483107 z m 1.267923,2.528623 0.274536,0.923308 -0.817106,-1.101757 z m 6.129381,4.751642 0.114149,0.182784 -1.199289,-0.521619 z m 0.307769,0.260087 -0.144492,-0.223963 2.608816,0.513671 z m 6.390913,0.216739 -0.274536,0.31066 -1.431923,-0.03974 z m 0.190008,-0.02962 1.707181,-0.265144 -1.960766,0.551962 z m 3.944651,-1.474548 1.001334,-0.309214 -1.762811,0.973158 z m 1.603869,-0.663944 -0.07875,-0.505724 1.462989,-0.672614 z m 3.168725,-3.798713 -0.06863,0.682728 -0.962322,1.147995 z m 1.584362,-2.911528 0.247083,-0.119207 -1.1321,2.223743 z m 0.328721,-0.294765 -0.277426,0.134378 0.557742,-1.835057 z"
     id="path4915"
     inkscape:connector-curvature="0"
     style="fill:url(#a);stroke-width:0.72246355" />
  <path
     d="m 45.773564,33.718707 v -0.0058 l -0.125708,-4.142606 v -0.01445 l -0.622764,-2.066968 v -0.0043 l -1.781595,-3.362345 -2.053241,-2.170281 h -0.0043 L 39.0229,20.408053 h -0.0087 l -1.87841,-0.736927 h -0.013 L 34.8687,18.869192 h -0.01517 l -3.711295,-0.236246 h -0.01589 l -2.340782,0.422641 h -0.0087 l -1.908026,0.586641 h -0.01228 l -3.388354,1.97088 -2.116818,2.361733 -1.950652,3.170893 v 0.0079 l -0.768701,2.699124 v 0.01011 l -0.144493,4.095646 v 0.01951 l 0.731856,2.790155 v 0.0094 l 1.614706,3.178839 v 0.0051 l 1.116929,1.573526 v 0.0036 l 1.57497,1.444927 h 0.0043 l 1.967268,1.330778 h 0.0043 l 2.426032,1.054797 h 0.01517 l 4.059523,0.476104 h 0.0058 l 2.119708,0.05924 h 0.01662 l 3.136937,-0.884296 h 0.01084 l 2.803158,-1.538847 0.0051,-0.0036 h 0.0036 l 1.806159,-1.538848 1.398689,-1.669613 0.0051,-0.0072 1.978106,-3.872404 v -0.01517 l 0.433478,-2.647829 v -0.0065 z m -22.155789,9.179622 -0.408192,-0.374236 0.917529,0.718851 z m 5.954544,1.555464 -1.43409,-0.670446 3.395579,0.305602 z m 0.522342,-12.209634 -3.764035,0.39591 2.321275,-3.901303 z m -1.313439,-3.51334 4.599203,2.303936 -3.163668,1.180505 z m 1.348117,3.632546 0.437813,3.467825 -4.190289,-3.075527 z m 0.382906,3.581975 -4.551521,1.431922 0.305602,-4.55152 z m -0.252863,-3.524177 3.526345,2.341504 -3.089254,1.121263 z m 0.05635,-0.109815 3.164391,-1.183395 0.366289,3.528512 z m 4.861458,-4.075417 2.932479,-1.38424 -0.330888,3.293711 z m 2.501168,1.987497 -4.031346,0.736913 1.431923,-2.646384 z m -4.146218,0.691398 -2.622543,-4.822444 4.068193,2.157276 z m -0.144493,-0.01373 -4.629546,-2.319108 1.989665,-2.528622 z m -7.148776,1.655887 -0.590253,-2.252642 2.848674,-1.541737 z M 25.84874,37.266 23.597544,33.573489 26.14784,32.798285 Z m 4.594146,-1.169668 -2.288764,2.444816 -2.095145,-1.064911 z m 3.389077,-1.218796 -0.816384,2.940426 -2.250474,-1.829278 z m -0.221074,-3.696124 3.402803,2.683952 -3.034347,0.83589 z m 0.06791,-0.10259 4.075417,-0.744137 -0.650217,3.446873 z m 4.2228,-0.906691 0.326553,-3.257589 1.88274,2.557521 z m 2.250474,-0.585196 0.104034,3.730079 -2.323442,-3.026399 z m -5.027624,-1.460099 0.07803,-2.76848 2.840004,1.390742 z m -0.122819,0 -4.05302,-2.150051 4.131769,-0.641548 z m -6.311442,0.344615 -0.759309,-2.764145 2.709961,0.288985 z m -0.09898,0.103313 -2.876127,1.554019 2.115373,-4.321055 z m -2.449874,4.097813 -2.496111,0.758587 1.908026,-3.006171 z m -0.45154,4.568137 -3.118152,-2.207849 0.92981,-1.380628 z m 0.251418,0.313549 2.095144,1.064911 -2.576305,1.423253 z m 4.711184,-1.502724 2.249752,1.832167 -4.571749,0.650218 z m 3.301659,-1.155942 3.323332,3.210628 -4.146218,-0.23769 z m 0.08814,-0.08525 3.047352,-0.838057 0.273813,4.05013 z m 3.823277,-4.407027 2.34295,3.052408 -2.986665,0.361232 z m 2.409416,-0.79471 1.977383,1.120541 -1.878405,2.592922 z m 0.02095,-0.128599 1.228188,-2.016395 0.728243,3.123932 z m -0.09031,-0.08814 -1.884185,-2.558966 3.1261,0.516561 z m -4.953933,-4.148386 2.212906,-2.003391 0.635046,3.399191 z m -4.379574,0.616984 1.40447,-2.491777 2.704903,1.853842 z m -2.931757,-0.277426 1.58942,-3.236637 1.137158,3.525623 z m -2.36968,4.562357 -1.928978,-3.220742 4.088421,-1.192065 z m -2.041682,3.238804 -0.933423,-3.753198 2.88263,0.682728 z m -1.028066,1.533068 -0.855396,-2.124043 1.766423,0.773036 z m 3.326945,2.57197 -0.481161,2.494667 -2.673115,-4.727802 z m 2.301046,1.217351 0.731856,2.472271 -3.332002,-1.036013 z m 4.840506,-0.710181 -0.726076,3.213517 -3.907805,-2.556076 z m 4.315997,0.23191 -1.878405,1.701402 -2.185452,-1.934757 z m -0.06791,-4.176561 2.889854,2.923087 -2.620375,1.111149 z m 0.05924,-0.11415 2.981607,-0.361231 -0.101145,3.275649 z m 5.042795,-3.091421 1.19062,4.010395 -3.095034,-1.377015 z m -0.675503,-3.389799 1.942704,1.473103 -1.214461,1.637103 z m -3.343561,-0.749195 1.806158,-2.065523 1.331501,2.58353 z m -0.08164,-0.0932 -0.630711,-3.376073 2.431813,1.312717 z M 35.137444,25.183518 32.4441,23.338346 37.339513,23.189518 Z m -4.365847,0.606869 -1.129211,-3.501058 2.525011,1.023731 z m -2.936092,-0.273091 -1.306936,-1.772926 2.880462,-1.426865 z m -0.09031,0.08381 -4.005338,1.167501 2.690455,-2.949819 z m -2.296711,4.579696 -2.853731,-0.676226 0.965211,-2.477327 z m -2.034458,3.251086 -1.806159,-0.791098 0.898023,-2.866012 z m -1.007114,1.580028 -1.554019,0.568579 0.692843,-2.709239 z m 2.795212,4.969104 -3.418698,-2.118986 0.722464,-2.654331 z m 3.481551,1.271536 -3.234469,0.512949 -0.01373,-1.522953 z m -0.411804,-2.493222 3.803048,2.48672 -3.076972,-0.03468 z m 4.813775,-0.722463 2.207126,1.954986 -2.923088,1.213739 z m 4.326111,0.247082 1.166779,3.233747 -3.060356,-1.517173 z m 0.104035,-0.07225 2.600869,-1.103924 -1.434813,4.345618 z m 2.86818,-4.612207 3.094312,1.377015 -3.192567,1.911639 z m 2.071303,-2.735247 2.022898,1.439869 -0.866956,2.465768 z m -0.0224,-0.166889 1.215906,-1.638548 0.801212,3.074805 z m -0.812049,-3.412918 0.559187,-1.751974 1.344504,3.199068 z m -0.08453,-0.136546 -1.29032,-2.496834 1.852396,0.740525 z m -3.81244,-3.973549 2.694066,-0.176281 -0.339558,1.444927 z m -5.333949,0.04696 1.896467,-2.353064 3.040127,2.202791 z m -0.111982,-0.05635 -0.97677,-2.558244 2.853731,0.229744 z m -0.127153,0.01156 -2.494667,-1.011449 1.529456,-1.517173 z m -5.604872,0.428421 1.072858,-3.095034 1.821331,1.661666 z m -2.877573,3.068303 0.785318,-3.215686 1.864679,0.309937 z m -1.166056,2.745361 -1.007114,-1.581473 1.946317,-0.830833 z m -0.05346,0.144493 -0.861177,2.745361 -0.115594,-4.281319 z m -0.991942,3.178839 -0.702235,2.745362 -1.101757,-2.745362 z m -1.832168,-0.119929 0.05852,-2.694066 1.740414,2.691899 z m 2.775705,2.528623 -0.701512,2.555353 -0.852507,-1.991832 z m 2.800269,4.976329 -2.118986,0.299822 -1.210849,-2.363901 z m 0.115594,0.106924 0.01373,1.501279 -2.095145,-1.205791 z m 3.533569,1.121264 -1.075748,2.241082 -2.235302,-1.720909 z m 0.125709,0.0224 2.830612,2.613873 -3.916475,-0.352562 z m 0.138713,-0.03829 3.106593,0.0354 -0.283206,2.569803 z m 6.238472,-1.228188 0.118484,2.902859 -3.044461,-1.695622 z m 0.123542,0.01084 3.07047,1.524398 -2.951986,1.379906 z m 4.762479,-2.975104 1.524398,2.384129 -2.9621,1.967991 z m 0.106202,-0.06213 2.934647,0.433478 -1.432645,1.914528 z m 0.05418,-0.115594 3.139827,-1.878406 -0.204458,2.311884 z m 4.146941,-4.479274 0.554129,1.939814 -1.390742,0.449372 z m -0.741248,-3.308883 1.58942,2.002668 -0.816384,0.963767 z m -1.488275,-3.647719 2.065524,1.512839 -0.710182,1.710071 z m -2.128377,-1.039625 0.333055,-1.419641 1.48683,2.147162 z m -2.631935,-1.434813 -0.361232,-2.16739 3.106594,1.989664 z m -0.136546,-0.07225 -2.9621,-2.144994 2.600869,-0.01662 z m -6.021733,-2.498279 1.93259,-1.186285 0.83011,1.408804 z m -1.856009,1.612539 -1.789542,-1.632768 3.309605,0.124264 z m -3.147774,1.552574 -1.858176,-0.309214 2.912251,-2.730912 z m -2.882629,3.1261 -1.901524,-1.543905 2.698401,-1.718018 z m -0.08092,0.09248 -1.964378,0.838058 0.09537,-2.355954 z m -1.965101,5.586088 -1.764978,-2.73019 1.642882,-1.77148 z m -0.765089,3.225077 -0.3345,1.670336 -0.661055,-4.147663 z m 0.08525,0.1994 0.827221,1.931145 -1.179061,-0.164721 z m 2.145717,4.5219 -1.246972,-0.242026 0.07947,-2.038792 z m 2.355953,1.444927 -0.88574,0.851784 -1.189898,-2.045294 z m 0.10548,0.06791 2.127655,1.640715 -3.01195,-0.787485 z m 6.94143,-0.510059 3.034346,1.684785 -3.323332,0.892242 z m 6.280375,0.331611 -0.166166,2.118985 -2.73886,-0.760754 z m 3.047351,-2.004837 -1.68623,2.957044 -1.191342,-1.044683 z m 1.661667,-2.087919 0.0087,1.546072 -1.348839,0.257919 z m 0.338112,-2.63338 1.372681,-0.443592 -1.563411,2.631212 z m 0.951485,-2.719353 0.778816,-0.918251 -0.249973,2.754754 z m -0.873458,-3.385464 0.699344,-1.684062 0.905969,3.705515 z m -1.487553,-3.56897 0.491275,-0.857564 1.480328,2.301769 z m -0.08525,-0.09753 -1.453596,-2.095144 1.944872,1.239747 z m -4.875906,-4.435204 1.470936,-0.156774 1.488275,2.052519 z m -2.987387,-0.08669 -0.809881,-1.376293 3.311772,1.361121 z m -3.079139,-0.270202 -0.650218,-1.142937 2.556076,-0.02601 z m -0.130044,0.01951 -3.219297,-0.120652 2.565468,-1.025175 z m -6.502172,2.655776 1.155942,-2.496112 1.671781,-0.15244 z m -0.207347,0.156052 -1.053352,-1.011449 2.223743,-1.521508 z m -0.07875,0.09392 -2.620376,1.668168 1.565579,-2.683952 z m -2.962101,4.329724 -1.314883,-0.707292 1.408803,-1.597367 z m -0.04118,0.116317 -1.59809,1.72163 0.277426,-2.43109 z m -1.808326,4.828224 -0.675504,0.551962 0.727521,-2.92959 z m 0.01662,0.144492 0.68923,4.324667 -1.412416,-3.732247 z m 2.134158,5.150443 -0.07875,2.03229 -1.101034,-2.197734 z m 1.356064,2.600869 1.124153,1.9297 -2.307549,-2.155832 z m 4.729246,3.193288 -0.0484,1.116207 -2.941872,-1.897912 z m 0.120651,0.04768 1.527288,0.713794 -1.57497,0.385073 z m 4.066748,0.355452 0.04768,1.565579 -2.218685,-1.160999 z m 3.50756,-0.939203 -0.900189,2.118986 -2.379795,-1.23758 z m 0.144493,-0.01878 2.737414,0.760032 -3.635436,1.356064 z m 3.16728,-1.41964 1.159554,1.011449 -1.321386,1.028788 z m 3.147051,-2.171003 1.336558,-0.255752 -2.930312,3.045906 z m 1.574248,-0.590976 -0.0094,-1.507781 1.233245,-0.753529 z m 0.10837,-1.723075 1.495499,-2.512728 -0.275258,1.769313 z m 1.908748,-5.432926 0.174837,1.849507 -0.39591,0.546905 z m -0.911749,-4.631714 0.341726,0.320774 0.342447,2.47805 z m -1.733912,-2.826277 0.321496,-0.161832 0.930533,2.108871 z m -2.251919,-1.476716 0.564967,-0.808436 1.382795,2.051074 z m -0.08814,-0.08814 -1.472381,-2.031567 2.038792,1.221685 z m -3.316831,-2.126933 -0.0094,-0.88285 1.418919,0.732578 z m -0.122818,-0.02384 -3.243139,-1.332223 3.233747,0.425531 z m -6.414754,-1.488997 0.516561,-0.44287 1.711516,0.421196 z m -2.817608,1.057686 1.003502,-1.083695 1.388575,0.124986 z m -0.259364,0.0997 -1.517174,0.137991 2.496112,-1.189175 z m -4.180174,1.746917 0.167611,-0.376403 1.395077,-0.692843 z m -1.831446,2.949096 -0.101867,-0.984718 1.517174,-1.444927 z m -0.105479,0.173391 -1.258532,1.426866 1.159554,-2.38413 z m -1.874793,4.459045 -0.80338,0.14955 1.061299,-2.409416 z m -0.02673,0.130044 -0.767979,3.095756 -0.04913,-2.944039 z m 0.676948,7.707963 -0.913194,-0.751362 -0.437813,-2.817608 z m 1.280205,2.600869 -0.583028,-0.191453 -0.39013,-1.747639 z m 2.493222,2.404359 -1.934757,-1.049017 -0.311382,-1.046127 z m 0.354007,0.332333 0.83878,1.069246 -2.564745,-2.009171 z m 0.313549,0.201567 2.668058,1.721631 -1.746194,-0.546182 z m 4.894691,1.533068 2.07347,1.083695 -3.60437,-0.710181 z m 2.488887,-0.412527 2.320553,1.207237 -2.273593,0.361232 z m 6.161169,-0.05635 -0.939203,0.813494 -2.12043,0.328721 z m 1.741137,-1.218073 0.07875,0.505724 -1.218074,0.376404 z m 3.160778,-3.262646 -1.249862,2.229523 -1.594477,0.7333 z m 0.349672,-0.371346 0.838781,-1.549684 -0.896578,2.12621 z m 1.772926,-4.775484 0.316439,-0.437813 -0.505725,1.674671 z m 0.30488,-3.303103 -0.0043,-0.03251 0.03179,-0.414694 0.03179,1.074303 z m -0.08453,-0.610482 -0.316439,-2.295989 0.392298,1.300434 z m -0.939202,-3.580529 -0.577971,-1.311272 0.809159,1.528011 z m -1.744027,-2.707794 -1.155942,-1.712961 1.473826,1.553297 z m -3.859401,-3.696845 0.0773,-0.05563 0.88574,0.6336 z m -0.117039,-0.06719 -0.600367,-0.309936 0.667557,0.262254 z m -5.068804,-1.312716 1.125598,-0.231188 1.693455,0.602534 z m -0.367011,-0.04913 -1.532345,-0.377126 2.56908,0.163276 z m -2.902859,0.02818 -1.194954,-0.107647 1.672503,-0.30199 z m -4.217019,1.067801 0.68345,-0.512227 1.102479,-0.339558 z m -0.561355,0.267311 -0.593142,0.294765 0.911749,-0.533178 z m -2.488164,1.706459 -0.70368,0.671891 0.804102,-0.8973 z m -3.295879,4.741528 -0.312826,0.115594 1.215906,-1.974492 z m -0.407469,0.281039 0.33739,-0.124987 -0.853229,1.93837 z m -0.840225,5.030513 0.01734,1.078638 -0.06213,0.19651 z m 0.05852,1.354619 0.30777,1.983163 -0.424086,-1.618319 z m 1.606037,4.102148 0.395187,1.770036 -1.262144,-2.483107 z m 1.267923,2.528623 0.274536,0.923308 -0.817106,-1.101757 z m 6.129381,4.751642 0.114149,0.182784 -1.199289,-0.521619 z m 0.307769,0.260087 -0.144492,-0.223963 2.608816,0.513671 z m 6.390913,0.216739 -0.274536,0.31066 -1.431923,-0.03974 z m 0.190008,-0.02962 1.707181,-0.265144 -1.960766,0.551962 z m 3.944651,-1.474548 1.001334,-0.309214 -1.762811,0.973158 z m 1.603869,-0.663944 -0.07875,-0.505724 1.462989,-0.672614 z m 3.168725,-3.798713 -0.06863,0.682728 -0.962322,1.147995 z m 1.584362,-2.911528 0.247083,-0.119207 -1.1321,2.223743 z m 0.328721,-0.294765 -0.277426,0.134378 0.557742,-1.835057 z"
     id="path4917"
     inkscape:connector-curvature="0"
     style="fill:url(#b);stroke-width:0.72246355" />
  <path
     d="m 57.972361,22.485121 c -1.218073,-2.927422 -3.684564,-6.0882 -5.623656,-7.086644 a 29.017748,29.017748 0 0 1 2.835669,8.498338 c 0,-0.0065 0,0.0058 0.0043,0.02673 l 0.0051,0.02962 A 25.324514,25.324514 0 0 1 54.321031,42.850646 C 51.108958,49.737169 43.331638,56.794193 31.158127,56.451022 18.007846,56.078954 6.4216978,46.330031 4.258642,33.561932 c -0.3937427,-2.013505 0,-3.034346 0.197955,-4.670726 a 20.860412,20.860412 0 0 0 -0.4537071,3.863012 v 0.144493 a 28.037365,28.037365 0 0 0 55.6607581,4.735026 c 0.04696,-0.361232 0.08525,-0.718851 0.127154,-1.080083 A 28.754049,28.754049 0 0 0 57.972361,22.485121 Z"
     id="path4919"
     inkscape:connector-curvature="0"
     style="fill:url(#c);stroke-width:0.72246355" />
  <path
     d="m 57.972361,22.485121 c -1.218073,-2.927422 -3.684564,-6.0882 -5.623656,-7.086644 a 29.017748,29.017748 0 0 1 2.835669,8.498338 c 0,-0.0065 0,0.0058 0.0043,0.02673 l 0.0051,0.02962 A 25.324514,25.324514 0 0 1 54.321031,42.850646 C 51.108958,49.737169 43.331638,56.794193 31.158127,56.451022 18.007846,56.078954 6.4216978,46.330031 4.258642,33.561932 c -0.3937427,-2.013505 0,-3.034346 0.197955,-4.670726 a 20.860412,20.860412 0 0 0 -0.4537071,3.863012 v 0.144493 a 28.037365,28.037365 0 0 0 55.6607581,4.735026 c 0.04696,-0.361232 0.08525,-0.718851 0.127154,-1.080083 A 28.754049,28.754049 0 0 0 57.972361,22.485121 Z"
     id="path4921"
     inkscape:connector-curvature="0"
     style="fill:url(#d);stroke-width:0.72246355" />
  <path
     d="m 4.258642,33.561932 c 2.1630558,12.768099 13.749204,22.517022 26.902375,22.88909 12.17351,0.343893 19.95083,-6.713853 23.162903,-13.600376 a 25.324514,25.324514 0 0 0 0.872736,-18.897479 v -0.02673 c 0,-0.02095 -0.0043,-0.03323 -0.0043,-0.02673 l 0.0058,0.04696 c 0.99411,6.485555 -2.308271,12.768821 -7.470995,17.017629 l -0.01589,0.03612 C 37.64585,49.180149 28.019745,45.934121 26.069094,44.606233 A 17.888197,17.888197 0 0 1 25.660902,44.402498 C 19.795943,41.602952 17.3728,36.264669 17.892251,31.68714 a 7.1986267,7.1986267 0 0 1 -6.640884,-4.17295 10.584813,10.584813 0 0 1 10.306664,-0.412527 13.970277,13.970277 0 0 0 10.524849,0.41325 C 32.07277,27.287337 27.19397,25.347522 25.291723,23.476341 24.275217,22.475729 23.792611,21.993846 23.365635,21.631892 A 8.4976162,8.4976162 0 0 0 22.643172,21.084265 C 22.476283,20.970838 22.289165,20.848019 22.065201,20.700637 20.020629,19.372749 15.954604,19.44644 15.820226,19.44933 h -0.013 c -1.111876,-1.406637 -1.033127,-6.044853 -0.96955,-7.012954 a 5.0240115,5.0240115 0 0 0 -0.939203,0.49561 20.427657,20.427657 0 0 0 -2.739582,2.344394 24.56376,24.56376 0 0 0 -2.620375,3.139827 v 0.0043 -0.0043 a 23.616611,23.616611 0 0 0 -3.7618677,8.480277 c -0.013004,0.06069 -1.0085591,4.409917 -0.5180063,6.665448 z"
     id="path4923"
     inkscape:connector-curvature="0"
     style="fill:url(#e);stroke-width:0.72246355" />
  <path
     d="m 41.921389,22.512575 a 15.215805,15.215805 0 0 1 2.600869,3.395579 5.6901228,5.6901228 0 0 1 0.421196,0.343892 c 6.357679,5.851955 3.024955,14.12344 2.77715,14.71297 5.162724,-4.248808 8.465105,-10.532073 7.470995,-17.017628 C 52.021429,16.054474 46.647023,12.872022 42.259502,5.9428739 A 34.601669,34.601669 0 0 1 41.59917,4.8700155 8.4867792,8.4867792 0 0 1 41.290678,4.2920447 5.0803636,5.0803636 0 0 1 40.871649,3.1801733 a 0.07224635,0.07224635 0 0 0 -0.06358,-0.072246 0.0931978,0.0931978 0 0 0 -0.05274,0 l -0.01373,0.00722 -0.02095,0.00867 C 39.636954,3.6403788 33.207751,13.809053 41.921384,22.512571 Z"
     id="path4925"
     inkscape:connector-curvature="0"
     style="fill:url(#f);stroke-width:0.72246355" />
  <path
     d="m 31.137898,18.673404 3.711295,0.236246 2.254086,0.801934 1.878406,0.736913 2.163778,1.545349 2.03807,2.148607 0.708014,1.335835 a 16.948995,16.948995 0 0 1 0.458042,0.298377 c 0.06141,0.04263 0.117039,0.08525 0.174113,0.127876 A 15.215805,15.215805 0 0 0 41.922834,22.512575 C 33.207756,13.809057 39.636959,3.6403826 40.720654,3.1238211 l 0.01445,-0.015894 C 33.693252,7.2259691 31.304065,14.848682 31.085158,18.661845 v 0.02167 z"
     id="path4927"
     inkscape:connector-curvature="0"
     style="fill:url(#g);stroke-width:0.72246355" />
  <path
     d="m 22.059421,20.700637 a 16.483728,16.483728 0 0 1 0.577971,0.383628 12.951604,12.951604 0 0 1 -0.07875,-6.843175 20.760712,20.760712 0 0 0 -6.747809,5.20824 c 0.13799,-0.0029 4.204015,-0.07658 6.248588,1.251307 z"
     id="path4929"
     inkscape:connector-curvature="0"
     style="fill:url(#h);stroke-width:0.72246355" />
  <path
     d="m 19.447715,35.430223 c 0,0 1.293933,-4.816664 9.265595,-4.816664 0.861899,0 3.323333,-2.402192 3.371015,-3.098646 a 13.970277,13.970277 0 0 1 -10.524849,-0.41325 10.584813,10.584813 0 0 0 -10.306664,0.412527 7.1986267,7.1986267 0 0 0 6.640884,4.17295 c -0.519451,4.577529 1.903692,9.915812 7.768651,12.715358 0.131488,0.06285 0.254307,0.131488 0.388685,0.191453 C 22.628,42.826082 19.801,39.486133 19.447715,35.430223 Z"
     id="path4931"
     inkscape:connector-curvature="0"
     style="fill:url(#i);stroke-width:0.72246355" />
  <path
     d="m 44.944899,26.248434 a 5.6901228,5.6901228 0 0 0 -0.421197,-0.343893 c -0.05707,-0.04262 -0.112704,-0.08525 -0.174113,-0.127876 A 9.6853462,9.6853462 0 0 0 37.59022,24.137396 c 10.083423,5.03557 7.376353,22.375418 -6.59537,21.720866 a 12.455994,12.455994 0 0 1 -3.647718,-0.702957 16.428821,16.428821 0 0 1 -0.823609,-0.335946 c -0.157497,-0.07225 -0.315716,-0.144492 -0.472491,-0.225408 l 0.01951,0.01228 c 1.950651,1.327888 11.575311,4.573916 21.635615,-3.608706 l 0.0159,-0.03612 c 0.247805,-0.58953 3.577639,-8.863183 -2.77715,-14.71297 z"
     id="path4933"
     inkscape:connector-curvature="0"
     style="fill:url(#j);stroke-width:0.72246355" />
  <path
     d="m 57.970194,22.484399 c -1.218074,-2.928145 -3.684564,-6.0882 -5.623656,-7.087367 a 29.03581,29.03581 0 0 1 2.837836,8.499061 l 0.0058,0.04624 C 52.020707,16.050139 46.645578,12.867687 42.256612,5.9378166 A 32.736268,32.736268 0 0 1 41.59628,4.8656807 9.2446435,9.2446435 0 0 1 41.287066,4.2877099 5.0955354,5.0955354 0 0 1 40.869482,3.1787284 a 0.07224635,0.07224635 0 0 0 -0.06358,-0.072246 0.09969997,0.09969997 0 0 0 -0.05274,0 c -0.0043,0 -0.01011,0.0065 -0.01445,0.00795 -0.0043,0.00144 -0.01373,0.00795 -0.02023,0.010837 l 0.01156,-0.015894 C 33.688194,7.2274141 31.300452,14.873246 31.080823,18.686408 l 0.05708,-0.01011 3.711295,0.236245 2.088642,0.742693 2.04385,0.79471 2.163778,1.545349 2.035902,2.147162 c 0,0 0.70079,1.314883 0.710182,1.33728 A 9.5935934,9.5935934 0 0 0 37.588057,24.1374 c 10.082702,5.03557 7.376353,22.375418 -6.595369,21.720866 A 12.47839,12.47839 0 0 1 27.344964,45.156027 Q 26.93605,45.002865 26.521356,44.817914 a 10.432374,10.432374 0 0 1 -0.472491,-0.225408 l 0.01951,0.01228 a 16.483728,16.483728 0 0 1 -0.408192,-0.203013 c 0.130766,0.06213 0.254308,0.130766 0.388686,0.190731 -3.423032,-1.767146 -6.250032,-5.107817 -6.603317,-9.163728 0,0 1.293932,-4.816664 9.265595,-4.816664 0.861899,0 3.323332,-2.402191 3.371015,-3.098646 -0.01011,-0.227576 -4.889633,-2.167391 -6.791157,-4.038572 -1.016507,-0.999889 -1.499112,-1.482495 -1.926811,-1.844449 a 8.2360844,8.2360844 0 0 0 -0.726076,-0.546905 12.963163,12.963163 0 0 1 -0.07875,-6.843897 20.767214,20.767214 0 0 0 -6.74781,5.208962 h -0.013 c -1.111149,-1.405914 -1.0324,-6.04413 -0.969546,-7.012953 a 5.0875883,5.0875883 0 0 0 -0.939203,0.49561 20.389366,20.389366 0 0 0 -2.739581,2.345116 24.497294,24.497294 0 0 0 -2.6182082,3.135492 23.632505,23.632505 0 0 0 -3.7575329,8.483889 c -0.013727,0.06069 -0.024564,0.123542 -0.037568,0.184229 -0.05274,0.247082 -0.2889854,1.497666 -0.3236636,1.766423 0,0.02023 0,-0.02095 0,0 A 32.576604,32.576604 0 0 0 4,32.753496 v 0.144492 a 28.036643,28.036643 0 0 0 55.663648,4.735749 c 0.04768,-0.361232 0.08597,-0.722464 0.127876,-1.083695 a 28.759106,28.759106 0 0 0 -1.82133,-14.065643 z m -2.780762,1.437702 0.0043,0.03034 z"
     id="path4935"
     inkscape:connector-curvature="0"
     style="fill:url(#k);stroke-width:0.72246355" />
  <path
     d="m 32.084325,27.514913 c 0,0 -0.118484,0.04913 -0.338113,0.124263 -0.547627,0.925476 -2.494666,2.692622 -3.238804,2.68901 -7.971662,-0.03468 -9.286546,4.729246 -9.286546,4.729246 a 10.181679,10.181679 0 0 0 1.561966,4.575362 10.254647,10.254647 0 0 1 -1.335113,-4.202571 c 0,0 1.293933,-4.816664 9.265595,-4.816664 0.861899,0 3.323333,-2.402192 3.371015,-3.098646 z"
     id="path4937"
     inkscape:connector-curvature="0"
     style="fill:url(#l);stroke-width:0.72246355" />
  <path
     d="m 55.196656,23.953167 v -0.02673 c 0,-0.02095 -0.0043,-0.03323 0,-0.02673 0.0043,0.0065 0,0.01589 0.0051,0.04696 a 27.98607,27.98607 0 0 0 -0.602535,-1.38713 c -0.07225,-0.153162 -0.144493,-0.29621 -0.220351,-0.44576 -0.140881,-0.288985 -0.280316,-0.577971 -0.426254,-0.849617 -0.09031,-0.169779 -0.184951,-0.330888 -0.277426,-0.49561 -0.135823,-0.242025 -0.270201,-0.485495 -0.409637,-0.722463 -0.10259,-0.170502 -0.208069,-0.333778 -0.312104,-0.499945 -0.136546,-0.216739 -0.272369,-0.433478 -0.411804,-0.644438 -0.110537,-0.166889 -0.223964,-0.327998 -0.335946,-0.490552 -0.139435,-0.200845 -0.278148,-0.40169 -0.420474,-0.597478 -0.117039,-0.161831 -0.236245,-0.320051 -0.355452,-0.478271 -0.144492,-0.188563 -0.283928,-0.377125 -0.427698,-0.562076 a 48.437568,48.437568 0 0 0 -0.372833,-0.470326 c -0.144493,-0.179893 -0.288986,-0.361232 -0.437091,-0.538235 q -0.191452,-0.231911 -0.385073,-0.461654 c -0.07225,-0.08308 -0.139435,-0.168334 -0.210237,-0.251418 l 0.08959,0.109815 C 47.248835,12.296218 44.612565,9.6556141 42.258779,5.9392615 A 34.074993,34.074993 0 0 1 41.598448,4.8664032 8.4867792,8.4867792 0 0 1 41.289956,4.2884324 5.7428627,5.7428627 0 0 1 40.90416,3.304437 C 40.89906,3.286375 40.89043,3.258922 40.88754,3.244473 a 3.2655352,3.2655352 0 0 1 -0.01589,-0.065022 0.07224635,0.07224635 0 0 0 -0.06358,-0.072246 0.0931978,0.0931978 0 0 0 -0.05274,0 l -0.01373,0.00795 a 0.19506516,0.19506516 0 0 0 -0.02095,0.010837 0.82216351,0.82216351 0 0 0 -0.169779,0.1249862 0.91030406,0.91030406 0 0 0 -0.04046,0.036123 2.6890093,2.6890093 0 0 0 -0.221796,0.2348006 l -0.0079,0.00795 C 38.603836,5.5007262 34.31457,14.081426 41.226379,21.778552 34.755273,14.163787 38.83358,5.9349268 40.605783,3.7790956 a 6.2204111,6.2204111 0 0 0 0.34606,0.8467272 8.2996612,8.2996612 0 0 0 0.308492,0.5779709 c 0.216739,0.3706238 0.438535,0.7224635 0.660331,1.0721359 4.389689,6.9298704 9.764818,10.1144894 12.932098,18.0045134 0,-0.03034 -0.0051,-0.0419 -0.0051,-0.04624 0,-0.0043 0,0.0058 0.0036,0.02673 l 0.0043,0.02673 a 25.325237,25.325237 0 0 1 -0.869847,18.901814 23.22937,23.22937 0 0 1 -4.453265,6.385132 23.27344,23.27344 0 0 0 4.791378,-6.723968 25.328127,25.328127 0 0 0 0.872736,-18.897479 z"
     id="path4939"
     inkscape:connector-curvature="0"
     style="fill:url(#m);stroke-width:0.72246355" />
  <path
     d="m 40.720654,3.1238211 0.01445,-0.015894 c -6.34323,3.711295 -8.910866,10.2633169 -9.517735,14.3134479 a 20.714475,20.714475 0 0 1 8.467995,-13.0679209 3.9273118,3.9273118 0 0 1 1.03529,-1.229633 z"
     id="path4941"
     inkscape:connector-curvature="0"
     style="fill:url(#n);stroke-width:0.72246355" />
  <path
     d="m 47.706154,40.997527 0.0159,-0.03612 c 0.247805,-0.58953 3.577639,-8.863183 -2.77715,-14.71297 a 5.6901228,5.6901228 0 0 0 -0.421197,-0.343893 c -0.05707,-0.04262 -0.112704,-0.08525 -0.174113,-0.127876 a 9.7843237,9.7843237 0 0 0 -6.502177,-1.67973 h -0.0022 a 6.221856,6.221856 0 0 0 -0.255029,0.03974 c 9.969274,4.979219 7.435595,21.986011 -6.127213,21.733148 l 0.110536,0.0065 c 13.749236,0.5404 16.458474,-16.321176 6.905339,-21.608165 a 10.150613,10.150613 0 0 1 5.309385,1.533068 5.9119192,5.9119192 0 0 1 0.178448,0.122096 5.3462302,5.3462302 0 0 1 0.433478,0.326554 c 6.579476,5.596925 3.576195,13.994119 3.350786,14.593763 l -0.01445,0.03757"
     id="path4943"
     inkscape:connector-curvature="0"
     style="fill:url(#o);stroke-width:0.72246355" />
  <path
     d="m 21.634613,27.381979 a 14.004956,14.004956 0 0 0 10.135441,0.24925 14.007123,14.007123 0 0 1 -10.210578,-0.529566 10.65128,10.65128 0 0 0 -10.173009,0.325109 l -0.03685,0.02384 h -0.0036 l -0.03034,0.02023 -0.02312,0.0159 -0.01445,0.01011 h -0.0043 l -0.01011,0.0072 h -0.0036 l 0.013,0.03107 v 0.0043 l 0.01589,0.03612 v 0.0072 l 0.02384,0.05202 v 0.0043 a 5.7797083,5.7797083 0 0 0 0.184228,0.35184 7.1704506,7.1704506 0 0 0 6.395247,3.684564 c -0.505724,4.440261 1.761367,9.595761 7.250645,12.456717 C 19.896416,41.108673 17.69218,35.621562 18.304829,31.25716 14.253976,31.150235 12.44276,28.722035 11.924754,27.692525 a 11.077533,11.077533 0 0 1 9.70991,-0.31066 z"
     id="path4945"
     inkscape:connector-curvature="0"
     style="fill:url(#p);stroke-width:0.72246355" />
  <path
     d="m 22.636669,21.069093 -0.137268,-0.08019 0.144493,0.09537 z m -0.0289,-0.10259 a 12.973278,12.973278 0 0 1 -0.04551,-6.725413 20.434881,20.434881 0 0 0 -6.487723,4.920699 21.162402,21.162402 0 0 1 5.916254,-4.178729 13.133665,13.133665 0 0 0 0.616984,5.983443 z"
     id="path4947"
     inkscape:connector-curvature="0"
     style="fill:url(#q);stroke-width:0.72246355" />
  <path
     d="m 4.9348678,36.496579 -0.022396,-0.08019 a 25.926327,25.926327 0 0 1 -0.6502172,-2.854454 12.112101,12.112101 0 0 1 0,-3.612317 23.832627,23.832627 0 0 0 -0.2564745,2.803158 v 0.144493 A 28.012801,28.012801 0 0 0 22.81873,59.345211 28.33791,28.33791 0 0 1 4.9348678,36.496579 Z"
     id="path4949"
     inkscape:connector-curvature="0"
     style="fill:url(#r);stroke-width:0.72246355" />
  <path
     d="M 4.7101817,33.674637 C 4.2196289,31.419106 5.2159061,27.070598 5.228188,27.009188 a 23.616611,23.616611 0 0 1 3.7618677,-8.483167 v 0.0043 -0.0043 a 24.56376,24.56376 0 0 1 2.6174853,-3.136214 20.427657,20.427657 0 0 1 2.739582,-2.344394 2.4115833,2.4115833 0 0 1 0.118484,-0.07225 c -0.01012,2.129822 0.111259,5.724078 1.097422,6.902416 h 0.013 c 0.135101,-0.0072 4.215575,-0.187118 6.302772,1.083696 0.231911,0.144492 0.422641,0.259364 0.593143,0.368456 a 8.6168226,8.6168226 0 0 1 0.743415,0.528121 c 0.437813,0.351117 0.934868,0.819996 1.981717,1.793154 1.517174,1.409527 4.81811,2.811106 6.244975,3.478662 -1.39002,-0.700067 -4.670004,-2.196289 -6.148887,-3.652053 -1.016506,-1.000612 -1.499112,-1.482495 -1.926088,-1.844449 A 8.4976162,8.4976162 0 0 0 22.644613,21.083538 C 22.477724,20.970112 22.290605,20.847293 22.066642,20.69991 20.02207,19.372022 15.956045,19.445713 15.821667,19.448603 h -0.013 c -1.015784,-1.285262 -1.037458,-5.268926 -0.985441,-6.684232 0,-0.05491 0,-0.104758 0.0058,-0.151718 v -0.09175 c 0,-0.03034 0,-0.05996 0.0051,-0.08525 0,0 -0.0051,-0.0051 -0.01156,-0.0051 h -0.02529 l -0.0159,0.0058 -0.02312,0.0087 -0.0224,0.0094 -0.02673,0.01228 -0.0289,0.01373 -0.0289,0.01445 -0.0354,0.01734 -0.02818,0.01517 -0.0419,0.02167 -0.02384,0.013 a 13.937767,13.937767 0 0 0 -0.624255,0.361224 20.427657,20.427657 0 0 0 -2.739582,2.344394 24.56376,24.56376 0 0 0 -2.619653,3.148496 v 0.0043 -0.0043 A 23.616611,23.616611 0 0 0 4.7766483,26.896484 C 4.763644,26.957174 3.7651994,31.303511 4.258642,33.561932 6.099479,44.424894 14.765429,53.105294 25.413097,55.679431 14.972776,52.97236 6.5250101,44.386604 4.7101817,33.674637 Z"
     id="path4951"
     inkscape:connector-curvature="0"
     style="fill:url(#s);stroke-width:0.72246355" />
  <path
     d="m 57.972361,22.485121 a 17.169346,17.169346 0 0 0 -4.919976,-6.646664 l -0.04985,-0.0354 a 9.8348962,9.8348962 0 0 0 -0.166167,-0.114149 q -0.03107,-0.02167 -0.06285,-0.04118 -0.07947,-0.05057 -0.156053,-0.09753 l -0.06069,-0.03612 a 5.6807308,5.6807308 0 0 0 -0.20807,-0.114872 25.385201,25.385201 0 0 1 0.221074,0.444315 24.266828,24.266828 0 0 1 0.134378,0.276704 28.707089,28.707089 0 0 1 2.480217,7.776597 l 0.0058,0.04696 c 0.99411,6.485556 -2.308271,12.768821 -7.470995,17.017629 l -0.0159,0.03612 c -6.417643,5.219799 -12.657561,5.789101 -16.84207,5.172117 4.169338,0.778815 10.745923,0.450094 17.519741,-5.057245 l 0.01517,-0.03612 c 5.162711,-4.248815 8.465815,-10.532081 7.471705,-17.017636 l -0.0058,-0.04696 a 28.132008,28.132008 0 0 0 -2.043849,-6.823668 18.539859,18.539859 0 0 1 3.065413,4.368737 27.898652,27.898652 0 0 1 2.590754,13.726807 c -0.02167,0.35762 -0.03974,0.714517 -0.06719,1.069246 A 27.908767,27.908767 0 0 1 33.100831,60.76702 28.644957,28.644957 0 0 1 27.566038,60.541611 28.058317,28.058317 0 0 0 59.663648,37.633737 c 0.04696,-0.361232 0.08525,-0.718851 0.127154,-1.080083 A 28.754049,28.754049 0 0 0 57.972361,22.485121 Z m -2.775705,1.468046 v -0.02673 z"
     id="path4953"
     inkscape:connector-curvature="0"
     style="fill:url(#t);stroke-width:0.72246355" />
</svg>
