<?xml version="1.0" encoding="UTF-8" standalone="no"?>
<svg
   xmlns:dc="http://purl.org/dc/elements/1.1/"
   xmlns:cc="http://creativecommons.org/ns#"
   xmlns:rdf="http://www.w3.org/1999/02/22-rdf-syntax-ns#"
   xmlns:svg="http://www.w3.org/2000/svg"
   xmlns="http://www.w3.org/2000/svg"
   xmlns:sodipodi="http://sodipodi.sourceforge.net/DTD/sodipodi-0.dtd"
   xmlns:inkscape="http://www.inkscape.org/namespaces/inkscape"
   height="64"
   width="64"
   id="svg1008"
   version="1.1"
   viewBox="0 0 64 64"
   sodipodi:docname="firefox.svg"
   inkscape:version="0.92.4 5da689c313, 2019-01-14">
  <sodipodi:namedview
     pagecolor="#ffffff"
     bordercolor="#666666"
     borderopacity="1"
     objecttolerance="10"
     gridtolerance="10"
     guidetolerance="10"
     inkscape:pageopacity="0"
     inkscape:pageshadow="2"
     inkscape:window-width="1366"
     inkscape:window-height="708"
     id="namedview95"
     showgrid="false"
     inkscape:zoom="2.8792082"
     inkscape:cx="3.9414039"
     inkscape:cy="40.98349"
     inkscape:window-x="0"
     inkscape:window-y="19"
     inkscape:window-maximized="1"
     inkscape:current-layer="svg1008" />
  <metadata
     id="metadata1012">
    <rdf:RDF>
      <cc:Work
         rdf:about="">
        <dc:format>image/svg+xml</dc:format>
        <dc:type
           rdf:resource="http://purl.org/dc/dcmitype/StillImage" />
        <dc:title></dc:title>
      </cc:Work>
    </rdf:RDF>
  </metadata>
  <defs
     id="defs978">
    <linearGradient
       gradientTransform="matrix(0.72334073,0,0,0.72334073,3.0596572,3.0753584)"
       gradientUnits="userSpaceOnUse"
       y2="74.468002"
       x2="6.447"
       y1="12.393"
       x1="70.786003"
       id="a">
      <stop
         id="stop834"
         stop-color="#fff44f"
         offset=".048" />
      <stop
         id="stop836"
         stop-color="#ffe847"
         offset=".111" />
      <stop
         id="stop838"
         stop-color="#ffc830"
         offset=".225" />
      <stop
         id="stop840"
         stop-color="#ff980e"
         offset=".368" />
      <stop
         id="stop842"
         stop-color="#ff8b16"
         offset=".401" />
      <stop
         id="stop844"
         stop-color="#ff672a"
         offset=".462" />
      <stop
         id="stop846"
         stop-color="#ff3647"
         offset=".534" />
      <stop
         id="stop848"
         stop-color="#e31587"
         offset=".705" />
    </linearGradient>
    <radialGradient
       gradientUnits="userSpaceOnUse"
       gradientTransform="matrix(0.72334073,0,0,0.72334073,5771.702,6168.8317)"
       r="80.796997"
       cy="-8515.1211"
       cx="-7907.187"
       id="b">
      <stop
         id="stop851"
         stop-color="#ffbd4f"
         offset=".129" />
      <stop
         id="stop853"
         stop-color="#ffac31"
         offset=".186" />
      <stop
         id="stop855"
         stop-color="#ff9d17"
         offset=".247" />
      <stop
         id="stop857"
         stop-color="#ff980e"
         offset=".283" />
      <stop
         id="stop859"
         stop-color="#ff563b"
         offset=".403" />
      <stop
         id="stop861"
         stop-color="#ff3750"
         offset=".467" />
      <stop
         id="stop863"
         stop-color="#f5156c"
         offset=".71" />
      <stop
         id="stop865"
         stop-color="#eb0878"
         offset=".782" />
      <stop
         id="stop867"
         stop-color="#e50080"
         offset=".86" />
    </radialGradient>
    <radialGradient
       gradientUnits="userSpaceOnUse"
       gradientTransform="matrix(0.72334073,0,0,0.72334073,5771.702,6168.8317)"
       r="80.796997"
       cy="-8482.0889"
       cx="-7936.7109"
       id="c">
      <stop
         id="stop870"
         stop-color="#960e18"
         offset=".3" />
      <stop
         id="stop872"
         stop-opacity=".74"
         stop-color="#b11927"
         offset=".351" />
      <stop
         id="stop874"
         stop-opacity=".343"
         stop-color="#db293d"
         offset=".435" />
      <stop
         id="stop876"
         stop-opacity=".094"
         stop-color="#f5334b"
         offset=".497" />
      <stop
         id="stop878"
         stop-opacity="0"
         stop-color="#ff3750"
         offset=".53" />
    </radialGradient>
    <radialGradient
       gradientUnits="userSpaceOnUse"
       gradientTransform="matrix(0.72334073,0,0,0.72334073,5771.702,6168.8317)"
       r="58.534"
       cy="-8533.457"
       cx="-7926.9702"
       id="d">
      <stop
         id="stop881"
         stop-color="#fff44f"
         offset=".132" />
      <stop
         id="stop883"
         stop-color="#ffdc3e"
         offset=".252" />
      <stop
         id="stop885"
         stop-color="#ff9d12"
         offset=".506" />
      <stop
         id="stop887"
         stop-color="#ff980e"
         offset=".526" />
    </radialGradient>
    <radialGradient
       gradientUnits="userSpaceOnUse"
       gradientTransform="matrix(0.72334073,0,0,0.72334073,5771.702,6168.8317)"
       r="38.471001"
       cy="-8460.9844"
       cx="-7945.6479"
       id="e">
      <stop
         id="stop890"
         stop-color="#3a8ee6"
         offset=".353" />
      <stop
         id="stop892"
         stop-color="#5c79f0"
         offset=".472" />
      <stop
         id="stop894"
         stop-color="#9059ff"
         offset=".669" />
      <stop
         id="stop896"
         stop-color="#c139e6"
         offset="1" />
    </radialGradient>
    <radialGradient
       gradientUnits="userSpaceOnUse"
       gradientTransform="matrix(0.70308719,-0.16998507,0.1989187,0.82316175,7302.5094,5669.5805)"
       r="20.396999"
       cy="-8491.5459"
       cx="-7935.6201"
       id="f">
      <stop
         id="stop899"
         stop-opacity="0"
         stop-color="#9059ff"
         offset=".206" />
      <stop
         id="stop901"
         stop-opacity=".064"
         stop-color="#8c4ff3"
         offset=".278" />
      <stop
         id="stop903"
         stop-opacity=".45"
         stop-color="#7716a8"
         offset=".747" />
      <stop
         id="stop905"
         stop-opacity=".6"
         stop-color="#6e008b"
         offset=".975" />
    </radialGradient>
    <radialGradient
       gradientUnits="userSpaceOnUse"
       gradientTransform="matrix(0.72334073,0,0,0.72334073,5771.702,6168.8317)"
       r="27.676001"
       cy="-8518.4268"
       cx="-7937.731"
       id="g">
      <stop
         id="stop908"
         stop-color="#ffe226"
         offset="0" />
      <stop
         id="stop910"
         stop-color="#ffdb27"
         offset=".121" />
      <stop
         id="stop912"
         stop-color="#ffc82a"
         offset=".295" />
      <stop
         id="stop914"
         stop-color="#ffa930"
         offset=".502" />
      <stop
         id="stop916"
         stop-color="#ff7e37"
         offset=".732" />
      <stop
         id="stop918"
         stop-color="#ff7139"
         offset=".792" />
    </radialGradient>
    <radialGradient
       gradientUnits="userSpaceOnUse"
       gradientTransform="matrix(0.72334073,0,0,0.72334073,5771.702,6168.8317)"
       r="118.081"
       cy="-8535.9814"
       cx="-7915.9771"
       id="h">
      <stop
         id="stop921"
         stop-color="#fff44f"
         offset=".113" />
      <stop
         id="stop923"
         stop-color="#ff980e"
         offset=".456" />
      <stop
         id="stop925"
         stop-color="#ff5634"
         offset=".622" />
      <stop
         id="stop927"
         stop-color="#ff3647"
         offset=".716" />
      <stop
         id="stop929"
         stop-color="#e31587"
         offset=".904" />
    </radialGradient>
    <radialGradient
       gradientUnits="userSpaceOnUse"
       gradientTransform="matrix(0.07595078,0.71972403,-0.4723415,0.04991051,-3385.0712,6129.9095)"
       r="86.499001"
       cy="-8522.8594"
       cx="-7927.165"
       id="i">
      <stop
         id="stop932"
         stop-color="#fff44f"
         offset="0" />
      <stop
         id="stop934"
         stop-color="#ffe847"
         offset=".06" />
      <stop
         id="stop936"
         stop-color="#ffc830"
         offset=".168" />
      <stop
         id="stop938"
         stop-color="#ff980e"
         offset=".304" />
      <stop
         id="stop940"
         stop-color="#ff8b16"
         offset=".356" />
      <stop
         id="stop942"
         stop-color="#ff672a"
         offset=".455" />
      <stop
         id="stop944"
         stop-color="#ff3647"
         offset=".57" />
      <stop
         id="stop946"
         stop-color="#e31587"
         offset=".737" />
    </radialGradient>
    <radialGradient
       gradientUnits="userSpaceOnUse"
       gradientTransform="matrix(0.72334073,0,0,0.72334073,5771.702,6168.8317)"
       r="73.720001"
       cy="-8508.1758"
       cx="-7938.3828"
       id="j">
      <stop
         id="stop949"
         stop-color="#fff44f"
         offset=".137" />
      <stop
         id="stop951"
         stop-color="#ff980e"
         offset=".48" />
      <stop
         id="stop953"
         stop-color="#ff5634"
         offset=".592" />
      <stop
         id="stop955"
         stop-color="#ff3647"
         offset=".655" />
      <stop
         id="stop957"
         stop-color="#e31587"
         offset=".904" />
    </radialGradient>
    <radialGradient
       gradientUnits="userSpaceOnUse"
       gradientTransform="matrix(0.72334073,0,0,0.72334073,5771.702,6168.8317)"
       r="80.685997"
       cy="-8503.8613"
       cx="-7918.9229"
       id="k">
      <stop
         id="stop960"
         stop-color="#fff44f"
         offset=".094" />
      <stop
         id="stop962"
         stop-color="#ffe141"
         offset=".231" />
      <stop
         id="stop964"
         stop-color="#ffaf1e"
         offset=".509" />
      <stop
         id="stop966"
         stop-color="#ff980e"
         offset=".626" />
    </radialGradient>
    <linearGradient
       gradientTransform="matrix(0.72334073,0,0,0.72334073,3.0596572,3.0753584)"
       gradientUnits="userSpaceOnUse"
       y2="66.806"
       x2="15.267"
       y1="12.061"
       x1="70.013"
       id="l">
      <stop
         id="stop969"
         stop-opacity=".8"
         stop-color="#fff44f"
         offset=".167" />
      <stop
         id="stop971"
         stop-opacity=".634"
         stop-color="#fff44f"
         offset=".266" />
      <stop
         id="stop973"
         stop-opacity=".217"
         stop-color="#fff44f"
         offset=".489" />
      <stop
         id="stop975"
         stop-opacity="0"
         stop-color="#fff44f"
         offset=".6" />
    </linearGradient>
  </defs>
  <path
     style="fill:url(#a);stroke-width:0.72334075"
     id="path980"
     d="m 57.972792,22.483314 c -1.218106,-2.930977 -3.689038,-6.095592 -5.623974,-7.095973 a 29.126038,29.126038 0 0 1 2.839112,8.509381 l 0.0051,0.04702 C 52.023314,16.041241 46.648169,12.854926 42.258214,5.9166409 42.036149,5.5658207 41.814083,5.2142771 41.597804,4.8432033 41.474113,4.6312645 41.375015,4.4403025 41.288938,4.2645307 a 5.1017222,5.1017222 0 0 1 -0.418091,-1.110328 0.07233407,0.07233407 0 0 0 -0.06365,-0.072334 0.09982102,0.09982102 0 0 0 -0.0528,0 c -0.0036,0 -0.0094,0.00651 -0.01374,0.00796 -0.0043,0.00145 -0.01374,0.00796 -0.02025,0.01085 l 0.01085,-0.018807 C 33.68952,7.2049108 31.300326,14.837602 31.08043,18.655395 a 14.023407,14.023407 0 0 0 -7.715152,2.973654 8.381349,8.381349 0 0 0 -0.723341,-0.548293 12.996986,12.996986 0 0 1 -0.07884,-6.852206 20.763496,20.763496 0 0 0 -6.748046,5.215286 h -0.01302 c -1.111051,-1.408344 -1.03293,-6.052192 -0.969276,-7.022192 a 5.0113046,5.0113046 0 0 0 -0.936003,0.496935 20.416292,20.416292 0 0 0 -2.740015,2.347241 24.481467,24.481467 0 0 0 -2.6206632,3.144362 v 0.0043 -0.0051 a 23.677112,23.677112 0 0 0 -3.7613718,8.49419 l -0.037614,0.185175 c -0.052804,0.24666 -0.2430425,1.482126 -0.2755928,1.750485 0,0.02098 -0.00434,0.04051 -0.00651,0.06148 a 26.718036,26.718036 0 0 0 -0.4549851,3.86489 v 0.144669 a 28.035963,28.035963 0 0 0 55.6639619,4.740775 c 0.04702,-0.361671 0.08535,-0.719724 0.127308,-1.085011 A 28.830191,28.830191 0 0 0 57.972792,22.483314 Z M 25.661161,44.428025 c 0.130925,0.06293 0.253893,0.130925 0.388434,0.190962 l 0.01953,0.0123 Q 25.865143,44.533637 25.66116,44.428028 Z M 32.08298,27.519212 Z m 23.112183,-3.568963 v -0.02676 l 0.0051,0.02966 z"
     inkscape:connector-curvature="0" />
  <path
     style="fill:url(#b);stroke-width:0.72334075"
     id="path982"
     d="m 57.972792,22.483314 c -1.218106,-2.930977 -3.689038,-6.095592 -5.623974,-7.095973 a 29.126038,29.126038 0 0 1 2.839112,8.509381 v 0.02676 l 0.0051,0.02966 A 25.38926,25.38926 0 0 1 54.320644,42.874289 C 51.107565,49.76845 43.330205,56.834765 31.156381,56.491178 18.00243,56.118658 6.4181282,46.357898 4.252446,33.573574 c -0.3942207,-2.015951 0,-3.038031 0.1981954,-4.676398 a 20.887187,20.887187 0 0 0 -0.4506413,3.868426 v 0.144669 a 28.035963,28.035963 0 0 0 55.6639619,4.740775 c 0.04702,-0.361671 0.08535,-0.719724 0.127308,-1.085011 A 28.830191,28.830191 0 0 0 57.972792,22.483314 Z"
     inkscape:connector-curvature="0" />
  <path
     style="fill:url(#c);stroke-width:0.72334075"
     id="path984"
     d="m 57.972792,22.483314 c -1.218106,-2.930977 -3.689038,-6.095592 -5.623974,-7.095973 a 29.126038,29.126038 0 0 1 2.839112,8.509381 v 0.02676 l 0.0051,0.02966 A 25.38926,25.38926 0 0 1 54.320644,42.874289 C 51.107565,49.76845 43.330205,56.834765 31.156381,56.491178 18.00243,56.118658 6.4181282,46.357898 4.252446,33.573574 c -0.3942207,-2.015951 0,-3.038031 0.1981954,-4.676398 a 20.887187,20.887187 0 0 0 -0.4506413,3.868426 v 0.144669 a 28.035963,28.035963 0 0 0 55.6639619,4.740775 c 0.04702,-0.361671 0.08535,-0.719724 0.127308,-1.085011 A 28.830191,28.830191 0 0 0 57.972792,22.483314 Z"
     inkscape:connector-curvature="0" />
  <path
     style="fill:url(#d);stroke-width:0.72334075"
     id="path986"
     d="m 44.349393,25.778854 c 0.06076,0.04268 0.117181,0.08535 0.174325,0.128032 A 15.262489,15.262489 0 0 0 41.919691,22.510801 C 33.206329,13.795992 39.636104,3.6149707 40.720392,3.0977821 l 0.01085,-0.015913 C 33.68952,7.2049108 31.300326,14.837602 31.08043,18.655395 c 0.32695,-0.02242 0.651007,-0.04991 0.98519,-0.04991 a 14.148545,14.148545 0 0 1 12.283773,7.173369 z"
     inkscape:connector-curvature="0" />
  <path
     style="fill:url(#e);stroke-width:0.72334075"
     id="path988"
     d="m 32.083704,27.519212 c -0.04629,0.697301 -2.509993,3.102408 -3.371491,3.102408 -7.971939,0 -9.265995,4.822513 -9.265995,4.822513 0.35299,4.060835 3.182699,7.405563 6.603377,9.174854 0.156242,0.08101 0.314654,0.154072 0.473065,0.225682 q 0.411581,0.182282 0.823162,0.337077 a 12.466777,12.466777 0 0 0 3.647807,0.703811 c 13.972773,0.655346 16.679514,-16.709171 6.596144,-21.747963 a 9.678299,9.678299 0 0 1 6.75962,1.64126 14.148545,14.148545 0 0 0 -12.283773,-7.17337 c -0.332736,0 -0.65824,0.02749 -0.98519,0.04991 a 14.023407,14.023407 0 0 0 -7.715152,2.973654 c 0.427494,0.36167 0.909963,0.844862 1.926256,1.846688 1.902386,1.874176 6.78132,3.815623 6.79217,4.043476 z"
     inkscape:connector-curvature="0" />
  <path
     style="fill:url(#f);stroke-width:0.72334075"
     id="path990"
     d="m 32.083704,27.519212 c -0.04629,0.697301 -2.509993,3.102408 -3.371491,3.102408 -7.971939,0 -9.265995,4.822513 -9.265995,4.822513 0.35299,4.060835 3.182699,7.405563 6.603377,9.174854 0.156242,0.08101 0.314654,0.154072 0.473065,0.225682 q 0.411581,0.182282 0.823162,0.337077 a 12.466777,12.466777 0 0 0 3.647807,0.703811 c 13.972773,0.655346 16.679514,-16.709171 6.596144,-21.747963 a 9.678299,9.678299 0 0 1 6.75962,1.64126 14.148545,14.148545 0 0 0 -12.283773,-7.17337 c -0.332736,0 -0.65824,0.02749 -0.98519,0.04991 a 14.023407,14.023407 0 0 0 -7.715152,2.973654 c 0.427494,0.36167 0.909963,0.844862 1.926256,1.846688 1.902386,1.874176 6.78132,3.815623 6.79217,4.043476 z"
     inkscape:connector-curvature="0" />
  <path
     style="fill:url(#g);stroke-width:0.72334075"
     id="path992"
     d="m 22.058201,20.696662 c 0.227129,0.144669 0.414475,0.27053 0.578673,0.384094 a 12.996986,12.996986 0 0 1 -0.07884,-6.852206 20.763496,20.763496 0 0 0 -6.748046,5.215286 c 0.136711,-0.0036 4.203333,-0.07667 6.248217,1.252826 z"
     inkscape:connector-curvature="0" />
  <path
     style="fill:url(#h);stroke-width:0.72334075"
     id="path994"
     d="M 4.2560627,33.573574 C 6.4195748,46.357898 18.006047,56.118658 31.159998,56.491178 43.333822,56.835489 51.111182,49.76845 54.324261,42.874289 A 25.38926,25.38926 0 0 0 55.19661,23.953142 v -0.02676 c 0,-0.02098 -0.0043,-0.03327 0,-0.02676 l 0.0051,0.04702 c 0.994594,6.49343 -2.30818,12.784324 -7.471386,17.038291 l -0.01591,0.03617 c -10.060223,8.193281 -19.687888,4.943311 -21.636568,3.616704 q -0.203982,-0.09765 -0.407964,-0.203259 c -5.86561,-2.803682 -8.288802,-8.147723 -7.769443,-12.73081 a 7.1994103,7.1994103 0 0 1 -6.640991,-4.177292 10.573795,10.573795 0 0 1 10.306882,-0.413751 13.960476,13.960476 0 0 0 10.526054,0.413751 c -0.01085,-0.227853 -4.889783,-2.170023 -6.79217,-4.043475 -1.016293,-1.001827 -1.498762,-1.484295 -1.926256,-1.846689 A 8.381349,8.381349 0 0 0 22.650617,21.08799 c -0.166368,-0.113565 -0.353713,-0.236533 -0.578672,-0.384094 -2.044884,-1.3295 -6.111506,-1.256443 -6.246047,-1.252826 h -0.01302 c -1.111052,-1.408345 -1.032931,-6.052192 -0.969277,-7.022192 a 5.0113046,5.0113046 0 0 0 -0.936003,0.496935 20.416292,20.416292 0 0 0 -2.740015,2.347241 24.481467,24.481467 0 0 0 -2.6315132,3.137128 v 0.0043 -0.0051 a 23.677112,23.677112 0 0 0 -3.7613718,8.49419 c -0.013743,0.05714 -1.0097836,4.411655 -0.5186353,6.669925 z"
     inkscape:connector-curvature="0" />
  <path
     style="fill:url(#i);stroke-width:0.72334075"
     id="path996"
     d="m 41.921138,22.510801 a 15.262489,15.262489 0 0 1 2.604026,3.399701 c 0.154072,0.116458 0.298017,0.232193 0.420261,0.344311 6.355995,5.859059 3.025735,14.141311 2.777629,14.730833 C 52.88626,36.73168 56.18614,30.440785 55.19444,23.947356 52.023314,16.041241 46.648169,12.854926 42.258214,5.9166409 42.036149,5.5658207 41.814083,5.2142771 41.597804,4.8432033 41.474113,4.6312645 41.375015,4.4403025 41.288938,4.2645307 a 5.1017222,5.1017222 0 0 1 -0.418091,-1.110328 0.07233407,0.07233407 0 0 0 -0.06365,-0.072334 0.09982102,0.09982102 0 0 0 -0.0528,0 c -0.0036,0 -0.0094,0.00651 -0.01374,0.00796 -0.0043,0.00145 -0.01374,0.00796 -0.02025,0.01085 -1.084288,0.5142952 -7.514063,10.6953163 1.200746,19.4101253 z"
     inkscape:connector-curvature="0" />
  <path
     style="fill:url(#j);stroke-width:0.72334075"
     id="path998"
     d="m 44.941085,26.251196 c -0.122244,-0.112118 -0.266189,-0.227853 -0.420261,-0.34431 -0.05714,-0.04268 -0.113564,-0.08535 -0.174325,-0.128032 a 9.678299,9.678299 0 0 0 -6.759619,-1.64126 c 10.08337,5.041685 7.378075,22.403309 -6.596144,21.747963 a 12.466777,12.466777 0 0 1 -3.647807,-0.703811 q -0.411581,-0.154072 -0.823162,-0.337077 c -0.158412,-0.07233 -0.316823,-0.144668 -0.473065,-0.225682 l 0.01953,0.0123 c 1.94868,1.330223 11.573452,4.580193 21.636568,-3.616704 l 0.01591,-0.03617 c 0.250999,-0.585906 3.58126,-8.870327 -2.777629,-14.727217 z"
     inkscape:connector-curvature="0" />
  <path
     style="fill:url(#k);stroke-width:0.72334075"
     id="path1000"
     d="m 19.446218,35.444133 c 0,0 1.294056,-4.822513 9.265995,-4.822513 0.861498,0 3.327367,-2.405107 3.371491,-3.102408 a 13.960476,13.960476 0 0 1 -10.526054,-0.413751 10.573795,10.573795 0 0 0 -10.306883,0.413751 7.1994103,7.1994103 0 0 0 6.640992,4.177293 c -0.519359,4.58381 1.903832,9.927851 7.769402,12.730797 0.130925,0.06293 0.253893,0.130924 0.388434,0.190962 -3.423571,-1.768568 -6.250387,-5.113296 -6.603377,-9.174131 z"
     inkscape:connector-curvature="0" />
  <path
     style="fill:url(#l);stroke-width:0.72334075"
     id="path1002"
     d="m 57.972792,22.483314 c -1.218106,-2.930977 -3.689038,-6.095592 -5.623974,-7.095973 a 29.126038,29.126038 0 0 1 2.839112,8.509381 l 0.0051,0.04702 C 52.023314,16.041241 46.648169,12.854926 42.258214,5.9166409 42.036149,5.5658207 41.814083,5.2142771 41.597804,4.8432033 41.474113,4.6312645 41.375015,4.4403025 41.288938,4.2645307 a 5.1017222,5.1017222 0 0 1 -0.418091,-1.110328 0.07233407,0.07233407 0 0 0 -0.06365,-0.072334 0.09982102,0.09982102 0 0 0 -0.0528,0 c -0.0036,0 -0.0094,0.00651 -0.01374,0.00796 -0.0043,0.00145 -0.01374,0.00796 -0.02025,0.01085 l 0.01085,-0.018807 C 33.68952,7.2049108 31.300326,14.837602 31.08043,18.655395 c 0.32695,-0.02242 0.651007,-0.04991 0.98519,-0.04991 a 14.148545,14.148545 0 0 1 12.283773,7.17337 9.678299,9.678299 0 0 0 -6.75962,-1.64126 c 10.08337,5.041685 7.378076,22.403309 -6.596144,21.747963 A 12.466777,12.466777 0 0 1 27.345822,45.181746 Q 26.934241,45.027674 26.52266,44.844669 c -0.158411,-0.07233 -0.316823,-0.144668 -0.473065,-0.225682 l 0.01953,0.0123 q -0.203982,-0.09765 -0.407965,-0.203259 c 0.130925,0.06293 0.253893,0.130925 0.388434,0.190962 -3.423571,-1.769291 -6.250387,-5.114019 -6.603377,-9.174854 0,0 1.294056,-4.822513 9.265995,-4.822513 0.861498,0 3.327367,-2.405107 3.371491,-3.102408 -0.01085,-0.227852 -4.889784,-2.170022 -6.79217,-4.043475 -1.016293,-1.001826 -1.498762,-1.484295 -1.926256,-1.846688 a 8.381349,8.381349 0 0 0 -0.723341,-0.548293 12.996986,12.996986 0 0 1 -0.07884,-6.852206 20.763496,20.763496 0 0 0 -6.748046,5.215286 H 15.80203 C 14.690979,18.035495 14.7691,13.391647 14.832754,12.421647 a 5.0113046,5.0113046 0 0 0 -0.936003,0.496935 20.416292,20.416292 0 0 0 -2.740015,2.347241 24.481467,24.481467 0 0 0 -2.6206632,3.144362 v 0.0043 -0.0051 A 23.677112,23.677112 0 0 0 4.774701,26.903575 L 4.737087,27.08875 c -0.052804,0.24666 -0.2893363,1.499486 -0.3233333,1.768568 0,0.02025 0,-0.02098 0,0 a 32.618327,32.618327 0 0 0 -0.4137536,3.908284 v 0.144669 a 28.035963,28.035963 0 0 0 55.6639619,4.740775 c 0.04702,-0.361671 0.08535,-0.719724 0.127308,-1.085011 A 28.830191,28.830191 0 0 0 57.972792,22.483314 Z m -2.781245,1.440171 0.0051,0.02966 z"
     inkscape:connector-curvature="0" />
</svg>
