<?xml version="1.0" encoding="UTF-8" standalone="no"?>
<!-- This Source Code Form is subject to the terms of the Mozilla Public
   - License, v. 2.0. If a copy of the MPL was not distributed with this
   - file, You can obtain one at http://mozilla.org/MPL/2.0/. -->

<!-- IMPORTANT - The text part needs 'context-fill' for dark mode support on some pages -->

<svg
   xmlns:dc="http://purl.org/dc/elements/1.1/"
   xmlns:cc="http://creativecommons.org/ns#"
   xmlns:rdf="http://www.w3.org/1999/02/22-rdf-syntax-ns#"
   xmlns:svg="http://www.w3.org/2000/svg"
   xmlns="http://www.w3.org/2000/svg"
   xmlns:sodipodi="http://sodipodi.sourceforge.net/DTD/sodipodi-0.dtd"
   xmlns:inkscape="http://www.inkscape.org/namespaces/inkscape"
   viewBox="0 0 64 64"
   version="1.1"
   id="svg5182"
   sodipodi:docname="firefox-trunk.svg"
   width="64"
   height="64"
   inkscape:version="0.92.4 5da689c313, 2019-01-14">
  <metadata
     id="metadata5186">
    <rdf:RDF>
      <cc:Work
         rdf:about="">
        <dc:format>image/svg+xml</dc:format>
        <dc:type
           rdf:resource="http://purl.org/dc/dcmitype/StillImage" />
        <dc:title></dc:title>
      </cc:Work>
    </rdf:RDF>
  </metadata>
  <sodipodi:namedview
     pagecolor="#ffffff"
     bordercolor="#666666"
     borderopacity="1"
     objecttolerance="10"
     gridtolerance="10"
     guidetolerance="10"
     inkscape:pageopacity="0"
     inkscape:pageshadow="2"
     inkscape:window-width="1366"
     inkscape:window-height="708"
     id="namedview5184"
     showgrid="false"
     fit-margin-top="0"
     fit-margin-left="0"
     fit-margin-right="0"
     fit-margin-bottom="0"
     inkscape:zoom="3.281106"
     inkscape:cx="47.006882"
     inkscape:cy="39.971062"
     inkscape:window-x="0"
     inkscape:window-y="19"
     inkscape:window-maximized="1"
     inkscape:current-layer="svg5182" />
  <defs
     id="defs5140">
    <linearGradient
       id="a"
       x1="74.803001"
       y1="20.542999"
       x2="7.7420001"
       y2="62.785999"
       gradientUnits="userSpaceOnUse"
       gradientTransform="matrix(0.72334073,0,0,0.72334073,3.0596572,3.0753589)">
      <stop
         offset="0"
         stop-color="#3fe1b0"
         id="stop4973" />
      <stop
         offset=".406"
         stop-color="#00b3f4"
         id="stop4975" />
      <stop
         offset=".421"
         stop-color="#03b0f4"
         id="stop4977" />
      <stop
         offset=".818"
         stop-color="#5561e9"
         id="stop4979" />
      <stop
         offset="1"
         stop-color="#7542e5"
         id="stop4981" />
    </linearGradient>
    <radialGradient
       id="b"
       cx="-7907.187"
       cy="-8515.1211"
       r="80.796997"
       gradientTransform="matrix(0.72334073,0,0,0.72334073,5771.702,6168.8317)"
       gradientUnits="userSpaceOnUse">
      <stop
         offset=".108"
         stop-color="#3fe1b0"
         id="stop4984" />
      <stop
         offset=".122"
         stop-color="#3bdcb3"
         id="stop4986" />
      <stop
         offset=".254"
         stop-color="#1bb3d3"
         id="stop4988" />
      <stop
         offset=".358"
         stop-color="#0799e6"
         id="stop4990" />
      <stop
         offset=".42"
         stop-color="#0090ed"
         id="stop4992" />
      <stop
         offset=".487"
         stop-color="#2482f1"
         id="stop4994" />
      <stop
         offset=".64"
         stop-color="#7165fb"
         id="stop4996" />
      <stop
         offset=".71"
         stop-color="#9059ff"
         id="stop4998" />
      <stop
         offset=".795"
         stop-color="#7d49ed"
         id="stop5000" />
      <stop
         offset=".86"
         stop-color="#7542e5"
         id="stop5002" />
    </radialGradient>
    <radialGradient
       id="c"
       cx="-7936.7109"
       cy="-8482.0889"
       r="80.796997"
       gradientTransform="matrix(0.72334073,0,0,0.72334073,5771.702,6168.8317)"
       gradientUnits="userSpaceOnUse">
      <stop
         offset=".3"
         stop-color="#45278d"
         id="stop5005" />
      <stop
         offset=".341"
         stop-color="#562896"
         stop-opacity=".787"
         id="stop5007" />
      <stop
         offset=".43"
         stop-color="#782aa9"
         stop-opacity=".364"
         id="stop5009" />
      <stop
         offset=".495"
         stop-color="#8d2bb5"
         stop-opacity=".1"
         id="stop5011" />
      <stop
         offset=".53"
         stop-color="#952bb9"
         stop-opacity="0"
         id="stop5013" />
    </radialGradient>
    <radialGradient
       id="d"
       cx="-7926.9702"
       cy="-8533.457"
       r="58.534"
       gradientTransform="matrix(0.72334073,0,0,0.72334073,5771.702,6168.8317)"
       gradientUnits="userSpaceOnUse">
      <stop
         offset=".132"
         stop-color="#3fe1b0"
         id="stop5016" />
      <stop
         offset=".289"
         stop-color="#28d0c8"
         id="stop5018" />
      <stop
         offset=".526"
         stop-color="#00b3f4"
         id="stop5020" />
    </radialGradient>
    <radialGradient
       id="e"
       cx="-7945.6479"
       cy="-8460.9844"
       r="38.471001"
       gradientTransform="matrix(0.72334073,0,0,0.72334073,5771.702,6168.8317)"
       gradientUnits="userSpaceOnUse">
      <stop
         offset=".287"
         stop-color="#0060df"
         id="stop5023" />
      <stop
         offset=".417"
         stop-color="#2357e1"
         id="stop5025" />
      <stop
         offset=".604"
         stop-color="#4f4ce3"
         id="stop5027" />
      <stop
         offset=".748"
         stop-color="#6b45e4"
         id="stop5029" />
      <stop
         offset=".833"
         stop-color="#7542e5"
         id="stop5031" />
    </radialGradient>
    <radialGradient
       id="f"
       cx="-7935.6201"
       cy="-8491.5459"
       r="20.396999"
       gradientTransform="matrix(0.70308719,-0.16998507,0.1989187,0.82316175,7302.5094,5669.5805)"
       gradientUnits="userSpaceOnUse">
      <stop
         offset=".206"
         stop-color="#45278d"
         stop-opacity="0"
         id="stop5034" />
      <stop
         offset=".251"
         stop-color="#44268a"
         stop-opacity=".055"
         id="stop5036" />
      <stop
         offset=".725"
         stop-color="#371f6f"
         stop-opacity=".591"
         id="stop5038" />
      <stop
         offset=".956"
         stop-color="#321c64"
         stop-opacity=".8"
         id="stop5040" />
    </radialGradient>
    <radialGradient
       id="g"
       cx="-7943.645"
       cy="-8466.5225"
       r="0.62599999"
       gradientTransform="matrix(0.72334073,0,0,0.72334073,5771.702,6168.8317)"
       gradientUnits="userSpaceOnUse">
      <stop
         offset=".353"
         stop-color="#3a8ee6"
         id="stop5043" />
      <stop
         offset=".472"
         stop-color="#5c79f0"
         id="stop5045" />
      <stop
         offset=".669"
         stop-color="#9059ff"
         id="stop5047" />
      <stop
         offset="1"
         stop-color="#c139e6"
         id="stop5049" />
    </radialGradient>
    <radialGradient
       id="h"
       cx="-7943.48"
       cy="-8466.749"
       r="0.22400001"
       gradientTransform="matrix(0.70308719,-0.16998507,0.1989187,0.82316175,7297.4099,5665.7598)"
       gradientUnits="userSpaceOnUse">
      <stop
         offset=".206"
         stop-color="#9059ff"
         stop-opacity="0"
         id="stop5052" />
      <stop
         offset=".278"
         stop-color="#8c4ff3"
         stop-opacity=".064"
         id="stop5054" />
      <stop
         offset=".747"
         stop-color="#7716a8"
         stop-opacity=".45"
         id="stop5056" />
      <stop
         offset=".975"
         stop-color="#6e008b"
         stop-opacity=".6"
         id="stop5058" />
    </radialGradient>
    <radialGradient
       id="i"
       cx="-7937.731"
       cy="-8518.4268"
       r="27.676001"
       gradientTransform="matrix(0.72334073,0,0,0.72334073,5771.702,6168.8317)"
       gradientUnits="userSpaceOnUse">
      <stop
         offset="0"
         stop-color="#0df"
         id="stop5061" />
      <stop
         offset=".235"
         stop-color="#00d6fd"
         id="stop5063" />
      <stop
         offset=".572"
         stop-color="#00c3f8"
         id="stop5065" />
      <stop
         offset=".792"
         stop-color="#00b3f4"
         id="stop5067" />
    </radialGradient>
    <radialGradient
       id="j"
       cx="-7915.9771"
       cy="-8535.9814"
       r="118.081"
       gradientTransform="matrix(0.72334073,0,0,0.72334073,5771.702,6168.8317)"
       gradientUnits="userSpaceOnUse">
      <stop
         offset=".126"
         stop-color="#3fe1b0"
         id="stop5070" />
      <stop
         offset=".429"
         stop-color="#0df"
         id="stop5072" />
      <stop
         offset=".479"
         stop-color="#1ec1ff"
         id="stop5074" />
      <stop
         offset=".624"
         stop-color="#7077ff"
         id="stop5076" />
      <stop
         offset=".69"
         stop-color="#9059ff"
         id="stop5078" />
      <stop
         offset=".904"
         stop-color="#b833e1"
         id="stop5080" />
    </radialGradient>
    <radialGradient
       id="k"
       cx="-7927.165"
       cy="-8522.8594"
       r="86.499001"
       gradientTransform="matrix(0.07595078,0.71972403,-0.4723415,0.04991051,-3385.0712,6129.9095)"
       gradientUnits="userSpaceOnUse">
      <stop
         offset="0"
         stop-color="#54ffbd"
         id="stop5083" />
      <stop
         offset=".095"
         stop-color="#4cf3b8"
         id="stop5085" />
      <stop
         offset=".197"
         stop-color="#3fe1b0"
         id="stop5087" />
      <stop
         offset=".257"
         stop-color="#33d8bd"
         id="stop5089" />
      <stop
         offset=".369"
         stop-color="#12c0e1"
         id="stop5091" />
      <stop
         offset=".423"
         stop-color="#00b3f4"
         id="stop5093" />
      <stop
         offset=".737"
         stop-color="#0060df"
         id="stop5095" />
    </radialGradient>
    <radialGradient
       id="l"
       cx="-7938.3828"
       cy="-8508.1758"
       r="73.720001"
       gradientTransform="matrix(0.72334073,0,0,0.72334073,5771.702,6168.8317)"
       gradientUnits="userSpaceOnUse">
      <stop
         offset=".137"
         stop-color="#3fe1b0"
         id="stop5098" />
      <stop
         offset=".435"
         stop-color="#0df"
         id="stop5100" />
      <stop
         offset=".484"
         stop-color="#1ec1ff"
         id="stop5102" />
      <stop
         offset=".622"
         stop-color="#7077ff"
         id="stop5104" />
      <stop
         offset=".685"
         stop-color="#9059ff"
         id="stop5106" />
    </radialGradient>
    <radialGradient
       id="m"
       cx="-7918.9229"
       cy="-8503.8613"
       r="80.685997"
       gradientTransform="matrix(0.72334073,0,0,0.72334073,5771.702,6168.8317)"
       gradientUnits="userSpaceOnUse">
      <stop
         offset=".094"
         stop-color="#54ffbd"
         id="stop5109" />
      <stop
         offset=".242"
         stop-color="#41f7cc"
         id="stop5111" />
      <stop
         offset=".543"
         stop-color="#0fe3f3"
         id="stop5113" />
      <stop
         offset=".626"
         stop-color="#0df"
         id="stop5115" />
    </radialGradient>
    <linearGradient
       id="n"
       x1="70.013"
       y1="12.061"
       x2="15.267"
       y2="66.806"
       gradientUnits="userSpaceOnUse"
       gradientTransform="matrix(0.72334073,0,0,0.72334073,3.0596572,3.0753589)">
      <stop
         offset=".167"
         stop-color="#54ffbd"
         stop-opacity=".8"
         id="stop5118" />
      <stop
         offset=".236"
         stop-color="#43f8ca"
         stop-opacity=".639"
         id="stop5120" />
      <stop
         offset=".361"
         stop-color="#27ede1"
         stop-opacity=".368"
         id="stop5122" />
      <stop
         offset=".466"
         stop-color="#12e4f1"
         stop-opacity=".169"
         id="stop5124" />
      <stop
         offset=".545"
         stop-color="#05dffb"
         stop-opacity=".046"
         id="stop5126" />
      <stop
         offset=".589"
         stop-color="#0df"
         stop-opacity="0"
         id="stop5128" />
    </linearGradient>
    <linearGradient
       id="o"
       x1="75.657997"
       y1="72"
       x2="203.22"
       y2="72"
       gradientUnits="userSpaceOnUse">
      <stop
         offset=".002"
         stop-color="#005e5e"
         id="stop5131" />
      <stop
         offset=".478"
         stop-color="#0250bb"
         id="stop5133" />
      <stop
         offset=".735"
         stop-color="#253ba3"
         id="stop5135" />
      <stop
         offset="1"
         stop-color="#45278d"
         id="stop5137" />
    </linearGradient>
  </defs>
  <path
     d="m 57.972792,22.483314 c -1.218106,-2.930977 -3.689038,-6.095592 -5.623974,-7.095973 a 29.126038,29.126038 0 0 1 2.839112,8.509381 l 0.0051,0.04702 C 52.023314,16.041241 46.648169,12.854926 42.258214,5.9166409 42.036149,5.5658207 41.814083,5.2142771 41.597804,4.8432033 41.474113,4.6312645 41.375015,4.4403025 41.288938,4.2645307 a 5.1017222,5.1017222 0 0 1 -0.418091,-1.110328 0.07233407,0.07233407 0 0 0 -0.06365,-0.072334 0.09982102,0.09982102 0 0 0 -0.0528,0 c -0.0036,0 -0.0094,0.00651 -0.01374,0.00796 -0.0043,0.00145 -0.01374,0.00796 -0.02025,0.01085 l 0.01085,-0.018807 C 33.68952,7.2049107 31.300326,14.837602 31.08043,18.655395 a 14.023407,14.023407 0 0 0 -7.715152,2.973654 8.381349,8.381349 0 0 0 -0.723341,-0.548293 12.996986,12.996986 0 0 1 -0.07884,-6.852206 20.763496,20.763496 0 0 0 -6.748046,5.215286 h -0.01302 c -1.111051,-1.408344 -1.03293,-6.052192 -0.969276,-7.022192 a 5.0113046,5.0113046 0 0 0 -0.936003,0.496935 20.416292,20.416292 0 0 0 -2.740015,2.347241 24.481467,24.481467 0 0 0 -2.6206632,3.144362 v 0.0043 -0.0051 a 23.677112,23.677112 0 0 0 -3.7613718,8.49419 l -0.037614,0.185175 c -0.052804,0.24666 -0.2430424,1.482126 -0.2755928,1.750485 0,0.02098 -0.00434,0.04051 -0.00651,0.06148 a 26.718036,26.718036 0 0 0 -0.4549854,3.86489 v 0.144669 a 28.035963,28.035963 0 0 0 55.6639622,4.740775 c 0.04702,-0.361671 0.08535,-0.719724 0.127308,-1.085011 A 28.830191,28.830191 0 0 0 57.972792,22.483314 Z M 25.661161,44.428025 c 0.130925,0.06293 0.253893,0.130925 0.388434,0.190962 l 0.01953,0.0123 Q 25.865143,44.533637 25.66116,44.428028 Z M 32.08298,27.519212 Z m 23.112183,-3.568963 v -0.02676 l 0.0051,0.02966 z"
     id="path5142"
     inkscape:connector-curvature="0"
     style="fill:url(#a);stroke-width:0.72334075" />
  <path
     d="m 55.19661,23.953142 -0.0051,-0.02966 v 0.02676 z"
     id="path5144"
     inkscape:connector-curvature="0"
     style="fill:none;stroke-width:0.72334075" />
  <path
     d="m 57.972792,22.483314 c -1.218106,-2.930977 -3.689038,-6.095592 -5.623974,-7.095973 a 29.126038,29.126038 0 0 1 2.839112,8.509381 v 0.02676 l 0.0051,0.02966 A 25.38926,25.38926 0 0 1 54.320644,42.874289 C 51.107565,49.76845 43.330205,56.834765 31.156381,56.491178 18.00243,56.118658 6.4181282,46.357898 4.252446,33.573574 c -0.3942207,-2.015951 0,-3.038031 0.1981954,-4.676398 a 20.887187,20.887187 0 0 0 -0.4506413,3.868426 v 0.144669 a 28.035963,28.035963 0 0 0 55.6639619,4.740775 c 0.04702,-0.361671 0.08535,-0.719724 0.127308,-1.085011 A 28.830191,28.830191 0 0 0 57.972792,22.483314 Z"
     id="path5146"
     inkscape:connector-curvature="0"
     style="fill:url(#b);stroke-width:0.72334075" />
  <path
     d="m 57.972792,22.483314 c -1.218106,-2.930977 -3.689038,-6.095592 -5.623974,-7.095973 a 29.126038,29.126038 0 0 1 2.839112,8.509381 v 0.02676 l 0.0051,0.02966 A 25.38926,25.38926 0 0 1 54.320644,42.874289 C 51.107565,49.76845 43.330205,56.834765 31.156381,56.491178 18.00243,56.118658 6.4181282,46.357898 4.252446,33.573574 c -0.3942207,-2.015951 0,-3.038031 0.1981954,-4.676398 a 20.887187,20.887187 0 0 0 -0.4506413,3.868426 v 0.144669 a 28.035963,28.035963 0 0 0 55.6639619,4.740775 c 0.04702,-0.361671 0.08535,-0.719724 0.127308,-1.085011 A 28.830191,28.830191 0 0 0 57.972792,22.483314 Z"
     id="path5148"
     inkscape:connector-curvature="0"
     style="fill:url(#c);stroke-width:0.72334075" />
  <path
     d="m 44.349393,25.778854 c 0.06076,0.04268 0.117181,0.08535 0.174325,0.128032 A 15.262489,15.262489 0 0 0 41.919691,22.510801 C 33.206329,13.795992 39.636104,3.6149707 40.720392,3.0977821 l 0.01085,-0.015913 C 33.68952,7.2049107 31.300326,14.837602 31.08043,18.655395 c 0.32695,-0.02242 0.651007,-0.04991 0.98519,-0.04991 a 14.148545,14.148545 0 0 1 12.283773,7.173369 z"
     id="path5150"
     inkscape:connector-curvature="0"
     style="fill:url(#d);stroke-width:0.72334075" />
  <path
     d="m 32.083704,27.519212 c -0.04629,0.697301 -2.509993,3.102408 -3.371491,3.102408 -7.971939,0 -9.265995,4.822513 -9.265995,4.822513 0.35299,4.060835 3.182699,7.405563 6.603377,9.174854 0.156242,0.08101 0.314654,0.154072 0.473065,0.225682 q 0.411581,0.182282 0.823162,0.337077 a 12.466777,12.466777 0 0 0 3.647807,0.703811 c 13.972773,0.655346 16.679514,-16.709171 6.596144,-21.747963 a 9.678299,9.678299 0 0 1 6.75962,1.64126 14.148545,14.148545 0 0 0 -12.283773,-7.17337 c -0.332736,0 -0.65824,0.02749 -0.98519,0.04991 a 14.023407,14.023407 0 0 0 -7.715152,2.973654 c 0.427494,0.36167 0.909963,0.844862 1.926256,1.846688 1.902386,1.874176 6.78132,3.815623 6.79217,4.043476 z"
     id="path5152"
     inkscape:connector-curvature="0"
     style="fill:url(#e);stroke-width:0.72334075" />
  <path
     d="m 32.083704,27.519212 c -0.04629,0.697301 -2.509993,3.102408 -3.371491,3.102408 -7.971939,0 -9.265995,4.822513 -9.265995,4.822513 0.35299,4.060835 3.182699,7.405563 6.603377,9.174854 0.156242,0.08101 0.314654,0.154072 0.473065,0.225682 q 0.411581,0.182282 0.823162,0.337077 a 12.466777,12.466777 0 0 0 3.647807,0.703811 c 13.972773,0.655346 16.679514,-16.709171 6.596144,-21.747963 a 9.678299,9.678299 0 0 1 6.75962,1.64126 14.148545,14.148545 0 0 0 -12.283773,-7.17337 c -0.332736,0 -0.65824,0.02749 -0.98519,0.04991 a 14.023407,14.023407 0 0 0 -7.715152,2.973654 c 0.427494,0.36167 0.909963,0.844862 1.926256,1.846688 1.902386,1.874176 6.78132,3.815623 6.79217,4.043476 z"
     id="path5154"
     inkscape:connector-curvature="0"
     style="fill:url(#f);stroke-width:0.72334075" />
  <path
     d="m 25.661161,44.428025 q 0.203983,0.104884 0.407965,0.203259 l -0.01953,-0.0123 c -0.132371,-0.06004 -0.257509,-0.128031 -0.388434,-0.190962 z"
     id="path5156"
     inkscape:connector-curvature="0"
     style="fill:url(#g);stroke-width:0.72334075" />
  <path
     d="m 25.661161,44.428025 q 0.203983,0.104884 0.407965,0.203259 l -0.01953,-0.0123 c -0.132371,-0.06004 -0.257509,-0.128031 -0.388434,-0.190962 z"
     id="path5158"
     inkscape:connector-curvature="0"
     style="fill:url(#h);stroke-width:0.72334075" />
  <path
     d="m 22.058201,20.696662 c 0.227129,0.144669 0.414475,0.27053 0.578673,0.384094 a 12.996986,12.996986 0 0 1 -0.07884,-6.852206 20.763496,20.763496 0 0 0 -6.748046,5.215286 c 0.136711,-0.0036 4.203333,-0.07667 6.248217,1.252826 z"
     id="path5160"
     inkscape:connector-curvature="0"
     style="fill:url(#i);stroke-width:0.72334075" />
  <path
     d="M 4.2560627,33.573574 C 6.4195748,46.357898 18.006047,56.118658 31.159998,56.491178 43.333822,56.835489 51.111182,49.76845 54.324261,42.874289 A 25.38926,25.38926 0 0 0 55.19661,23.953142 v -0.02676 c 0,-0.02098 -0.0043,-0.03327 0,-0.02676 l 0.0051,0.04702 c 0.994594,6.49343 -2.30818,12.784324 -7.471386,17.038291 l -0.01591,0.03617 c -10.060223,8.193281 -19.687888,4.943311 -21.636568,3.616704 q -0.203982,-0.09765 -0.407964,-0.203259 c -5.86561,-2.803682 -8.288802,-8.147723 -7.769443,-12.73081 a 7.1994103,7.1994103 0 0 1 -6.640991,-4.177292 10.573795,10.573795 0 0 1 10.306882,-0.413751 13.960476,13.960476 0 0 0 10.526054,0.413751 c -0.01085,-0.227853 -4.889783,-2.170023 -6.79217,-4.043475 -1.016293,-1.001827 -1.498762,-1.484295 -1.926256,-1.846689 A 8.381349,8.381349 0 0 0 22.650617,21.08799 c -0.166368,-0.113565 -0.353713,-0.236533 -0.578672,-0.384094 -2.044884,-1.3295 -6.111506,-1.256443 -6.246047,-1.252826 h -0.01302 c -1.111052,-1.408345 -1.032931,-6.052192 -0.969277,-7.022192 a 5.0113046,5.0113046 0 0 0 -0.936003,0.496935 20.416292,20.416292 0 0 0 -2.740015,2.347241 24.481467,24.481467 0 0 0 -2.6315132,3.137128 v 0.0043 -0.0051 a 23.677112,23.677112 0 0 0 -3.7613718,8.49419 c -0.013743,0.05714 -1.0097836,4.411655 -0.5186353,6.669925 z"
     id="path5162"
     inkscape:connector-curvature="0"
     style="fill:url(#j);stroke-width:0.72334075" />
  <path
     d="M 32.083704,27.519212 H 32.08298 Z"
     id="path5164"
     inkscape:connector-curvature="0"
     style="fill:#ff4aa2;stroke-width:0.72334075" />
  <path
     d="m 41.921138,22.510801 a 15.262489,15.262489 0 0 1 2.604026,3.399701 c 0.154072,0.116458 0.298017,0.232193 0.420261,0.344311 6.355995,5.859059 3.025735,14.141311 2.777629,14.730833 C 52.88626,36.73168 56.18614,30.440785 55.19444,23.947356 52.023314,16.041241 46.648169,12.854926 42.258214,5.9166409 42.036149,5.5658207 41.814083,5.2142771 41.597804,4.8432033 41.474113,4.6312645 41.375015,4.4403025 41.288938,4.2645307 a 5.1017222,5.1017222 0 0 1 -0.418091,-1.110328 0.07233407,0.07233407 0 0 0 -0.06365,-0.072334 0.09982102,0.09982102 0 0 0 -0.0528,0 c -0.0036,0 -0.0094,0.00651 -0.01374,0.00796 -0.0043,0.00145 -0.01374,0.00796 -0.02025,0.01085 -1.084288,0.5142952 -7.514063,10.6953163 1.200746,19.4101253 z"
     id="path5166"
     inkscape:connector-curvature="0"
     style="fill:url(#k);stroke-width:0.72334075" />
  <path
     d="m 44.941085,26.251196 c -0.122244,-0.112118 -0.266189,-0.227853 -0.420261,-0.34431 -0.05714,-0.04268 -0.113564,-0.08535 -0.174325,-0.128032 a 9.678299,9.678299 0 0 0 -6.759619,-1.64126 c 10.08337,5.041685 7.378075,22.403309 -6.596144,21.747963 a 12.466777,12.466777 0 0 1 -3.647807,-0.703811 q -0.411581,-0.154072 -0.823162,-0.337077 c -0.158412,-0.07233 -0.316823,-0.144668 -0.473065,-0.225682 l 0.01953,0.0123 c 1.94868,1.330223 11.573452,4.580193 21.636568,-3.616704 l 0.01591,-0.03617 c 0.250999,-0.585906 3.58126,-8.870327 -2.777629,-14.727217 z"
     id="path5168"
     inkscape:connector-curvature="0"
     style="fill:url(#l);stroke-width:0.72334075" />
  <path
     d="m 19.446218,35.444133 c 0,0 1.294056,-4.822513 9.265995,-4.822513 0.861498,0 3.327367,-2.405107 3.371491,-3.102408 a 13.960476,13.960476 0 0 1 -10.526054,-0.413751 10.573795,10.573795 0 0 0 -10.306882,0.413751 7.1994103,7.1994103 0 0 0 6.640991,4.177293 c -0.519359,4.58381 1.903832,9.927851 7.769402,12.730797 0.130925,0.06293 0.253893,0.130924 0.388434,0.190962 -3.423571,-1.768568 -6.250387,-5.113296 -6.603377,-9.174131 z"
     id="path5170"
     inkscape:connector-curvature="0"
     style="fill:url(#m);stroke-width:0.72334075" />
  <path
     d="m 38.834643,30.89432 -7.24e-4,7.23e-4 z"
     id="path5172"
     inkscape:connector-curvature="0"
     style="fill:#ff4aa2;stroke-width:0.72334075" />
  <path
     d="m 57.972792,22.483314 c -1.218106,-2.930977 -3.689038,-6.095592 -5.623974,-7.095973 a 29.126038,29.126038 0 0 1 2.839112,8.509381 l 0.0051,0.04702 C 52.023314,16.041241 46.648169,12.854926 42.258214,5.9166409 42.036149,5.5658207 41.814083,5.2142771 41.597804,4.8432033 41.474113,4.6312645 41.375015,4.4403025 41.288938,4.2645307 a 5.1017222,5.1017222 0 0 1 -0.418091,-1.110328 0.07233407,0.07233407 0 0 0 -0.06365,-0.072334 0.09982102,0.09982102 0 0 0 -0.0528,0 c -0.0036,0 -0.0094,0.00651 -0.01374,0.00796 -0.0043,0.00145 -0.01374,0.00796 -0.02025,0.01085 l 0.01085,-0.018807 C 33.68952,7.2049107 31.300326,14.837602 31.08043,18.655395 c 0.32695,-0.02242 0.651007,-0.04991 0.98519,-0.04991 a 14.148545,14.148545 0 0 1 12.283773,7.17337 9.678299,9.678299 0 0 0 -6.75962,-1.64126 c 10.08337,5.041685 7.378076,22.403309 -6.596144,21.747963 A 12.466777,12.466777 0 0 1 27.345822,45.181746 Q 26.934241,45.027674 26.52266,44.844669 c -0.158411,-0.07233 -0.316823,-0.144668 -0.473065,-0.225682 l 0.01953,0.0123 q -0.203982,-0.09765 -0.407965,-0.203259 c 0.130925,0.06293 0.253893,0.130925 0.388434,0.190962 -3.423571,-1.769291 -6.250387,-5.114019 -6.603377,-9.174854 0,0 1.294056,-4.822513 9.265995,-4.822513 0.861498,0 3.327367,-2.405107 3.371491,-3.102408 -0.01085,-0.227852 -4.889784,-2.170022 -6.79217,-4.043475 -1.016293,-1.001826 -1.498762,-1.484295 -1.926256,-1.846688 a 8.381349,8.381349 0 0 0 -0.723341,-0.548293 12.996986,12.996986 0 0 1 -0.07884,-6.852206 20.763496,20.763496 0 0 0 -6.748046,5.215286 H 15.80203 C 14.690979,18.035495 14.7691,13.391647 14.832754,12.421647 a 5.0113046,5.0113046 0 0 0 -0.936003,0.496935 20.416292,20.416292 0 0 0 -2.740015,2.347241 24.481467,24.481467 0 0 0 -2.6206632,3.144362 v 0.0043 -0.0051 A 23.677112,23.677112 0 0 0 4.774701,26.903575 L 4.737087,27.08875 c -0.052804,0.24666 -0.2893363,1.499486 -0.3233333,1.768568 0,0.02025 0,-0.02098 0,0 a 32.618327,32.618327 0 0 0 -0.4137539,3.908284 v 0.144669 a 28.035963,28.035963 0 0 0 55.6639622,4.740775 c 0.04702,-0.361671 0.08535,-0.719724 0.127308,-1.085011 A 28.830191,28.830191 0 0 0 57.972792,22.483314 Z m -2.781245,1.440171 0.0051,0.02966 z"
     id="path5174"
     inkscape:connector-curvature="0"
     style="fill:url(#n);stroke-width:0.72334075" />
</svg>
