<?xml version="1.0" encoding="UTF-8" standalone="no"?>
<svg
   xmlns:dc="http://purl.org/dc/elements/1.1/"
   xmlns:cc="http://creativecommons.org/ns#"
   xmlns:rdf="http://www.w3.org/1999/02/22-rdf-syntax-ns#"
   xmlns:svg="http://www.w3.org/2000/svg"
   xmlns="http://www.w3.org/2000/svg"
   xmlns:xlink="http://www.w3.org/1999/xlink"
   xmlns:sodipodi="http://sodipodi.sourceforge.net/DTD/sodipodi-0.dtd"
   xmlns:inkscape="http://www.inkscape.org/namespaces/inkscape"
   width="64"
   height="64"
   version="1.1"
   viewBox="0 0 48 48"
   id="svg26"
   sodipodi:docname="gnome-contacts.svg"
   inkscape:version="0.92.4 5da689c313, 2019-01-14">
  <metadata
     id="metadata30">
    <rdf:RDF>
      <cc:Work
         rdf:about="">
        <dc:format>image/svg+xml</dc:format>
        <dc:type
           rdf:resource="http://purl.org/dc/dcmitype/StillImage" />
        <dc:title />
      </cc:Work>
    </rdf:RDF>
  </metadata>
  <sodipodi:namedview
     pagecolor="#ffffff"
     bordercolor="#666666"
     borderopacity="1"
     objecttolerance="10"
     gridtolerance="10"
     guidetolerance="10"
     inkscape:pageopacity="0"
     inkscape:pageshadow="2"
     inkscape:window-width="1366"
     inkscape:window-height="712"
     id="namedview28"
     showgrid="false"
     inkscape:zoom="8.484375"
     inkscape:cx="32"
     inkscape:cy="32"
     inkscape:window-x="0"
     inkscape:window-y="25"
     inkscape:window-maximized="1"
     inkscape:current-layer="svg26" />
  <defs
     id="defs10">
    <linearGradient
       inkscape:collect="always"
       id="linearGradient829">
      <stop
         style="stop-color:#0066cc;stop-opacity:1;"
         offset="0"
         id="stop825" />
      <stop
         style="stop-color:#0099ff;stop-opacity:1"
         offset="1"
         id="stop827" />
    </linearGradient>
    <clipPath
       id="clipPath4">
      <rect
         width="384"
         height="384"
         id="rect2"
         x="0"
         y="0" />
    </clipPath>
    <clipPath
       id="clipPath8">
      <rect
         width="384"
         height="384"
         id="rect6"
         x="0"
         y="0" />
    </clipPath>
    <linearGradient
       inkscape:collect="always"
       xlink:href="#linearGradient829"
       id="linearGradient831"
       x1="23.758291"
       y1="40.747311"
       x2="25.647699"
       y2="2.4176376"
       gradientUnits="userSpaceOnUse" />
    <filter
       inkscape:collect="always"
       style="color-interpolation-filters:sRGB"
       id="filter876"
       x="-0.047303332"
       width="1.0946067"
       y="-0.048717495"
       height="1.097435">
      <feGaussianBlur
         inkscape:collect="always"
         stdDeviation="0.35885774"
         id="feGaussianBlur878" />
    </filter>
  </defs>
  <path
     d="M 7.3174246,6.428459 H 40.683015 c 0.727343,0 1.316854,0.5615889 1.316854,1.2542506 V 43.745375 C 41.999869,44.438474 41.410342,45 40.683015,45 H 7.3174246 C 6.5900846,45 6.0000485,44.438412 6.0000485,43.745375 V 7.6827096 c 0,-0.6926122 0.5900361,-1.2542506 1.3173761,-1.2542506 z"
     id="path12"
     style="fill:#0066cc;stroke-width:0.11841812"
     inkscape:connector-curvature="0" />
  <path
     d="M 7.3169027,3 H 40.682494 c 0.72734,0 1.316854,0.5615884 1.316854,1.2546246 V 40.31729 c 0,0.692612 -0.589526,1.25425 -1.316854,1.25425 H 7.3169027 c -0.7273401,0 -1.3168542,-0.561588 -1.3168542,-1.25425 V 4.2546246 C 6.0000485,3.5615256 6.5895758,3 7.3169027,3 Z"
     id="path14"
     style="fill:url(#linearGradient831);fill-opacity:1;stroke-width:0.11841812"
     inkscape:connector-curvature="0" />
  <path
     d="M 7.6545802,3 C 6.7381693,3 6.0000485,3.5596441 6.0000485,4.2546246 V 43.746247 c 0,0.68628 0.7195363,1.239102 1.6199248,1.253253 H 13.380134 V 3.0003744 Z"
     id="path16"
     style="fill:#000000;fill-opacity:0.19607843;stroke-width:0.13273548"
     inkscape:connector-curvature="0" />
  <path
     d="m 41.999085,40.31729 c 0,0.695044 -0.587489,1.25425 -1.316852,1.25425 H 7.3166412 c -0.1551666,0 -0.3036945,-0.0263 -0.442018,-0.07306 v 2.57122 c 0.1383235,0.04676 0.2868514,0.07354 0.442018,0.07354 H 40.682233 c 0.729887,0 1.317377,-0.559643 1.317377,-1.254624 z"
     id="path18"
     inkscape:connector-curvature="0"
     style="fill:#ffffff;stroke-width:0.11841812" />
  <path
     d="m 6.0000495,39.382119 v 0.935171 c 0,0.0059 8.571e-4,0.01163 9.429e-4,0.01753 l -7.622e-4,2.475677 0.8746564,1.259205 -7.016e-4,-2.572279 c 0.1385426,0.04717 0.2871482,0.07416 0.4427237,0.07416 H 40.682805 c 0.727344,0 1.316915,-0.561646 1.316915,-1.25425 v -0.93517 c 0,0.692605 -0.589524,1.254249 -1.316915,1.254249 H 7.3169188 C 6.5895758,40.636412 6,40.074767 6,39.382163 Z m 1.787e-4,3.428334 v 0.935171 c 0,0.692607 0.5895253,1.254249 1.3169178,1.254249 H 40.683082 C 41.410424,44.999873 42,44.438221 42,43.745624 v -0.935171 c 0,0.692606 -0.589527,1.340662 -1.316918,1.340662 H 7.3171641 c -0.1508316,0 -0.3072592,-0.03112 -0.4422139,-0.08147 z"
     id="path22"
     style="opacity:0.3;fill:#000000;fill-opacity:1;stroke-width:0.11841517"
     inkscape:connector-curvature="0" />
  <path
     d="m 7.3169673,3.000062 c -0.7273431,0 -1.3169188,0.5615324 -1.3169188,1.2546246 v 0.9351707 c 0,-0.6931007 0.5895273,-1.2546254 1.3169188,-1.2546254 H 40.682888 c 0.72734,0 1.316915,0.5615341 1.316915,1.2546254 V 4.2546874 c 0,-0.6931024 -0.589525,-1.2546254 -1.316915,-1.2546254 z"
     id="path24"
     inkscape:connector-curvature="0"
     style="opacity:0.4;fill:#ffffff;stroke-width:0.11841517" />
  <path
     d="m 28.662693,25.448491 c -0.12042,-0.03619 -0.881085,-0.352461 -0.405711,-1.684842 h -0.0073 c 1.239065,-1.176723 2.185992,-3.070238 2.185992,-4.934407 6e-6,-2.866464 -2.067179,-4.369131 -4.469709,-4.369131 -2.404032,0 -4.459866,1.50196 -4.459866,4.369131 0,1.871864 0.941623,3.77304 2.188314,4.946985 0.485929,1.175326 -0.383023,1.611551 -0.564685,1.672264 -1.69385,0.505071 -6.301784,3.023148 -6.228881,6.69025 h 18.204952 c 0.08131,-3.503129 -3.56353,-5.777949 -6.443463,-6.69025 z"
     id="path34-5"
     style="fill:#000000;fill-opacity:1;stroke-width:0.07803718;filter:url(#filter876);opacity:0.5"
     inkscape:connector-curvature="0" />
  <path
     d="m 28.669993,24.426147 c -0.12042,-0.03619 -0.881085,-0.352461 -0.405711,-1.684841 h -0.0073 c 1.239065,-1.176723 2.185992,-3.070239 2.185992,-4.934408 6e-6,-2.866464 -2.067179,-4.369131 -4.469708,-4.369131 -2.404033,0 -4.459867,1.50196 -4.459867,4.369131 0,1.871864 0.941623,3.77304 2.188314,4.946985 0.485929,1.175326 -0.383023,1.611551 -0.564685,1.672264 -1.69385,0.505071 -6.301784,3.023148 -6.228881,6.690251 h 18.204952 c 0.08131,-3.50313 -3.56353,-5.77795 -6.443463,-6.690251 z"
     id="path34"
     style="fill:#ffffff;fill-opacity:1;stroke-width:0.07803718"
     inkscape:connector-curvature="0" />
</svg>
