<?xml version="1.0" encoding="UTF-8" standalone="no"?>
<svg
   xmlns:dc="http://purl.org/dc/elements/1.1/"
   xmlns:cc="http://creativecommons.org/ns#"
   xmlns:rdf="http://www.w3.org/1999/02/22-rdf-syntax-ns#"
   xmlns:svg="http://www.w3.org/2000/svg"
   xmlns="http://www.w3.org/2000/svg"
   xmlns:xlink="http://www.w3.org/1999/xlink"
   xmlns:sodipodi="http://sodipodi.sourceforge.net/DTD/sodipodi-0.dtd"
   xmlns:inkscape="http://www.inkscape.org/namespaces/inkscape"
   width="64"
   height="64"
   version="1"
   id="svg12"
   sodipodi:docname="inkscape.svg"
   inkscape:version="0.92.4 5da689c313, 2019-01-14">
  <metadata
     id="metadata18">
    <rdf:RDF>
      <cc:Work
         rdf:about="">
        <dc:format>image/svg+xml</dc:format>
        <dc:type
           rdf:resource="http://purl.org/dc/dcmitype/StillImage" />
      </cc:Work>
    </rdf:RDF>
  </metadata>
  <defs
     id="defs16">
    <linearGradient
       inkscape:collect="always"
       id="linearGradient864">
      <stop
         style="stop-color:#000000;stop-opacity:1;"
         offset="0"
         id="stop860" />
      <stop
         style="stop-color:#000000;stop-opacity:0;"
         offset="1"
         id="stop862" />
    </linearGradient>
    <linearGradient
       inkscape:collect="always"
       id="linearGradient832">
      <stop
         style="stop-color:#3b3b3b;stop-opacity:1"
         offset="0"
         id="stop828" />
      <stop
         style="stop-color:#4f4f4f;stop-opacity:1"
         offset="1"
         id="stop830" />
    </linearGradient>
    <linearGradient
       inkscape:collect="always"
       xlink:href="#linearGradient832"
       id="linearGradient834"
       x1="33.372715"
       y1="59.660995"
       x2="31.996094"
       y2="4.0000463"
       gradientUnits="userSpaceOnUse" />
    <linearGradient
       inkscape:collect="always"
       xlink:href="#linearGradient864"
       id="linearGradient866"
       x1="33.237309"
       y1="60.338982"
       x2="33.203365"
       y2="37.966103"
       gradientUnits="userSpaceOnUse" />
  </defs>
  <sodipodi:namedview
     pagecolor="#ffffff"
     bordercolor="#666666"
     borderopacity="1"
     objecttolerance="10"
     gridtolerance="10"
     guidetolerance="10"
     inkscape:pageopacity="0"
     inkscape:pageshadow="2"
     inkscape:window-width="1366"
     inkscape:window-height="709"
     id="namedview14"
     showgrid="false"
     inkscape:zoom="7.375"
     inkscape:cx="28.843265"
     inkscape:cy="28.500511"
     inkscape:window-x="0"
     inkscape:window-y="25"
     inkscape:window-maximized="1"
     inkscape:current-layer="svg12" />
  <path
     style="fill:url(#linearGradient834);fill-rule:evenodd;fill-opacity:1"
     d="M 31.996094 3 C 30.343263 3.0006742 28.735461 3.6213005 27.46875 4.9316406 L 4.9257812 28.212891 C 3.6836525 29.497923 3.0247184 31.19209 3 32.869141 C 2.9996284 32.894651 3 32.956502 3 32.984375 C 2.9997661 37.973876 15.606787 33.128165 16.808594 39.228516 C 17.458892 42.530077 10.005859 41.018011 10.005859 44.339844 C 10.005859 48.236461 22.110391 45.057799 24.720703 48.767578 C 26.71883 51.607319 19.641242 51.73059 21.226562 54.449219 C 22.586472 56.781299 27.450711 55.287565 28.261719 58.421875 C 29.188075 62.00214 35.152006 61.602424 38.521484 58.763672 C 40.586997 57.023498 35.777376 55.933739 37.654297 53.992188 C 39.531093 52.050499 48.470248 52.415445 47.970703 48.201172 C 47.640098 45.412115 44.180393 45.105496 44.126953 41.955078 C 43.940335 39.287048 47.423325 40.06536 57.035156 37.410156 C 60.878506 35.60444 61.014638 34.645407 61 32.982422 C 60.999696 32.949462 61 32.904311 61 32.869141 C 60.97811 31.192227 60.20294 29.497881 58.960938 28.212891 L 36.527344 4.9316406 C 35.260359 3.6211629 33.652003 3.0006743 32 3 L 31.996094 3 z M 58.417969 43.003906 C 57.9728 42.988506 57.523783 43.02789 57.207031 43.125 C 56.609973 43.313774 53.780566 43.422316 54.013672 45.78125 C 56.576221 46.960167 60.483544 47.897718 60.949219 45.539062 C 61.298835 43.770308 59.753676 43.058044 58.417969 43.003906 z M 12.972656 50.021484 C 12.722972 50.054054 12.550665 50.167213 12.306641 50.273438 C 10.355289 51.122417 9.0480265 52.909123 10.871094 53.689453 C 12.69443 54.469598 13.913419 53.645192 15.511719 52.677734 C 17.11029 51.70981 17.06679 51.533536 16.951172 51.160156 C 16.729585 51.210826 15.276479 50.175383 13.746094 50.021484 C 13.491073 49.997074 13.222273 49.988914 12.972656 50.021484 z"
     id="path4" />
  <path
     style="opacity:0.2;fill-rule:evenodd"
     d="m 32.103732,11.005186 c 1.700921,0.01447 6.36164,5.782192 10.519968,10.101677 1.169668,1.569454 -0.452428,3.177989 -0.452428,3.177989 l -8.709675,-4.767052 -3.845957,5.221386 -3.393003,-5.106767 -2.036907,7.944627 -5.994721,-3.631908 1.583954,-2.043812 9.387724,-9.646929 c 0.720099,-0.73406 1.271527,-1.261515 2.941018,-1.24852 z"
     id="path6" />
  <path
     style="fill:#ffffff;fill-rule:evenodd"
     d="m 32.103732,10.00514 c 1.700921,0.01447 6.36164,5.782192 10.519968,10.101677 1.169668,1.569454 -0.452428,3.177989 -0.452428,3.177989 L 33.461597,18.517754 29.61564,23.73914 26.222637,18.632373 24.18573,26.577 18.191009,22.945092 19.774963,20.90128 29.162687,11.254351 c 0.720099,-0.73406 1.271527,-1.261515 2.941018,-1.24852 z"
     id="path8" />
  <path
     style="fill:#ffffff;fill-rule:evenodd;opacity:0.4"
     d="M 31.996094 3 C 30.343263 3.0006742 28.735461 3.6213005 27.46875 4.9316406 L 4.9257812 28.212891 C 3.6836525 29.497923 3.0247184 31.19209 3 32.869141 C 2.9996284 32.894651 3 32.956502 3 32.984375 C 2.9999938 33.117416 3.0137845 33.239925 3.03125 33.359375 C 3.1684842 31.853049 3.8094986 30.36773 4.9257812 29.212891 L 27.46875 5.9316406 C 28.735461 4.6213005 30.343263 4.0006742 31.996094 4 L 32 4 C 33.652003 4.0006743 35.260359 4.6211629 36.527344 5.9316406 L 58.960938 29.212891 C 60.146528 30.439517 60.898724 32.039204 60.984375 33.640625 C 60.997936 33.431433 61.002046 33.214891 61 32.982422 C 60.999696 32.949462 61 32.904311 61 32.869141 C 60.97811 31.192227 60.20294 29.497881 58.960938 28.212891 L 36.527344 4.9316406 C 35.260359 3.6211629 33.652003 3.0006743 32 3 L 31.996094 3 z M 16.761719 40.056641 C 16.052265 42.268761 10.005859 41.343005 10.005859 44.339844 C 10.005859 44.512428 10.038371 44.666461 10.083984 44.8125 C 10.849014 42.180894 17.421179 43.33861 16.808594 40.228516 C 16.796646 40.167868 16.775898 40.115145 16.761719 40.056641 z M 44.164062 42.378906 C 44.129788 42.553339 44.111849 42.739143 44.126953 42.955078 C 44.179204 46.035421 47.479351 46.403773 47.935547 49.025391 C 47.988552 48.771108 48.005968 48.498673 47.970703 48.201172 C 47.655776 45.544377 44.508711 45.134409 44.164062 42.378906 z M 58.417969 43.003906 C 57.9728 42.988506 57.523783 43.02789 57.207031 43.125 C 56.609973 43.313774 53.780566 43.422316 54.013672 45.78125 C 54.04707 45.796615 54.085296 45.810896 54.119141 45.826172 C 54.627686 44.391693 56.704549 44.283872 57.207031 44.125 C 57.523783 44.027886 57.9728 43.988506 58.417969 44.003906 C 59.483159 44.04708 60.665277 44.519265 60.929688 45.601562 C 60.934823 45.579396 60.944721 45.561842 60.949219 45.539062 C 61.298835 43.770308 59.753676 43.058044 58.417969 43.003906 z M 12.972656 50.021484 C 12.722972 50.054054 12.550665 50.167212 12.306641 50.273438 C 10.745918 50.952465 9.6032611 52.22921 10.138672 53.113281 C 10.444974 52.429219 11.277748 51.72108 12.306641 51.273438 C 12.550665 51.167213 12.722972 51.054054 12.972656 51.021484 C 13.222273 50.988914 13.491073 50.997074 13.746094 51.021484 C 14.868457 51.134352 15.9395 51.716953 16.523438 52.001953 C 17.044097 51.598644 17.031737 51.420335 16.951172 51.160156 C 16.729585 51.210826 15.276479 50.175383 13.746094 50.021484 C 13.491073 49.997074 13.222273 49.988914 12.972656 50.021484 z M 24.955078 50.197266 C 24.23172 51.69409 20.336651 52.242194 21.119141 54.191406 C 21.868969 52.700965 25.778766 52.157433 24.955078 50.197266 z M 37.345703 55.423828 C 36.765235 56.56097 38.370972 57.41312 38.888672 58.341797 C 39.538595 57.28612 37.838153 56.444847 37.345703 55.423828 z"
     id="path10" />
  <path
     inkscape:connector-curvature="0"
     style="fill:none;fill-opacity:1;fill-rule:evenodd;stroke:url(#linearGradient866);stroke-width:0.98299998;stroke-miterlimit:4;stroke-dasharray:none;stroke-opacity:1;opacity:0.4"
     d="m 31.99595,3.4915221 c -1.624791,6.62e-4 -3.205318,0.61077 -4.45054,1.898901 L 5.3848646,28.277098 c -1.221057,1.263252 -1.868814,2.928706 -1.893112,4.577334 -3.66e-4,0.02508 0,0.08588 0,0.113281 -2.3e-4,4.904938 12.3929234,0.141353 13.5743424,6.138314 0.639266,3.245605 -6.687332,1.759166 -6.687332,5.0247 0,3.830576 11.899189,0.705787 14.465218,4.352691 1.964231,2.791613 -4.993292,2.912795 -3.434865,5.585347 1.33684,2.292556 6.11856,0.824138 6.91581,3.905327 0.910642,3.519586 6.773399,3.126644 10.085717,0.336004 2.030473,-1.710681 -2.697557,-2.781971 -0.852477,-4.690616 1.844958,-1.90878 10.632468,-1.550019 10.141397,-5.692868 -0.324996,-2.741787 -3.72601,-3.04321 -3.778544,-6.140234 -0.183452,-2.622811 3.240451,-1.85769 12.689225,-4.467893 3.778152,-1.775112 3.911973,-2.717891 3.897584,-4.352692 -2.99e-4,-0.0324 0,-0.07679 0,-0.111361 -0.02152,-1.648493 -0.783539,-3.314123 -2.00447,-4.577334 L 36.450332,5.3904231 C 35.20484,4.1021571 33.623768,3.4921841 31.999791,3.4915221 Z M 57.9696,42.817431 c -0.437618,-0.01514 -0.879017,0.02357 -1.190397,0.119041 -0.586928,0.185575 -3.368337,0.292277 -3.139185,2.611232 2.519077,1.158936 6.360115,2.080597 6.817891,-0.238084 0.343685,-1.738777 -1.175262,-2.438969 -2.488309,-2.492189 z m -44.67437,6.898642 c -0.245448,0.03201 -0.414832,0.143259 -0.654715,0.247684 -1.918249,0.83459 -3.2033354,2.591015 -1.411195,3.35812 1.792405,0.766922 2.990714,-0.04351 4.561901,-0.994573 1.571452,-0.951519 1.52869,-1.124806 1.415033,-1.491858 -0.217828,0.04981 -1.646283,-0.968082 -3.150706,-1.119373 -0.250695,-0.02399 -0.514935,-0.03201 -0.760318,0 z"
     id="path4-7" />
</svg>
