<?xml version="1.0" encoding="UTF-8" standalone="no"?>
<svg
   xmlns:dc="http://purl.org/dc/elements/1.1/"
   xmlns:cc="http://creativecommons.org/ns#"
   xmlns:rdf="http://www.w3.org/1999/02/22-rdf-syntax-ns#"
   xmlns:svg="http://www.w3.org/2000/svg"
   xmlns="http://www.w3.org/2000/svg"
   xmlns:xlink="http://www.w3.org/1999/xlink"
   xmlns:sodipodi="http://sodipodi.sourceforge.net/DTD/sodipodi-0.dtd"
   xmlns:inkscape="http://www.inkscape.org/namespaces/inkscape"
   width="64"
   height="64"
   version="1.1"
   viewBox="0 0 48 48"
   id="svg46"
   sodipodi:docname="internet-mail.svg"
   inkscape:version="0.92.4 5da689c313, 2019-01-14">
  <metadata
     id="metadata52">
    <rdf:RDF>
      <cc:Work
         rdf:about="">
        <dc:format>image/svg+xml</dc:format>
        <dc:type
           rdf:resource="http://purl.org/dc/dcmitype/StillImage" />
        <dc:title />
      </cc:Work>
    </rdf:RDF>
  </metadata>
  <defs
     id="defs50">
    <linearGradient
       inkscape:collect="always"
       id="linearGradient860">
      <stop
         style="stop-color:#ffb401;stop-opacity:1"
         offset="0"
         id="stop856" />
      <stop
         style="stop-color:#fff000;stop-opacity:1"
         offset="1"
         id="stop858" />
    </linearGradient>
    <linearGradient
       inkscape:collect="always"
       xlink:href="#linearGradient860"
       id="linearGradient862"
       x1="40.861511"
       y1="335.50354"
       x2="159.60968"
       y2="108.41605"
       gradientUnits="userSpaceOnUse"
       gradientTransform="matrix(0.12539983,0,0,0.124443,-8.9112139,328.89924)" />
    <filter
       inkscape:collect="always"
       style="color-interpolation-filters:sRGB"
       id="filter1136"
       x="-0.032304514"
       width="1.064609"
       y="-0.09335987"
       height="1.1867197">
      <feGaussianBlur
         inkscape:collect="always"
         stdDeviation="0.55782328"
         id="feGaussianBlur1138" />
    </filter>
  </defs>
  <sodipodi:namedview
     pagecolor="#ffffff"
     bordercolor="#666666"
     borderopacity="1"
     objecttolerance="10"
     gridtolerance="10"
     guidetolerance="10"
     inkscape:pageopacity="0"
     inkscape:pageshadow="2"
     inkscape:window-width="1366"
     inkscape:window-height="691"
     id="namedview48"
     showgrid="false"
     inkscape:zoom="8.09375"
     inkscape:cx="32"
     inkscape:cy="32"
     inkscape:window-x="0"
     inkscape:window-y="0"
     inkscape:window-maximized="1"
     inkscape:current-layer="g44"
     showguides="true"
     inkscape:guide-bbox="true">
    <sodipodi:guide
       position="10.642556,35.66695"
       orientation="1,0"
       id="guide1181"
       inkscape:locked="false" />
  </sodipodi:namedview>
  <g
     transform="translate(9.9848,-327.7681)"
     id="g44">
    <path
       d="M -6.9848097,371.25955 V 372.14 c 0,0.46866 0.1137821,0.82439 0.3298906,1.05003 0.2568399,0.2724 0.6308601,0.40307 1.1366657,0.40307 l 38.8273714,-4.8e-4 c 0.395958,0 0.71456,-0.0798 0.956568,-0.24334 l 7.13e-4,4.9e-4 c 0.337352,-0.22883 0.509511,-0.63193 0.509511,-1.20974 v -0.88027 c -3.5e-5,0.57774 -0.172196,0.98082 -0.509511,1.20956 l -7.13e-4,-4.9e-4 c -0.241973,0.16356 -0.560571,0.24332 -0.956568,0.24332 l -38.8273714,4.9e-4 c -0.5058056,0 -0.8798258,-0.13069 -1.1366657,-0.40308 -0.2161136,-0.22562 -0.3298906,-0.58135 -0.3298906,-1.05003 z"
       id="path42"
       inkscape:connector-curvature="0"
       style="opacity:0.2;stroke-width:0.1135402" />
    <path
       style="fill:#996600;fill-opacity:1;stroke:none;stroke-width:0.09027176px;stroke-linecap:butt;stroke-linejoin:miter;stroke-opacity:1"
       d="M -6.9361038,344.72007 13.926184,330.7681 34.763036,344.71966 13.431271,359.0596 Z"
       id="path1151"
       inkscape:connector-curvature="0"
       sodipodi:nodetypes="ccccc" />
    <path
       d="m 30.110852,337.08449 c 0,-0.94274 -0.460379,-1.41395 -1.381624,-1.41395 H -0.69922272 c -0.92207298,0 -1.38162508,0.47027 -1.38162508,1.41395 v 26.93159 c 0,2.56639 0.4595161,3.84958 1.38162508,3.84958 H 28.729228 c 0.922072,0 1.381624,-1.28319 1.381624,-3.84958 z"
       id="path8"
       inkscape:connector-curvature="0"
       style="opacity:1;fill:#ffffff;stroke:#000000;stroke-width:0.80483526;stroke-miterlimit:4;stroke-dasharray:none;stroke-opacity:0.19607843" />
    <path
       style="opacity:0.4;fill:none;stroke:#000000;stroke-width:0.75px;stroke-linecap:butt;stroke-linejoin:miter;stroke-opacity:1;filter:url(#filter1136)"
       d="M -6.3541818,345.04763 13.431407,359.42484 34.308989,345.70723"
       id="path1098"
       inkscape:connector-curvature="0"
       transform="matrix(0.94514265,0,0,0.92437304,0.71630322,26.603191)"
       sodipodi:nodetypes="ccc" />
    <g
       id="g1291"
       style="opacity:0.4"
       transform="matrix(0.99989372,0,0,1,0.00129172,0)">
      <path
         sodipodi:nodetypes="cc"
         inkscape:connector-curvature="0"
         id="path1146-7-9-3"
         d="M 0.657756,355.6741 27.218999,355.632"
         style="fill:none;stroke:#000000;stroke-width:0.75px;stroke-linecap:butt;stroke-linejoin:miter;stroke-opacity:1" />
      <path
         inkscape:connector-curvature="0"
         id="path1146"
         d="m 0.65775625,340.10115 5.53700625,-0.0719"
         style="fill:none;stroke:#000000;stroke-width:0.75px;stroke-linecap:butt;stroke-linejoin:miter;stroke-opacity:1" />
      <path
         sodipodi:nodetypes="cc"
         inkscape:connector-curvature="0"
         id="path1146-6"
         d="m 0.657756,341.74951 3.0454806,-0.0719"
         style="fill:none;stroke:#000000;stroke-width:0.75px;stroke-linecap:butt;stroke-linejoin:miter;stroke-opacity:1" />
      <path
         sodipodi:nodetypes="cc"
         inkscape:connector-curvature="0"
         id="path1146-7"
         d="M 0.657756,346.16567 27.219,346.12359"
         style="fill:none;stroke:#000000;stroke-width:0.75px;stroke-linecap:butt;stroke-linejoin:miter;stroke-opacity:1" />
      <path
         sodipodi:nodetypes="cc"
         inkscape:connector-curvature="0"
         id="path1146-7-1"
         d="M 0.657756,348.4546 27.219,348.4125"
         style="fill:none;stroke:#000000;stroke-width:0.75px;stroke-linecap:butt;stroke-linejoin:miter;stroke-opacity:1" />
      <path
         sodipodi:nodetypes="cc"
         inkscape:connector-curvature="0"
         id="path1146-7-4"
         d="M 0.657756,350.7241 27.219,350.682"
         style="fill:none;stroke:#000000;stroke-width:0.75px;stroke-linecap:butt;stroke-linejoin:miter;stroke-opacity:1" />
      <path
         sodipodi:nodetypes="cc"
         inkscape:connector-curvature="0"
         id="path1146-7-9"
         d="M 0.657756,353.29285 27.219,353.25075"
         style="fill:none;stroke:#000000;stroke-width:0.75px;stroke-linecap:butt;stroke-linejoin:miter;stroke-opacity:1" />
    </g>
    <path
       inkscape:connector-curvature="0"
       style="fill:#f4ac00;fill-opacity:1;stroke-width:0.1141175"
       id="path36"
       d="m 34.979129,344.71966 v -0.0656 l -21.547856,14.40553 21.034841,13.46474 c 0.340274,-0.22883 0.513927,-0.63191 0.513927,-1.20975 z" />
    <path
       style="opacity:0.38999999;fill:none;stroke:#ffffff;stroke-width:0.90271765;stroke-linecap:butt;stroke-linejoin:miter;stroke-miterlimit:4;stroke-dasharray:none;stroke-opacity:1"
       d="M 34.763035,345.23453 13.449246,359.59246"
       id="path1149"
       inkscape:connector-curvature="0"
       sodipodi:nodetypes="cc" />
    <path
       inkscape:connector-curvature="0"
       id="path38"
       style="fill:url(#linearGradient862);fill-opacity:1;stroke-width:0.11204616;paint-order:markers fill stroke"
       d="m 33.298366,372.76662 c 0.395561,0 0.713938,-0.0798 0.95561,-0.2435 L -6.9361038,344.72007 v 26.59471 c 0,0.46865 0.113675,0.8245 0.3294755,1.05011 0.2564676,0.27239 0.6298332,0.40309 1.1349061,0.40309 z" />
    <path
       style="opacity:0.4;fill:none;stroke:#ffffff;stroke-width:0.90271765;stroke-linecap:butt;stroke-linejoin:miter;stroke-miterlimit:4;stroke-dasharray:none;stroke-opacity:1"
       d="M -6.6749384,345.43268 33.024547,372.22383"
       id="path836-9"
       inkscape:connector-curvature="0"
       sodipodi:nodetypes="cc" />
  </g>
</svg>
