<?xml version="1.0" encoding="UTF-8" standalone="no"?>
<svg
   xmlns:dc="http://purl.org/dc/elements/1.1/"
   xmlns:cc="http://creativecommons.org/ns#"
   xmlns:rdf="http://www.w3.org/1999/02/22-rdf-syntax-ns#"
   xmlns:svg="http://www.w3.org/2000/svg"
   xmlns="http://www.w3.org/2000/svg"
   xmlns:xlink="http://www.w3.org/1999/xlink"
   xmlns:sodipodi="http://sodipodi.sourceforge.net/DTD/sodipodi-0.dtd"
   xmlns:inkscape="http://www.inkscape.org/namespaces/inkscape"
   width="64"
   height="64"
   version="1"
   id="svg14"
   sodipodi:docname="krfb.svg"
   inkscape:version="0.92.4 5da689c313, 2019-01-14">
  <metadata
     id="metadata20">
    <rdf:RDF>
      <cc:Work
         rdf:about="">
        <dc:format>image/svg+xml</dc:format>
        <dc:type
           rdf:resource="http://purl.org/dc/dcmitype/StillImage" />
      </cc:Work>
    </rdf:RDF>
  </metadata>
  <defs
     id="defs18">
    <linearGradient
       inkscape:collect="always"
       id="linearGradient831">
      <stop
         style="stop-color:#ff2525;stop-opacity:1"
         offset="0"
         id="stop827" />
      <stop
         style="stop-color:#4545ff;stop-opacity:1"
         offset="1"
         id="stop829" />
    </linearGradient>
    <linearGradient
       inkscape:collect="always"
       xlink:href="#linearGradient831"
       id="linearGradient833"
       x1="14.546678"
       y1="56.928509"
       x2="87.421364"
       y2="1.1269988"
       gradientUnits="userSpaceOnUse" />
  </defs>
  <sodipodi:namedview
     pagecolor="#ffffff"
     bordercolor="#666666"
     borderopacity="1"
     objecttolerance="10"
     gridtolerance="10"
     guidetolerance="10"
     inkscape:pageopacity="0"
     inkscape:pageshadow="2"
     inkscape:window-width="1366"
     inkscape:window-height="714"
     id="namedview16"
     showgrid="false"
     inkscape:zoom="5.2149125"
     inkscape:cx="37.696746"
     inkscape:cy="18.161626"
     inkscape:window-x="0"
     inkscape:window-y="19"
     inkscape:window-maximized="1"
     inkscape:current-layer="svg14" />
  <rect
     style="fill:url(#linearGradient833);fill-opacity:1"
     width="56"
     height="56"
     x="4"
     y="4"
     rx="28"
     ry="28"
     id="rect4" />
  <path
     style="opacity:0.2;fill:#ffffff"
     d="M 32 4.0019531 C 16.488437 4.0019531 4 16.488437 4 32 C 4 32.113445 4.0112809 32.224116 4.0175781 32.335938 C 4.3701238 17.135523 16.711813 5.0019531 32 5.0019531 C 47.288187 5.0019531 59.629876 17.135523 59.982422 32.335938 C 59.988693 32.224116 60 32.113445 60 32 C 60 16.488437 47.511563 4.0019531 32 4.0019531 z"
     id="path6" />
  <path
     style="opacity:0.7;fill:none;stroke:#000000;stroke-width:4"
     d="m 37.999041,22.001128 -15.999549,9.999718 15.999549,9.999718"
     id="path8" />
  <path
     style="opacity:0.2;fill-rule:evenodd"
     d="m 37.999041,17.000903 a 5.9998308,5.9998308 0 0 0 -5.999831,5.999831 5.9998308,5.9998308 0 0 0 5.999831,5.99983 5.9998308,5.9998308 0 0 0 5.999831,-5.99983 5.9998308,5.9998308 0 0 0 -5.999831,-5.999831 z m -15.999549,9.999718 a 5.9998308,5.9998308 0 0 0 -5.999831,5.999831 5.9998308,5.9998308 0 0 0 5.999831,5.99983 5.9998308,5.9998308 0 0 0 5.999831,-5.99983 5.9998308,5.9998308 0 0 0 -5.999831,-5.999831 z m 15.999549,9.999718 A 5.9998308,5.9998308 0 0 0 31.99921,43.00017 5.9998308,5.9998308 0 0 0 37.999041,49 5.9998308,5.9998308 0 0 0 43.998872,43.00017 5.9998308,5.9998308 0 0 0 37.999041,37.000339 Z"
     id="path10" />
  <path
     style="fill:#ffffff;fill-rule:evenodd"
     d="m 37.999041,16.001297 a 5.9998308,5.9998308 0 0 0 -5.999831,5.999831 5.9998308,5.9998308 0 0 0 5.999831,5.999831 5.9998308,5.9998308 0 0 0 5.999831,-5.999831 5.9998308,5.9998308 0 0 0 -5.999831,-5.999831 z m -15.999549,9.999718 a 5.9998308,5.9998308 0 0 0 -5.999831,5.999831 5.9998308,5.9998308 0 0 0 5.999831,5.999831 5.9998308,5.9998308 0 0 0 5.999831,-5.999831 5.9998308,5.9998308 0 0 0 -5.999831,-5.999831 z m 15.999549,9.999718 a 5.9998308,5.9998308 0 0 0 -5.999831,5.999831 5.9998308,5.9998308 0 0 0 5.999831,5.999831 5.9998308,5.9998308 0 0 0 5.999831,-5.999831 5.9998308,5.9998308 0 0 0 -5.999831,-5.999831 z"
     id="path12" />
  <path
     style="opacity:0.2"
     d="m 4.0507982,31.000818 c -0.0118,0.33399 -0.050799,0.661981 -0.050799,0.999972 C 3.9999996,47.512352 16.487647,60 31.99921,60 47.510773,60 59.99842,47.512352 59.99842,32.00079 c 0,-0.337671 -0.03904,-0.665262 -0.05078,-0.999972 C 59.419655,46.042394 47.172,58.000056 31.998428,58.000056 16.824456,58.000056 4.5772013,46.042394 4.0492162,31.000818 Z"
     id="path2"
     inkscape:connector-curvature="0" />
</svg>
