<?xml version="1.0" encoding="UTF-8" standalone="no"?>
<svg
   xmlns:dc="http://purl.org/dc/elements/1.1/"
   xmlns:cc="http://creativecommons.org/ns#"
   xmlns:rdf="http://www.w3.org/1999/02/22-rdf-syntax-ns#"
   xmlns:svg="http://www.w3.org/2000/svg"
   xmlns="http://www.w3.org/2000/svg"
   xmlns:xlink="http://www.w3.org/1999/xlink"
   xmlns:sodipodi="http://sodipodi.sourceforge.net/DTD/sodipodi-0.dtd"
   xmlns:inkscape="http://www.inkscape.org/namespaces/inkscape"
   width="64"
   height="64"
   version="1"
   id="svg26"
   sodipodi:docname="multimedia-video-player.svg"
   inkscape:version="0.92.4 5da689c313, 2019-01-14">
  <metadata
     id="metadata32">
    <rdf:RDF>
      <cc:Work
         rdf:about="">
        <dc:format>image/svg+xml</dc:format>
        <dc:type
           rdf:resource="http://purl.org/dc/dcmitype/StillImage" />
        <dc:title />
      </cc:Work>
    </rdf:RDF>
  </metadata>
  <defs
     id="defs30">
    <linearGradient
       inkscape:collect="always"
       id="linearGradient8514">
      <stop
         style="stop-color:#ffffff;stop-opacity:1;"
         offset="0"
         id="stop8510" />
      <stop
         style="stop-color:#ffffff;stop-opacity:0;"
         offset="1"
         id="stop8512" />
    </linearGradient>
    <linearGradient
       inkscape:collect="always"
       xlink:href="#linearGradient833"
       id="linearGradient826"
       x1="57.129814"
       y1="48.749649"
       x2="9.7931185"
       y2="2.3869731"
       gradientUnits="userSpaceOnUse"
       gradientTransform="matrix(1.5999999,0,0,3.5714286,-70.399997,-85.57143)" />
    <filter
       inkscape:collect="always"
       style="color-interpolation-filters:sRGB"
       id="filter2777"
       x="-0.03936"
       width="1.07872"
       y="-0.0615"
       height="1.123">
      <feGaussianBlur
         inkscape:collect="always"
         stdDeviation="0.82"
         id="feGaussianBlur2779" />
    </filter>
    <filter
       inkscape:collect="always"
       style="color-interpolation-filters:sRGB"
       id="filter2860"
       x="-0.224"
       width="1.448"
       y="-0.168"
       height="1.336">
      <feGaussianBlur
         inkscape:collect="always"
         stdDeviation="1.12"
         id="feGaussianBlur2862" />
    </filter>
    <linearGradient
       inkscape:collect="always"
       xlink:href="#linearGradient8514"
       id="linearGradient8516"
       x1="31"
       y1="16.563381"
       x2="30.97183"
       y2="19.830986"
       gradientUnits="userSpaceOnUse" />
    <linearGradient
       inkscape:collect="always"
       id="linearGradient833">
      <stop
         style="stop-color:#24d8ff;stop-opacity:1"
         offset="0"
         id="stop829" />
      <stop
         id="stop1492"
         offset="0.61260545"
         style="stop-color:#18a2f0;stop-opacity:1;" />
      <stop
         style="stop-color:#127bcb;stop-opacity:1"
         offset="0.61260545"
         id="stop1494" />
      <stop
         id="stop1496"
         offset="0.69288391"
         style="stop-color:#117ee6;stop-opacity:1;" />
      <stop
         style="stop-color:#0e68cf;stop-opacity:1"
         offset="0.69288391"
         id="stop1498" />
      <stop
         id="stop1500"
         offset="0.76831985"
         style="stop-color:#0e6fde;stop-opacity:1" />
      <stop
         style="stop-color:#0b4ea0;stop-opacity:1"
         offset="0.76831985"
         id="stop1502" />
      <stop
         id="stop1504"
         offset="0.83362627"
         style="stop-color:#0a4d9f;stop-opacity:1" />
      <stop
         style="stop-color:#083e80;stop-opacity:1"
         offset="0.83362627"
         id="stop1506" />
      <stop
         style="stop-color:#052852;stop-opacity:1"
         offset="1"
         id="stop831" />
    </linearGradient>
    <filter
       style="color-interpolation-filters:sRGB;"
       inkscape:label="Colorize"
       id="filter11307">
      <feComposite
         in2="SourceGraphic"
         operator="arithmetic"
         k1="0"
         k2="1"
         result="composite1"
         id="feComposite11293" />
      <feColorMatrix
         in="composite1"
         values="1"
         type="saturate"
         result="colormatrix1"
         id="feColorMatrix11295" />
      <feFlood
         flood-opacity="1"
         flood-color="rgb(16,255,41)"
         result="flood1"
         id="feFlood11297" />
      <feBlend
         in="flood1"
         in2="colormatrix1"
         mode="multiply"
         result="blend1"
         id="feBlend11299" />
      <feBlend
         in2="blend1"
         mode="screen"
         result="blend2"
         id="feBlend11301" />
      <feColorMatrix
         in="blend2"
         values="1"
         type="saturate"
         result="colormatrix2"
         id="feColorMatrix11303" />
      <feComposite
         in="colormatrix2"
         in2="SourceGraphic"
         operator="in"
         k2="1"
         result="composite2"
         id="feComposite11305" />
    </filter>
  </defs>
  <sodipodi:namedview
     pagecolor="#ffffff"
     bordercolor="#666666"
     borderopacity="1"
     objecttolerance="10"
     gridtolerance="10"
     guidetolerance="10"
     inkscape:pageopacity="0"
     inkscape:pageshadow="2"
     inkscape:window-width="1366"
     inkscape:window-height="691"
     id="namedview28"
     showgrid="false"
     inkscape:zoom="6.2755727"
     inkscape:cx="-11.930322"
     inkscape:cy="30.502805"
     inkscape:window-x="0"
     inkscape:window-y="0"
     inkscape:window-maximized="1"
     inkscape:current-layer="svg26" />
  <path
     style="opacity:0.2;fill:#000000;fill-opacity:1;stroke-width:1.40001214"
     d="m 6.8,5.0000002 c -1.551227,0 -2.8,1.247628 -2.8,2.798828 V 58.199219 C 4,59.750419 5.248773,61 6.8,61 H 57.199999 C 58.751226,61 60,59.750418 60,58.199218 V 7.7988283 c 0,-1.5512 -1.248774,-2.798828 -2.800001,-2.798828 z m 0,2.798828 h 5.599999 V 13.400391 H 6.8 Z m 11.199998,0 h 5.600001 v 5.6015628 h -5.600001 z m 11.2,0 h 5.600001 v 5.6015628 h -5.600001 z m 11.200001,0 h 5.6 v 5.6015628 h -5.6 z m 11.2,0 h 5.6 v 5.6015628 h -5.6 z M 6.8,52.59961 h 5.599999 v 5.599609 H 6.8 Z m 11.199998,0 h 5.600001 v 5.599609 h -5.600001 z m 11.2,0 h 5.600001 v 5.599609 h -5.600001 z m 11.200001,0 h 5.6 v 5.599609 h -5.6 z m 11.2,0 h 5.6 v 5.599609 H 51.6 Z"
     id="rect2-2"
     inkscape:connector-curvature="0" />
  <path
     style="fill:#000000;fill-opacity:1;stroke-width:1.40001214"
     d="m 6.8000001,4.0000002 c -1.5512275,0 -2.8000003,1.247628 -2.8000003,2.798828 V 57.199219 C 3.9999998,58.750419 5.2487726,60 6.8000001,60 H 57.199999 C 58.751226,60 60,58.750418 60,57.199218 V 6.7988283 c 0,-1.5512 -1.248774,-2.798828 -2.800001,-2.798828 z m 0,2.798828 H 12.399999 V 12.400391 H 6.8000001 Z m 11.1999979,0 h 5.600001 v 5.6015628 h -5.600001 z m 11.2,0 h 5.600001 v 5.6015628 h -5.600001 z m 11.200001,0 h 5.6 v 5.6015628 h -5.6 z m 11.2,0 h 5.6 v 5.6015628 h -5.6 z M 6.8000001,51.59961 h 5.5999989 v 5.599609 H 6.8000001 Z m 11.1999979,0 h 5.600001 v 5.599609 h -5.600001 z m 11.2,0 h 5.600001 v 5.599609 h -5.600001 z m 11.200001,0 h 5.6 v 5.599609 h -5.6 z m 11.2,0 h 5.6 v 5.599609 H 51.6 Z"
     id="rect2"
     inkscape:connector-curvature="0" />
  <rect
     transform="matrix(0,-1,-1,0,0,0)"
     ry="0"
     rx="0"
     id="rect14-8"
     y="-57"
     x="-48"
     height="50"
     width="32"
     style="fill:#000000;fill-opacity:1;stroke-width:2.39045691;filter:url(#filter2777)" />
  <g
     id="g2632">
    <rect
       transform="matrix(0,-1,-1,0,0,0)"
       ry="0"
       rx="0"
       id="rect14"
       y="-57"
       x="-48"
       height="50"
       width="32"
       style="fill:url(#linearGradient826);fill-opacity:1;stroke-width:2.39045691;filter:url(#filter11307)" />
    <path
       sodipodi:nodetypes="cccc"
       inkscape:connector-curvature="0"
       id="path2628-0"
       d="M 28,24 V 40 L 40,32.286194 28,24"
       style="fill:#000000;fill-opacity:1;stroke:none;stroke-width:2.92587113px;stroke-linecap:butt;stroke-linejoin:miter;stroke-opacity:1;filter:url(#filter2860)" />
    <path
       sodipodi:nodetypes="cccc"
       inkscape:connector-curvature="0"
       id="path2628"
       d="M 28,24 V 40 L 40,32.286194 28,24"
       style="fill:#ffffff;fill-opacity:1;stroke:none;stroke-width:2.92587113px;stroke-linecap:butt;stroke-linejoin:miter;stroke-opacity:1" />
  </g>
  <rect
     style="opacity:0.4;fill:none;fill-opacity:1;stroke:url(#linearGradient8516);stroke-width:1.1116612;stroke-miterlimit:4;stroke-dasharray:none;stroke-opacity:1"
     id="rect8508"
     width="48.88834"
     height="30.888338"
     x="7.55583"
     y="16.555832" />
</svg>
