<?xml version="1.0" encoding="UTF-8" standalone="no"?>
<svg
   xmlns:dc="http://purl.org/dc/elements/1.1/"
   xmlns:cc="http://creativecommons.org/ns#"
   xmlns:rdf="http://www.w3.org/1999/02/22-rdf-syntax-ns#"
   xmlns:svg="http://www.w3.org/2000/svg"
   xmlns="http://www.w3.org/2000/svg"
   xmlns:xlink="http://www.w3.org/1999/xlink"
   xmlns:sodipodi="http://sodipodi.sourceforge.net/DTD/sodipodi-0.dtd"
   xmlns:inkscape="http://www.inkscape.org/namespaces/inkscape"
   width="64"
   height="64"
   version="1"
   id="svg22"
   sodipodi:docname="multimedia-audio-player.svg"
   inkscape:version="0.92.4 5da689c313, 2019-01-14">
  <metadata
     id="metadata28">
    <rdf:RDF>
      <cc:Work
         rdf:about="">
        <dc:format>image/svg+xml</dc:format>
        <dc:type
           rdf:resource="http://purl.org/dc/dcmitype/StillImage" />
        <dc:title />
      </cc:Work>
    </rdf:RDF>
  </metadata>
  <defs
     id="defs26">
    <linearGradient
       id="linearGradient910"
       inkscape:collect="always">
      <stop
         id="stop906"
         offset="0"
         style="stop-color:#ffffff;stop-opacity:1" />
      <stop
         id="stop908"
         offset="1"
         style="stop-color:#ffffff;stop-opacity:0" />
    </linearGradient>
    <linearGradient
       inkscape:collect="always"
       id="linearGradient2344">
      <stop
         style="stop-color:#ff9900;stop-opacity:1"
         offset="0"
         id="stop2340" />
      <stop
         style="stop-color:#ff6600;stop-opacity:1"
         offset="1"
         id="stop2342" />
    </linearGradient>
    <linearGradient
       inkscape:collect="always"
       xlink:href="#linearGradient2344"
       id="linearGradient2346"
       x1="-63.451641"
       y1="0.026913203"
       x2="-0.16484457"
       y2="-63.831791"
       gradientUnits="userSpaceOnUse"
       gradientTransform="translate(64,64)" />
    <linearGradient
       gradientTransform="translate(64.000001,-1.9073486e-6)"
       inkscape:collect="always"
       xlink:href="#linearGradient910"
       id="linearGradient880-4"
       x1="-60.000004"
       y1="-32.000004"
       x2="-51.230232"
       y2="-31.728817"
       gradientUnits="userSpaceOnUse" />
  </defs>
  <sodipodi:namedview
     pagecolor="#ffffff"
     bordercolor="#666666"
     borderopacity="1"
     objecttolerance="10"
     gridtolerance="10"
     guidetolerance="10"
     inkscape:pageopacity="0"
     inkscape:pageshadow="2"
     inkscape:window-width="1366"
     inkscape:window-height="691"
     id="namedview24"
     showgrid="false"
     inkscape:zoom="5.2149125"
     inkscape:cx="29.522329"
     inkscape:cy="11.425399"
     inkscape:window-x="0"
     inkscape:window-y="0"
     inkscape:window-maximized="1"
     inkscape:current-layer="svg22" />
  <rect
     style="opacity:0.2;fill:#000000;fill-opacity:1;stroke-width:1.39999986"
     width="56"
     height="56"
     x="5"
     y="4"
     rx="28"
     ry="28"
     transform="matrix(0,1,1,0,0,0)"
     id="rect8-4" />
  <rect
     style="fill:url(#linearGradient2346);fill-opacity:1;stroke-width:1.39999998"
     width="56"
     height="56"
     x="4"
     y="4"
     rx="28"
     ry="28"
     transform="matrix(0,1,1,0,0,0)"
     id="rect8" />
  <circle
     style="opacity:0.2;fill:#ffffff;fill-opacity:1;stroke:none;stroke-width:0.83919519;stroke-miterlimit:4;stroke-dasharray:none;stroke-opacity:0"
     id="path829-1-7"
     cx="32"
     cy="32"
     r="14" />
  <circle
     style="opacity:0.2;fill:#ffffff;fill-opacity:1;stroke:none;stroke-width:1.43862033;stroke-miterlimit:4;stroke-dasharray:none;stroke-opacity:0"
     id="path829"
     cx="32"
     cy="32"
     r="24" />
  <circle
     style="opacity:0.2;fill:#ffffff;fill-opacity:1;stroke:none;stroke-width:1.13890779;stroke-miterlimit:4;stroke-dasharray:none;stroke-opacity:0"
     id="path829-1"
     cx="32"
     cy="32"
     r="19" />
  <path
     style="opacity:0.2;fill:#ffffff;fill-opacity:1;stroke:none;stroke-width:2.0584271;stroke-miterlimit:4;stroke-dasharray:none;stroke-opacity:1"
     id="path2348"
     r="24"
     cy="32"
     cx="32" />
  <path
     style="color:#4d4d4d;fill:#000000;fill-opacity:1;stroke:none;stroke-width:1.51910782;opacity:0.2"
     class="ColorScheme-Text"
     d="m 40.526437,22.53077 -11.350039,2.858657 c -0.852722,0.22256 -1.540686,1.107456 -1.540686,1.967376 V 40.99132 c -0.864682,-0.441025 -1.975272,-0.619279 -3.126589,-0.327889 -2.077567,0.525825 -3.378139,2.224721 -2.932793,3.794642 0.445346,1.569953 2.492814,2.445521 4.570375,1.919682 1.657468,-0.419473 2.799029,-1.604035 2.981243,-2.855649 l 0.04846,-12.886342 10.77511,-2.810961 v 10.167764 c -0.864693,-0.441039 -1.97528,-0.619297 -3.126589,-0.327889 -2.07757,0.525811 -3.38137,2.22469 -2.936025,3.794642 0.445343,1.569937 2.492819,2.445522 4.57038,1.919697 1.657469,-0.41952 2.799025,-1.604032 2.98124,-2.85568 l 0.04848,-16.773382 c 9e-6,-0.644945 -0.409704,-1.128465 -0.962515,-1.219185 z"
     id="path4-7"
     inkscape:connector-curvature="0" />
  <path
     style="color:#4d4d4d;fill:#ffffff;fill-opacity:1;stroke:none;stroke-width:1.51910782"
     class="ColorScheme-Text"
     d="m 39.037431,20 -11.350039,2.858657 c -0.852722,0.22256 -1.540686,1.107456 -1.540686,1.967376 V 38.46055 c -0.864682,-0.441025 -1.975272,-0.619279 -3.126589,-0.327889 -2.077567,0.525825 -3.378139,2.224721 -2.932793,3.794642 0.445346,1.569953 2.492814,2.445521 4.570375,1.919682 1.657468,-0.419473 2.799029,-1.604035 2.981243,-2.855649 l 0.04846,-12.886342 10.77511,-2.810961 v 10.167764 c -0.864693,-0.441039 -1.97528,-0.619297 -3.126589,-0.327889 -2.07757,0.525811 -3.38137,2.22469 -2.936025,3.794642 0.445343,1.569937 2.492819,2.445522 4.57038,1.919697 1.657469,-0.41952 2.799025,-1.604032 2.98124,-2.85568 l 0.04848,-16.773382 C 40.000007,20.57424 39.590294,20.09072 39.037483,20 Z"
     id="path4"
     inkscape:connector-curvature="0" />
  <rect
     style="opacity:0.4;fill:none;fill-opacity:1;stroke:url(#linearGradient880-4);stroke-width:0.98245615;stroke-miterlimit:4;stroke-dasharray:none;stroke-opacity:1"
     width="55.017544"
     height="55.017544"
     x="4.4912281"
     y="-59.508774"
     rx="27.508772"
     ry="27.508772"
     transform="rotate(90)"
     id="rect8-2-8" />
</svg>
