<?xml version="1.0" encoding="UTF-8" standalone="no"?>
<svg
   xmlns:dc="http://purl.org/dc/elements/1.1/"
   xmlns:cc="http://creativecommons.org/ns#"
   xmlns:rdf="http://www.w3.org/1999/02/22-rdf-syntax-ns#"
   xmlns:svg="http://www.w3.org/2000/svg"
   xmlns="http://www.w3.org/2000/svg"
   xmlns:xlink="http://www.w3.org/1999/xlink"
   xmlns:sodipodi="http://sodipodi.sourceforge.net/DTD/sodipodi-0.dtd"
   xmlns:inkscape="http://www.inkscape.org/namespaces/inkscape"
   width="64"
   height="64"
   version="1"
   id="svg10"
   sodipodi:docname="preferences-system-power.svg"
   inkscape:version="0.92.4 5da689c313, 2019-01-14">
  <metadata
     id="metadata16">
    <rdf:RDF>
      <cc:Work
         rdf:about="">
        <dc:format>image/svg+xml</dc:format>
        <dc:type
           rdf:resource="http://purl.org/dc/dcmitype/StillImage" />
      </cc:Work>
    </rdf:RDF>
  </metadata>
  <defs
     id="defs14">
    <linearGradient
       inkscape:collect="always"
       id="linearGradient827">
      <stop
         style="stop-color:#ffcc00;stop-opacity:1"
         offset="0"
         id="stop823" />
      <stop
         style="stop-color:#ffb800;stop-opacity:1"
         offset="1"
         id="stop825" />
    </linearGradient>
    <linearGradient
       inkscape:collect="always"
       xlink:href="#linearGradient827"
       id="linearGradient829"
       x1="31.999599"
       y1="16.000658"
       x2="31.999599"
       y2="48.000198"
       gradientUnits="userSpaceOnUse" />
  </defs>
  <sodipodi:namedview
     pagecolor="#ffffff"
     bordercolor="#666666"
     borderopacity="1"
     objecttolerance="10"
     gridtolerance="10"
     guidetolerance="10"
     inkscape:pageopacity="0"
     inkscape:pageshadow="2"
     inkscape:window-width="1366"
     inkscape:window-height="691"
     id="namedview12"
     showgrid="false"
     inkscape:zoom="8.09375"
     inkscape:cx="32"
     inkscape:cy="32"
     inkscape:window-x="0"
     inkscape:window-y="0"
     inkscape:window-maximized="1"
     inkscape:current-layer="svg10" />
  <path
     style="opacity:0.2;fill:#000000;fill-opacity:1;stroke-width:1"
     d="M 31.999997,5 C 16.488,5 4,17.488 4,33 4,48.511997 16.488,61 31.999997,61 47.512,61 60,48.511997 60,33 60,17.488 47.512,5 31.999997,5 Z"
     id="path2-5"
     inkscape:connector-curvature="0" />
  <path
     style="fill:url(#linearGradient829);fill-opacity:1"
     d="M 31.999999,4.000029 C 16.488,4.000029 4,16.488029 4,32.000029 c 0,15.511999 12.488,28 27.999999,28 15.512001,0 28.000001,-12.488001 28.000001,-28 0,-15.512 -12.488,-28 -28.000001,-28 z"
     id="path2" />
  <path
     style="opacity:0.4;fill:#ffffff"
     d="M 32 4 C 16.488222 4 4 16.488222 4 32 C 4 32.098349 4.0111933 32.193966 4.0175781 32.291016 C 4.3923724 17.110496 16.726003 5 32 5 C 47.273998 5 59.607628 17.110496 59.982422 32.291016 C 59.988769 32.19403 60 32.098203 60 32 C 60 16.488222 47.511779 4 32 4 z"
     id="path4" />
  <path
     style="fill:#3f3f3f"
     d="m 31.999599,16.000658 0,11.999828 11.999829,0 -11.999829,19.999714 0,-11.999828 -11.999828,0 z"
     id="path6" />
</svg>
