<?xml version="1.0" encoding="UTF-8" standalone="no"?>
<svg
   xmlns:dc="http://purl.org/dc/elements/1.1/"
   xmlns:cc="http://creativecommons.org/ns#"
   xmlns:rdf="http://www.w3.org/1999/02/22-rdf-syntax-ns#"
   xmlns:svg="http://www.w3.org/2000/svg"
   xmlns="http://www.w3.org/2000/svg"
   xmlns:xlink="http://www.w3.org/1999/xlink"
   xmlns:sodipodi="http://sodipodi.sourceforge.net/DTD/sodipodi-0.dtd"
   xmlns:inkscape="http://www.inkscape.org/namespaces/inkscape"
   width="64"
   height="64"
   version="1"
   id="svg12"
   sodipodi:docname="preferences-desktop-accessibility.svg"
   inkscape:version="0.92.4 5da689c313, 2019-01-14">
  <metadata
     id="metadata18">
    <rdf:RDF>
      <cc:Work
         rdf:about="">
        <dc:format>image/svg+xml</dc:format>
        <dc:type
           rdf:resource="http://purl.org/dc/dcmitype/StillImage" />
      </cc:Work>
    </rdf:RDF>
  </metadata>
  <defs
     id="defs16">
    <linearGradient
       inkscape:collect="always"
       id="linearGradient832">
      <stop
         style="stop-color:#3e50b4;stop-opacity:1;"
         offset="0"
         id="stop828" />
      <stop
         style="stop-color:#6675ca;stop-opacity:1"
         offset="1"
         id="stop830" />
    </linearGradient>
    <linearGradient
       inkscape:collect="always"
       xlink:href="#linearGradient832"
       id="linearGradient834"
       x1="4"
       y1="32"
       x2="60"
       y2="32"
       gradientUnits="userSpaceOnUse"
       gradientTransform="translate(-64,-64)" />
  </defs>
  <sodipodi:namedview
     pagecolor="#ffffff"
     bordercolor="#666666"
     borderopacity="1"
     objecttolerance="10"
     gridtolerance="10"
     guidetolerance="10"
     inkscape:pageopacity="0"
     inkscape:pageshadow="2"
     inkscape:window-width="1366"
     inkscape:window-height="691"
     id="namedview14"
     showgrid="false"
     inkscape:zoom="3.6875"
     inkscape:cx="9.3126905"
     inkscape:cy="21.610623"
     inkscape:window-x="0"
     inkscape:window-y="0"
     inkscape:window-maximized="1"
     inkscape:current-layer="svg12" />
  <rect
     style="opacity:0.2;fill:#000000;fill-opacity:1"
     width="56"
     height="56"
     x="-61"
     y="-60"
     rx="28"
     ry="28"
     id="rect2-1"
     transform="matrix(0,-1,-1,0,0,0)" />
  <rect
     style="fill:url(#linearGradient834);fill-opacity:1"
     width="56"
     height="56"
     x="-60"
     y="-60"
     rx="28"
     ry="28"
     id="rect2"
     transform="matrix(0,-1,-1,0,0,0)" />
  <path
     style="opacity:0.2"
     d="m 32,15 c -2.2092,0 -4,1.79086 -4,4 0,2.20914 1.79086,4 4,4 2.20914,0 4,-1.79086 4,-4 0,-2.20914 -1.79086,-4 -4,-4 z m -14,10 0,2 10,0 0,24 2,0 0,-12 4,0 0,12 2,0 0,-24 10,0 0,-2 -18,0 z"
     id="path4" />
  <path
     style="fill:#ffffff"
     d="m 32,14 c -2.2092,0 -4,1.79086 -4,4 0,2.20914 1.79086,4 4,4 2.20914,0 4,-1.79086 4,-4 0,-2.20914 -1.79086,-4 -4,-4 z m -14,10 0,2 10,0 0,24 2,0 0,-12 4,0 0,12 2,0 0,-24 10,0 0,-2 -18,0 z"
     id="path6" />
  <path
     style="opacity:0.4;fill:#ffffff"
     d="M 32 4 C 16.488438 4 4 16.488 4 32 C 4 32.113448 4.0112811 32.224113 4.0175781 32.335938 C 4.3691114 17.134181 16.711159 5 32 5 C 47.288841 5 59.630889 17.134181 59.982422 32.335938 C 59.988693 32.224113 60 32.113448 60 32 C 60 16.488 47.511562 4 32 4 z"
     id="path8" />
</svg>
