<?xml version="1.0" encoding="UTF-8" standalone="no"?>
<svg
   xmlns:dc="http://purl.org/dc/elements/1.1/"
   xmlns:cc="http://creativecommons.org/ns#"
   xmlns:rdf="http://www.w3.org/1999/02/22-rdf-syntax-ns#"
   xmlns:svg="http://www.w3.org/2000/svg"
   xmlns="http://www.w3.org/2000/svg"
   xmlns:xlink="http://www.w3.org/1999/xlink"
   xmlns:sodipodi="http://sodipodi.sourceforge.net/DTD/sodipodi-0.dtd"
   xmlns:inkscape="http://www.inkscape.org/namespaces/inkscape"
   width="64"
   height="64"
   version="1.1"
   viewBox="0 0 48 48"
   id="svg27"
   sodipodi:docname="preferences-system-login.svg"
   inkscape:version="0.92.4 5da689c313, 2019-01-14">
  <metadata
     id="metadata31">
    <rdf:RDF>
      <cc:Work
         rdf:about="">
        <dc:format>image/svg+xml</dc:format>
        <dc:type
           rdf:resource="http://purl.org/dc/dcmitype/StillImage" />
        <dc:title />
      </cc:Work>
    </rdf:RDF>
  </metadata>
  <sodipodi:namedview
     pagecolor="#ffffff"
     bordercolor="#666666"
     borderopacity="1"
     objecttolerance="10"
     gridtolerance="10"
     guidetolerance="10"
     inkscape:pageopacity="0"
     inkscape:pageshadow="2"
     inkscape:window-width="1366"
     inkscape:window-height="691"
     id="namedview29"
     showgrid="false"
     inkscape:zoom="7.375"
     inkscape:cx="4.7625043"
     inkscape:cy="28.79274"
     inkscape:window-x="0"
     inkscape:window-y="0"
     inkscape:window-maximized="1"
     inkscape:current-layer="svg27" />
  <defs
     id="defs15">
    <linearGradient
       inkscape:collect="always"
       id="linearGradient4499">
      <stop
         style="stop-color:#fa006f;stop-opacity:1"
         offset="0"
         id="stop4495" />
      <stop
         style="stop-color:#ffff00;stop-opacity:1"
         offset="1"
         id="stop4497" />
    </linearGradient>
    <clipPath
       id="clipPath4">
      <rect
         width="384"
         height="384"
         id="rect2"
         x="0"
         y="0" />
    </clipPath>
    <clipPath
       id="clipPath8">
      <rect
         width="384"
         height="384"
         id="rect6"
         x="0"
         y="0" />
    </clipPath>
    <linearGradient
       id="a"
       x1="105.51208"
       x2="456.32745"
       y1="330.3624"
       y2="-70.879669"
       gradientUnits="userSpaceOnUse">
      <stop
         stop-color="#e5e5e5"
         offset="0"
         id="stop10"
         style="stop-color:#fa006f;stop-opacity:1" />
      <stop
         stop-color="#fff"
         offset="1"
         id="stop12"
         style="stop-color:#ffff00;stop-opacity:1" />
    </linearGradient>
    <linearGradient
       inkscape:collect="always"
       xlink:href="#linearGradient4499"
       id="linearGradient4509"
       x1="27.254238"
       y1="356.33899"
       x2="560.13556"
       y2="-162.71187"
       gradientUnits="userSpaceOnUse"
       gradientTransform="matrix(0.125,0,0,0.125,-2.31e-4,0)" />
  </defs>
  <path
     d="M 45,24.750002 C 45,13.151878 35.598126,3.7500039 23.999999,3.7500039 12.401875,3.7500039 2.9999998,13.151878 2.9999998,24.750002 2.9999998,36.348126 12.401875,45.75 23.999999,45.75 35.598131,45.75 44.999994,36.348126 45,24.750002 Z"
     id="path17-0"
     style="opacity:0.2;fill:#000000;fill-opacity:1;fill-rule:evenodd;stroke-width:0.12500001"
     inkscape:connector-curvature="0" />
  <path
     d="m 44.999769,24 c 0,-11.598125 -9.401875,-21 -21,-21 -11.598125,0 -21,9.401875 -21,21 0,11.598125 9.401875,21 21,21 11.598125,0 21,-9.401875 21,-21 z"
     id="path17"
     style="fill:url(#linearGradient4509);fill-opacity:1;fill-rule:evenodd;stroke-width:0.125"
     inkscape:connector-curvature="0" />
  <path
     d="m 35.998519,12.93875 c 0,0 -3.599125,-0.101074 -7.19575,1.69925 -1.099612,0.499513 -2.298875,1.298875 -3.298375,2.298375 -1.61575,1.61625 -4.1265,4.59125 -6.1035,6.996125 h -4.390125 l -1.999,2.998 3.390125,0.9165 c 0.0098,0.121094 0.04199,0.291988 0.135738,0.52295 l -0.526363,1.1582 c 0,0 -0.2002,0.3999 1.298875,1.999 1.599125,1.600125 2.099125,1.398875 2.099125,1.398875 l 1.242188,-0.563475 c 0.186037,0.0581 0.323725,0.07764 0.413575,0.07764 l 0.942387,3.484375 2.9985,-1.999 v -4.524379 c 2.421375,-1.958 5.393125,-4.4185 6.996125,-5.96925 0.999025,-0.999512 1.798875,-2.19875 2.3975,-3.298375 1.69775,-3.596625 1.599125,-7.194875 1.599125,-7.194875 z m -6.996125,8.994625 c -1.1001,0 -1.999,-0.899413 -1.999,-1.9985 0,-1.100588 0.898925,-1.999 1.999,-1.999 1.099613,0 1.999,0.898437 1.999,1.999 0,1.099125 -0.900387,1.9985 -1.999,1.9985 z M 18.508769,33.9265 c 0.1997,0.101074 0.2998,0.1997 0.499513,0.2998 -0.1997,0.2002 -0.3999,0.5 -0.600588,0.6997 -2.29975,2.298875 -6.3955,1.999 -6.3955,1.999 0,0 -0.2998,-4.098625 1.999,-6.3955 0.1997,-0.200688 0.499513,-0.398925 0.6997,-0.600587 0.09961,0.1997 0.198725,0.299799 0.2998,0.499512 -1.499,1.898 -1.299375,4.797375 -1.299375,4.797375 0,0 2.8975,0.1997 4.797375,-1.299375 z"
     id="path19"
     inkscape:connector-curvature="0"
     style="opacity:0.3;stroke-width:0.125" />
  <path
     d="m 35.998519,12.000875 c 0,0 -3.599125,-0.101074 -7.19575,1.69925 -1.099612,0.499513 -2.298875,1.298875 -3.298375,2.298375 -1.61575,1.61625 -4.1265,4.59125 -6.1035,6.996125 h -4.390125 l -1.999,2.998 3.390125,0.9165 c 0.0098,0.121094 0.04199,0.291987 0.135738,0.52295 l -0.526363,1.1582 c 0,0 -0.2002,0.3999 1.298875,1.999 1.599125,1.600125 2.099125,1.398875 2.099125,1.398875 l 1.242188,-0.563475 c 0.186037,0.0581 0.323725,0.07764 0.413575,0.07764 l 0.942387,3.484375 2.9985,-1.999 v -4.524379 c 2.421375,-1.958 5.393125,-4.4185 6.996125,-5.96925 0.999025,-0.999512 1.798875,-2.19875 2.3975,-3.298375 1.69775,-3.596625 1.599125,-7.194875 1.599125,-7.194875 z M 29.002394,20.9955 c -1.1001,0 -1.999,-0.899413 -1.999,-1.9985 0,-1.100588 0.898925,-1.999 1.999,-1.999 1.099613,0 1.999,0.898437 1.999,1.999 0,1.099125 -0.900387,1.9985 -1.999,1.9985 z M 18.508769,32.988625 c 0.1997,0.101074 0.2998,0.1997 0.499513,0.2998 -0.1997,0.2002 -0.3999,0.5 -0.600588,0.6997 -2.29975,2.298875 -6.3955,1.999 -6.3955,1.999 0,0 -0.2998,-4.098625 1.999,-6.3955 0.199713,-0.200688 0.499513,-0.398925 0.699713,-0.600588 0.09961,0.199713 0.198725,0.299801 0.2998,0.499513 -1.499,1.898 -1.299375,4.797375 -1.299375,4.797375 0,0 2.8975,0.199712 4.797375,-1.299375 z"
     id="path21"
     style="fill:#ffffff;fill-opacity:1;stroke-width:0.125"
     inkscape:connector-curvature="0" />
  <path
     d="m 23.999769,3 c -11.597812,0 -21,9.402188 -21,21 0,0.156731 0.0024,0.312834 0.0059,0.46875 C 3.255044,13.0875 12.558794,3.9375 24.000043,3.9375 c 11.441252,0 20.745002,9.149719 20.994375,20.53125 0.0034,-0.155916 0.0059,-0.312019 0.0059,-0.46875 0,-11.597812 -9.402187,-21 -21,-21 z"
     id="path25"
     inkscape:connector-curvature="0"
     style="opacity:0.4;fill:#ffffff;stroke-width:0.12499687" />
</svg>
