<?xml version="1.0" encoding="UTF-8" standalone="no"?>
<svg
   xmlns:dc="http://purl.org/dc/elements/1.1/"
   xmlns:cc="http://creativecommons.org/ns#"
   xmlns:rdf="http://www.w3.org/1999/02/22-rdf-syntax-ns#"
   xmlns:svg="http://www.w3.org/2000/svg"
   xmlns="http://www.w3.org/2000/svg"
   xmlns:xlink="http://www.w3.org/1999/xlink"
   xmlns:sodipodi="http://sodipodi.sourceforge.net/DTD/sodipodi-0.dtd"
   xmlns:inkscape="http://www.inkscape.org/namespaces/inkscape"
   width="64"
   height="64"
   version="1"
   id="svg16"
   sodipodi:docname="preferences-system-windows.svg"
   inkscape:version="0.92.4 5da689c313, 2019-01-14">
  <metadata
     id="metadata22">
    <rdf:RDF>
      <cc:Work
         rdf:about="">
        <dc:format>image/svg+xml</dc:format>
        <dc:type
           rdf:resource="http://purl.org/dc/dcmitype/StillImage" />
        <dc:title />
      </cc:Work>
    </rdf:RDF>
  </metadata>
  <defs
     id="defs20">
    <linearGradient
       inkscape:collect="always"
       id="linearGradient857">
      <stop
         style="stop-color:#50595e;stop-opacity:1"
         offset="0"
         id="stop853" />
      <stop
         style="stop-color:#768388;stop-opacity:1"
         offset="1"
         id="stop855" />
    </linearGradient>
    <linearGradient
       inkscape:collect="always"
       xlink:href="#linearGradient857"
       id="linearGradient859"
       x1="24.881355"
       y1="28.618645"
       x2="25.220339"
       y2="22.11017"
       gradientUnits="userSpaceOnUse"
       gradientTransform="matrix(1.2727273,0,0,1.3157895,-1.0909091,-21.947369)" />
  </defs>
  <sodipodi:namedview
     pagecolor="#ffffff"
     bordercolor="#666666"
     borderopacity="1"
     objecttolerance="10"
     gridtolerance="10"
     guidetolerance="10"
     inkscape:pageopacity="0"
     inkscape:pageshadow="2"
     inkscape:window-width="1366"
     inkscape:window-height="691"
     id="namedview18"
     showgrid="false"
     inkscape:zoom="5.2149125"
     inkscape:cx="17.837516"
     inkscape:cy="21.223635"
     inkscape:window-x="0"
     inkscape:window-y="0"
     inkscape:window-maximized="1"
     inkscape:current-layer="svg16" />
  <path
     style="opacity:0.2;stroke-width:1.29407918"
     d="m 4,52.736842 v 1.315789 C 4,56.239474 5.7029091,58 7.8181818,58 H 56.181818 C 58.297091,58 60,56.239474 60,54.052631 v -1.315789 c 0,2.186842 -1.702909,3.947369 -3.818182,3.947369 H 7.8181818 C 5.7029091,56.684211 4,54.923684 4,52.736842 Z"
     id="path14"
     inkscape:connector-curvature="0" />
  <path
     style="fill:#e4e4e4;stroke-width:1.29407918"
     d="M 4,16.078947 V 53.052631 C 4,55.239474 5.7029091,57 7.8181818,57 H 56.181818 C 58.297091,57 60,55.239474 60,53.052631 V 16.078947 Z"
     id="path6"
     inkscape:connector-curvature="0" />
  <path
     style="fill:url(#linearGradient859);fill-opacity:1;stroke-width:1.29407918"
     d="M 7.8181818,7 C 5.7029091,7 4,8.760526 4,10.947368 v 5.263158 H 60 V 10.947368 C 60,8.760526 58.297091,7 56.181818,7 Z"
     id="path8"
     inkscape:connector-curvature="0" />
  <path
     inkscape:connector-curvature="0"
     style="opacity:0.4;fill:#ffffff;stroke-width:1.29407918"
     d="M 7.8181818,7 C 5.7029091,7 4,8.760526 4,10.947368 v 1.31579 C 4,10.076316 5.7029091,8.315789 7.8181818,8.315789 H 56.181818 C 58.297091,8.315789 60,10.076316 60,12.263158 v -1.31579 C 60,8.760526 58.297091,7 56.181818,7 Z"
     id="path12-4" />
</svg>
