<?xml version="1.0" encoding="UTF-8" standalone="no"?>
<svg
   xmlns:dc="http://purl.org/dc/elements/1.1/"
   xmlns:cc="http://creativecommons.org/ns#"
   xmlns:rdf="http://www.w3.org/1999/02/22-rdf-syntax-ns#"
   xmlns:svg="http://www.w3.org/2000/svg"
   xmlns="http://www.w3.org/2000/svg"
   xmlns:xlink="http://www.w3.org/1999/xlink"
   xmlns:sodipodi="http://sodipodi.sourceforge.net/DTD/sodipodi-0.dtd"
   xmlns:inkscape="http://www.inkscape.org/namespaces/inkscape"
   width="64"
   height="64"
   version="1.1"
   viewBox="0 0 48 48"
   id="svg28"
   sodipodi:docname="preferences-system-time.svg"
   inkscape:version="0.92.4 5da689c313, 2019-01-14">
  <metadata
     id="metadata32">
    <rdf:RDF>
      <cc:Work
         rdf:about="">
        <dc:format>image/svg+xml</dc:format>
        <dc:type
           rdf:resource="http://purl.org/dc/dcmitype/StillImage" />
        <dc:title></dc:title>
      </cc:Work>
    </rdf:RDF>
  </metadata>
  <sodipodi:namedview
     pagecolor="#ffffff"
     bordercolor="#666666"
     borderopacity="1"
     objecttolerance="10"
     gridtolerance="10"
     guidetolerance="10"
     inkscape:pageopacity="0"
     inkscape:pageshadow="2"
     inkscape:window-width="1366"
     inkscape:window-height="712"
     id="namedview30"
     showgrid="false"
     inkscape:zoom="5.2149125"
     inkscape:cx="37.627458"
     inkscape:cy="5.3517842"
     inkscape:window-x="0"
     inkscape:window-y="25"
     inkscape:window-maximized="1"
     inkscape:current-layer="svg28" />
  <defs
     id="defs6">
    <linearGradient
       inkscape:collect="always"
       id="linearGradient958">
      <stop
         style="stop-color:#000000;stop-opacity:1;"
         offset="0"
         id="stop954" />
      <stop
         style="stop-color:#000000;stop-opacity:0;"
         offset="1"
         id="stop956" />
    </linearGradient>
    <linearGradient
       inkscape:collect="always"
       id="linearGradient890">
      <stop
         style="stop-color:#0049dc;stop-opacity:1"
         offset="0"
         id="stop886" />
      <stop
         style="stop-color:#00e9f2;stop-opacity:1"
         offset="1"
         id="stop888" />
    </linearGradient>
    <linearGradient
       inkscape:collect="always"
       id="linearGradient843">
      <stop
         style="stop-color:#ffffff;stop-opacity:1;"
         offset="0"
         id="stop839" />
      <stop
         style="stop-color:#f0f0f0;stop-opacity:1"
         offset="1"
         id="stop841" />
    </linearGradient>
    <clipPath
       id="clipPath4">
      <rect
         width="384"
         height="384"
         id="rect2"
         x="0"
         y="0" />
    </clipPath>
    <linearGradient
       inkscape:collect="always"
       xlink:href="#linearGradient843"
       id="linearGradient845"
       x1="46.721355"
       y1="37.870853"
       x2="347.0871"
       y2="347.02341"
       gradientUnits="userSpaceOnUse"
       gradientTransform="matrix(0.12350965,0,0,0.12350965,0.08235676,0.43189014)" />
    <linearGradient
       inkscape:collect="always"
       xlink:href="#linearGradient890"
       id="linearGradient892"
       x1="-0.16400324"
       y1="49.887299"
       x2="48.020184"
       y2="0.4137941"
       gradientUnits="userSpaceOnUse"
       gradientTransform="rotate(-90,24,24)" />
    <filter
       inkscape:collect="always"
       style="color-interpolation-filters:sRGB"
       id="filter950"
       x="-0.048"
       width="1.096"
       y="-0.048"
       height="1.096">
      <feGaussianBlur
         inkscape:collect="always"
         stdDeviation="0.73540244"
         id="feGaussianBlur952" />
    </filter>
    <linearGradient
       inkscape:collect="always"
       xlink:href="#linearGradient958"
       id="linearGradient960"
       x1="3.8499731"
       y1="23.999999"
       x2="44.150025"
       y2="23.999999"
       gradientUnits="userSpaceOnUse" />
    <filter
       inkscape:collect="always"
       style="color-interpolation-filters:sRGB"
       id="filter986"
       x="-0.051748703"
       width="1.1034974"
       y="-0.044757727"
       height="1.0895155">
      <feGaussianBlur
         inkscape:collect="always"
         stdDeviation="0.47806193"
         id="feGaussianBlur988" />
    </filter>
  </defs>
  <path
     d="M 24,2.9999999 C 35.598096,2.9999999 45,12.401902 45,24 45,35.5976 35.598097,45 24,45 12.402399,45 2.9999999,35.598098 2.9999999,24 2.9999999,12.401902 12.401901,2.9999999 24,2.9999999 Z"
     style="fill:url(#linearGradient892);fill-opacity:1;fill-rule:evenodd;stroke-width:0.12444445"
     id="path10"
     inkscape:connector-curvature="0" />
  <path
     d="M 42.75,24 C 42.75,34.355542 34.355173,42.75 24,42.75 13.644457,42.75 5.25,34.355173 5.25,24 5.25,13.644827 13.644828,5.25 24,5.25 34.355173,5.25 42.75,13.644827 42.75,24"
     style="fill:url(#linearGradient845);fill-opacity:1;fill-rule:evenodd;stroke-width:0.12350965"
     id="path12"
     inkscape:connector-curvature="0" />
  <path
     d="m 34.490667,12.940621 c -0.258646,0 -0.517839,0.09947 -0.715307,0.29695 l -9.97136,9.97136 -7.47e-4,-7.47e-4 v -1.24e-4 l -8.920426,-7.881067 c -0.386338,-0.341264 -0.977561,-0.305262 -1.318863,0.08167 -0.341799,0.386313 -0.305088,0.976988 0.08167,1.318738 l 8.919929,7.880818 c 0.181614,0.160769 0.409472,0.226239 0.634007,0.222394 0.04561,0.08597 0.0948,0.171285 0.167341,0.244271 l 0.03263,0.03263 h 0.01677 c 0.396791,0.352539 1.00067,0.347923 1.380836,-0.03227 L 35.205428,14.667086 c 0.394539,-0.394538 0.394539,-1.035004 0,-1.429493 -0.197481,-0.197481 -0.456549,-0.296949 -0.714759,-0.296949 z M 23.535822,25.961244 c -0.134686,0.0081 -0.261769,0.0841 -0.332864,0.214741 L 16.832025,37.90923 c -0.11375,0.209029 -0.04138,0.47931 0.16133,0.603754 0.202707,0.12493 0.459374,0.0559 0.573129,-0.153128 l 6.371057,-11.733245 c 0.11375,-0.20903 0.0412,-0.47931 -0.161504,-0.603755 -0.07602,-0.04685 -0.15945,-0.06647 -0.240265,-0.06162 z"
     dominant-baseline="auto"
     style="color:#000000;font-variant-ligatures:normal;font-variant-position:normal;font-variant-caps:normal;font-variant-numeric:normal;font-variant-alternates:normal;font-feature-settings:normal;text-indent:0;text-decoration:none;text-decoration-line:none;text-decoration-style:solid;text-decoration-color:#000000;text-transform:none;text-orientation:mixed;dominant-baseline:auto;white-space:normal;shape-padding:0;opacity:0.3;isolation:auto;mix-blend-mode:normal;solid-color:#000000;stroke-width:0.12444445;color-rendering:auto;image-rendering:auto;shape-rendering:auto;filter:url(#filter986)"
     id="path16"
     inkscape:connector-curvature="0" />
  <path
     d="m 34.501867,12.12327 c -0.230422,0 -0.460345,0.08799 -0.636807,0.264445 L 23.814677,22.438097 c -0.02285,-0.02625 -0.04715,-0.05153 -0.07389,-0.07535 l -8.920176,-7.880818 c -0.341737,-0.301878 -0.860422,-0.270281 -1.162287,0.07194 -0.302362,0.341737 -0.27028,0.859936 0.07195,1.162286 l 8.920177,7.880818 c 0.177919,0.157497 0.403959,0.223614 0.622223,0.202708 0.04375,0.09722 0.104514,0.188607 0.18424,0.268825 h 4.97e-4 c 0.352427,0.352425 0.920205,0.352425 1.272694,0 l 10.40816,-10.408161 c 0.352426,-0.352426 0.352426,-0.920204 0,-1.272693 -0.176463,-0.176462 -0.406386,-0.264444 -0.636322,-0.264444 z"
     id="path18"
     style="fill:#323232;fill-opacity:1;stroke:none;stroke-width:0.22175999"
     inkscape:connector-curvature="0" />
  <path
     d="m 16.8432,36.980799 6.370933,-11.733244 c 0.113751,-0.209029 0.370422,-0.278058 0.573129,-0.153129 0.202708,0.124445 0.275134,0.394726 0.161392,0.603755 l -6.370933,11.733244 c -0.11375,0.209029 -0.370421,0.278058 -0.573129,0.153129 -0.202708,-0.124445 -0.275134,-0.394726 -0.161392,-0.603755 z"
     id="path22"
     inkscape:connector-curvature="0"
     style="fill:#fd4747;stroke-width:0.12444445;stroke:none" />
  <path
     d="m 26.008533,24.413154 c -4.97e-4,0.994586 -0.806947,1.801086 -1.801582,1.801086 -0.99507,0 -1.801582,-0.806464 -1.801582,-1.801086 -4.98e-4,-0.995069 0.806462,-1.801955 1.801582,-1.801955 0.99507,0 1.801956,0.806948 1.801582,1.801955"
     style="opacity:0.3;fill:#030000;stroke-width:0.12444445"
     id="path24"
     inkscape:connector-curvature="0" />
  <path
     d="m 26.008533,23.853155 c -4.97e-4,0.994585 -0.806947,1.801085 -1.801582,1.801085 -0.99507,0 -1.801582,-0.806463 -1.801582,-1.801085 -4.98e-4,-0.995071 0.806462,-1.801956 1.801582,-1.801956 0.99507,0 1.801956,0.806948 1.801582,1.801956"
     style="fill:#ffffff;stroke-width:0.12444445;stroke:none"
     id="path26"
     inkscape:connector-curvature="0" />
  <path
     d="M 42.385061,24 C 42.385061,34.153988 34.153627,42.385061 24,42.385061 13.846011,42.385061 5.614939,34.153627 5.614939,24 5.614939,13.846374 13.846375,5.614939 24,5.614939 34.153627,5.614939 42.385061,13.846374 42.385061,24"
     style="fill:none;fill-opacity:1;fill-rule:evenodd;stroke:url(#linearGradient960);stroke-width:0.72974998;stroke-miterlimit:4;stroke-dasharray:none;stroke-opacity:1;filter:url(#filter950);opacity:0.5"
     id="path12-7"
     inkscape:connector-curvature="0"
     transform="rotate(90,24,24)" />
</svg>
