<?xml version="1.0" encoding="UTF-8" standalone="no"?>
<svg
   xmlns:dc="http://purl.org/dc/elements/1.1/"
   xmlns:cc="http://creativecommons.org/ns#"
   xmlns:rdf="http://www.w3.org/1999/02/22-rdf-syntax-ns#"
   xmlns:svg="http://www.w3.org/2000/svg"
   xmlns="http://www.w3.org/2000/svg"
   xmlns:sodipodi="http://sodipodi.sourceforge.net/DTD/sodipodi-0.dtd"
   xmlns:inkscape="http://www.inkscape.org/namespaces/inkscape"
   width="64"
   height="64"
   version="1"
   id="svg14"
   sodipodi:docname="preferences-system-notifications.svg"
   inkscape:version="0.92.3 (2405546, 2018-03-11)">
  <metadata
     id="metadata20">
    <rdf:RDF>
      <cc:Work
         rdf:about="">
        <dc:format>image/svg+xml</dc:format>
        <dc:type
           rdf:resource="http://purl.org/dc/dcmitype/StillImage" />
        <dc:title></dc:title>
      </cc:Work>
    </rdf:RDF>
  </metadata>
  <defs
     id="defs18" />
  <sodipodi:namedview
     pagecolor="#ffffff"
     bordercolor="#666666"
     borderopacity="1"
     objecttolerance="10"
     gridtolerance="10"
     guidetolerance="10"
     inkscape:pageopacity="0"
     inkscape:pageshadow="2"
     inkscape:window-width="1366"
     inkscape:window-height="704"
     id="namedview16"
     showgrid="false"
     inkscape:zoom="5.2149125"
     inkscape:cx="14.018613"
     inkscape:cy="54.644137"
     inkscape:window-x="0"
     inkscape:window-y="30"
     inkscape:window-maximized="1"
     inkscape:current-layer="svg14" />
  <path
     style="opacity:0.2"
     d="m 9.7779534,11.99953 c -1.539049,0 -2.777889,1.226613 -2.777889,2.750029 l 0,32.500448 c 0,1.523516 1.23892,2.75003 2.777889,2.75003 L 35,50.000037 40,56 l 5,-5.999963 9.223975,0 c 1.53805,0 2.776089,-1.226014 2.776089,-2.75003 l 0,-32.500448 c -0.002,-1.523416 -1.240039,-2.750029 -2.780089,-2.750029 z"
     id="path2" />
  <path
     style="fill:#f0f0f0;fill-opacity:1"
     d="m 9.7779534,10.999508 c -1.539049,0 -2.777889,1.226613 -2.777889,2.750029 l 0,32.500448 c 0,1.523516 1.23892,2.75003 2.777889,2.75003 l 25.2220466,0 5,5.999963 5,-5.999963 9.223975,0 c 1.53805,0 2.776089,-1.226014 2.776089,-2.75003 l 0,-32.500448 c -0.002,-1.523416 -1.240039,-2.750029 -2.780089,-2.750029 z"
     id="path4" />
  <path
     style="opacity:0.1;fill:#ffffff"
     d="m 9.7773764,11 c -1.539017,0 -2.777344,1.226584 -2.777344,2.75 l 0,1 c 0,-1.523416 1.238327,-2.75 2.777344,-2.75 l 44.4453116,0 c 1.540017,0 2.777344,1.226584 2.777344,2.75 l 0,-1 c 0,-1.523416 -1.237327,-2.75 -2.777344,-2.75 L 9.7773764,11 Z"
     id="path6" />
  <circle
     style="opacity:0.2"
     cx="16.5"
     cy="20.5"
     r="15.5"
     id="circle8" />
  <circle
     style="fill:#f54d4d;fill-opacity:1"
     cx="16.5"
     cy="19.5"
     r="15.5"
     id="circle10" />
  <path
     style="fill:#ffffff"
     d="m 15.000032,10 0,13 3,0 0,-13 z m 0,15 0,3 3,0 0,-3 z"
     id="path12" />
</svg>
