<?xml version="1.0" encoding="UTF-8" standalone="no"?>
<svg
   xmlns:dc="http://purl.org/dc/elements/1.1/"
   xmlns:cc="http://creativecommons.org/ns#"
   xmlns:rdf="http://www.w3.org/1999/02/22-rdf-syntax-ns#"
   xmlns:svg="http://www.w3.org/2000/svg"
   xmlns="http://www.w3.org/2000/svg"
   xmlns:xlink="http://www.w3.org/1999/xlink"
   xmlns:sodipodi="http://sodipodi.sourceforge.net/DTD/sodipodi-0.dtd"
   xmlns:inkscape="http://www.inkscape.org/namespaces/inkscape"
   width="64"
   height="64"
   version="1"
   id="svg16"
   sodipodi:docname="sound-recorder.svg"
   inkscape:version="0.92.4 5da689c313, 2019-01-14">
  <metadata
     id="metadata22">
    <rdf:RDF>
      <cc:Work
         rdf:about="">
        <dc:format>image/svg+xml</dc:format>
        <dc:type
           rdf:resource="http://purl.org/dc/dcmitype/StillImage" />
      </cc:Work>
    </rdf:RDF>
  </metadata>
  <defs
     id="defs20">
    <linearGradient
       inkscape:collect="always"
       id="linearGradient848">
      <stop
         style="stop-color:#ff0707;stop-opacity:1"
         offset="0"
         id="stop844" />
      <stop
         style="stop-color:#ff188a;stop-opacity:1"
         offset="1"
         id="stop846" />
    </linearGradient>
    <linearGradient
       inkscape:collect="always"
       xlink:href="#linearGradient848"
       id="linearGradient850"
       x1="-24.745762"
       y1="33.898304"
       x2="115.79393"
       y2="31.306753"
       gradientUnits="userSpaceOnUse" />
  </defs>
  <sodipodi:namedview
     pagecolor="#ffffff"
     bordercolor="#666666"
     borderopacity="1"
     objecttolerance="10"
     gridtolerance="10"
     guidetolerance="10"
     inkscape:pageopacity="0"
     inkscape:pageshadow="2"
     inkscape:window-width="1366"
     inkscape:window-height="691"
     id="namedview18"
     showgrid="false"
     inkscape:zoom="5.2149125"
     inkscape:cx="34.030993"
     inkscape:cy="32.653602"
     inkscape:window-x="0"
     inkscape:window-y="0"
     inkscape:window-maximized="1"
     inkscape:current-layer="svg16" />
  <rect
     style="opacity:0.2;fill:#000000;fill-opacity:1"
     width="56"
     height="56"
     x="4"
     y="5"
     rx="28"
     ry="28"
     id="rect4-8" />
  <rect
     style="fill:url(#linearGradient850);fill-opacity:1"
     width="56"
     height="56"
     x="4"
     y="4"
     rx="28"
     ry="28"
     id="rect4" />
  <g
     style="opacity:0.2;enable-background:new"
     transform="matrix(1.9999793,0,0,1.9999793,-673.99348,846.99186)"
     id="g8">
    <path
       d="m 353,-415 c -1.6621,0 -3,1.3379 -3,3 l 0,5 c 0,1.6621 1.3379,3 3,3 1.6621,0 3,-1.3379 3,-3 l 0,-5 c 0,-1.6621 -1.3379,-3 -3,-3 z m -6,7 0,0.99999 c 0,2.9695 2.1624,5.4322 5,5.9062 l 0,2.0938 2,0 0,-2.0938 c 2.8376,-0.47409 5,-2.9368 5,-5.9062 l 0,-0.99999 -2,0 0,0.99999 c 0,2.2334 -1.7666,4 -4,4 -2.2334,0 -4,-1.7666 -4,-4 l 0,-1 z"
       id="path6" />
  </g>
  <g
     style="fill:#ffffff;enable-background:new"
     transform="matrix(1.9999793,0,0,1.9999793,-673.99348,845.99189)"
     id="g12">
    <path
       d="m 353,-415 c -1.6621,0 -3,1.3379 -3,3 l 0,5 c 0,1.6621 1.3379,3 3,3 1.6621,0 3,-1.3379 3,-3 l 0,-5 c 0,-1.6621 -1.3379,-3 -3,-3 z m -6,7 0,0.99999 c 0,2.9695 2.1624,5.4322 5,5.9062 l 0,2.0938 2,0 0,-2.0938 c 2.8376,-0.47409 5,-2.9368 5,-5.9062 l 0,-0.99999 -2,0 0,0.99999 c 0,2.2334 -1.7666,4 -4,4 -2.2334,0 -4,-1.7666 -4,-4 L 349,-408 Z"
       id="path10" />
  </g>
  <path
     style="opacity:0.4;fill:#ffffff"
     d="M 32 4 C 16.488161 4 4 16.488161 4 32 C 4 32.109467 4.0096796 32.216285 4.015625 32.324219 C 4.3732243 17.128091 16.714805 5 32 5 C 47.285195 5 59.626776 17.128091 59.984375 32.324219 C 59.990295 32.216285 60 32.109467 60 32 C 60 16.488161 47.511839 4 32 4 z"
     id="path14" />
  <ellipse
     style="opacity:0.4;fill:none;fill-opacity:1;stroke:#ffffff;stroke-width:1.16288185;stroke-miterlimit:4;stroke-dasharray:none;stroke-opacity:1"
     id="path852"
     cx="32"
     cy="32"
     rx="24.41856"
     ry="24.418556" />
  <ellipse
     style="opacity:0.4;fill:none;fill-opacity:1;stroke:#ffffff;stroke-width:0.7442444;stroke-miterlimit:4;stroke-dasharray:none;stroke-opacity:1"
     id="path852-6"
     cx="32"
     cy="32"
     rx="15.627878"
     ry="15.627876" />
  <ellipse
     style="opacity:0.4;fill:none;fill-opacity:1;stroke:#ffffff;stroke-width:0.83727491;stroke-miterlimit:4;stroke-dasharray:none;stroke-opacity:1"
     id="path852-6-7"
     cx="32"
     cy="32"
     rx="17.581362"
     ry="17.58136" />
  <ellipse
     style="opacity:0.4;fill:none;fill-opacity:1;stroke:#ffffff;stroke-width:0.97682071;stroke-miterlimit:4;stroke-dasharray:none;stroke-opacity:1"
     id="path852-6-7-5"
     cx="32"
     cy="32"
     rx="20.511589"
     ry="20.511587" />
  <ellipse
     style="opacity:0.4;fill:none;fill-opacity:1;stroke:#ffffff;stroke-width:0.65121382;stroke-miterlimit:4;stroke-dasharray:none;stroke-opacity:1"
     id="path852-6-7-3"
     cx="32"
     cy="32"
     rx="13.674393"
     ry="13.674392" />
  <ellipse
     style="opacity:0.4;fill:none;fill-opacity:1;stroke:#ffffff;stroke-width:0.55818325;stroke-miterlimit:4;stroke-dasharray:none;stroke-opacity:1"
     id="path852-6-7-3-6"
     cx="32"
     cy="32"
     rx="11.720908"
     ry="11.720907" />
</svg>
