<?xml version="1.0" encoding="UTF-8" standalone="no"?>
<svg
   xmlns:dc="http://purl.org/dc/elements/1.1/"
   xmlns:cc="http://creativecommons.org/ns#"
   xmlns:rdf="http://www.w3.org/1999/02/22-rdf-syntax-ns#"
   xmlns:svg="http://www.w3.org/2000/svg"
   xmlns="http://www.w3.org/2000/svg"
   xmlns:xlink="http://www.w3.org/1999/xlink"
   xmlns:sodipodi="http://sodipodi.sourceforge.net/DTD/sodipodi-0.dtd"
   xmlns:inkscape="http://www.inkscape.org/namespaces/inkscape"
   width="64"
   height="64"
   version="1.1"
   viewBox="0 0 48 48"
   id="svg44"
   sodipodi:docname="spotify-client.svg"
   inkscape:version="0.92.4 5da689c313, 2019-01-14">
  <metadata
     id="metadata48">
    <rdf:RDF>
      <cc:Work
         rdf:about="">
        <dc:format>image/svg+xml</dc:format>
        <dc:type
           rdf:resource="http://purl.org/dc/dcmitype/StillImage" />
        <dc:title />
      </cc:Work>
    </rdf:RDF>
  </metadata>
  <sodipodi:namedview
     pagecolor="#ffffff"
     bordercolor="#666666"
     borderopacity="1"
     objecttolerance="10"
     gridtolerance="10"
     guidetolerance="10"
     inkscape:pageopacity="0"
     inkscape:pageshadow="2"
     inkscape:window-width="1366"
     inkscape:window-height="691"
     id="namedview46"
     showgrid="false"
     inkscape:zoom="8.09375"
     inkscape:cx="32"
     inkscape:cy="32"
     inkscape:window-x="0"
     inkscape:window-y="0"
     inkscape:window-maximized="1"
     inkscape:current-layer="svg44" />
  <defs
     id="defs30">
    <linearGradient
       inkscape:collect="always"
       id="linearGradient1498">
      <stop
         style="stop-color:#ffffff;stop-opacity:1;"
         offset="0"
         id="stop1494" />
      <stop
         style="stop-color:#ffffff;stop-opacity:0;"
         offset="1"
         id="stop1496" />
    </linearGradient>
    <clipPath
       id="f">
      <path
         d="m 111,119 h 177 v 23 H 111 Z"
         id="path2"
         inkscape:connector-curvature="0" />
    </clipPath>
    <clipPath
       id="d">
      <path
         d="m 177,130 h 45 v 89 h -45 z"
         id="path5"
         inkscape:connector-curvature="0" />
    </clipPath>
    <clipPath
       id="b">
      <path
         d="m 111,207 h 177 v 89 H 111 Z"
         id="path8"
         inkscape:connector-curvature="0" />
    </clipPath>
    <clipPath
       id="h">
      <rect
         width="384"
         height="384"
         id="rect11"
         x="0"
         y="0" />
    </clipPath>
    <g
       clip-path="url(#h)"
       id="g14" />
    <clipPath
       id="e">
      <path
         d="m 111,119 h 177 v 23 H 111 Z"
         id="path16"
         inkscape:connector-curvature="0" />
    </clipPath>
    <clipPath
       id="c">
      <path
         d="m 177,130 h 45 v 89 h -45 z"
         id="path19"
         inkscape:connector-curvature="0" />
    </clipPath>
    <clipPath
       id="a">
      <path
         d="m 111,207 h 177 v 89 H 111 Z"
         id="path22"
         inkscape:connector-curvature="0" />
    </clipPath>
    <clipPath
       id="g">
      <rect
         width="384"
         height="384"
         id="rect25"
         x="0"
         y="0" />
    </clipPath>
    <g
       clip-path="url(#g)"
       id="g28" />
    <linearGradient
       inkscape:collect="always"
       xlink:href="#linearGradient1498"
       id="linearGradient1500"
       x1="192.80475"
       y1="25.220339"
       x2="184.6868"
       y2="115.52542"
       gradientUnits="userSpaceOnUse"
       gradientTransform="matrix(0.11914894,0,0,0.11914894,1.123405,1.1234029)" />
  </defs>
  <path
     inkscape:connector-curvature="0"
     style="opacity:0.2;fill:#000000;fill-opacity:1;stroke-width:0.25076875"
     d="M 23.999875,3.7500024 C 12.40221,3.7500024 3,13.152188 3,24.750127 3,36.348571 12.40221,45.75 23.999875,45.75 35.598795,45.75 45,36.348571 45,24.750127 45,13.152941 35.598795,3.7510076 23.999623,3.7510076 Z M 33.630283,34.03821 c -0.376149,0.616898 -1.183613,0.812501 -1.800498,0.433834 -4.930557,-3.011767 -11.137511,-3.693863 -18.447331,-2.023728 -0.704402,0.160496 -1.406547,-0.280865 -1.567037,-0.985533 -0.161224,-0.704667 0.278348,-1.406826 0.984508,-1.567322 7.999424,-1.828375 14.861127,-1.040704 20.396534,2.342208 0.616882,0.378664 0.812482,1.183639 0.433824,1.800541 z m 2.570347,-5.71885 c -0.473945,0.771126 -1.482023,1.014373 -2.251875,0.540414 -5.644736,-3.470429 -14.249263,-4.475268 -20.9259,-2.448535 -0.865894,0.261548 -1.780436,-0.226436 -2.043238,-1.090858 -0.260792,-0.865911 0.227444,-1.77872 1.091832,-2.042029 7.62654,-2.314124 17.107744,-1.193175 23.590035,2.790332 0.769849,0.473962 1.013096,1.482065 0.539146,2.250928 z m 0.220668,-5.95432 C 29.653129,18.344917 18.486532,17.975281 12.024549,19.936566 10.98688,20.251286 9.889529,19.665498 9.57507,18.62779 c -0.31446,-1.038195 0.270816,-2.134821 1.309246,-2.450292 7.417901,-2.251931 19.749309,-1.816841 27.5416,2.809145 0.935357,0.553955 1.24129,1.759414 0.6871,2.691531 -0.551684,0.933375 -1.760377,1.24107 -2.690719,0.686866 z"
     id="path913-7" />
  <circle
     style="opacity:1;fill:#1b1b1b;fill-opacity:1;fill-rule:evenodd;stroke:none;stroke-width:1.00774908;stroke-linejoin:round;stroke-miterlimit:4;stroke-dasharray:none;stroke-opacity:1;paint-order:normal"
     id="path1481"
     cx="24.000002"
     cy="24"
     r="16.978724" />
  <path
     inkscape:connector-curvature="0"
     style="fill:#1ed760;stroke-width:0.25076872"
     d="M 23.999874,3.0000001 C 12.40221,3.0000001 3,12.402183 3,24.000125 3,35.598568 12.40221,45 23.999874,45 35.598793,45 45,35.598568 45,24.000125 45,12.402936 35.598793,3.0010034 23.999624,3.0010034 Z m 9.630407,30.2882079 c -0.376149,0.616898 -1.183614,0.8125 -1.800498,0.433835 -4.930556,-3.011768 -11.137509,-3.693867 -18.447329,-2.023728 -0.704401,0.160494 -1.406546,-0.280864 -1.567036,-0.985533 -0.161242,-0.704668 0.27835,-1.406828 0.984507,-1.567323 7.999426,-1.828376 14.861129,-1.040703 20.396532,2.342208 0.616883,0.378665 0.81248,1.183642 0.433824,1.800541 z m 2.570348,-5.718849 C 35.726682,28.340481 34.718605,28.58373 33.948754,28.109772 28.304017,24.639343 19.699492,23.6345 13.022855,25.661237 12.156961,25.922792 11.242419,25.43479 10.979616,24.57038 c -0.260796,-0.865915 0.227445,-1.778724 1.091834,-2.042035 7.626538,-2.314121 17.10774,-1.193172 23.590034,2.790337 0.76985,0.473959 1.013094,1.482062 0.539145,2.250927 z m 0.220675,-5.954324 c -6.768167,-4.020122 -17.934765,-4.389759 -24.396747,-2.428473 -1.037669,0.314719 -2.135019,-0.271084 -2.44948,-1.308777 -0.31446,-1.038196 0.270827,-2.13482 1.309248,-2.450291 7.417902,-2.251931 19.749305,-1.816841 27.5416,2.809145 0.935356,0.553954 1.24129,1.759414 0.687098,2.691532 -0.551685,0.933373 -1.760376,1.24107 -2.690716,0.686864 z"
     id="path913" />
  <circle
     style="opacity:0.4;fill:none;fill-opacity:1;fill-rule:evenodd;stroke:url(#linearGradient1500);stroke-width:0.89361703;stroke-linejoin:round;stroke-miterlimit:4;stroke-dasharray:none;stroke-opacity:1;paint-order:normal"
     id="path1492"
     cx="24.000002"
     cy="24"
     r="20.492142" />
</svg>
