<?xml version="1.0" encoding="UTF-8" standalone="no"?>
<svg
   xmlns:dc="http://purl.org/dc/elements/1.1/"
   xmlns:cc="http://creativecommons.org/ns#"
   xmlns:rdf="http://www.w3.org/1999/02/22-rdf-syntax-ns#"
   xmlns:svg="http://www.w3.org/2000/svg"
   xmlns="http://www.w3.org/2000/svg"
   xmlns:xlink="http://www.w3.org/1999/xlink"
   xmlns:sodipodi="http://sodipodi.sourceforge.net/DTD/sodipodi-0.dtd"
   xmlns:inkscape="http://www.inkscape.org/namespaces/inkscape"
   width="64"
   height="64"
   version="1"
   id="svg24"
   sodipodi:docname="twitter.svg"
   inkscape:version="0.92.4 5da689c313, 2019-01-14">
  <metadata
     id="metadata30">
    <rdf:RDF>
      <cc:Work
         rdf:about="">
        <dc:format>image/svg+xml</dc:format>
        <dc:type
           rdf:resource="http://purl.org/dc/dcmitype/StillImage" />
      </cc:Work>
    </rdf:RDF>
  </metadata>
  <defs
     id="defs28">
    <linearGradient
       inkscape:collect="always"
       id="linearGradient888">
      <stop
         style="stop-color:#ffffff;stop-opacity:1"
         offset="0"
         id="stop884" />
      <stop
         style="stop-color:#ffffff;stop-opacity:0"
         offset="1"
         id="stop886" />
    </linearGradient>
    <linearGradient
       inkscape:collect="always"
       id="linearGradient845">
      <stop
         style="stop-color:#0079f1;stop-opacity:1"
         offset="0"
         id="stop841" />
      <stop
         style="stop-color:#00c3f1;stop-opacity:1"
         offset="1"
         id="stop843" />
    </linearGradient>
    <linearGradient
       inkscape:collect="always"
       xlink:href="#linearGradient845"
       id="linearGradient847"
       x1="4"
       y1="51.019531"
       x2="52.337891"
       y2="14.927734"
       gradientUnits="userSpaceOnUse" />
    <linearGradient
       inkscape:collect="always"
       xlink:href="#linearGradient888"
       id="linearGradient890"
       x1="56.021866"
       y1="9.7434835"
       x2="60.00246"
       y2="16.336468"
       gradientUnits="userSpaceOnUse"
       gradientTransform="matrix(0.96721981,0,0,0.97884749,-12.944661,-0.05083356)" />
  </defs>
  <sodipodi:namedview
     pagecolor="#ffffff"
     bordercolor="#666666"
     borderopacity="1"
     objecttolerance="10"
     gridtolerance="10"
     guidetolerance="10"
     inkscape:pageopacity="0"
     inkscape:pageshadow="2"
     inkscape:window-width="1366"
     inkscape:window-height="691"
     id="namedview26"
     showgrid="false"
     inkscape:zoom="5.2149125"
     inkscape:cx="28.453366"
     inkscape:cy="36.85492"
     inkscape:window-x="0"
     inkscape:window-y="0"
     inkscape:window-maximized="1"
     inkscape:current-layer="svg24" />
  <path
     inkscape:connector-curvature="0"
     style="opacity:0.2;fill:#000000;fill-opacity:1"
     d="m 42.00005,10 c -6.627416,0 -12,5.372583 -12,12 0,1.398683 -0.04149,2.724297 -0.119141,3.994141 -0.0085,-1.89e-4 -0.01679,-0.002 -0.02539,-0.002 C 17.296281,25.992188 11.159847,20.393607 5.543019,14 4.551489,15.652706 4.00005,18.689352 4.00005,20.740234 c 0,3.882482 4.219651,7.165407 7.310547,9.171875 -1.888213,-0.05812 -5.71653,-0.906086 -7.269531,-1.74414 -0.0013,0.04666 -0.002,0.09342 -0.002,0.140625 C 4.039063,33.73034 11.309884,40.522442 15.416016,42 11.309884,42 7.477558,40.15625 6,40.15625 c 1.370045,4.154796 7.632077,7.313639 12.560547,7.783203 -3.461315,2.324601 -7.506012,4.240235 -11.83789,4.240235 C 5.800866,52.179688 4.893428,52.123228 4,52.019531 9.054141,55.205115 15.057931,56 21.507812,56 41.793982,56 53.198705,39.73843 53.957031,25.261719 56.137386,23.668227 58.516163,21.156371 60,19 59.648179,19.151614 59.267681,19.302216 58.892578,19.453125 59.290079,18.961513 59.676399,18.47027 60,18 c -1.530973,0.659758 -3.313962,1.344739 -5.080078,1.763672 1.521497,-1.335809 2.72446,-3.062975 3.349609,-4.962891 -0.171534,0.09884 -0.352619,0.189021 -0.53125,0.28125 0.202443,-0.417934 0.386931,-0.842644 0.53125,-1.28125 -1.734702,0.999571 -3.849133,1.644487 -5.93164,2.126953 C 50.252048,12.384443 46.409076,10 42,10 Z"
     id="path4-4" />
  <path
     style="opacity:1;fill:url(#linearGradient847);fill-opacity:1"
     d="M 42 9 C 35.372584 9 30 14.372583 30 21 C 30 22.398683 29.958508 23.724297 29.880859 24.994141 C 29.872312 24.993952 29.86407 24.992188 29.855469 24.992188 C 17.296231 24.992188 11.159797 19.393607 5.5429688 13 C 4.5514385 14.652706 3.9999998 17.689352 4 19.740234 C 4 23.622716 8.2196503 26.905641 11.310547 28.912109 C 9.4223337 28.853989 5.5940164 28.006023 4.0410156 27.167969 C 4.0396756 27.214629 4.0390625 27.261394 4.0390625 27.308594 C 4.0390625 32.73034 11.309884 39.522442 15.416016 41 C 11.309884 41 7.4775572 39.15625 6 39.15625 C 7.3700446 43.311046 13.632077 46.469889 18.560547 46.939453 C 15.099232 49.264054 11.054535 51.179688 6.7226562 51.179688 C 5.800866 51.179688 4.8934274 51.123231 4 51.019531 C 9.054141 54.205115 15.057931 55 21.507812 55 C 41.793982 55 53.198705 38.73843 53.957031 24.261719 C 56.137386 22.668227 58.516163 20.156371 60 18 C 59.648179 18.151614 59.267681 18.302216 58.892578 18.453125 C 59.290079 17.961513 59.676399 17.47027 60 17 C 58.469027 17.659758 56.686038 18.344739 54.919922 18.763672 C 56.441419 17.427863 57.644382 15.700697 58.269531 13.800781 C 58.097997 13.899623 57.916912 13.989802 57.738281 14.082031 C 57.940724 13.664097 58.125212 13.239387 58.269531 12.800781 C 56.534829 13.800352 54.420398 14.445268 52.337891 14.927734 C 50.252048 11.384443 46.409076 9 42 9 z "
     id="path4" />
  <path
     inkscape:connector-curvature="0"
     style="opacity:0.4;fill:none;fill-opacity:1;stroke:url(#linearGradient890);stroke-width:0.97301626;stroke-opacity:1"
     d="m 41.240796,9.4865504 c -6.410168,0 -11.606638,5.2589396 -11.606638,11.7461696 0,1.369097 -0.04013,2.666672 -0.115234,3.909655 -0.0082,-1.85e-4 -0.01624,-0.002 -0.02455,-0.002 -12.147544,4.6e-5 -18.082824,-5.480111 -23.5155322,-11.738477 -0.9590275,1.617748 -1.4923902,4.590161 -1.4923902,6.597661 0,3.800358 4.081329,7.01384 7.0709064,8.977866 -1.8263176,-0.05689 -5.5291426,-0.886919 -7.0312349,-1.707246 -0.00126,0.04568 -0.00193,0.09144 -0.00193,0.137651 -2.9e-6,5.307062 7.0324789,11.955494 11.0040119,13.401798 -3.971533,0 -7.6782353,-1.804751 -9.1073578,-1.804751 1.3251347,4.066912 7.3818968,7.158937 12.1488098,7.618569 -3.347853,2.275429 -7.259964,4.150543 -11.4498425,4.150543 -0.8915736,0 -1.7692666,-0.05527 -2.6334068,-0.156769 4.8884652,3.1182 10.6954503,3.896272 16.9339023,3.896272 19.621185,0 30.652059,-15.917597 31.385527,-30.088088 2.108883,-1.559787 4.409683,-4.018509 5.84488,-6.129269 -0.340288,0.148408 -0.708314,0.295824 -1.071121,0.443541 0.384471,-0.481214 0.758127,-0.962065 1.071121,-1.422388 -1.480788,0.645803 -3.205331,1.316295 -4.913553,1.726366 1.471623,-1.307553 2.635152,-2.998186 3.239809,-4.857913 -0.165911,0.09674 -0.341061,0.185023 -0.513835,0.275301 0.195807,-0.409095 0.374246,-0.82482 0.513835,-1.254148 -1.677838,0.978426 -3.722958,1.609701 -5.737201,2.081961 -2.017423,-3.468341 -5.734423,-5.8023466 -9.998968,-5.8023466 z"
     id="path4-5" />
</svg>
