<?xml version="1.0" encoding="UTF-8" standalone="no"?>
<svg
   xmlns:dc="http://purl.org/dc/elements/1.1/"
   xmlns:cc="http://creativecommons.org/ns#"
   xmlns:rdf="http://www.w3.org/1999/02/22-rdf-syntax-ns#"
   xmlns:svg="http://www.w3.org/2000/svg"
   xmlns="http://www.w3.org/2000/svg"
   xmlns:xlink="http://www.w3.org/1999/xlink"
   xmlns:sodipodi="http://sodipodi.sourceforge.net/DTD/sodipodi-0.dtd"
   xmlns:inkscape="http://www.inkscape.org/namespaces/inkscape"
   width="64"
   height="64"
   version="1.1"
   viewBox="0 0 48 48"
   id="svg14"
   sodipodi:docname="utilities-terminal_su.svg"
   inkscape:version="0.92.3 (2405546, 2018-03-11)">
  <metadata
     id="metadata20">
    <rdf:RDF>
      <cc:Work
         rdf:about="">
        <dc:format>image/svg+xml</dc:format>
        <dc:type
           rdf:resource="http://purl.org/dc/dcmitype/StillImage" />
        <dc:title></dc:title>
      </cc:Work>
    </rdf:RDF>
  </metadata>
  <defs
     id="defs18">
    <linearGradient
       id="linearGradient896"
       inkscape:collect="always">
      <stop
         id="stop892"
         offset="0"
         style="stop-color:#ffffff;stop-opacity:1" />
      <stop
         id="stop894"
         offset="1"
         style="stop-color:#ffffff;stop-opacity:0" />
    </linearGradient>
    <linearGradient
       inkscape:collect="always"
       id="linearGradient864">
      <stop
         style="stop-color:#000000;stop-opacity:1;"
         offset="0"
         id="stop860" />
      <stop
         style="stop-color:#000000;stop-opacity:0;"
         offset="1"
         id="stop862" />
    </linearGradient>
    <linearGradient
       inkscape:collect="always"
       xlink:href="#linearGradient864"
       id="linearGradient866"
       x1="193.9409"
       y1="359.58432"
       x2="194.30173"
       y2="343.67441"
       gradientUnits="userSpaceOnUse"
       gradientTransform="matrix(0.11914894,0,0,0.11914894,1.123404,337.1234)" />
    <linearGradient
       gradientTransform="matrix(0.11914894,0,0,-0.11914894,1.123405,382.87659)"
       inkscape:collect="always"
       xlink:href="#linearGradient896"
       id="linearGradient866-2"
       x1="193.9409"
       y1="359.58432"
       x2="194.30173"
       y2="343.67441"
       gradientUnits="userSpaceOnUse" />
  </defs>
  <sodipodi:namedview
     pagecolor="#ffffff"
     bordercolor="#666666"
     borderopacity="1"
     objecttolerance="10"
     gridtolerance="10"
     guidetolerance="10"
     inkscape:pageopacity="0"
     inkscape:pageshadow="2"
     inkscape:window-width="1366"
     inkscape:window-height="704"
     id="namedview16"
     showgrid="false"
     inkscape:zoom="11.313709"
     inkscape:cx="29.045814"
     inkscape:cy="26.652306"
     inkscape:window-x="0"
     inkscape:window-y="30"
     inkscape:window-maximized="1"
     inkscape:current-layer="g8"
     showguides="false" />
  <g
     id="g8"
     style="fill-rule:evenodd"
     transform="translate(0,-336)">
    <path
       d="M 4.860221,339 H 43.140248 C 44.167481,339 45,340.06076 45,341.3695 v 37.2604 C 45,379.9387 44.167453,381 43.140248,381 H 4.860221 C 3.832989,381 3,379.93864 3,378.6299 V 341.3695 C 3,340.06072 3.833036,339 4.860221,339 Z"
       id="path6"
       style="fill:#da0c0c;fill-opacity:1;stroke:none;stroke-width:1.83112109;stroke-linejoin:round;stroke-miterlimit:4;stroke-dasharray:none"
       inkscape:connector-curvature="0" />
    <path
       d="m 5.258968,380.5625 h 37.482523 c 1.005834,0 1.821008,-1.03866 1.821008,-2.32015 v -36.48413 c 0,-1.28153 -0.815202,-2.32073 -1.821008,-2.32073 H 5.258968 c -1.005831,0 -1.821467,1.03926 -1.821467,2.32073 v 36.48413 c 0,1.28153 0.815681,2.32015 1.821467,2.32015 z"
       id="path6-2-1"
       style="opacity:0.3;fill:none;fill-opacity:1;stroke:url(#linearGradient866-2);stroke-width:0.875;stroke-linejoin:round;stroke-miterlimit:4;stroke-dasharray:none;stroke-opacity:1"
       inkscape:connector-curvature="0" />
    <path
       d="m 5.258967,339.4375 h 37.482526 c 1.005832,0 1.821006,1.03865 1.821006,2.32015 v 36.48413 c 0,1.28152 -0.815202,2.32073 -1.821006,2.32073 H 5.258967 c -1.005832,0 -1.821467,-1.03926 -1.821467,-2.32073 v -36.48413 c 0,-1.28153 0.815681,-2.32015 1.821467,-2.32015 z"
       id="path6-2"
       style="fill:none;fill-opacity:1;stroke:url(#linearGradient866);stroke-width:0.87500006;stroke-linejoin:round;stroke-miterlimit:4;stroke-dasharray:none;stroke-opacity:1;opacity:0.2"
       inkscape:connector-curvature="0" />
  </g>
  <path
     d="m 17.901958,17.216851 v 0.645084 h -4.801345 v -0.645084 z"
     id="path10"
     inkscape:connector-curvature="0"
     style="fill:#ffffff;stroke-width:0.11914893" />
  <path
     d="m 9.804477,8.7036593 v 1.0774638 c -0.5264,0.059575 -0.938298,0.2154928 -1.233788,0.4700779 -0.327659,0.282979 -0.491954,0.669748 -0.491954,1.159844 0,0.451467 0.150795,0.806579 0.451468,1.065358 0.275532,0.234581 0.701858,0.406786 1.274298,0.517559 v 2.082724 C 9.533163,15.060396 9.267866,15.014319 9.008621,14.935661 8.695855,14.836061 8.385878,14.690381 8.0787,14.497693 v 0.812632 c 0.319283,0.135436 0.636708,0.237368 0.952262,0.306713 0.25785,0.05399 0.515688,0.08703 0.773539,0.100998 v 1.365566 h 0.808914 v -1.38463 c 0.556187,-0.0619 0.989496,-0.223869 1.297174,-0.487772 0.343018,-0.295084 0.514294,-0.696735 0.514294,-1.204953 0,-0.469614 -0.161041,-0.839631 -0.482648,-1.110504 -0.293214,-0.246209 -0.737234,-0.423074 -1.328749,-0.532453 v -1.94594 c 0.214099,0.01908 0.424003,0.05492 0.629249,0.109375 0.264368,0.06935 0.521742,0.166618 0.771216,0.293214 v -0.789827 c -0.249474,-0.081449 -0.504989,-0.1442772 -0.767022,-0.1894228 -0.205257,-0.0377 -0.416556,-0.06423 -0.633443,-0.079588 V 8.7036544 Z m 0,1.7239657 v 1.787711 C 9.519639,12.151107 9.305076,12.059418 9.162192,11.939339 8.993704,11.794597 8.909466,11.593069 8.909466,11.334289 c 0,-0.264368 0.09169,-0.476596 0.275067,-0.636231 0.150795,-0.13079 0.357911,-0.220617 0.619944,-0.270409 z m 0.808914,2.726962 c 0.309048,0.07168 0.541758,0.1736 0.696747,0.305319 0.186635,0.156383 0.279726,0.367217 0.279726,0.632049 0,0.270409 -0.09774,0.488702 -0.293214,0.65439 -0.161041,0.138237 -0.389557,0.235975 -0.683247,0.29462 z"
     id="path12"
     inkscape:connector-curvature="0"
     style="fill:#ffffff;stroke-width:0.11914893" />
</svg>
