<?xml version="1.0" encoding="UTF-8" standalone="no"?>
<svg
   xmlns:dc="http://purl.org/dc/elements/1.1/"
   xmlns:cc="http://creativecommons.org/ns#"
   xmlns:rdf="http://www.w3.org/1999/02/22-rdf-syntax-ns#"
   xmlns:svg="http://www.w3.org/2000/svg"
   xmlns="http://www.w3.org/2000/svg"
   xmlns:xlink="http://www.w3.org/1999/xlink"
   xmlns:sodipodi="http://sodipodi.sourceforge.net/DTD/sodipodi-0.dtd"
   xmlns:inkscape="http://www.inkscape.org/namespaces/inkscape"
   width="64"
   height="64"
   version="1"
   id="svg12"
   sodipodi:docname="utilities-tweak-tool.svg"
   inkscape:version="0.92.4 5da689c313, 2019-01-14">
  <metadata
     id="metadata18">
    <rdf:RDF>
      <cc:Work
         rdf:about="">
        <dc:format>image/svg+xml</dc:format>
        <dc:type
           rdf:resource="http://purl.org/dc/dcmitype/StillImage" />
        <dc:title />
      </cc:Work>
    </rdf:RDF>
  </metadata>
  <defs
     id="defs16">
    <linearGradient
       id="linearGradient4679"
       inkscape:collect="always">
      <stop
         id="stop4675"
         offset="0"
         style="stop-color:#ffffff;stop-opacity:1" />
      <stop
         id="stop4677"
         offset="1"
         style="stop-color:#ffffff;stop-opacity:0" />
    </linearGradient>
    <linearGradient
       inkscape:collect="always"
       id="linearGradient4607">
      <stop
         style="stop-color:#646464;stop-opacity:1;"
         offset="0"
         id="stop4603" />
      <stop
         style="stop-color:#8c8c8c;stop-opacity:1"
         offset="1"
         id="stop4605" />
    </linearGradient>
    <linearGradient
       inkscape:collect="always"
       id="linearGradient4535">
      <stop
         style="stop-color:#dcdcdc;stop-opacity:1"
         offset="0"
         id="stop4531" />
      <stop
         style="stop-color:#f0f0f0;stop-opacity:1"
         offset="1"
         id="stop4533" />
    </linearGradient>
    <linearGradient
       inkscape:collect="always"
       xlink:href="#linearGradient4535"
       id="linearGradient4537"
       x1="30.529007"
       y1="4"
       x2="33.508476"
       y2="59.389832"
       gradientUnits="userSpaceOnUse"
       gradientTransform="matrix(0.70370369,0,0,-0.71428571,9.4814817,54.857142)" />
    <linearGradient
       inkscape:collect="always"
       xlink:href="#linearGradient4607"
       id="linearGradient4609"
       x1="4"
       y1="32"
       x2="60"
       y2="32"
       gradientUnits="userSpaceOnUse"
       gradientTransform="translate(-64)" />
    <linearGradient
       gradientTransform="translate(64.000001)"
       inkscape:collect="always"
       xlink:href="#linearGradient4679"
       id="linearGradient4649-8"
       x1="-60"
       y1="32"
       x2="-40.570034"
       y2="32"
       gradientUnits="userSpaceOnUse" />
    <filter
       inkscape:collect="always"
       style="color-interpolation-filters:sRGB"
       id="filter4721"
       x="-0.049263158"
       width="1.0985263"
       y="-0.0468"
       height="1.0936">
      <feGaussianBlur
         inkscape:collect="always"
         stdDeviation="0.78"
         id="feGaussianBlur4723" />
    </filter>
  </defs>
  <sodipodi:namedview
     pagecolor="#ffffff"
     bordercolor="#666666"
     borderopacity="1"
     objecttolerance="10"
     gridtolerance="10"
     guidetolerance="10"
     inkscape:pageopacity="0"
     inkscape:pageshadow="2"
     inkscape:window-width="1366"
     inkscape:window-height="691"
     id="namedview14"
     showgrid="false"
     inkscape:zoom="8.09375"
     inkscape:cx="32"
     inkscape:cy="32"
     inkscape:window-x="0"
     inkscape:window-y="0"
     inkscape:window-maximized="1"
     inkscape:current-layer="svg12" />
  <rect
     style="opacity:0.2;fill:#000000;fill-opacity:1;stroke:none;stroke-width:0.86149424;stroke-miterlimit:4;stroke-dasharray:none;stroke-opacity:0"
     id="rect4601-5"
     width="56"
     height="56"
     x="-61"
     y="4"
     rx="28"
     ry="28"
     transform="rotate(-90)" />
  <rect
     style="opacity:1;fill:url(#linearGradient4609);fill-opacity:1;stroke:none;stroke-width:0.86149424;stroke-miterlimit:4;stroke-dasharray:none;stroke-opacity:0"
     id="rect4601"
     width="56"
     height="56"
     x="-60"
     y="4"
     rx="28"
     ry="28"
     transform="rotate(-90)" />
  <path
     style="fill:#000000;fill-opacity:1;stroke:none;stroke-width:0.72662705;filter:url(#filter4721)"
     d="m 30.964856,53 c -2.293237,0 -4.139128,-1.783721 -4.139128,-3.999721 v -1.875 a 15.522816,15 0 0 1 -4.895635,-2.73298 l -1.681927,0.9375 c -1.986002,1.108 -4.508411,0.454268 -5.65503,-1.464843 l -1.035143,-1.729912 c -1.146618,-1.919113 -0.470102,-4.356564 1.5159,-5.464564 l 1.674709,-0.93471 A 15.522816,15 0 0 1 16.477183,33 15.522816,15 0 0 1 16.748602,30.26423 l -1.674709,-0.93471 c -1.986002,-1.108 -2.662518,-3.545452 -1.5159,-5.464564 l 1.035143,-1.729912 c 1.146619,-1.919112 3.669029,-2.572843 5.65503,-1.464843 l 1.670376,0.93192 a 15.522816,15 0 0 1 4.907186,-2.723215 V 16.999721 C 26.825728,14.783721 28.671619,13 30.964856,13 h 2.070287 c 2.293238,0 4.139129,1.783721 4.139129,3.999721 v 1.88616 a 15.522816,15 0 0 1 4.895635,2.72182 l 1.681928,-0.9375 c 1.986001,-1.108 4.508409,-0.454269 5.655028,1.464843 l 1.035143,1.729912 c 1.146619,1.919112 0.470101,4.356564 -1.5159,5.464564 l -1.674709,0.93471 A 15.522816,15 0 0 1 47.522815,33 15.522816,15 0 0 1 47.251397,35.73577 l 1.674709,0.93471 c 1.986002,1.108 2.662519,3.545451 1.5159,5.464564 l -1.035143,1.729912 c -1.146619,1.919113 -3.669028,2.572843 -5.655028,1.464843 l -1.670379,-0.93192 a 15.522816,15 0 0 1 -4.907184,2.72461 v 1.87779 c 0,2.216 -1.845891,3.999721 -4.139129,3.999721 z m 1.035143,-11.429966 c 4.898721,0 8.870181,-3.8377 8.870181,-8.571429 0,-4.733729 -3.97146,-8.570034 -8.870181,-8.570034 -4.89872,0 -8.870179,3.836305 -8.870179,8.570034 0,4.733729 3.971459,8.571429 8.870179,8.571429 z"
     id="path4-6"
     inkscape:connector-curvature="0" />
  <path
     style="fill:url(#linearGradient4537);fill-opacity:1;stroke-width:0.72662705"
     d="m 30.964856,52 c -2.293237,0 -4.139128,-1.783721 -4.139128,-3.999721 v -1.875 a 15.522816,15 0 0 1 -4.895635,-2.73298 l -1.681927,0.9375 c -1.986002,1.108 -4.508411,0.454268 -5.65503,-1.464843 l -1.035143,-1.729912 c -1.146618,-1.919113 -0.470102,-4.356564 1.5159,-5.464564 l 1.674709,-0.93471 A 15.522816,15 0 0 1 16.477183,32 15.522816,15 0 0 1 16.748602,29.26423 l -1.674709,-0.93471 c -1.986002,-1.108 -2.662518,-3.545452 -1.5159,-5.464564 l 1.035143,-1.729912 c 1.146619,-1.919112 3.669029,-2.572843 5.65503,-1.464843 l 1.670376,0.93192 a 15.522816,15 0 0 1 4.907186,-2.723215 V 15.999721 C 26.825728,13.783721 28.671619,12 30.964856,12 h 2.070287 c 2.293238,0 4.139129,1.783721 4.139129,3.999721 v 1.88616 a 15.522816,15 0 0 1 4.895635,2.72182 l 1.681928,-0.9375 c 1.986001,-1.108 4.508409,-0.454269 5.655028,1.464843 l 1.035143,1.729912 c 1.146619,1.919112 0.470101,4.356564 -1.5159,5.464564 l -1.674709,0.93471 A 15.522816,15 0 0 1 47.522815,32 15.522816,15 0 0 1 47.251397,34.73577 l 1.674709,0.93471 c 1.986002,1.108 2.662519,3.545451 1.5159,5.464564 l -1.035143,1.729912 c -1.146619,1.919113 -3.669028,2.572843 -5.655028,1.464843 l -1.670379,-0.93192 a 15.522816,15 0 0 1 -4.907184,2.72461 v 1.87779 c 0,2.216 -1.845891,3.999721 -4.139129,3.999721 z m 1.035143,-11.429966 c 4.898721,0 8.870181,-3.8377 8.870181,-8.571429 0,-4.733729 -3.97146,-8.570034 -8.870181,-8.570034 -4.89872,0 -8.870179,3.836305 -8.870179,8.570034 0,4.733729 3.971459,8.571429 8.870179,8.571429 z"
     id="path4"
     inkscape:connector-curvature="0" />
  <rect
     style="opacity:0.5;fill:none;fill-opacity:1;stroke:url(#linearGradient4649-8);stroke-width:0.9972924;stroke-miterlimit:4;stroke-dasharray:none;stroke-opacity:1"
     id="rect4601-7-0"
     width="55.002708"
     height="55.002708"
     x="4.4986458"
     y="4.4986458"
     rx="27.501354"
     ry="27.501354"
     transform="matrix(0,1,1,0,0,0)" />
</svg>
