<?xml version="1.0" encoding="UTF-8" standalone="no"?>
<svg
   xmlns:dc="http://purl.org/dc/elements/1.1/"
   xmlns:cc="http://creativecommons.org/ns#"
   xmlns:rdf="http://www.w3.org/1999/02/22-rdf-syntax-ns#"
   xmlns:svg="http://www.w3.org/2000/svg"
   xmlns="http://www.w3.org/2000/svg"
   xmlns:sodipodi="http://sodipodi.sourceforge.net/DTD/sodipodi-0.dtd"
   xmlns:inkscape="http://www.inkscape.org/namespaces/inkscape"
   width="64"
   height="64"
   version="1.1"
   viewBox="0 0 48 48"
   id="svg12"
   sodipodi:docname="whatsapp.svg"
   inkscape:version="0.92.4 5da689c313, 2019-01-14">
  <metadata
     id="metadata18">
    <rdf:RDF>
      <cc:Work
         rdf:about="">
        <dc:format>image/svg+xml</dc:format>
        <dc:type
           rdf:resource="http://purl.org/dc/dcmitype/StillImage" />
        <dc:title />
      </cc:Work>
    </rdf:RDF>
  </metadata>
  <defs
     id="defs16">
    <linearGradient
       id="linearGradient2630"
       x2="1"
       gradientTransform="matrix(0,-42.187582,42.187582,0,23.999996,45.09709)"
       gradientUnits="userSpaceOnUse">
      <stop
         stop-color="#f9f9f9"
         offset="0"
         id="stop963" />
      <stop
         stop-color="#fff"
         offset="1"
         id="stop965" />
    </linearGradient>
    <linearGradient
       id="linearGradient2628"
       x2="1"
       gradientTransform="matrix(0,-40.727642,40.727642,0,23.999879,44.361702)"
       gradientUnits="userSpaceOnUse">
      <stop
         stop-color="#20b038"
         offset="0"
         id="stop958" />
      <stop
         stop-color="#60d66a"
         offset="1"
         id="stop960" />
    </linearGradient>
    <linearGradient
       id="linearGradient2630-0"
       x2="1"
       gradientTransform="matrix(0,-42.187581,42.187581,0,12.32453,62.979179)"
       gradientUnits="userSpaceOnUse">
      <stop
         stop-color="#f9f9f9"
         offset="0"
         id="stop963-0" />
      <stop
         stop-color="#fff"
         offset="1"
         id="stop965-7" />
    </linearGradient>
  </defs>
  <sodipodi:namedview
     pagecolor="#ffffff"
     bordercolor="#666666"
     borderopacity="1"
     objecttolerance="10"
     gridtolerance="10"
     guidetolerance="10"
     inkscape:pageopacity="0"
     inkscape:pageshadow="2"
     inkscape:window-width="1366"
     inkscape:window-height="691"
     id="namedview14"
     showgrid="false"
     inkscape:zoom="8.09375"
     inkscape:cx="32"
     inkscape:cy="32"
     inkscape:window-x="0"
     inkscape:window-y="0"
     inkscape:window-maximized="1"
     inkscape:current-layer="svg12" />
  <path
     inkscape:connector-curvature="0"
     style="opacity:0.2;fill:#000000;fill-opacity:1;stroke-width:0.60278302"
     d="m 3.1758681,24.841941 c -0.0013,3.684151 0.9613811,7.281007 2.791245,10.451045 L 3.0002102,46.125 14.085994,43.218319 c 3.054485,1.665669 6.493185,2.5435 9.99294,2.544946 h 0.0091 c 11.524615,0 20.906928,-9.379299 20.911753,-20.905115 0.0026,-5.586285 -2.171554,-10.838638 -6.119426,-14.789889 C 34.931929,6.117025 29.681923,3.939773 24.0881,3.93736 c -11.527016,0 -20.9075278,9.3775 -20.9123528,20.903915 M 9.7774291,34.746804 9.36361,34.08953 C 7.623495,31.322997 6.7050951,28.1256 6.7063601,24.84284 6.7102601,15.262805 14.506986,7.468218 24.094244,7.468218 c 4.642755,0.0013 9.006181,1.811788 12.288341,5.095684 3.281782,3.284141 5.087599,7.649927 5.086334,12.292567 -0.0039,9.580633 -7.801214,17.375821 -17.381248,17.375821 h -0.0065 c -3.119334,-0.0013 -6.178526,-0.83914 -8.846445,-2.422286 L 14.599867,39.433611 8.0210861,41.158418 Z M 24.0881,45.763265 h 2.39e-4 -2.39e-4 c -2.38e-4,0 -4.77e-4,0 0,0"
     id="path980-6" />
  <path
     inkscape:connector-curvature="0"
     style="fill:#ffffff;stroke-width:0.60278302"
     d="m 14.599599,38.400182 0.634976,0.376393 c 2.668102,1.583395 5.727046,2.420774 8.846446,2.422469 h 0.0065 c 9.580034,0 17.377021,-7.795188 17.380647,-17.375823 0.0013,-4.643186 -1.804551,-9.008594 -5.086112,-12.293166 C 33.10021,8.2460955 28.736902,6.4363017 24.093663,6.4343716 c -9.587272,0 -17.3842721,7.7939884 -17.3878851,17.3746224 -0.0013,3.283061 0.917135,6.480521 2.657253,9.24669 l 0.413597,0.657509 -1.756275,6.411811 z M 3.0002479,45.091676 5.9669029,34.259061 C 4.1370389,31.088672 3.1743919,27.49222 3.1758919,23.808017 3.1797919,12.2816 12.56063,2.9040994 24.088245,2.9040994 c 5.593719,0.00261 10.844077,2.1794176 14.792301,6.1309027 3.947807,3.9514319 6.121265,9.2039029 6.119453,14.7898889 -0.0052,11.525816 -9.387137,20.905116 -20.911754,20.905116 -8.34e-4,0 4.77e-4,0 0,0 h -0.0091 c -3.499756,-0.0012 -6.938626,-0.879096 -9.992927,-2.544947 z"
     id="path976" />
  <path
     inkscape:connector-curvature="0"
     style="fill:url(#linearGradient2628);stroke-width:0.60278302"
     d="m 3.8965839,23.818867 c -0.0013,3.556352 0.927984,7.028449 2.694926,10.089375 L 3.7273289,44.365926 14.429133,41.5598 c 2.94858,1.606777 6.268349,2.455006 9.646946,2.4561 h 0.0091 c 11.126172,0 20.182377,-9.053804 20.187202,-20.181189 C 44.274981,18.442156 42.176502,13.372215 38.3648,9.5572008 34.553725,5.7427215 29.485218,3.640883 24.084279,3.6383535 12.957507,3.6383535 3.9013009,12.690947 3.8964769,23.818918 M 24.084881,44.015771 h 2.38e-4 -2.38e-4 c -2.39e-4,0 -3.58e-4,0 0,0"
     id="path978" />
  <path
     inkscape:connector-curvature="0"
     style="fill:url(#linearGradient2630);stroke-width:0.60278302"
     d="m 3.1756579,23.812841 c -0.0013,3.684152 0.961381,7.281008 2.791245,10.451046 L 2.9999999,45.095901 14.085785,42.18922 c 3.054484,1.665669 6.493185,2.5435 9.99294,2.544946 h 0.0091 c 11.524615,0 20.906928,-9.379299 20.911754,-20.905115 C 45.002179,18.242765 42.828024,12.990412 38.880152,9.0391616 34.93172,5.0879255 29.681713,2.9106729 24.087891,2.9082601 12.560874,2.9082601 3.1803619,12.28576 3.1755369,23.812176 m 6.601682,9.905529 -0.413819,-0.657274 c -1.740115,-2.766533 -2.658515,-5.96393 -2.65725,-9.24669 0.0039,-9.580035 7.8006261,-17.3746225 17.3878851,-17.3746225 4.642755,0.0013 9.006181,1.8117883 12.288341,5.0956835 3.281782,3.284142 5.087598,7.649928 5.086334,12.292567 -0.0039,9.580634 -7.801214,17.375822 -17.381248,17.375822 h -0.0065 c -3.119334,-0.0013 -6.178526,-0.83914 -8.846446,-2.422286 L 14.599658,38.404512 8.0208759,40.129319 Z M 24.087891,44.734166 h 2.38e-4 -2.38e-4 c -2.39e-4,0 -4.77e-4,0 0,0"
     id="path980" />
  <path
     inkscape:connector-curvature="0"
     style="fill:#ffffff;fill-rule:evenodd;stroke-width:0.60278302"
     d="m 18.861282,15.07248 c -0.391493,-0.870176 -0.803396,-0.887598 -1.175731,-0.902907 -0.304721,-0.01304 -0.653232,-0.01174 -1.00134,-0.01174 -0.348537,0 -0.914605,0.130784 -1.393275,0.653662 -0.4791,0.522904 -1.828962,1.786881 -1.828962,4.357569 0,2.570938 1.872597,5.055062 2.133488,5.404017 0.261334,0.348316 3.614827,5.792563 8.925407,7.886812 4.413944,1.740534 5.312145,1.394357 6.27015,1.307141 0.958005,-0.08698 3.091493,-1.263559 3.526763,-2.483707 0.435506,-1.219978 0.435506,-2.265747 0.30493,-2.484139 -0.130563,-0.217752 -0.479088,-0.348524 -1.001574,-0.609649 -0.522695,-0.261349 -3.091493,-1.525521 -3.570345,-1.699914 -0.4791,-0.174157 -0.827442,-0.261138 -1.17598,0.261987 -0.348315,0.522473 -1.349028,1.699065 -1.653971,2.047589 -0.304721,0.349177 -0.609649,0.392771 -1.132149,0.131411 -0.522695,-0.262182 -2.205577,-0.813384 -4.201942,-2.593223 -1.553363,-1.384955 -2.601974,-3.095301 -2.906916,-3.618452 -0.304721,-0.522474 -0.03247,-0.805495 0.22945,-1.066021 0.234771,-0.234131 0.522694,-0.610081 0.784043,-0.915023 0.260695,-0.30515 0.347676,-0.522903 0.521834,-0.87144 0.174379,-0.348747 0.08724,-0.653898 -0.04342,-0.915271 -0.130772,-0.261348 -1.146195,-2.84526 -1.61082,-3.878483"
     id="path982" />
</svg>
