<?xml version="1.0" encoding="UTF-8" standalone="no"?>
<svg
   xmlns:dc="http://purl.org/dc/elements/1.1/"
   xmlns:cc="http://creativecommons.org/ns#"
   xmlns:rdf="http://www.w3.org/1999/02/22-rdf-syntax-ns#"
   xmlns:svg="http://www.w3.org/2000/svg"
   xmlns="http://www.w3.org/2000/svg"
   xmlns:xlink="http://www.w3.org/1999/xlink"
   xmlns:sodipodi="http://sodipodi.sourceforge.net/DTD/sodipodi-0.dtd"
   xmlns:inkscape="http://www.inkscape.org/namespaces/inkscape"
   width="64"
   height="64"
   version="1"
   id="svg16"
   sodipodi:docname="yast.svg"
   inkscape:version="0.92.4 5da689c313, 2019-01-14">
  <metadata
     id="metadata22">
    <rdf:RDF>
      <cc:Work
         rdf:about="">
        <dc:format>image/svg+xml</dc:format>
        <dc:type
           rdf:resource="http://purl.org/dc/dcmitype/StillImage" />
        <dc:title />
      </cc:Work>
    </rdf:RDF>
  </metadata>
  <defs
     id="defs20">
    <linearGradient
       inkscape:collect="always"
       id="linearGradient833">
      <stop
         style="stop-color:#c8c8c8;stop-opacity:1"
         offset="0"
         id="stop829" />
      <stop
         style="stop-color:#dcdcdc;stop-opacity:1"
         offset="1"
         id="stop831" />
    </linearGradient>
    <linearGradient
       inkscape:collect="always"
       xlink:href="#linearGradient833"
       id="linearGradient835"
       x1="33.016949"
       y1="58.576271"
       x2="32.203388"
       y2="5.1525426"
       gradientUnits="userSpaceOnUse" />
  </defs>
  <sodipodi:namedview
     pagecolor="#ffffff"
     bordercolor="#666666"
     borderopacity="1"
     objecttolerance="10"
     gridtolerance="10"
     guidetolerance="10"
     inkscape:pageopacity="0"
     inkscape:pageshadow="2"
     inkscape:window-width="1366"
     inkscape:window-height="691"
     id="namedview18"
     showgrid="false"
     inkscape:zoom="8.09375"
     inkscape:cx="32"
     inkscape:cy="32"
     inkscape:window-x="0"
     inkscape:window-y="0"
     inkscape:window-maximized="1"
     inkscape:current-layer="svg16" />
  <rect
     style="opacity:0.2;fill:#000000;fill-opacity:1;stroke-width:1"
     width="56"
     height="56"
     x="4"
     y="5"
     rx="3"
     ry="3"
     id="rect2-7" />
  <rect
     style="fill:url(#linearGradient835);fill-opacity:1"
     width="56"
     height="56"
     x="4"
     y="4"
     rx="3"
     ry="3"
     id="rect2" />
  <path
     style="fill:#ffffff;opacity:0.4"
     d="m7 4c-1.662 0-3 1.338-3 3v1c0-1.662 1.338-3 3-3h50c1.662 0 3 1.338 3 3v-1c0-1.662-1.338-3-3-3h-50z"
     id="path4" />
  <path
     style="opacity:.3"
     d="m15 16c-1.662 0-3 1.338-3 3v30c0 1.662 1.338 3 3 3s3-1.338 3-3v-30c0-1.662-1.338-3-3-3zm16 0c-1.662 0-3 1.338-3 3v30c0 1.662 1.338 3 3 3s3-1.338 3-3v-30c0-1.662-1.338-3-3-3zm16 0c-1.662 0-3 1.338-3 3v30c0 1.662 1.338 3 3 3s3-1.338 3-3v-30c0-1.662-1.338-3-3-3z"
     id="path6" />
  <path
     style="fill:#0066cc"
     d="m12 29v20c0 1.662 1.338 3 3 3s3-1.338 3-3v-20h-6zm32 2v18c0 1.662 1.338 3 3 3s3-1.338 3-3v-18h-6zm-16 10v8c0 1.662 1.338 3 3 3s3-1.338 3-3v-8h-6z"
     id="path10" />
  <path
     style="opacity:.2"
     d="m15 24c-3.313708 0-6 2.686292-6 6s2.686292 6 6 6 6-2.686292 6-6-2.686292-6-6-6zm32 3c-3.313708 0-6 2.686292-6 6s2.686292 6 6 6 6-2.686292 6-6-2.686292-6-6-6zm-16 7c-3.313708 0-6 2.686292-6 6s2.686292 6 6 6 6-2.686292 6-6-2.686292-6-6-6z"
     id="path12" />
  <path
     style="fill:#ffffff"
     d="m15 23c-3.313708 0-6 2.686292-6 6s2.686292 6 6 6 6-2.686292 6-6-2.686292-6-6-6zm32 3c-3.313708 0-6 2.686292-6 6s2.686292 6 6 6 6-2.686292 6-6-2.686292-6-6-6zm-16 7c-3.313708 0-6 2.686292-6 6s2.686292 6 6 6 6-2.686292 6-6-2.686292-6-6-6z"
     id="path14" />
</svg>
