<?xml version="1.0" encoding="UTF-8" standalone="no"?>
<svg
   xmlns:dc="http://purl.org/dc/elements/1.1/"
   xmlns:cc="http://creativecommons.org/ns#"
   xmlns:rdf="http://www.w3.org/1999/02/22-rdf-syntax-ns#"
   xmlns:svg="http://www.w3.org/2000/svg"
   xmlns="http://www.w3.org/2000/svg"
   xmlns:xlink="http://www.w3.org/1999/xlink"
   xmlns:sodipodi="http://sodipodi.sourceforge.net/DTD/sodipodi-0.dtd"
   xmlns:inkscape="http://www.inkscape.org/namespaces/inkscape"
   width="48"
   height="48"
   version="1"
   id="svg22"
   sodipodi:docname="camera-photo.svg"
   inkscape:version="0.92.3 (2405546, 2018-03-11)">
  <metadata
     id="metadata28">
    <rdf:RDF>
      <cc:Work
         rdf:about="">
        <dc:format>image/svg+xml</dc:format>
        <dc:type
           rdf:resource="http://purl.org/dc/dcmitype/StillImage" />
      </cc:Work>
    </rdf:RDF>
  </metadata>
  <defs
     id="defs26">
    <linearGradient
       inkscape:collect="always"
       id="linearGradient839">
      <stop
         style="stop-color:#dcdcdc;stop-opacity:1;"
         offset="0"
         id="stop835" />
      <stop
         style="stop-color:#f0f0f0;stop-opacity:1"
         offset="1"
         id="stop837" />
    </linearGradient>
    <linearGradient
       inkscape:collect="always"
       xlink:href="#linearGradient839"
       id="linearGradient841"
       x1="-41"
       y1="-24"
       x2="-9"
       y2="-24"
       gradientUnits="userSpaceOnUse" />
  </defs>
  <sodipodi:namedview
     pagecolor="#ffffff"
     bordercolor="#666666"
     borderopacity="1"
     objecttolerance="10"
     gridtolerance="10"
     guidetolerance="10"
     inkscape:pageopacity="0"
     inkscape:pageshadow="2"
     inkscape:window-width="1366"
     inkscape:window-height="704"
     id="namedview24"
     showgrid="false"
     inkscape:zoom="27.812867"
     inkscape:cx="21.627101"
     inkscape:cy="9.4402543"
     inkscape:window-x="0"
     inkscape:window-y="30"
     inkscape:window-maximized="1"
     inkscape:current-layer="svg22" />
  <rect
     style="fill:#4f4f4f"
     width="7"
     height="4"
     x="7"
     y="7"
     rx="1"
     ry="1"
     id="rect4" />
  <rect
     style="fill:url(#linearGradient841);fill-opacity:1"
     width="32"
     height="40"
     x="-41"
     y="-44"
     rx="2"
     ry="2"
     transform="matrix(0,-1,-1,0,0,0)"
     id="rect6" />
  <circle
     style="opacity:0.4"
     cx="24"
     cy="25"
     r="13"
     id="circle8" />
  <circle
     style="opacity:0.2"
     cx="24"
     cy="-26"
     r="11"
     transform="scale(1,-1)"
     id="circle10" />
  <circle
     fill="#009587"
     cx="24"
     cy="-25"
     r="11"
     transform="scale(1,-1)"
     id="circle12" />
  <circle
     style="opacity:0.40"
     cx="39"
     cy="14"
     r="2"
     id="circle14" />
  <circle
     opacity=".2"
     cx="24"
     cy="26"
     r="6"
     id="circle16" />
  <circle
     fill="#66bfb7"
     cx="24"
     cy="25"
     r="6"
     id="circle18" />
  <path
     style="opacity:0.4;fill:#ffffff"
     d="m42 9c1.108 0 2 0.892 2 2v1c0-1.108-0.892-2-2-2h-36c-1.108 0-2 0.892-2 2v-1c0-1.108 0.892-2 2-2h36z"
     id="path20" />
  <path
     inkscape:connector-curvature="0"
     style="opacity:0.2;fill:#000000;fill-opacity:1"
     d="m 42,41 c 1.108,0 2,-0.892 2,-2 v -1 c 0,1.108 -0.892,2 -2,2 H 6 C 4.892,40 4,39.108 4,38 v 1 c 0,1.108 0.892,2 2,2 z"
     id="path20-3" />
</svg>
