<?xml version="1.0" encoding="UTF-8" standalone="no"?>
<svg
   xmlns:dc="http://purl.org/dc/elements/1.1/"
   xmlns:cc="http://creativecommons.org/ns#"
   xmlns:rdf="http://www.w3.org/1999/02/22-rdf-syntax-ns#"
   xmlns:svg="http://www.w3.org/2000/svg"
   xmlns="http://www.w3.org/2000/svg"
   xmlns:xlink="http://www.w3.org/1999/xlink"
   xmlns:sodipodi="http://sodipodi.sourceforge.net/DTD/sodipodi-0.dtd"
   xmlns:inkscape="http://www.inkscape.org/namespaces/inkscape"
   width="48"
   height="48"
   version="1"
   id="svg10"
   sodipodi:docname="drive-optical.svg"
   inkscape:version="0.92.3 (2405546, 2018-03-11)">
  <metadata
     id="metadata16">
    <rdf:RDF>
      <cc:Work
         rdf:about="">
        <dc:format>image/svg+xml</dc:format>
        <dc:type
           rdf:resource="http://purl.org/dc/dcmitype/StillImage" />
        <dc:title></dc:title>
      </cc:Work>
    </rdf:RDF>
  </metadata>
  <defs
     id="defs14">
    <linearGradient
       inkscape:collect="always"
       id="linearGradient842">
      <stop
         style="stop-color:#d2d2d2;stop-opacity:1"
         offset="0"
         id="stop838" />
      <stop
         style="stop-color:#dcdcdc;stop-opacity:1"
         offset="1"
         id="stop840" />
    </linearGradient>
    <linearGradient
       inkscape:collect="always"
       xlink:href="#linearGradient842"
       id="linearGradient844"
       x1="-60"
       y1="-32"
       x2="-4"
       y2="-32"
       gradientUnits="userSpaceOnUse"
       gradientTransform="matrix(0.71428571,0,0,0.71428571,-1.1428576,-1.0460051)" />
  </defs>
  <sodipodi:namedview
     pagecolor="#ffffff"
     bordercolor="#666666"
     borderopacity="1"
     objecttolerance="10"
     gridtolerance="10"
     guidetolerance="10"
     inkscape:pageopacity="0"
     inkscape:pageshadow="2"
     inkscape:window-width="1366"
     inkscape:window-height="704"
     id="namedview12"
     showgrid="false"
     inkscape:zoom="5.2149125"
     inkscape:cx="14.670008"
     inkscape:cy="30.004598"
     inkscape:window-x="0"
     inkscape:window-y="30"
     inkscape:window-maximized="1"
     inkscape:current-layer="svg10" />
  <rect
     style="fill:url(#linearGradient844);fill-opacity:1;stroke-width:0.71428573"
     width="40"
     height="40"
     x="-44"
     y="-43.903149"
     rx="1.7857143"
     ry="1.7857143"
     transform="matrix(0,-1,-1,0,0,0)"
     id="rect4" />
  <path
     style="opacity:0.5;stroke-width:0.71428573"
     d="M 23.903148,9.7142857 A 14.285714,14.285714 0 0 0 9.6174337,24 14.285714,14.285714 0 0 0 23.903148,38.285714 14.285714,14.285714 0 0 0 38.188862,24 14.285714,14.285714 0 0 0 23.903148,9.7142857 Z m 0,8.5714283 A 5.7142857,5.7142857 0 0 1 29.617434,24 5.7142857,5.7142857 0 0 1 23.903148,29.714286 5.7142857,5.7142857 0 0 1 18.188862,24 5.7142857,5.7142857 0 0 1 23.903148,18.285714 Z"
     id="path6"
     inkscape:connector-curvature="0" />
  <path
     style="opacity:0.4;fill:#ffffff;stroke-width:0.71428573"
     d="M 5.6888623,4 C 4.6995766,4 3.903148,4.7964286 3.903148,5.7857143 V 6.5 c 0,-0.9892857 0.7964286,-1.7857143 1.7857143,-1.7857143 H 42.117434 c 0.992857,0 1.785714,0.7964286 1.785714,1.7857143 V 5.7857143 C 43.903148,4.7964286 43.110291,4 42.117434,4 Z"
     id="path8"
     inkscape:connector-curvature="0" />
  <path
     inkscape:connector-curvature="0"
     style="opacity:0.2;fill:#000000;stroke-width:0.71428573"
     d="M 5.8825669,44 C 4.8932812,44 4.0968526,43.203571 4.0968526,42.214286 V 41.5 c 0,0.989286 0.7964286,1.785714 1.7857143,1.785714 H 42.311138 c 0.992857,0 1.785714,-0.796428 1.785714,-1.785714 v 0.714286 C 44.096852,43.203571 43.303995,44 42.311138,44 Z"
     id="path8-3" />
</svg>
