<?xml version="1.0" encoding="UTF-8" standalone="no"?>
<svg
   xmlns:dc="http://purl.org/dc/elements/1.1/"
   xmlns:cc="http://creativecommons.org/ns#"
   xmlns:rdf="http://www.w3.org/1999/02/22-rdf-syntax-ns#"
   xmlns:svg="http://www.w3.org/2000/svg"
   xmlns="http://www.w3.org/2000/svg"
   xmlns:sodipodi="http://sodipodi.sourceforge.net/DTD/sodipodi-0.dtd"
   xmlns:inkscape="http://www.inkscape.org/namespaces/inkscape"
   width="48"
   height="48"
   version="1"
   id="svg20"
   sodipodi:docname="phone.svg"
   inkscape:version="0.92.3 (2405546, 2018-03-11)">
  <metadata
     id="metadata26">
    <rdf:RDF>
      <cc:Work
         rdf:about="">
        <dc:format>image/svg+xml</dc:format>
        <dc:type
           rdf:resource="http://purl.org/dc/dcmitype/StillImage" />
      </cc:Work>
    </rdf:RDF>
  </metadata>
  <defs
     id="defs24" />
  <sodipodi:namedview
     pagecolor="#ffffff"
     bordercolor="#666666"
     borderopacity="1"
     objecttolerance="10"
     gridtolerance="10"
     guidetolerance="10"
     inkscape:pageopacity="0"
     inkscape:pageshadow="2"
     inkscape:window-width="1366"
     inkscape:window-height="704"
     id="namedview22"
     showgrid="false"
     inkscape:zoom="13.906433"
     inkscape:cx="22.70764"
     inkscape:cy="21.504843"
     inkscape:window-x="0"
     inkscape:window-y="30"
     inkscape:window-maximized="1"
     inkscape:current-layer="svg20" />
  <rect
     style="opacity:0.2"
     width="26"
     height="40"
     x="11"
     y="5"
     rx="2"
     ry="2"
     id="rect2" />
  <rect
     style="fill:#f0f0f0;fill-opacity:1"
     width="26"
     height="40"
     x="11"
     y="4"
     rx="2"
     ry="2"
     id="rect4" />
  <rect
     style="fill:#333333"
     width="6"
     height="1"
     x="21"
     y="6"
     rx=".5"
     ry=".5"
     id="rect6" />
  <rect
     style="fill:#333333"
     width="24"
     height="30"
     x="12"
     y="8"
     id="rect8" />
  <path
     style="fill:#ffffff;opacity:0.2"
     d="M 13 4 C 11.892 4 11 4.892 11 6 L 11 7 C 11 5.892 11.892 5 13 5 L 35 5 C 36.108 5 37 5.892 37 7 L 37 6 C 37 4.892 36.108 4 35 4 L 13 4 z"
     id="path10" />
  <rect
     style="fill:#4d4d4d"
     width="4"
     height="4"
     x="22"
     y="39"
     rx="1"
     ry="1"
     id="rect12" />
  <circle
     style="fill:#333333"
     cx="28.5"
     cy="6.5"
     r=".5"
     id="circle18" />
</svg>
