<?xml version="1.0" encoding="UTF-8" standalone="no"?>
<svg
   xmlns:dc="http://purl.org/dc/elements/1.1/"
   xmlns:cc="http://creativecommons.org/ns#"
   xmlns:rdf="http://www.w3.org/1999/02/22-rdf-syntax-ns#"
   xmlns:svg="http://www.w3.org/2000/svg"
   xmlns="http://www.w3.org/2000/svg"
   xmlns:xlink="http://www.w3.org/1999/xlink"
   xmlns:sodipodi="http://sodipodi.sourceforge.net/DTD/sodipodi-0.dtd"
   xmlns:inkscape="http://www.inkscape.org/namespaces/inkscape"
   width="32"
   height="32"
   version="1"
   id="svg22"
   sodipodi:docname="camera-photo.svg"
   inkscape:version="0.92.3 (2405546, 2018-03-11)">
  <metadata
     id="metadata28">
    <rdf:RDF>
      <cc:Work
         rdf:about="">
        <dc:format>image/svg+xml</dc:format>
        <dc:type
           rdf:resource="http://purl.org/dc/dcmitype/StillImage" />
      </cc:Work>
    </rdf:RDF>
  </metadata>
  <defs
     id="defs26">
    <linearGradient
       inkscape:collect="always"
       id="linearGradient854">
      <stop
         style="stop-color:#dcdcdc;stop-opacity:1;"
         offset="0"
         id="stop850" />
      <stop
         style="stop-color:#f0f0f0;stop-opacity:1"
         offset="1"
         id="stop852" />
    </linearGradient>
    <linearGradient
       inkscape:collect="always"
       xlink:href="#linearGradient854"
       id="linearGradient856"
       x1="16.152542"
       y1="25.355932"
       x2="16.525423"
       y2="6.9152541"
       gradientUnits="userSpaceOnUse" />
  </defs>
  <sodipodi:namedview
     pagecolor="#ffffff"
     bordercolor="#666666"
     borderopacity="1"
     objecttolerance="10"
     gridtolerance="10"
     guidetolerance="10"
     inkscape:pageopacity="0"
     inkscape:pageshadow="2"
     inkscape:window-width="1366"
     inkscape:window-height="704"
     id="namedview24"
     showgrid="false"
     inkscape:zoom="7.375"
     inkscape:cx="2.779661"
     inkscape:cy="16"
     inkscape:window-x="0"
     inkscape:window-y="30"
     inkscape:window-maximized="1"
     inkscape:current-layer="svg22" />
  <rect
     style="fill:#4f4f4f"
     width="4"
     height="4"
     x="5"
     y="5"
     rx="1"
     ry="1"
     id="rect4" />
  <rect
     style="fill:url(#linearGradient856);fill-opacity:1"
     width="26"
     height="20"
     x="3"
     y="6"
     rx="1.25"
     ry="1.25"
     id="rect6" />
  <circle
     style="opacity:0.40"
     cx="26"
     cy="9"
     r="1"
     id="circle8" />
  <circle
     style="opacity:0.40"
     cx="16"
     cy="16"
     r="8"
     id="circle10" />
  <circle
     style="opacity:0.2"
     cx="16"
     cy="-17"
     r="6"
     transform="scale(1,-1)"
     id="circle12" />
  <circle
     style="fill:#009587"
     cx="16"
     cy="-16"
     r="6"
     transform="scale(1,-1)"
     id="circle14" />
  <circle
     style="opacity:0.2"
     cx="16"
     cy="17"
     r="4"
     id="circle16" />
  <circle
     style="fill:#66bfb7"
     cx="16"
     cy="16"
     r="4"
     id="circle18" />
  <path
     style="opacity:0.4;fill:#ffffff"
     d="M 4.25 6 C 3.5575 6 3 6.5575 3 7.25 L 3 8.25 C 3 7.5575 3.5575 7 4.25 7 L 27.75 7 C 28.442 7 29 7.5575 29 8.25 L 29 7.25 C 29 6.5575 28.442 6 27.75 6 L 4.25 6 z"
     id="path20" />
  <path
     inkscape:connector-curvature="0"
     style="opacity:0.2;fill:#000000;fill-opacity:1"
     d="m 4.2499999,26 c -0.6925,0 -1.2499998,-0.5575 -1.2499998,-1.25 v -1 c 0,0.6925 0.5574998,1.25 1.2499998,1.25 H 27.75 C 28.442,25 29,24.4425 29,23.75 v 1 C 29,25.4425 28.442,26 27.75,26 Z"
     id="path20-3" />
</svg>
