<?xml version="1.0" encoding="UTF-8" standalone="no"?>
<svg
   xmlns:dc="http://purl.org/dc/elements/1.1/"
   xmlns:cc="http://creativecommons.org/ns#"
   xmlns:rdf="http://www.w3.org/1999/02/22-rdf-syntax-ns#"
   xmlns:svg="http://www.w3.org/2000/svg"
   xmlns="http://www.w3.org/2000/svg"
   xmlns:xlink="http://www.w3.org/1999/xlink"
   xmlns:sodipodi="http://sodipodi.sourceforge.net/DTD/sodipodi-0.dtd"
   xmlns:inkscape="http://www.inkscape.org/namespaces/inkscape"
   width="32"
   height="32"
   version="1"
   id="svg20"
   sodipodi:docname="camera-web.svg"
   inkscape:version="0.92.3 (2405546, 2018-03-11)">
  <metadata
     id="metadata26">
    <rdf:RDF>
      <cc:Work
         rdf:about="">
        <dc:format>image/svg+xml</dc:format>
        <dc:type
           rdf:resource="http://purl.org/dc/dcmitype/StillImage" />
        <dc:title></dc:title>
      </cc:Work>
    </rdf:RDF>
  </metadata>
  <defs
     id="defs24">
    <linearGradient
       inkscape:collect="always"
       id="linearGradient837">
      <stop
         style="stop-color:#dcdcdc;stop-opacity:1;"
         offset="0"
         id="stop833" />
      <stop
         style="stop-color:#f0f0f0;stop-opacity:1"
         offset="1"
         id="stop835" />
    </linearGradient>
    <linearGradient
       inkscape:collect="always"
       xlink:href="#linearGradient837"
       id="linearGradient839"
       x1="15.966102"
       y1="28.745762"
       x2="15.898305"
       y2="3.9322033"
       gradientUnits="userSpaceOnUse" />
  </defs>
  <sodipodi:namedview
     pagecolor="#ffffff"
     bordercolor="#666666"
     borderopacity="1"
     objecttolerance="10"
     gridtolerance="10"
     guidetolerance="10"
     inkscape:pageopacity="0"
     inkscape:pageshadow="2"
     inkscape:window-width="1366"
     inkscape:window-height="704"
     id="namedview22"
     showgrid="false"
     inkscape:zoom="7.375"
     inkscape:cx="2.779661"
     inkscape:cy="16"
     inkscape:window-x="0"
     inkscape:window-y="30"
     inkscape:window-maximized="1"
     inkscape:current-layer="svg20" />
  <path
     fill="#4f4f4f"
     d="m16 2c-7.756 0-14 6.244-14 14s6.244 14 14 14 14-6.244 14-14-6.244-14-14-14z"
     id="path2"
     style="fill:url(#linearGradient839);fill-opacity:1" />
  <path
     fill="#fff"
     opacity=".1"
     d="m16 2c-7.756 0-14 6.244-14 14 0 0.169 0.0195 0.333 0.0254 0.5 0.2641-7.5206 6.3878-13.5 13.975-13.5s13.711 5.9794 13.975 13.5c0.006-0.16736 0.0254-0.33116 0.0254-0.5 0-7.756-6.244-14-14-14z"
     id="path4"
     style="opacity:0.4" />
  <path
     opacity=".2"
     d="m8.681 16.667a7.3333 7.2789 0 0 1 -0.0143 -0.388 7.3333 7.2789 0 0 1 7.3333 -7.279 7.3333 7.2789 0 0 1 7.333 7.279 7.3333 7.2789 0 0 1 -0.014 0.274 7.3333 7.2789 0 0 0 -7.319 -6.8913 7.3333 7.2789 0 0 0 -7.319 7.0053z"
     id="path6" />
  <circle
     style="opacity:0.4"
     cx="16"
     cy="16"
     r="8"
     id="circle8" />
  <circle
     opacity=".2"
     cx="16"
     cy="-17"
     r="7"
     transform="scale(1,-1)"
     id="circle10" />
  <circle
     fill="#ba174e"
     cx="16"
     cy="-16"
     r="7"
     transform="scale(1,-1)"
     id="circle12" />
  <circle
     opacity=".2"
     cx="16"
     cy="17"
     r="4"
     id="circle14" />
  <circle
     fill="#d67495"
     cx="16"
     cy="16"
     r="4"
     id="circle18" />
  <path
     d="M 2.0254,15.5 C 2.0195,15.667 2,15.831 2,16 c 0,7.756 6.244,14 14,14 7.756,0 14,-6.244 14,-14 0,-0.16884 -0.01952,-0.33264 -0.02539,-0.5 -0.264,7.521 -6.388,13.5 -13.975,13.5 -7.5872,0 -13.711,-5.979 -13.975,-13.5 z"
     id="path16"
     inkscape:connector-curvature="0"
     style="opacity:0.2" />
</svg>
