<?xml version="1.0" encoding="UTF-8" standalone="no"?>
<svg
   xmlns:dc="http://purl.org/dc/elements/1.1/"
   xmlns:cc="http://creativecommons.org/ns#"
   xmlns:rdf="http://www.w3.org/1999/02/22-rdf-syntax-ns#"
   xmlns:svg="http://www.w3.org/2000/svg"
   xmlns="http://www.w3.org/2000/svg"
   xmlns:xlink="http://www.w3.org/1999/xlink"
   xmlns:sodipodi="http://sodipodi.sourceforge.net/DTD/sodipodi-0.dtd"
   xmlns:inkscape="http://www.inkscape.org/namespaces/inkscape"
   width="32"
   height="32"
   version="1.1"
   viewBox="0 0 24 24"
   id="svg52"
   sodipodi:docname="accessories-calculator.svg"
   inkscape:version="0.92.4 5da689c313, 2019-01-14">
  <metadata
     id="metadata56">
    <rdf:RDF>
      <cc:Work
         rdf:about="">
        <dc:format>image/svg+xml</dc:format>
        <dc:type
           rdf:resource="http://purl.org/dc/dcmitype/StillImage" />
        <dc:title />
      </cc:Work>
    </rdf:RDF>
  </metadata>
  <sodipodi:namedview
     pagecolor="#ffffff"
     bordercolor="#666666"
     borderopacity="1"
     objecttolerance="10"
     gridtolerance="10"
     guidetolerance="10"
     inkscape:pageopacity="0"
     inkscape:pageshadow="2"
     inkscape:window-width="1366"
     inkscape:window-height="691"
     id="namedview54"
     showgrid="false"
     inkscape:zoom="8.90625"
     inkscape:cx="9.211578"
     inkscape:cy="22.396747"
     inkscape:window-x="0"
     inkscape:window-y="0"
     inkscape:window-maximized="1"
     inkscape:current-layer="g24" />
  <defs
     id="defs14">
    <linearGradient
       inkscape:collect="always"
       id="linearGradient912">
      <stop
         style="stop-color:#003399;stop-opacity:1"
         offset="0"
         id="stop908" />
      <stop
         style="stop-color:#0099ff;stop-opacity:1"
         offset="1"
         id="stop910" />
    </linearGradient>
    <clipPath
       id="clipPath4">
      <rect
         width="384"
         height="384"
         id="rect2"
         x="0"
         y="0" />
    </clipPath>
    <clipPath
       id="clipPath8">
      <rect
         width="384"
         height="384"
         id="rect6"
         x="0"
         y="0" />
    </clipPath>
    <clipPath
       id="clipPath12">
      <rect
         width="384"
         height="384"
         id="rect10"
         x="0"
         y="0" />
    </clipPath>
    <linearGradient
       inkscape:collect="always"
       xlink:href="#linearGradient912"
       id="linearGradient914"
       x1="23.246401"
       y1="192.00459"
       x2="360.75366"
       y2="192.00459"
       gradientUnits="userSpaceOnUse" />
  </defs>
  <g
     transform="translate(-0.01,-360.02)"
     id="g50">
    <g
       id="g24"
       transform="matrix(0.06222022,0,0,0.06222053,0.06360421,360.07337)">
      <path
         d="M 192.0218,35.303809 V 204.05382 h -0.0157 V 35.323809 H 50.576206 C 36.517207,35.401939 25.029207,45.82381 23.248208,59.39781 v 144.68001 h 0.03125 v 140.95001 c 0,15.375 12.378998,27.75399 27.753998,27.75399 H 191.99345 v 0.0313 h 141.18 c 15.156,-0.082 27.33999,-12.18399 27.58199,-27.297 v -141.4601 h -0.0856 V 63.016009 c -3.5e-4,-15.058998 -11.87531,-27.211 -26.80532,-27.711 z"
         id="path16-3"
         inkscape:connector-curvature="0"
         style="opacity:0.2;fill:#000000;fill-opacity:1;stroke-width:1" />
      <path
         d="M 192.02,23.25 V 192 h -0.0156 V 23.27 h -141.43 c -14.059,0.07813 -25.547,10.5 -27.328,24.074 v 144.68 h 0.03125 v 140.95 c 0,15.375 12.379,27.754 27.754,27.754 h 140.96 v 0.0312 h 141.18 c 15.156,-0.082 27.34,-12.184 27.582,-27.297 v -141.46 h -0.0859 v -141.04 c -4e-5,-15.059 -11.875,-27.211 -26.805,-27.711 z"
         id="path16"
         inkscape:connector-curvature="0"
         style="fill:url(#linearGradient914);fill-opacity:1" />
      <path
         d="m 23.281,192.01 v 140.95 c 0,15.375 12.379,27.754 27.754,27.754 h 140.97 v -168.71 z"
         id="path20"
         inkscape:connector-curvature="0"
         style="fill:#000000;fill-opacity:0.39215686" />
    </g>
    <path
       d="m 3.2105788,361.521 c -0.874754,0.005 -1.5895401,0.65332 -1.7003541,1.4979 v 9.00206 H 12.010509 v -10.49971 z"
       id="path30"
       inkscape:connector-curvature="0"
       style="fill:#000000;fill-opacity:0.19607843;stroke-width:0.06222038" />
    <path
       d="m 7.17662,365.08158 v 1.83258 h 1.8257901 v 0.82542 H 7.17662 v 1.83283 H 6.3444242 v -1.83283 H 4.5186344 v -0.82542 h 1.8257898 v -1.83258 z"
       id="path32"
       inkscape:connector-curvature="0"
       style="opacity:0.3;stroke-width:0.06222038" />
    <path
       d="m 7.1673191,364.45894 v 1.82331 h 1.819401 v 0.82124 h -1.819401 v 1.82354 H 6.3380353 v -1.82354 H 4.5186344 v -0.82124 h 1.8194009 v -1.82331 z"
       id="path34"
       inkscape:connector-curvature="0"
       style="fill:#ffffff;stroke-width:0.06195393" />
    <path
       d="m 8.8665211,376.22147 -1.518049,1.51787 1.518049,1.51078 -0.5876888,0.58768 -1.5178619,-1.51102 -1.5178622,1.51102 -0.5876889,-0.58768 1.5178624,-1.51078 -1.5178624,-1.51787 0.5876889,-0.58769 1.5178622,1.51786 1.5178619,-1.51786 z"
       id="path40"
       inkscape:connector-curvature="0"
       style="opacity:0.3;stroke-width:0.06222038" />
    <path
       d="m 8.8665211,375.75481 -1.518049,1.51788 1.518049,1.51077 -0.5876888,0.58769 -1.5178619,-1.51102 -1.5178622,1.51102 -0.5876889,-0.58769 1.5178624,-1.51077 -1.5178624,-1.51788 0.5876889,-0.58769 1.5178622,1.51787 1.5178619,-1.51787 z"
       id="path42"
       inkscape:connector-curvature="0"
       style="fill:#ffffff;stroke-width:0.06222038" />
    <path
       d="m 12.011287,361.52 v 0.46665 h 8.825316 c 0.928917,0.0311 1.66772,0.7872 1.66772,1.72415 v -0.46665 c -3e-6,-0.93695 -0.738803,-1.69307 -1.66772,-1.72415 z m -8.8005837,7e-4 c -0.8747385,0.005 -1.589509,0.65327 -1.7003856,1.49787 v 0.46665 c 0.11083,-0.8446 0.8256471,-1.49301 1.7003856,-1.49787 h 8.7996507 v -0.46665 z m 8.7996507,10.49831 v 0.46665 h 9.8e-4 v -0.46665 z m 10.494062,0 v 0.46665 h 0.0054 v -0.46665 z"
       id="path48"
       inkscape:connector-curvature="0"
       style="opacity:0.3;fill:#ffffff;stroke-width:0.06221882" />
    <path
       d="m 15.336411,370.86004 h 4.378747 v 0.90219 h -4.378747 z"
       id="path36-7"
       inkscape:connector-curvature="0"
       style="opacity:0.3;stroke-width:0.06222037" />
    <path
       d="m 15.336411,370.45138 h 4.378747 v 0.89362 h -4.378747 z"
       id="path38-4"
       inkscape:connector-curvature="0"
       style="fill:#ffffff;stroke-width:0.06192376" />
    <path
       d="m 15.345561,372.55712 h 4.378747 v 0.9022 h -4.378747 z"
       id="path36-0-5"
       inkscape:connector-curvature="0"
       style="opacity:0.3;stroke-width:0.06222037" />
    <path
       d="m 15.345561,372.00968 h 4.378747 v 0.89362 h -4.378747 z"
       id="path38-5-5"
       inkscape:connector-curvature="0"
       style="fill:#ffffff;stroke-width:0.06192376" />
  </g>
</svg>
