<?xml version="1.0" encoding="UTF-8" standalone="no"?>
<svg
   xmlns:dc="http://purl.org/dc/elements/1.1/"
   xmlns:cc="http://creativecommons.org/ns#"
   xmlns:rdf="http://www.w3.org/1999/02/22-rdf-syntax-ns#"
   xmlns:svg="http://www.w3.org/2000/svg"
   xmlns="http://www.w3.org/2000/svg"
   xmlns:xlink="http://www.w3.org/1999/xlink"
   xmlns:sodipodi="http://sodipodi.sourceforge.net/DTD/sodipodi-0.dtd"
   xmlns:inkscape="http://www.inkscape.org/namespaces/inkscape"
   width="32"
   height="32"
   version="1"
   id="svg22"
   sodipodi:docname="cheese.svg"
   inkscape:version="0.92.4 5da689c313, 2019-01-14">
  <metadata
     id="metadata28">
    <rdf:RDF>
      <cc:Work
         rdf:about="">
        <dc:format>image/svg+xml</dc:format>
        <dc:type
           rdf:resource="http://purl.org/dc/dcmitype/StillImage" />
        <dc:title />
      </cc:Work>
    </rdf:RDF>
  </metadata>
  <defs
     id="defs26">
    <linearGradient
       inkscape:collect="always"
       id="linearGradient839">
      <stop
         style="stop-color:#dcdcdc;stop-opacity:1;"
         offset="0"
         id="stop835" />
      <stop
         style="stop-color:#f0f0f0;stop-opacity:1"
         offset="1"
         id="stop837" />
    </linearGradient>
    <linearGradient
       inkscape:collect="always"
       xlink:href="#linearGradient839"
       id="linearGradient841"
       x1="32.033897"
       y1="52.610168"
       x2="34.949154"
       y2="11.118644"
       gradientUnits="userSpaceOnUse"
       gradientTransform="matrix(0.53846155,0,0,0.52380959,-1.2307693,-0.23809564)" />
    <linearGradient
       inkscape:collect="always"
       xlink:href="#linearGradient839"
       id="linearGradient1135"
       gradientUnits="userSpaceOnUse"
       gradientTransform="matrix(0.53846155,0,0,0.52380959,-1.2307693,-0.23809564)"
       x1="32.033897"
       y1="52.610168"
       x2="34.949154"
       y2="11.118644" />
  </defs>
  <sodipodi:namedview
     pagecolor="#ffffff"
     bordercolor="#666666"
     borderopacity="1"
     objecttolerance="10"
     gridtolerance="10"
     guidetolerance="10"
     inkscape:pageopacity="0"
     inkscape:pageshadow="2"
     inkscape:window-width="1366"
     inkscape:window-height="691"
     id="namedview24"
     showgrid="false"
     inkscape:zoom="14.75"
     inkscape:cx="14.947643"
     inkscape:cy="17.933913"
     inkscape:window-x="0"
     inkscape:window-y="0"
     inkscape:window-maximized="1"
     inkscape:current-layer="svg22" />
  <rect
     id="rect1117-9"
     ry="1.3095238"
     rx="1.3461539"
     y="7.0476189"
     x="2"
     height="20.952381"
     width="28"
     style="opacity:0.2;fill:#000000;fill-opacity:1;stroke-width:0.53108501" />
  <rect
     style="fill:#4f4f4f;stroke-width:0.53108501"
     width="4.3076925"
     height="4.1904764"
     x="4.1538463"
     y="5"
     rx="1.0769231"
     ry="1.0476191"
     id="rect4" />
  <rect
     style="fill:url(#linearGradient1135);fill-opacity:1;stroke-width:0.53108501"
     width="28"
     height="20.952381"
     x="2"
     y="6.0476179"
     rx="1.3461539"
     ry="1.3095238"
     id="rect6" />
  <ellipse
     style="opacity:0.4;stroke-width:0.53108501"
     cx="26.76923"
     cy="9.1904764"
     id="circle8"
     rx="1.0769231"
     ry="1.0476191" />
  <ellipse
     style="opacity:0.4;stroke-width:0.53108501"
     cx="16"
     cy="16.523809"
     id="circle10"
     rx="8.6153851"
     ry="8.3809528" />
  <ellipse
     style="opacity:0.2;stroke-width:0.53108501"
     cx="16"
     cy="-17.047619"
     transform="scale(1,-1)"
     id="circle12"
     rx="6.4615383"
     ry="6.2857146" />
  <ellipse
     style="fill:#8a00c6;fill-opacity:1;stroke-width:0.53108501"
     cx="16"
     cy="-16.523809"
     transform="scale(1,-1)"
     id="circle14"
     rx="6.4615383"
     ry="6.2857146" />
  <ellipse
     style="opacity:0.2;stroke-width:0.53108501"
     cx="16"
     cy="17.047619"
     id="circle16"
     rx="4.3076925"
     ry="4.1904764" />
  <ellipse
     style="fill:#ffffff;fill-opacity:0.39215686;stroke-width:0.53108501"
     cx="16"
     cy="16.523809"
     id="circle18"
     rx="4.3076925"
     ry="4.1904764" />
  <path
     style="opacity:0.4;fill:#ffffff;stroke-width:0.53108501"
     d="M 3.3461538,6.0476178 C 2.6003846,6.0476178 2,6.6316664 2,7.3571432 v 0.523809 C 2,7.1554754 2.6003846,6.5714276 3.3461538,6.5714276 H 28.653846 C 29.396923,6.5714276 30,7.1554754 30,7.8809522 V 7.3571432 C 30,6.6316664 29.396923,6.0476178 28.653846,6.0476178 Z"
     id="path20"
     inkscape:connector-curvature="0" />
  <path
     inkscape:connector-curvature="0"
     style="opacity:0.2;fill:#000000;fill-opacity:1;stroke-width:0.53108501"
     d="M 3.3461538,27 C 2.6003846,27 2,26.415953 2,25.690477 v -0.523811 c 0,0.725477 0.6003846,1.309525 1.3461538,1.309525 H 28.653846 C 29.396923,26.476191 30,25.892143 30,25.166666 v 0.523811 C 30,26.415953 29.396923,27 28.653846,27 Z"
     id="path20-3" />
  <rect
     id="rect1115"
     ry="1.0476191"
     rx="1.0769231"
     y="5"
     x="4.1538463"
     height="4.1904764"
     width="4.3076925"
     style="fill:#4f4f4f;stroke-width:0.53108501" />
  <rect
     id="rect1117"
     ry="1.3095238"
     rx="1.3461539"
     y="6.0476179"
     x="2"
     height="20.952381"
     width="28"
     style="fill:url(#linearGradient841);fill-opacity:1;stroke-width:0.53108501" />
  <ellipse
     ry="1.0476191"
     rx="1.0769231"
     id="ellipse1119"
     cy="9.1904764"
     cx="26.76923"
     style="opacity:0.4;stroke-width:0.53108501" />
  <ellipse
     ry="8.3809528"
     rx="8.6153851"
     id="ellipse1121"
     cy="16.523809"
     cx="16"
     style="opacity:0.4;stroke-width:0.53108501" />
  <ellipse
     ry="6.2857146"
     rx="6.4615383"
     id="ellipse1123"
     transform="scale(1,-1)"
     cy="-17.047619"
     cx="16"
     style="opacity:0.2;stroke-width:0.53108501" />
  <ellipse
     ry="6.2857146"
     rx="6.4615383"
     id="ellipse1125"
     transform="scale(1,-1)"
     cy="-16.523809"
     cx="16"
     style="fill:#8a00c6;fill-opacity:1;stroke-width:0.53108501" />
  <ellipse
     ry="4.1904764"
     rx="4.3076925"
     id="ellipse1127"
     cy="17.047619"
     cx="16"
     style="opacity:0.2;stroke-width:0.53108501" />
  <ellipse
     ry="4.1904764"
     rx="4.3076925"
     id="ellipse1129"
     cy="16.523809"
     cx="16"
     style="fill:#ffffff;fill-opacity:0.39215686;stroke-width:0.53108501" />
  <path
     inkscape:connector-curvature="0"
     id="path1131"
     d="M 3.3461538,6.0476178 C 2.6003846,6.0476178 2,6.6316664 2,7.3571432 v 0.523809 C 2,7.1554754 2.6003846,6.5714276 3.3461538,6.5714276 H 28.653846 C 29.396923,6.5714276 30,7.1554754 30,7.8809522 V 7.3571432 C 30,6.6316664 29.396923,6.0476178 28.653846,6.0476178 Z"
     style="opacity:0.4;fill:#ffffff;stroke-width:0.53108501" />
</svg>
