<?xml version="1.0" encoding="UTF-8" standalone="no"?>
<svg
   xmlns:dc="http://purl.org/dc/elements/1.1/"
   xmlns:cc="http://creativecommons.org/ns#"
   xmlns:rdf="http://www.w3.org/1999/02/22-rdf-syntax-ns#"
   xmlns:svg="http://www.w3.org/2000/svg"
   xmlns="http://www.w3.org/2000/svg"
   xmlns:sodipodi="http://sodipodi.sourceforge.net/DTD/sodipodi-0.dtd"
   xmlns:inkscape="http://www.inkscape.org/namespaces/inkscape"
   width="32"
   height="32"
   version="1"
   id="svg16"
   sodipodi:docname="dconf-editor.svg"
   inkscape:version="0.92.4 5da689c313, 2019-01-14">
  <metadata
     id="metadata22">
    <rdf:RDF>
      <cc:Work
         rdf:about="">
        <dc:format>image/svg+xml</dc:format>
        <dc:type
           rdf:resource="http://purl.org/dc/dcmitype/StillImage" />
        <dc:title></dc:title>
      </cc:Work>
    </rdf:RDF>
  </metadata>
  <defs
     id="defs20" />
  <sodipodi:namedview
     pagecolor="#ffffff"
     bordercolor="#666666"
     borderopacity="1"
     objecttolerance="10"
     gridtolerance="10"
     guidetolerance="10"
     inkscape:pageopacity="0"
     inkscape:pageshadow="2"
     inkscape:window-width="1366"
     inkscape:window-height="708"
     id="namedview18"
     showgrid="false"
     inkscape:zoom="3.6875"
     inkscape:cx="-1.4915254"
     inkscape:cy="33.491525"
     inkscape:window-x="0"
     inkscape:window-y="25"
     inkscape:window-maximized="1"
     inkscape:current-layer="svg16" />
  <circle
     style="opacity:1;fill:#b42b2b;fill-opacity:1;stroke:none;stroke-width:0.49840179;stroke-miterlimit:4;stroke-dasharray:none;stroke-opacity:0"
     id="path829"
     cx="13.016949"
     cy="12.881357"
     r="10" />
  <path
     style="opacity:0.2;stroke-width:0.69768751"
     d="m 17.826226,21.10889 8.529851,8.529852 c 1.972732,2.054624 5.014346,-0.986991 2.959722,-2.959722 l -8.659452,-8.659453 c -3.307222,1.099679 -1.911847,1.099679 -2.830121,3.089323 z"
     id="path6"
     inkscape:connector-curvature="0" />
  <path
     style="fill:#565656;stroke-width:0.69768751"
     d="m 17.826226,20.411202 8.529851,8.529851 c 1.972732,2.054625 5.014346,-0.98699 2.959722,-2.959722 l -8.659452,-8.659452 c -3.307222,1.099679 -1.911847,1.099679 -2.830121,3.089323 z"
     id="path8"
     inkscape:connector-curvature="0" />
  <path
     style="opacity:0.2;stroke-width:0.69768751"
     d="M 13.163,2.3747462 A 11.163,11.163 0 0 0 2,13.537746 11.163,11.163 0 0 0 13.163,24.700745 11.163,11.163 0 0 0 24.325999,13.537746 11.163,11.163 0 0 0 13.163,2.3747462 Z m 0,4.1861246 A 6.9768745,6.9768745 0 0 1 20.139874,13.537746 6.9768745,6.9768745 0 0 1 13.163,20.514621 6.9768745,6.9768745 0 0 1 6.186125,13.537746 6.9768745,6.9768745 0 0 1 13.163,6.5608708 Z"
     id="path10"
     inkscape:connector-curvature="0" />
  <path
     style="fill:#ffffff;stroke-width:0.69768751"
     d="M 13.163,1.6770576 A 11.163,11.163 0 0 0 2,12.840057 a 11.163,11.163 0 0 0 11.163,11.163 11.163,11.163 0 0 0 11.162999,-11.163 A 11.163,11.163 0 0 0 13.163,1.6770576 Z m 0,4.1861248 A 6.9768745,6.9768745 0 0 1 20.139874,12.840057 6.9768745,6.9768745 0 0 1 13.163,19.816932 6.9768745,6.9768745 0 0 1 6.186125,12.840057 6.9768745,6.9768745 0 0 1 13.163,5.8631824 Z"
     id="path12"
     inkscape:connector-curvature="0" />
</svg>
