<?xml version="1.0" encoding="UTF-8" standalone="no"?>
<svg
   xmlns:dc="http://purl.org/dc/elements/1.1/"
   xmlns:cc="http://creativecommons.org/ns#"
   xmlns:rdf="http://www.w3.org/1999/02/22-rdf-syntax-ns#"
   xmlns:svg="http://www.w3.org/2000/svg"
   xmlns="http://www.w3.org/2000/svg"
   xmlns:xlink="http://www.w3.org/1999/xlink"
   xmlns:sodipodi="http://sodipodi.sourceforge.net/DTD/sodipodi-0.dtd"
   xmlns:inkscape="http://www.inkscape.org/namespaces/inkscape"
   width="32"
   height="32"
   version="1"
   id="svg12"
   sodipodi:docname="inkscape.svg"
   inkscape:version="0.92.4 5da689c313, 2019-01-14">
  <metadata
     id="metadata18">
    <rdf:RDF>
      <cc:Work
         rdf:about="">
        <dc:format>image/svg+xml</dc:format>
        <dc:type
           rdf:resource="http://purl.org/dc/dcmitype/StillImage" />
        <dc:title></dc:title>
      </cc:Work>
    </rdf:RDF>
  </metadata>
  <defs
     id="defs16">
    <linearGradient
       inkscape:collect="always"
       id="linearGradient864">
      <stop
         style="stop-color:#000000;stop-opacity:1;"
         offset="0"
         id="stop860" />
      <stop
         style="stop-color:#000000;stop-opacity:0;"
         offset="1"
         id="stop862" />
    </linearGradient>
    <linearGradient
       inkscape:collect="always"
       id="linearGradient832">
      <stop
         style="stop-color:#3b3b3b;stop-opacity:1"
         offset="0"
         id="stop828" />
      <stop
         style="stop-color:#4f4f4f;stop-opacity:1"
         offset="1"
         id="stop830" />
    </linearGradient>
    <linearGradient
       inkscape:collect="always"
       xlink:href="#linearGradient832"
       id="linearGradient834"
       x1="33.372715"
       y1="59.660995"
       x2="31.996094"
       y2="4.0000463"
       gradientUnits="userSpaceOnUse"
       gradientTransform="matrix(0.48275874,0,0,0.48275874,0.55155998,0.55172437)" />
    <linearGradient
       inkscape:collect="always"
       xlink:href="#linearGradient864"
       id="linearGradient866"
       x1="33.237309"
       y1="60.338982"
       x2="33.203365"
       y2="37.966103"
       gradientUnits="userSpaceOnUse"
       gradientTransform="matrix(0.48275874,0,0,0.48275874,0.55155998,0.55172437)" />
  </defs>
  <sodipodi:namedview
     pagecolor="#ffffff"
     bordercolor="#666666"
     borderopacity="1"
     objecttolerance="10"
     gridtolerance="10"
     guidetolerance="10"
     inkscape:pageopacity="0"
     inkscape:pageshadow="2"
     inkscape:window-width="1366"
     inkscape:window-height="709"
     id="namedview14"
     showgrid="false"
     inkscape:zoom="7.375"
     inkscape:cx="28.843265"
     inkscape:cy="28.500511"
     inkscape:window-x="0"
     inkscape:window-y="25"
     inkscape:window-maximized="1"
     inkscape:current-layer="svg12" />
  <path
     style="fill:url(#linearGradient834);fill-opacity:1;fill-rule:evenodd;stroke-width:0.48275873"
     d="m 15.997954,2.0000004 c -0.797919,3.255e-4 -1.5741,0.299938 -2.185616,0.9325167 L 2.929524,14.171745 c -0.5996485,0.62036 -0.9177547,1.438234 -0.9296878,2.247845 -1.793e-4,0.01231 0,0.04218 0,0.05563 -1.129e-4,2.408725 6.0860363,0.06942 6.6662193,3.014414 0.313937,1.593857 -3.2840796,0.863894 -3.2840796,2.467538 0,1.881126 5.8435681,0.346598 7.1037191,2.137527 0.964613,1.37091 -2.452154,1.43042 -1.686828,2.742862 0.656509,1.125832 3.004763,0.404719 3.396284,1.917834 0.447207,1.728404 3.326346,1.535438 4.952991,0.165005 0.997145,-0.840083 -1.324742,-1.366174 -0.418642,-2.303475 0.90604,-0.937367 5.221495,-0.761186 4.980336,-2.795663 -0.159603,-1.346442 -1.829806,-1.494465 -1.855605,-3.015357 -0.09009,-1.288014 1.591353,-0.912278 6.231548,-2.194101 1.855411,-0.871725 1.92113,-1.334706 1.914063,-2.137527 -1.47e-4,-0.01591 0,-0.03771 0,-0.05469 -0.01057,-0.809545 -0.384788,-1.627505 -0.984375,-2.247845 L 18.185454,2.9325171 C 17.573806,2.2998726 16.797358,2.0003259 15.999839,2.0000004 Z m 12.75539,19.3122356 c -0.214909,-0.0074 -0.431676,0.01158 -0.584591,0.05846 -0.288235,0.09113 -1.654156,0.143533 -1.541621,1.282328 1.237093,0.569133 3.123386,1.021744 3.348196,-0.116918 0.168779,-0.853885 -0.577159,-1.197736 -1.221984,-1.223872 z M 6.8142228,24.700034 c -0.1205372,0.01572 -0.2037195,0.07035 -0.3215246,0.121632 -0.9420319,0.409852 -1.5731243,1.272401 -0.6930225,1.649112 0.8802311,0.376621 1.4687085,-0.02137 2.2403018,-0.488417 0.771724,-0.467273 0.750724,-0.552371 0.694909,-0.732624 -0.106973,0.02446 -0.808473,-0.475408 -1.5472795,-0.549703 -0.1231139,-0.01179 -0.2528792,-0.01572 -0.3733842,0 z"
     id="path4"
     inkscape:connector-curvature="0" />
  <path
     style="opacity:0.2;fill-rule:evenodd;stroke-width:0.48275873"
     d="m 16.049917,5.8645744 c 0.821134,0.007 3.071137,2.7914037 5.078606,4.8766726 0.564668,0.757668 -0.218414,1.534203 -0.218414,1.534203 L 16.705438,9.974113 14.848769,12.494784 13.210767,10.029447 12.227432,13.864785 9.3334285,12.11145 10.098095,11.124781 14.630101,6.467642 c 0.347634,-0.3543744 0.613841,-0.6090078 1.419802,-0.6027344 z"
     id="path6"
     inkscape:connector-curvature="0" />
  <path
     style="fill:#ffffff;fill-rule:evenodd;stroke-width:0.48275873"
     d="m 16.049917,5.3817933 c 0.821134,0.00699 3.071137,2.791404 5.078606,4.8766727 0.564668,0.757668 -0.218414,1.534202 -0.218414,1.534202 L 16.705438,9.4913321 14.848769,12.012002 13.210767,9.5466657 12.227432,13.382004 9.3334285,11.628668 10.098095,10.642 14.630101,5.984861 c 0.347634,-0.3543743 0.613841,-0.6090076 1.419802,-0.6027341 z"
     id="path8"
     inkscape:connector-curvature="0" />
  <path
     style="opacity:0.4;fill:#ffffff;fill-rule:evenodd;stroke-width:0.48275873"
     d="m 15.997954,2.0000004 c -0.797919,3.255e-4 -1.5741,0.299938 -2.185616,0.9325167 L 2.929524,14.171745 c -0.5996485,0.62036 -0.9177547,1.438234 -0.9296878,2.247845 -1.793e-4,0.01231 0,0.04218 0,0.05563 -2.9e-6,0.06423 0.00666,0.123369 0.015086,0.181035 0.066251,-0.727193 0.3757064,-1.444243 0.9146015,-2.001752 L 13.812338,3.4152761 C 14.423854,2.7826976 15.200035,2.483085 15.997954,2.4827595 h 0.0019 c 0.797519,3.255e-4 1.573967,0.2998716 2.185615,0.9325166 L 29.015472,14.654504 c 0.572354,0.592164 0.935484,1.364427 0.976832,2.137526 0.0066,-0.100989 0.0085,-0.205526 0.0075,-0.317753 -1.47e-4,-0.01591 0,-0.03771 0,-0.05469 -0.01057,-0.809545 -0.384788,-1.627505 -0.984376,-2.247845 L 18.185454,2.9325171 C 17.573806,2.2998726 16.797358,2.0003259 15.999839,2.0000004 Z M 8.6434265,19.889419 c -0.342496,1.067919 -3.2614506,0.621003 -3.2614506,2.067753 0,0.08332 0.015695,0.157677 0.037718,0.228179 0.3693249,-1.270431 3.5420946,-0.711534 3.2463636,-2.212959 -0.0057,-0.02928 -0.01579,-0.05473 -0.02262,-0.08297 z m 13.2287195,1.121093 c -0.01654,0.08421 -0.02521,0.173908 -0.01791,0.278153 0.02522,1.487062 1.618399,1.664887 1.838632,2.930496 0.02558,-0.122758 0.034,-0.254278 0.01697,-0.397899 -0.152034,-1.282591 -1.671307,-1.480507 -1.83769,-2.81075 z m 6.881198,0.301724 c -0.214909,-0.0074 -0.431676,0.01158 -0.584591,0.05846 -0.288235,0.09113 -1.654156,0.143533 -1.541621,1.282328 0.01612,0.0074 0.03457,0.01431 0.05092,0.02169 0.245505,-0.692508 1.248129,-0.744559 1.490706,-0.821256 0.152915,-0.04688 0.369682,-0.06589 0.584591,-0.05846 0.51423,0.02084 1.084908,0.248794 1.212555,0.771282 0.0024,-0.0107 0.0073,-0.01917 0.0094,-0.03017 0.16878,-0.853881 -0.577159,-1.197733 -1.221983,-1.223868 z M 6.8142228,24.700034 c -0.1205372,0.01572 -0.2037195,0.07035 -0.3215246,0.121632 -0.7534523,0.327807 -1.3050799,0.944166 -1.0466057,1.370959 0.14787,-0.330237 0.549899,-0.672097 1.0466057,-0.8882 0.1178051,-0.05128 0.2009874,-0.10591 0.3215246,-0.121633 0.120505,-0.01572 0.2502703,-0.01178 0.3733842,0 0.5418307,0.05449 1.0588855,0.335744 1.3407865,0.47333 0.251353,-0.194701 0.245386,-0.280781 0.206493,-0.406385 -0.106973,0.02446 -0.808473,-0.475408 -1.5472795,-0.549703 -0.1231139,-0.01179 -0.2528792,-0.01572 -0.3733842,0 z m 5.7846192,0.08486 c -0.349208,0.722605 -2.229587,0.987207 -1.851833,1.928206 0.361986,-0.719524 2.249475,-0.981918 1.851833,-1.928206 z m 5.981682,2.523168 c -0.280226,0.548966 0.494957,0.960348 0.744882,1.408675 0.313755,-0.509637 -0.507148,-0.915769 -0.744882,-1.408675 z"
     id="path10"
     inkscape:connector-curvature="0" />
  <path
     inkscape:connector-curvature="0"
     style="opacity:0.4;fill:none;fill-opacity:1;fill-rule:evenodd;stroke:url(#linearGradient866);stroke-width:0.47455186;stroke-miterlimit:4;stroke-dasharray:none;stroke-opacity:1"
     d="m 15.997884,2.237287 c -0.784382,3.199e-4 -1.547396,0.2948547 -2.148537,0.9167115 L 3.1511505,14.202741 c -0.5894759,0.609846 -0.9021863,1.413859 -0.9139164,2.209748 -1.766e-4,0.01211 0,0.04146 0,0.05469 -1.11e-4,2.367902 5.9827924,0.06824 6.5531324,2.963325 0.308611,1.566844 -3.2283679,0.849252 -3.2283679,2.425717 0,1.849245 5.7444364,0.340725 6.9832094,2.1013 0.94825,1.347675 -2.410555,1.406177 -1.658211,2.696375 0.645372,1.106752 2.953789,0.39786 3.338668,1.885331 0.43962,1.699111 3.269917,1.509415 4.868968,0.162209 0.980229,-0.825846 -1.30227,-1.343021 -0.411541,-2.264436 0.89067,-0.92148 5.132917,-0.748285 4.895848,-2.748282 -0.156895,-1.323621 -1.798764,-1.469136 -1.824125,-2.964252 -0.08856,-1.266185 1.564356,-0.896816 6.125834,-2.156913 1.823936,-0.856952 1.888539,-1.312087 1.881593,-2.101301 -1.44e-4,-0.01564 0,-0.03707 0,-0.05376 -0.01039,-0.795824 -0.37826,-1.599922 -0.967676,-2.209748 L 18.148276,3.1539985 C 17.547004,2.5320766 16.783727,2.2376069 15.999738,2.237287 Z M 28.53689,21.222214 c -0.211263,-0.0073 -0.424353,0.01138 -0.574675,0.05747 -0.283344,0.08959 -1.626093,0.141099 -1.515469,1.260595 1.216107,0.559487 3.070402,1.004426 3.291397,-0.114937 0.165917,-0.83941 -0.567368,-1.177434 -1.201253,-1.203126 z M 6.9699483,24.552593 c -0.1184918,0.01546 -0.2002637,0.06916 -0.3160696,0.119572 -0.926051,0.402906 -1.5464377,1.250836 -0.6812663,1.621162 0.8652991,0.370238 1.443793,-0.02101 2.2022971,-0.480139 0.758632,-0.459354 0.737989,-0.543009 0.68312,-0.720207 -0.105158,0.02405 -0.794758,-0.46735 -1.5210307,-0.540388 -0.1210257,-0.01158 -0.2485895,-0.01546 -0.3670505,0 z"
     id="path4-7" />
</svg>
