<?xml version="1.0" encoding="UTF-8" standalone="no"?>
<svg
   xmlns:dc="http://purl.org/dc/elements/1.1/"
   xmlns:cc="http://creativecommons.org/ns#"
   xmlns:rdf="http://www.w3.org/1999/02/22-rdf-syntax-ns#"
   xmlns:svg="http://www.w3.org/2000/svg"
   xmlns="http://www.w3.org/2000/svg"
   xmlns:xlink="http://www.w3.org/1999/xlink"
   xmlns:sodipodi="http://sodipodi.sourceforge.net/DTD/sodipodi-0.dtd"
   xmlns:inkscape="http://www.inkscape.org/namespaces/inkscape"
   width="32"
   height="32"
   version="1"
   id="svg14"
   sodipodi:docname="krfb.svg"
   inkscape:version="0.92.4 5da689c313, 2019-01-14">
  <metadata
     id="metadata20">
    <rdf:RDF>
      <cc:Work
         rdf:about="">
        <dc:format>image/svg+xml</dc:format>
        <dc:type
           rdf:resource="http://purl.org/dc/dcmitype/StillImage" />
        <dc:title></dc:title>
      </cc:Work>
    </rdf:RDF>
  </metadata>
  <defs
     id="defs18">
    <linearGradient
       inkscape:collect="always"
       id="linearGradient831">
      <stop
         style="stop-color:#ff2525;stop-opacity:1"
         offset="0"
         id="stop827" />
      <stop
         style="stop-color:#4545ff;stop-opacity:1"
         offset="1"
         id="stop829" />
    </linearGradient>
    <linearGradient
       inkscape:collect="always"
       xlink:href="#linearGradient831"
       id="linearGradient833"
       x1="14.546678"
       y1="56.928509"
       x2="87.421364"
       y2="1.1269988"
       gradientUnits="userSpaceOnUse"
       gradientTransform="matrix(0.49999994,0,0,0.49999994,-3.365535e-6,1.0236745e-6)" />
  </defs>
  <sodipodi:namedview
     pagecolor="#ffffff"
     bordercolor="#666666"
     borderopacity="1"
     objecttolerance="10"
     gridtolerance="10"
     guidetolerance="10"
     inkscape:pageopacity="0"
     inkscape:pageshadow="2"
     inkscape:window-width="1366"
     inkscape:window-height="714"
     id="namedview16"
     showgrid="false"
     inkscape:zoom="5.2149125"
     inkscape:cx="35.970926"
     inkscape:cy="18.161626"
     inkscape:window-x="0"
     inkscape:window-y="19"
     inkscape:window-maximized="1"
     inkscape:current-layer="svg14" />
  <rect
     style="fill:url(#linearGradient833);fill-opacity:1;stroke-width:0.49999997"
     width="27.999998"
     height="27.999998"
     x="1.9999962"
     y="2.000001"
     rx="13.999999"
     ry="13.999999"
     id="rect4" />
  <path
     style="opacity:0.2;fill:#ffffff;stroke-width:0.49999997"
     d="m 15.999995,2.0009775 c -7.7557802,0 -13.9999987,6.2432419 -13.9999987,13.9990215 0,0.05672 0.00564,0.112058 0.00879,0.16797 C 2.1850582,8.5677622 8.3559018,2.5009776 15.999995,2.5009776 c 7.644093,0 13.814937,6.0667846 13.991209,13.6669914 0.0032,-0.05591 0.0088,-0.111247 0.0088,-0.16797 0,-7.7557796 -6.244218,-13.9990215 -13.999999,-13.9990215 z"
     id="path6"
     inkscape:connector-curvature="0" />
  <path
     style="opacity:0.7;fill:none;stroke:#000000;stroke-width:1.99999988"
     d="m 18.999515,11.000564 -7.999773,4.999859 7.999773,4.999858"
     id="path8"
     inkscape:connector-curvature="0" />
  <path
     style="opacity:0.2;fill-rule:evenodd;stroke-width:0.49999997"
     d="M 18.999515,8.5004519 A 2.9999151,2.9999151 0 0 0 15.9996,11.500367 2.9999151,2.9999151 0 0 0 18.999515,14.500281 2.9999151,2.9999151 0 0 0 21.99943,11.500367 2.9999151,2.9999151 0 0 0 18.999515,8.5004519 Z M 10.999742,13.50031 a 2.9999151,2.9999151 0 0 0 -2.9999159,2.999915 2.9999151,2.9999151 0 0 0 2.9999159,2.999915 2.9999151,2.9999151 0 0 0 2.999915,-2.999915 2.9999151,2.9999151 0 0 0 -2.999915,-2.999915 z m 7.999773,4.999859 a 2.9999151,2.9999151 0 0 0 -2.999915,2.999915 2.9999151,2.9999151 0 0 0 2.999915,2.999914 2.9999151,2.9999151 0 0 0 2.999915,-2.999914 2.9999151,2.9999151 0 0 0 -2.999915,-2.999915 z"
     id="path10"
     inkscape:connector-curvature="0" />
  <path
     style="fill:#ffffff;fill-rule:evenodd;stroke-width:0.49999997"
     d="M 18.999515,8.0006485 A 2.9999151,2.9999151 0 0 0 15.9996,11.000564 2.9999151,2.9999151 0 0 0 18.999515,14.000479 2.9999151,2.9999151 0 0 0 21.99943,11.000564 2.9999151,2.9999151 0 0 0 18.999515,8.0006485 Z m -7.999773,4.9998585 a 2.9999151,2.9999151 0 0 0 -2.9999159,2.999916 2.9999151,2.9999151 0 0 0 2.9999159,2.999915 2.9999151,2.9999151 0 0 0 2.999915,-2.999915 2.9999151,2.9999151 0 0 0 -2.999915,-2.999916 z m 7.999773,4.999859 a 2.9999151,2.9999151 0 0 0 -2.999915,2.999915 2.9999151,2.9999151 0 0 0 2.999915,2.999915 2.9999151,2.9999151 0 0 0 2.999915,-2.999915 2.9999151,2.9999151 0 0 0 -2.999915,-2.999915 z"
     id="path12"
     inkscape:connector-curvature="0" />
  <path
     style="opacity:0.2;stroke-width:0.49999997"
     d="m 2.0253954,15.500408 c -0.0059,0.166995 -0.025399,0.33099 -0.025399,0.499987 -3e-7,7.75578 6.2438234,13.999603 13.9996036,13.999603 7.755781,0 13.999604,-6.243823 13.999604,-13.999603 0,-0.168836 -0.01952,-0.332632 -0.02539,-0.499987 -0.263993,7.520788 -6.38782,13.499618 -13.974604,13.499618 -7.5869862,0 -13.7106127,-5.97883 -13.9746052,-13.499618 z"
     id="path2"
     inkscape:connector-curvature="0" />
</svg>
