<?xml version="1.0" encoding="UTF-8" standalone="no"?>
<svg
   xmlns:dc="http://purl.org/dc/elements/1.1/"
   xmlns:cc="http://creativecommons.org/ns#"
   xmlns:rdf="http://www.w3.org/1999/02/22-rdf-syntax-ns#"
   xmlns:svg="http://www.w3.org/2000/svg"
   xmlns="http://www.w3.org/2000/svg"
   xmlns:xlink="http://www.w3.org/1999/xlink"
   xmlns:sodipodi="http://sodipodi.sourceforge.net/DTD/sodipodi-0.dtd"
   xmlns:inkscape="http://www.inkscape.org/namespaces/inkscape"
   viewBox="0 0 32 32"
   version="1.1"
   id="svg14"
   sodipodi:docname="maps.svg"
   inkscape:version="0.92.4 5da689c313, 2019-01-14"
   width="32"
   height="32">
  <metadata
     id="metadata20">
    <rdf:RDF>
      <cc:Work
         rdf:about="">
        <dc:format>image/svg+xml</dc:format>
        <dc:type
           rdf:resource="http://purl.org/dc/dcmitype/StillImage" />
        <dc:title />
      </cc:Work>
    </rdf:RDF>
  </metadata>
  <defs
     id="defs18">
    <linearGradient
       inkscape:collect="always"
       id="linearGradient854">
      <stop
         style="stop-color:#ffffff;stop-opacity:1"
         offset="0"
         id="stop850" />
      <stop
         style="stop-color:#ffffff;stop-opacity:0"
         offset="1"
         id="stop852" />
    </linearGradient>
    <linearGradient
       inkscape:collect="always"
       id="linearGradient831">
      <stop
         style="stop-color:#f60000;stop-opacity:1;"
         offset="0"
         id="stop827" />
      <stop
         style="stop-color:#ce0000;stop-opacity:1"
         offset="1"
         id="stop829" />
    </linearGradient>
    <linearGradient
       inkscape:collect="always"
       xlink:href="#linearGradient831"
       id="linearGradient833"
       x1="35.260868"
       y1="4"
       x2="35.260868"
       y2="34.692307"
       gradientUnits="userSpaceOnUse"
       gradientTransform="matrix(0.52000004,0,0,0.48595736,-0.64000016,0.05617044)" />
    <linearGradient
       inkscape:collect="always"
       xlink:href="#linearGradient854"
       id="linearGradient856"
       x1="46.86578"
       y1="-20.338984"
       x2="46.964725"
       y2="-16"
       gradientUnits="userSpaceOnUse"
       gradientTransform="matrix(0.508818,0,0,0.49041004,-7.4573711,16.912221)" />
  </defs>
  <sodipodi:namedview
     pagecolor="#ffffff"
     bordercolor="#666666"
     borderopacity="1"
     objecttolerance="10"
     gridtolerance="10"
     guidetolerance="10"
     inkscape:pageopacity="0"
     inkscape:pageshadow="2"
     inkscape:window-width="1366"
     inkscape:window-height="691"
     id="namedview16"
     showgrid="false"
     inkscape:zoom="7.375"
     inkscape:cx="-17.569451"
     inkscape:cy="29.601725"
     inkscape:window-x="0"
     inkscape:window-y="0"
     inkscape:window-maximized="1"
     inkscape:current-layer="svg14" />
  <path
     d="m 10.065217,23.719935 -7.0652169,3.925041 v 2.041021 L 10.065217,28.429985 21.934781,30 29,28.743988 V 18.22488 l -7.065219,3.92504"
     style="opacity:0.2;fill:#000000;fill-opacity:1;fill-rule:evenodd;stroke:none;stroke-width:0.54387516"
     id="path8-2"
     inkscape:connector-curvature="0" />
  <path
     d="M 10.065217,5.6633712 2.9999999,6.9193842 V 28.899609 L 10.065217,27.643597 21.934781,29.213612 29,27.9576 V 5.9773742 l -7.065219,1.2560136 z"
     style="fill:#2ecc71;fill-opacity:1;fill-rule:evenodd;stroke:none;stroke-width:0.54387516"
     id="path4"
     inkscape:connector-curvature="0" />
  <path
     d="m 6.5331736,6.3180675 -2.8266519,0.5228158 6.3586953,5.8875597 3.618522,7.372011 -3.618522,0.47807 -7.0652172,3.92504 v 2.747528 H 29 V 15.083466 L 21.934781,19.008507 15.126738,19.908126 10.060978,9.5884112 6.5289349,6.3180675 Z"
     style="fill:#f1c40f;fill-opacity:1;fill-rule:evenodd;stroke:none;stroke-width:0.54387516"
     id="path6"
     inkscape:connector-curvature="0" />
  <path
     d="M 10.192838,5.9601568 3.2795509,7.2276773 V 29.409302 l 6.9132871,-1.267522 11.614321,1.584401 6.913289,-1.26752 V 6.2770362 l -6.913289,1.2675214 z"
     style="opacity:0.4;fill:none;fill-opacity:1;fill-rule:evenodd;stroke:url(#linearGradient856);stroke-width:0.54049069;stroke-miterlimit:4;stroke-dasharray:none;stroke-opacity:1"
     id="path4-2"
     inkscape:connector-curvature="0" />
  <path
     d="m 10.065217,22.933547 -7.0652171,3.925041 v 2.041021 L 10.065217,27.643597 21.934781,29.213612 29,27.9576 V 17.438492 l -7.065219,3.92504"
     style="fill:#3498db;fill-opacity:1;fill-rule:evenodd;stroke:none;stroke-width:0.54387516"
     id="path8"
     inkscape:connector-curvature="0" />
  <path
     d="M 21.934781,7.2333878 29,5.9773742 V 27.9576 l -7.065219,1.256012 z M 10.065217,27.643597 2.9999999,28.899609 V 6.9193842 l 7.0652171,-1.256013 z"
     style="opacity:0.15;fill:#000000;fill-opacity:1;fill-rule:evenodd;stroke:none;stroke-width:0.54387516"
     id="path10"
     inkscape:connector-curvature="0"
     sodipodi:nodetypes="cccccccccc" />
  <path
     d="m 17.695651,2.0000002 c -2.809696,0 -5.086955,2.109055 -5.086955,4.7100483 0.0011,0.7567479 0.198391,1.5025054 0.576521,2.1744723 1.498956,2.6737372 3.006957,5.3553242 4.510434,8.0306322 l 4.510434,-8.0306322 c 0.379263,-0.6709199 0.574827,-1.416678 0.576523,-2.1744723 0,-2.6015166 -2.277825,-4.7100483 -5.086955,-4.7100483 m 0,3.1400323 A 1.6956521,1.5700162 0 0 1 19.391304,6.7100485 1.6956521,1.5700162 0 0 1 17.695653,8.280065 1.6956521,1.5700162 0 0 1 16,6.7100485 1.6956521,1.5700162 0 0 1 17.695653,5.1400325 Z"
     style="opacity:1;fill:url(#linearGradient833);fill-opacity:1;fill-rule:nonzero;stroke:none;stroke-width:0.54387516"
     id="path12"
     inkscape:connector-curvature="0" />
</svg>
