<?xml version="1.0" encoding="UTF-8" standalone="no"?>
<svg
   xmlns:dc="http://purl.org/dc/elements/1.1/"
   xmlns:cc="http://creativecommons.org/ns#"
   xmlns:rdf="http://www.w3.org/1999/02/22-rdf-syntax-ns#"
   xmlns:svg="http://www.w3.org/2000/svg"
   xmlns="http://www.w3.org/2000/svg"
   xmlns:xlink="http://www.w3.org/1999/xlink"
   xmlns:sodipodi="http://sodipodi.sourceforge.net/DTD/sodipodi-0.dtd"
   xmlns:inkscape="http://www.inkscape.org/namespaces/inkscape"
   width="32"
   height="32"
   version="1"
   id="svg26"
   sodipodi:docname="multimedia-video-player.svg"
   inkscape:version="0.92.4 5da689c313, 2019-01-14">
  <metadata
     id="metadata32">
    <rdf:RDF>
      <cc:Work
         rdf:about="">
        <dc:format>image/svg+xml</dc:format>
        <dc:type
           rdf:resource="http://purl.org/dc/dcmitype/StillImage" />
        <dc:title />
      </cc:Work>
    </rdf:RDF>
  </metadata>
  <defs
     id="defs30">
    <linearGradient
       inkscape:collect="always"
       id="linearGradient8504">
      <stop
         style="stop-color:#ffffff;stop-opacity:1;"
         offset="0"
         id="stop8500" />
      <stop
         style="stop-color:#ffffff;stop-opacity:0;"
         offset="1"
         id="stop8502" />
    </linearGradient>
    <filter
       inkscape:collect="always"
       style="color-interpolation-filters:sRGB"
       id="filter2860"
       x="-0.22400001"
       width="1.448"
       y="-0.168"
       height="1.336">
      <feGaussianBlur
         inkscape:collect="always"
         stdDeviation="1.12"
         id="feGaussianBlur2862" />
    </filter>
    <linearGradient
       inkscape:collect="always"
       xlink:href="#linearGradient8504"
       id="linearGradient8506"
       x1="14.917833"
       y1="9.4159632"
       x2="14.915269"
       y2="12.416284"
       gradientUnits="userSpaceOnUse" />
    <linearGradient
       inkscape:collect="always"
       xlink:href="#linearGradient833"
       id="linearGradient826-6"
       x1="57.129814"
       y1="48.749649"
       x2="9.7931185"
       y2="2.3869731"
       gradientUnits="userSpaceOnUse"
       gradientTransform="matrix(1.5999999,0,0,3.5714286,-70.399997,-85.57143)" />
    <linearGradient
       inkscape:collect="always"
       id="linearGradient833">
      <stop
         style="stop-color:#24d8ff;stop-opacity:1"
         offset="0"
         id="stop829" />
      <stop
         id="stop1492"
         offset="0.61260545"
         style="stop-color:#18a2f0;stop-opacity:1;" />
      <stop
         style="stop-color:#127bcb;stop-opacity:1"
         offset="0.61260545"
         id="stop1494" />
      <stop
         id="stop1496"
         offset="0.69288391"
         style="stop-color:#117ee6;stop-opacity:1;" />
      <stop
         style="stop-color:#0e68cf;stop-opacity:1"
         offset="0.69288391"
         id="stop1498" />
      <stop
         id="stop1500"
         offset="0.76831985"
         style="stop-color:#0e6fde;stop-opacity:1" />
      <stop
         style="stop-color:#0b4ea0;stop-opacity:1"
         offset="0.76831985"
         id="stop1502" />
      <stop
         id="stop1504"
         offset="0.83362627"
         style="stop-color:#0a4d9f;stop-opacity:1" />
      <stop
         style="stop-color:#083e80;stop-opacity:1"
         offset="0.83362627"
         id="stop1506" />
      <stop
         style="stop-color:#052852;stop-opacity:1"
         offset="1"
         id="stop831" />
    </linearGradient>
    <filter
       style="color-interpolation-filters:sRGB"
       inkscape:label="Colorize"
       id="filter11307">
      <feComposite
         k4="0"
         k3="0"
         in2="SourceGraphic"
         operator="arithmetic"
         k1="0"
         k2="1"
         result="composite1"
         id="feComposite11293" />
      <feColorMatrix
         in="composite1"
         values="1"
         type="saturate"
         result="colormatrix1"
         id="feColorMatrix11295" />
      <feFlood
         flood-opacity="1"
         flood-color="rgb(16,255,41)"
         result="flood1"
         id="feFlood11297" />
      <feBlend
         in="flood1"
         in2="colormatrix1"
         mode="multiply"
         result="blend1"
         id="feBlend11299" />
      <feBlend
         in2="blend1"
         mode="screen"
         result="blend2"
         id="feBlend11301" />
      <feColorMatrix
         in="blend2"
         values="1"
         type="saturate"
         result="colormatrix2"
         id="feColorMatrix11303" />
      <feComposite
         in="colormatrix2"
         in2="SourceGraphic"
         operator="in"
         result="composite2"
         id="feComposite11305" />
    </filter>
  </defs>
  <sodipodi:namedview
     pagecolor="#ffffff"
     bordercolor="#666666"
     borderopacity="1"
     objecttolerance="10"
     gridtolerance="10"
     guidetolerance="10"
     inkscape:pageopacity="0"
     inkscape:pageshadow="2"
     inkscape:window-width="1366"
     inkscape:window-height="691"
     id="namedview28"
     showgrid="false"
     inkscape:zoom="11.998718"
     inkscape:cx="14.475912"
     inkscape:cy="12.608544"
     inkscape:window-x="0"
     inkscape:window-y="0"
     inkscape:window-maximized="1"
     inkscape:current-layer="svg26" />
  <path
     style="opacity:0.2;fill:#000000;fill-opacity:1;stroke-width:0.70000607"
     d="M 3.4000007,3 C 2.6243869,3 2.0000005,3.623814 2.0000005,4.399414 V 29.599609 C 2.0000005,30.375209 2.6243869,31 3.4000007,31 H 28.6 C 29.375614,31 30,30.375209 30,29.599609 V 4.399414 C 30,3.623814 29.375614,3 28.6,3 Z m 0,1.399414 H 6.2000006 V 7.200195 H 3.4000007 Z m 5.5999989,0 H 11.8 V 7.200195 H 8.9999996 Z m 5.6000004,0 h 2.8 v 2.800781 h -2.8 z m 5.6,0 H 23 v 2.800781 h -2.8 z m 5.6,0 h 2.8 V 7.200195 H 25.8 Z M 3.4000007,26.799805 h 2.7999999 v 2.799804 H 3.4000007 Z m 5.5999989,0 H 11.8 v 2.799804 H 8.9999996 Z m 5.6000004,0 h 2.8 v 2.799804 h -2.8 z m 5.6,0 H 23 v 2.799804 h -2.8 z m 5.6,0 h 2.8 v 2.799804 h -2.8 z"
     id="rect2-4"
     inkscape:connector-curvature="0" />
  <path
     style="fill:#000000;fill-opacity:1;stroke-width:0.70000607"
     d="M 3.4000004,2 C 2.6243866,2 2.0000002,2.6238141 2.0000002,3.3994141 V 28.599609 C 2.0000002,29.375209 2.6243866,30 3.4000004,30 H 28.599999 c 0.775614,0 1.4,-0.624791 1.4,-1.400391 V 3.3994141 C 29.999999,2.6238141 29.375613,2 28.599999,2 Z m 0,1.3994141 H 6.1999998 V 6.2001953 H 3.4000004 Z m 5.599999,0 H 11.799999 V 6.2001953 H 8.9999994 Z m 5.5999996,0 h 2.8 v 2.8007812 h -2.8 z m 5.6,0 h 2.8 v 2.8007812 h -2.8 z m 5.6,0 h 2.8 v 2.8007812 h -2.8 z M 3.4000004,25.799805 h 2.7999994 v 2.799804 H 3.4000004 Z m 5.599999,0 h 2.7999996 v 2.799804 H 8.9999994 Z m 5.5999996,0 h 2.8 v 2.799804 h -2.8 z m 5.6,0 h 2.8 v 2.799804 h -2.8 z m 5.6,0 h 2.8 v 2.799804 h -2.8 z"
     id="rect2"
     inkscape:connector-curvature="0" />
  <rect
     transform="matrix(0,-0.4375,-0.48,0,0.64,2)"
     ry="0"
     rx="0"
     id="rect14-2"
     y="-57"
     x="-48"
     height="50"
     width="32"
     style="fill:url(#linearGradient826-6);fill-opacity:1;stroke-width:2.39045691;filter:url(#filter11307)" />
  <g
     id="g2632"
     transform="matrix(0.48,0,0,0.4375,0.64,2)">
    <path
       sodipodi:nodetypes="cccc"
       inkscape:connector-curvature="0"
       id="path2628-0"
       d="M 28,24 V 40 L 40,32.286194 28,24"
       style="fill:#000000;fill-opacity:1;stroke:none;stroke-width:2.92587113px;stroke-linecap:butt;stroke-linejoin:miter;stroke-opacity:1;filter:url(#filter2860)" />
    <path
       sodipodi:nodetypes="cccc"
       inkscape:connector-curvature="0"
       id="path2628"
       d="M 28,24 V 40 L 40,32.286194 28,24"
       style="fill:#ffffff;fill-opacity:1;stroke:none;stroke-width:2.92587113px;stroke-linecap:butt;stroke-linejoin:miter;stroke-opacity:1" />
  </g>
  <rect
     style="opacity:0.4;fill:none;fill-opacity:1;stroke:url(#linearGradient8506);stroke-width:0.94637972;stroke-miterlimit:4;stroke-dasharray:none;stroke-opacity:1"
     id="rect8498"
     width="23.053619"
     height="13.05362"
     x="4.4731903"
     y="9.4731903" />
</svg>
