<?xml version="1.0" encoding="UTF-8" standalone="no"?>
<svg
   xmlns:dc="http://purl.org/dc/elements/1.1/"
   xmlns:cc="http://creativecommons.org/ns#"
   xmlns:rdf="http://www.w3.org/1999/02/22-rdf-syntax-ns#"
   xmlns:svg="http://www.w3.org/2000/svg"
   xmlns="http://www.w3.org/2000/svg"
   xmlns:xlink="http://www.w3.org/1999/xlink"
   xmlns:sodipodi="http://sodipodi.sourceforge.net/DTD/sodipodi-0.dtd"
   xmlns:inkscape="http://www.inkscape.org/namespaces/inkscape"
   width="32"
   height="32"
   version="1"
   id="svg16"
   sodipodi:docname="preferences-system-windows.svg"
   inkscape:version="0.92.4 5da689c313, 2019-01-14">
  <metadata
     id="metadata22">
    <rdf:RDF>
      <cc:Work
         rdf:about="">
        <dc:format>image/svg+xml</dc:format>
        <dc:type
           rdf:resource="http://purl.org/dc/dcmitype/StillImage" />
        <dc:title />
      </cc:Work>
    </rdf:RDF>
  </metadata>
  <defs
     id="defs20">
    <linearGradient
       inkscape:collect="always"
       id="linearGradient857">
      <stop
         style="stop-color:#50595e;stop-opacity:1"
         offset="0"
         id="stop853" />
      <stop
         style="stop-color:#768388;stop-opacity:1"
         offset="1"
         id="stop855" />
    </linearGradient>
    <linearGradient
       inkscape:collect="always"
       xlink:href="#linearGradient857"
       id="linearGradient859"
       x1="24.881355"
       y1="28.618645"
       x2="25.220339"
       y2="22.11017"
       gradientUnits="userSpaceOnUse"
       gradientTransform="matrix(0.63636364,0,0,0.72088535,-0.5454546,-11.8849)" />
  </defs>
  <sodipodi:namedview
     pagecolor="#ffffff"
     bordercolor="#666666"
     borderopacity="1"
     objecttolerance="10"
     gridtolerance="10"
     guidetolerance="10"
     inkscape:pageopacity="0"
     inkscape:pageshadow="2"
     inkscape:window-width="1366"
     inkscape:window-height="691"
     id="namedview18"
     showgrid="false"
     inkscape:zoom="29.5"
     inkscape:cx="6.1975901"
     inkscape:cy="7.6854903"
     inkscape:window-x="0"
     inkscape:window-y="0"
     inkscape:window-maximized="1"
     inkscape:current-layer="svg16" />
  <path
     style="opacity:0.2;stroke-width:0.64703959"
     d="m 2,26.36842 v 0.657895 C 2,28.119737 2.8514545,29 3.9090909,29 H 28.090909 C 29.148545,29 30,28.119737 30,27.026315 V 26.36842 c 0,1.093421 -0.851455,1.973685 -1.909091,1.973685 H 3.9090909 C 2.8514545,28.342105 2,27.461841 2,26.36842 Z"
     id="path14"
     inkscape:connector-curvature="0" />
  <path
     style="fill:#e4e4e4;stroke-width:0.64703959"
     d="M 2,8.0394729 V 26.526315 C 2,27.619737 2.8514545,28.5 3.9090909,28.5 H 28.090909 C 29.148545,28.5 30,27.619737 30,26.526315 V 8.0394729 Z"
     id="path6"
     inkscape:connector-curvature="0" />
  <path
     style="fill:url(#linearGradient859);fill-opacity:1;stroke-width:0.67730731"
     d="M 3.9090909,3.9745763 C 2.8514545,3.9745763 2,4.9391206 2,6.1372319 v 2.883541 H 30 V 6.1372319 C 30,4.9391206 29.148545,3.9745763 28.090909,3.9745763 Z"
     id="path8"
     inkscape:connector-curvature="0" />
  <path
     inkscape:connector-curvature="0"
     style="opacity:0.4;fill:#ffffff;stroke-width:0.56407601"
     d="M 3.9090909,4 C 2.8514545,4 2,4.6689998 2,5.4999998 V 6 C 2,5.1690002 2.8514545,4.4999998 3.9090909,4.4999998 H 28.090909 C 29.148545,4.4999998 30,5.1690002 30,6 V 5.4999998 C 30,4.6689998 29.148545,4 28.090909,4 Z"
     id="path12-4" />
</svg>
