<?xml version="1.0" encoding="UTF-8" standalone="no"?>
<svg
   xmlns:dc="http://purl.org/dc/elements/1.1/"
   xmlns:cc="http://creativecommons.org/ns#"
   xmlns:rdf="http://www.w3.org/1999/02/22-rdf-syntax-ns#"
   xmlns:svg="http://www.w3.org/2000/svg"
   xmlns="http://www.w3.org/2000/svg"
   xmlns:xlink="http://www.w3.org/1999/xlink"
   xmlns:sodipodi="http://sodipodi.sourceforge.net/DTD/sodipodi-0.dtd"
   xmlns:inkscape="http://www.inkscape.org/namespaces/inkscape"
   width="32"
   height="32"
   version="1.1"
   viewBox="0 0 24 24"
   id="svg22"
   sodipodi:docname="preferences-system-windows-move.svg"
   inkscape:version="0.92.4 5da689c313, 2019-01-14">
  <metadata
     id="metadata28">
    <rdf:RDF>
      <cc:Work
         rdf:about="">
        <dc:format>image/svg+xml</dc:format>
        <dc:type
           rdf:resource="http://purl.org/dc/dcmitype/StillImage" />
        <dc:title />
      </cc:Work>
    </rdf:RDF>
  </metadata>
  <defs
     id="defs26">
    <linearGradient
       inkscape:collect="always"
       id="linearGradient944">
      <stop
         style="stop-color:#404040;stop-opacity:1"
         offset="0"
         id="stop940" />
      <stop
         style="stop-color:#222222;stop-opacity:1"
         offset="1"
         id="stop942" />
    </linearGradient>
    <linearGradient
       id="linearGradient938"
       inkscape:collect="always">
      <stop
         id="stop934"
         offset="0"
         style="stop-color:#ffffff;stop-opacity:1" />
      <stop
         id="stop936"
         offset="1"
         style="stop-color:#ffffff;stop-opacity:0" />
    </linearGradient>
    <linearGradient
       gradientTransform="matrix(0.05957447,0,0,0.05957447,0.5617025,-383.43829)"
       inkscape:collect="always"
       xlink:href="#linearGradient938"
       id="linearGradient908-0"
       x1="188.07402"
       y1="362.47107"
       x2="188.51419"
       y2="265.19138"
       gradientUnits="userSpaceOnUse" />
    <linearGradient
       inkscape:collect="always"
       xlink:href="#linearGradient944"
       id="linearGradient946"
       x1="191.77992"
       y1="8.5582952"
       x2="186.66124"
       y2="388.41232"
       gradientUnits="userSpaceOnUse"
       gradientTransform="matrix(0.05957447,0,0,0.05957447,0.561702,360.5617)" />
  </defs>
  <sodipodi:namedview
     pagecolor="#ffffff"
     bordercolor="#666666"
     borderopacity="1"
     objecttolerance="10"
     gridtolerance="10"
     guidetolerance="10"
     inkscape:pageopacity="0"
     inkscape:pageshadow="2"
     inkscape:window-width="1366"
     inkscape:window-height="691"
     id="namedview24"
     showgrid="false"
     inkscape:zoom="12.952344"
     inkscape:cx="2.401391"
     inkscape:cy="18.542087"
     inkscape:window-x="0"
     inkscape:window-y="0"
     inkscape:window-maximized="1"
     inkscape:current-layer="g20" />
  <g
     id="g20"
     style="fill-rule:evenodd"
     transform="translate(0,-360)">
    <circle
       style="opacity:0.2;fill:#000000;fill-opacity:1;fill-rule:evenodd;stroke:none;stroke-width:0.05904042;stroke-miterlimit:4;stroke-dasharray:none;stroke-opacity:0.58823529;paint-order:stroke fill markers"
       id="path821-9"
       cx="12"
       cy="372.75"
       r="10.5" />
    <circle
       style="opacity:1;fill:url(#linearGradient946);fill-opacity:1;stroke:none;stroke-width:0.05904042;stroke-miterlimit:4;stroke-dasharray:none;stroke-opacity:0.58823529;paint-order:stroke fill markers"
       id="path821"
       cx="12"
       cy="372"
       r="10.5" />
    <path
       d="M 6.1486875,368.85893 H 17.768522 c 0.469852,0 0.850814,0.25252 0.850814,0.56395 v 5.57424 c 0,0.31143 -0.380962,0.56395 -0.850814,0.56395 H 6.1486875 c -0.469853,0 -0.8508155,-0.25252 -0.8508155,-0.56395 v -5.57424 c 0,-0.31143 0.3809625,-0.56395 0.8508155,-0.56395 z"
       id="path12-1-4"
       inkscape:connector-curvature="0"
       style="fill:#000000;fill-opacity:0.19607843;stroke-width:0.06786367" />
    <path
       d="m 6.151331,368.64893 h 11.655943 c 0.471312,0 0.853458,0.25252 0.853458,0.56395 v 5.57424 c 0,0.31143 -0.382146,0.56395 -0.853458,0.56395 H 6.151331 c -0.471312,0 -0.8534585,-0.25252 -0.8534585,-0.56395 v -5.57424 c 0,-0.31143 0.3821465,-0.56395 0.8534585,-0.56395 z"
       id="path12-1"
       inkscape:connector-curvature="0"
       style="fill:#969696;fill-opacity:1;stroke-width:0.06796903" />
    <path
       d="m 7.7972406,367.80326 h 8.3793024 c 0.33882,0 0.613539,0.35673 0.613539,0.7967 v 7.87499 c 0,0.43997 -0.274719,0.7967 -0.613539,0.7967 H 7.7972406 c -0.3388203,0 -0.6135402,-0.35673 -0.6135402,-0.7967 v -7.87499 c 0,-0.43997 0.2747199,-0.7967 0.6135402,-0.7967 z"
       id="path12-9"
       inkscape:connector-curvature="0"
       style="fill:#000000;fill-opacity:0.19607843;stroke-width:0.06849727" />
    <path
       d="m 8.1170956,367.56912 h 7.8237124 c 0.316356,0 0.57286,0.33928 0.57286,0.75773 v 7.4897 c 0,0.41845 -0.256504,0.75774 -0.57286,0.75774 H 8.1170956 c -0.3163549,0 -0.5728595,-0.33929 -0.5728595,-0.75774 v -7.4897 c 0,-0.41845 0.2565046,-0.75773 0.5728595,-0.75773 z"
       id="path12"
       inkscape:connector-curvature="0"
       style="fill:#ffffff;stroke-width:0.06454808" />
    <circle
       style="opacity:0.4;fill:none;fill-opacity:1;stroke:url(#linearGradient908-0);stroke-width:0.43749997;stroke-miterlimit:4;stroke-dasharray:none;stroke-opacity:1;paint-order:stroke fill markers"
       id="path821-3-5"
       cx="12"
       cy="-372"
       r="10.28125"
       transform="scale(1,-1)" />
  </g>
</svg>
