<?xml version="1.0" encoding="UTF-8" standalone="no"?>
<svg
   xmlns:dc="http://purl.org/dc/elements/1.1/"
   xmlns:cc="http://creativecommons.org/ns#"
   xmlns:rdf="http://www.w3.org/1999/02/22-rdf-syntax-ns#"
   xmlns:svg="http://www.w3.org/2000/svg"
   xmlns="http://www.w3.org/2000/svg"
   xmlns:xlink="http://www.w3.org/1999/xlink"
   xmlns:sodipodi="http://sodipodi.sourceforge.net/DTD/sodipodi-0.dtd"
   xmlns:inkscape="http://www.inkscape.org/namespaces/inkscape"
   width="32"
   height="32"
   version="1"
   id="svg24"
   sodipodi:docname="twitter.svg"
   inkscape:version="0.92.4 5da689c313, 2019-01-14">
  <metadata
     id="metadata30">
    <rdf:RDF>
      <cc:Work
         rdf:about="">
        <dc:format>image/svg+xml</dc:format>
        <dc:type
           rdf:resource="http://purl.org/dc/dcmitype/StillImage" />
        <dc:title></dc:title>
      </cc:Work>
    </rdf:RDF>
  </metadata>
  <defs
     id="defs28">
    <linearGradient
       inkscape:collect="always"
       id="linearGradient888">
      <stop
         style="stop-color:#ffffff;stop-opacity:1"
         offset="0"
         id="stop884" />
      <stop
         style="stop-color:#ffffff;stop-opacity:0"
         offset="1"
         id="stop886" />
    </linearGradient>
    <linearGradient
       inkscape:collect="always"
       id="linearGradient845">
      <stop
         style="stop-color:#0079f1;stop-opacity:1"
         offset="0"
         id="stop841" />
      <stop
         style="stop-color:#00c3f1;stop-opacity:1"
         offset="1"
         id="stop843" />
    </linearGradient>
    <linearGradient
       inkscape:collect="always"
       xlink:href="#linearGradient845"
       id="linearGradient847"
       x1="4"
       y1="51.019531"
       x2="52.337891"
       y2="14.927734"
       gradientUnits="userSpaceOnUse"
       gradientTransform="matrix(0.4999718,0,0,0.50635487,0.00168842,-0.20336304)" />
    <linearGradient
       inkscape:collect="always"
       xlink:href="#linearGradient888"
       id="linearGradient890"
       x1="56.021866"
       y1="9.7434835"
       x2="60.00246"
       y2="16.336468"
       gradientUnits="userSpaceOnUse"
       gradientTransform="matrix(0.48358263,0,0,0.49564421,-6.4702771,-0.22910344)" />
  </defs>
  <sodipodi:namedview
     pagecolor="#ffffff"
     bordercolor="#666666"
     borderopacity="1"
     objecttolerance="10"
     gridtolerance="10"
     guidetolerance="10"
     inkscape:pageopacity="0"
     inkscape:pageshadow="2"
     inkscape:window-width="1366"
     inkscape:window-height="691"
     id="namedview26"
     showgrid="false"
     inkscape:zoom="20.286857"
     inkscape:cx="16"
     inkscape:cy="16"
     inkscape:window-x="0"
     inkscape:window-y="0"
     inkscape:window-maximized="1"
     inkscape:current-layer="svg24" />
  <path
     style="opacity:0.2;fill:#000000;fill-opacity:1;stroke-width:0.5031532"
     d="m 20.999716,5.7076621 c -3.313521,0 -5.999661,2.7204338 -5.999661,6.0762599 0,0.70823 -0.02075,1.379461 -0.05957,2.022452 -0.0043,-9.6e-5 -0.0084,-9.8e-4 -0.0127,-9.8e-4 -6.2792555,4e-6 -9.3472995,-2.834866 -12.1555555,-6.0723001 -0.4957372,0.836856 -0.771441,2.3744761 -0.7714409,3.4129511 0,1.965913 2.1097063,3.628238 3.6550679,4.644222 -0.9440538,-0.02943 -2.8581047,-0.4588 -3.6345613,-0.883152 -6.699e-4,0.02362 -9.729e-4,0.0473 -9.729e-4,0.07121 -1.6e-6,2.745326 3.6352042,6.18454 5.6881552,6.932709 -2.052951,0 -3.9690063,-0.933592 -4.7077433,-0.933592 0.6849837,2.103801 3.8158233,3.703297 6.2799203,3.941062 -1.730561,1.177073 -3.752795,2.147065 -5.9186126,2.147065 -0.4608691,0 -0.9145628,-0.02859 -1.3612514,-0.0811 C 4.5277187,28.597506 7.5294445,29 10.754202,29 c 10.142513,0 15.844553,-8.234126 16.223695,-15.564478 1.090116,-0.806873 2.279438,-2.078762 3.021314,-3.170651 -0.1759,0.07677 -0.366139,0.153028 -0.553679,0.229441 0.198739,-0.24893 0.391888,-0.4976741 0.553679,-0.7357971 -0.765443,0.3340711 -1.656887,0.6809151 -2.539896,0.8930441 0.760706,-0.6763931 1.362154,-1.5509521 1.67471,-2.5129841 -0.08576,0.05005 -0.176299,0.09571 -0.265609,0.142412 0.101216,-0.211639 0.193454,-0.426694 0.265609,-0.648783 -0.867302,0.506137 -1.924458,0.832693 -2.965653,1.076993 C 25.125507,6.9150365 23.20413,5.7076621 20.999716,5.7076621 Z"
     id="path4-9"
     inkscape:connector-curvature="0" />
  <path
     style="opacity:1;fill:url(#linearGradient847);fill-opacity:1;stroke-width:0.5031532"
     d="m 21.000504,4.3538307 c -3.313521,0 -5.999661,2.7204333 -5.999661,6.0762593 0,0.70823 -0.02075,1.379461 -0.05957,2.022452 -0.0043,-9.6e-5 -0.0084,-9.8e-4 -0.0127,-9.8e-4 -6.2792567,4e-6 -9.3473006,-2.8348658 -12.1555564,-6.0722995 -0.4957372,0.8368558 -0.771441,2.3744764 -0.7714409,3.4129506 0,1.9659129 2.1097063,3.6282379 3.6550675,4.6442229 -0.9440534,-0.02943 -2.8581043,-0.458801 -3.6345609,-0.883153 -6.699e-4,0.02362 -9.729e-4,0.0473 -9.729e-4,0.07121 -1.6e-6,2.745327 3.6352043,6.184541 5.6881548,6.93271 -2.0529505,0 -3.9690059,-0.933592 -4.7077429,-0.933592 0.6849837,2.103801 3.8158233,3.703297 6.27992,3.941062 -1.7305603,1.177073 -3.752795,2.147065 -5.9186123,2.147065 -0.4608691,0 -0.9145628,-0.02859 -1.3612514,-0.0811 2.5269282,1.613037 5.5286539,2.015531 8.7534124,2.015531 10.142513,0 15.844553,-8.234126 16.223695,-15.564479 1.090116,-0.806873 2.279438,-2.078762 3.021314,-3.1706506 -0.1759,0.07677 -0.366139,0.1530278 -0.553679,0.2294413 0.198739,-0.2489303 0.391888,-0.4976738 0.553679,-0.7357973 -0.765443,0.3340715 -1.656887,0.6809153 -2.539896,0.8930444 0.760706,-0.6763936 1.362154,-1.5509528 1.67471,-2.5129841 -0.08576,0.050047 -0.176299,0.095711 -0.265609,0.1424122 C 28.97042,6.7155167 29.062658,6.5004617 29.134813,6.278372 28.267511,6.7845091 27.210355,7.1110659 26.16916,7.3553653 25.126295,5.5612051 23.204918,4.3538307 21.000504,4.3538307 Z"
     id="path4"
     inkscape:connector-curvature="0" />
  <path
     inkscape:connector-curvature="0"
     style="opacity:0.4;fill:none;fill-opacity:1;stroke:url(#linearGradient890);stroke-width:0.48957628;stroke-opacity:1"
     d="m 20.620923,4.600198 c -3.204903,0 -5.802991,2.6628892 -5.802991,5.94773 0,0.693249 -0.02007,1.350284 -0.05761,1.979673 -0.0041,-9.2e-5 -0.0081,-9.8e-4 -0.01228,-9.8e-4 -6.0734267,3e-6 -9.0408992,-2.7749021 -11.7571002,-5.9438563 -0.4794867,0.8191558 -0.746153,2.3242512 -0.746153,3.3407578 0,1.9243295 2.0405495,3.5514925 3.535254,4.5459855 -0.9131073,-0.02881 -2.7644155,-0.449095 -3.5154194,-0.864472 -6.299e-4,0.02313 -9.659e-4,0.0463 -9.659e-4,0.0697 -1.4e-6,2.687256 3.5160413,6.053722 5.5016957,6.786065 -1.9856544,0 -3.8389012,-0.913844 -4.5534221,-0.913844 0.66253,2.059301 3.6907406,3.624963 6.0740632,3.8577 -1.6738327,1.152174 -3.629778,2.101648 -5.7245992,2.101648 -0.4457617,0 -0.8845835,-0.02799 -1.3166292,-0.07938 2.4440949,1.578917 5.3474237,1.972897 8.4664731,1.972897 9.810039,0 15.325166,-8.059953 15.69188,-15.23525 1.054381,-0.789806 2.204717,-2.034792 2.922275,-3.1035861 -0.170134,0.075147 -0.354137,0.1497925 -0.535531,0.2245898 0.192225,-0.2436652 0.379043,-0.4871456 0.535531,-0.720233 -0.740352,0.3270048 -1.602575,0.6665123 -2.456638,0.8741532 0.73577,-0.662085 1.317501,-1.5181462 1.619813,-2.4598275 -0.08295,0.048983 -0.170521,0.093687 -0.256903,0.1394002 0.0979,-0.2071475 0.187112,-0.417652 0.256903,-0.6350441 -0.838871,0.4954192 -1.861373,0.8150687 -2.868438,1.0541989 -1.008655,-1.7562116 -2.86705,-2.9380468 -4.999203,-2.9380468 z"
     id="path4-5" />
</svg>
