<?xml version="1.0" encoding="UTF-8" standalone="no"?>
<svg
   xmlns:dc="http://purl.org/dc/elements/1.1/"
   xmlns:cc="http://creativecommons.org/ns#"
   xmlns:rdf="http://www.w3.org/1999/02/22-rdf-syntax-ns#"
   xmlns:svg="http://www.w3.org/2000/svg"
   xmlns="http://www.w3.org/2000/svg"
   xmlns:xlink="http://www.w3.org/1999/xlink"
   xmlns:sodipodi="http://sodipodi.sourceforge.net/DTD/sodipodi-0.dtd"
   xmlns:inkscape="http://www.inkscape.org/namespaces/inkscape"
   width="16"
   height="16"
   version="1.1"
   id="svg6"
   sodipodi:docname="application-x-bittorrent.svg"
   inkscape:version="0.92.4 5da689c313, 2019-01-14">
  <metadata
     id="metadata12">
    <rdf:RDF>
      <cc:Work
         rdf:about="">
        <dc:format>image/svg+xml</dc:format>
        <dc:type
           rdf:resource="http://purl.org/dc/dcmitype/StillImage" />
        <dc:title />
      </cc:Work>
    </rdf:RDF>
  </metadata>
  <defs
     id="defs10">
    <linearGradient
       gradientTransform="matrix(0.02269504,0,0,0.02269504,3.6425502,6.642545)"
       inkscape:collect="always"
       xlink:href="#linearGradient844"
       id="linearGradient846"
       x1="184.97034"
       y1="366.10168"
       x2="187.63983"
       y2="242.44067"
       gradientUnits="userSpaceOnUse" />
    <linearGradient
       inkscape:collect="always"
       id="linearGradient844">
      <stop
         style="stop-color:#000000;stop-opacity:1;"
         offset="0"
         id="stop840" />
      <stop
         style="stop-color:#000000;stop-opacity:0;"
         offset="1"
         id="stop842" />
    </linearGradient>
    <linearGradient
       gradientTransform="matrix(0.02269504,0,0,0.02269504,3.6425502,-15.357445)"
       inkscape:collect="always"
       xlink:href="#linearGradient876"
       id="linearGradient846-4"
       x1="184.97034"
       y1="366.10168"
       x2="187.63983"
       y2="242.44067"
       gradientUnits="userSpaceOnUse" />
    <linearGradient
       id="linearGradient876"
       inkscape:collect="always">
      <stop
         id="stop872"
         offset="0"
         style="stop-color:#ffffff;stop-opacity:1" />
      <stop
         id="stop874"
         offset="1"
         style="stop-color:#ffffff;stop-opacity:0" />
    </linearGradient>
  </defs>
  <sodipodi:namedview
     pagecolor="#ffffff"
     bordercolor="#666666"
     borderopacity="1"
     objecttolerance="10"
     gridtolerance="10"
     guidetolerance="10"
     inkscape:pageopacity="0"
     inkscape:pageshadow="2"
     inkscape:window-width="1366"
     inkscape:window-height="708"
     id="namedview8"
     showgrid="false"
     inkscape:zoom="14.75"
     inkscape:cx="4"
     inkscape:cy="7.3559322"
     inkscape:window-x="0"
     inkscape:window-y="25"
     inkscape:window-maximized="1"
     inkscape:current-layer="svg6" />
  <path
     fill="#e4e4e4"
     d="m2.75 1c-0.4172 0-0.75 0.3328-0.75 0.75v13.5c0 0.417 0.3328 0.75 0.75 0.75h10.5c0.418 0 0.75-0.332 0.75-0.75v-9.25l-4.125-0.875-0.875-4.125z"
     id="path2" />
  <path
     fill="#fafafa"
     d="m9 1v4.1667c0 0.4584 0.3749 0.8333 0.8333 0.8333h4.1667z"
     id="path4" />
  <circle
     style="opacity:1;fill:#00a441;fill-opacity:1;stroke:none;stroke-width:0.26152483;stroke-miterlimit:4;stroke-dasharray:none;stroke-opacity:0;paint-order:stroke fill markers"
     id="path823"
     cx="8"
     cy="11"
     r="4" />
  <path
     d="m 7.4965502,7.641535 c -0.0331,10e-4 -0.0675,0.006 -0.1029,0.0147 -0.67248,0.16674 -1.2422,0.49305 -1.74824,1.00144 -0.36398,0.36552 -0.61232,0.73316 -0.78662,1.16417 -0.12511,0.30931 -0.18609,0.54556 -0.23042,0.89365 -0.0243,0.19113 -0.0243,0.71192 0,0.90295 0.0418,0.32834 0.10076,0.5643 0.21162,0.84771 0.19185,0.49015 0.47887,0.90432 0.90795,1.30994 0.60491,0.57186 1.3001,0.89256 2.14646,0.99019 0.11737,0.0135 0.27277,0.0165 1.08184,0.0209 l 0.4278,-0.0431 c 0.38394,-0.17735 0.8104098,-0.37173 1.1210898,-0.64729 l -1.0655698,0.009 c -1.5031,0.013 -1.46151,10e-4 -1.76071,-0.0559 -0.45097,-0.0862 -0.87356,-0.2803 -1.25469,-0.57621 -0.13472,-0.10458 -0.42266,-0.38666 -0.52122,-0.51048 -0.20601,-0.25924 -0.35542,-0.52473 -0.45987,-0.81751 -0.19868,-0.55675 -0.21718,-1.23781 -0.0492,-1.80705 0.10631,-0.35988 0.28363,-0.69116 0.53087,-0.9916 0.10796,-0.13108 0.35676,-0.3744 0.49303,-0.4822 0.32503,-0.25701 0.70873,-0.44741 1.09193,-0.54181 0.0522,-0.0129 0.11561,-0.0337 0.14102,-0.0463 0.0605,-0.0299 0.12172,-0.0923 0.15468,-0.15767 0.0234,-0.0465 0.0266,-0.063 0.0266,-0.14046 0,-0.0803 -0.003,-0.0928 -0.0308,-0.14848 -0.064,-0.12672 -0.18143,-0.19345 -0.32463,-0.18889 z m 0.45312,0.83086 c -0.0564,9.3e-4 -0.12742,0.011 -0.22304,0.0303 -0.40407,0.0817 -0.77611,0.25279 -1.10806,0.5094 -0.12853,0.0993 -0.39148,0.35526 -0.49025,0.47706 -0.33351,0.41117 -0.52444,0.86866 -0.57672,1.38168 -0.0147,0.14336 -0.0122,0.49299 0.005,0.63252 0.0735,0.61478 0.33589,1.13728 0.79823,1.58955 0.35065,0.34296 0.76018,0.58233 1.19545,0.6988 0.12171,0.0325 0.19787,0.0479 0.37764,0.0764 l 0.13223,0.0209 1.48103,0.003 c 0.5371798,0.001 0.9569698,-10e-4 1.2166698,0.002 0.20182,-0.20636 0.39111,-0.39611 0.54644,-0.6394 l -3.2346398,-0.038 -0.10868,-0.0204 c -0.23226,-0.0437 -0.3896,-0.0945 -0.5766,-0.186 -0.39374,-0.19273 -0.74989,-0.54111 -0.94712,-0.92678 -0.2428,-0.47484 -0.28047,-1.07945 -0.0997,-1.60224 0.0614,-0.17773 0.20144,-0.42508 0.3246,-0.57328 0.35344,-0.42567 0.79449,-0.68741 1.28473,-0.76257 0.12212,-0.0187 0.19508,-0.0527 0.25831,-0.12012 0.0672,-0.0716 0.0893,-0.13348 0.0845,-0.23544 -0.003,-0.0624 -0.009,-0.0899 -0.0293,-0.13018 -0.0317,-0.0632 -0.1032,-0.12965 -0.17449,-0.16219 -0.0375,-0.0171 -0.0794,-0.0253 -0.13579,-0.0244 z m 0.3421,0.89896 c -0.28558,9e-5 -0.50358,0.0485 -0.75164,0.16487 -0.20446,0.096 -0.35706,0.2056 -0.53383,0.38353 -0.21252,0.21389 -0.33834,0.41097 -0.42575,0.66678 -0.12584,0.36824 -0.12521,0.79391 0.002,1.16548 0.16706,0.48964 0.5798,0.90926 1.08057,1.09877 0.11779,0.0445 0.18681,0.0632 0.34044,0.0921 l 0.13223,0.0249 1.7692,0.003 c 0.8858298,0.001 1.3411298,0.003 1.5672698,0.006 0.11421,-0.20936 0.2106,-0.42934 0.28728,-0.65803 l -1.66641,-9e-5 c -1.1955798,-1.8e-4 -1.8865698,-0.003 -1.9290298,-0.009 -0.14847,-0.0207 -0.30767,-0.0751 -0.42783,-0.1458 -0.13844,-0.0816 -0.30229,-0.23464 -0.396,-0.36975 -0.11891,-0.17167 -0.18228,-0.3896 -0.18238,-0.62768 -9e-5,-0.31494 0.10074,-0.56026 0.324,-0.78795 0.11055,-0.11274 0.20872,-0.18419 0.34014,-0.24756 0.16902,-0.0814 0.27089,-0.10296 0.54055,-0.11405 0.14991,-0.006 0.1749,-0.009 0.21157,-0.0278 0.14227,-0.0717 0.21823,-0.23315 0.17608,-0.3743 -0.0303,-0.10176 -0.0954,-0.17588 -0.19177,-0.2188 -0.0391,-0.0173 -0.0655,-0.0204 -0.2082,-0.0234 -0.0197,-4.1e-4 -0.039,-6.2e-4 -0.058,-6.1e-4 z"
     style="fill:#ffffff;fill-opacity:1;stroke-width:0.02142073"
     id="path2-3"
     inkscape:connector-curvature="0"
     sodipodi:nodetypes="ccccccccccccsccccccccccscccccccccccccccccccccccccccccccccccccccccccccccccccc" />
  <circle
     style="opacity:0.4;fill:none;fill-opacity:1;stroke:url(#linearGradient846);stroke-width:0.16666666;stroke-miterlimit:4;stroke-dasharray:none;stroke-opacity:1;paint-order:stroke fill markers"
     id="path823-5"
     cx="8"
     cy="11"
     r="3.9166665" />
  <circle
     style="opacity:0.4;fill:none;fill-opacity:1;stroke:url(#linearGradient846-4);stroke-width:0.16666666;stroke-miterlimit:4;stroke-dasharray:none;stroke-opacity:1;paint-order:stroke fill markers"
     id="path823-5-9"
     cx="8"
     cy="-11"
     r="3.9166665"
     transform="scale(1,-1)" />
</svg>
