<?xml version="1.0" encoding="UTF-8" standalone="no"?>
<svg
   xmlns:dc="http://purl.org/dc/elements/1.1/"
   xmlns:cc="http://creativecommons.org/ns#"
   xmlns:rdf="http://www.w3.org/1999/02/22-rdf-syntax-ns#"
   xmlns:svg="http://www.w3.org/2000/svg"
   xmlns="http://www.w3.org/2000/svg"
   xmlns:sodipodi="http://sodipodi.sourceforge.net/DTD/sodipodi-0.dtd"
   xmlns:inkscape="http://www.inkscape.org/namespaces/inkscape"
   width="16"
   height="16"
   version="1.1"
   id="svg10"
   sodipodi:docname="application-x-iso.svg"
   inkscape:version="0.92.3 (2405546, 2018-03-11)">
  <metadata
     id="metadata16">
    <rdf:RDF>
      <cc:Work
         rdf:about="">
        <dc:format>image/svg+xml</dc:format>
        <dc:type
           rdf:resource="http://purl.org/dc/dcmitype/StillImage" />
      </cc:Work>
    </rdf:RDF>
  </metadata>
  <defs
     id="defs14" />
  <sodipodi:namedview
     pagecolor="#ffffff"
     bordercolor="#666666"
     borderopacity="1"
     objecttolerance="10"
     gridtolerance="10"
     guidetolerance="10"
     inkscape:pageopacity="0"
     inkscape:pageshadow="2"
     inkscape:window-width="1366"
     inkscape:window-height="704"
     id="namedview12"
     showgrid="false"
     inkscape:zoom="14.75"
     inkscape:cx="0.84745763"
     inkscape:cy="8"
     inkscape:window-x="0"
     inkscape:window-y="30"
     inkscape:window-maximized="1"
     inkscape:current-layer="svg10" />
  <path
     style="fill:#e4e4e4;fill-opacity:1"
     d="m2.75 1c-0.4172 0-0.75 0.3328-0.75 0.75v13.5c0 0.417 0.3328 0.75 0.75 0.75h10.5c0.418 0 0.75-0.332 0.75-0.75v-9.25l-4.125-0.875-0.875-4.125z"
     id="path2" />
  <path
     fill="#fff"
     opacity=".5"
     d="m8 7.9004c-1.1578 0-2.0996 0.9418-2.0996 2.0996 0 1.158 0.9418 2.1 2.0996 2.1s2.1-0.942 2.1-2.1c0-1.1578-0.9422-2.0996-2.1-2.0996zm0 1.0996c0.5521 0 1 0.4479 1 1 0 0.552-0.4479 1-1 1s-1-0.448-1-1c0-0.5521 0.4479-1 1-1z"
     id="path4"
     style="fill:#969696;fill-opacity:1" />
  <path
     style="fill:#fafafa;fill-opacity:1"
     d="m9 1v4.1667c0 0.4584 0.3749 0.8333 0.8333 0.8333h4.1667z"
     id="path6" />
  <path
     inkscape:connector-curvature="0"
     d="m 8,6.5 c -2.2164,0 -4,1.7836 -4,4 0,2.216 1.7836,4 4,4 2.216,0 4,-1.784 4,-4 0,-2.2164 -1.784,-4 -4,-4 z m 0,2 c 1.1062002,0 2,0.8938 2,2 0,1.106 -0.8937998,2 -2,2 -1.1062,0 -2,-0.894 -2,-2 0,-1.1062 0.8938,-2 2,-2 z"
     id="path8-3"
     style="opacity:0.2;fill:#000000;fill-opacity:1;stroke:none;stroke-width:0.2;stroke-miterlimit:4;stroke-dasharray:none;stroke-opacity:1" />
  <path
     fill="#fff"
     d="m8 6c-2.2164 0-4 1.7836-4 4 0 2.216 1.7836 4 4 4 2.216 0 4-1.784 4-4 0-2.2164-1.784-4-4-4zm0 2c1.1062 0 2 0.8938 2 2 0 1.106-0.8938 2-2 2s-2-0.894-2-2c0-1.1062 0.8938-2 2-2z"
     id="path8"
     style="stroke:none;stroke-opacity:1;stroke-width:0.2;stroke-miterlimit:4;stroke-dasharray:none" />
</svg>
