<?xml version="1.0" encoding="UTF-8" standalone="no"?>
<svg
   xmlns:dc="http://purl.org/dc/elements/1.1/"
   xmlns:cc="http://creativecommons.org/ns#"
   xmlns:rdf="http://www.w3.org/1999/02/22-rdf-syntax-ns#"
   xmlns:svg="http://www.w3.org/2000/svg"
   xmlns="http://www.w3.org/2000/svg"
   xmlns:xlink="http://www.w3.org/1999/xlink"
   xmlns:sodipodi="http://sodipodi.sourceforge.net/DTD/sodipodi-0.dtd"
   xmlns:inkscape="http://www.inkscape.org/namespaces/inkscape"
   width="16"
   height="16"
   version="1"
   id="svg16"
   sodipodi:docname="audio-x-generic.svg"
   inkscape:version="0.92.3 (2405546, 2018-03-11)">
  <metadata
     id="metadata22">
    <rdf:RDF>
      <cc:Work
         rdf:about="">
        <dc:format>image/svg+xml</dc:format>
        <dc:type
           rdf:resource="http://purl.org/dc/dcmitype/StillImage" />
        <dc:title />
      </cc:Work>
    </rdf:RDF>
  </metadata>
  <defs
     id="defs20">
    <linearGradient
       inkscape:collect="always"
       id="linearGradient848">
      <stop
         style="stop-color:#dcdcdc;stop-opacity:1;"
         offset="0"
         id="stop844" />
      <stop
         style="stop-color:#f0f0f0;stop-opacity:1"
         offset="1"
         id="stop846" />
    </linearGradient>
    <linearGradient
       inkscape:collect="always"
       xlink:href="#linearGradient848"
       id="linearGradient850"
       x1="31.118645"
       y1="59.661018"
       x2="32.610168"
       y2="4.8813558"
       gradientUnits="userSpaceOnUse"
       gradientTransform="matrix(0.28571428,0,0,0.28571428,-1.1428571,-1.1428571)" />
  </defs>
  <sodipodi:namedview
     pagecolor="#ffffff"
     bordercolor="#666666"
     borderopacity="1"
     objecttolerance="10"
     gridtolerance="10"
     guidetolerance="10"
     inkscape:pageopacity="0"
     inkscape:pageshadow="2"
     inkscape:window-width="1366"
     inkscape:window-height="704"
     id="namedview18"
     showgrid="false"
     inkscape:zoom="20.85965"
     inkscape:cx="1.0376001"
     inkscape:cy="8.7548732"
     inkscape:window-x="0"
     inkscape:window-y="30"
     inkscape:window-maximized="1"
     inkscape:current-layer="svg16" />
  <rect
     style="fill:url(#linearGradient850);fill-opacity:1;stroke-width:0.2857143"
     width="16"
     height="16"
     x="0"
     y="0"
     rx="0.85714281"
     ry="0.85714281"
     id="rect4" />
  <path
     style="opacity:1;fill:#ffffff;stroke-width:0.2857143"
     d="M 0.8571429,0 C 0.3822857,0 0,0.3822856 0,0.8571429 V 1.1428571 C 0,0.668 0.3822857,0.2857144 0.8571429,0.2857144 H 15.142857 C 15.617714,0.2857144 16,0.668 16,1.1428571 V 0.8571429 C 16,0.3822856 15.617714,0 15.142857,0 Z"
     id="path6"
     inkscape:connector-curvature="0" />
  <path
     inkscape:connector-curvature="0"
     style="opacity:0.2;fill:#000000;fill-opacity:1;stroke-width:0.2857143"
     d="M 0.8571429,16 C 0.3822857,16 0,15.617714 0,15.142857 V 14.857143 C 0,15.332 0.3822857,15.714286 0.8571429,15.714286 H 15.142857 C 15.617714,15.714286 16,15.332 16,14.857143 v 0.285714 C 16,15.617714 15.617714,16 15.142857,16 Z"
     id="path6-3" />
  <path
     style="color:#4d4d4d;opacity:0.3;fill:#000000;fill-opacity:1;stroke:none;stroke-width:0.55034953"
     class="ColorScheme-Text"
     d="M 10.563115,3.5714287 6.5905924,4.6434249 C 6.2921404,4.7268901 6.0513518,5.0587202 6.0513518,5.3811913 V 10.494135 C 5.7487132,10.328747 5.3600043,10.2619 4.9570433,10.371174 4.229893,10.568358 3.7746917,11.205443 3.9305634,11.794168 c 0.1558717,0.588726 0.8724864,0.91707 1.5996352,0.719881 0.5801147,-0.157311 0.9796607,-0.601515 1.0434366,-1.070878 L 6.5905915,6.6108019 10.361887,5.5566901 V 9.3696003 C 10.059243,9.2042119 9.670535,9.1373634 9.2675769,9.2466392 8.5404273,9.4438237 8.0840958,10.080904 8.2399659,10.669633 c 0.1558718,0.588725 0.8724892,0.917071 1.5996351,0.719882 0.580117,-0.157312 0.979662,-0.601514 1.043437,-1.070879 L 10.9,4.0286197 c 0,-0.2418527 -0.143399,-0.4231718 -0.336885,-0.457191 z"
     id="path4"
     inkscape:connector-curvature="0" />
</svg>
