<?xml version="1.0" encoding="UTF-8" standalone="no"?>
<svg
   xmlns:dc="http://purl.org/dc/elements/1.1/"
   xmlns:cc="http://creativecommons.org/ns#"
   xmlns:rdf="http://www.w3.org/1999/02/22-rdf-syntax-ns#"
   xmlns:svg="http://www.w3.org/2000/svg"
   xmlns="http://www.w3.org/2000/svg"
   xmlns:xlink="http://www.w3.org/1999/xlink"
   xmlns:sodipodi="http://sodipodi.sourceforge.net/DTD/sodipodi-0.dtd"
   xmlns:inkscape="http://www.inkscape.org/namespaces/inkscape"
   width="16"
   height="16"
   version="1"
   id="svg20"
   sodipodi:docname="image-x-xcf.svg"
   inkscape:version="0.92.3 (2405546, 2018-03-11)">
  <metadata
     id="metadata26">
    <rdf:RDF>
      <cc:Work
         rdf:about="">
        <dc:format>image/svg+xml</dc:format>
        <dc:type
           rdf:resource="http://purl.org/dc/dcmitype/StillImage" />
        <dc:title></dc:title>
      </cc:Work>
    </rdf:RDF>
  </metadata>
  <defs
     id="defs24">
    <linearGradient
       inkscape:collect="always"
       xlink:href="#linearGradient852"
       id="linearGradient854"
       x1="31.9517"
       y1="191.9989"
       x2="339.66656"
       y2="191.9989"
       gradientUnits="userSpaceOnUse" />
    <linearGradient
       inkscape:collect="always"
       id="linearGradient852">
      <stop
         style="stop-color:#925130;stop-opacity:1;"
         offset="0"
         id="stop848" />
      <stop
         style="stop-color:#754127;stop-opacity:1"
         offset="1"
         id="stop850" />
    </linearGradient>
    <linearGradient
       inkscape:collect="always"
       xlink:href="#linearGradient844"
       id="linearGradient846"
       x1="272.83267"
       y1="173.62025"
       x2="370.54828"
       y2="95.383087"
       gradientUnits="userSpaceOnUse" />
    <linearGradient
       inkscape:collect="always"
       id="linearGradient844">
      <stop
         style="stop-color:#0049ff;stop-opacity:1;"
         offset="0"
         id="stop840" />
      <stop
         style="stop-color:#ff0041;stop-opacity:1"
         offset="1"
         id="stop842" />
    </linearGradient>
  </defs>
  <sodipodi:namedview
     pagecolor="#ffffff"
     bordercolor="#666666"
     borderopacity="1"
     objecttolerance="10"
     gridtolerance="10"
     guidetolerance="10"
     inkscape:pageopacity="0"
     inkscape:pageshadow="2"
     inkscape:window-width="1366"
     inkscape:window-height="704"
     id="namedview22"
     showgrid="false"
     inkscape:zoom="19.666667"
     inkscape:cx="6.7988457"
     inkscape:cy="5.7877258"
     inkscape:window-x="0"
     inkscape:window-y="30"
     inkscape:window-maximized="1"
     inkscape:current-layer="svg20" />
  <path
     inkscape:connector-curvature="0"
     style="opacity:0.2;stroke-width:0.37573457"
     d="M 16,4.4117649 C 16,4.020706 15.6432,3.7058824 15.2,3.7058824 H 0.8 C 0.3568,3.7058824 0,4.020706 0,4.4117649 V 14.294118 C 0,14.685177 0.3568,15 0.8,15 h 10.4 l 0.4,-3.882352 4.4,-1.096545 z"
     id="path2"
     sodipodi:nodetypes="sssssscccs" />
  <path
     style="fill:#e4e4e4;stroke-width:0.38729832"
     inkscape:connector-curvature="0"
     d="M 16,2.7500001 C 16,2.3345001 15.6432,2 15.2,2 H 0.8 C 0.3568,2 0,2.3345001 0,2.7500001 V 13.249999 C 0,13.665498 0.3568,14 0.8,14 H 11.2 L 12.820339,11.667373 16,10.021103 Z"
     id="path4"
     sodipodi:nodetypes="sssssscccs" />
  <path
     inkscape:connector-curvature="0"
     style="opacity:0.2;stroke-width:0.40217477"
     d="m 16,9.549274 h -4.41091 c -0.487229,0 -0.882181,0.328347 -0.882181,0.733385 v 3.666921 z"
     id="path8" />
  <path
     style="fill:#ffffff;fill-opacity:1;stroke-width:0.38298416"
     inkscape:connector-curvature="0"
     d="m 16,9.549274 h -4 c -0.44184,0 -0.8,0.328347 -0.8,0.733385 v 3.666921 z"
     id="path10" />
  <ellipse
     cx="6.4888549"
     cy="8.5517254"
     rx="0.74418515"
     ry="0.98570311"
     style="fill:#ffffff;stroke-width:0.02269479;paint-order:markers fill stroke"
     id="ellipse2" />
  <g
     id="g12"
     style="stroke-width:1.36000001"
     transform="matrix(0.02269481,0,0,0.02269481,3.6427004,3.6426128)">
    <path
       d="m 211.47,52.615 c -8.6431,14.604 -14.349,30.726 -24.617,44.337 -8.0322,10.651 -16.962,20.867 -28.495,28.628 22.391,-8.2075 49.32,-11.793 66.276,-19.533 0.57904,-0.27624 1.2059,-0.57905 1.8009,-0.8606 -2.6615,-17.876 -7.416,-35.72 -14.965,-52.571 z"
       id="path4-3"
       style="fill:#4b2a19;fill-opacity:1"
       inkscape:connector-curvature="0" />
    <path
       d="m 300.43,43.142 c -7.4107,28.49 -47.539,48.576 -74.467,61.421 -0.1753,0.085 -0.3566,0.16999 -0.5319,0.25499 -0.42498,0.20186 -0.85993,0.40905 -1.269,0.60561 -0.48873,0.22311 -0.98343,0.44158 -1.4881,0.65938 -0.0797,0.0319 -0.15341,0.0637 -0.23309,0.0956 -0.2603,0.11157 -0.52724,0.21714 -0.79286,0.32871 -0.42498,0.1753 -0.85528,0.35194 -1.2909,0.52192 -0.22312,0.085 -0.45023,0.17399 -0.67334,0.25898 -0.47811,0.18593 -0.96286,0.36125 -1.4463,0.54186 l -0.6056,0.22312 c -0.6428,0.22843 -1.2962,0.45819 -1.9603,0.6813 -0.0319,0.0106 -0.0625,0.0252 -0.0996,0.0359 0,0 -0.006,6.7e-4 -0.0119,0.006 -0.72248,0.24438 -1.4596,0.48409 -2.2033,0.72315 -0.14345,0.0425 -0.28687,0.089 -0.43031,0.13148 -0.6056,0.19125 -1.2119,0.37784 -1.8228,0.56377 -0.19654,0.0637 -0.39311,0.12284 -0.58966,0.18128 -0.61623,0.18062 -1.2318,0.36522 -1.8586,0.54584 -0.13812,0.0372 -0.27624,0.0803 -0.41437,0.11754 -1.02,0.29748 -2.0612,0.58369 -3.1077,0.87055 -0.92434,0.24968 -1.8606,0.49935 -2.8009,0.74904 -0.45686,0.12218 -0.91771,0.24038 -1.3746,0.36256 -0.26031,0.0638 -0.52193,0.13148 -0.77692,0.19523 -1.5884,0.40905 -3.1914,0.81943 -4.817,1.2232 -5.0998,1.275 -10.348,2.5486 -15.602,3.9085 -7.4372,1.9284 -14.881,4.044 -21.877,6.6098 -5.4876,2.0134 -10.709,4.2977 -15.437,6.9963 -21.398,12.202 -36.963,28.835 -49.086,48.171 -16.303,26.02 -5.0102,59.472 -49.618,84.36 -0.73841,0.87654 -1.6455,1.6827 -2.6814,2.4423 0.04781,-0.0372 0.09961,-0.0744 0.14742,-0.11156 1.5034,0.86059 2.9231,3.9218 2.9284,9.5104 0.0053,14.37 -6.0029,30.21 -10.757,34.657 -0.23905,0.22312 -0.60693,0.51529 -1.0478,0.81279 15.916,15.501 38.951,26.068 63.881,28.208 12.346,1.3334 29.748,0.70588 37.079,0.69526 62.298,-0.15406 121.66,-29.073 157.33,-70.095 2.6491,-3.2168 13.069,-15.443 13.273,-17.634 16.426,-26.323 34.651,-53.265 35.77,-83.418 h -0.002 c -17.809,5.2848 -36.552,11.198 -55.684,12.979 0.20187,-0.005 0.39378,-0.0109 0.57971,-0.016 0.085,0 0.17597,-0.006 0.26097,-0.006 0.0191,0 0.0369,-2e-5 0.0558,0 -4.8912,0.0535 -14.152,1.9525 -16.359,-0.37651 21.016,-23.486 40.953,-49.107 45.388,-78.585 2.7837,-20.468 -0.72845,-42.584 -13.473,-60.407 z m -15.286,139.37 c 0.0605,7.9e-4 0.12219,3e-5 0.18328,0.002 0.0797,0 0.16468,5.3e-4 0.23906,0.006 0.14343,0.005 0.26961,0.0152 0.40241,0.0259 0.0875,0.005 0.17551,0.0112 0.25897,0.0199 -0.3254,-0.0333 -0.68601,-0.052 -1.0837,-0.0538 z m -155.67,3.1197 c 12.712,-0.016 13.663,19.741 15.06,28.607 2.1143,13.26 4.5686,28.166 -15.029,33.133 -1.3334,0.56842 -6.4804,3.8581 -4.9664,-0.21116 5.5673,-9.6844 -4.0858,-34.137 -18.987,-21.977 -1.4821,-13.801 3.4524,-29.591 17.716,-38.245 2.3321,-0.89778 4.3886,-1.3068 6.2054,-1.3068 z m 174.14,66.999 c -0.62824,0.0227 -2.3416,1.1246 -5.6477,3.8408 -2.2585,1.2327 -3.9643,1.8836 -5.2672,2.0997 0.0365,-0.006 0.0705,-0.009 0.10756,-0.016 0.31874,-0.0638 0.66405,-0.15005 1.0359,-0.26694 0.18062,-0.0585 0.37187,-0.12215 0.57374,-0.19124 0.79153,-0.28689 1.6906,-0.67932 2.7053,-1.2052 0.25499,-0.13286 0.51929,-0.27158 0.7849,-0.42033 0.53122,-0.4303 1.01,-0.81146 1.4562,-1.1674 0.17531,-0.13811 0.32337,-0.251 0.48806,-0.3785 0.26561,-0.20718 0.5259,-0.40243 0.76498,-0.57772 0.14341,-0.11151 0.28156,-0.2072 0.41436,-0.30279 0.21781,-0.1594 0.4263,-0.30348 0.61756,-0.43629 0.15936,-0.10621 0.32804,-0.22244 0.46614,-0.31276 0.0319,-0.0159 0.0651,-0.0377 0.0916,-0.0538 0.20187,-0.12742 0.38115,-0.23372 0.54585,-0.31874 0.0638,-0.0319 0.12875,-0.0691 0.18725,-0.0956 0.0265,-0.0109 0.0532,-0.0273 0.0797,-0.0378 0.0797,-0.0372 0.15405,-0.0631 0.22311,-0.0896 0.0109,0 0.0152,-0.004 0.0259,-0.0104 0.0744,-0.0265 0.14343,-0.043 0.20718,-0.0538 h 0.0219 c 0.0428,-0.005 0.0795,-0.009 0.11754,-0.006 z m -11.391,5.9983 c -0.15706,0.0137 -0.30841,0.0207 -0.45222,0.0199 0.14596,-0.001 0.2929,-0.004 0.45222,-0.0199 z m -251.49,8.5322 c -0.08501,0.0637 -0.17398,0.12086 -0.25898,0.1793 0.085,-0.0584 0.17398,-0.11554 0.25898,-0.1793 z m -8.7813,44.261 v 0.006 c 0.05844,0.0585 0.12284,0.11687 0.18129,0.17531 -0.05845,-0.0584 -0.11754,-0.12285 -0.18129,-0.18127 z"
       id="path6"
       style="fill:url(#linearGradient854);fill-opacity:1"
       inkscape:connector-curvature="0" />
    <path
       d="m 349.33,88.574 c -18.163,3.1661 2.688,22.168 -1.6628,32.538 15.767,-4.388 18.907,-28.166 1.6628,-32.538 z m 7.5382,40.188 c -0.87653,0.0106 -1.838,0.32937 -2.4384,0.76498 -11.336,8.2447 -3.5327,25.759 -11.097,36.033 5.3495,0.30281 10.72,-1.4662 15.443,-3.3521 15.353,-5.0467 9.7162,-25.876 -0.52061,-33.096 -0.36655,-0.25499 -0.8606,-0.36124 -1.3865,-0.35062 z m -23.443,0.79685 c -5.4611,-0.0425 -3.6018,14.317 2.4012,14.556 5.0733,0.20186 5.6258,-8.335 3.4955,-12.096 -0.92965,-1.6309 -4.5048,-2.449 -5.8967,-2.4596 z m 6.2367,39.996 c -17.812,5.2858 -36.559,11.198 -55.694,12.978 h 0.0107 c 0.20187,-0.005 0.39312,-0.0106 0.57905,-0.016 0.085,0 0.1753,-0.005 0.26029,-0.005 0.17531,0 0.34,0 0.51,0.005 0.0797,0 0.16467,0 0.23905,0.005 0.14343,0.005 0.27093,0.016 0.40373,0.0265 0.0957,0.005 0.19125,0.0107 0.28155,0.0213 0.17531,0.0212 0.34,0.0425 0.49405,0.0744 h 0.005 c 0.005,0 0.0107,0 0.016,0.005 0.0744,0.016 0.14875,0.0318 0.2178,0.0532 0.0107,0 0.0212,0.005 0.0319,0.005 0.069,0.0213 0.1328,0.0425 0.19124,0.0637 0.005,0.005 0.0106,0.005 0.0106,0.005 0.0637,0.0265 0.1275,0.0532 0.18063,0.085 0.28155,0.14344 0.44092,0.34531 0.46748,0.61092 0.005,0.0106 0.005,0.0213 0.005,0.0318 0.005,0.0425 0,0.085 -0.005,0.1275 0,0.0213 0,0.0372 -0.005,0.0532 -0.005,0.0478 -0.016,0.0957 -0.0319,0.14344 0,0.0212 -0.005,0.0372 -0.0159,0.0584 -0.016,0.0478 -0.0319,0.0957 -0.0584,0.14875 -0.0106,0.0265 -0.016,0.0478 -0.0318,0.0744 -0.0213,0.0478 -0.0478,0.0956 -0.0744,0.14343 -0.016,0.0318 -0.0372,0.069 -0.0584,0.10089 -0.0319,0.0478 -0.0637,0.10089 -0.0956,0.14875 -0.0265,0.0425 -0.0532,0.0797 -0.085,0.11687 -0.0319,0.0532 -0.0744,0.1009 -0.11687,0.15406 -0.0319,0.0425 -0.069,0.0903 -0.10624,0.13281 -0.0425,0.0532 -0.085,0.10624 -0.13281,0.15936 -0.0425,0.0478 -0.085,0.0957 -0.13281,0.14875 -0.0585,0.0637 -0.11687,0.12218 -0.18062,0.19124 -0.0212,0.0265 -0.0532,0.0532 -0.0797,0.0797 -0.18593,0.19124 -0.40374,0.39843 -0.63748,0.61622 -0.15406,0.13813 -0.33999,0.29749 -0.52061,0.44624 -0.13812,0.12218 -0.2603,0.23375 -0.40905,0.35593 -0.21249,0.17531 -0.45686,0.36655 -0.69059,0.55248 -0.15938,0.12218 -0.30281,0.23905 -0.4728,0.37186 -0.41968,0.32405 -0.87653,0.66404 -1.3706,1.02 -0.55778,0.61092 -1.0571,1.2112 -1.5034,1.8062 -1.3281,1.7956 -2.1462,3.5486 -2.518,5.2433 -0.0584,0.28155 -0.11156,0.5631 -0.14874,0.84465 -0.14343,1.0837 -0.10625,2.1409 0.0903,3.1662 0.005,0.0372 0.005,0.069 0.016,0.10624 0.0532,0.26562 0.11688,0.52592 0.19125,0.78623 0.22312,0.78622 0.53654,1.5565 0.94028,2.3002 0.13281,0.24968 0.27624,0.49936 0.42499,0.74373 h 0.005 c 0.14875,0.24436 0.31343,0.48342 0.48342,0.72778 0.17001,0.23905 0.34531,0.47812 0.53124,0.71185 0.19125,0.23375 0.3878,0.46748 0.58966,0.70123 0.20187,0.22843 0.41436,0.45686 0.63749,0.68529 0.44092,0.45155 0.9084,0.89247 1.4078,1.3228 2.0028,1.7212 4.457,3.2777 7.2088,4.627 -0.13812,0.28686 -0.29749,0.56841 -0.47811,0.86059 -0.0903,0.14343 -0.18593,0.28686 -0.28686,0.4303 -0.1009,0.14875 -0.20718,0.29217 -0.31874,0.44092 -0.2178,0.29217 -0.45686,0.58966 -0.71185,0.88716 -0.255,0.29749 -0.52592,0.59498 -0.81278,0.89777 -0.57374,0.60562 -1.2006,1.2165 -1.8593,1.8328 -0.66405,0.61624 -1.3653,1.2378 -2.0877,1.8646 -1.7956,1.5671 -3.7133,3.1555 -5.4558,4.7386 -2.6136,2.3852 -4.8395,4.7545 -5.6948,7.0229 -0.0584,0.15405 -0.10624,0.3028 -0.15405,0.45686 -0.0425,0.14875 -0.0797,0.29749 -0.11156,0.44624 -0.0637,0.29749 -0.10089,0.59498 -0.11155,0.89246 -0.005,0.29218 0.016,0.58436 0.069,0.87653 0.0265,0.14344 0.0584,0.28687 0.1009,0.4303 0.0425,0.14344 0.0956,0.28687 0.15405,0.4303 0.11688,0.28686 0.26561,0.56842 0.45155,0.84466 0.0957,0.13811 0.19655,0.27624 0.30812,0.41436 0.11156,0.13812 0.23373,0.27625 0.36655,0.41436 0.26029,0.27093 0.55779,0.54186 0.89778,0.80747 0.16999,0.13281 0.35061,0.26562 0.54186,0.39843 0.37717,0.2603 0.80215,0.5206 1.2696,0.77559 0.46218,0.255 0.97747,0.50999 1.53,0.75435 0.46749,0.21249 0.97747,0.41436 1.514,0.61623 0.1009,0.0372 0.19656,0.0797 0.29749,0.11688 0.65342,0.23905 1.3546,0.4781 2.1037,0.70653 0.36655,0.0265 0.70654,0.0744 1.0253,0.13812 0.0319,0.005 0.0637,0.0106 0.0904,0.016 h 0.005 c 0.0372,0.005 0.0744,0.016 0.11155,0.0265 0.30281,0.069 0.58968,0.14875 0.85529,0.24968 0.14875,0.0532 0.29217,0.11688 0.4303,0.18062 0.13812,0.0637 0.27093,0.13812 0.39842,0.21249 0.255,0.14875 0.48343,0.31343 0.70122,0.49404 0.10625,0.0904 0.20719,0.18594 0.30281,0.28157 0.10089,0.10089 0.19125,0.20186 0.28155,0.30811 0.085,0.10624 0.16999,0.21249 0.24968,0.32405 0.0797,0.11687 0.15406,0.22843 0.22844,0.35061 0.21249,0.35592 0.3931,0.73841 0.54184,1.1422 0.1275,0.3453 0.23375,0.71185 0.31875,1.089 0.016,0.0637 0.0372,0.12219 0.0478,0.18593 0.069,0.29218 0.12218,0.59498 0.16468,0.9031 0.0478,0.30811 0.085,0.61622 0.11687,0.93497 0.0265,0.31873 0.0532,0.63747 0.069,0.95622 v 0.0319 c 0.0372,0.63217 0.0532,1.275 0.0637,1.9071 0.0106,0.64279 0.016,1.2803 0.0319,1.8965 0.0213,0.92434 0.0637,1.8062 0.17531,2.5977 0.0372,0.2603 0.0797,0.50998 0.1328,0.75435 0.0265,0.11686 0.0585,0.23905 0.0903,0.35061 0.0319,0.11687 0.0637,0.22311 0.1009,0.33468 0.0372,0.10624 0.0797,0.20718 0.12217,0.30811 0.0425,0.1009 0.0904,0.19656 0.13813,0.29218 0.016,0.0319 0.0372,0.0584 0.0532,0.085 0.085,0.15406 0.18062,0.29749 0.28156,0.42499 0.0637,0.0744 0.13281,0.14875 0.20187,0.21781 0.2178,0.20187 0.46216,0.36654 0.75435,0.48342 0.28686,0.11687 0.62153,0.18593 0.99871,0.20717 0.255,0.0107 0.52592,0 0.82341,-0.0372 0.14874,-0.016 0.3028,-0.0425 0.46217,-0.069 0.31874,-0.0637 0.66404,-0.14875 1.0359,-0.26561 0.18062,-0.0584 0.37186,-0.12219 0.57374,-0.19125 0.79153,-0.28686 1.6893,-0.67997 2.704,-1.2059 0.25499,-0.13281 0.5206,-0.27093 0.78621,-0.41968 0.53124,-0.43029 1.0093,-0.81278 1.4556,-1.1687 0.1753,-0.13813 0.32405,-0.24969 0.48873,-0.37718 0.26562,-0.20718 0.52592,-0.40373 0.76497,-0.57904 0.14344,-0.11156 0.28156,-0.20718 0.41436,-0.30281 0.21781,-0.15936 0.42499,-0.30279 0.61624,-0.4356 0.15937,-0.10626 0.32936,-0.22312 0.46748,-0.31343 0.0319,-0.016 0.0637,-0.0372 0.0903,-0.0532 0.20186,-0.1275 0.38249,-0.23375 0.54717,-0.31875 0.0637,-0.0318 0.12749,-0.069 0.18593,-0.0956 0.0265,-0.0107 0.0532,-0.0265 0.0797,-0.0372 0.0797,-0.0372 0.15407,-0.0637 0.22313,-0.0903 0.0106,0 0.016,-0.005 0.0265,-0.0106 0.0744,-0.0265 0.14344,-0.0425 0.20718,-0.0532 h 0.0213 c 0.0478,-0.005 0.0903,-0.0106 0.1328,-0.005 0.0106,0 0.0213,0.005 0.0318,0.005 0.0319,0.005 0.0584,0.016 0.0797,0.0319 0.0106,0.005 0.016,0.0106 0.0212,0.016 0.0265,0.016 0.0425,0.0425 0.0584,0.069 0,0.005 0.005,0.0106 0.005,0.016 0.016,0.0318 0.0212,0.0744 0.0212,0.12218 0,0.0532 -0.005,0.11156 -0.016,0.17531 16.442,-26.354 34.711,-53.325 35.832,-83.515 z"
       id="path8-6"
       style="fill:url(#linearGradient846);fill-opacity:1"
       inkscape:connector-curvature="0" />
    <path
       d="m 41.681,266.66 c -10.832,8.0907 -32.952,8.096 -23.735,25.207 4.9511,7.6497 8.76,13.839 14.853,19.772 0.44092,-0.29749 0.80747,-0.58967 1.0518,-0.81279 4.7492,-4.4517 10.763,-20.288 10.752,-34.663 0,-5.5886 -1.4237,-8.6431 -2.9218,-9.5037 z"
       id="path10-7"
       style="fill:#4b2819;fill-opacity:1"
       inkscape:connector-curvature="0" />
  </g>
  <path
     d="m 7.078012,10.106318 c -0.00694,-5.72e-4 -0.014653,0.0023 -0.019946,0.0076 -0.00534,0.0053 -0.0088,0.0124 -0.011466,0.02155 -1.573e-4,5.86e-4 -2.853e-4,0.0012 -3.573e-4,0.0017 -0.00226,0.01855 -0.0068,0.02871 -0.01688,0.04277 -0.01,0.01396 -0.025639,0.03137 -0.047559,0.05988 -0.203918,0.212804 -0.410368,0.473823 -0.6089928,0.635273 -4.134e-4,3.43e-4 -8e-4,7e-4 -0.00116,0.0011 -0.00454,0.0049 -0.020253,0.01661 -0.041092,0.02944 -0.020839,0.0128 -0.047226,0.0276 -0.075305,0.0422 -0.056172,0.0292 -0.1195839,0.05769 -0.1581551,0.06853 -0.00386,0.001 -0.0068,0.0042 -0.00774,0.008 -0.00186,0.0074 0.00426,0.0145 0.011866,0.0137 0.1625604,-0.01662 0.2397706,-0.02402 0.4339929,-0.183689 1.56e-4,-1.36e-4 3.28e-4,-2.7e-4 5e-4,-4e-4 0.2128658,-0.1958 0.3985656,-0.424255 0.5965318,-0.636292 0.0012,-0.0013 0.002,-0.0028 0.00254,-0.0045 0.00386,-0.01343 0.00146,-0.02828 -0.0032,-0.04304 -0.00466,-0.01476 -0.012133,-0.02931 -0.020879,-0.041 -0.0088,-0.01173 -0.018706,-0.02167 -0.032666,-0.02283 z"
     dominant-baseline="auto"
     style="color:#000000;font-variant-ligatures:normal;font-variant-position:normal;font-variant-caps:normal;font-variant-numeric:normal;font-variant-alternates:normal;font-feature-settings:normal;text-indent:0;text-decoration:none;text-decoration-line:none;text-decoration-style:solid;text-decoration-color:#000000;text-transform:none;text-orientation:mixed;dominant-baseline:auto;white-space:normal;shape-padding:0;isolation:auto;mix-blend-mode:normal;solid-color:#000000;fill-rule:evenodd;stroke-width:0.02269479;color-rendering:auto;image-rendering:auto;shape-rendering:auto"
     id="path14"
     inkscape:connector-curvature="0" />
  <path
     d="m 10.785264,5.6107629 c -0.0028,0.071092 -0.0091,0.1418074 -0.01852,0.2116738 -0.100664,0.6689969 -0.553136,1.2504544 -1.0300826,1.7834704 0.02082,0.021959 0.06941,0.027279 0.126891,0.025999 0.4279596,-0.4935435 0.8115146,-1.0300314 0.9031716,-1.639251 0.01706,-0.1254505 0.02362,-0.2536316 0.01852,-0.3818846 z m 0.566054,1.8798095 c -0.005,0.00146 -0.01014,0.00294 -0.01506,0.0044 -7e-4,0.00534 -0.0012,0.010666 -0.002,0.015893 -0.002,0.014426 -0.0044,0.028826 -0.0068,0.043185 -10e-4,0.00654 -0.0018,0.013066 -0.003,0.019586 0,1.133e-4 -1.6e-5,2.133e-4 -4.6e-5,3e-4 -0.0036,0.020733 -0.0076,0.041426 -0.01186,0.062038 -0.0042,0.020866 -0.0089,0.041666 -0.0138,0.062398 -0.0048,0.020453 -0.01,0.040839 -0.01538,0.061172 -1.7e-5,1.854e-4 -6.9e-5,3.427e-4 -1.37e-4,5.28e-4 -0.0054,0.020293 -0.01106,0.040559 -0.01708,0.060732 -6.8e-5,2.148e-4 -9.1e-5,3.854e-4 -1.57e-4,5.72e-4 -0.006,0.020159 -0.01214,0.040252 -0.01868,0.060306 -4.5e-5,2.28e-4 -1.36e-4,5e-4 -2.14e-4,7e-4 -0.0066,0.020026 -0.0132,0.039986 -0.02022,0.059906 -1.14e-4,2.427e-4 -1.86e-4,5.147e-4 -2.72e-4,7.573e-4 -0.007,0.019879 -0.01422,0.039733 -0.02168,0.059506 -1.13e-4,2.707e-4 -2.13e-4,5.133e-4 -3e-4,7.999e-4 -0.0074,0.019759 -0.01518,0.039479 -0.02306,0.059146 -1.12e-4,3e-4 -2.42e-4,5.854e-4 -3.56e-4,9.04e-4 -0.0159,0.039573 -0.03268,0.078958 -0.05024,0.1181573 -0.0068,0.01532 -0.01438,0.030479 -0.02148,0.045746 -0.102572,0.220815 -0.227998,0.4361488 -0.358839,0.6482666 -3.87e-4,6.134e-4 -7.57e-4,0.00122 -0.0011,0.00186 -0.06958,0.1127708 -0.140482,0.224679 -0.210006,0.3360991 -0.0032,0.033919 -0.113638,0.1730015 -0.202994,0.2816816 0.01502,-0.006 0.03112,-0.013066 0.04933,-0.022466 0.0058,-0.00306 0.01174,-0.00614 0.01782,-0.0096 0.012,-0.00973 0.02292,-0.018453 0.03304,-0.026533 0.004,-0.0032 0.0074,-0.0056 0.01106,-0.00853 0.006,-0.00466 0.01186,-0.0092 0.01734,-0.0132 0.0032,-0.00254 0.0064,-0.00466 0.0095,-0.0068 0.005,-0.0036 0.0097,-0.0068 0.01402,-0.00987 0.0036,-0.0024 0.0074,-0.00506 0.01054,-0.0072 7.28e-4,-3.573e-4 0.0014,-8e-4 0.0022,-0.00116 0.0046,-0.00294 0.0087,-0.00534 0.0124,-0.0072 0.0014,-7.279e-4 0.003,-0.0016 0.0042,-0.00214 6.15e-4,-2.426e-4 0.0012,-6.28e-4 0.0018,-8.56e-4 0.0018,-8.4e-4 0.0034,-0.00146 0.005,-0.002 2.43e-4,0 3.28e-4,-1.573e-4 5.71e-4,-2.72e-4 0.0018,-6.133e-4 0.0034,-9.84e-4 0.0046,-0.00124 h 5e-4 c 8.8e-4,-9.06e-5 0.0016,-1.133e-4 0.0022,-9.06e-5 -0.01446,8e-4 -0.05324,0.025866 -0.127824,0.087131 -0.0263,0.014346 -0.0488,0.024706 -0.06885,0.032439 -0.0415,0.050479 -0.07884,0.094971 -0.0979,0.1181174 -0.8093356,0.930968 -2.1565736,1.587267 -3.5705165,1.590756 -0.1663763,2.43e-4 -0.561322,0.0145 -0.8415063,-0.01576 -0.5657721,-0.04857 -1.0885242,-0.288368 -1.449728,-0.64016 0.00306,-0.002 0.00546,-0.004 0.00813,-0.0059 C 4.2476,10.408773 4.161378,10.268969 4.0496685,10.096376 c -0.013786,-0.0256 -0.024293,-0.04939 -0.032186,-0.07177 -0.028773,0.05968 -0.024666,0.136448 0.032186,0.241989 0.1117042,0.172594 0.1979222,0.312388 0.3348058,0.446345 -0.00266,0.002 -0.0052,0.0039 -0.00813,0.0059 0.3612038,0.351792 0.8839559,0.591602 1.4497552,0.640181 0.2801843,0.03026 0.675142,0.016 0.8415063,0.01576 1.4138229,-0.0034 2.7611625,-0.659788 3.5705141,-1.5907731 0.06012,-0.072998 0.296576,-0.3504654 0.301223,-0.4002003 0.06952,-0.1114108 0.140425,-0.2233336 0.210006,-0.3360991 3.87e-4,-6.146e-4 7.58e-4,-0.00122 0.0011,-0.00186 0.130837,-0.2121178 0.256269,-0.4274516 0.358838,-0.6482666 0.007,-0.015266 0.01462,-0.030426 0.02148,-0.045746 0.01754,-0.039186 0.03432,-0.078585 0.05024,-0.118144 1.14e-4,-3e-4 2.43e-4,-5.866e-4 3.58e-4,-8.96e-4 0.0078,-0.019666 0.01562,-0.039373 0.02308,-0.059146 9e-5,-2.853e-4 1.86e-4,-5.133e-4 3e-4,-8e-4 0.0074,-0.019786 0.0147,-0.039626 0.02168,-0.059506 9.1e-5,-2.427e-4 1.58e-4,-5.146e-4 2.72e-4,-7.573e-4 0.007,-0.019919 0.01372,-0.039879 0.02022,-0.059906 6.8e-5,-2.147e-4 1.57e-4,-4.72e-4 2.14e-4,-7e-4 0.0066,-0.020053 0.01266,-0.040146 0.01868,-0.060306 6.8e-5,-1.867e-4 1.14e-4,-3.574e-4 1.58e-4,-5.72e-4 0.006,-0.020186 0.01174,-0.040439 0.0171,-0.060746 6.8e-5,-1.854e-4 9.1e-5,-3.427e-4 1.36e-4,-5.28e-4 0.0054,-0.020333 0.01054,-0.040719 0.01538,-0.061172 0.005,-0.020733 0.0095,-0.041532 0.0138,-0.062398 0.0042,-0.020613 0.0081,-0.041292 0.01186,-0.062038 1.6e-5,-9.07e-5 4.5e-5,-1.854e-4 4.5e-5,-3e-4 0.0011,-0.00654 0.002,-0.013066 0.003,-0.019586 0.0024,-0.01436 0.0048,-0.028759 0.0068,-0.043186 0.0058,-0.041919 0.0104,-0.084065 0.01354,-0.1265305 2e-6,-1.74e-5 -2e-6,-9.07e-5 0,-1.134e-4 0.0016,-0.021239 0.0026,-0.042546 0.0034,-0.063932 z M 6.5811553,7.6852599 c -0.041226,0 -0.087891,0.00933 -0.1408222,0.029653 C 6.1241656,7.9067404 6.0100562,8.2530513 6.0362516,8.5609123 6.0581708,8.3026848 6.1815323,8.0421426 6.4403331,7.8851235 c 0.052932,-0.020373 0.099584,-0.029653 0.1408222,-0.029653 0.2885081,-3.572e-4 0.310073,0.4480126 0.3417829,0.649236 0.010666,0.067212 0.021533,0.136237 0.027359,0.2042527 0.0136,-0.1187971 -0.00746,-0.2498181 -0.027359,-0.3744633 C 6.8912323,8.1332725 6.8696594,7.6849026 6.5811553,7.6852599 Z m 3.9517877,1.5205629 c -7.58e-4,-1.72e-5 -0.0014,9.4e-6 -0.0022,1.134e-4 h -5e-4 c -0.0014,2.426e-4 -0.003,6.28e-4 -0.0046,0.00124 -2.43e-4,1.134e-4 -3.28e-4,2.72e-4 -5.72e-4,2.72e-4 -0.0016,6.133e-4 -0.0034,0.00118 -0.005,0.002 -6.15e-4,2.426e-4 -0.0012,6.146e-4 -0.0018,8.56e-4 -0.0014,6.146e-4 -0.0028,0.00146 -0.0042,0.00214 -0.0038,0.00186 -0.0078,0.0044 -0.0124,0.0072 -6.14e-4,3.573e-4 -0.0014,7.999e-4 -0.0022,0.00116 -0.0032,0.002 -0.007,0.0048 -0.01054,0.0072 -0.0044,0.00306 -0.0091,0.00626 -0.01402,0.00987 -0.003,0.00214 -0.0062,0.00426 -0.0095,0.0068 -0.0054,0.004 -0.01134,0.0084 -0.01734,0.0132 -0.0038,0.00294 -0.007,0.00546 -0.01106,0.00853 -0.01014,0.00813 -0.02098,0.01676 -0.03304,0.026533 -0.006,0.00334 -0.012,0.00654 -0.01782,0.0096 -0.02274,0.011733 -0.04288,0.020573 -0.06068,0.027066 0.02264,-0.008 0.0487,-0.019639 0.07985,-0.036639 0.07458,-0.061278 0.113357,-0.086331 0.127824,-0.087131 z M 4.5672182,9.5355727 c -0.00186,0.00146 -0.004,0.00266 -0.00586,0.004 0.00186,-0.00133 0.004,-0.00266 0.00586,-0.004 z M 4.367952,10.54009 c 0.00146,0.0013 0.0028,0.0028 0.00414,0.0041 -0.00133,-0.0013 -0.0028,-0.0027 -0.00414,-0.004 z m 0,0.17021 v 1.36e-4 c 0.00133,0.0013 0.0028,0.0027 0.00414,0.004 -0.00133,-0.0013 -0.00266,-0.0028 -0.00414,-0.0041 z"
     id="path16"
     inkscape:connector-curvature="0"
     style="opacity:0.3;stroke-width:0.03086435" />
  <path
     d="m 10.461012,4.6217173 -6.8e-5,4.53e-5 c 1.4e-5,2e-5 1.8e-5,4.53e-5 2.3e-5,6.8e-5 8e-6,-4.53e-5 1.6e-5,-6.8e-5 4.5e-5,-9.07e-5 z m -4.5e-5,9.06e-5 C 10.293409,5.2656653 9.3897964,5.7202311 8.778772,6.0118871 8.71788,5.6121802 8.610744,5.2134785 8.4419408,4.8366657 8.2457896,5.1680836 8.1163112,5.533986 7.8832752,5.842867 7.7132563,6.0683285 7.5254739,6.2851436 7.2885913,6.4562224 c -0.021039,0.0072 -0.041919,0.01468 -0.062626,0.022279 C 7.1014222,6.5241942 6.9829048,6.576033 6.8756033,6.6372769 6.3899743,6.9142094 6.0367356,7.2916702 5.7616232,7.7305243 5.3916195,8.3210375 5.6479324,9.0802297 4.6355753,9.6450583 c -0.01676,0.019893 -0.037359,0.038173 -0.060866,0.055412 0.00109,-8.4e-4 0.00226,-0.00174 0.00334,-0.00254 9.68e-4,5.572e-4 0.00186,0.0013 0.00294,0.00186 -0.1802077,0.1292424 -0.4870301,0.1671016 -0.5630631,0.3248017 -1.86e-5,-4.5e-5 -4.8e-5,-1.13e-4 -6.66e-5,-1.85e-4 -0.00174,0.0037 -0.00346,0.0076 -0.00506,0.01147 -2.94e-5,6.8e-5 -3.87e-5,1.57e-4 -6.54e-5,2.29e-4 -0.00104,0.0027 -0.002,0.0055 -0.00294,0.0081 -0.0013,0.0039 -0.0024,0.0077 -0.00346,0.0116 -9.6e-4,0.0036 -0.00174,0.0073 -0.00254,0.0112 -8.16e-4,0.0043 -0.00146,0.0085 -0.002,0.01293 -3.853e-4,0.0032 -6.999e-4,0.0065 -9.28e-4,0.0099 -3.573e-4,0.0053 -4.72e-4,0.01067 -4e-4,0.01623 3.33e-5,0.0023 1.87e-5,0.0045 1.333e-4,0.0069 3.28e-4,0.0069 0.00104,0.01407 0.002,0.02135 2.853e-4,0.002 5.573e-4,0.004 9.04e-4,0.0061 0.00126,0.0077 0.00294,0.01563 0.00494,0.02373 4.72e-4,0.0019 0.00102,0.0039 0.00146,0.0057 0.00214,0.008 0.0048,0.01628 0.00774,0.02473 4e-6,8e-6 -4e-6,1.6e-5 0,4.4e-5 1.87e-5,4.6e-5 5.2e-5,7e-5 6.54e-5,1.15e-4 0.076025,-0.157701 0.3828553,-0.1955556 0.5630578,-0.3247967 -9.68e-4,-6.293e-4 -0.00186,-0.00134 -0.00294,-0.00186 -0.00109,8.4e-4 -0.00226,0.00174 -0.00334,0.00254 0.023506,-0.01724 0.044106,-0.035519 0.060866,-0.055412 C 5.647711,9.2504685 5.3913902,8.4912604 5.7613952,7.9007644 6.0365249,7.4619264 6.3897636,7.0844496 6.8753753,6.8075158 6.9826795,6.7462638 7.1011942,6.6944384 7.225738,6.6487421 c 0.020719,-0.0076 0.041599,-0.015013 0.062626,-0.022279 C 7.5252289,6.4553841 7.7130233,6.2385517 7.8830461,6.0131075 8.1160992,5.7042251 8.2455616,5.3383227 8.4417128,5.0069049 8.6105176,5.383719 8.7176592,5.7824207 8.7785432,6.1821262 9.3895504,5.8904875 10.293131,5.4359392 10.460738,4.7921164 c -1.6e-5,-2.27e-5 -4.6e-5,-6.8e-5 -6.8e-5,-9.2e-5 l 1.13e-4,-6.8e-5 c -1.3e-5,4.66e-5 -1.6e-5,1.146e-4 -4.5e-5,1.573e-4 0.211522,0.2958613 0.310585,0.6438401 0.323997,0.9911736 3.85e-4,-0.00907 8e-4,-0.018253 0.001,-0.027399 8e-6,-3.24e-4 2.2e-5,-6.467e-4 2.2e-5,-9.68e-4 1.2e-5,-4.386e-4 4.6e-5,-8.56e-4 4.6e-5,-0.0013 4.13e-4,-0.01556 6.42e-4,-0.031119 7.28e-4,-0.046706 0.002,-0.3780661 -0.09525,-0.7625388 -0.325879,-1.0850875 z m 0.890289,2.8689057 c -0.005,0.00146 -0.01014,0.00294 -0.01506,0.0044 v 2.28e-5 c -0.03762,0.0112 -0.07616,0.022493 -0.114132,0.033813 -0.05912,0.017626 -0.117744,0.035213 -0.177666,0.052625 -1.8e-5,6.8e-6 -4.6e-5,2.28e-5 -6.8e-5,2.28e-5 -0.05174,0.015026 -0.103744,0.029853 -0.156015,0.044279 -1.8e-5,6.6e-6 -4.6e-5,0 -6.8e-5,0 -0.02612,0.0072 -0.0523,0.014293 -0.07856,0.021279 -1.6e-5,8e-6 -9.1e-5,4.53e-5 -1.13e-4,4.53e-5 -0.02624,0.00694 -0.05256,0.013826 -0.07892,0.020506 -1.8e-5,8e-6 -9.1e-5,4.54e-5 -1.15e-4,4.54e-5 -0.0054,0.00134 -0.01094,0.00266 -0.01642,0.004 -0.07016,0.017613 -0.140711,0.034079 -0.211641,0.048932 -0.0036,7.573e-4 -0.0072,0.0016 -0.01094,0.0024 -4.5e-5,1.06e-5 -9e-5,0 -1.36e-4,0 -0.0046,9.76e-4 -0.0095,0.00186 -0.0141,0.0028 -0.12901,0.026279 -0.259146,0.047092 -0.39009,0.059278 h 2.72e-4 c 0.0046,-1.133e-4 0.0089,-2.427e-4 0.01306,-3.573e-4 0.0018,0 0.004,-6.8e-5 0.0058,-6.8e-5 h 4.72e-4 c -0.0649,8.16e-4 -0.1630596,0.015599 -0.2436056,0.017386 -10e-6,1.2e-5 -1.8e-5,1.74e-5 -2.3e-5,2.27e-5 -0.04198,0.048426 -0.08425,0.096598 -0.126863,0.1442154 0.04998,0.052746 0.259281,0.01 0.3704796,0.00853 h -4.57e-4 c -0.0018,0 -0.004,1.133e-4 -0.0058,1.133e-4 -0.0042,1.134e-4 -0.0085,2.427e-4 -0.01306,3.56e-4 h -2.28e-4 c 0.130944,-0.012133 0.261086,-0.033039 0.390089,-0.059306 0.0046,-9.6e-4 0.0095,-0.00174 0.0141,-0.0028 4.5e-5,0 9e-5,9.4e-6 1.36e-4,0 0.0036,-7.426e-4 0.0072,-0.0016 0.01094,-0.0024 0.07092,-0.014853 0.141472,-0.031319 0.21164,-0.048932 0.0054,-0.00134 0.01094,-0.00266 0.01642,-0.004 1.8e-5,0 4.6e-5,-1.73e-5 6.8e-5,-2.26e-5 0.02636,-0.00666 0.05268,-0.013533 0.07892,-0.020506 1.6e-5,0 9.1e-5,9.4e-6 1.14e-4,0 0.02626,-0.00694 0.05244,-0.014066 0.07856,-0.021279 1.8e-5,0 4.6e-5,-4.53e-5 6.8e-5,-4.53e-5 0.05226,-0.014426 0.104291,-0.029253 0.156015,-0.044279 1.8e-5,0 4.6e-5,6.7e-6 6.8e-5,0 0.0599,-0.017413 0.118544,-0.035013 0.177667,-0.052626 0.03798,-0.011333 0.0765,-0.022626 0.114131,-0.033813 v -4.53e-5 c 2.2e-5,-1.07e-5 6.8e-5,-1.74e-5 9e-5,-2.27e-5 0.0076,-0.057718 0.01294,-0.1159041 0.01506,-0.1746707 z m -1.237162,0.2940747 c 0.0014,1.74e-5 0.0028,-1.3e-6 0.0042,2.27e-5 0.0018,0 0.0038,5.3e-6 0.0054,1.36e-4 0.0032,1.133e-4 0.0062,3.573e-4 0.0092,5.853e-4 0.002,1.134e-4 0.004,2.294e-4 0.0058,4.427e-4 -0.0074,-7.573e-4 -0.01558,-0.00116 -0.0246,-0.0012 z m 0,0.1702108 c 0.0091,2.28e-5 0.01722,4.428e-4 0.0246,0.0012 -0.0018,-2.146e-4 -0.0038,-3.293e-4 -0.0058,-4.426e-4 -0.003,-2.426e-4 -0.0058,-5e-4 -0.0092,-5.866e-4 -0.0018,-1.134e-4 -0.0036,-1.36e-4 -0.0054,-1.36e-4 -0.0014,-4.54e-5 -0.0028,-1.6e-5 -0.0042,-4.54e-5 z M 4.5672582,9.5356287 c -0.00186,0.00146 -0.004,0.00266 -0.00586,0.004 0.00186,-0.00133 0.004,-0.00266 0.00586,-0.004 z M 10.33656,9.6655191 c -6.28e-4,2.427e-4 -0.0013,5.147e-4 -0.0018,7.573e-4 -0.003,0.00118 -0.0064,0.00266 -0.0092,0.00374 0.0034,-0.00124 0.0068,-0.00214 0.0104,-0.0036 2.13e-4,-2.426e-4 2.71e-4,-3.293e-4 4.56e-4,-5.72e-4 9.1e-5,-1.133e-4 1.87e-4,-2.28e-4 2.72e-4,-3.28e-4 z m -5.7693018,0.040319 c -0.00186,0.00146 -0.004,0.00266 -0.00586,0.004 0.00186,-0.00133 0.004,-0.00266 0.00586,-0.004 z"
     id="path18"
     inkscape:connector-curvature="0"
     style="opacity:0.1;fill:#ffffff;stroke-width:0.03086435" />
  <ellipse
     cx="6.1761208"
     cy="8.9352674"
     rx="0.098145925"
     ry="0.12461941"
     style="opacity:0.3;fill:#070707;stroke-width:0.02269479;paint-order:markers fill stroke"
     id="ellipse20" />
  <ellipse
     cx="6.1761208"
     cy="8.8671837"
     rx="0.098145925"
     ry="0.12461941"
     style="fill:#ffffff;stroke-width:0.02269479;paint-order:markers fill stroke"
     id="ellipse22" />
</svg>
