<?xml version="1.0" encoding="UTF-8" standalone="no"?>
<svg
   xmlns:dc="http://purl.org/dc/elements/1.1/"
   xmlns:cc="http://creativecommons.org/ns#"
   xmlns:rdf="http://www.w3.org/1999/02/22-rdf-syntax-ns#"
   xmlns:svg="http://www.w3.org/2000/svg"
   xmlns="http://www.w3.org/2000/svg"
   xmlns:sodipodi="http://sodipodi.sourceforge.net/DTD/sodipodi-0.dtd"
   xmlns:inkscape="http://www.inkscape.org/namespaces/inkscape"
   width="16"
   height="16"
   version="1"
   id="svg20"
   sodipodi:docname="image-gif.svg"
   inkscape:version="0.92.3 (2405546, 2018-03-11)">
  <metadata
     id="metadata26">
    <rdf:RDF>
      <cc:Work
         rdf:about="">
        <dc:format>image/svg+xml</dc:format>
        <dc:type
           rdf:resource="http://purl.org/dc/dcmitype/StillImage" />
        <dc:title />
      </cc:Work>
    </rdf:RDF>
  </metadata>
  <defs
     id="defs24" />
  <sodipodi:namedview
     pagecolor="#ffffff"
     bordercolor="#666666"
     borderopacity="1"
     objecttolerance="10"
     gridtolerance="10"
     guidetolerance="10"
     inkscape:pageopacity="0"
     inkscape:pageshadow="2"
     inkscape:window-width="1366"
     inkscape:window-height="704"
     id="namedview22"
     showgrid="false"
     inkscape:zoom="55.625734"
     inkscape:cx="13.203924"
     inkscape:cy="5.481091"
     inkscape:window-x="0"
     inkscape:window-y="30"
     inkscape:window-maximized="1"
     inkscape:current-layer="svg20" />
  <path
     inkscape:connector-curvature="0"
     style="opacity:0.2;stroke-width:0.37573457"
     d="M 16,4.4117649 C 16,4.020706 15.6432,3.7058824 15.2,3.7058824 H 0.8 C 0.3568,3.7058824 0,4.020706 0,4.4117649 V 14.294118 C 0,14.685177 0.3568,15 0.8,15 H 11.2 L 11.6,11.117648 16,9.549274 Z"
     id="path2"
     sodipodi:nodetypes="sssssscccs" />
  <path
     style="fill:#e4e4e4;stroke-width:0.38729832"
     inkscape:connector-curvature="0"
     d="M 16,2.7500001 C 16,2.3345001 15.6432,2 15.2,2 H 0.8 C 0.3568,2 0,2.3345001 0,2.7500001 V 13.249999 C 0,13.665498 0.3568,14 0.8,14 H 11.2 L 12.820339,11.667373 16,9.549274 Z"
     id="path4"
     sodipodi:nodetypes="sssssscccs" />
  <path
     style="fill:#333366;stroke-width:0.33071902;fill-opacity:1"
     inkscape:connector-curvature="0"
     d="M 15,3.625 C 15,3.2787498 14.6878,3 14.3,3 H 1.7000001 C 1.3122001,3 1,3.2787498 1,3.625 v 8.75 C 1,12.72125 1.3122001,13 1.7000001,13 H 11.387258 L 12.492305,11.129092 15,9.6865907 Z"
     id="path4-3"
     sodipodi:nodetypes="sssssscccs" />
  <path
     style="fill:#00143c;fill-opacity:1;stroke:none;stroke-width:0.37344167px;stroke-linecap:butt;stroke-linejoin:miter;stroke-opacity:1"
     d="M 1.0000002,10.187129 3.5149701,8.3806965 5.7784439,9.929067 9.3832332,6.9871626 11.504535,10.075754 15,7.5548988 14.972058,10.058098 11.391875,12.94673 0.9999998,13 Z"
     id="path868"
     inkscape:connector-curvature="0"
     sodipodi:nodetypes="cccccccccc" />
  <path
     inkscape:connector-curvature="0"
     style="opacity:0.2;stroke-width:0.40217477"
     d="m 16,9.549274 h -4.41091 c -0.487229,0 -0.882181,0.328347 -0.882181,0.733385 v 3.666921 z"
     id="path8" />
  <path
     style="fill:#ffffff;fill-opacity:1;stroke-width:0.38298416"
     inkscape:connector-curvature="0"
     d="m 16,9.549274 h -4 c -0.44184,0 -0.8,0.328347 -0.8,0.733385 v 3.666921 z"
     id="path10" />
</svg>
