<?xml version="1.0" encoding="UTF-8" standalone="no"?>
<svg
   xmlns:dc="http://purl.org/dc/elements/1.1/"
   xmlns:cc="http://creativecommons.org/ns#"
   xmlns:rdf="http://www.w3.org/1999/02/22-rdf-syntax-ns#"
   xmlns:svg="http://www.w3.org/2000/svg"
   xmlns="http://www.w3.org/2000/svg"
   xmlns:sodipodi="http://sodipodi.sourceforge.net/DTD/sodipodi-0.dtd"
   xmlns:inkscape="http://www.inkscape.org/namespaces/inkscape"
   width="16"
   height="16"
   version="1"
   id="svg20"
   sodipodi:docname="image-svg+xml-compressed.svg"
   inkscape:version="0.92.3 (2405546, 2018-03-11)">
  <metadata
     id="metadata26">
    <rdf:RDF>
      <cc:Work
         rdf:about="">
        <dc:format>image/svg+xml</dc:format>
        <dc:type
           rdf:resource="http://purl.org/dc/dcmitype/StillImage" />
        <dc:title></dc:title>
      </cc:Work>
    </rdf:RDF>
  </metadata>
  <defs
     id="defs24" />
  <sodipodi:namedview
     pagecolor="#ffffff"
     bordercolor="#666666"
     borderopacity="1"
     objecttolerance="10"
     gridtolerance="10"
     guidetolerance="10"
     inkscape:pageopacity="0"
     inkscape:pageshadow="2"
     inkscape:window-width="1366"
     inkscape:window-height="704"
     id="namedview22"
     showgrid="false"
     inkscape:zoom="19.666667"
     inkscape:cx="2.2322529"
     inkscape:cy="5.6150813"
     inkscape:window-x="0"
     inkscape:window-y="30"
     inkscape:window-maximized="1"
     inkscape:current-layer="svg20" />
  <path
     inkscape:connector-curvature="0"
     style="opacity:0.2;stroke-width:0.37573457"
     d="M 16,4.4117649 C 16,4.020706 15.6432,3.7058824 15.2,3.7058824 H 0.8 C 0.3568,3.7058824 0,4.020706 0,4.4117649 V 14.294118 C 0,14.685177 0.3568,15 0.8,15 h 10.4 l 0.4,-3.882352 4.4,-0.352942 z"
     id="path2" />
  <path
     style="fill:#e4e4e4;stroke-width:0.38729832"
     inkscape:connector-curvature="0"
     d="M 16,2.7500001 C 16,2.3345001 15.6432,2 15.2,2 H 0.8 C 0.3568,2 0,2.3345001 0,2.7500001 V 13.249999 C 0,13.665498 0.3568,14 0.8,14 H 11.2 L 12.820339,11.667373 16,10.021103 Z"
     id="path4"
     sodipodi:nodetypes="sssssscccs" />
  <path
     style="fill:#7d18ac;stroke-width:0.33071902;fill-opacity:1"
     inkscape:connector-curvature="0"
     d="M 15,3.625 C 15,3.2787498 14.6878,3 14.3,3 H 1.7000001 C 1.3122001,3 1,3.2787498 1,3.625 v 8.75 C 1,12.72125 1.3122001,13 1.7000001,13 H 11.387258 L 12.492305,11.129092 15,9.6865907 Z"
     id="path4-3"
     sodipodi:nodetypes="sssssscccs" />
  <path
     inkscape:connector-curvature="0"
     style="opacity:0.4;fill:currentColor;stroke-width:0.53333324"
     class="ColorScheme-Text"
     d="M 9.8666669,3.996849 V 4.826016 C 9.6730672,4.837376 9.481049,4.847636 9.2718752,4.867686 8.589795,4.933126 7.852214,5.043136 7.2000009,5.25727 V 5.06352 h -2.133333 v 2.133332 h 0.067708 c -0.30368,0.722187 -0.4906182,1.563373 -0.6197918,2.341667 -0.018891,0.1136 -0.029654,0.2146 -0.045834,0.325 H 4 v 2.133332 h 0.5333333 l 0.2666664,0.0063 v -0.0063 H 6.133333 V 9.863519 H 5.0072915 c 0.01232,-0.08213 0.019467,-0.155343 0.033333,-0.238543 0.1389331,-0.837012 0.3722597,-1.73687 0.695833,-2.428124 H 7.1999989 V 5.836435 C 7.8204788,5.610355 8.601369,5.467067 9.3229155,5.397894 9.5135819,5.379544 9.688532,5.370174 9.8666654,5.359354 V 6.130187 H 11.999998 V 3.996854 Z m -2.1333332,3.2 L 10.29375,11.996847 12,10.196848 Z"
     id="path820" />
  <path
     inkscape:connector-curvature="0"
     style="opacity:0.2;stroke-width:0.40217477"
     d="m 16,9.549274 h -4.41091 c -0.487229,0 -0.882181,0.328347 -0.882181,0.733385 v 3.666921 z"
     id="path8" />
  <path
     style="fill:#ffffff;fill-opacity:1;stroke-width:0.38298416"
     inkscape:connector-curvature="0"
     d="m 16,9.549274 h -4 c -0.44184,0 -0.8,0.328347 -0.8,0.733385 v 3.666921 z"
     id="path10" />
  <path
     style="fill-opacity:0.66666697;fill-rule:evenodd;stroke-width:0.0299077"
     inkscape:connector-curvature="0"
     d="m 7.0192213,3 v 5.2018321 h -0.0055 v 1.7032675 c -0.112535,1.0969184 2.0890155,1.0969184 1.9722428,0 V 9.0622959 h 6.535e-4 V 3 H 7.0192768 Z"
     id="path11" />
  <g
     transform="matrix(0.33390485,0,0,0.3309873,-128.3479,-162.92326)"
     style="fill:#ffffff;stroke-width:0.08996344"
     id="g25">
    <rect
       rx="0.087458909"
       style="opacity:0.92900002;stroke-width:0.08996344"
       height="2.197578"
       ry="0.08822985"
       width="4.395155"
       x="406.2309"
       y="502.52133"
       id="rect13" />
    <rect
       rx="0.087458909"
       style="opacity:0.92900002;stroke-width:0.08996344"
       height="2.197578"
       ry="0.08822985"
       width="4.395155"
       x="406.22171"
       y="505.69974"
       id="rect15" />
    <rect
       rx="0.087458909"
       style="opacity:0.92900002;stroke-width:0.08996344"
       height="2.197578"
       ry="0.08822985"
       width="4.395155"
       x="406.19412"
       y="508.83987"
       id="rect17" />
    <rect
       rx="0.087458909"
       style="opacity:0.92900002;stroke-width:0.08996344"
       height="2.197578"
       ry="0.08822985"
       width="4.395155"
       x="406.24228"
       y="512.10864"
       id="rect19" />
    <rect
       rx="0.087458909"
       style="opacity:0.92900002;stroke-width:0.08996344"
       height="2.197578"
       ry="0.08822985"
       width="4.395155"
       x="406.24228"
       y="515.32019"
       id="rect21" />
    <rect
       rx="0.087458909"
       style="opacity:0.92900002;stroke-width:0.08996344"
       height="2.197578"
       ry="0.08822985"
       width="4.395155"
       x="406.24222"
       y="518.60736"
       id="rect23" />
  </g>
  <path
     style="fill-opacity:0.66666697;stroke-width:0.0299077"
     inkscape:connector-curvature="0"
     d="m 8.5693916,10.675429 v -0.459 c 0,-0.1279 -0.10426,-0.2315995 -0.2328045,-0.2315995 H 7.6897753 c -0.128545,0 -0.2328296,0.1037505 -0.2328296,0.2315995 v 0.4588 l -0.3597544,1.051484 c -0.10066,0.293048 -0.052365,0.618643 0.12901,0.870988 C 7.4075811,12.84955 7.7016806,13 8.0131706,13 c 0.3115496,0 0.6056776,-0.15045 0.7870502,-0.402299 0.1813749,-0.25235 0.2296098,-0.577935 0.12898,-0.870758 z m -0.15026,1.651052 c -0.1866299,0.259849 -0.6252963,0.259849 -0.8119524,0 -0.093545,-0.1302 -0.118455,-0.2981 -0.06676,-0.4494 l 0.12074,-0.352698 h 0.7039839 l 0.12077,0.352898 c 0.05172,0.15105 0.0268,0.319 -0.066785,0.44915 z"
     id="path27" />
  <path
     style="fill:#f0f5f1;stroke-width:0.0299077"
     inkscape:connector-curvature="0"
     d="m 8.5693916,10.519609 v -0.459015 c 0,-0.1278996 -0.10426,-0.2315991 -0.2328045,-0.2315991 H 7.6897753 c -0.128545,0 -0.2328296,0.10375 -0.2328296,0.2315991 v 0.4588 l -0.3597544,1.051484 c -0.10066,0.293048 -0.052365,0.618643 0.12901,0.870983 0.1813798,0.251899 0.4754793,0.402299 0.7869693,0.402299 0.3115496,0 0.6056776,-0.15045 0.7870502,-0.402299 0.1813749,-0.25235 0.2296098,-0.57794 0.12898,-0.870763 z m -0.15026,1.651042 c -0.1866299,0.25985 -0.6252963,0.25985 -0.8119524,0 -0.093545,-0.13015 -0.118455,-0.29805 -0.06676,-0.449399 l 0.12074,-0.352699 h 0.7039837 l 0.12077,0.3529 c 0.05172,0.151099 0.0268,0.318998 -0.066785,0.449148 z"
     id="path31" />
</svg>
