<?xml version="1.0" encoding="UTF-8" standalone="no"?>
<svg
   xmlns:dc="http://purl.org/dc/elements/1.1/"
   xmlns:cc="http://creativecommons.org/ns#"
   xmlns:rdf="http://www.w3.org/1999/02/22-rdf-syntax-ns#"
   xmlns:svg="http://www.w3.org/2000/svg"
   xmlns="http://www.w3.org/2000/svg"
   xmlns:sodipodi="http://sodipodi.sourceforge.net/DTD/sodipodi-0.dtd"
   xmlns:inkscape="http://www.inkscape.org/namespaces/inkscape"
   width="16"
   height="16"
   version="1"
   id="svg20"
   sodipodi:docname="image-x-svg+xml.svg"
   inkscape:version="0.92.3 (2405546, 2018-03-11)">
  <metadata
     id="metadata26">
    <rdf:RDF>
      <cc:Work
         rdf:about="">
        <dc:format>image/svg+xml</dc:format>
        <dc:type
           rdf:resource="http://purl.org/dc/dcmitype/StillImage" />
        <dc:title />
      </cc:Work>
    </rdf:RDF>
  </metadata>
  <defs
     id="defs24" />
  <sodipodi:namedview
     pagecolor="#ffffff"
     bordercolor="#666666"
     borderopacity="1"
     objecttolerance="10"
     gridtolerance="10"
     guidetolerance="10"
     inkscape:pageopacity="0"
     inkscape:pageshadow="2"
     inkscape:window-width="1366"
     inkscape:window-height="704"
     id="namedview22"
     showgrid="false"
     inkscape:zoom="19.666667"
     inkscape:cx="4.2407274"
     inkscape:cy="7.2930474"
     inkscape:window-x="0"
     inkscape:window-y="30"
     inkscape:window-maximized="1"
     inkscape:current-layer="svg20" />
  <path
     inkscape:connector-curvature="0"
     style="opacity:0.2;stroke-width:0.37573457"
     d="M 16,4.4117649 C 16,4.020706 15.6432,3.7058824 15.2,3.7058824 H 0.8 C 0.3568,3.7058824 0,4.020706 0,4.4117649 V 14.294118 C 0,14.685177 0.3568,15 0.8,15 h 10.4 l 0.4,-3.882352 4.4,-0.352942 z"
     id="path2" />
  <path
     style="fill:#e4e4e4;stroke-width:0.38729832"
     inkscape:connector-curvature="0"
     d="M 16,2.7500001 C 16,2.3345001 15.6432,2 15.2,2 H 0.8 C 0.3568,2 0,2.3345001 0,2.7500001 V 13.249999 C 0,13.665498 0.3568,14 0.8,14 H 11.2 L 12.820339,11.667373 16,10.021103 Z"
     id="path4"
     sodipodi:nodetypes="sssssscccs" />
  <path
     style="fill:#7d18ac;stroke-width:0.33071902;fill-opacity:1"
     inkscape:connector-curvature="0"
     d="M 15,3.625 C 15,3.2787498 14.6878,3 14.3,3 H 1.7000001 C 1.3122001,3 1,3.2787498 1,3.625 v 8.75 C 1,12.72125 1.3122001,13 1.7000001,13 H 11.387258 L 12.492305,11.129092 15,9.6865907 Z"
     id="path4-3"
     sodipodi:nodetypes="sssssscccs" />
  <path
     inkscape:connector-curvature="0"
     style="opacity:0.4;fill:currentColor;stroke-width:0.53333324"
     class="ColorScheme-Text"
     d="M 9.8666669,3.996849 V 4.826016 C 9.6730672,4.837376 9.481049,4.847636 9.2718752,4.867686 8.589795,4.933126 7.852214,5.043136 7.2000009,5.25727 V 5.06352 h -2.133333 v 2.133332 h 0.067708 c -0.30368,0.722187 -0.4906182,1.563373 -0.6197918,2.341667 -0.018891,0.1136 -0.029654,0.2146 -0.045834,0.325 H 4 v 2.133332 h 0.5333333 l 0.2666664,0.0063 v -0.0063 H 6.133333 V 9.863519 H 5.0072915 c 0.01232,-0.08213 0.019467,-0.155343 0.033333,-0.238543 0.1389331,-0.837012 0.3722597,-1.73687 0.695833,-2.428124 H 7.1999989 V 5.836435 C 7.8204788,5.610355 8.601369,5.467067 9.3229155,5.397894 9.5135819,5.379544 9.688532,5.370174 9.8666654,5.359354 V 6.130187 H 11.999998 V 3.996854 Z m -2.1333332,3.2 L 10.29375,11.996847 12,10.196848 Z"
     id="path820" />
  <path
     inkscape:connector-curvature="0"
     style="opacity:0.2;stroke-width:0.40217477"
     d="m 16,9.549274 h -4.41091 c -0.487229,0 -0.882181,0.328347 -0.882181,0.733385 v 3.666921 z"
     id="path8" />
  <path
     style="fill:#ffffff;fill-opacity:1;stroke-width:0.38298416"
     inkscape:connector-curvature="0"
     d="m 16,9.549274 h -4 c -0.44184,0 -0.8,0.328347 -0.8,0.733385 v 3.666921 z"
     id="path10" />
</svg>
