<?xml version="1.0" encoding="UTF-8" standalone="no"?>
<svg
   xmlns:dc="http://purl.org/dc/elements/1.1/"
   xmlns:cc="http://creativecommons.org/ns#"
   xmlns:rdf="http://www.w3.org/1999/02/22-rdf-syntax-ns#"
   xmlns:svg="http://www.w3.org/2000/svg"
   xmlns="http://www.w3.org/2000/svg"
   xmlns:xlink="http://www.w3.org/1999/xlink"
   xmlns:sodipodi="http://sodipodi.sourceforge.net/DTD/sodipodi-0.dtd"
   xmlns:inkscape="http://www.inkscape.org/namespaces/inkscape"
   width="16"
   height="16"
   version="1"
   id="svg26"
   sodipodi:docname="video-x-generic.svg"
   inkscape:version="0.92.4 5da689c313, 2019-01-14">
  <metadata
     id="metadata32">
    <rdf:RDF>
      <cc:Work
         rdf:about="">
        <dc:format>image/svg+xml</dc:format>
        <dc:type
           rdf:resource="http://purl.org/dc/dcmitype/StillImage" />
        <dc:title></dc:title>
      </cc:Work>
    </rdf:RDF>
  </metadata>
  <defs
     id="defs30">
    <linearGradient
       inkscape:collect="always"
       id="linearGradient824">
      <stop
         style="stop-color:#0083d7;stop-opacity:1;"
         offset="0"
         id="stop820" />
      <stop
         style="stop-color:#00cc00;stop-opacity:1"
         offset="1"
         id="stop822" />
    </linearGradient>
    <linearGradient
       inkscape:collect="always"
       xlink:href="#linearGradient824"
       id="linearGradient826"
       x1="23.326996"
       y1="40.420635"
       x2="24.30724"
       y2="4.2099466"
       gradientUnits="userSpaceOnUse"
       gradientTransform="matrix(0.39999999,0,0,0.35714283,-1.6,-0.85714275)" />
    <linearGradient
       inkscape:collect="always"
       xlink:href="#linearGradient824"
       id="linearGradient834"
       x1="22.961231"
       y1="40.315289"
       x2="23.758593"
       y2="4.2874856"
       gradientUnits="userSpaceOnUse"
       gradientTransform="matrix(0.39999999,0,0,0.35714283,-1.6,-0.28571286)" />
  </defs>
  <sodipodi:namedview
     pagecolor="#ffffff"
     bordercolor="#666666"
     borderopacity="1"
     objecttolerance="10"
     gridtolerance="10"
     guidetolerance="10"
     inkscape:pageopacity="0"
     inkscape:pageshadow="2"
     inkscape:window-width="1366"
     inkscape:window-height="712"
     id="namedview28"
     showgrid="false"
     inkscape:zoom="15.465837"
     inkscape:cx="4.8789479"
     inkscape:cy="8.4254554"
     inkscape:window-x="0"
     inkscape:window-y="25"
     inkscape:window-maximized="1"
     inkscape:current-layer="svg26" />
  <rect
     style="fill:#000000;fill-opacity:1;stroke-width:0.39950091"
     width="15.9601"
     height="16"
     x="-16"
     y="-16"
     rx="0.79800498"
     ry="0.80000001"
     transform="matrix(0,-1,-1,0,0,0)"
     id="rect2" />
  <path
     style="opacity:0.2;stroke-width:0.39950091"
     d="M 0.8,16 C 0.3568,16 0,15.64409 0,15.201995 v -0.399002 c 0,0.442094 0.3568,0.798005 0.8,0.798005 h 14.4 c 0.4432,0 0.8,-0.355911 0.8,-0.798005 v 0.399002 C 16,15.64409 15.6432,16 15.2,16 Z"
     id="path6"
     inkscape:connector-curvature="0" />
  <path
     style="fill:#ffffff;stroke-width:0.39950091"
     d="M 0.8,0.8379053 V 2.4339152 H 2.4 V 0.8379053 Z m 12.8,0 v 1.5960099 h 1.6 V 0.8379053 Z M 0.8,4.0299252 V 5.6259354 H 2.4 V 4.0299252 Z m 12.8,0 v 1.5960102 h 1.6 V 4.0299252 Z M 0.8,7.2219448 V 8.8179552 H 2.4 V 7.2219448 Z m 12.8,0 v 1.5960104 h 1.6 V 7.2219448 Z M 0.8,10.413965 v 1.59601 h 1.6 v -1.59601 z m 12.8,0 v 1.59601 h 1.6 v -1.59601 z m -12.8,3.19202 v 1.59601 h 1.6 v -1.59601 z m 12.8,0 v 1.59601 h 1.6 v -1.59601 z"
     id="path10"
     inkscape:connector-curvature="0" />
  <rect
     style="fill:url(#linearGradient826);fill-opacity:1;stroke-width:0.37796444"
     width="8"
     height="5"
     x="4"
     y="2"
     id="rect14" />
  <rect
     style="fill:url(#linearGradient834);fill-opacity:1;stroke-width:0.37796444"
     width="8"
     height="5"
     x="4"
     y="9"
     id="rect18" />
  <path
     style="opacity:0.4;fill:#ffffff;stroke-width:0.27602622"
     d="M 0.8,0 C 0.3568,0 0,0.1699048 0,0.3809524 v 0.190476 C 0,0.3603808 0.3568,0.1904764 0.8,0.1904764 h 14.4 c 0.4432,0 0.8,0.1699044 0.8,0.380952 V 0.3809524 C 16,0.1699048 15.6432,0 15.2,0 Z"
     id="path4"
     inkscape:connector-curvature="0" />
</svg>
