<?xml version="1.0" encoding="UTF-8" standalone="no"?>
<svg
   xmlns:dc="http://purl.org/dc/elements/1.1/"
   xmlns:cc="http://creativecommons.org/ns#"
   xmlns:rdf="http://www.w3.org/1999/02/22-rdf-syntax-ns#"
   xmlns:svg="http://www.w3.org/2000/svg"
   xmlns="http://www.w3.org/2000/svg"
   xmlns:sodipodi="http://sodipodi.sourceforge.net/DTD/sodipodi-0.dtd"
   xmlns:inkscape="http://www.inkscape.org/namespaces/inkscape"
   width="48"
   height="48"
   version="1"
   id="svg12"
   sodipodi:docname="application-x-krita.svg"
   inkscape:version="0.92.3 (2405546, 2018-03-11)">
  <metadata
     id="metadata18">
    <rdf:RDF>
      <cc:Work
         rdf:about="">
        <dc:format>image/svg+xml</dc:format>
        <dc:type
           rdf:resource="http://purl.org/dc/dcmitype/StillImage" />
        <dc:title></dc:title>
      </cc:Work>
    </rdf:RDF>
  </metadata>
  <defs
     id="defs16" />
  <sodipodi:namedview
     pagecolor="#ffffff"
     bordercolor="#666666"
     borderopacity="1"
     objecttolerance="10"
     gridtolerance="10"
     guidetolerance="10"
     inkscape:pageopacity="0"
     inkscape:pageshadow="2"
     inkscape:window-width="1366"
     inkscape:window-height="704"
     id="namedview14"
     showgrid="false"
     inkscape:zoom="4.9166667"
     inkscape:cx="2.5423729"
     inkscape:cy="22.067797"
     inkscape:window-x="0"
     inkscape:window-y="30"
     inkscape:window-maximized="1"
     inkscape:current-layer="svg12" />
  <path
     style="opacity:0.2"
     d="M 10,5 C 8.892,5 8,5.892 8,7 v 36 c 0,1.108 0.892,2 2,2 h 28 c 1.108,0 2,-0.892 2,-2 V 17 L 29,16 28,5 Z"
     id="path2" />
  <path
     fill="#e4e4e4"
     d="m10 4c-1.108 0-2 0.892-2 2v36c0 1.108 0.892 2 2 2h28c1.108 0 2-0.892 2-2v-26l-11-1-1-11z"
     id="path4" />
  <path
     fill="#fff"
     opacity=".2"
     d="m10 4c-1.108 0-2 0.892-2 2v1c0-1.108 0.892-2 2-2h18l11 11h1l-12-12z"
     id="path6" />
  <path
     style="opacity:0.2"
     d="m 28,5 v 10 c 0,1.1046 0.89543,2 2,2 h 10 z"
     id="path8" />
  <path
     fill="#fafafa"
     d="m28 4v10c0 1.1046 0.89543 2 2 2h10l-12-12z"
     id="path10" />
  <circle
     style="opacity:0.2;stroke:#000000;stroke-width:0;stroke-linecap:round;stroke-linejoin:round"
     cx="24.344826"
     cy="32.34483"
     r="9.6551704"
     id="circle2" />
  <ellipse
     style="fill:#ffffff;stroke:#000000;stroke-width:0;stroke-linecap:round;stroke-linejoin:round"
     cx="24.340689"
     cy="32.005863"
     rx="9.4162054"
     ry="9.4179296"
     id="ellipse4" />
  <path
     inkscape:connector-curvature="0"
     style="fill:#e040fb;stroke:#000000;stroke-width:0;stroke-linecap:round;stroke-linejoin:round"
     d="M 32.704507,27.176124 A 9.6576556,9.6593648 0 0 0 19.511903,23.64055 9.6576556,9.6593648 0 0 0 15.965611,27.218728 l 8.37512,4.787077 z"
     id="path6-3" />
  <path
     inkscape:connector-curvature="0"
     style="fill:#fdfd4b;stroke:#000000;stroke-width:0;stroke-linecap:round;stroke-linejoin:round"
     d="m 32.704507,27.176124 -8.363776,4.829681 -0.04291,9.649179 a 9.6576556,9.6593648 0 0 0 4.871738,-1.283922 9.6576556,9.6593648 0 0 0 3.534949,-13.194938 z"
     id="path8-6" />
  <path
     inkscape:connector-curvature="0"
     style="fill:#18ffff;stroke:#000000;stroke-width:0;stroke-linecap:round;stroke-linejoin:round"
     d="m 24.340731,32.005804 -8.37512,-4.787077 a 9.6576556,9.6593648 0 0 0 0.01134,9.616761 9.6576556,9.6593648 0 0 0 8.320868,4.819495 z"
     id="path10-7" />
  <path
     inkscape:connector-curvature="0"
     style="opacity:0.2;fill:#ffffff;stroke:#000000;stroke-width:0;stroke-linecap:round;stroke-linejoin:round"
     d="m 24.344826,22.34483 a 9.6551706,9.6551706 0 0 0 -9.655171,9.655171 9.6551706,9.6551706 0 0 0 0.0061,0.16972 9.6551706,9.6551706 0 0 1 9.64909,-9.480065 9.6551706,9.6551706 0 0 1 9.646416,9.480065 A 9.6551706,9.6551706 0 0 0 34,32.000001 9.6551706,9.6551706 0 0 0 24.344828,22.34483 Z"
     id="path12" />
  <path
     inkscape:connector-curvature="0"
     style="opacity:0.1;stroke-width:0.34482753"
     d="m 26.247028,33.286869 c -1.491227,1.37332 -4.360156,-0.805041 -5.571096,-2.173157 -1.24549,-1.407155 -5.896115,-6.153108 -6.23604,-6.460911 -0.33991,-0.307791 -0.610622,-0.687899 -0.310055,-1.066081 0.312899,-0.368306 0.745602,-0.185319 1.120885,0.07943 0.375307,0.264756 6.040119,3.776602 7.692189,4.689021 1.606224,0.887108 4.357883,3.208178 3.304117,4.9317 z"
     id="path14" />
  <path
     inkscape:connector-curvature="0"
     style="fill:#4f4f4f;stroke-width:0.34482753"
     d="M 26.247028,32.942041 C 24.755801,34.31536 21.886872,32.137 20.675932,30.768884 c -1.24549,-1.407155 -5.896115,-6.153109 -6.23604,-6.460911 -0.33991,-0.307791 -0.610622,-0.687898 -0.310055,-1.066081 0.312899,-0.368305 0.745602,-0.185319 1.120885,0.07943 0.375307,0.264755 6.040119,3.776601 7.692189,4.689021 1.606224,0.887107 4.357883,3.208177 3.304117,4.9317 z"
     id="path16" />
  <path
     inkscape:connector-curvature="0"
     style="opacity:0.1;stroke-width:0.34482753"
     d="m 28.413791,34.303299 c -5.448275,4.746846 -10.434177,0.507172 -11.157289,-1.15422 0.427613,2.883707 2.404167,5.464284 5.390119,6.457414 2.255127,0.750041 6.897021,0.252914 7.246263,-2.046879 z"
     id="path18" />
  <path
     inkscape:connector-curvature="0"
     style="fill:#4883f7;stroke-width:0.34482753"
     d="m 28.413791,33.958472 c -5.448275,4.746846 -10.434177,0.507172 -11.157289,-1.15422 0.427613,2.883707 2.404167,5.464284 5.390119,6.457413 2.255127,0.750043 6.897021,0.252914 7.246263,-2.046876 z"
     id="path20" />
  <path
     inkscape:connector-curvature="0"
     style="opacity:0.1;stroke-width:0.34482753"
     d="m 28.329106,34.980158 c -0.466105,0.209866 -0.415699,0.361552 -0.82956,0.296117 -0.285445,-0.04513 -2.758265,-1.887894 -2.758265,-1.887894 -0.125338,-0.295707 0.02501,-0.702224 0.307438,-1.02397 0.261944,-0.338071 0.635523,-0.566588 0.955706,-0.507046 0,0 2.344386,1.998427 2.448214,2.263696 0.150534,0.38461 -0.01084,0.367423 -0.123533,0.859097 z"
     id="path22" />
  <path
     inkscape:connector-curvature="0"
     style="fill:#9b9b9b;stroke-width:0.34482753"
     d="m 28.329106,34.63533 c -0.466105,0.209865 -0.415699,0.361553 -0.82956,0.296118 -0.285445,-0.04513 -2.758265,-1.887894 -2.758265,-1.887894 -0.125338,-0.295707 0.02501,-0.702225 0.307438,-1.023971 0.261944,-0.338072 0.635523,-0.566589 0.955706,-0.507046 0,0 2.344386,1.998427 2.448214,2.263696 0.150534,0.384611 -0.01084,0.367425 -0.123533,0.859097 z"
     id="path24" />
  <path
     inkscape:connector-curvature="0"
     style="opacity:0.1;stroke-width:0.34482753"
     d="m 28.788467,39.023421 c 1.752863,-0.985967 2.16498,-2.762653 1.472845,-4.01929 -0.537854,-0.97652 -1.420981,-1.161147 -2.030953,-0.68897 -0.605105,0.46841 -0.658448,1.026562 -0.477949,1.580903 0.368101,1.130606 1.946605,1.961289 1.036057,3.127357 z"
     id="path26" />
  <path
     inkscape:connector-curvature="0"
     style="fill:#3f3f3f;stroke-width:0.34482753"
     d="m 28.788467,38.678594 c 1.752863,-0.985967 2.16498,-2.762654 1.472845,-4.01929 -0.537854,-0.97652 -1.420981,-1.161146 -2.030953,-0.68897 -0.605105,0.46841 -0.658448,1.026561 -0.477949,1.580903 0.368101,1.130606 1.946605,1.961288 1.036057,3.127357 z"
     id="path28" />
</svg>
