<?xml version="1.0" encoding="UTF-8" standalone="no"?>
<svg
   xmlns:dc="http://purl.org/dc/elements/1.1/"
   xmlns:cc="http://creativecommons.org/ns#"
   xmlns:rdf="http://www.w3.org/1999/02/22-rdf-syntax-ns#"
   xmlns:svg="http://www.w3.org/2000/svg"
   xmlns="http://www.w3.org/2000/svg"
   xmlns:xlink="http://www.w3.org/1999/xlink"
   xmlns:sodipodi="http://sodipodi.sourceforge.net/DTD/sodipodi-0.dtd"
   xmlns:inkscape="http://www.inkscape.org/namespaces/inkscape"
   width="48"
   height="48"
   version="1"
   id="svg12"
   sodipodi:docname="application-x-bittorrent.svg"
   inkscape:version="0.92.4 5da689c313, 2019-01-14">
  <metadata
     id="metadata18">
    <rdf:RDF>
      <cc:Work
         rdf:about="">
        <dc:format>image/svg+xml</dc:format>
        <dc:type
           rdf:resource="http://purl.org/dc/dcmitype/StillImage" />
        <dc:title />
      </cc:Work>
    </rdf:RDF>
  </metadata>
  <defs
     id="defs16">
    <linearGradient
       gradientTransform="matrix(0.05673759,0,0,0.05673759,13.106383,19.106373)"
       inkscape:collect="always"
       xlink:href="#linearGradient844"
       id="linearGradient846"
       x1="184.97034"
       y1="366.10168"
       x2="187.63983"
       y2="242.44067"
       gradientUnits="userSpaceOnUse" />
    <linearGradient
       inkscape:collect="always"
       id="linearGradient844">
      <stop
         style="stop-color:#000000;stop-opacity:1;"
         offset="0"
         id="stop840" />
      <stop
         style="stop-color:#000000;stop-opacity:0;"
         offset="1"
         id="stop842" />
    </linearGradient>
    <linearGradient
       gradientTransform="matrix(0.05673759,0,0,0.05673759,13.106393,-40.893613)"
       inkscape:collect="always"
       xlink:href="#linearGradient876"
       id="linearGradient846-4"
       x1="184.97034"
       y1="366.10168"
       x2="187.63983"
       y2="242.44067"
       gradientUnits="userSpaceOnUse" />
    <linearGradient
       id="linearGradient876"
       inkscape:collect="always">
      <stop
         id="stop872"
         offset="0"
         style="stop-color:#ffffff;stop-opacity:1" />
      <stop
         id="stop874"
         offset="1"
         style="stop-color:#ffffff;stop-opacity:0" />
    </linearGradient>
  </defs>
  <sodipodi:namedview
     pagecolor="#ffffff"
     bordercolor="#666666"
     borderopacity="1"
     objecttolerance="10"
     gridtolerance="10"
     guidetolerance="10"
     inkscape:pageopacity="0"
     inkscape:pageshadow="2"
     inkscape:window-width="1366"
     inkscape:window-height="708"
     id="namedview14"
     showgrid="false"
     inkscape:zoom="4.9166667"
     inkscape:cx="12"
     inkscape:cy="22.067797"
     inkscape:window-x="0"
     inkscape:window-y="25"
     inkscape:window-maximized="1"
     inkscape:current-layer="svg12" />
  <path
     style="opacity:0.2"
     d="M 10,5 C 8.892,5 8,5.892 8,7 v 36 c 0,1.108 0.892,2 2,2 h 28 c 1.108,0 2,-0.892 2,-2 V 17 L 29,16 28,5 Z"
     id="path2" />
  <path
     fill="#e4e4e4"
     d="m10 4c-1.108 0-2 0.892-2 2v36c0 1.108 0.892 2 2 2h28c1.108 0 2-0.892 2-2v-26l-11-1-1-11z"
     id="path4" />
  <path
     fill="#fff"
     opacity=".2"
     d="m10 4c-1.108 0-2 0.892-2 2v1c0-1.108 0.892-2 2-2h18l11 11h1l-12-12z"
     id="path6" />
  <path
     style="opacity:0.2"
     d="m 28,5 v 10 c 0,1.1046 0.89543,2 2,2 h 10 z"
     id="path8" />
  <path
     fill="#fafafa"
     d="m28 4v10c0 1.1046 0.89543 2 2 2h10l-12-12z"
     id="path10" />
  <circle
     style="opacity:1;fill:#00a441;fill-opacity:1;stroke:none;stroke-width:0.65381205;stroke-miterlimit:4;stroke-dasharray:none;stroke-opacity:0;paint-order:stroke fill markers"
     id="path823"
     cx="24"
     cy="30"
     r="10" />
  <path
     d="m 22.741383,21.603853 c -0.0826,0.003 -0.16861,0.0148 -0.25723,0.0367 -1.68122,0.41685 -3.1055,1.23263 -4.37061,2.50359 -0.90995,0.91381 -1.53081,1.83291 -1.96655,2.91044 -0.31279,0.77326 -0.46524,1.36389 -0.57604,2.23412 -0.0607,0.47781 -0.0607,1.7798 0,2.25736 0.1046,0.82087 0.25188,1.41075 0.52903,2.11928 0.47964,1.22538 1.19719,2.26081 2.26987,3.27486 1.51229,1.42965 3.25025,2.23141 5.36617,2.47547 0.29341,0.0338 0.68192,0.0413 2.70459,0.0524 l 1.06951,-0.1078 c 0.95984,-0.44338 2.02601,-0.92934 2.80272,-1.61822 l -2.66394,0.0231 c -3.75773,0.0326 -3.65375,0.004 -4.40176,-0.13972 -1.12744,-0.2156 -2.18389,-0.70076 -3.13673,-1.44052 -0.33681,-0.26145 -1.05664,-0.96666 -1.30305,-1.27621 -0.51503,-0.64808 -0.88855,-1.31182 -1.14968,-2.04377 -0.4967,-1.39187 -0.54295,-3.09452 -0.12297,-4.51762 0.26578,-0.8997 0.70908,-1.7279 1.32717,-2.479 0.26992,-0.32769 0.8919,-0.93599 1.23259,-1.2055 0.81258,-0.64254 1.77182,-1.11852 2.72982,-1.35452 0.13043,-0.0322 0.28902,-0.0842 0.35256,-0.11566 0.15136,-0.0748 0.30429,-0.23071 0.38669,-0.39418 0.0586,-0.11637 0.0664,-0.15744 0.0664,-0.35113 0,-0.20075 -0.006,-0.23192 -0.077,-0.37121 -0.15992,-0.3168 -0.45358,-0.48362 -0.81159,-0.47222 z m 1.13281,2.07714 c -0.14109,0.002 -0.31855,0.0274 -0.5576,0.0758 -1.01017,0.20427 -1.94027,0.63197 -2.77015,1.2735 -0.32132,0.24835 -0.97871,0.88814 -1.22563,1.19266 -0.83376,1.02791 -1.31109,2.17163 -1.44179,3.45418 -0.0367,0.35842 -0.0304,1.23247 0.0114,1.58132 0.18365,1.53695 0.83973,2.8432 1.99557,3.97387 0.87664,0.85739 1.90046,1.45582 2.98864,1.74698 0.30426,0.0814 0.49467,0.11987 0.94409,0.1909 l 0.33059,0.0522 3.70257,0.007 c 1.34296,0.003 2.39242,-0.003 3.04166,0.004 0.50457,-0.5159 0.97779,-0.99029 1.36611,-1.59851 l -8.0866,-0.0951 -0.2717,-0.0511 c -0.58064,-0.10931 -0.974,-0.23628 -1.44151,-0.46498 -0.98434,-0.48184 -1.87472,-1.35277 -2.3678,-2.31695 -0.60698,-1.1871 -0.70117,-2.69863 -0.24917,-4.00562 0.15343,-0.4443 0.50361,-1.06268 0.8115,-1.43319 0.88361,-1.06418 1.98624,-1.71851 3.21183,-1.90641 0.3053,-0.0469 0.48771,-0.13181 0.64578,-0.30031 0.16789,-0.17909 0.22338,-0.3337 0.21124,-0.5886 -0.007,-0.15591 -0.0227,-0.2247 -0.0734,-0.32545 -0.0793,-0.15793 -0.25798,-0.32413 -0.43621,-0.40548 -0.0936,-0.0428 -0.19839,-0.0633 -0.33948,-0.0609 z m 0.85526,2.24742 c -0.71397,2.1e-4 -1.25897,0.12125 -1.87911,0.41217 -0.51115,0.24003 -0.89265,0.514 -1.33458,0.95881 -0.53131,0.53473 -0.84586,1.02744 -1.06437,1.66695 -0.3146,0.92061 -0.31303,1.98477 0.004,2.91369 0.41765,1.22412 1.44951,2.27316 2.70144,2.74694 0.29446,0.11133 0.46701,0.15794 0.85109,0.23023 l 0.33059,0.0622 4.42299,0.007 c 2.21458,0.003 3.35282,0.007 3.91817,0.0152 0.28552,-0.52339 0.5265,-1.07333 0.71821,-1.64507 l -4.16604,-2.1e-4 c -2.98894,-4.6e-4 -4.71642,-0.009 -4.82258,-0.0236 -0.37116,-0.0519 -0.76917,-0.1877 -1.06956,-0.36452 -0.34611,-0.20402 -0.75573,-0.58659 -0.99,-0.92436 -0.29729,-0.42919 -0.4557,-0.97401 -0.45596,-1.5692 -2.1e-4,-0.78736 0.25185,-1.40065 0.81001,-1.96989 0.27637,-0.28185 0.5218,-0.46046 0.85034,-0.61889 0.42257,-0.20351 0.67724,-0.25741 1.35138,-0.28512 0.37478,-0.0154 0.43724,-0.0235 0.52893,-0.0695 0.35567,-0.17934 0.54558,-0.58287 0.4402,-0.93575 -0.0757,-0.2544 -0.23844,-0.4397 -0.47942,-0.547 -0.0976,-0.0433 -0.1638,-0.0509 -0.5205,-0.0585 -0.0492,-0.001 -0.0975,-0.002 -0.14513,-0.002 z"
     style="fill:#ffffff;fill-opacity:1;stroke-width:0.05355183"
     id="path2-3"
     inkscape:connector-curvature="0"
     sodipodi:nodetypes="ccccccccccccsccccccccccscccccccccccccccccccccccccccccccccccccccccccccccccccc" />
  <circle
     style="opacity:0.4;fill:none;fill-opacity:1;stroke:url(#linearGradient846);stroke-width:0.41666663;stroke-miterlimit:4;stroke-dasharray:none;stroke-opacity:1;paint-order:stroke fill markers"
     id="path823-5"
     cx="24"
     cy="30"
     r="9.791666" />
  <circle
     style="opacity:0.4;fill:none;fill-opacity:1;stroke:url(#linearGradient846-4);stroke-width:0.41666663;stroke-miterlimit:4;stroke-dasharray:none;stroke-opacity:1;paint-order:stroke fill markers"
     id="path823-5-9"
     cx="24"
     cy="-30"
     r="9.791666"
     transform="scale(1,-1)" />
</svg>
