<?xml version="1.0" encoding="UTF-8" standalone="no"?>
<svg
   xmlns:dc="http://purl.org/dc/elements/1.1/"
   xmlns:cc="http://creativecommons.org/ns#"
   xmlns:rdf="http://www.w3.org/1999/02/22-rdf-syntax-ns#"
   xmlns:svg="http://www.w3.org/2000/svg"
   xmlns="http://www.w3.org/2000/svg"
   xmlns:sodipodi="http://sodipodi.sourceforge.net/DTD/sodipodi-0.dtd"
   xmlns:inkscape="http://www.inkscape.org/namespaces/inkscape"
   width="48"
   height="48"
   version="1"
   id="svg12"
   sodipodi:docname="application-x-font-ttf.svg"
   inkscape:version="0.92.3 (2405546, 2018-03-11)">
  <metadata
     id="metadata18">
    <rdf:RDF>
      <cc:Work
         rdf:about="">
        <dc:format>image/svg+xml</dc:format>
        <dc:type
           rdf:resource="http://purl.org/dc/dcmitype/StillImage" />
        <dc:title></dc:title>
      </cc:Work>
    </rdf:RDF>
  </metadata>
  <defs
     id="defs16" />
  <sodipodi:namedview
     pagecolor="#ffffff"
     bordercolor="#666666"
     borderopacity="1"
     objecttolerance="10"
     gridtolerance="10"
     guidetolerance="10"
     inkscape:pageopacity="0"
     inkscape:pageshadow="2"
     inkscape:window-width="1366"
     inkscape:window-height="704"
     id="namedview14"
     showgrid="false"
     inkscape:zoom="4.9166667"
     inkscape:cx="2.5423729"
     inkscape:cy="24"
     inkscape:window-x="0"
     inkscape:window-y="30"
     inkscape:window-maximized="1"
     inkscape:current-layer="svg12" />
  <path
     style="opacity:0.2"
     d="M 10,5 C 8.892,5 8,5.892 8,7 v 36 c 0,1.108 0.892,2 2,2 h 28 c 1.108,0 2,-0.892 2,-2 V 17 L 29,16 28,5 Z"
     id="path2" />
  <path
     fill="#e4e4e4"
     d="m10 4c-1.108 0-2 0.892-2 2v36c0 1.108 0.892 2 2 2h28c1.108 0 2-0.892 2-2v-26l-11-1-1-11z"
     id="path4" />
  <path
     fill="#fff"
     opacity=".2"
     d="m10 4c-1.108 0-2 0.892-2 2v1c0-1.108 0.892-2 2-2h18l11 11h1l-12-12z"
     id="path6" />
  <path
     style="opacity:0.2"
     d="m 28,5 v 10 c 0,1.1046 0.89543,2 2,2 h 10 z"
     id="path8" />
  <path
     fill="#fafafa"
     d="m28 4v10c0 1.1046 0.89543 2 2 2h10l-12-12z"
     id="path10" />
  <path
     sodipodi:type="inkscape:offset"
     inkscape:radius="0"
     inkscape:original="M -26.927734 48.140625 L -38.158203 75.660156 L -34.291016 75.660156 L -31.126953 67.613281 L -18.587891 67.613281 L -15.443359 75.660156 L -11.634766 75.660156 L -22.689453 48.140625 L -26.927734 48.140625 z M -24.857422 50.953125 L -24.330078 52.574219 C -23.965495 53.707031 -23.600911 54.722656 -23.236328 55.621094 L -19.701172 64.703125 L -29.994141 64.703125 L -26.478516 55.660156 C -25.840495 53.967448 -25.358724 52.580729 -25.033203 51.5 L -24.857422 50.953125 z M -0.40429688 54.136719 C -5.4563802 54.136719 -8.281901 56.03776 -8.8808594 59.839844 L -5.2089844 60.171875 C -5.0657552 59 -4.6360677 58.147135 -3.9199219 57.613281 C -3.203776 57.079427 -2.0579427 56.8125 -0.48242188 56.8125 C 1.0800781 56.8125 2.2259115 57.183594 2.9550781 57.925781 C 3.6842448 58.667969 4.0488281 59.898438 4.0488281 61.617188 L 4.0488281 62.769531 L -0.69726562 62.847656 C -3.9003906 62.925781 -6.2246094 63.550781 -7.6699219 64.722656 C -9.1022135 65.894531 -9.8183594 67.574219 -9.8183594 69.761719 C -9.8183594 71.714844 -9.2845052 73.251302 -8.2167969 74.371094 C -7.1490885 75.490885 -5.5540365 76.050781 -3.4316406 76.050781 C -1.7259115 76.050781 -0.28059896 75.71875 0.90429688 75.054688 C 2.1022135 74.377604 3.1503906 73.231771 4.0488281 71.617188 L 4.1660156 71.617188 C 4.2441406 73.075521 4.5761719 74.14974 5.1621094 74.839844 C 5.7610677 75.516927 6.7115885 75.855469 8.0136719 75.855469 C 8.938151 75.855469 9.843099 75.751302 10.728516 75.542969 L 10.728516 73.355469 C 10.298828 73.446615 9.9147135 73.492188 9.5761719 73.492188 C 8.8079427 73.492188 8.2871094 73.231771 8.0136719 72.710938 C 7.7402344 72.177083 7.6035156 71.389323 7.6035156 70.347656 L 7.6035156 61.246094 C 7.6035156 58.941406 6.9329427 57.183594 5.5917969 55.972656 C 4.250651 54.748698 2.2519531 54.136719 -0.40429688 54.136719 z M 4.0488281 65.230469 L 4.0488281 66.96875 C 4.0488281 68.049479 3.7558594 69.104167 3.1699219 70.132812 C 2.5970052 71.148438 1.8092448 71.949219 0.80664062 72.535156 C -0.19596354 73.121094 -1.3417969 73.414062 -2.6308594 73.414062 C -3.7766927 73.414062 -4.6621094 73.101562 -5.2871094 72.476562 C -5.8990885 71.851562 -6.2050781 70.966146 -6.2050781 69.820312 C -6.2050781 68.765625 -5.9772135 67.91276 -5.5214844 67.261719 C -5.0657552 66.610677 -4.4147135 66.128906 -3.5683594 65.816406 C -2.7089844 65.503906 -1.452474 65.334635 0.20117188 65.308594 L 4.0488281 65.230469 z "
     style="font-style:normal;font-weight:normal;font-size:40px;line-height:1.25;font-family:sans-serif;letter-spacing:0px;word-spacing:0px;fill:#000000;fill-opacity:1;stroke:none"
     id="text830"
     d="m -26.927734,48.140625 -11.230469,27.519531 h 3.867187 l 3.164063,-8.046875 h 12.539062 l 3.144532,8.046875 h 3.808593 L -22.689453,48.140625 Z m 2.070312,2.8125 0.527344,1.621094 c 0.364583,1.132812 0.729167,2.148437 1.09375,3.046875 l 3.535156,9.082031 h -10.292969 l 3.515625,-9.042969 c 0.638021,-1.692708 1.119792,-3.079427 1.445313,-4.160156 z m 24.45312512,3.183594 c -5.05208332,0 -7.87760412,1.901041 -8.47656252,5.703125 l 3.671875,0.332031 C -5.0657552,59 -4.6360677,58.147135 -3.9199219,57.613281 -3.203776,57.079427 -2.0579427,56.8125 -0.48242188,56.8125 c 1.56249998,0 2.70833338,0.371094 3.43749998,1.113281 0.7291667,0.742188 1.09375,1.972657 1.09375,3.691407 v 1.152343 l -4.74609372,0.07813 c -3.20312498,0.07813 -5.52734378,0.703125 -6.97265628,1.875 -1.4322916,1.171875 -2.1484375,2.851563 -2.1484375,5.039063 0,1.953125 0.5338542,3.489583 1.6015625,4.609375 1.0677084,1.119791 2.6627604,1.679687 4.7851563,1.679687 1.7057291,0 3.15104164,-0.332031 4.33593748,-0.996093 1.19791662,-0.677084 2.24609372,-1.822917 3.14453122,-3.4375 h 0.1171875 c 0.078125,1.458333 0.4101563,2.532552 0.9960938,3.222656 0.5989583,0.677083 1.5494791,1.015625 2.8515625,1.015625 0.9244791,0 1.8294271,-0.104167 2.7148441,-0.3125 v -2.1875 c -0.429688,0.09115 -0.8138025,0.136719 -1.1523441,0.136719 -0.7682292,0 -1.2890625,-0.260417 -1.5625,-0.78125 C 7.7402344,72.177083 7.6035156,71.389323 7.6035156,70.347656 v -9.101562 c 0,-2.304688 -0.6705729,-4.0625 -2.0117187,-5.273438 C 4.250651,54.748698 2.2519531,54.136719 -0.40429688,54.136719 Z m 4.45312498,11.09375 v 1.738281 c 0,1.080729 -0.2929687,2.135417 -0.8789062,3.164062 -0.5729167,1.015626 -1.3606771,1.816407 -2.36328128,2.402344 -1.00260416,0.585938 -2.14843752,0.878906 -3.43750002,0.878906 -1.1458333,0 -2.03125,-0.3125 -2.65625,-0.9375 -0.6119791,-0.625 -0.9179687,-1.510416 -0.9179687,-2.65625 0,-1.054687 0.2278646,-1.907552 0.6835937,-2.558593 0.4557292,-0.651042 1.1067709,-1.132813 1.953125,-1.445313 0.859375,-0.3125 2.1158854,-0.481771 3.76953128,-0.507812 z"
     transform="matrix(0.40910907,0,0,0.40947716,29.610867,2.0589422)" />
</svg>
