<?xml version="1.0" encoding="UTF-8" standalone="no"?>
<svg
   xmlns:dc="http://purl.org/dc/elements/1.1/"
   xmlns:cc="http://creativecommons.org/ns#"
   xmlns:rdf="http://www.w3.org/1999/02/22-rdf-syntax-ns#"
   xmlns:svg="http://www.w3.org/2000/svg"
   xmlns="http://www.w3.org/2000/svg"
   xmlns:xlink="http://www.w3.org/1999/xlink"
   xmlns:sodipodi="http://sodipodi.sourceforge.net/DTD/sodipodi-0.dtd"
   xmlns:inkscape="http://www.inkscape.org/namespaces/inkscape"
   width="48"
   height="48"
   version="1"
   id="svg16"
   sodipodi:docname="audio-x-flac.svg"
   inkscape:version="0.92.3 (2405546, 2018-03-11)">
  <metadata
     id="metadata22">
    <rdf:RDF>
      <cc:Work
         rdf:about="">
        <dc:format>image/svg+xml</dc:format>
        <dc:type
           rdf:resource="http://purl.org/dc/dcmitype/StillImage" />
        <dc:title></dc:title>
      </cc:Work>
    </rdf:RDF>
  </metadata>
  <defs
     id="defs20">
    <linearGradient
       inkscape:collect="always"
       id="linearGradient848">
      <stop
         style="stop-color:#dcdcdc;stop-opacity:1;"
         offset="0"
         id="stop844" />
      <stop
         style="stop-color:#f0f0f0;stop-opacity:1"
         offset="1"
         id="stop846" />
    </linearGradient>
    <linearGradient
       inkscape:collect="always"
       xlink:href="#linearGradient848"
       id="linearGradient850"
       x1="31.118645"
       y1="59.661018"
       x2="32.610168"
       y2="4.8813558"
       gradientUnits="userSpaceOnUse"
       gradientTransform="matrix(0.71428571,0,0,0.71428571,1.1428571,1.1428576)" />
  </defs>
  <sodipodi:namedview
     pagecolor="#ffffff"
     bordercolor="#666666"
     borderopacity="1"
     objecttolerance="10"
     gridtolerance="10"
     guidetolerance="10"
     inkscape:pageopacity="0"
     inkscape:pageshadow="2"
     inkscape:window-width="1366"
     inkscape:window-height="704"
     id="namedview18"
     showgrid="false"
     inkscape:zoom="10.429825"
     inkscape:cx="22.609566"
     inkscape:cy="37.147015"
     inkscape:window-x="0"
     inkscape:window-y="30"
     inkscape:window-maximized="1"
     inkscape:current-layer="svg16" />
  <rect
     style="fill:url(#linearGradient850);fill-opacity:1;stroke-width:0.71428573"
     width="40"
     height="40"
     x="4"
     y="4"
     rx="2.1428571"
     ry="2.1428571"
     id="rect4" />
  <path
     style="opacity:1;fill:#ffffff;stroke-width:0.71428573"
     d="M 6.1428571,4 C 4.9557143,4 4,4.9557143 4,6.1428571 V 6.8571429 C 4,5.67 4.9557143,4.7142857 6.1428571,4.7142857 H 41.857143 C 43.044286,4.7142857 44,5.67 44,6.8571429 V 6.1428571 C 44,4.9557143 43.044286,4 41.857143,4 Z"
     id="path6"
     inkscape:connector-curvature="0" />
  <path
     inkscape:connector-curvature="0"
     style="opacity:0.2;fill:#000000;fill-opacity:1;stroke-width:0.71428573"
     d="M 6.1428571,44 C 4.9557143,44 4,43.044286 4,41.857143 V 41.142857 C 4,42.33 4.9557143,43.285714 6.1428571,43.285714 H 41.857143 C 43.044286,43.285714 44,42.33 44,41.142857 v 0.714286 C 44,43.044286 43.044286,44 41.857143,44 Z"
     id="path6-3" />
  <path
     style="color:#4d4d4d;opacity:1;fill:#66cc33;fill-opacity:1;stroke:none;stroke-width:1.42857146"
     class="ColorScheme-Text"
     d="m 30.963367,12.571429 -10.539346,2.72253 c -0.791811,0.211974 -1.430638,1.054718 -1.430638,1.873692 v 12.985253 c -0.802919,-0.420033 -1.834187,-0.589803 -2.903268,-0.312281 -1.929173,0.500784 -3.136851,2.118778 -2.723314,3.613954 0.413537,1.495176 2.314761,2.329064 4.243931,1.828269 1.539079,-0.39952 2.599099,-1.527659 2.768301,-2.719692 l 0.04499,-12.272683 10.00548,-2.677108 v 9.683581 C 29.62657,26.87691 28.595306,26.707136 27.52623,26.984661 c -1.929173,0.500788 -3.139849,2.118769 -2.726314,3.613955 0.413535,1.495174 2.314765,2.329065 4.243933,1.82827 1.539082,-0.399525 2.599101,-1.527655 2.768301,-2.719693 l 0.045,-15.974644 c 0,-0.614229 -0.380449,-1.074722 -0.893774,-1.16112 z"
     id="path4"
     inkscape:connector-curvature="0" />
</svg>
