<?xml version="1.0" encoding="UTF-8" standalone="no"?>
<svg
   xmlns:dc="http://purl.org/dc/elements/1.1/"
   xmlns:cc="http://creativecommons.org/ns#"
   xmlns:rdf="http://www.w3.org/1999/02/22-rdf-syntax-ns#"
   xmlns:svg="http://www.w3.org/2000/svg"
   xmlns="http://www.w3.org/2000/svg"
   xmlns:xlink="http://www.w3.org/1999/xlink"
   xmlns:sodipodi="http://sodipodi.sourceforge.net/DTD/sodipodi-0.dtd"
   xmlns:inkscape="http://www.inkscape.org/namespaces/inkscape"
   width="48"
   height="48"
   version="1"
   id="svg20"
   sodipodi:docname="image-x-xcf.svg"
   inkscape:version="0.92.3 (2405546, 2018-03-11)">
  <metadata
     id="metadata26">
    <rdf:RDF>
      <cc:Work
         rdf:about="">
        <dc:format>image/svg+xml</dc:format>
        <dc:type
           rdf:resource="http://purl.org/dc/dcmitype/StillImage" />
        <dc:title></dc:title>
      </cc:Work>
    </rdf:RDF>
  </metadata>
  <defs
     id="defs24">
    <linearGradient
       inkscape:collect="always"
       xlink:href="#linearGradient852"
       id="linearGradient854"
       x1="31.9517"
       y1="191.9989"
       x2="339.66656"
       y2="191.9989"
       gradientUnits="userSpaceOnUse" />
    <linearGradient
       inkscape:collect="always"
       id="linearGradient852">
      <stop
         style="stop-color:#925130;stop-opacity:1;"
         offset="0"
         id="stop848" />
      <stop
         style="stop-color:#754127;stop-opacity:1"
         offset="1"
         id="stop850" />
    </linearGradient>
    <linearGradient
       inkscape:collect="always"
       xlink:href="#linearGradient844"
       id="linearGradient846"
       x1="272.83267"
       y1="173.62025"
       x2="370.54828"
       y2="95.383087"
       gradientUnits="userSpaceOnUse" />
    <linearGradient
       inkscape:collect="always"
       id="linearGradient844">
      <stop
         style="stop-color:#0049ff;stop-opacity:1;"
         offset="0"
         id="stop840" />
      <stop
         style="stop-color:#ff0041;stop-opacity:1"
         offset="1"
         id="stop842" />
    </linearGradient>
  </defs>
  <sodipodi:namedview
     pagecolor="#ffffff"
     bordercolor="#666666"
     borderopacity="1"
     objecttolerance="10"
     gridtolerance="10"
     guidetolerance="10"
     inkscape:pageopacity="0"
     inkscape:pageshadow="2"
     inkscape:window-width="1366"
     inkscape:window-height="704"
     id="namedview22"
     showgrid="false"
     inkscape:zoom="6.9532167"
     inkscape:cx="9.7875645"
     inkscape:cy="30.691028"
     inkscape:window-x="0"
     inkscape:window-y="30"
     inkscape:window-maximized="1"
     inkscape:current-layer="svg20" />
  <path
     inkscape:connector-curvature="0"
     style="opacity:0.2"
     d="M 44,11 C 44,9.892 43.108,9 42,9 H 6 C 4.892,9 4,9.892 4,11 v 28 c 0,1.108 0.892,2 2,2 h 26 l 1,-11 11,-2 z"
     id="path2"
     sodipodi:nodetypes="sssssscccs" />
  <path
     style="fill:#e4e4e4"
     inkscape:connector-curvature="0"
     d="M 44,10 C 44,8.892 43.108,8 42,8 H 6 C 4.892,8 4,8.892 4,10 v 28 c 0,1.108 0.892,2 2,2 H 32 L 35.644068,32.152542 44,28 Z"
     id="path4"
     sodipodi:nodetypes="sssssscccs" />
  <path
     inkscape:connector-curvature="0"
     style="opacity:0.2"
     d="M 43,28 H 33 c -1.1046,0 -2,0.89543 -2,2 v 10 z"
     id="path8" />
  <path
     style="fill:#fafafa"
     inkscape:connector-curvature="0"
     d="M 44,28 H 34 c -1.1046,0 -2,0.89543 -2,2 v 10 z"
     id="path10" />
  <ellipse
     cx="19.4662"
     cy="25.655243"
     rx="2.2326059"
     ry="2.9571762"
     style="fill:#ffffff;stroke-width:0.06808593;paint-order:markers fill stroke"
     id="ellipse2" />
  <g
     id="g12"
     style="stroke-width:1.36000001"
     transform="matrix(0.06808594,0,0,0.06808594,10.927543,10.927575)">
    <path
       d="m 211.47,52.615 c -8.6431,14.604 -14.349,30.726 -24.617,44.337 -8.0322,10.651 -16.962,20.867 -28.495,28.628 22.391,-8.2075 49.32,-11.793 66.276,-19.533 0.57904,-0.27624 1.2059,-0.57905 1.8009,-0.8606 -2.6615,-17.876 -7.416,-35.72 -14.965,-52.571 z"
       id="path4-3"
       style="fill:#4b2a19;fill-opacity:1"
       inkscape:connector-curvature="0" />
    <path
       d="m 300.43,43.142 c -7.4107,28.49 -47.539,48.576 -74.467,61.421 -0.1753,0.085 -0.3566,0.16999 -0.5319,0.25499 -0.42498,0.20186 -0.85993,0.40905 -1.269,0.60561 -0.48873,0.22311 -0.98343,0.44158 -1.4881,0.65938 -0.0797,0.0319 -0.15341,0.0637 -0.23309,0.0956 -0.2603,0.11157 -0.52724,0.21714 -0.79286,0.32871 -0.42498,0.1753 -0.85528,0.35194 -1.2909,0.52192 -0.22312,0.085 -0.45023,0.17399 -0.67334,0.25898 -0.47811,0.18593 -0.96286,0.36125 -1.4463,0.54186 l -0.6056,0.22312 c -0.6428,0.22843 -1.2962,0.45819 -1.9603,0.6813 -0.0319,0.0106 -0.0625,0.0252 -0.0996,0.0359 0,0 -0.006,6.7e-4 -0.0119,0.006 -0.72248,0.24438 -1.4596,0.48409 -2.2033,0.72315 -0.14345,0.0425 -0.28687,0.089 -0.43031,0.13148 -0.6056,0.19125 -1.2119,0.37784 -1.8228,0.56377 -0.19654,0.0637 -0.39311,0.12284 -0.58966,0.18128 -0.61623,0.18062 -1.2318,0.36522 -1.8586,0.54584 -0.13812,0.0372 -0.27624,0.0803 -0.41437,0.11754 -1.02,0.29748 -2.0612,0.58369 -3.1077,0.87055 -0.92434,0.24968 -1.8606,0.49935 -2.8009,0.74904 -0.45686,0.12218 -0.91771,0.24038 -1.3746,0.36256 -0.26031,0.0638 -0.52193,0.13148 -0.77692,0.19523 -1.5884,0.40905 -3.1914,0.81943 -4.817,1.2232 -5.0998,1.275 -10.348,2.5486 -15.602,3.9085 -7.4372,1.9284 -14.881,4.044 -21.877,6.6098 -5.4876,2.0134 -10.709,4.2977 -15.437,6.9963 -21.398,12.202 -36.963,28.835 -49.086,48.171 -16.303,26.02 -5.0102,59.472 -49.618,84.36 -0.73841,0.87654 -1.6455,1.6827 -2.6814,2.4423 0.04781,-0.0372 0.09961,-0.0744 0.14742,-0.11156 1.5034,0.86059 2.9231,3.9218 2.9284,9.5104 0.0053,14.37 -6.0029,30.21 -10.757,34.657 -0.23905,0.22312 -0.60693,0.51529 -1.0478,0.81279 15.916,15.501 38.951,26.068 63.881,28.208 12.346,1.3334 29.748,0.70588 37.079,0.69526 62.298,-0.15406 121.66,-29.073 157.33,-70.095 2.6491,-3.2168 13.069,-15.443 13.273,-17.634 16.426,-26.323 34.651,-53.265 35.77,-83.418 h -0.002 c -17.809,5.2848 -36.552,11.198 -55.684,12.979 0.20187,-0.005 0.39378,-0.0109 0.57971,-0.016 0.085,0 0.17597,-0.006 0.26097,-0.006 0.0191,0 0.0369,-2e-5 0.0558,0 -4.8912,0.0535 -14.152,1.9525 -16.359,-0.37651 21.016,-23.486 40.953,-49.107 45.388,-78.585 2.7837,-20.468 -0.72845,-42.584 -13.473,-60.407 z m -15.286,139.37 c 0.0605,7.9e-4 0.12219,3e-5 0.18328,0.002 0.0797,0 0.16468,5.3e-4 0.23906,0.006 0.14343,0.005 0.26961,0.0152 0.40241,0.0259 0.0875,0.005 0.17551,0.0112 0.25897,0.0199 -0.3254,-0.0333 -0.68601,-0.052 -1.0837,-0.0538 z m -155.67,3.1197 c 12.712,-0.016 13.663,19.741 15.06,28.607 2.1143,13.26 4.5686,28.166 -15.029,33.133 -1.3334,0.56842 -6.4804,3.8581 -4.9664,-0.21116 5.5673,-9.6844 -4.0858,-34.137 -18.987,-21.977 -1.4821,-13.801 3.4524,-29.591 17.716,-38.245 2.3321,-0.89778 4.3886,-1.3068 6.2054,-1.3068 z m 174.14,66.999 c -0.62824,0.0227 -2.3416,1.1246 -5.6477,3.8408 -2.2585,1.2327 -3.9643,1.8836 -5.2672,2.0997 0.0365,-0.006 0.0705,-0.009 0.10756,-0.016 0.31874,-0.0638 0.66405,-0.15005 1.0359,-0.26694 0.18062,-0.0585 0.37187,-0.12215 0.57374,-0.19124 0.79153,-0.28689 1.6906,-0.67932 2.7053,-1.2052 0.25499,-0.13286 0.51929,-0.27158 0.7849,-0.42033 0.53122,-0.4303 1.01,-0.81146 1.4562,-1.1674 0.17531,-0.13811 0.32337,-0.251 0.48806,-0.3785 0.26561,-0.20718 0.5259,-0.40243 0.76498,-0.57772 0.14341,-0.11151 0.28156,-0.2072 0.41436,-0.30279 0.21781,-0.1594 0.4263,-0.30348 0.61756,-0.43629 0.15936,-0.10621 0.32804,-0.22244 0.46614,-0.31276 0.0319,-0.0159 0.0651,-0.0377 0.0916,-0.0538 0.20187,-0.12742 0.38115,-0.23372 0.54585,-0.31874 0.0638,-0.0319 0.12875,-0.0691 0.18725,-0.0956 0.0265,-0.0109 0.0532,-0.0273 0.0797,-0.0378 0.0797,-0.0372 0.15405,-0.0631 0.22311,-0.0896 0.0109,0 0.0152,-0.004 0.0259,-0.0104 0.0744,-0.0265 0.14343,-0.043 0.20718,-0.0538 h 0.0219 c 0.0428,-0.005 0.0795,-0.009 0.11754,-0.006 z m -11.391,5.9983 c -0.15706,0.0137 -0.30841,0.0207 -0.45222,0.0199 0.14596,-0.001 0.2929,-0.004 0.45222,-0.0199 z m -251.49,8.5322 c -0.08501,0.0637 -0.17398,0.12086 -0.25898,0.1793 0.085,-0.0584 0.17398,-0.11554 0.25898,-0.1793 z m -8.7813,44.261 v 0.006 c 0.05844,0.0585 0.12284,0.11687 0.18129,0.17531 -0.05845,-0.0584 -0.11754,-0.12285 -0.18129,-0.18127 z"
       id="path6"
       style="fill:url(#linearGradient854);fill-opacity:1"
       inkscape:connector-curvature="0" />
    <path
       d="m 349.33,88.574 c -18.163,3.1661 2.688,22.168 -1.6628,32.538 15.767,-4.388 18.907,-28.166 1.6628,-32.538 z m 7.5382,40.188 c -0.87653,0.0106 -1.838,0.32937 -2.4384,0.76498 -11.336,8.2447 -3.5327,25.759 -11.097,36.033 5.3495,0.30281 10.72,-1.4662 15.443,-3.3521 15.353,-5.0467 9.7162,-25.876 -0.52061,-33.096 -0.36655,-0.25499 -0.8606,-0.36124 -1.3865,-0.35062 z m -23.443,0.79685 c -5.4611,-0.0425 -3.6018,14.317 2.4012,14.556 5.0733,0.20186 5.6258,-8.335 3.4955,-12.096 -0.92965,-1.6309 -4.5048,-2.449 -5.8967,-2.4596 z m 6.2367,39.996 c -17.812,5.2858 -36.559,11.198 -55.694,12.978 h 0.0107 c 0.20187,-0.005 0.39312,-0.0106 0.57905,-0.016 0.085,0 0.1753,-0.005 0.26029,-0.005 0.17531,0 0.34,0 0.51,0.005 0.0797,0 0.16467,0 0.23905,0.005 0.14343,0.005 0.27093,0.016 0.40373,0.0265 0.0957,0.005 0.19125,0.0107 0.28155,0.0213 0.17531,0.0212 0.34,0.0425 0.49405,0.0744 h 0.005 c 0.005,0 0.0107,0 0.016,0.005 0.0744,0.016 0.14875,0.0318 0.2178,0.0532 0.0107,0 0.0212,0.005 0.0319,0.005 0.069,0.0213 0.1328,0.0425 0.19124,0.0637 0.005,0.005 0.0106,0.005 0.0106,0.005 0.0637,0.0265 0.1275,0.0532 0.18063,0.085 0.28155,0.14344 0.44092,0.34531 0.46748,0.61092 0.005,0.0106 0.005,0.0213 0.005,0.0318 0.005,0.0425 0,0.085 -0.005,0.1275 0,0.0213 0,0.0372 -0.005,0.0532 -0.005,0.0478 -0.016,0.0957 -0.0319,0.14344 0,0.0212 -0.005,0.0372 -0.0159,0.0584 -0.016,0.0478 -0.0319,0.0957 -0.0584,0.14875 -0.0106,0.0265 -0.016,0.0478 -0.0318,0.0744 -0.0213,0.0478 -0.0478,0.0956 -0.0744,0.14343 -0.016,0.0318 -0.0372,0.069 -0.0584,0.10089 -0.0319,0.0478 -0.0637,0.10089 -0.0956,0.14875 -0.0265,0.0425 -0.0532,0.0797 -0.085,0.11687 -0.0319,0.0532 -0.0744,0.1009 -0.11687,0.15406 -0.0319,0.0425 -0.069,0.0903 -0.10624,0.13281 -0.0425,0.0532 -0.085,0.10624 -0.13281,0.15936 -0.0425,0.0478 -0.085,0.0957 -0.13281,0.14875 -0.0585,0.0637 -0.11687,0.12218 -0.18062,0.19124 -0.0212,0.0265 -0.0532,0.0532 -0.0797,0.0797 -0.18593,0.19124 -0.40374,0.39843 -0.63748,0.61622 -0.15406,0.13813 -0.33999,0.29749 -0.52061,0.44624 -0.13812,0.12218 -0.2603,0.23375 -0.40905,0.35593 -0.21249,0.17531 -0.45686,0.36655 -0.69059,0.55248 -0.15938,0.12218 -0.30281,0.23905 -0.4728,0.37186 -0.41968,0.32405 -0.87653,0.66404 -1.3706,1.02 -0.55778,0.61092 -1.0571,1.2112 -1.5034,1.8062 -1.3281,1.7956 -2.1462,3.5486 -2.518,5.2433 -0.0584,0.28155 -0.11156,0.5631 -0.14874,0.84465 -0.14343,1.0837 -0.10625,2.1409 0.0903,3.1662 0.005,0.0372 0.005,0.069 0.016,0.10624 0.0532,0.26562 0.11688,0.52592 0.19125,0.78623 0.22312,0.78622 0.53654,1.5565 0.94028,2.3002 0.13281,0.24968 0.27624,0.49936 0.42499,0.74373 h 0.005 c 0.14875,0.24436 0.31343,0.48342 0.48342,0.72778 0.17001,0.23905 0.34531,0.47812 0.53124,0.71185 0.19125,0.23375 0.3878,0.46748 0.58966,0.70123 0.20187,0.22843 0.41436,0.45686 0.63749,0.68529 0.44092,0.45155 0.9084,0.89247 1.4078,1.3228 2.0028,1.7212 4.457,3.2777 7.2088,4.627 -0.13812,0.28686 -0.29749,0.56841 -0.47811,0.86059 -0.0903,0.14343 -0.18593,0.28686 -0.28686,0.4303 -0.1009,0.14875 -0.20718,0.29217 -0.31874,0.44092 -0.2178,0.29217 -0.45686,0.58966 -0.71185,0.88716 -0.255,0.29749 -0.52592,0.59498 -0.81278,0.89777 -0.57374,0.60562 -1.2006,1.2165 -1.8593,1.8328 -0.66405,0.61624 -1.3653,1.2378 -2.0877,1.8646 -1.7956,1.5671 -3.7133,3.1555 -5.4558,4.7386 -2.6136,2.3852 -4.8395,4.7545 -5.6948,7.0229 -0.0584,0.15405 -0.10624,0.3028 -0.15405,0.45686 -0.0425,0.14875 -0.0797,0.29749 -0.11156,0.44624 -0.0637,0.29749 -0.10089,0.59498 -0.11155,0.89246 -0.005,0.29218 0.016,0.58436 0.069,0.87653 0.0265,0.14344 0.0584,0.28687 0.1009,0.4303 0.0425,0.14344 0.0956,0.28687 0.15405,0.4303 0.11688,0.28686 0.26561,0.56842 0.45155,0.84466 0.0957,0.13811 0.19655,0.27624 0.30812,0.41436 0.11156,0.13812 0.23373,0.27625 0.36655,0.41436 0.26029,0.27093 0.55779,0.54186 0.89778,0.80747 0.16999,0.13281 0.35061,0.26562 0.54186,0.39843 0.37717,0.2603 0.80215,0.5206 1.2696,0.77559 0.46218,0.255 0.97747,0.50999 1.53,0.75435 0.46749,0.21249 0.97747,0.41436 1.514,0.61623 0.1009,0.0372 0.19656,0.0797 0.29749,0.11688 0.65342,0.23905 1.3546,0.4781 2.1037,0.70653 0.36655,0.0265 0.70654,0.0744 1.0253,0.13812 0.0319,0.005 0.0637,0.0106 0.0904,0.016 h 0.005 c 0.0372,0.005 0.0744,0.016 0.11155,0.0265 0.30281,0.069 0.58968,0.14875 0.85529,0.24968 0.14875,0.0532 0.29217,0.11688 0.4303,0.18062 0.13812,0.0637 0.27093,0.13812 0.39842,0.21249 0.255,0.14875 0.48343,0.31343 0.70122,0.49404 0.10625,0.0904 0.20719,0.18594 0.30281,0.28157 0.10089,0.10089 0.19125,0.20186 0.28155,0.30811 0.085,0.10624 0.16999,0.21249 0.24968,0.32405 0.0797,0.11687 0.15406,0.22843 0.22844,0.35061 0.21249,0.35592 0.3931,0.73841 0.54184,1.1422 0.1275,0.3453 0.23375,0.71185 0.31875,1.089 0.016,0.0637 0.0372,0.12219 0.0478,0.18593 0.069,0.29218 0.12218,0.59498 0.16468,0.9031 0.0478,0.30811 0.085,0.61622 0.11687,0.93497 0.0265,0.31873 0.0532,0.63747 0.069,0.95622 v 0.0319 c 0.0372,0.63217 0.0532,1.275 0.0637,1.9071 0.0106,0.64279 0.016,1.2803 0.0319,1.8965 0.0213,0.92434 0.0637,1.8062 0.17531,2.5977 0.0372,0.2603 0.0797,0.50998 0.1328,0.75435 0.0265,0.11686 0.0585,0.23905 0.0903,0.35061 0.0319,0.11687 0.0637,0.22311 0.1009,0.33468 0.0372,0.10624 0.0797,0.20718 0.12217,0.30811 0.0425,0.1009 0.0904,0.19656 0.13813,0.29218 0.016,0.0319 0.0372,0.0584 0.0532,0.085 0.085,0.15406 0.18062,0.29749 0.28156,0.42499 0.0637,0.0744 0.13281,0.14875 0.20187,0.21781 0.2178,0.20187 0.46216,0.36654 0.75435,0.48342 0.28686,0.11687 0.62153,0.18593 0.99871,0.20717 0.255,0.0107 0.52592,0 0.82341,-0.0372 0.14874,-0.016 0.3028,-0.0425 0.46217,-0.069 0.31874,-0.0637 0.66404,-0.14875 1.0359,-0.26561 0.18062,-0.0584 0.37186,-0.12219 0.57374,-0.19125 0.79153,-0.28686 1.6893,-0.67997 2.704,-1.2059 0.25499,-0.13281 0.5206,-0.27093 0.78621,-0.41968 0.53124,-0.43029 1.0093,-0.81278 1.4556,-1.1687 0.1753,-0.13813 0.32405,-0.24969 0.48873,-0.37718 0.26562,-0.20718 0.52592,-0.40373 0.76497,-0.57904 0.14344,-0.11156 0.28156,-0.20718 0.41436,-0.30281 0.21781,-0.15936 0.42499,-0.30279 0.61624,-0.4356 0.15937,-0.10626 0.32936,-0.22312 0.46748,-0.31343 0.0319,-0.016 0.0637,-0.0372 0.0903,-0.0532 0.20186,-0.1275 0.38249,-0.23375 0.54717,-0.31875 0.0637,-0.0318 0.12749,-0.069 0.18593,-0.0956 0.0265,-0.0107 0.0532,-0.0265 0.0797,-0.0372 0.0797,-0.0372 0.15407,-0.0637 0.22313,-0.0903 0.0106,0 0.016,-0.005 0.0265,-0.0106 0.0744,-0.0265 0.14344,-0.0425 0.20718,-0.0532 h 0.0213 c 0.0478,-0.005 0.0903,-0.0106 0.1328,-0.005 0.0106,0 0.0213,0.005 0.0318,0.005 0.0319,0.005 0.0584,0.016 0.0797,0.0319 0.0106,0.005 0.016,0.0106 0.0212,0.016 0.0265,0.016 0.0425,0.0425 0.0584,0.069 0,0.005 0.005,0.0106 0.005,0.016 0.016,0.0318 0.0212,0.0744 0.0212,0.12218 0,0.0532 -0.005,0.11156 -0.016,0.17531 16.442,-26.354 34.711,-53.325 35.832,-83.515 z"
       id="path8-6"
       style="fill:url(#linearGradient846);fill-opacity:1"
       inkscape:connector-curvature="0" />
    <path
       d="m 41.681,266.66 c -10.832,8.0907 -32.952,8.096 -23.735,25.207 4.9511,7.6497 8.76,13.839 14.853,19.772 0.44092,-0.29749 0.80747,-0.58967 1.0518,-0.81279 4.7492,-4.4517 10.763,-20.288 10.752,-34.663 0,-5.5886 -1.4237,-8.6431 -2.9218,-9.5037 z"
       id="path10-7"
       style="fill:#4b2819;fill-opacity:1"
       inkscape:connector-curvature="0" />
  </g>
  <path
     d="m 21.233711,30.319131 c -0.02095,-0.0017 -0.04396,0.0069 -0.05984,0.02287 -0.01588,0.01595 -0.02637,0.03736 -0.03431,0.06463 -4.71e-4,0.0018 -8.57e-4,0.0036 -0.0011,0.0053 -0.0067,0.05564 -0.02057,0.08611 -0.05066,0.128328 -0.02988,0.0419 -0.07692,0.09414 -0.142687,0.179658 -0.611766,0.638421 -1.23113,1.421498 -1.827018,1.905861 -0.0012,0.001 -0.0024,0.0021 -0.0035,0.0033 -0.01344,0.01473 -0.06076,0.04982 -0.123269,0.0883 -0.06252,0.03847 -0.141681,0.0828 -0.225937,0.126599 -0.168505,0.0876 -0.358772,0.173075 -0.474477,0.205586 -0.0115,0.0032 -0.02039,0.01235 -0.02328,0.02394 -0.0057,0.02236 0.01271,0.0435 0.03564,0.04109 0.487693,-0.04989 0.719328,-0.07203 1.302008,-0.551074 4.71e-4,-4.09e-4 9.85e-4,-8.14e-4 0.0015,-0.0012 0.638612,-0.587418 1.195724,-1.272799 1.789638,-1.908926 0.0036,-0.0039 0.0062,-0.0086 0.0076,-0.0137 0.0114,-0.04028 0.0044,-0.08483 -0.0097,-0.129125 -0.01408,-0.04429 -0.03624,-0.08794 -0.06263,-0.123004 -0.0264,-0.03506 -0.0561,-0.06502 -0.098,-0.06849 z"
     dominant-baseline="auto"
     style="color:#000000;font-variant-ligatures:normal;font-variant-position:normal;font-variant-caps:normal;font-variant-numeric:normal;font-variant-alternates:normal;font-feature-settings:normal;text-indent:0;text-decoration:none;text-decoration-line:none;text-decoration-style:solid;text-decoration-color:#000000;text-transform:none;text-orientation:mixed;dominant-baseline:auto;white-space:normal;shape-padding:0;isolation:auto;mix-blend-mode:normal;solid-color:#000000;fill-rule:evenodd;stroke-width:0.06808593;color-rendering:auto;image-rendering:auto;shape-rendering:auto"
     id="path14"
     inkscape:connector-curvature="0" />
  <path
     d="m 32.35572,16.832158 c -0.0084,0.213275 -0.02705,0.425433 -0.05556,0.635037 -0.302016,2.007037 -1.659442,3.75145 -3.090319,5.350533 0.06245,0.06589 0.208231,0.08184 0.380691,0.078 1.283914,-1.480665 2.4346,-3.090165 2.709582,-4.917864 0.05118,-0.376355 0.07083,-0.760911 0.05556,-1.145682 z m 1.698199,5.639558 c -0.01488,0.0044 -0.03029,0.0089 -0.04518,0.01337 -0.0021,0.01587 -0.0036,0.03183 -0.0059,0.04767 -0.0061,0.04329 -0.0133,0.08646 -0.02034,0.129556 -0.0032,0.01954 -0.0058,0.03924 -0.0092,0.05875 0,3.4e-4 -4.7e-5,6.43e-4 -1.37e-4,9e-4 -0.0108,0.06222 -0.0227,0.124264 -0.0354,0.186104 -0.01286,0.06259 -0.02666,0.124985 -0.04139,0.187202 -0.01453,0.06134 -0.02992,0.122529 -0.04618,0.183516 -5.1e-5,5.57e-4 -2.05e-4,10e-4 -4.09e-4,0.0016 -0.01625,0.06089 -0.03336,0.121667 -0.05126,0.182219 -2.04e-4,6.42e-4 -2.72e-4,0.0012 -4.71e-4,0.0017 -0.01791,0.06049 -0.03657,0.120757 -0.05605,0.180921 -1.36e-4,6.86e-4 -4.08e-4,0.0015 -6.43e-4,0.0021 -0.01947,0.06006 -0.03967,0.119976 -0.06064,0.179721 -3.41e-4,7.29e-4 -5.57e-4,0.0015 -8.14e-4,0.0023 -0.02095,0.05965 -0.04266,0.119179 -0.06503,0.178526 -3.4e-4,8.15e-4 -6.43e-4,0.0015 -9e-4,0.0024 -0.02237,0.05929 -0.04552,0.118435 -0.06922,0.177429 -3.41e-4,9e-4 -7.29e-4,0.0018 -0.0011,0.0027 -0.04772,0.118704 -0.09804,0.236888 -0.150701,0.354459 -0.02059,0.04598 -0.04315,0.09143 -0.06443,0.137235 -0.307725,0.662459 -0.684009,1.308475 -1.076541,1.944841 -0.0012,0.0018 -0.0023,0.0036 -0.0034,0.0055 -0.208745,0.338328 -0.421455,0.674051 -0.630033,1.008319 -0.0095,0.101761 -0.340916,0.519019 -0.608994,0.845066 0.04503,-0.01784 0.09337,-0.0391 0.148005,-0.06742 0.01736,-0.009 0.03537,-0.0185 0.05346,-0.02862 0.03617,-0.0293 0.06875,-0.05535 0.09914,-0.07959 0.01194,-0.0094 0.022,-0.01695 0.03321,-0.02563 0.01809,-0.01411 0.03578,-0.02756 0.05206,-0.0395 0.0098,-0.0076 0.01918,-0.01404 0.02822,-0.02055 0.01483,-0.01085 0.02907,-0.02058 0.04209,-0.02962 0.01085,-0.0072 0.02232,-0.01529 0.03171,-0.02144 0.0022,-0.0011 0.0045,-0.0024 0.0063,-0.0035 0.01375,-0.0087 0.02589,-0.01595 0.0371,-0.02174 0.0043,-0.0022 0.0088,-0.0047 0.01277,-0.0065 0.0018,-7.29e-4 0.0036,-0.0019 0.0054,-0.0026 0.0054,-0.0025 0.01056,-0.0043 0.01526,-0.0061 7.29e-4,0 9.86e-4,-4.72e-4 0.0017,-8.14e-4 0.0051,-0.0018 0.0098,-0.003 0.01416,-0.0037 h 0.0015 c 0.0026,-2.73e-4 0.0047,-3.41e-4 0.007,-2.73e-4 -0.0434,0.0024 -0.159729,0.07758 -0.383483,0.261404 -0.07887,0.04305 -0.146412,0.07412 -0.206551,0.09734 -0.124505,0.151422 -0.236541,0.284929 -0.293722,0.354357 -2.428067,2.792969 -6.46987,4.761913 -10.711794,4.772381 -0.49914,7.28e-4 -1.684003,0.04351 -2.524576,-0.04727 -1.697435,-0.145707 -3.265727,-0.865128 -4.349366,-1.920528 0.009,-0.0061 0.01651,-0.01185 0.02454,-0.01776 -0.410629,-0.401852 -0.669301,-0.82127 -1.004437,-1.339064 -0.04137,-0.0768 -0.07288,-0.148153 -0.09654,-0.215328 -0.08633,0.179047 -0.074,0.409353 0.09654,0.725983 0.335125,0.517794 0.593777,0.937186 1.004437,1.339064 -0.008,0.0059 -0.01551,0.01166 -0.02454,0.01775 1.083639,1.0554 2.651931,1.774848 4.349364,1.920585 0.840573,0.09078 2.025472,0.048 2.524576,0.04727 4.241614,-0.01047 8.283723,-1.979397 10.711838,-4.772419 0.180365,-0.219015 0.889747,-1.051417 0.903688,-1.200627 0.208572,-0.334253 0.421282,-0.670017 0.630033,-1.008319 0.0012,-0.0018 0.0023,-0.0036 0.0034,-0.0055 0.392512,-0.636365 0.768827,-1.282382 1.076541,-1.944841 0.02128,-0.04581 0.04384,-0.09126 0.06443,-0.137236 0.05266,-0.117575 0.102977,-0.235754 0.150702,-0.354459 3.4e-4,-9e-4 7.28e-4,-0.0018 0.0011,-0.0027 0.0237,-0.059 0.04685,-0.118138 0.06922,-0.177428 2.71e-4,-8.57e-4 5.57e-4,-0.0015 9e-4,-0.0024 0.02237,-0.05935 0.04407,-0.118873 0.06503,-0.178526 2.72e-4,-7.29e-4 4.71e-4,-0.0015 8.14e-4,-0.0023 0.02097,-0.05974 0.04117,-0.119654 0.06064,-0.179721 2.04e-4,-6.43e-4 4.72e-4,-0.0014 6.43e-4,-0.0021 0.01949,-0.06016 0.03814,-0.12043 0.05605,-0.180921 2.04e-4,-5.57e-4 3.4e-4,-0.0011 4.71e-4,-0.0017 0.01791,-0.06055 0.03501,-0.121329 0.05126,-0.182219 2.04e-4,-5.57e-4 2.72e-4,-0.001 4.08e-4,-0.0016 0.01627,-0.06099 0.03165,-0.122178 0.04618,-0.183516 0.01473,-0.06222 0.02853,-0.124613 0.04139,-0.187202 0.01271,-0.06184 0.0246,-0.123893 0.0354,-0.186105 5.1e-5,-2.72e-4 1.36e-4,-5.57e-4 1.36e-4,-9e-4 0.0034,-0.01951 0.006,-0.0392 0.0092,-0.05874 0.007,-0.0431 0.01426,-0.08627 0.02034,-0.129555 0.01769,-0.125757 0.03136,-0.252218 0.04059,-0.379593 6e-6,-5.1e-5 -7e-6,-2.73e-4 0,-3.41e-4 0.0046,-0.06373 0.0082,-0.127636 0.01057,-0.191788 z m -14.310813,0.584075 c -0.123698,0 -0.263697,0.02784 -0.422477,0.08896 -0.948522,0.575497 -1.290858,1.614454 -1.21227,2.538057 0.06576,-0.774699 0.43585,-1.556343 1.21227,-2.027412 0.15878,-0.06113 0.298779,-0.08896 0.422477,-0.08896 0.865542,-0.0011 0.930241,1.344067 1.025374,1.947751 0.03216,0.201653 0.06461,0.40872 0.08208,0.612773 0.04079,-0.356379 -0.02245,-0.749472 -0.08208,-1.123417 -0.09513,-0.603684 -0.159842,-1.948824 -1.025374,-1.947752 z m 11.855634,4.561792 c -0.0023,-5.1e-5 -0.0044,2.7e-5 -0.007,3.4e-4 h -0.0015 c -0.0043,7.28e-4 -0.0091,0.0019 -0.01416,0.0037 -7.29e-4,3.41e-4 -9.86e-4,8.15e-4 -0.0017,8.15e-4 -0.0047,0.0018 -0.0098,0.0036 -0.01526,0.0061 -0.0018,7.29e-4 -0.0036,0.0018 -0.0054,0.0026 -0.004,0.0018 -0.0084,0.0043 -0.01277,0.0065 -0.01121,0.0058 -0.02335,0.01307 -0.0371,0.02174 -0.0018,0.0011 -0.0041,0.0024 -0.0063,0.0035 -0.0094,0.0061 -0.02086,0.01421 -0.03171,0.02144 -0.01302,0.009 -0.02726,0.01877 -0.04209,0.02962 -0.009,0.0065 -0.01846,0.01296 -0.02822,0.02054 -0.01628,0.01194 -0.03398,0.02539 -0.05206,0.0395 -0.01121,0.0087 -0.02127,0.01623 -0.03321,0.02563 -0.03038,0.02424 -0.06297,0.05029 -0.09914,0.07959 -0.01809,0.01013 -0.0361,0.01958 -0.05346,0.02862 -0.06821,0.03535 -0.128626,0.06172 -0.182019,0.08118 0.06794,-0.02399 0.146127,-0.05891 0.239564,-0.109905 0.223749,-0.183827 0.340084,-0.258994 0.383484,-0.261405 z m -17.89758,0.989271 c -0.0058,0.0043 -0.01186,0.0082 -0.01765,0.01217 0.0058,-0.004 0.01186,-0.0078 0.01765,-0.01217 z m -0.597812,3.01362 c 0.0043,0.004 0.0083,0.0083 0.01227,0.01227 -0.004,-0.004 -0.0083,-0.0079 -0.01227,-0.01187 z m 0,0.510645 v 4.08e-4 c 0.004,0.004 0.0083,0.0079 0.01227,0.01187 -0.004,-0.004 -0.0079,-0.0083 -0.01227,-0.01227 z"
     id="path16"
     inkscape:connector-curvature="0"
     style="opacity:0.3;stroke-width:0.09259517" />
  <path
     d="m 31.382942,13.864956 -2.05e-4,1.36e-4 c 4.4e-5,6.1e-5 5.2e-5,1.36e-4 6.9e-5,2.04e-4 2.6e-5,-1.36e-4 5.1e-5,-2.04e-4 1.36e-4,-2.72e-4 z m -1.36e-4,2.72e-4 c -0.502684,1.931615 -3.213589,3.295343 -5.046701,4.170331 -0.182682,-1.199146 -0.504093,-2.39528 -1.010514,-3.525744 -0.588467,0.994276 -0.976914,2.092008 -1.676038,3.018674 -0.510068,0.6764 -1.073425,1.326859 -1.784089,1.840107 -0.06312,0.02179 -0.125752,0.04403 -0.187902,0.06682 -0.373628,0.137082 -0.7292,0.292594 -1.051111,0.476334 -1.45692,0.830819 -2.51666,1.963224 -3.342015,3.279819 -1.110039,1.771579 -0.341085,4.049207 -3.37822,5.74373 -0.05027,0.05968 -0.112087,0.114537 -0.182617,0.166261 0.0033,-0.0025 0.0068,-0.005 0.01007,-0.0076 0.0029,0.0017 0.0058,0.0039 0.0087,0.0058 -0.540619,0.387717 -1.461107,0.5013 -1.689212,0.974412 -5.6e-5,-1.35e-4 -1.43e-4,-3.4e-4 -1.97e-4,-5.57e-4 -0.0054,0.01119 -0.01045,0.02261 -0.01506,0.03421 -8.9e-5,2.04e-4 -1.16e-4,4.72e-4 -1.98e-4,6.86e-4 -0.0031,0.008 -0.0059,0.01623 -0.0087,0.02443 -0.0039,0.01142 -0.0074,0.02309 -0.01047,0.03491 -0.0029,0.01098 -0.0054,0.02217 -0.0076,0.03351 -0.0025,0.01273 -0.0045,0.02569 -0.0061,0.0389 -0.0011,0.0097 -0.0021,0.01954 -0.0028,0.02952 -0.0011,0.01588 -0.0014,0.0321 -0.0012,0.04867 1.02e-4,0.0069 5.6e-5,0.01378 4.02e-4,0.02085 9.73e-4,0.02073 0.0031,0.0422 0.0062,0.06403 8.57e-4,0.0061 0.0017,0.01216 0.0027,0.01835 0.0038,0.02307 0.0088,0.04687 0.01496,0.07121 0.0014,0.0057 0.003,0.01146 0.0046,0.01725 0.0065,0.02409 0.01432,0.04884 0.02324,0.0742 1.4e-5,2.6e-5 -1.4e-5,5e-5 0,1.35e-4 5.7e-5,1.36e-4 1.57e-4,2.05e-4 1.98e-4,3.41e-4 0.228089,-0.473112 1.148592,-0.586679 1.689212,-0.974412 -0.0029,-0.0019 -0.0058,-0.0041 -0.0087,-0.0058 -0.0033,0.0025 -0.0068,0.005 -0.01007,0.0076 0.07053,-0.05172 0.132338,-0.106577 0.182617,-0.166261 3.03716,-1.694522 2.26818,-3.972201 3.378219,-5.743729 0.825406,-1.316544 1.885147,-2.449 3.342015,-3.279819 0.32191,-0.18374 0.677472,-0.339252 1.051111,-0.476334 0.06215,-0.0228 0.124786,-0.04503 0.187902,-0.06682 0.710612,-0.513248 1.274007,-1.163759 1.784089,-1.840107 0.699175,-0.926667 1.087571,-2.024399 1.676038,-3.018675 0.506427,1.130465 0.827857,2.326598 1.010514,3.525744 1.833061,-0.874938 4.543868,-2.238614 5.0467,-4.170127 -5.1e-5,-6.8e-5 -1.36e-4,-2.04e-4 -2.04e-4,-2.72e-4 l 3.4e-4,-2.04e-4 c -4.2e-5,1.36e-4 -5.1e-5,3.4e-4 -1.36e-4,4.75e-4 0.634578,0.887603 0.931773,1.931564 0.972012,2.973586 0.0012,-0.02739 0.0024,-0.05476 0.0032,-0.08218 2.7e-5,-9.73e-4 6.8e-5,-0.0019 6.8e-5,-0.0029 3.5e-5,-0.0013 1.36e-4,-0.0026 1.36e-4,-0.0039 0.0012,-0.04667 0.0019,-0.09338 0.0022,-0.140125 0.0061,-1.134224 -0.285776,-2.287668 -0.977658,-3.255339 z m 2.670926,8.606912 c -0.01488,0.0044 -0.03029,0.0089 -0.04518,0.01337 v 6.7e-5 c -0.112863,0.03355 -0.228467,0.06748 -0.342392,0.10143 -0.177347,0.05286 -0.353249,0.105647 -0.533011,0.157881 -5.1e-5,2e-5 -1.36e-4,6.8e-5 -2.04e-4,6.8e-5 -0.155185,0.0451 -0.311253,0.08958 -0.468057,0.132849 -5.1e-5,1.9e-5 -1.36e-4,0 -2.04e-4,0 -0.07837,0.02162 -0.156927,0.0429 -0.235672,0.06383 -5.2e-5,2.7e-5 -2.73e-4,1.36e-4 -3.41e-4,1.36e-4 -0.07872,0.02092 -0.157692,0.04147 -0.236771,0.06154 -5.1e-5,2.5e-5 -2.72e-4,1.37e-4 -3.4e-4,1.37e-4 -0.01639,0.0042 -0.03286,0.008 -0.04927,0.01217 -0.210487,0.05284 -0.422139,0.102251 -0.634935,0.14681 -0.01089,0.0023 -0.02172,0.0048 -0.03261,0.0071 -1.37e-4,2.9e-5 -2.72e-4,0 -4.09e-4,0 -0.01407,0.0029 -0.02821,0.0054 -0.04229,0.0083 -0.387023,0.07882 -0.777456,0.14129 -1.170296,0.177827 h 8.15e-4 c 0.01371,-3.4e-4 0.02676,-7.29e-4 0.03939,-0.0011 0.0058,0 0.01197,-2.04e-4 0.01776,-2.04e-4 h 0.0014 c -0.194688,0.0024 -0.489193,0.04679 -0.730835,0.05216 -3.1e-5,3.5e-5 -5.1e-5,5.1e-5 -6.7e-5,6.8e-5 -0.125967,0.145268 -0.252755,0.289791 -0.38059,0.432654 0.149967,0.158228 0.777866,0.02992 1.111469,0.02573 h -0.0014 c -0.0058,0 -0.01197,3.4e-4 -0.01776,3.4e-4 -0.01263,3.4e-4 -0.02569,7.29e-4 -0.03939,0.0011 h -6.81e-4 c 0.392843,-0.03654 0.783278,-0.09911 1.170295,-0.177929 0.01407,-0.0029 0.02822,-0.0054 0.04229,-0.0083 1.36e-4,0 2.72e-4,2.9e-5 4.09e-4,0 0.01089,-0.0022 0.02172,-0.0048 0.03261,-0.0071 0.212775,-0.04455 0.424426,-0.09396 0.634935,-0.14681 0.01641,-0.0041 0.03288,-0.008 0.04927,-0.01217 5.1e-5,0 1.36e-4,-5.2e-5 2.04e-4,-6.9e-5 0.07908,-0.02007 0.158055,-0.04061 0.236771,-0.06154 5.1e-5,0 2.73e-4,2.7e-5 3.41e-4,0 0.07874,-0.02093 0.157303,-0.04221 0.235672,-0.06383 5.1e-5,0 1.36e-4,-1.37e-4 2.04e-4,-1.37e-4 0.156809,-0.04327 0.312872,-0.08775 0.468057,-0.132849 5.1e-5,0 1.37e-4,2e-5 2.04e-4,0 0.179737,-0.05223 0.355639,-0.105025 0.533011,-0.157882 0.113925,-0.03395 0.229529,-0.06789 0.342392,-0.101429 v -1.36e-4 c 6.8e-5,-2.9e-5 2.04e-4,-5.1e-5 2.73e-4,-6.8e-5 0.02292,-0.17317 0.03864,-0.347729 0.04518,-0.524023 z m -3.711569,0.882242 c 0.0041,5.2e-5 0.0083,-3e-6 0.01247,6.8e-5 0.0054,0 0.01119,1.8e-5 0.01626,4.09e-4 0.0098,3.4e-4 0.01839,0.0011 0.02743,0.0018 0.0059,3.41e-4 0.01197,6.86e-4 0.01765,0.0013 -0.02215,-0.0023 -0.04673,-0.0035 -0.0738,-0.0036 z m 0,0.510645 c 0.02708,6.7e-5 0.05165,0.0013 0.0738,0.0036 -0.0057,-6.43e-4 -0.0117,-9.86e-4 -0.01765,-0.0013 -0.009,-7.28e-4 -0.01766,-0.0015 -0.02743,-0.0018 -0.0051,-3.4e-4 -0.01083,-4.08e-4 -0.01626,-4.08e-4 -0.0042,-1.37e-4 -0.0084,-4.9e-5 -0.01247,-1.37e-4 z m -16.640884,4.741998 c -0.0058,0.0043 -0.01187,0.0082 -0.01765,0.01217 0.0058,-0.004 0.01186,-0.0078 0.01765,-0.01217 z m 17.308297,0.389667 c -0.0019,7.29e-4 -0.0039,0.0015 -0.0058,0.0023 -0.0091,0.0036 -0.01903,0.0081 -0.02773,0.01127 0.01054,-0.0037 0.02021,-0.0065 0.03132,-0.01087 6.43e-4,-7.28e-4 8.14e-4,-9.85e-4 0.0014,-0.0017 2.72e-4,-3.41e-4 5.58e-4,-6.86e-4 8.15e-4,-9.86e-4 z m -17.308297,0.120977 c -0.0058,0.0043 -0.01187,0.0082 -0.01765,0.01217 0.0058,-0.004 0.01186,-0.0078 0.01765,-0.01217 z"
     id="path18"
     inkscape:connector-curvature="0"
     style="opacity:0.1;fill:#ffffff;stroke-width:0.09259517" />
  <ellipse
     cx="18.527975"
     cy="26.805897"
     rx="0.29444444"
     ry="0.37386668"
     style="opacity:0.3;fill:#070707;stroke-width:0.06808593;paint-order:markers fill stroke"
     id="ellipse20" />
  <ellipse
     cx="18.527975"
     cy="26.601639"
     rx="0.29444444"
     ry="0.37386668"
     style="fill:#ffffff;stroke-width:0.06808593;paint-order:markers fill stroke"
     id="ellipse22" />
</svg>
