<?xml version="1.0" encoding="UTF-8" standalone="no"?>
<svg
   xmlns:dc="http://purl.org/dc/elements/1.1/"
   xmlns:cc="http://creativecommons.org/ns#"
   xmlns:rdf="http://www.w3.org/1999/02/22-rdf-syntax-ns#"
   xmlns:svg="http://www.w3.org/2000/svg"
   xmlns="http://www.w3.org/2000/svg"
   xmlns:sodipodi="http://sodipodi.sourceforge.net/DTD/sodipodi-0.dtd"
   xmlns:inkscape="http://www.inkscape.org/namespaces/inkscape"
   width="48"
   height="48"
   version="1"
   id="svg20"
   sodipodi:docname="image-svg+xml-compressed.svg"
   inkscape:version="0.92.3 (2405546, 2018-03-11)">
  <metadata
     id="metadata26">
    <rdf:RDF>
      <cc:Work
         rdf:about="">
        <dc:format>image/svg+xml</dc:format>
        <dc:type
           rdf:resource="http://purl.org/dc/dcmitype/StillImage" />
        <dc:title></dc:title>
      </cc:Work>
    </rdf:RDF>
  </metadata>
  <defs
     id="defs24" />
  <sodipodi:namedview
     pagecolor="#ffffff"
     bordercolor="#666666"
     borderopacity="1"
     objecttolerance="10"
     gridtolerance="10"
     guidetolerance="10"
     inkscape:pageopacity="0"
     inkscape:pageshadow="2"
     inkscape:window-width="1366"
     inkscape:window-height="704"
     id="namedview22"
     showgrid="false"
     inkscape:zoom="6.9532167"
     inkscape:cx="15.252661"
     inkscape:cy="13.145191"
     inkscape:window-x="0"
     inkscape:window-y="30"
     inkscape:window-maximized="1"
     inkscape:current-layer="svg20" />
  <path
     inkscape:connector-curvature="0"
     style="opacity:0.2"
     d="M 44,11 C 44,9.892 43.108,9 42,9 H 6 C 4.892,9 4,9.892 4,11 v 28 c 0,1.108 0.892,2 2,2 h 26 l 1,-11 11,-2 z"
     id="path2"
     sodipodi:nodetypes="sssssscccs" />
  <path
     style="fill:#e4e4e4"
     inkscape:connector-curvature="0"
     d="M 44,10 C 44,8.892 43.108,8 42,8 H 6 C 4.892,8 4,8.892 4,10 v 28 c 0,1.108 0.892,2 2,2 H 32 L 35.644068,32.152542 44,28 Z"
     id="path4"
     sodipodi:nodetypes="sssssscccs" />
  <path
     style="fill:#7d18ac;stroke-width:0.88741195;fill-opacity:1"
     inkscape:connector-curvature="0"
     d="M 42,11.75 C 42,10.7805 41.1972,10 40.2,10 H 7.8 C 6.8028,10 6,10.7805 6,11.75 v 24.5 C 6,37.2195 6.8028,38 7.8,38 H 32.710092 L 35.55164,32.761459 42,28.722456 Z"
     id="path4-3"
     sodipodi:nodetypes="sssssscccs" />
  <path
     inkscape:connector-curvature="0"
     style="opacity:0.4;fill:currentColor;stroke-width:1.33333302"
     class="ColorScheme-Text"
     d="m 28.666667,13.992184 v 2.072917 c -0.483999,0.0284 -0.964045,0.05404 -1.486979,0.104173 -1.7052,0.1636 -3.549153,0.438625 -5.179686,0.973959 V 16.658858 H 16.66667 v 5.333331 h 0.169271 c -0.759201,1.805467 -1.226546,3.908432 -1.54948,5.854166 -0.04723,0.284 -0.07413,0.5365 -0.114586,0.8125 H 14 v 5.333331 h 1.333333 l 0.666666,0.01563 v -0.01563 h 3.333333 v -5.333331 h -2.815103 c 0.0308,-0.205334 0.04867,-0.388356 0.08333,-0.596356 0.347332,-2.092531 0.930649,-4.342176 1.739582,-6.07031 h 3.658854 v -3.401041 c 1.5512,-0.5652 3.503425,-0.92342 5.307291,-1.096352 0.476666,-0.04587 0.914041,-0.06929 1.359375,-0.09636 v 1.927082 h 5.333332 v -5.333332 z m -5.333333,7.999999 6.40104,11.999996 L 34,29.49218 Z"
     id="path820" />
  <path
     inkscape:connector-curvature="0"
     style="opacity:0.2"
     d="M 43,28 H 33 c -1.1046,0 -2,0.89543 -2,2 v 10 z"
     id="path8" />
  <path
     style="fill:#fafafa"
     inkscape:connector-curvature="0"
     d="M 44,28 H 34 c -1.1046,0 -2,0.89543 -2,2 v 10 z"
     id="path10" />
  <path
     style="fill-opacity:0.66666697;fill-rule:evenodd;stroke-width:0.0717786"
     inkscape:connector-curvature="0"
     d="m 21.646158,10 v 12.484418 h -0.01323 v 4.087845 c -0.270086,2.632611 5.013644,2.632611 4.73339,0 v -2.022727 h 0.0016 V 10 h -4.721595 z"
     id="path11" />
  <g
     transform="matrix(0.8013729,0,0,0.79437074,-303.23543,-388.21644)"
     style="fill:#ffffff;stroke-width:0.08996344"
     id="g25">
    <rect
       rx="0.087458909"
       style="opacity:0.92900002;stroke-width:0.08996344"
       height="2.197578"
       ry="0.08822985"
       width="4.395155"
       x="406.2309"
       y="502.52133"
       id="rect13" />
    <rect
       rx="0.087458909"
       style="opacity:0.92900002;stroke-width:0.08996344"
       height="2.197578"
       ry="0.08822985"
       width="4.395155"
       x="406.22171"
       y="505.69974"
       id="rect15" />
    <rect
       rx="0.087458909"
       style="opacity:0.92900002;stroke-width:0.08996344"
       height="2.197578"
       ry="0.08822985"
       width="4.395155"
       x="406.19412"
       y="508.83987"
       id="rect17" />
    <rect
       rx="0.087458909"
       style="opacity:0.92900002;stroke-width:0.08996344"
       height="2.197578"
       ry="0.08822985"
       width="4.395155"
       x="406.24228"
       y="512.10864"
       id="rect19" />
    <rect
       rx="0.087458909"
       style="opacity:0.92900002;stroke-width:0.08996344"
       height="2.197578"
       ry="0.08822985"
       width="4.395155"
       x="406.24228"
       y="515.32019"
       id="rect21" />
    <rect
       rx="0.087458909"
       style="opacity:0.92900002;stroke-width:0.08996344"
       height="2.197578"
       ry="0.08822985"
       width="4.395155"
       x="406.24222"
       y="518.60736"
       id="rect23" />
  </g>
  <path
     style="fill-opacity:0.66666697;stroke-width:0.0717786"
     inkscape:connector-curvature="0"
     d="m 25.366572,28.42106 v -1.101636 c 0,-0.306923 -0.250219,-0.555847 -0.558734,-0.555847 h -1.552347 c -0.308512,0 -0.558788,0.248998 -0.558788,0.555847 v 1.101096 l -0.863416,2.523556 c -0.241581,0.703331 -0.12567,1.484756 0.30962,2.090377 C 22.57822,33.638958 23.284059,34 24.031635,34 c 0.747716,0 1.453629,-0.361042 1.888925,-0.965547 0.435299,-0.605621 0.551067,-1.387046 0.309555,-2.089824 z m -0.360627,3.962525 c -0.44791,0.623628 -1.500713,0.623628 -1.948689,0 -0.224514,-0.312422 -0.284286,-0.715397 -0.160218,-1.078526 l 0.289777,-0.846433 h 1.689565 l 0.289849,0.846983 c 0.124124,0.362579 0.06427,0.765554 -0.160284,1.077976 z"
     id="path27" />
  <path
     style="fill:#f0f5f1;stroke-width:0.0717786"
     inkscape:connector-curvature="0"
     d="m 25.366572,28.047089 v -1.101635 c 0,-0.306923 -0.250219,-0.555849 -0.558734,-0.555849 h -1.552347 c -0.308512,0 -0.558788,0.248987 -0.558788,0.555849 v 1.101094 l -0.863416,2.523559 c -0.241581,0.703319 -0.12567,1.484754 0.30962,2.090363 0.435313,0.604517 1.141152,0.965559 1.888728,0.965559 0.747716,0 1.453629,-0.361042 1.888925,-0.965559 0.435299,-0.605609 0.551067,-1.387044 0.309555,-2.089824 z m -0.360627,3.962513 c -0.44791,0.623628 -1.500713,0.623628 -1.948689,0 -0.224514,-0.312397 -0.284286,-0.715384 -0.160218,-1.078516 l 0.289777,-0.84643 h 1.689565 l 0.289849,0.846984 c 0.124124,0.362578 0.06427,0.765565 -0.160284,1.077962 z"
     id="path31" />
</svg>
