<?xml version="1.0" encoding="UTF-8" standalone="no"?>
<svg
   xmlns:dc="http://purl.org/dc/elements/1.1/"
   xmlns:cc="http://creativecommons.org/ns#"
   xmlns:rdf="http://www.w3.org/1999/02/22-rdf-syntax-ns#"
   xmlns:svg="http://www.w3.org/2000/svg"
   xmlns="http://www.w3.org/2000/svg"
   xmlns:sodipodi="http://sodipodi.sourceforge.net/DTD/sodipodi-0.dtd"
   xmlns:inkscape="http://www.inkscape.org/namespaces/inkscape"
   width="48"
   height="48"
   version="1"
   id="svg20"
   sodipodi:docname="image-png.svg"
   inkscape:version="0.92.3 (2405546, 2018-03-11)">
  <metadata
     id="metadata26">
    <rdf:RDF>
      <cc:Work
         rdf:about="">
        <dc:format>image/svg+xml</dc:format>
        <dc:type
           rdf:resource="http://purl.org/dc/dcmitype/StillImage" />
        <dc:title></dc:title>
      </cc:Work>
    </rdf:RDF>
  </metadata>
  <defs
     id="defs24" />
  <sodipodi:namedview
     pagecolor="#ffffff"
     bordercolor="#666666"
     borderopacity="1"
     objecttolerance="10"
     gridtolerance="10"
     guidetolerance="10"
     inkscape:pageopacity="0"
     inkscape:pageshadow="2"
     inkscape:window-width="1366"
     inkscape:window-height="704"
     id="namedview22"
     showgrid="false"
     inkscape:zoom="6.9532167"
     inkscape:cx="8.8527454"
     inkscape:cy="36.443761"
     inkscape:window-x="0"
     inkscape:window-y="30"
     inkscape:window-maximized="1"
     inkscape:current-layer="svg20" />
  <path
     inkscape:connector-curvature="0"
     style="opacity:0.2"
     d="M 44,11 C 44,9.892 43.108,9 42,9 H 6 C 4.892,9 4,9.892 4,11 v 28 c 0,1.108 0.892,2 2,2 h 26 l 1,-11 11,-2 z"
     id="path2"
     sodipodi:nodetypes="sssssscccs" />
  <path
     style="fill:#e4e4e4"
     inkscape:connector-curvature="0"
     d="M 44,10 C 44,8.892 43.108,8 42,8 H 6 C 4.892,8 4,8.892 4,10 v 28 c 0,1.108 0.892,2 2,2 H 32 L 35.644068,32.152542 44,28 Z"
     id="path4"
     sodipodi:nodetypes="sssssscccs" />
  <path
     style="fill:#ff5575;stroke-width:0.88741195;fill-opacity:1"
     inkscape:connector-curvature="0"
     d="M 42,11.75 C 42,10.7805 41.1972,10 40.2,10 H 7.8 C 6.8028,10 6,10.7805 6,11.75 v 24.5 C 6,37.2195 6.8028,38 7.8,38 H 32.710092 L 35.55164,32.761459 42,28.722456 Z"
     id="path4-3"
     sodipodi:nodetypes="sssssscccs" />
  <circle
     style="opacity:1;fill:#ffffff;fill-opacity:1;stroke:none;stroke-width:1.04972899;stroke-miterlimit:4;stroke-dasharray:none;stroke-opacity:1"
     id="path870"
     cx="12.103691"
     cy="25.363401"
     r="4" />
  <path
     style="fill:#4c0000;fill-opacity:1;stroke:none;stroke-width:0.97685516px;stroke-linecap:butt;stroke-linejoin:miter;stroke-opacity:1"
     d="m 6.0000014,30.515022 6.4670656,-4.806867 5.82036,4.120172 L 27.556888,22 l 5.454776,8.218658 8.988338,-6.707928 -0.02101,5.74569 -9.257023,8.601824 L 5.9999984,38 Z"
     id="path868"
     inkscape:connector-curvature="0"
     sodipodi:nodetypes="cccccccccc" />
  <path
     inkscape:connector-curvature="0"
     style="opacity:0.2"
     d="M 43,28 H 33 c -1.1046,0 -2,0.89543 -2,2 v 10 z"
     id="path8" />
  <path
     style="fill:#fafafa"
     inkscape:connector-curvature="0"
     d="M 44,28 H 34 c -1.1046,0 -2,0.89543 -2,2 v 10 z"
     id="path10" />
</svg>
