<?xml version="1.0" encoding="UTF-8" standalone="no"?>
<svg
   xmlns:dc="http://purl.org/dc/elements/1.1/"
   xmlns:cc="http://creativecommons.org/ns#"
   xmlns:rdf="http://www.w3.org/1999/02/22-rdf-syntax-ns#"
   xmlns:svg="http://www.w3.org/2000/svg"
   xmlns="http://www.w3.org/2000/svg"
   xmlns:xlink="http://www.w3.org/1999/xlink"
   xmlns:sodipodi="http://sodipodi.sourceforge.net/DTD/sodipodi-0.dtd"
   xmlns:inkscape="http://www.inkscape.org/namespaces/inkscape"
   width="48"
   height="48"
   version="1"
   id="svg26"
   sodipodi:docname="video-x-generic.svg"
   inkscape:version="0.92.4 5da689c313, 2019-01-14">
  <metadata
     id="metadata32">
    <rdf:RDF>
      <cc:Work
         rdf:about="">
        <dc:format>image/svg+xml</dc:format>
        <dc:type
           rdf:resource="http://purl.org/dc/dcmitype/StillImage" />
        <dc:title></dc:title>
      </cc:Work>
    </rdf:RDF>
  </metadata>
  <defs
     id="defs30">
    <linearGradient
       inkscape:collect="always"
       id="linearGradient824">
      <stop
         style="stop-color:#0083d7;stop-opacity:1;"
         offset="0"
         id="stop820" />
      <stop
         style="stop-color:#00cc00;stop-opacity:1"
         offset="1"
         id="stop822" />
    </linearGradient>
    <linearGradient
       inkscape:collect="always"
       xlink:href="#linearGradient824"
       id="linearGradient826"
       x1="23.326996"
       y1="40.420635"
       x2="24.30724"
       y2="4.2099466"
       gradientUnits="userSpaceOnUse"
       gradientTransform="matrix(0.99999999,0,0,1.0204081,-3.6e-8,-1.3061216)" />
    <linearGradient
       inkscape:collect="always"
       xlink:href="#linearGradient824"
       id="linearGradient834"
       x1="22.961231"
       y1="40.315289"
       x2="23.758593"
       y2="4.2874856"
       gradientUnits="userSpaceOnUse"
       gradientTransform="matrix(0.99999999,0,0,1.0204081,-3.6e-8,0.32653193)" />
  </defs>
  <sodipodi:namedview
     pagecolor="#ffffff"
     bordercolor="#666666"
     borderopacity="1"
     objecttolerance="10"
     gridtolerance="10"
     guidetolerance="10"
     inkscape:pageopacity="0"
     inkscape:pageshadow="2"
     inkscape:window-width="1366"
     inkscape:window-height="712"
     id="namedview28"
     showgrid="false"
     inkscape:zoom="3.8664592"
     inkscape:cx="14.802074"
     inkscape:cy="30.088775"
     inkscape:window-x="0"
     inkscape:window-y="25"
     inkscape:window-maximized="1"
     inkscape:current-layer="svg26" />
  <rect
     style="fill:#000000;fill-opacity:1;stroke-width:0.9987523"
     width="39.900249"
     height="40"
     x="-44"
     y="-44"
     rx="1.9950124"
     ry="2"
     transform="matrix(0,-1,-1,0,0,0)"
     id="rect2" />
  <path
     style="opacity:0.2;stroke-width:0.9987523"
     d="M 6,44 C 4.892,44 4,43.110224 4,42.004988 v -0.997507 c 0,1.105237 0.892,1.995013 2,1.995013 h 36 c 1.108,0 2,-0.889776 2,-1.995013 v 0.997507 C 44,43.110224 43.108,44 42,44 Z"
     id="path6"
     inkscape:connector-curvature="0" />
  <path
     style="fill:#ffffff;stroke-width:0.9987523"
     d="m 6,6.0947631 v 3.9900249 h 4 V 6.0947631 Z m 32,0 v 3.9900249 h 4 V 6.0947631 Z M 6,14.074813 v 3.990025 h 4 v -3.990025 z m 32,0 v 3.990025 h 4 v -3.990025 z m -32,7.98005 v 3.990025 h 4 v -3.990025 z m 32,0 v 3.990025 h 4 v -3.990025 z m -32,7.98005 v 3.990025 h 4 v -3.990025 z m 32,0 v 3.990025 h 4 v -3.990025 z m -32,7.98005 v 3.990025 h 4 v -3.990025 z m 32,0 v 3.990025 h 4 v -3.990025 z"
     id="path10"
     inkscape:connector-curvature="0" />
  <rect
     style="fill:url(#linearGradient826);fill-opacity:1;stroke-width:1.01015246"
     width="20"
     height="14.285714"
     x="14"
     y="6.8571429"
     id="rect14" />
  <rect
     style="fill:url(#linearGradient834);fill-opacity:1;stroke-width:1.01015246"
     width="20"
     height="14.285714"
     x="14"
     y="26.85714"
     id="rect18" />
  <path
     style="opacity:0.4;fill:#ffffff;stroke-width:0.69006556"
     d="M 6,4 C 4.892,4 4,4.4247621 4,4.9523807 V 5.4285714 C 4,4.9009521 4.892,4.4761907 6,4.4761907 h 36 c 1.108,0 2,0.4247614 2,0.9523807 V 4.9523807 C 44,4.4247621 43.108,4 42,4 Z"
     id="path4"
     inkscape:connector-curvature="0" />
</svg>
