<?xml version="1.0" encoding="UTF-8" standalone="no"?>
<svg
   xmlns:dc="http://purl.org/dc/elements/1.1/"
   xmlns:cc="http://creativecommons.org/ns#"
   xmlns:rdf="http://www.w3.org/1999/02/22-rdf-syntax-ns#"
   xmlns:svg="http://www.w3.org/2000/svg"
   xmlns="http://www.w3.org/2000/svg"
   xmlns:sodipodi="http://sodipodi.sourceforge.net/DTD/sodipodi-0.dtd"
   xmlns:inkscape="http://www.inkscape.org/namespaces/inkscape"
   width="48"
   height="48"
   version="1"
   id="svg865"
   sodipodi:docname="x-office-spreadsheet.svg"
   inkscape:version="0.92.3 (2405546, 2018-03-11)">
  <metadata
     id="metadata871">
    <rdf:RDF>
      <cc:Work
         rdf:about="">
        <dc:format>image/svg+xml</dc:format>
        <dc:type
           rdf:resource="http://purl.org/dc/dcmitype/StillImage" />
        <dc:title></dc:title>
      </cc:Work>
    </rdf:RDF>
  </metadata>
  <defs
     id="defs869" />
  <sodipodi:namedview
     pagecolor="#ffffff"
     bordercolor="#666666"
     borderopacity="1"
     objecttolerance="10"
     gridtolerance="10"
     guidetolerance="10"
     inkscape:pageopacity="0"
     inkscape:pageshadow="2"
     inkscape:window-width="1366"
     inkscape:window-height="704"
     id="namedview867"
     showgrid="false"
     inkscape:zoom="4.9166667"
     inkscape:cx="-27.739524"
     inkscape:cy="24"
     inkscape:window-x="0"
     inkscape:window-y="30"
     inkscape:window-maximized="1"
     inkscape:current-layer="svg865" />
  <path
     style="opacity:0.2"
     d="M 10,5 C 8.892,5 8,5.892 8,7 v 36 c 0,1.108 0.892,2 2,2 h 28 c 1.108,0 2,-0.892 2,-2 V 17 L 29,16 28,5 Z"
     id="path855" />
  <path
     fill="#e4e4e4"
     d="m10 4c-1.108 0-2 0.892-2 2v36c0 1.108 0.892 2 2 2h28c1.108 0 2-0.892 2-2v-26l-11-1-1-11z"
     id="path857" />
  <path
     fill="#fff"
     opacity=".2"
     d="m10 4c-1.108 0-2 0.892-2 2v1c0-1.108 0.892-2 2-2h18l11 11h1l-12-12z"
     id="path859" />
  <path
     style="opacity:0.2"
     d="m 28,5 v 10 c 0,1.1046 0.89543,2 2,2 h 10 z"
     id="path861" />
  <path
     fill="#fafafa"
     d="m28 4v10c0 1.1046 0.89543 2 2 2h10l-12-12z"
     id="path863" />
  <g
     transform="matrix(0.75000009,0,0,0.75000009,0.23023297,-2.9589875)"
     id="g1021">
    <path
       transform="matrix(0.18117125,0,0,0.18117125,23.016067,21.414764)"
       d="M -21.496094,-0.69921875 V 35.994141 h 4.97461 V 21.697266 h 10.7812496 c 3.8888888,0 6.9618056,-1.025608 9.21875,-3.074219 2.2743055,-2.048611 3.4121094,-4.809028 3.4121094,-8.28125 0,-3.5069445 -1.1297744,-6.2233075 -3.3867188,-8.1503908 -2.2569443,-1.92708324 -5.4420573,-2.89062495 -9.5566406,-2.89062495 z m 4.97461,3.98437495 h 9.8691402 c 5.69444436,0 8.5429688,2.3697918 8.5429688,7.1093748 0,4.913195 -2.77842895,7.369141 -8.3339844,7.369141 H -16.521484 Z"
       id="text974-3"
       style="font-style:normal;font-weight:normal;font-size:53.33333206px;line-height:1.25;font-family:sans-serif;letter-spacing:0px;word-spacing:0px;fill:#ffffff;fill-opacity:1;stroke:#ffffff;stroke-width:4.73111963;stroke-miterlimit:4;stroke-dasharray:none;stroke-opacity:1"
       inkscape:original="M -21.496094 -0.69921875 L -21.496094 35.994141 L -16.521484 35.994141 L -16.521484 21.697266 L -5.7402344 21.697266 C -1.8513456 21.697266 1.2215712 20.671658 3.4785156 18.623047 C 5.7528211 16.574436 6.890625 13.814019 6.890625 10.341797 C 6.890625 6.8348525 5.7608506 4.1184895 3.5039062 2.1914062 C 1.2469619 0.26432296 -1.9381511 -0.69921875 -6.0527344 -0.69921875 L -21.496094 -0.69921875 z M -16.521484 3.2851562 L -6.6523438 3.2851562 C -0.95789944 3.2851562 1.890625 5.654948 1.890625 10.394531 C 1.890625 15.307726 -0.88780395 17.763672 -6.4433594 17.763672 L -16.521484 17.763672 L -16.521484 3.2851562 z "
       inkscape:radius="0"
       sodipodi:type="inkscape:offset" />
    <g
       id="g832"
       transform="translate(0.12022972,-0.00676918)">
      <rect
         y="18.618746"
         x="15.572791"
         height="12"
         width="12"
         id="rect11293-3"
         style="opacity:1;fill:#009900;fill-opacity:1;stroke:none;stroke-width:0.32887134" />
      <path
         sodipodi:type="inkscape:offset"
         inkscape:radius="0"
         inkscape:original="M -2.6699219 21.707031 L 6.9980469 34.929688 L -3.4707031 49.226562 L 0.65039062 49.226562 L 9.0878906 37.195312 L 17.349609 49.226562 L 21.470703 49.226562 L 11.255859 34.792969 L 20.669922 21.707031 L 16.548828 21.707031 L 9.1074219 32.507812 L 1.4511719 21.707031 L -2.6699219 21.707031 z "
         style="font-style:normal;font-weight:normal;font-size:40px;line-height:1.25;font-family:sans-serif;letter-spacing:0px;word-spacing:0px;fill:#ffffff;fill-opacity:1;stroke:#ffffff;stroke-opacity:1"
         id="text826"
         d="m -2.6699219,21.707031 9.6679688,13.222657 -10.46875,14.296874 h 4.12109372 l 8.43749998,-12.03125 8.2617184,12.03125 h 4.121094 L 11.255859,34.792969 20.669922,21.707031 H 16.548828 L 9.1074219,32.507812 1.4511719,21.707031 Z"
         transform="matrix(0.29746806,0,0,0.29746806,18.898468,14.068507)" />
    </g>
    <g
       id="g1001">
      <rect
         style="opacity:1;fill:#66cc33;fill-opacity:1;stroke:none;stroke-width:1;stroke-miterlimit:4;stroke-dasharray:none;stroke-opacity:1"
         id="rect950"
         width="31.496576"
         height="5.1592331"
         x="16.111021"
         y="33.217075" />
      <g
         id="g948"
         style="stroke:#787878;stroke-opacity:1">
        <path
           sodipodi:nodetypes="cc"
           inkscape:connector-curvature="0"
           id="path884"
           d="M 16.303391,32.672409 V 54.096085"
           style="opacity:1;fill:none;stroke:#787878;stroke-width:1.22072959px;stroke-linecap:butt;stroke-linejoin:miter;stroke-opacity:1" />
        <path
           sodipodi:nodetypes="cc"
           inkscape:connector-curvature="0"
           id="path886"
           d="M 23.998205,33.165161 V 54.035565"
           style="opacity:1;fill:none;stroke:#787878;stroke-width:1.22072959px;stroke-linecap:butt;stroke-linejoin:miter;stroke-opacity:1" />
        <path
           sodipodi:nodetypes="cc"
           inkscape:connector-curvature="0"
           id="path888"
           d="M 31.693021,32.672409 V 53.975045"
           style="opacity:1;fill:none;stroke:#787878;stroke-width:1.22072959px;stroke-linecap:butt;stroke-linejoin:miter;stroke-opacity:1" />
        <path
           sodipodi:nodetypes="cc"
           inkscape:connector-curvature="0"
           id="path890"
           d="M 39.387837,32.611891 V 54.035565"
           style="opacity:1;fill:none;stroke:#787878;stroke-width:1.22072959px;stroke-linecap:butt;stroke-linejoin:miter;stroke-opacity:1" />
        <path
           inkscape:connector-curvature="0"
           id="path892"
           d="m 47.082652,32.672409 v 21.1816"
           style="opacity:1;fill:none;stroke:#787878;stroke-width:1.22072959px;stroke-linecap:butt;stroke-linejoin:miter;stroke-opacity:1" />
        <g
           style="opacity:1;stroke:#787878;stroke-opacity:1"
           transform="matrix(0,-1.0318466,-1.3998478,0,92.858446,71.856597)"
           id="g935">
          <path
             style="fill:none;stroke:#787878;stroke-width:1px;stroke-linecap:butt;stroke-linejoin:miter;stroke-opacity:1"
             d="m 37.446963,32.70055 v 22.125"
             id="path884-7"
             inkscape:connector-curvature="0"
             sodipodi:nodetypes="cc" />
          <path
             style="fill:none;stroke:#787878;stroke-width:1px;stroke-linecap:butt;stroke-linejoin:miter;stroke-opacity:1"
             d="m 32.446963,32.32555 v 22.4375"
             id="path886-5"
             inkscape:connector-curvature="0"
             sodipodi:nodetypes="cc" />
          <path
             style="fill:none;stroke:#787878;stroke-width:1px;stroke-linecap:butt;stroke-linejoin:miter;stroke-opacity:1"
             d="m 27.446963,32.70055 v 22"
             id="path888-3"
             inkscape:connector-curvature="0"
             sodipodi:nodetypes="cc" />
          <path
             style="fill:none;stroke:#787878;stroke-width:1px;stroke-linecap:butt;stroke-linejoin:miter;stroke-opacity:1"
             d="m 22.446963,32.63805 v 22.125"
             id="path890-5"
             inkscape:connector-curvature="0"
             sodipodi:nodetypes="cc" />
          <path
             sodipodi:nodetypes="cc"
             style="fill:none;stroke:#787878;stroke-width:1px;stroke-linecap:butt;stroke-linejoin:miter;stroke-opacity:1"
             d="M 17.446963,32.70055 17.212359,54.688128"
             id="path892-6"
             inkscape:connector-curvature="0" />
        </g>
      </g>
    </g>
  </g>
</svg>
