<?xml version="1.0" encoding="UTF-8" standalone="no"?>
<svg
   xmlns:dc="http://purl.org/dc/elements/1.1/"
   xmlns:cc="http://creativecommons.org/ns#"
   xmlns:rdf="http://www.w3.org/1999/02/22-rdf-syntax-ns#"
   xmlns:svg="http://www.w3.org/2000/svg"
   xmlns="http://www.w3.org/2000/svg"
   xmlns:xlink="http://www.w3.org/1999/xlink"
   xmlns:sodipodi="http://sodipodi.sourceforge.net/DTD/sodipodi-0.dtd"
   xmlns:inkscape="http://www.inkscape.org/namespaces/inkscape"
   width="16"
   height="16"
   version="1.1"
   viewBox="0 0 12 12"
   id="svg52"
   sodipodi:docname="accessories-calculator.svg"
   inkscape:version="0.92.3 (2405546, 2018-03-11)">
  <metadata
     id="metadata56">
    <rdf:RDF>
      <cc:Work
         rdf:about="">
        <dc:format>image/svg+xml</dc:format>
        <dc:type
           rdf:resource="http://purl.org/dc/dcmitype/StillImage" />
        <dc:title></dc:title>
      </cc:Work>
    </rdf:RDF>
  </metadata>
  <sodipodi:namedview
     pagecolor="#ffffff"
     bordercolor="#666666"
     borderopacity="1"
     objecttolerance="10"
     gridtolerance="10"
     guidetolerance="10"
     inkscape:pageopacity="0"
     inkscape:pageshadow="2"
     inkscape:window-width="1366"
     inkscape:window-height="704"
     id="namedview54"
     showgrid="false"
     inkscape:zoom="17.8125"
     inkscape:cx="18.049716"
     inkscape:cy="13.882735"
     inkscape:window-x="0"
     inkscape:window-y="30"
     inkscape:window-maximized="1"
     inkscape:current-layer="g50" />
  <defs
     id="defs14">
    <linearGradient
       inkscape:collect="always"
       id="linearGradient912">
      <stop
         style="stop-color:#003399;stop-opacity:1"
         offset="0"
         id="stop908" />
      <stop
         style="stop-color:#0099ff;stop-opacity:1"
         offset="1"
         id="stop910" />
    </linearGradient>
    <clipPath
       id="clipPath4">
      <rect
         width="384"
         height="384"
         id="rect2"
         x="0"
         y="0" />
    </clipPath>
    <clipPath
       id="clipPath8">
      <rect
         width="384"
         height="384"
         id="rect6"
         x="0"
         y="0" />
    </clipPath>
    <clipPath
       id="clipPath12">
      <rect
         width="384"
         height="384"
         id="rect10"
         x="0"
         y="0" />
    </clipPath>
    <linearGradient
       inkscape:collect="always"
       xlink:href="#linearGradient912"
       id="linearGradient914"
       x1="23.246401"
       y1="192.00459"
       x2="360.75366"
       y2="192.00459"
       gradientUnits="userSpaceOnUse" />
  </defs>
  <g
     transform="translate(-0.01,-372.02)"
     id="g50">
    <g
       id="g24"
       transform="matrix(0.03555441,0,0,0.03555459,-0.81651161,371.19336)">
      <path
         d="M 192.02,23.25 V 192 h -0.0156 V 23.27 h -141.43 c -14.059,0.07813 -25.547,10.5 -27.328,24.074 v 144.68 h 0.03125 v 140.95 c 0,15.375 12.379,27.754 27.754,27.754 h 140.96 v 0.0312 h 141.18 c 15.156,-0.082 27.34,-12.184 27.582,-27.297 v -141.46 h -0.0859 v -141.04 c -4e-5,-15.059 -11.875,-27.211 -26.805,-27.711 z"
         id="path16"
         inkscape:connector-curvature="0"
         style="fill:url(#linearGradient914);fill-opacity:1" />
      <path
         d="m 23.281,192.01 v 140.95 c 0,15.375 12.379,27.754 27.754,27.754 h 140.97 v -168.71 z"
         id="path20"
         inkscape:connector-curvature="0"
         style="fill:#000000;fill-opacity:0.39215686" />
      <path
         d="m 23.25,184.52 v 7.5 h 0.03125 v -7.5 z m 0.03125,140.95 v 7.5 c 0,15.375 12.379,27.754 27.754,27.754 h 140.96 v 0.0312 h 141.18 c 15.156,-0.082 27.34,-12.184 27.582,-27.297 v -7.5 c -0.24219,15.113 -12.426,27.215 -27.582,27.297 h -141.18 v -0.0312 h -140.96 c -15.375,0 -27.754,-12.379 -27.754,-27.754 z"
         id="path22"
         inkscape:connector-curvature="0"
         style="opacity:0.3" />
    </g>
    <path
       d="m 0.98175942,372.02058 c -0.4998594,0.003 -0.90830851,0.37333 -0.97163083,0.85594 v 5.14404 H 6.0102906 v -5.99984 z"
       id="path30"
       inkscape:connector-curvature="0"
       style="fill:#000000;fill-opacity:0.19607843;stroke-width:0.0355545" />
    <path
       d="m 3.2480685,374.05519 v 1.0472 h 1.0433086 v 0.47167 H 3.2480685 v 1.04733 H 2.7725281 v -1.04733 H 1.7292197 v -0.47167 h 1.0433084 v -1.0472 z"
       id="path32"
       inkscape:connector-curvature="0"
       style="opacity:0.3;stroke-width:0.0355545" />
    <path
       d="m 3.2427537,373.6994 v 1.0419 h 1.0396577 v 0.46928 H 3.2427537 v 1.04202 H 2.7688773 v -1.04202 H 1.7292197 v -0.46928 h 1.0396576 v -1.0419 z"
       id="path34"
       inkscape:connector-curvature="0"
       style="fill:#ffffff;stroke-width:0.03540224" />
    <path
       d="m 4.2137262,380.42085 -0.8674565,0.86735 0.8674565,0.86331 -0.3358221,0.33581 -0.8673496,-0.86344 -0.8673498,0.86344 -0.3358222,-0.33581 0.8673499,-0.86331 -0.8673499,-0.86735 0.3358222,-0.33582 0.8673498,0.86735 0.8673496,-0.86735 z"
       id="path40"
       inkscape:connector-curvature="0"
       style="opacity:0.3;stroke-width:0.0355545" />
    <path
       d="m 4.2137262,380.15419 -0.8674565,0.86736 0.8674565,0.86329 -0.3358221,0.33583 -0.8673496,-0.86344 -0.8673498,0.86344 -0.3358222,-0.33583 0.8673499,-0.86329 -0.8673499,-0.86736 0.3358222,-0.33583 0.8673498,0.86736 0.8673496,-0.86736 z"
       id="path42"
       inkscape:connector-curvature="0"
       style="fill:#ffffff;stroke-width:0.0355545" />
    <path
       d="m 6.0107352,372.02001 v 0.26666 h 5.0430378 c 0.530809,0.0178 0.952983,0.44983 0.952983,0.98523 v -0.26667 c -3e-6,-0.5354 -0.422174,-0.96746 -0.952983,-0.98522 z m -5.02890458,4e-4 c -0.4998506,0.003 -0.90829083,0.3733 -0.97164891,0.85593 v 0.26665 c 0.0633312,-0.48263 0.47179831,-0.85315 0.97164891,-0.85592 H 6.0102021 v -0.26666 z m 5.02837148,5.99903 v 0.26666 h 5.6e-4 v -0.26666 z m 5.9966059,0 v 0.26666 h 0.0031 v -0.26666 z"
       id="path48"
       inkscape:connector-curvature="0"
       style="opacity:0.3;fill:#ffffff;stroke-width:0.03555361" />
    <path
       d="m 7.9108059,377.35718 h 2.5021411 v 0.51553 H 7.9108059 Z"
       id="path36-7"
       inkscape:connector-curvature="0"
       style="opacity:0.3;stroke-width:0.03555449" />
    <path
       d="m 7.9108059,376.84937 h 2.5021411 v 0.51064 H 7.9108059 Z"
       id="path38-4"
       inkscape:connector-curvature="0"
       style="fill:#ffffff;stroke-width:0.035385" />
    <path
       d="m 7.9160347,378.32694 h 2.5021413 v 0.51554 H 7.9160347 Z"
       id="path36-0-5"
       inkscape:connector-curvature="0"
       style="opacity:0.3;stroke-width:0.03555449" />
    <path
       d="m 7.9160347,378.01411 h 2.5021413 v 0.51064 H 7.9160347 Z"
       id="path38-5-5"
       inkscape:connector-curvature="0"
       style="fill:#ffffff;stroke-width:0.035385" />
  </g>
</svg>
