<?xml version="1.0" encoding="UTF-8" standalone="no"?>
<svg
   xmlns:dc="http://purl.org/dc/elements/1.1/"
   xmlns:cc="http://creativecommons.org/ns#"
   xmlns:rdf="http://www.w3.org/1999/02/22-rdf-syntax-ns#"
   xmlns:svg="http://www.w3.org/2000/svg"
   xmlns="http://www.w3.org/2000/svg"
   xmlns:xlink="http://www.w3.org/1999/xlink"
   xmlns:sodipodi="http://sodipodi.sourceforge.net/DTD/sodipodi-0.dtd"
   xmlns:inkscape="http://www.inkscape.org/namespaces/inkscape"
   width="16"
   height="16"
   version="1"
   id="svg20"
   sodipodi:docname="applications-utilities.svg"
   inkscape:version="0.92.3 (2405546, 2018-03-11)">
  <metadata
     id="metadata26">
    <rdf:RDF>
      <cc:Work
         rdf:about="">
        <dc:format>image/svg+xml</dc:format>
        <dc:type
           rdf:resource="http://purl.org/dc/dcmitype/StillImage" />
        <dc:title></dc:title>
      </cc:Work>
    </rdf:RDF>
  </metadata>
  <defs
     id="defs24">
    <linearGradient
       inkscape:collect="always"
       id="linearGradient894">
      <stop
         style="stop-color:#454545;stop-opacity:1"
         offset="0"
         id="stop890" />
      <stop
         style="stop-color:#636363;stop-opacity:1"
         offset="1"
         id="stop892" />
    </linearGradient>
    <linearGradient
       inkscape:collect="always"
       xlink:href="#linearGradient894"
       id="linearGradient896"
       x1="31.661018"
       y1="56.949154"
       x2="33.423729"
       y2="9.4915257"
       gradientUnits="userSpaceOnUse"
       gradientTransform="matrix(0.28571425,0,0,0.31999995,-1.1428564,-2.239999)" />
    <filter
       inkscape:collect="always"
       style="color-interpolation-filters:sRGB"
       id="filter1491"
       x="-0.045254238"
       width="1.0905085"
       y="-0.089000002"
       height="1.178">
      <feGaussianBlur
         inkscape:collect="always"
         stdDeviation="1.0559322"
         id="feGaussianBlur1493" />
    </filter>
  </defs>
  <sodipodi:namedview
     pagecolor="#ffffff"
     bordercolor="#666666"
     borderopacity="1"
     objecttolerance="10"
     gridtolerance="10"
     guidetolerance="10"
     inkscape:pageopacity="0"
     inkscape:pageshadow="2"
     inkscape:window-width="1366"
     inkscape:window-height="704"
     id="namedview22"
     showgrid="false"
     showguides="true"
     inkscape:guide-bbox="true"
     inkscape:zoom="20.85965"
     inkscape:cx="5.3415494"
     inkscape:cy="16.074885"
     inkscape:window-x="0"
     inkscape:window-y="30"
     inkscape:window-maximized="1"
     inkscape:current-layer="svg20" />
  <path
     style="fill:url(#linearGradient896);fill-opacity:1;stroke-width:0.30237153"
     d="M 0.8000005,5.5e-7 C 0.3568006,5.5e-7 6.9604645e-7,0.39644535 6.9604645e-7,0.88888965 V 11.555555 15.11111 C 6.9604645e-7,15.603554 0.3568006,15.999999 0.8000005,15.999999 H 15.199999 c 0.4432,0 0.8,-0.396445 0.8,-0.888889 V 11.555555 0.88888965 c 0,-0.4924443 -0.3568,-0.8888891 -0.8,-0.8888891 z"
     id="path4"
     inkscape:connector-curvature="0" />
  <rect
     style="opacity:0.2;stroke:#000000;stroke-width:0;stroke-linejoin:round"
     width="15.999999"
     height="0.9599998"
     x="4.7683716e-07"
     y="8"
     id="rect6" />
  <rect
     style="opacity:0.2;stroke:#000000;stroke-width:0;stroke-linejoin:round"
     width="15.999999"
     height="0.9599998"
     x="4.7683716e-07"
     y="2.2400007"
     id="rect8" />
  <rect
     style="opacity:0.2;stroke:#000000;stroke-width:0;stroke-linejoin:round"
     width="15.999999"
     height="0.9599998"
     x="4.7683716e-07"
     y="6.0800009"
     id="rect10" />
  <path
     style="opacity:0.4;fill:#ffffff;stroke-width:0.30237153"
     d="M 0.8002236,5.5e-7 C 0.3570237,5.5e-7 4.9604645e-7,0.39630655 4.9604645e-7,0.88875065 V 1.2087508 C 4.9604645e-7,0.71630625 0.3570237,0.32000055 0.8002236,0.32000055 H 15.199775 c 0.443201,0 0.800224,0.3963057 0.800224,0.88875025 V 0.88875065 c 0,-0.4924445 -0.357023,-0.8887501 -0.800224,-0.8887501 z"
     id="path12"
     inkscape:connector-curvature="0" />
  <rect
     style="opacity:0.2;stroke:#000000;stroke-width:0;stroke-linejoin:round"
     width="15.999999"
     height="0.9599998"
     x="4.7683716e-07"
     y="4.1600008"
     id="rect14" />
  <rect
     style="opacity:0.2;stroke:#000000;stroke-width:0;stroke-linejoin:round"
     width="15.999999"
     height="0.9599998"
     x="4.7683716e-07"
     y="14.079885"
     id="rect6-6" />
  <rect
     style="opacity:0.2;stroke:#000000;stroke-width:0;stroke-linejoin:round"
     width="15.999999"
     height="0.9599998"
     x="4.7683716e-07"
     y="12.159885"
     id="rect10-9" />
  <rect
     style="opacity:0.2;stroke:#000000;stroke-width:0;stroke-linejoin:round"
     width="15.999999"
     height="0.9599998"
     x="4.7683716e-07"
     y="10.239886"
     id="rect14-1" />
  <rect
     style="opacity:0.2;stroke:#000000;stroke-width:0;stroke-linejoin:round"
     width="15.999999"
     height="0.9599998"
     x="4.7683716e-07"
     y="0.6400004"
     id="rect8-7" />
  <path
     inkscape:connector-curvature="0"
     style="opacity:0.4;fill:#000000;fill-opacity:1;stroke-width:0.30237153"
     d="M 0.8002235,15.999999 C 0.3570236,15.999999 4.9604645e-7,15.603693 4.9604645e-7,15.111249 v -0.32 c 0,0.492444 0.35702310395355,0.88875 0.80022300395355,0.88875 H 15.199775 c 0.443201,0 0.800224,-0.396306 0.800224,-0.88875 v 0.32 c 0,0.492444 -0.357023,0.88875 -0.800224,0.88875 z"
     id="path12-0" />
  <path
     style="fill:none;stroke:#16c344;stroke-width:2;stroke-linecap:butt;stroke-linejoin:miter;stroke-miterlimit:4;stroke-dasharray:none;stroke-opacity:1;filter:url(#filter1491)"
     d="M 4,35 H 17.491525 L 27.254237,17.414322 35.932204,45.888897 41.491526,35 H 60"
     id="path1454-3"
     inkscape:connector-curvature="0"
     sodipodi:nodetypes="cccccc"
     transform="matrix(0.26091272,0,0,0.32233045,-0.3492075,-2.3137621)" />
  <path
     style="fill:none;stroke:#16c344;stroke-width:0.60474306;stroke-linecap:butt;stroke-linejoin:miter;stroke-miterlimit:4;stroke-dasharray:none;stroke-opacity:1"
     d="M 4.9604645e-7,8.6285895 H 3.8547214 L 6.6440674,3.001173 9.1234856,12.113036 10.711864,8.6285895 h 5.288135"
     id="path1454"
     inkscape:connector-curvature="0"
     sodipodi:nodetypes="cccccc" />
</svg>
