<?xml version="1.0" encoding="UTF-8" standalone="no"?>
<svg
   xmlns:dc="http://purl.org/dc/elements/1.1/"
   xmlns:cc="http://creativecommons.org/ns#"
   xmlns:rdf="http://www.w3.org/1999/02/22-rdf-syntax-ns#"
   xmlns:svg="http://www.w3.org/2000/svg"
   xmlns="http://www.w3.org/2000/svg"
   xmlns:xlink="http://www.w3.org/1999/xlink"
   xmlns:sodipodi="http://sodipodi.sourceforge.net/DTD/sodipodi-0.dtd"
   xmlns:inkscape="http://www.inkscape.org/namespaces/inkscape"
   width="16"
   height="16"
   version="1"
   id="svg18"
   sodipodi:docname="applets-screenshooter.svg"
   inkscape:version="0.92.4 5da689c313, 2019-01-14">
  <metadata
     id="metadata24">
    <rdf:RDF>
      <cc:Work
         rdf:about="">
        <dc:format>image/svg+xml</dc:format>
        <dc:type
           rdf:resource="http://purl.org/dc/dcmitype/StillImage" />
        <dc:title></dc:title>
      </cc:Work>
    </rdf:RDF>
  </metadata>
  <defs
     id="defs22">
    <linearGradient
       id="linearGradient1748"
       inkscape:collect="always">
      <stop
         id="stop1744"
         offset="0"
         style="stop-color:#ffffff;stop-opacity:1" />
      <stop
         id="stop1746"
         offset="1"
         style="stop-color:#ffffff;stop-opacity:0" />
    </linearGradient>
    <linearGradient
       inkscape:collect="always"
       id="linearGradient1716">
      <stop
         style="stop-color:#000000;stop-opacity:1;"
         offset="0"
         id="stop1712" />
      <stop
         style="stop-color:#000000;stop-opacity:0;"
         offset="1"
         id="stop1714" />
    </linearGradient>
    <linearGradient
       inkscape:collect="always"
       xlink:href="#linearGradient4556"
       id="linearGradient4558"
       x1="-6.2112632"
       y1="-27.4408"
       x2="538.62769"
       y2="562.73615"
       gradientUnits="userSpaceOnUse"
       gradientTransform="matrix(0.20508122,0,0,0.18719001,-9.9740326,292.17445)" />
    <linearGradient
       inkscape:collect="always"
       id="linearGradient4556">
      <stop
         style="stop-color:#12d79c;stop-opacity:1"
         offset="0"
         id="stop4552" />
      <stop
         style="stop-color:#6020a7;stop-opacity:1"
         offset="1"
         id="stop4554" />
    </linearGradient>
    <linearGradient
       x1="24.979176"
       y1="4.5588341"
       x2="24.939274"
       y2="8.2648869"
       id="linearGradient3058"
       xlink:href="#linearGradient3924-1"
       gradientUnits="userSpaceOnUse"
       gradientTransform="matrix(0.81280613,0,0,0.67055313,9.3017455,-8.2769919)" />
    <linearGradient
       id="linearGradient3924-1">
      <stop
         id="stop3926-3"
         style="stop-color:#ffffff;stop-opacity:1"
         offset="0" />
      <stop
         id="stop3930-6"
         style="stop-color:#ffffff;stop-opacity:0.15686275"
         offset="1" />
      <stop
         id="stop3932-6"
         style="stop-color:#ffffff;stop-opacity:0"
         offset="1" />
    </linearGradient>
    <linearGradient
       inkscape:collect="always"
       xlink:href="#linearGradient1716"
       id="linearGradient1718"
       x1="196.63319"
       y1="330.93137"
       x2="196.63321"
       y2="309.85748"
       gradientUnits="userSpaceOnUse"
       gradientTransform="matrix(0.28571432,0,0,0.26078875,-11.119383,291.78713)" />
    <linearGradient
       gradientTransform="matrix(0.28571432,0,0,0.26078875,-11.119385,-391.92999)"
       inkscape:collect="always"
       xlink:href="#linearGradient1748"
       id="linearGradient1718-5"
       x1="196.63319"
       y1="330.93137"
       x2="196.63321"
       y2="309.85748"
       gradientUnits="userSpaceOnUse" />
  </defs>
  <sodipodi:namedview
     pagecolor="#ffffff"
     bordercolor="#666666"
     borderopacity="1"
     objecttolerance="10"
     gridtolerance="10"
     guidetolerance="10"
     inkscape:pageopacity="0"
     inkscape:pageshadow="2"
     inkscape:window-width="1366"
     inkscape:window-height="712"
     id="namedview20"
     showgrid="false"
     inkscape:zoom="16"
     inkscape:cx="12.765218"
     inkscape:cy="19.036951"
     inkscape:window-x="0"
     inkscape:window-y="25"
     inkscape:window-maximized="1"
     inkscape:current-layer="g882" />
  <g
     transform="matrix(1.4836578,0,0,1.4836578,-18.656975,-535.06763)"
     id="g921">
    <g
       id="g866"
       transform="matrix(0.91330589,0,0,0.90000569,2.4925618,35.52286)">
      <g
         transform="matrix(1.2710655,0,0,1.2761094,-1.8895507,-104.07869)"
         id="g887"
         style="stroke-width:0.09361701">
        <g
           id="g882"
           transform="matrix(0.09398591,0,0,0.09398591,10.705927,337.20349)"
           style="stroke-width:0.09361701">
          <rect
             height="74.906082"
             ry="5.354619"
             width="98.841492"
             x="-5.6829848"
             y="304.40549"
             id="rect7"
             style="opacity:1;fill:url(#linearGradient4558);fill-opacity:1;stroke:none;stroke-width:0.21940607;stroke-linecap:round;stroke-linejoin:round;stroke-miterlimit:4;stroke-dasharray:none;stroke-dashoffset:0;stroke-opacity:0.78431373;paint-order:normal"
             rx="5.8664007" />
          <g
             style="fill:#ffffff;stroke-width:0.09361701"
             id="g17"
             transform="matrix(2.0890281,0,0,1.9331601,-615.5607,-668.0535)">
            <path
               inkscape:connector-curvature="0"
               style="opacity:0.75;fill:#ffffff;fill-opacity:1;stroke-width:0.09361701"
               id="path9"
               d="m 294.90044,506.26511 v 1 4 h 1 v -4 h 4 v -1 z" />
            <path
               inkscape:connector-curvature="0"
               style="opacity:0.75;fill:#ffffff;fill-opacity:1;stroke-width:0.09361701"
               id="path11"
               d="m 294.90044,538.56511 h 1 4 v -1 h -4 v -4 h -1 z" />
            <path
               inkscape:connector-curvature="0"
               style="opacity:0.75;fill:#ffffff;fill-opacity:1;stroke-width:0.09361701"
               id="path13"
               d="m 336.2007,538.06511 v -1 -4 h -1 v 4 h -4 v 1 z" />
            <path
               inkscape:connector-curvature="0"
               style="opacity:0.75;fill:#ffffff;fill-opacity:1;stroke-width:0.09361701"
               id="path15"
               d="m 336.3007,506.56472 h -1 -4 v 1 h 4 v 4 h 1 z" />
          </g>
          <path
             inkscape:connector-curvature="0"
             style="opacity:0.75;fill:#ffffff;fill-opacity:1;stroke-width:0.26994702"
             id="path19"
             d="m 66.518072,330.57868 c -1.287132,-1.12552 -2.839638,-1.68841 -4.658805,-1.68841 h -5.765805 l -1.312367,-3.06194 c -0.326053,-0.73534 -0.922193,-1.36957 -1.789161,-1.90261 -0.866579,-0.53286 -1.754666,-0.7995 -2.66424,-0.7995 H 37.14847 c -0.909579,0 -1.797694,0.26678 -2.664311,0.7995 -0.866565,0.53304 -1.462765,1.16727 -1.788816,1.90261 l -1.312709,3.06194 h -5.7658 c -1.819176,0 -3.371976,0.56289 -4.659079,1.68841 -1.286803,1.12585 -1.930368,2.48409 -1.930368,4.07527 v 20.17319 c 0,1.59121 0.643565,2.94974 1.930368,4.075 1.287103,1.12582 2.839903,1.68872 4.659079,1.68872 H 61.85898 c 1.81912,0 3.371652,-0.5629 4.658786,-1.68872 1.28676,-1.12526 1.930368,-2.48379 1.930368,-4.075 v -20.17319 c 2.12e-4,-1.59118 -0.64326,-2.94942 -1.930062,-4.07527 z m -14.63349,21.28797 c -2.256387,1.97393 -4.971875,2.96076 -8.146667,2.96076 -3.174836,0 -5.889977,-0.98683 -8.146707,-2.96076 -2.256752,-1.97366 -3.384894,-4.34907 -3.384894,-7.12579 0,-2.777 1.12848,-5.15194 3.384894,-7.12584 2.256394,-1.97395 4.971871,-2.96076 8.146707,-2.96076 3.174792,0 5.88998,0.98708 8.146667,2.96076 2.25672,1.97362 3.384952,4.34884 3.384952,7.12584 0,2.77672 -1.12854,5.15185 -3.384952,7.12579 z m -8.146667,-13.61027 c -2.042199,0 -3.788069,0.63422 -5.238212,1.90266 -1.450145,1.26841 -2.175191,2.79547 -2.175191,4.58182 0,1.78623 0.725046,3.31333 2.175191,4.58176 1.450143,1.26815 3.196013,1.90238 5.238212,1.90238 2.041857,0 3.788065,-0.63423 5.238219,-1.90238 1.450101,-1.26843 2.175174,-2.79553 2.175174,-4.58176 0,-1.78635 -0.725073,-3.31341 -2.175174,-4.58182 -1.450154,-1.26844 -3.196362,-1.90266 -5.238219,-1.90266 z" />
          <rect
             height="73.31781"
             ry="5.2410812"
             width="97.10144"
             x="-4.8129539"
             y="305.19962"
             id="rect7-5"
             style="opacity:0.4;fill:none;fill-opacity:1;stroke:url(#linearGradient1718);stroke-width:1.66243505;stroke-linecap:round;stroke-linejoin:round;stroke-miterlimit:4;stroke-dasharray:none;stroke-dashoffset:0;stroke-opacity:1;paint-order:normal"
             rx="5.7631249" />
          <rect
             height="73.31781"
             ry="5.2410812"
             width="97.10144"
             x="-4.8129539"
             y="-378.51746"
             id="rect7-5-7"
             style="opacity:0.4;fill:none;fill-opacity:1;stroke:url(#linearGradient1718-5);stroke-width:1.66243505;stroke-linecap:round;stroke-linejoin:round;stroke-miterlimit:4;stroke-dasharray:none;stroke-dashoffset:0;stroke-opacity:1;paint-order:normal"
             rx="5.7631254"
             transform="scale(1,-1)" />
        </g>
      </g>
    </g>
  </g>
</svg>
