<?xml version="1.0" encoding="UTF-8" standalone="no"?>
<svg
   xmlns:dc="http://purl.org/dc/elements/1.1/"
   xmlns:cc="http://creativecommons.org/ns#"
   xmlns:rdf="http://www.w3.org/1999/02/22-rdf-syntax-ns#"
   xmlns:svg="http://www.w3.org/2000/svg"
   xmlns="http://www.w3.org/2000/svg"
   xmlns:xlink="http://www.w3.org/1999/xlink"
   xmlns:sodipodi="http://sodipodi.sourceforge.net/DTD/sodipodi-0.dtd"
   xmlns:inkscape="http://www.inkscape.org/namespaces/inkscape"
   width="16"
   height="16"
   version="1.1"
   viewBox="0 0 12 12"
   id="svg26"
   sodipodi:docname="ark.svg"
   inkscape:version="0.92.3 (2405546, 2018-03-11)">
  <metadata
     id="metadata32">
    <rdf:RDF>
      <cc:Work
         rdf:about="">
        <dc:format>image/svg+xml</dc:format>
        <dc:type
           rdf:resource="http://purl.org/dc/dcmitype/StillImage" />
        <dc:title></dc:title>
      </cc:Work>
    </rdf:RDF>
  </metadata>
  <defs
     id="defs30">
    <linearGradient
       inkscape:collect="always"
       id="linearGradient953">
      <stop
         style="stop-color:#000000;stop-opacity:1;"
         offset="0"
         id="stop949" />
      <stop
         style="stop-color:#000000;stop-opacity:0;"
         offset="1"
         id="stop951" />
    </linearGradient>
    <linearGradient
       inkscape:collect="always"
       id="linearGradient921">
      <stop
         style="stop-color:#ffffff;stop-opacity:1;"
         offset="0"
         id="stop917" />
      <stop
         style="stop-color:#ffffff;stop-opacity:0;"
         offset="1"
         id="stop919" />
    </linearGradient>
    <linearGradient
       inkscape:collect="always"
       xlink:href="#linearGradient1105"
       id="linearGradient1107"
       x1="194.61057"
       y1="16.483648"
       x2="198.72252"
       y2="365.54987"
       gradientUnits="userSpaceOnUse"
       gradientTransform="matrix(0.03613983,0,0,0.03556643,-0.94372634,-1.1262468)" />
    <linearGradient
       inkscape:collect="always"
       id="linearGradient1105">
      <stop
         style="stop-color:#58d46a;stop-opacity:1"
         offset="0"
         id="stop1101" />
      <stop
         style="stop-color:#38cc4e;stop-opacity:1"
         offset="1"
         id="stop1103" />
    </linearGradient>
    <linearGradient
       inkscape:collect="always"
       xlink:href="#linearGradient921"
       id="linearGradient923"
       x1="193.14771"
       y1="19.418005"
       x2="193.1534"
       y2="50.482765"
       gradientUnits="userSpaceOnUse"
       gradientTransform="matrix(0.03613983,0,0,0.03556643,-0.94372634,-1.126248)" />
    <linearGradient
       inkscape:collect="always"
       xlink:href="#linearGradient953"
       id="linearGradient955"
       x1="196.59933"
       y1="376.68417"
       x2="196.60503"
       y2="343.31833"
       gradientUnits="userSpaceOnUse"
       gradientTransform="matrix(0.03613983,0,0,0.03556643,-0.94372634,-1.3929958)" />
  </defs>
  <sodipodi:namedview
     pagecolor="#ffffff"
     bordercolor="#666666"
     borderopacity="1"
     objecttolerance="10"
     gridtolerance="10"
     guidetolerance="10"
     inkscape:pageopacity="0"
     inkscape:pageshadow="2"
     inkscape:window-width="1366"
     inkscape:window-height="704"
     id="namedview28"
     showgrid="false"
     inkscape:zoom="64"
     inkscape:cx="3.1435244"
     inkscape:cy="7.5533189"
     inkscape:window-x="0"
     inkscape:window-y="30"
     inkscape:window-maximized="1"
     inkscape:current-layer="svg26" />
  <rect
     style="opacity:1;fill:url(#linearGradient1107);fill-opacity:1;stroke:none;stroke-width:0.26888981;stroke-linecap:round;stroke-linejoin:round;stroke-miterlimit:4;stroke-dasharray:none;stroke-opacity:1;paint-order:stroke fill markers"
     id="rect837"
     width="10.417438"
     height="11.968703"
     x="0.78012985"
     y="0.021694783"
     rx="0.76904309"
     ry="0.75684166" />
  <path
     style="fill-opacity:0.66666697;fill-rule:evenodd;stroke-width:0.02372304"
     inkscape:connector-curvature="0"
     d="M 5.2046542,0.21508104 V 4.308356 h -0.00438 v 1.3402853 c -0.089981,0.8631561 1.6703285,0.8631561 1.5769605,0 V 4.985448 h 5.278e-4 V 0.21508104 H 5.2047341 Z"
     id="path11" />
  <g
     transform="matrix(0.26698268,0,0,0.26045093,-103.03179,-130.34844)"
     style="fill:#ffffff;stroke-width:0.08996344"
     id="g25">
    <rect
       rx="0.087458909"
       style="opacity:0.92900002;stroke-width:0.08996344"
       height="2.197578"
       ry="0.08822985"
       width="4.395155"
       x="406.2309"
       y="502.52133"
       id="rect13" />
    <rect
       rx="0.087458909"
       style="opacity:0.92900002;stroke-width:0.08996344"
       height="2.197578"
       ry="0.08822985"
       width="4.395155"
       x="406.22171"
       y="505.69974"
       id="rect15" />
    <rect
       rx="0.087458909"
       style="opacity:0.92900002;stroke-width:0.08996344"
       height="2.197578"
       ry="0.08822985"
       width="4.395155"
       x="406.19412"
       y="508.83987"
       id="rect17" />
    <rect
       rx="0.087458909"
       style="opacity:0.92900002;stroke-width:0.08996344"
       height="2.197578"
       ry="0.08822985"
       width="4.395155"
       x="406.24228"
       y="512.10864"
       id="rect19" />
    <rect
       rx="0.087458909"
       style="opacity:0.92900002;stroke-width:0.08996344"
       height="2.197578"
       ry="0.08822985"
       width="4.395155"
       x="406.24228"
       y="515.32019"
       id="rect21" />
    <rect
       rx="0.087458909"
       style="opacity:0.92900002;stroke-width:0.08996344"
       height="2.197578"
       ry="0.08822985"
       width="4.395155"
       x="406.24222"
       y="518.60736"
       id="rect23" />
  </g>
  <path
     style="fill-opacity:0.66666697;stroke-width:0.02372304"
     inkscape:connector-curvature="0"
     d="M 6.4441356,6.254808 V 5.893614 c 0,-0.1006316 -0.083362,-0.1822462 -0.1861457,-0.1822462 H 5.7408146 c -0.1027824,0 -0.1861638,0.081639 -0.1861638,0.1822462 v 0.361017 l -0.2876526,0.8274 c -0.080485,0.2306018 -0.041866,0.486809 0.1031517,0.6853738 0.1450274,0.1981995 0.3801818,0.3165747 0.6292423,0.3165747 0.2491062,0 0.484287,-0.1183752 0.6293069,-0.3165747 C 6.7737223,7.56884 6.8122908,7.3126328 6.7318301,7.0822133 Z M 6.3239902,7.5540042 c -0.1492244,0.2044698 -0.4999731,0.2044698 -0.649219,0 C 5.5999722,7.4515704 5.5800597,7.3194467 5.6213946,7.2003863 l 0.096542,-0.2775201 h 0.5628898 l 0.096564,0.2777016 c 0.041353,0.1188789 0.021412,0.2510026 -0.053399,0.3534364 z"
     id="path27" />
  <path
     style="fill:#f0f5f1;stroke-width:0.02372304"
     inkscape:connector-curvature="0"
     d="m 6.4441356,6.1321934 v -0.361194 c 0,-0.1006305 -0.083362,-0.1822462 -0.1861457,-0.1822462 H 5.7408146 c -0.1027824,0 -0.1861638,0.081636 -0.1861638,0.1822462 v 0.361017 L 5.2669982,6.959417 c -0.080485,0.2305978 -0.041866,0.4868089 0.1031517,0.6853698 0.1450274,0.1982035 0.3801818,0.3165787 0.6292423,0.3165787 0.2491062,0 0.484287,-0.1183752 0.6293069,-0.3165787 0.1450232,-0.1985609 0.1835917,-0.454772 0.103131,-0.6851923 z m -0.1201454,1.299192 c -0.1492244,0.2044697 -0.4999731,0.2044697 -0.649219,0 C 5.5999722,7.3289603 5.5800597,7.1968326 5.6213946,7.0777723 L 5.7179365,6.800253 h 0.5628898 l 0.096564,0.2777008 c 0.041353,0.1188788 0.021412,0.2510065 -0.053399,0.3534316 z"
     id="path31" />
  <rect
     style="opacity:0.4;fill:none;fill-opacity:1;stroke:url(#linearGradient923);stroke-width:0.26888981;stroke-linecap:round;stroke-linejoin:round;stroke-miterlimit:4;stroke-dasharray:none;stroke-opacity:1;paint-order:stroke fill markers"
     id="rect837-5"
     width="10.160218"
     height="11.71405"
     x="0.90873945"
     y="0.14902209"
     rx="0.62351131"
     ry="0.61361873" />
  <rect
     style="opacity:0.4;fill:none;fill-opacity:1;stroke:url(#linearGradient955);stroke-width:0.26888981;stroke-linecap:round;stroke-linejoin:round;stroke-miterlimit:4;stroke-dasharray:none;stroke-opacity:1;paint-order:stroke fill markers"
     id="rect837-5-2"
     width="10.160218"
     height="11.71405"
     x="0.90873945"
     y="0.13692768"
     rx="0.62351131"
     ry="0.61361873" />
</svg>
