<?xml version="1.0" encoding="UTF-8" standalone="no"?>
<svg
   xmlns:dc="http://purl.org/dc/elements/1.1/"
   xmlns:cc="http://creativecommons.org/ns#"
   xmlns:rdf="http://www.w3.org/1999/02/22-rdf-syntax-ns#"
   xmlns:svg="http://www.w3.org/2000/svg"
   xmlns="http://www.w3.org/2000/svg"
   xmlns:xlink="http://www.w3.org/1999/xlink"
   xmlns:sodipodi="http://sodipodi.sourceforge.net/DTD/sodipodi-0.dtd"
   xmlns:inkscape="http://www.inkscape.org/namespaces/inkscape"
   width="16"
   height="16"
   version="1"
   id="svg22"
   sodipodi:docname="cheese.svg"
   inkscape:version="0.92.4 5da689c313, 2019-01-14">
  <metadata
     id="metadata28">
    <rdf:RDF>
      <cc:Work
         rdf:about="">
        <dc:format>image/svg+xml</dc:format>
        <dc:type
           rdf:resource="http://purl.org/dc/dcmitype/StillImage" />
        <dc:title></dc:title>
      </cc:Work>
    </rdf:RDF>
  </metadata>
  <defs
     id="defs26">
    <linearGradient
       inkscape:collect="always"
       id="linearGradient839">
      <stop
         style="stop-color:#dcdcdc;stop-opacity:1;"
         offset="0"
         id="stop835" />
      <stop
         style="stop-color:#f0f0f0;stop-opacity:1"
         offset="1"
         id="stop837" />
    </linearGradient>
    <linearGradient
       inkscape:collect="always"
       xlink:href="#linearGradient839"
       id="linearGradient841"
       x1="32.033897"
       y1="52.610168"
       x2="34.949154"
       y2="11.118644"
       gradientUnits="userSpaceOnUse"
       gradientTransform="matrix(0.30769231,0,0,0.33333339,-1.8461539,-2.3333337)" />
    <linearGradient
       inkscape:collect="always"
       xlink:href="#linearGradient839"
       id="linearGradient1135"
       gradientUnits="userSpaceOnUse"
       gradientTransform="matrix(0.30769231,0,0,0.33333339,-1.8461539,-2.3333337)"
       x1="32.033897"
       y1="52.610168"
       x2="34.949154"
       y2="11.118644" />
  </defs>
  <sodipodi:namedview
     pagecolor="#ffffff"
     bordercolor="#666666"
     borderopacity="1"
     objecttolerance="10"
     gridtolerance="10"
     guidetolerance="10"
     inkscape:pageopacity="0"
     inkscape:pageshadow="2"
     inkscape:window-width="1366"
     inkscape:window-height="712"
     id="namedview24"
     showgrid="false"
     inkscape:zoom="5.2149125"
     inkscape:cx="11.302023"
     inkscape:cy="36.195046"
     inkscape:window-x="0"
     inkscape:window-y="25"
     inkscape:window-maximized="1"
     inkscape:current-layer="svg22" />
  <rect
     style="fill:#4f4f4f;stroke-width:0.32025632"
     width="2.4615386"
     height="2.6666667"
     x="1.2307694"
     y="1"
     rx="0.61538464"
     ry="0.66666669"
     id="rect4" />
  <rect
     style="fill:url(#linearGradient1135);fill-opacity:1;stroke-width:0.32025632"
     width="16"
     height="13.333333"
     x="0"
     y="1.666666"
     rx="0.76923078"
     ry="0.83333331"
     id="rect6" />
  <ellipse
     style="opacity:0.4;stroke-width:0.32025632"
     cx="14.153845"
     cy="3.666667"
     id="circle8"
     rx="0.61538464"
     ry="0.66666669" />
  <ellipse
     style="opacity:0.4;stroke-width:0.32025632"
     cx="8"
     cy="8.333333"
     id="circle10"
     rx="4.9230771"
     ry="5.3333335" />
  <ellipse
     style="opacity:0.2;stroke-width:0.32025632"
     cx="8"
     cy="-8.666666"
     transform="scale(1,-1)"
     id="circle12"
     rx="3.6923077"
     ry="3.9999998" />
  <ellipse
     style="fill:#8a00c6;fill-opacity:1;stroke-width:0.32025632"
     cx="8"
     cy="-8.333333"
     transform="scale(1,-1)"
     id="circle14"
     rx="3.6923077"
     ry="3.9999998" />
  <ellipse
     style="opacity:0.2;stroke-width:0.32025632"
     cx="8"
     cy="8.666666"
     id="circle16"
     rx="2.4615386"
     ry="2.6666667" />
  <ellipse
     style="fill:#ffffff;fill-opacity:0.39215686;stroke-width:0.32025632"
     cx="8"
     cy="8.333333"
     id="circle18"
     rx="2.4615386"
     ry="2.6666667" />
  <path
     style="opacity:0.4;fill:#ffffff;stroke-width:0.32025632"
     d="M 0.7692307,1.6666658 C 0.3430769,1.6666658 0,2.038333 0,2.5000003 V 2.8333332 C 0,2.371666 0.3430769,1.9999994 0.7692307,1.9999994 H 15.230769 C 15.655385,1.9999994 16,2.371666 16,2.8333332 V 2.5000003 C 16,2.038333 15.655385,1.6666658 15.230769,1.6666658 Z"
     id="path20"
     inkscape:connector-curvature="0" />
  <path
     inkscape:connector-curvature="0"
     style="opacity:0.2;fill:#000000;fill-opacity:1;stroke-width:0.32025632"
     d="M 0.7692307,15 C 0.3430769,15 0,14.628333 0,14.166667 V 13.833334 C 0,14.295 0.3430769,14.666666 0.7692307,14.666666 H 15.230769 C 15.655385,14.666666 16,14.295 16,13.833334 v 0.333333 C 16,14.628333 15.655385,15 15.230769,15 Z"
     id="path20-3" />
  <rect
     id="rect1115"
     ry="0.66666669"
     rx="0.61538464"
     y="1"
     x="1.2307694"
     height="2.6666667"
     width="2.4615386"
     style="fill:#4f4f4f;stroke-width:0.32025632" />
  <rect
     id="rect1117"
     ry="0.83333331"
     rx="0.76923078"
     y="1.666666"
     x="0"
     height="13.333333"
     width="16"
     style="fill:url(#linearGradient841);fill-opacity:1;stroke-width:0.32025632" />
  <ellipse
     ry="0.66666669"
     rx="0.61538464"
     id="ellipse1119"
     cy="3.666667"
     cx="14.153845"
     style="opacity:0.4;stroke-width:0.32025632" />
  <ellipse
     ry="5.3333335"
     rx="4.9230771"
     id="ellipse1121"
     cy="8.333333"
     cx="8"
     style="opacity:0.4;stroke-width:0.32025632" />
  <ellipse
     ry="3.9999998"
     rx="3.6923077"
     id="ellipse1123"
     transform="scale(1,-1)"
     cy="-8.666666"
     cx="8"
     style="opacity:0.2;stroke-width:0.32025632" />
  <ellipse
     ry="3.9999998"
     rx="3.6923077"
     id="ellipse1125"
     transform="scale(1,-1)"
     cy="-8.333333"
     cx="8"
     style="fill:#8a00c6;fill-opacity:1;stroke-width:0.32025632" />
  <ellipse
     ry="2.6666667"
     rx="2.4615386"
     id="ellipse1127"
     cy="8.666666"
     cx="8"
     style="opacity:0.2;stroke-width:0.32025632" />
  <ellipse
     ry="2.6666667"
     rx="2.4615386"
     id="ellipse1129"
     cy="8.333333"
     cx="8"
     style="fill:#ffffff;fill-opacity:0.39215686;stroke-width:0.32025632" />
  <path
     inkscape:connector-curvature="0"
     id="path1131"
     d="M 0.7692307,1.6666658 C 0.3430769,1.6666658 0,2.038333 0,2.5000003 V 2.8333332 C 0,2.371666 0.3430769,1.9999994 0.7692307,1.9999994 H 15.230769 C 15.655385,1.9999994 16,2.371666 16,2.8333332 V 2.5000003 C 16,2.038333 15.655385,1.6666658 15.230769,1.6666658 Z"
     style="opacity:0.4;fill:#ffffff;stroke-width:0.32025632" />
  <path
     id="path1133"
     d="M 0.7692307,15 C 0.3430769,15 0,14.628333 0,14.166667 V 13.833334 C 0,14.295 0.3430769,14.666666 0.7692307,14.666666 H 15.230769 C 15.655385,14.666666 16,14.295 16,13.833334 v 0.333333 C 16,14.628333 15.655385,15 15.230769,15 Z"
     style="opacity:0.2;fill:#000000;fill-opacity:1;stroke-width:0.32025632"
     inkscape:connector-curvature="0" />
</svg>
