<?xml version="1.0" encoding="UTF-8" standalone="no"?>
<svg
   xmlns:dc="http://purl.org/dc/elements/1.1/"
   xmlns:cc="http://creativecommons.org/ns#"
   xmlns:rdf="http://www.w3.org/1999/02/22-rdf-syntax-ns#"
   xmlns:svg="http://www.w3.org/2000/svg"
   xmlns="http://www.w3.org/2000/svg"
   xmlns:xlink="http://www.w3.org/1999/xlink"
   xmlns:sodipodi="http://sodipodi.sourceforge.net/DTD/sodipodi-0.dtd"
   xmlns:inkscape="http://www.inkscape.org/namespaces/inkscape"
   width="16"
   height="16"
   version="1"
   id="svg12"
   sodipodi:docname="ciano.svg"
   inkscape:version="0.92.4 5da689c313, 2019-01-14">
  <metadata
     id="metadata18">
    <rdf:RDF>
      <cc:Work
         rdf:about="">
        <dc:format>image/svg+xml</dc:format>
        <dc:type
           rdf:resource="http://purl.org/dc/dcmitype/StillImage" />
        <dc:title></dc:title>
      </cc:Work>
    </rdf:RDF>
  </metadata>
  <defs
     id="defs16">
    <linearGradient
       inkscape:collect="always"
       id="linearGradient840">
      <stop
         style="stop-color:#1b9dce;stop-opacity:1;"
         offset="0"
         id="stop836" />
      <stop
         style="stop-color:#27afe3;stop-opacity:1"
         offset="1"
         id="stop838" />
    </linearGradient>
    <linearGradient
       inkscape:collect="always"
       xlink:href="#linearGradient840"
       id="linearGradient842"
       x1="-58"
       y1="-32"
       x2="-6"
       y2="-32"
       gradientUnits="userSpaceOnUse"
       gradientTransform="matrix(0.30769231,0,0,0.30769231,1.8461536,1.8461539)" />
  </defs>
  <sodipodi:namedview
     pagecolor="#ffffff"
     bordercolor="#666666"
     borderopacity="1"
     objecttolerance="10"
     gridtolerance="10"
     guidetolerance="10"
     inkscape:pageopacity="0"
     inkscape:pageshadow="2"
     inkscape:window-width="1366"
     inkscape:window-height="714"
     id="namedview14"
     showgrid="false"
     inkscape:zoom="3.6875"
     inkscape:cx="0.35670976"
     inkscape:cy="32.196199"
     inkscape:window-x="0"
     inkscape:window-y="19"
     inkscape:window-maximized="1"
     inkscape:current-layer="svg12" />
  <rect
     style="fill:url(#linearGradient842);fill-opacity:1;stroke-width:0.30769232"
     width="16"
     height="16"
     x="-16"
     y="-16"
     rx="8"
     ry="8"
     transform="matrix(0,-1,-1,0,0,0)"
     id="rect2" />
  <path
     style="opacity:0.4;fill:#ffffff;stroke-width:0.30769232"
     d="M 8,0 C 3.5680686,0 0,3.5680684 0,8 0,8.034128 0.003568,8.06732 0.005408,8.1009616 0.1146741,3.7656504 3.6374206,0.3076924 8,0.3076924 c 4.362579,0 7.885326,3.457958 7.994591,7.7932692 C 15.996414,8.0673208 16,8.0341288 16,8 16,3.5680684 12.431931,0 8,0 Z"
     id="path4"
     inkscape:connector-curvature="0" />
  <path
     style="opacity:0.2;stroke-width:0.30769232"
     d="M 8.000601,2.7689676 C 7.4830296,2.7636156 6.9690608,2.8402236 6.469952,2.9769004 4.1458057,3.6003464 2.4449044,5.9006457 2.4801684,8.3080304 H 1.2307691 c 0.6369118,0.936512 1.8461541,2.7686296 1.8461541,2.7686296 0,0 1.8461534,-2.769524 1.8461534,-2.7698312 H 3.717548 C 3.7130909,7.2986432 4.0915011,6.2848046 4.7626206,5.5321886 6.023992,4.0156352 8.308086,3.3843216 10.064904,4.6728137 10.621825,5.4017983 11.836473,4.5746017 11.209735,3.8537036 10.286601,3.1347924 9.16609,2.7714292 8.000601,2.7689676 Z m 4.922476,2.7692307 c 0,0 -1.846154,2.7689233 -1.846154,2.7692305 h 1.205529 c 0.0045,1.0081848 -0.373953,2.0226252 -1.045073,2.7752412 -1.261371,1.516553 -3.5454646,2.147867 -5.302283,0.859375 -0.5569206,-0.728985 -1.7715686,0.09821 -1.1448314,0.81911 0.9231348,0.718911 2.0436458,1.082274 3.2091346,1.084736 0.5175708,0.0054 1.0315398,-0.07126 1.5306488,-0.207933 2.324146,-0.623446 4.025047,-2.923745 3.989783,-5.3311292 h 1.2494 C 14.132319,7.3703168 12.923077,5.5381983 12.923077,5.5381983 Z"
     id="path8"
     inkscape:connector-curvature="0" />
  <path
     style="fill:#ffffff;fill-opacity:1;stroke-width:0.30769232"
     d="M 8.000601,2.4615384 C 7.4830296,2.4561864 6.9690608,2.5327944 6.469952,2.6694712 4.1458057,3.2929172 2.4449044,5.5932166 2.4801684,8.0006008 H 1.2307691 c 0.6369118,0.936512 1.8461541,2.7686302 1.8461541,2.7686302 0,0 1.8461534,-2.7695238 1.8461534,-2.7698318 H 3.717548 C 3.7130909,6.9912144 4.0915011,5.9773754 4.7626206,5.2247594 6.023992,3.7082056 8.308086,3.0768924 10.064904,4.3653844 10.621825,5.0943691 11.836473,4.2671724 11.209735,3.5462744 10.286601,2.8273636 9.16609,2.464 8.000601,2.4615384 Z m 4.922476,2.7692307 c 0,0 -1.846154,2.7689237 -1.846154,2.7692309 h 1.205529 c 0.0045,1.0081848 -0.373953,2.022625 -1.045073,2.775241 -1.261371,1.516553 -3.5454646,2.147866 -5.302283,0.859374 -0.5569206,-0.728984 -1.7715686,0.09821 -1.1448314,0.819111 0.9231348,0.718911 2.0436458,1.082274 3.2091346,1.084736 0.5175708,0.0054 1.0315398,-0.07126 1.5306488,-0.207933 2.324146,-0.623446 4.025047,-2.923746 3.989783,-5.3311298 h 1.2494 C 14.132319,7.0628872 12.923077,5.2307691 12.923077,5.2307691 Z"
     id="path10"
     inkscape:connector-curvature="0" />
  <path
     style="opacity:0.4;stroke-width:0.30769232"
     d="M 0.0054086,7.8990384 C 0.0035707,7.9326792 0,7.9658712 0,8 c 0,4.431932 3.5680006,8 8,8 4.432,0 8,-3.568068 8,-8 0,-0.034128 -0.0036,-0.06732 -0.0054,-0.1009616 -0.109246,4.3353116 -3.631924,7.7932686 -7.994571,7.7932686 -4.3626465,0 -7.8853245,-3.457957 -7.9945916,-7.7932686 z"
     id="path6"
     inkscape:connector-curvature="0" />
</svg>
