<?xml version="1.0" encoding="UTF-8" standalone="no"?>
<svg
   xmlns:dc="http://purl.org/dc/elements/1.1/"
   xmlns:cc="http://creativecommons.org/ns#"
   xmlns:rdf="http://www.w3.org/1999/02/22-rdf-syntax-ns#"
   xmlns:svg="http://www.w3.org/2000/svg"
   xmlns="http://www.w3.org/2000/svg"
   xmlns:xlink="http://www.w3.org/1999/xlink"
   xmlns:sodipodi="http://sodipodi.sourceforge.net/DTD/sodipodi-0.dtd"
   xmlns:inkscape="http://www.inkscape.org/namespaces/inkscape"
   width="16"
   height="16"
   version="1"
   id="svg24"
   sodipodi:docname="color-picker.svg"
   inkscape:version="0.92.4 5da689c313, 2019-01-14">
  <metadata
     id="metadata30">
    <rdf:RDF>
      <cc:Work
         rdf:about="">
        <dc:format>image/svg+xml</dc:format>
        <dc:type
           rdf:resource="http://purl.org/dc/dcmitype/StillImage" />
        <dc:title></dc:title>
      </cc:Work>
    </rdf:RDF>
  </metadata>
  <defs
     id="defs28">
    <linearGradient
       inkscape:collect="always"
       id="linearGradient949">
      <stop
         style="stop-color:#dcdcdc;stop-opacity:1;"
         offset="0"
         id="stop945" />
      <stop
         style="stop-color:#f0f0f0;stop-opacity:1"
         offset="1"
         id="stop947" />
    </linearGradient>
    <linearGradient
       id="linearGradient924"
       inkscape:collect="always">
      <stop
         id="stop920"
         offset="0"
         style="stop-color:#ffffff;stop-opacity:1" />
      <stop
         id="stop922"
         offset="1"
         style="stop-color:#ffffff;stop-opacity:0" />
    </linearGradient>
    <linearGradient
       inkscape:collect="always"
       id="linearGradient892">
      <stop
         style="stop-color:#000000;stop-opacity:1;"
         offset="0"
         id="stop888" />
      <stop
         style="stop-color:#000000;stop-opacity:0;"
         offset="1"
         id="stop890" />
    </linearGradient>
    <linearGradient
       inkscape:collect="always"
       xlink:href="#linearGradient892"
       id="linearGradient894"
       x1="32.991562"
       y1="58.576271"
       x2="32"
       y2="32"
       gradientUnits="userSpaceOnUse"
       gradientTransform="matrix(0.28543222,0,0,0.2857128,-1.1338311,-1.1428093)" />
    <linearGradient
       inkscape:collect="always"
       xlink:href="#linearGradient924"
       id="linearGradient894-4"
       x1="32.025299"
       y1="4.506299"
       x2="33.898304"
       y2="19.79661"
       gradientUnits="userSpaceOnUse"
       gradientTransform="matrix(0.28543222,0,0,0.2857128,-1.1338311,-1.1428093)" />
    <linearGradient
       inkscape:collect="always"
       xlink:href="#linearGradient949"
       id="linearGradient951"
       x1="22.684195"
       y1="58.033897"
       x2="57.858177"
       y2="6.7796612"
       gradientUnits="userSpaceOnUse"
       gradientTransform="matrix(0.28543222,0,0,0.2857128,-1.1338311,-1.1428093)" />
  </defs>
  <sodipodi:namedview
     pagecolor="#ffffff"
     bordercolor="#666666"
     borderopacity="1"
     objecttolerance="10"
     gridtolerance="10"
     guidetolerance="10"
     inkscape:pageopacity="0"
     inkscape:pageshadow="2"
     inkscape:window-width="1366"
     inkscape:window-height="714"
     id="namedview26"
     showgrid="false"
     inkscape:zoom="14.75"
     inkscape:cx="7.6468168"
     inkscape:cy="13.753017"
     inkscape:window-x="0"
     inkscape:window-y="19"
     inkscape:window-maximized="1"
     inkscape:current-layer="svg24" />
  <path
     style="fill:url(#linearGradient951);fill-opacity:1;stroke-width:0.49975181"
     d="M 8.0078982,4.7699579e-8 C 0.88719974,4.7699579e-8 -2.6775684,8.6170632 2.3569151,13.656495 4.6426282,15.944455 8.0800083,16.629068 11.066389,15.390901 14.052776,14.15273 16,11.235636 16,7.9999584 V 1.9999897 C 16,0.89199555 15.108881,4.7699579e-8 14.001975,4.7699579e-8 Z"
     id="path20"
     inkscape:connector-curvature="0"
     sodipodi:nodetypes="sssssss" />
  <g
     id="g871"
     transform="matrix(0.20388017,0,0,0.20408058,1.4758349,1.4694217)">
    <circle
       id="circle2"
       r="27"
       cy="32"
       cx="32"
       style="fill:#f57c00" />
    <path
       id="path6"
       d="M 31.999998,32 59.075266,24.751346 A 28.028228,28.010254 0 0 0 39.245296,4.9781078 Z"
       style="fill:#1e88e5"
       inkscape:connector-curvature="0" />
    <path
       id="path8"
       d="M 31.999998,32 51.81996,51.80725 a 28.028228,28.010254 0 0 0 7.21927,-27.0479 z"
       style="fill:#43a047"
       inkscape:connector-curvature="0" />
    <path
       id="path10"
       d="M 31.999998,32 24.744692,59.055904 A 28.028228,28.010254 0 0 0 51.793934,51.781242 Z"
       style="fill:#fbc02d"
       inkscape:connector-curvature="0" />
    <path
       id="path12"
       d="M 31.999998,32 4.9247324,39.248654 A 28.028228,28.010254 0 0 0 24.754702,59.021892 Z"
       style="fill:#f57c00"
       inkscape:connector-curvature="0" />
    <path
       id="path14"
       d="M 31.999998,32 12.180039,12.192749 A 28.028228,28.010254 0 0 0 4.9607686,39.24065 Z"
       style="fill:#e53935"
       inkscape:connector-curvature="0" />
    <path
       id="path16"
       d="M 31.999998,32 39.255306,4.9440954 A 28.028228,28.010254 0 0 0 12.206065,12.218759 Z"
       style="fill:#8e24aa"
       inkscape:connector-curvature="0" />
  </g>
  <path
     style="opacity:0.4;fill:none;fill-opacity:1;stroke:url(#linearGradient894);stroke-width:0.28916988;stroke-miterlimit:4;stroke-dasharray:none;stroke-opacity:1"
     d="m 8.0072218,0.14469815 c -6.9919637,0 -10.4922844,8.46127545 -5.5488195,13.40959985 2.2443901,2.246596 5.6196259,2.918832 8.5520167,1.703049 2.932395,-1.215785 4.844417,-4.080141 4.844417,-7.2573222 V 2.1085297 c 0,-1.0879628 -0.87501,-1.96383155 -1.961905,-1.96383155 z"
     id="path20-7"
     inkscape:connector-curvature="0"
     sodipodi:nodetypes="sssssss" />
  <path
     style="opacity:0.8;fill:none;fill-opacity:1;stroke:url(#linearGradient894-4);stroke-width:0.28916988;stroke-miterlimit:4;stroke-dasharray:none;stroke-opacity:1"
     d="m 8.0072218,0.14469815 c -6.9919638,0 -10.4922844,8.46127545 -5.5488195,13.40959985 2.2443901,2.246596 5.6196259,2.918832 8.5520167,1.703049 2.932395,-1.215785 4.844417,-4.080141 4.844417,-7.2573222 V 2.1085297 c 0,-1.0879629 -0.87501,-1.96383155 -1.961905,-1.96383155 z"
     id="path20-7-2"
     inkscape:connector-curvature="0"
     sodipodi:nodetypes="sssssss" />
</svg>
