<?xml version="1.0" encoding="UTF-8" standalone="no"?>
<svg
   xmlns:dc="http://purl.org/dc/elements/1.1/"
   xmlns:cc="http://creativecommons.org/ns#"
   xmlns:rdf="http://www.w3.org/1999/02/22-rdf-syntax-ns#"
   xmlns:svg="http://www.w3.org/2000/svg"
   xmlns="http://www.w3.org/2000/svg"
   xmlns:xlink="http://www.w3.org/1999/xlink"
   xmlns:sodipodi="http://sodipodi.sourceforge.net/DTD/sodipodi-0.dtd"
   xmlns:inkscape="http://www.inkscape.org/namespaces/inkscape"
   id="Capa_1"
   data-name="Capa 1"
   viewBox="0 0 16 16"
   version="1.1"
   sodipodi:docname="com.github.calo001.fondo.svg"
   width="16"
   height="16"
   inkscape:version="0.92.3 (2405546, 2018-03-11)">
  <metadata
     id="metadata66">
    <rdf:RDF>
      <cc:Work
         rdf:about="">
        <dc:format>image/svg+xml</dc:format>
        <dc:type
           rdf:resource="http://purl.org/dc/dcmitype/StillImage" />
        <dc:title>com.github.calo001.fondo48</dc:title>
      </cc:Work>
    </rdf:RDF>
  </metadata>
  <sodipodi:namedview
     pagecolor="#ffffff"
     bordercolor="#666666"
     borderopacity="1"
     objecttolerance="10"
     gridtolerance="10"
     guidetolerance="10"
     inkscape:pageopacity="0"
     inkscape:pageshadow="2"
     inkscape:window-width="1366"
     inkscape:window-height="704"
     id="namedview64"
     showgrid="false"
     inkscape:zoom="13.500205"
     inkscape:cx="16.037992"
     inkscape:cy="15.267826"
     inkscape:window-x="0"
     inkscape:window-y="30"
     inkscape:window-maximized="1"
     inkscape:current-layer="Capa_1" />
  <defs
     id="defs32">
    <linearGradient
       inkscape:collect="always"
       id="linearGradient856">
      <stop
         style="stop-color:#000000;stop-opacity:1;"
         offset="0"
         id="stop852" />
      <stop
         style="stop-color:#000000;stop-opacity:0;"
         offset="1"
         id="stop854" />
    </linearGradient>
    <linearGradient
       inkscape:collect="always"
       id="linearGradient866">
      <stop
         style="stop-color:#ffffff;stop-opacity:1;"
         offset="0"
         id="stop862" />
      <stop
         style="stop-color:#ffffff;stop-opacity:0;"
         offset="1"
         id="stop864" />
    </linearGradient>
    <linearGradient
       inkscape:collect="always"
       id="linearGradient883">
      <stop
         style="stop-color:#ffffff;stop-opacity:1;"
         offset="0"
         id="stop879" />
      <stop
         style="stop-color:#ffffff;stop-opacity:0;"
         offset="1"
         id="stop881" />
    </linearGradient>
    <radialGradient
       id="Degradado_sin_nombre_21"
       cx="425.5"
       cy="-907.90997"
       r="26.559999"
       gradientTransform="matrix(0.69,0,0,-0.22,-267.7,-153.98)"
       gradientUnits="userSpaceOnUse">
      <stop
         offset="0"
         stop-color="#686868"
         stop-opacity="0.5"
         id="stop2" />
      <stop
         offset="1"
         stop-color="#686868"
         stop-opacity="0"
         id="stop4" />
    </radialGradient>
    <linearGradient
       id="Degradado_sin_nombre_100"
       x1="24"
       y1="45.049999"
       x2="24"
       y2="1.05"
       gradientUnits="userSpaceOnUse">
      <stop
         offset="0"
         stop-color="#0e141f"
         id="stop7" />
      <stop
         offset="1"
         stop-color="#273445"
         id="stop9"
         style="stop-color:#3d516b;stop-opacity:1" />
    </linearGradient>
    <linearGradient
       id="Degradado_sin_nombre_3"
       x1="-574.4519"
       y1="360.33655"
       x2="-574.59918"
       y2="357.86453"
       gradientTransform="matrix(4.16,0,0,-4.16,2413.72,1500.05)"
       gradientUnits="userSpaceOnUse">
      <stop
         offset="0"
         stop-color="#fff"
         id="stop12" />
      <stop
         offset="1"
         stop-color="#fff"
         stop-opacity="0.39"
         id="stop18" />
    </linearGradient>
    <radialGradient
       id="Degradado_sin_nombre_80"
       cx="40.290001"
       cy="19.15"
       r="12.69"
       gradientTransform="matrix(9.261797,0,0,9.3794641,-115.98091,69.175236)"
       gradientUnits="userSpaceOnUse">
      <stop
         offset="0.51"
         stop-color="#fafafa"
         id="stop21" />
      <stop
         offset="1"
         stop-color="#d4d4d4"
         id="stop23" />
    </radialGradient>
    <linearGradient
       id="Degradado_sin_nombre_56"
       x1="26.24"
       y1="25.24"
       x2="21.76"
       y2="20.76"
       gradientUnits="userSpaceOnUse">
      <stop
         offset="0"
         stop-color="#3689e6"
         id="stop26" />
      <stop
         offset="1"
         stop-color="#68b723"
         id="stop28" />
    </linearGradient>
    <linearGradient
       id="Degradado_sin_nombre_56-2"
       x1="25.940001"
       y1="24.940001"
       x2="22.059999"
       y2="21.059999"
       xlink:href="#Degradado_sin_nombre_56"
       gradientTransform="matrix(0.34271224,0,0,0.34706624,-0.22509279,0.05151688)" />
    <linearGradient
       inkscape:collect="always"
       xlink:href="#Degradado_sin_nombre_56"
       id="linearGradient873"
       gradientUnits="userSpaceOnUse"
       x1="26.24"
       y1="25.24"
       x2="21.76"
       y2="20.76"
       gradientTransform="matrix(0.34271224,0,0,0.34706624,-0.22509279,0.05151688)" />
    <linearGradient
       inkscape:collect="always"
       xlink:href="#linearGradient883"
       id="linearGradient885"
       x1="253.29277"
       y1="35.55891"
       x2="256.9295"
       y2="136.29813"
       gradientUnits="userSpaceOnUse"
       gradientTransform="matrix(0.03404255,0,0,0.03404255,-0.71489352,-0.68085269)" />
    <linearGradient
       inkscape:collect="always"
       xlink:href="#linearGradient866"
       id="linearGradient868"
       x1="255.65112"
       y1="38.109673"
       x2="255.78246"
       y2="120.13589"
       gradientUnits="userSpaceOnUse"
       gradientTransform="matrix(0.03404255,0,0,0.03404255,-0.71489352,-0.68085269)" />
    <linearGradient
       inkscape:collect="always"
       xlink:href="#linearGradient856"
       id="linearGradient858"
       x1="252.10759"
       y1="481.55209"
       x2="253.96657"
       y2="402.1459"
       gradientUnits="userSpaceOnUse"
       gradientTransform="matrix(0.03404255,0,0,0.03404255,-0.71489352,-0.68085269)" />
  </defs>
  <title
     id="title34">com.github.calo001.fondo48</title>
  <g
     id="g4178"
     transform="matrix(0.36363636,0,0,0.36363636,-0.72727264,-0.34777629)">
    <path
       id="path4176"
       d="m 24,1.05 a 22,22 0 1 1 -22,22 22,22 0 0 1 22,-22 z"
       style="fill:url(#Degradado_sin_nombre_100)"
       inkscape:connector-curvature="0" />
    <path
       id="path2555-7-65-3"
       d="m 24,1.05 a 22,22 0 1 1 -22,22 22,22 0 0 1 22,-22 z"
       style="opacity:0.5;isolation:isolate;fill:none;stroke:none"
       inkscape:connector-curvature="0" />
    <path
       id="path3019"
       d="M 45.58,23.05 A 21.58,21.58 0 1 1 24,1.47 21.58,21.58 0 0 1 45.58,23.05 Z"
       style="opacity:0.3;isolation:isolate;fill:none;stroke:none;stroke-linecap:round;stroke-linejoin:round"
       inkscape:connector-curvature="0" />
  </g>
  <path
     d="M 10.272183,3.9976607 H 5.7278184 A 1.7135611,1.7353311 0 0 0 4.014257,5.7329911 V 10.33509 a 1.7135611,1.7353311 0 0 0 1.7135614,1.73533 h 4.5443646 a 1.7135611,1.7353311 0 0 0 1.71356,-1.73533 V 5.7329911 A 1.7135611,1.7353311 0 0 0 10.272183,3.9976607 Z M 7.9691561,10.210145 A 2.1522327,2.1795759 0 1 1 10.121389,8.0340406 2.1522327,2.1795759 0 0 1 7.9691561,10.210145 Z"
     style="fill:#fafafa;fill-opacity:1;stroke-width:0.34488234"
     id="path43"
     inkscape:connector-curvature="0" />
  <g
     style="opacity:0.6"
     id="g47"
     transform="matrix(0.34271223,0,0,0.34706623,-0.22509295,0.05151889)">
    <path
       d="M 30.63,11.37 H 17.37 a 5,5 0 0 0 -5,5 v 13.26 a 5,5 0 0 0 5,5 h 13.26 a 5,5 0 0 0 5,-5 V 16.37 a 5,5 0 0 0 -5,-5 z m -6.72,17.9 A 6.28,6.28 0 1 1 30.19,23 6.28,6.28 0 0 1 23.91,29.27 Z"
       style="fill:none;stroke:#000000;stroke-miterlimit:10"
       id="path45"
       inkscape:connector-curvature="0" />
  </g>
  <ellipse
     cx="8"
     cy="8.0340405"
     style="fill:url(#linearGradient873);stroke-width:0.34488234"
     id="circle55"
     rx="1.0863976"
     ry="1.1001999" />
  <ellipse
     cx="8"
     cy="8.0340405"
     style="opacity:0.4;fill:none;stroke:#000000;stroke-width:0.34488234;stroke-miterlimit:10"
     id="circle57"
     rx="1.0863976"
     ry="1.1001999" />
  <path
     d="M 10.196786,4.1295451 H 5.803215 A 1.6655814,1.6867419 0 0 0 4.1444879,5.8093482 v 4.4493888 a 1.6655814,1.6867419 0 0 0 1.6587271,1.679799 h 4.393571 a 1.6655814,1.6867419 0 0 0 1.658727,-1.679799 V 5.8093482 A 1.6655814,1.6867419 0 0 0 10.196786,4.1295451 Z M 7.9691561,10.317738 A 2.2619007,2.2906371 0 1 1 10.22763,8.0340406 2.2584736,2.2871664 0 0 1 7.9691561,10.317738 Z"
     style="fill:none;stroke:#ffffff;stroke-width:0.34488234;stroke-miterlimit:10;stroke-opacity:0.6"
     id="path59"
     inkscape:connector-curvature="0" />
  <ellipse
     cx="8"
     cy="8.0340405"
     style="fill:url(#Degradado_sin_nombre_56-2);stroke:#ffffff;stroke-width:0.34488234;stroke-miterlimit:10;stroke-opacity:0.1"
     id="circle61"
     rx="0.94245857"
     ry="0.95443219" />
  <circle
     style="opacity:0.4;fill:none;fill-opacity:1;fill-rule:evenodd;stroke:url(#linearGradient885);stroke-width:0.35091799;stroke-linejoin:round;stroke-miterlimit:4;stroke-dasharray:none;stroke-opacity:0.38823529;paint-order:fill markers stroke"
     id="path877"
     cx="8"
     cy="8.0340424"
     r="0" />
  <circle
     style="opacity:0.4;fill:none;fill-opacity:1;fill-rule:evenodd;stroke:#000000;stroke-width:0.35091799;stroke-linejoin:round;stroke-miterlimit:4;stroke-dasharray:none;stroke-opacity:1;paint-order:fill markers stroke"
     id="path877-0"
     cx="8"
     cy="8.0340424"
     r="0" />
  <circle
     style="opacity:0.4;fill:none;fill-opacity:1;fill-rule:evenodd;stroke:url(#linearGradient868);stroke-width:0.35101718;stroke-linejoin:round;stroke-miterlimit:4;stroke-dasharray:none;stroke-opacity:1;paint-order:fill markers stroke"
     id="path937-5"
     cx="8"
     cy="8.0340424"
     r="7.824491" />
  <circle
     style="opacity:0.4;fill:none;fill-opacity:1;fill-rule:evenodd;stroke:url(#linearGradient858);stroke-width:0.35101718;stroke-linejoin:round;stroke-miterlimit:4;stroke-dasharray:none;stroke-opacity:1;paint-order:fill markers stroke"
     id="path937"
     cx="8"
     cy="7.9659576"
     r="7.824491" />
</svg>
