<?xml version="1.0" encoding="UTF-8" standalone="no"?>
<svg
   xmlns:dc="http://purl.org/dc/elements/1.1/"
   xmlns:cc="http://creativecommons.org/ns#"
   xmlns:rdf="http://www.w3.org/1999/02/22-rdf-syntax-ns#"
   xmlns:svg="http://www.w3.org/2000/svg"
   xmlns="http://www.w3.org/2000/svg"
   xmlns:xlink="http://www.w3.org/1999/xlink"
   xmlns:sodipodi="http://sodipodi.sourceforge.net/DTD/sodipodi-0.dtd"
   xmlns:inkscape="http://www.inkscape.org/namespaces/inkscape"
   width="16"
   height="16"
   version="1"
   id="svg12"
   sodipodi:docname="com.github.artemanufrij.webpin.svg"
   inkscape:version="0.92.3 (2405546, 2018-03-11)">
  <metadata
     id="metadata18">
    <rdf:RDF>
      <cc:Work
         rdf:about="">
        <dc:format>image/svg+xml</dc:format>
        <dc:type
           rdf:resource="http://purl.org/dc/dcmitype/StillImage" />
        <dc:title></dc:title>
      </cc:Work>
    </rdf:RDF>
  </metadata>
  <defs
     id="defs16">
    <linearGradient
       inkscape:collect="always"
       id="linearGradient832">
      <stop
         style="stop-color:#2983f1;stop-opacity:1"
         offset="0"
         id="stop828" />
      <stop
         style="stop-color:#4f99f3;stop-opacity:1"
         offset="1"
         id="stop830" />
    </linearGradient>
    <linearGradient
       inkscape:collect="always"
       xlink:href="#linearGradient832"
       id="linearGradient834"
       x1="24.372881"
       y1="37.830509"
       x2="24"
       y2="9"
       gradientUnits="userSpaceOnUse"
       gradientTransform="matrix(0.36363636,0,0,0.34666667,-0.7272727,-0.5199999)" />
  </defs>
  <sodipodi:namedview
     pagecolor="#ffffff"
     bordercolor="#666666"
     borderopacity="1"
     objecttolerance="10"
     gridtolerance="10"
     guidetolerance="10"
     inkscape:pageopacity="0"
     inkscape:pageshadow="2"
     inkscape:window-width="1366"
     inkscape:window-height="704"
     id="namedview14"
     showgrid="false"
     inkscape:zoom="6.9532167"
     inkscape:cx="10.904381"
     inkscape:cy="10.319173"
     inkscape:window-x="0"
     inkscape:window-y="30"
     inkscape:window-maximized="1"
     inkscape:current-layer="svg12" />
  <path
     style="fill:url(#linearGradient834);fill-opacity:1;stroke-width:0.35505012"
     d="M 8,2.6 C 5.9290909,2.6 4.1654543,3.798774 3.4061816,5.4953606 1.4784363,5.7664537 0,7.3202128 0,9.2182136 0,11.30688 1.7908729,13 4,13 h 8.5 C 14.433091,13 16,11.518347 16,9.6910672 16,7.9924008 14.649091,6.6005336 12.906182,6.4112536 12.451637,4.2432004 10.426909,2.6 8,2.6 Z"
     id="path4"
     inkscape:connector-curvature="0" />
  <path
     d="M 8,2.6 C 5.9290909,2.6 4.1654543,3.7984268 3.4061816,5.4953606 1.4784363,5.7661069 0,7.3205608 0,9.21856 0,9.274368 0.006,9.3284536 0.0085088,9.3835736 0.0996724,7.5691208 1.5405088,6.1041072 3.4061812,5.8420272 4.1654543,4.145094 5.9290909,2.9466668 8,2.9466668 c 2.426909,0 4.451637,1.6428538 4.906182,3.811254 C 14.587637,6.9402672 15.900363,8.24304 15.991637,9.859547 15.994546,9.803387 16,9.74792 16,9.6910672 16,7.9924008 14.649091,6.6005336 12.906182,6.4112536 12.451637,4.2428536 10.426909,2.6 8,2.6 Z"
     id="path6"
     style="opacity:0.4;fill:#ffffff;stroke-width:0.35505012"
     inkscape:connector-curvature="0" />
  <path
     style="opacity:0.2;fill:none;stroke:#000000;stroke-width:1.42020047;stroke-linecap:round;stroke-linejoin:round"
     d="M 3.2727272,4.3383284 5.4545451,11.964995 7.9999992,6.2498488 10.545454,11.964995 12.727273,4.3383284"
     id="path8"
     inkscape:connector-curvature="0" />
  <path
     style="fill:none;stroke:#ffffff;stroke-width:1.42020047;stroke-linecap:round;stroke-linejoin:round;stroke-opacity:1"
     d="M 3.2727272,3.9915024 5.4545451,11.618169 7.9999992,5.9030224 10.545454,11.618169 12.727273,3.9915024"
     id="path10"
     inkscape:connector-curvature="0" />
  <path
     d="M 0.0085091,9.0369072 C 0.0054909,9.0975736 0,9.1572 0,9.21856 0,11.307227 1.7908729,13 4,13 h 8.5 C 14.433091,13 16,11.518693 16,9.6910672 16,9.6310912 15.9949,9.57216 15.9916,9.51288 c -0.09382,1.748587 -1.61891,3.140453 -3.491638,3.140453 H 4 c -2.1501454,0 -3.8992727,-1.605066 -3.9916363,-3.6164258 z"
     id="path2"
     inkscape:connector-curvature="0"
     style="opacity:0.2;stroke-width:0.35505012" />
</svg>
