<?xml version="1.0" encoding="UTF-8" standalone="no"?>
<svg
   xmlns:dc="http://purl.org/dc/elements/1.1/"
   xmlns:cc="http://creativecommons.org/ns#"
   xmlns:rdf="http://www.w3.org/1999/02/22-rdf-syntax-ns#"
   xmlns:svg="http://www.w3.org/2000/svg"
   xmlns="http://www.w3.org/2000/svg"
   xmlns:sodipodi="http://sodipodi.sourceforge.net/DTD/sodipodi-0.dtd"
   xmlns:inkscape="http://www.inkscape.org/namespaces/inkscape"
   width="16"
   height="16"
   version="1"
   id="svg16"
   sodipodi:docname="dconf-editor.svg"
   inkscape:version="0.92.4 5da689c313, 2019-01-14">
  <metadata
     id="metadata22">
    <rdf:RDF>
      <cc:Work
         rdf:about="">
        <dc:format>image/svg+xml</dc:format>
        <dc:type
           rdf:resource="http://purl.org/dc/dcmitype/StillImage" />
        <dc:title></dc:title>
      </cc:Work>
    </rdf:RDF>
  </metadata>
  <defs
     id="defs20" />
  <sodipodi:namedview
     pagecolor="#ffffff"
     bordercolor="#666666"
     borderopacity="1"
     objecttolerance="10"
     gridtolerance="10"
     guidetolerance="10"
     inkscape:pageopacity="0"
     inkscape:pageshadow="2"
     inkscape:window-width="1366"
     inkscape:window-height="708"
     id="namedview18"
     showgrid="false"
     inkscape:zoom="3.6875"
     inkscape:cx="-1.4915254"
     inkscape:cy="33.491525"
     inkscape:window-x="0"
     inkscape:window-y="25"
     inkscape:window-maximized="1"
     inkscape:current-layer="svg16" />
  <circle
     style="opacity:1;fill:#b42b2b;fill-opacity:1;stroke:none;stroke-width:0.28480104;stroke-miterlimit:4;stroke-dasharray:none;stroke-opacity:0"
     id="path829"
     cx="6.2953997"
     cy="6.2179184"
     r="5.7142859" />
  <path
     style="opacity:0.2;stroke-width:0.3986786"
     d="m 9.043558,10.919365 4.8742,4.874202 c 1.127276,1.17407 2.865341,-0.563995 1.69127,-1.69127 L 10.66077,9.1540383 C 8.770929,9.7824263 9.568286,9.7824263 9.043558,10.919365 Z"
     id="path6"
     inkscape:connector-curvature="0" />
  <path
     style="fill:#565656;stroke-width:0.3986786"
     d="m 9.043558,10.520687 4.8742,4.874201 c 1.127276,1.174071 2.865341,-0.563995 1.69127,-1.691271 L 10.66077,8.7553599 C 8.770929,9.3837479 9.568286,9.3837479 9.043558,10.520687 Z"
     id="path8"
     inkscape:connector-curvature="0" />
  <path
     style="opacity:0.2;stroke-width:0.3986786"
     d="M 6.3788572,0.21414057 A 6.3788572,6.3788572 0 0 0 0,6.5929975 6.3788572,6.3788572 0 0 0 6.3788572,12.971854 6.3788572,6.3788572 0 0 0 12.757714,6.5929975 6.3788572,6.3788572 0 0 0 6.3788572,0.21414057 Z m 0,2.39207113 A 3.9867854,3.9867854 0 0 1 10.365642,6.5929975 3.9867854,3.9867854 0 0 1 6.3788572,10.579784 3.9867854,3.9867854 0 0 1 2.3920714,6.5929975 3.9867854,3.9867854 0 0 1 6.3788572,2.6062117 Z"
     id="path10"
     inkscape:connector-curvature="0" />
  <path
     style="fill:#ffffff;stroke-width:0.3986786"
     d="M 6.3788572,-0.18453863 A 6.3788572,6.3788572 0 0 0 0,6.1943182 6.3788572,6.3788572 0 0 0 6.3788572,12.573176 6.3788572,6.3788572 0 0 0 12.757714,6.1943182 6.3788572,6.3788572 0 0 0 6.3788572,-0.18453863 Z m 0,2.39207133 A 3.9867854,3.9867854 0 0 1 10.365642,6.1943182 3.9867854,3.9867854 0 0 1 6.3788572,10.181104 3.9867854,3.9867854 0 0 1 2.3920714,6.1943182 3.9867854,3.9867854 0 0 1 6.3788572,2.2075327 Z"
     id="path12"
     inkscape:connector-curvature="0" />
</svg>
