<?xml version="1.0" encoding="UTF-8" standalone="no"?>
<svg
   xmlns:dc="http://purl.org/dc/elements/1.1/"
   xmlns:cc="http://creativecommons.org/ns#"
   xmlns:rdf="http://www.w3.org/1999/02/22-rdf-syntax-ns#"
   xmlns:svg="http://www.w3.org/2000/svg"
   xmlns="http://www.w3.org/2000/svg"
   xmlns:xlink="http://www.w3.org/1999/xlink"
   xmlns:sodipodi="http://sodipodi.sourceforge.net/DTD/sodipodi-0.dtd"
   xmlns:inkscape="http://www.inkscape.org/namespaces/inkscape"
   width="16"
   height="16"
   version="1"
   id="svg12"
   sodipodi:docname="desktop-environment-gnome.svg"
   inkscape:version="0.92.4 5da689c313, 2019-01-14">
  <metadata
     id="metadata18">
    <rdf:RDF>
      <cc:Work
         rdf:about="">
        <dc:format>image/svg+xml</dc:format>
        <dc:type
           rdf:resource="http://purl.org/dc/dcmitype/StillImage" />
        <dc:title></dc:title>
      </cc:Work>
    </rdf:RDF>
  </metadata>
  <defs
     id="defs16">
    <linearGradient
       id="linearGradient889"
       inkscape:collect="always">
      <stop
         id="stop885"
         offset="0"
         style="stop-color:#ffffff;stop-opacity:1" />
      <stop
         id="stop887"
         offset="1"
         style="stop-color:#ffffff;stop-opacity:0" />
    </linearGradient>
    <linearGradient
       inkscape:collect="always"
       id="linearGradient857">
      <stop
         style="stop-color:#000000;stop-opacity:1;"
         offset="0"
         id="stop853" />
      <stop
         style="stop-color:#000000;stop-opacity:0;"
         offset="1"
         id="stop855" />
    </linearGradient>
    <linearGradient
       inkscape:collect="always"
       id="linearGradient825">
      <stop
         style="stop-color:#4a86cf;stop-opacity:1;"
         offset="0"
         id="stop821" />
      <stop
         style="stop-color:#7aa6dc;stop-opacity:1"
         offset="1"
         id="stop823" />
    </linearGradient>
    <linearGradient
       inkscape:collect="always"
       xlink:href="#linearGradient825"
       id="linearGradient827"
       x1="-69.966103"
       y1="37.355934"
       x2="-13.966103"
       y2="37.355934"
       gradientUnits="userSpaceOnUse"
       gradientTransform="matrix(0.28571428,0,0,0.28571428,19.990314,-18.673124)" />
    <linearGradient
       inkscape:collect="always"
       xlink:href="#linearGradient857"
       id="linearGradient859"
       x1="4"
       y1="-32"
       x2="17.333332"
       y2="-32.852589"
       gradientUnits="userSpaceOnUse"
       gradientTransform="matrix(0.28571428,0,0,0.28571428,-17.142857,1.1428571)" />
    <linearGradient
       inkscape:collect="always"
       xlink:href="#linearGradient889"
       id="linearGradient859-7"
       x1="4"
       y1="-32"
       x2="22.32202"
       y2="-32.07943"
       gradientUnits="userSpaceOnUse"
       gradientTransform="matrix(0.27436375,0,0,0.28581576,-1.0946703,1.1461046)" />
  </defs>
  <sodipodi:namedview
     pagecolor="#ffffff"
     bordercolor="#666666"
     borderopacity="1"
     objecttolerance="10"
     gridtolerance="10"
     guidetolerance="10"
     inkscape:pageopacity="0"
     inkscape:pageshadow="2"
     inkscape:window-width="1366"
     inkscape:window-height="709"
     id="namedview14"
     showgrid="false"
     inkscape:zoom="1"
     inkscape:cx="33.480293"
     inkscape:cy="16.908123"
     inkscape:window-x="0"
     inkscape:window-y="25"
     inkscape:window-maximized="1"
     inkscape:current-layer="svg12" />
  <circle
     style="fill:url(#linearGradient827);fill-opacity:1;stroke-width:0.26974687"
     id="path819"
     cx="8"
     cy="-8"
     r="8"
     transform="scale(1,-1)" />
  <path
     style="opacity:0.2;stroke-width:0.25396827"
     d="m 11.355289,2.8253972 c -2.256683,0 -2.679728,3.3015868 -1.410219,3.3015868 1.269327,0 3.666993,-3.3015868 1.410219,-3.3015868 z M 7.8885232,3.3333336 c -0.036424,-1.292e-4 -0.074736,0.00256 -0.11508,0.00794 C 6.4827672,3.5140768 6.9364,5.8292463 7.6236416,5.87252 8.289137,5.91444 9.017505,3.3373352 7.8885232,3.3333336 Z M 5.5279074,3.841766 C 5.4990618,3.840326 5.4695242,3.841206 5.4386223,3.844246 5.3726959,3.850678 5.3018274,3.867674 5.2263206,3.8963292 4.0179954,4.354931 5.0429594,6.2482657 5.719872,6.1210314 6.3351411,6.0056583 6.4221024,3.8863246 5.5279074,3.841766 Z M 3.849832,5.619048 C 3.7419743,5.6161909 3.6248131,5.6444823 3.5006257,5.7127983 2.507576,6.2593983 3.8355149,7.5802832 4.4197726,7.375496 4.931,7.1962304 4.6048377,5.6392891 3.849832,5.619048 Z M 8.568086,6.6349208 C 6.8556688,6.6044976 4.5966709,7.5071792 4.2114394,9.3189488 3.79422,11.279596 5.9290566,14 8.15638,14 c 1.095729,0 2.359778,-1.115284 2.59623,-2.431547 0.08633,-0.479838 -0.449013,-0.653852 -1.022321,-0.616072 -0.625938,0.04125 -1.297213,0.331918 -1.253968,0.678572 0.06766,0.542592 -0.128105,0.836405 -0.5183538,0.845238 -0.5328056,-0.06482 -0.93536,-0.309284 -1.005456,-0.775794 C 6.8570922,10.475383 10.791141,9.6023728 10.486737,7.7028768 10.375402,7.0081376 9.595537,6.6531752 8.568086,6.6349208 Z"
     id="path6"
     inkscape:connector-curvature="0" />
  <path
     style="fill:#ffffff;stroke-width:0.25396827"
     d="m 11.355289,2.5714288 c -2.256683,0 -2.679728,3.3015872 -1.410219,3.3015872 1.269327,0 3.666993,-3.3015872 1.410219,-3.3015872 z M 7.8885232,3.0793652 c -0.036424,-1.288e-4 -0.074736,0.00256 -0.11508,0.00794 C 6.4827672,3.2601084 6.9364,5.5752777 7.6236416,5.6185514 8.289137,5.6604714 9.017505,3.0833664 7.8885232,3.0793652 Z M 5.5279074,3.587798 C 5.4990618,3.586358 5.4695242,3.587238 5.4386223,3.590278 5.3726959,3.596718 5.3018274,3.613706 5.2263206,3.6423612 4.0179954,4.100963 5.0429594,5.9942977 5.719872,5.8670634 6.3351411,5.7516909 6.4221024,3.6323566 5.5279074,3.587798 Z M 3.849832,5.3650794 C 3.7419743,5.3622223 3.6248131,5.3905137 3.5006257,5.4588297 2.507576,6.0054303 3.8355149,7.3263152 4.4197726,7.121528 4.931,6.9422624 4.6048377,5.3853211 3.849832,5.3650794 Z M 8.568086,6.3809526 C 6.8556688,6.3505294 4.5966709,7.2532104 4.2114394,9.06498 3.79422,11.025627 5.9290566,13.746031 8.15638,13.746031 c 1.095729,0 2.359778,-1.115284 2.59623,-2.431547 0.08633,-0.479837 -0.449013,-0.653852 -1.022321,-0.616071 -0.625938,0.04125 -1.297213,0.331918 -1.253968,0.678571 0.06766,0.542593 -0.128105,0.836405 -0.5183538,0.845238 -0.5328056,-0.06482 -0.93536,-0.309283 -1.005456,-0.775793 C 6.857092,10.221415 10.791141,9.3484048 10.486737,7.4489088 10.375402,6.7541704 9.595537,6.3992074 8.568086,6.3809526 Z"
     id="path8"
     inkscape:connector-curvature="0" />
  <circle
     style="opacity:0.4;fill:none;fill-opacity:1;stroke:url(#linearGradient859);stroke-width:0.28070176;stroke-miterlimit:4;stroke-dasharray:none;stroke-opacity:1"
     id="path819-2"
     cx="-8"
     cy="-8"
     r="7.8596487"
     transform="matrix(0,-1,-1,0,0,0)" />
  <ellipse
     style="opacity:0.4;fill:none;fill-opacity:1;stroke:url(#linearGradient859-7);stroke-width:0.27511841;stroke-miterlimit:4;stroke-dasharray:none;stroke-opacity:1"
     id="path819-2-5"
     cx="7.6849694"
     cy="-8"
     transform="rotate(90)"
     rx="7.54741"
     ry="7.8624406" />
</svg>
