<?xml version="1.0" encoding="UTF-8" standalone="no"?>
<!-- This Source Code Form is subject to the terms of the Mozilla Public
   - License, v. 2.0. If a copy of the MPL was not distributed with this
   - file, You can obtain one at http://mozilla.org/MPL/2.0/. -->

<!-- IMPORTANT - The text part needs 'context-fill' for dark mode support on some pages -->

<svg
   xmlns:dc="http://purl.org/dc/elements/1.1/"
   xmlns:cc="http://creativecommons.org/ns#"
   xmlns:rdf="http://www.w3.org/1999/02/22-rdf-syntax-ns#"
   xmlns:svg="http://www.w3.org/2000/svg"
   xmlns="http://www.w3.org/2000/svg"
   xmlns:sodipodi="http://sodipodi.sourceforge.net/DTD/sodipodi-0.dtd"
   xmlns:inkscape="http://www.inkscape.org/namespaces/inkscape"
   viewBox="0 0 16 16"
   version="1.1"
   id="svg4959"
   sodipodi:docname="firefox-developer-icon.svg"
   width="16"
   height="16"
   inkscape:version="0.92.4 5da689c313, 2019-01-14">
  <metadata
     id="metadata4963">
    <rdf:RDF>
      <cc:Work
         rdf:about="">
        <dc:format>image/svg+xml</dc:format>
        <dc:type
           rdf:resource="http://purl.org/dc/dcmitype/StillImage" />
        <dc:title></dc:title>
      </cc:Work>
    </rdf:RDF>
  </metadata>
  <sodipodi:namedview
     pagecolor="#ffffff"
     bordercolor="#666666"
     borderopacity="1"
     objecttolerance="10"
     gridtolerance="10"
     guidetolerance="10"
     inkscape:pageopacity="0"
     inkscape:pageshadow="2"
     inkscape:window-width="1366"
     inkscape:window-height="708"
     id="namedview4961"
     showgrid="false"
     fit-margin-top="0"
     fit-margin-left="0"
     fit-margin-right="0"
     fit-margin-bottom="0"
     inkscape:zoom="3.281106"
     inkscape:cx="27.48299"
     inkscape:cy="39.997708"
     inkscape:window-x="0"
     inkscape:window-y="19"
     inkscape:window-maximized="1"
     inkscape:current-layer="svg4959" />
  <defs
     id="defs4647">
    <linearGradient
       x1="84.162506"
       y1="-3.6041653"
       x2="91.017914"
       y2="41.136391"
       id="f"
       gradientTransform="matrix(0.13770723,0,0,0.29050077,-0.00226561,-8.1561397e-4)"
       gradientUnits="userSpaceOnUse">
      <stop
         stop-color="#AAF2FF"
         offset="0%"
         id="stop4518" />
      <stop
         stop-color="#0DF"
         offset="29%"
         id="stop4520" />
      <stop
         stop-color="#0090ED"
         offset="61%"
         id="stop4522" />
      <stop
         stop-color="#0250BB"
         offset="89%"
         id="stop4524" />
    </linearGradient>
    <linearGradient
       x1="59.666759"
       y1="0.0084456606"
       x2="65.72345"
       y2="30.049629"
       id="g"
       gradientTransform="matrix(0.15356525,0,0,0.260502,-0.00226561,-8.1561397e-4)"
       gradientUnits="userSpaceOnUse">
      <stop
         stop-color="#AAF2FF"
         offset="0%"
         id="stop4527" />
      <stop
         stop-color="#0DF"
         offset="29%"
         id="stop4529" />
      <stop
         stop-color="#0090ED"
         offset="74%"
         id="stop4531" />
      <stop
         stop-color="#0250BB"
         offset="100%"
         id="stop4533" />
    </linearGradient>
    <linearGradient
       x1="68.991951"
       y1="11.815484"
       x2="17.021517"
       y2="66.148209"
       id="k"
       gradientTransform="matrix(0.19688338,0,0,0.20318656,-0.00226561,-8.1561397e-4)"
       gradientUnits="userSpaceOnUse">
      <stop
         stop-color="#80EBFF"
         stop-opacity=".5"
         offset="24%"
         id="stop4536" />
      <stop
         stop-color="#0DF"
         stop-opacity="0"
         offset="70%"
         id="stop4538" />
    </linearGradient>
    <linearGradient
       x1="32.206059"
       y1="33.089981"
       x2="25.120728"
       y2="60.567245"
       id="l"
       gradientTransform="matrix(0.20607135,0,0,0.1941272,-0.00226561,-8.1561397e-4)"
       gradientUnits="userSpaceOnUse">
      <stop
         stop-color="#BFF3FF"
         stop-opacity=".9"
         offset="0%"
         id="stop4541" />
      <stop
         stop-color="#80EBFF"
         stop-opacity=".5"
         offset="100%"
         id="stop4543" />
    </linearGradient>
    <linearGradient
       x1="95.009483"
       y1="-0.82379484"
       x2="93.769226"
       y2="57.467999"
       id="m"
       gradientTransform="matrix(0.12855003,0,0,0.31119444,-0.00226561,-8.1561397e-4)"
       gradientUnits="userSpaceOnUse">
      <stop
         stop-color="#BFF3FF"
         offset="0%"
         id="stop4546" />
      <stop
         stop-color="#0DF"
         stop-opacity="0"
         offset="100%"
         id="stop4548" />
    </linearGradient>
    <linearGradient
       x1="56.13681"
       y1="-0.63725394"
       x2="55.329029"
       y2="23.111471"
       id="n"
       gradientTransform="matrix(0.16309726,0,0,0.24527729,-0.00226561,-8.1561397e-4)"
       gradientUnits="userSpaceOnUse">
      <stop
         stop-color="#BFF3FF"
         offset="0%"
         id="stop4551" />
      <stop
         stop-color="#AAF2FF"
         stop-opacity=".5"
         offset="100%"
         id="stop4553" />
    </linearGradient>
    <linearGradient
       x1="58.332546"
       y1="25.308983"
       x2="56.715939"
       y2="64.10762"
       id="o"
       gradientTransform="matrix(0.17827818,0,0,0.22439119,-0.00226561,-8.1561397e-4)"
       gradientUnits="userSpaceOnUse">
      <stop
         stop-color="#BFF3FF"
         offset="0%"
         id="stop4556" />
      <stop
         stop-color="#0DF"
         stop-opacity="0"
         offset="100%"
         id="stop4558" />
    </linearGradient>
    <linearGradient
       x1="23.729013"
       y1="33.093102"
       x2="25.866491"
       y2="66.491219"
       id="p"
       gradientTransform="matrix(0.21251527,0,0,0.18824085,-0.00226561,-8.1561397e-4)"
       gradientUnits="userSpaceOnUse">
      <stop
         stop-color="#BFF3FF"
         stop-opacity=".8"
         offset="0%"
         id="stop4561" />
      <stop
         stop-color="#80EBFF"
         stop-opacity=".2"
         offset="100%"
         id="stop4563" />
    </linearGradient>
    <linearGradient
       x1="29.194855"
       y1="12.974803"
       x2="20.563929"
       y2="26.988457"
       id="q"
       gradientTransform="matrix(0.19596782,0,0,0.20413585,-0.00226561,-8.1561397e-4)"
       gradientUnits="userSpaceOnUse">
      <stop
         stop-color="#BFF3FF"
         stop-opacity=".8"
         offset="0%"
         id="stop4566" />
      <stop
         stop-color="#80EBFF"
         stop-opacity=".2"
         offset="100%"
         id="stop4568" />
    </linearGradient>
    <linearGradient
       x1="18.502363"
       y1="29.405516"
       x2="16.874853"
       y2="74.324791"
       id="r"
       gradientTransform="matrix(0.16000713,0,0,0.25001422,-0.00226561,-8.1561397e-4)"
       gradientUnits="userSpaceOnUse">
      <stop
         stop-color="#0DF"
         stop-opacity=".4"
         offset="0%"
         id="stop4571" />
      <stop
         stop-color="#0DF"
         stop-opacity="0"
         offset="100%"
         id="stop4573" />
    </linearGradient>
    <linearGradient
       x1="25.577993"
       y1="4.5553231"
       x2="25.577993"
       y2="57.36784"
       id="s"
       gradientTransform="matrix(0.15896716,0,0,0.25164982,-0.00226561,-8.1561397e-4)"
       gradientUnits="userSpaceOnUse">
      <stop
         stop-color="#BFF3FF"
         offset="0%"
         id="stop4576" />
      <stop
         stop-color="#0DF"
         stop-opacity="0"
         offset="100%"
         id="stop4578" />
    </linearGradient>
    <linearGradient
       x1="68.298668"
       y1="12.77847"
       x2="65.108376"
       y2="89.877266"
       id="t"
       gradientTransform="matrix(0.16887155,0,0,0.23689045,-0.00226561,-8.1561397e-4)"
       gradientUnits="userSpaceOnUse">
      <stop
         stop-color="#BFF3FF"
         stop-opacity=".8"
         offset="0%"
         id="stop4581" />
      <stop
         stop-color="#0DF"
         stop-opacity="0"
         offset="100%"
         id="stop4583" />
    </linearGradient>
    <linearGradient
       x1="-0.1"
       y1="0.66000003"
       x2="1.1"
       y2="0.33000001"
       id="u">
      <stop
         offset="0"
         stop-color="#0250bb"
         id="stop4586" />
      <stop
         offset=".123"
         stop-color="#024eb6"
         id="stop4588" />
      <stop
         offset="1"
         stop-color="#054096"
         id="stop4590" />
    </linearGradient>
    <radialGradient
       cx="42.067257"
       cy="30.945194"
       r="22.6548"
       id="a"
       gradientTransform="matrix(0.20006312,0,0,0.19995718,-0.00226561,-8.1561397e-4)"
       fx="42.067257"
       fy="30.945194"
       gradientUnits="userSpaceOnUse">
      <stop
         stop-color="#0DF"
         stop-opacity=".4"
         offset="10%"
         id="stop4593" />
      <stop
         stop-color="#7542E5"
         stop-opacity=".25"
         offset="90%"
         id="stop4595" />
    </radialGradient>
    <radialGradient
       cx="39.89164"
       cy="41.40416"
       fx="39.801777"
       fy="41.40416"
       r="19.256578"
       id="b"
       gradientTransform="matrix(0.20006312,0,0,0.19995718,-0.00226561,-8.1561397e-4)"
       gradientUnits="userSpaceOnUse">
      <stop
         stop-color="#7542E5"
         stop-opacity="0"
         offset="91%"
         id="stop4598" />
      <stop
         stop-color="#0DF"
         stop-opacity=".4"
         offset="100%"
         id="stop4600" />
    </radialGradient>
    <radialGradient
       cx="61.200493"
       cy="9.810463"
       fx="61.200493"
       fy="9.810463"
       r="89.403168"
       gradientTransform="matrix(0.22195183,0,0,0.18023756,-0.00226561,-8.1561397e-4)"
       id="c"
       gradientUnits="userSpaceOnUse">
      <stop
         stop-color="#80EBFF"
         offset="0%"
         id="stop4603" />
      <stop
         stop-color="#0DF"
         offset="26%"
         id="stop4605" />
      <stop
         stop-color="#0090ED"
         offset="53%"
         id="stop4607" />
      <stop
         stop-color="#0060DF"
         offset="86%"
         id="stop4609" />
    </radialGradient>
    <radialGradient
       cx="34.469643"
       cy="46.828964"
       fx="34.658924"
       fy="46.828964"
       r="89.403168"
       gradientTransform="matrix(0.22195183,0,0,0.18023756,-0.00226561,-8.1561397e-4)"
       id="d"
       gradientUnits="userSpaceOnUse">
      <stop
         stop-color="#321C64"
         stop-opacity=".8"
         offset="30%"
         id="stop4612" />
      <stop
         stop-color="#212F83"
         stop-opacity=".5"
         offset="37%"
         id="stop4614" />
      <stop
         stop-color="#0A47AC"
         stop-opacity=".14"
         offset="48%"
         id="stop4616" />
      <stop
         stop-color="#0250BB"
         stop-opacity="0"
         offset="53%"
         id="stop4618" />
    </radialGradient>
    <radialGradient
       cx="61.191902"
       cy="-19.160242"
       r="139.74019"
       gradientTransform="matrix(0.21840049,0,0,0.18316834,-0.00226561,-8.1561397e-4)"
       id="e"
       fx="61.191902"
       fy="-19.160242"
       gradientUnits="userSpaceOnUse">
      <stop
         stop-color="#80EBFF"
         offset="0%"
         id="stop4621" />
      <stop
         stop-color="#00B3F4"
         offset="47%"
         id="stop4623" />
      <stop
         stop-color="#0060DF"
         offset="84%"
         id="stop4625" />
      <stop
         stop-color="#592ACB"
         offset="100%"
         id="stop4627" />
    </radialGradient>
    <radialGradient
       cx="37.300232"
       cy="5.5633535"
       fx="37.300232"
       fy="5.5633535"
       r="28.381479"
       gradientTransform="matrix(0.19976716,0,0,0.20025341,-0.00226561,-8.1561397e-4)"
       id="h"
       gradientUnits="userSpaceOnUse">
      <stop
         stop-color="#0DF"
         offset="0%"
         id="stop4630" />
      <stop
         stop-color="#0090ED"
         offset="82%"
         id="stop4632" />
    </radialGradient>
    <radialGradient
       cx="52.950813"
       cy="21.181152"
       fx="52.950813"
       fy="21.181152"
       r="85.359634"
       gradientTransform="matrix(0.21146999,0,0,0.18917133,-0.00226561,-8.1561397e-4)"
       id="i"
       gradientUnits="userSpaceOnUse">
      <stop
         stop-color="#80EBFF"
         offset="29%"
         id="stop4635" />
      <stop
         stop-color="#00B3F4"
         offset="100%"
         id="stop4637" />
    </radialGradient>
    <radialGradient
       cx="36.138844"
       cy="15.884185"
       fx="36.138844"
       fy="15.884185"
       r="71.746956"
       gradientTransform="matrix(0.20201474,0,0,0.19802543,-0.00226561,-8.1561397e-4)"
       id="j"
       gradientUnits="userSpaceOnUse">
      <stop
         stop-color="#AAF2FF"
         offset="18%"
         id="stop4640" />
      <stop
         stop-color="#0DF"
         offset="43%"
         id="stop4642" />
      <stop
         stop-color="#0060DF"
         offset="69%"
         id="stop4644" />
    </radialGradient>
  </defs>
  <path
     d="m 4.4701615,9.3254569 0.4884247,1.3540681 0.7338369,0.990251 1.722887,0.328816 0.824242,0.07001 1.4072713,-0.351618 0.6062306,-0.581029 z"
     id="path4649"
     inkscape:connector-curvature="0"
     style="fill:#09204d;stroke-width:0.20001015" />
  <path
     d="m 11.76193,7.3279559 -0.172608,-0.57243 -0.493225,-0.930846 -0.564229,-0.59483 -0.5990296,-0.427822 -0.520027,-0.204011 -0.624032,-0.222011 -1.0274512,-0.0654 -0.6480332,0.116806 -0.5286267,0.162608 -0.9380474,0.549028 -0.5862296,0.654233 -0.5406276,0.878045 -0.2126105,0.747237 -0.039799,1.133858 0.2028102,0.773039 0.4472225,0.8800451 0.3152158,0.425021 0.4362224,0.400021 0.5446275,0.368419 0.6716342,0.292214 1.1238572,0.131806 0.5870284,0.0164 0.868445,-0.244613 0.7764386,-0.426221 0.499425,-0.426221 0.38742,-0.462024 0.547628,-1.0720551 0.120805,-0.733436 z"
     id="path4651"
     inkscape:connector-curvature="0"
     style="fill:#09204d;stroke-width:0.20001015" />
  <path
     d="m 7.780129,4.8258289 -0.4602239,0.456423 0.7506386,0.304415 0.5584277,-0.692635 z"
     id="path4653"
     inkscape:connector-curvature="0"
     style="fill:#0e56d7;stroke-width:0.20001015" />
  <path
     d="m 8.0705437,5.5866669 1.4532737,-0.0442 -0.894846,-0.648433 z"
     id="path4655"
     inkscape:connector-curvature="0"
     style="fill:#1053d1;stroke-width:0.20001015" />
  <path
     d="m 9.4158124,4.8892319 -0.786841,0.0048 0.894846,0.648433 0.8274416,-0.054 z"
     id="path4657"
     inkscape:connector-curvature="0"
     style="fill:#0b4fbf;stroke-width:0.20001015" />
  <path
     d="m 10.351259,5.4884619 -0.4704236,-0.648632 0.6510326,0.39002 z"
     id="path4659"
     inkscape:connector-curvature="0"
     style="fill:#0b48b0;stroke-width:0.20001015" />
  <path
     d="m 10.97409,5.8856829 -0.622831,-0.397221 0.180609,-0.258612 z"
     id="path4661"
     inkscape:connector-curvature="0"
     style="fill:#0c45a7;stroke-width:0.20001015" />
  <path
     d="m 10.351259,5.4884619 -0.104205,0.444423 0.569628,0.227812 z"
     id="path4663"
     inkscape:connector-curvature="0"
     style="fill:#0f46af;stroke-width:0.20001015" />
  <path
     d="m 10.351259,5.4884619 0.622831,0.397221 -0.157408,0.275014 z"
     id="path4665"
     inkscape:connector-curvature="0"
     style="fill:#0c47ad;stroke-width:0.20001015" />
  <path
     d="m 9.5238174,5.5424659 0.8274416,-0.054 -0.104205,0.444422 z"
     id="path4667"
     inkscape:connector-curvature="0"
     style="fill:#0e4fc3;stroke-width:0.20001015" />
  <path
     d="m 9.5238174,5.5424659 -0.653834,0.592029 0.841443,0.412021 z"
     id="path4669"
     inkscape:connector-curvature="0"
     style="fill:#174dca;stroke-width:0.20001015" />
  <path
     d="m 8.0705437,5.5866669 1.4532737,-0.0442 -0.653834,0.592029 z"
     id="path4671"
     inkscape:connector-curvature="0"
     style="fill:#1650d4;stroke-width:0.20001015" />
  <path
     d="m 10.247054,5.9328849 0.395619,0.767639 0.174009,-0.539827 z"
     id="path4673"
     inkscape:connector-curvature="0"
     style="fill:#1246b2;stroke-width:0.20001015" />
  <path
     d="m 10.642673,6.7005239 0.174009,-0.539827 0.414621,0.98605 z"
     id="path4675"
     inkscape:connector-curvature="0"
     style="fill:#133ea1;stroke-width:0.20001015" />
  <path
     d="m 10.816682,6.1606969 0.631832,0.462823 -0.217211,0.523227 z"
     id="path4677"
     inkscape:connector-curvature="0"
     style="fill:#103d98;stroke-width:0.20001015" />
  <path
     d="m 10.97409,5.8856829 0.122007,-0.061 0.352417,0.798841 z"
     id="path4679"
     inkscape:connector-curvature="0"
     style="fill:#0b3785;stroke-width:0.20001015" />
  <path
     d="m 11.448514,6.6235199 0.140808,0.132006 -0.493225,-0.930846 z"
     id="path4681"
     inkscape:connector-curvature="0"
     style="fill:#0b3685;stroke-width:0.20001015" />
  <path
     d="m 11.448514,6.6235199 -0.474424,-0.737837 -0.157408,0.275014 z m -0.916646,-1.39367 0.442222,0.655833 0.122007,-0.06 z"
     id="path4683"
     inkscape:connector-curvature="0"
     style="fill:#0c3b91;stroke-width:0.20001015" />
  <path
     d="m 11.730129,7.7751779 -0.140807,-1.019652 0.172608,0.57243 -0.034,0.447222 z"
     id="path4685"
     inkscape:connector-curvature="0"
     style="fill:#0b3279;stroke-width:0.20001015" />
  <path
     d="m 11.448514,6.6235199 0.281615,1.151658 -0.140807,-1.019652 z"
     id="path4687"
     inkscape:connector-curvature="0"
     style="fill:#0f388d;stroke-width:0.20001015" />
  <path
     d="m 11.231303,7.1467469 0.498826,0.628431 -0.281615,-1.151658 z"
     id="path4689"
     inkscape:connector-curvature="0"
     style="fill:#0d3481;stroke-width:0.20001015" />
  <path
     d="m 11.727929,7.7751779 0.034,-0.447222 0.0342,1.146858 -0.06601,-0.699636 z"
     id="path4691"
     inkscape:connector-curvature="0"
     style="fill:#0b2e71;stroke-width:0.20001015" />
  <path
     d="m 11.646524,8.6816239 0.149608,-0.20681 -0.066,-0.699636 z"
     id="path4693"
     inkscape:connector-curvature="0"
     style="fill:#0e2f77;stroke-width:0.20001015" />
  <path
     d="m 11.675326,9.2082509 -0.119606,0.0576 0.240412,-0.791039 z"
     id="path4695"
     inkscape:connector-curvature="0"
     style="fill:#0e2969;stroke-width:0.20001015" />
  <path
     d="m 11.55572,9.2658529 0.240412,-0.791039 -0.149608,0.20681 z"
     id="path4697"
     inkscape:connector-curvature="0"
     style="fill:#0c2a69;stroke-width:0.20001015" />
  <path
     d="m 11.646524,8.6816239 0.0836,-0.906446 -0.256213,0.302216 z"
     id="path4699"
     inkscape:connector-curvature="0"
     style="fill:#123180;stroke-width:0.20001015" />
  <path
     d="m 11.55572,9.2658529 0.0908,-0.584229 -0.494225,0.830643 z"
     id="path4701"
     inkscape:connector-curvature="0"
     style="fill:#112b70;stroke-width:0.20001015" />
  <path
     d="m 11.231303,7.1467469 0.498826,0.628431 -0.256213,0.302216 z"
     id="path4703"
     inkscape:connector-curvature="0"
     style="fill:#12378c;stroke-width:0.20001015" />
  <path
     d="m 11.646524,8.6816239 -0.172608,-0.60423 -0.260614,0.744037 z"
     id="path4705"
     inkscape:connector-curvature="0"
     style="fill:#122e7b;stroke-width:0.20001015" />
  <path
     d="M 11.127698,10.280305 11.55572,9.2658529 11.1553,10.005292 Z"
     id="path4707"
     inkscape:connector-curvature="0"
     style="fill:#11296c;stroke-width:0.20001015" />
  <path
     d="m 11.1553,10.005292 0.40042,-0.7394391 -0.403421,0.246414 z"
     id="path4709"
     inkscape:connector-curvature="0"
     style="fill:#142a72;stroke-width:0.20001015" />
  <path
     d="m 11.55572,9.2658529 -0.428022,1.0138521 0.547628,-1.0720541 z m -0.815242,1.4764751 0.38722,-0.462023 0.0276,-0.275013 z m -0.500024,0.426222 0.500024,-0.426222 -0.528026,0.242813 z"
     id="path4711"
     inkscape:connector-curvature="0"
     style="fill:#112768;stroke-width:0.20001015" />
  <path
     d="m 7.3255057,11.465366 -0.5046253,0.123605 0.015402,-0.352417 z"
     id="path4713"
     inkscape:connector-curvature="0"
     style="fill:#1c226a;stroke-width:0.20001015" />
  <path
     d="m 4.5197637,6.6713229 0.1392069,-0.0516 -0.3518174,0.79884 z"
     id="path4715"
     inkscape:connector-curvature="0"
     style="fill:#182b7a;stroke-width:0.20001015" />
  <path
     d="m 4.3071532,7.4185599 0.2664131,-0.0496 0.085404,-0.749238 z"
     id="path4717"
     inkscape:connector-curvature="0"
     style="fill:#1f308d;stroke-width:0.20001015" />
  <path
     d="m 4.3231537,8.3780089 -0.016002,-0.959449 0.2664137,-0.0496 z"
     id="path4719"
     inkscape:connector-curvature="0"
     style="fill:#1e2b7f;stroke-width:0.20001015" />
  <path
     d="m 10.247054,5.9328849 -0.5356276,0.613631 0.9312466,0.154008 z M 5.5732172,5.3036529 6.2568517,4.8358289 5.6466209,5.1394449 Z"
     id="path4721"
     inkscape:connector-curvature="0"
     style="fill:#1346b5;stroke-width:0.20001015" />
  <path
     d="M 5.6466209,5.1390449 6.5846683,4.5900169 6.2568517,4.8358289 5.6466209,5.1390449"
     id="path4723"
     inkscape:connector-curvature="0"
     style="fill:#1244ac;stroke-width:0.20001015" />
  <path
     d="M 6.2568517,4.8358289 7.113295,4.4274089 6.5846683,4.5900169 Z"
     id="path4725"
     inkscape:connector-curvature="0"
     style="fill:#0e4ab6;stroke-width:0.20001015" />
  <path
     d="m 9.5238174,5.5424659 0.187609,1.00405 0.5356276,-0.613631 z m -2.7457393,-0.754239 0.7980407,-0.320016 -0.4632237,-0.0416 z"
     id="path4727"
     inkscape:connector-curvature="0"
     style="fill:#0e4bba;stroke-width:0.20001015" />
  <path
     d="m 7.7613282,4.3106029 -0.6480332,0.116806 0.4632238,0.0416 z"
     id="path4729"
     inkscape:connector-curvature="0"
     style="fill:#0a4ebc;stroke-width:0.20001015" />
  <path
     d="m 8.3741584,4.4612109 -0.7976396,0.0078 0.1848094,-0.158408"
     id="path4731"
     inkscape:connector-curvature="0"
     style="fill:#0c54cc;stroke-width:0.20001015" />
  <path
     d="m 9.8808354,4.8394299 -0.465023,0.0494 0.9354466,0.600031 z m -1.506677,-0.378219 1.038653,0.136806 -0.624032,-0.222011 z"
     id="path4733"
     inkscape:connector-curvature="0"
     style="fill:#0b4bb4;stroke-width:0.20001015" />
  <path
     d="m 9.8808354,4.8398299 -0.468024,-0.241813 0.520027,0.204011 z"
     id="path4735"
     inkscape:connector-curvature="0"
     style="fill:#0c3889;stroke-width:0.20001015" />
  <path
     d="m 4.4701615,9.3254569 0.3078151,0.252613 -0.4540228,-1.200061 z m 4.2380139,2.3867211 0.270014,-0.635632 -0.9838498,0.264213 z m 0.270014,-0.635632 0.822442,0.228211 0.0498,-0.636032 z"
     id="path4737"
     inkscape:connector-curvature="0"
     style="fill:#202575;stroke-width:0.20001015" />
  <path
     d="M 10.212452,10.985141 9.8504334,10.668725 10.725078,10.087496 Z"
     id="path4739"
     inkscape:connector-curvature="0"
     style="fill:#1b2773;stroke-width:0.20001015" />
  <path
     d="m 10.725078,10.087496 -0.512626,0.897645 0.528026,-0.242813 0.414822,-0.737036 z"
     id="path4741"
     inkscape:connector-curvature="0"
     style="fill:#15276d;stroke-width:0.20001015" />
  <path
     d="m 9.9328384,4.8020279 -0.05201,0.0378 0.6510336,0.39002 z m -0.517026,0.0872 0.465023,-0.0494 -0.468024,-0.241813 z"
     id="path4743"
     inkscape:connector-curvature="0"
     style="fill:#0c409d;stroke-width:0.20001015" />
  <path
     d="m 7.7613282,4.3106029 0.6128302,0.150608 0.414621,-0.08521 z m 1.6514832,0.287414 -1.038653,-0.136806 1.041654,0.428021 z"
     id="path4745"
     inkscape:connector-curvature="0"
     style="fill:#0b4cb7;stroke-width:0.20001015" />
  <path
     d="m 8.3741584,4.4612109 0.254813,0.432821 0.786841,-0.0048 z"
     id="path4747"
     inkscape:connector-curvature="0"
     style="fill:#0b55ce;stroke-width:0.20001015" />
  <path
     d="m 8.3741584,4.4612109 0.254813,0.432821 -0.8488424,-0.0682 z"
     id="path4749"
     inkscape:connector-curvature="0"
     style="fill:#0a52c5;stroke-width:0.20001015" />
  <path
     d="M 7.5765188,4.4690109 7.780129,4.8258289 8.3741584,4.4612109 Z"
     id="path4751"
     inkscape:connector-curvature="0"
     style="fill:#0951c4;stroke-width:0.20001015" />
  <path
     d="M 6.7784781,4.7882269 7.5765188,4.4690109 7.780129,4.8258289 Z"
     id="path4753"
     inkscape:connector-curvature="0"
     style="fill:#0b50c4;stroke-width:0.20001015" />
  <path
     d="m 6.2568517,4.8358289 0.5216264,-0.0476 0.3348169,-0.360018 z m 0.5216264,-0.0476 0.541427,0.494025 0.4600239,-0.456423 z"
     id="path4755"
     inkscape:connector-curvature="0"
     style="fill:#0f4dbf;stroke-width:0.20001015" />
  <path
     d="m 6.7784781,4.7882269 -0.8814447,0.826642 0.3598183,-0.77904 z"
     id="path4757"
     inkscape:connector-curvature="0"
     style="fill:#1546b6;stroke-width:0.20001015" />
  <path
     d="m 5.8970334,5.6148689 0.5624288,0.0934 0.3190159,-0.920047 z"
     id="path4759"
     inkscape:connector-curvature="0"
     style="fill:#1549bd;stroke-width:0.20001015" />
  <path
     d="m 6.4594622,5.7082739 0.3190159,-0.920047 0.541427,0.494025 z"
     id="path4761"
     inkscape:connector-curvature="0"
     style="fill:#144bc3;stroke-width:0.20001015" />
  <path
     d="m 5.0603913,5.7932779 0.034201,0.332417 0.4786238,-0.822042 z"
     id="path4763"
     inkscape:connector-curvature="0"
     style="fill:#173794;stroke-width:0.20001015" />
  <path
     d="m 4.6589706,6.6197199 0.4014207,-0.826442 0.034201,0.332417 z"
     id="path4765"
     inkscape:connector-curvature="0"
     style="fill:#192f84;stroke-width:0.20001015" />
  <path
     d="m 5.0945928,6.1256949 0.4786244,-0.822042 0.3238162,0.311216 z"
     id="path4767"
     inkscape:connector-curvature="0"
     style="fill:#1a389b;stroke-width:0.20001015" />
  <path
     d="m 5.0655916,6.8385309 0.029002,-0.712836 -0.4356222,0.494025 z"
     id="path4769"
     inkscape:connector-curvature="0"
     style="fill:#1d3089;stroke-width:0.20001015" />
  <path
     d="m 5.0655916,6.8385309 0.029002,-0.712836 0.5654285,0.459023 z"
     id="path4771"
     inkscape:connector-curvature="0"
     style="fill:#1e389f;stroke-width:0.20001015" />
  <path
     d="M 5.6600212,6.5847179 5.8970334,5.6148689 5.0945928,6.1256949 Z"
     id="path4773"
     inkscape:connector-curvature="0"
     style="fill:#1c40af;stroke-width:0.20001015" />
  <path
     d="m 5.6600212,6.5847179 0.2370122,-0.969849 0.5624288,0.0934 z"
     id="path4775"
     inkscape:connector-curvature="0"
     style="fill:#1e41b7;stroke-width:0.20001015" />
  <path
     d="m 4.5735663,7.3689579 0.085404,-0.749238 0.406621,0.218811 z"
     id="path4777"
     inkscape:connector-curvature="0"
     style="fill:#192c7d;stroke-width:0.20001015" />
  <path
     d="m 8.7081754,11.712178 0.756239,-0.117406 0.336217,-0.290015 z m -4.4402245,-3.1601601 0.055803,-0.17441 -0.016002,-0.960048 z m 0.3062156,-1.18346 -0.2504126,1.00905 0.4540229,1.200062 -0.2222115,-1.390071 z"
     id="path4779"
     inkscape:connector-curvature="0"
     style="fill:#162467;stroke-width:0.20001015" />
  <path
     d="m 4.7771771,9.5780699 0.374619,0.0526 -0.2624139,-0.612431 z"
     id="path4781"
     inkscape:connector-curvature="0"
     style="fill:#1a236a;stroke-width:0.20001015" />
  <path
     d="m 10.212452,10.985141 -0.4118206,0.320017 -0.336217,0.290014 0.7764386,-0.426222 z m -2.2035114,0.837842 0.5870298,0.0164 0.868444,-0.244613 -0.756239,0.117407 z M 5.1267947,10.274505 5.520414,10.350105 5.1517961,9.6300679 Z"
     id="path4783"
     inkscape:connector-curvature="0"
     style="fill:#132668;stroke-width:0.20001015" />
  <path
     d="m 6.8362814,11.236554 -0.6666341,-0.513226 -0.277014,0.266614 0.9282471,0.599029 z M 4.4701615,9.3254569 4.917384,10.205502 4.7773764,9.5780699 Z M 4.2673513,8.5524179 4.4701615,9.3254569 4.3231537,8.3780089 Z m 3.7269883,2.7883411 -1.1580582,-0.104205 0.4892243,0.228812 -0.5046253,0.123605 -0.6074307,-0.189208 0.6716337,0.292214 1.1238572,0.131807 0.7000358,-0.110806 z M 5.1517961,9.6306719 4.7779766,9.5780719 5.1275943,10.274507 Z M 4.5555653,8.1875989 4.7779766,9.5780699 4.8901824,9.0180409 Z M 5.520414,10.350109 5.1267947,10.274509 4.9179836,10.205499 5.2332,10.63052 5.6694218,11.030541 6.2134497,11.39976 5.8934333,10.990739 Z"
     id="path4785"
     inkscape:connector-curvature="0"
     style="fill:#1b2268;stroke-width:0.20001015" />
  <path
     d="m 4.5735663,7.3689579 0.528627,0.81784 -0.036605,-1.348267 z"
     id="path4787"
     inkscape:connector-curvature="0"
     style="fill:#212a81;stroke-width:0.20001015" />
  <path
     d="m 4.5555653,8.1875989 0.3338169,0.830642 0.2128111,-0.831443 z"
     id="path4789"
     inkscape:connector-curvature="0"
     style="fill:#21267a;stroke-width:0.20001015" />
  <path
     d="m 4.8893822,9.0182409 0.2128111,-0.831443 0.2642138,0.657035 z"
     id="path4791"
     inkscape:connector-curvature="0"
     style="fill:#262781;stroke-width:0.20001015" />
  <path
     d="M 5.1517961,9.6306719 6.165447,10.258904 5.3664071,8.8438329 Z"
     id="path4793"
     inkscape:connector-curvature="0"
     style="fill:#272379;stroke-width:0.20001015" />
  <path
     d="m 4.9179836,10.205502 0.2094108,0.06901 -0.3494178,-0.6964351 z m 2.2389137,0.361418 -0.3200167,0.669634 1.1580597,0.104205 z M 5.1517961,9.6306719 5.520414,10.350709 l 0.3722193,0.640033 0.277014,-0.266614 -0.00421,-0.464423 z"
     id="path4795"
     inkscape:connector-curvature="0"
     style="fill:#1e226d;stroke-width:0.20001015" />
  <path
     d="m 9.8504334,10.668725 -0.0498,0.636032 0.4118206,-0.320015 z m -1.7722892,-0.0914 -0.084204,0.763438 0.9842492,-0.264213 -0.03501,-0.858244 z"
     id="path4797"
     inkscape:connector-curvature="0"
     style="fill:#222475;stroke-width:0.20001015" />
  <path
     d="m 4.5555653,8.1875989 h 0.546628 l -0.528627,-0.817841 z m 4.3876221,2.0307031 0.03501,0.858244 0.872244,-0.407821 z"
     id="path4799"
     inkscape:connector-curvature="0"
     style="fill:#23277d;stroke-width:0.20001015" />
  <path
     d="m 8.9431874,10.218302 0.561429,-0.5084261 0.345817,0.9588491 z"
     id="path4801"
     inkscape:connector-curvature="0"
     style="fill:#1e2776;stroke-width:0.20001015" />
  <path
     d="M 9.8504334,10.668725 10.274855,9.3832599 9.5046164,9.7098759 Z"
     id="path4803"
     inkscape:connector-curvature="0"
     style="fill:#222b86;stroke-width:0.20001015" />
  <path
     d="M 10.725078,10.087496 9.8504334,10.668725 10.274855,9.3832599 Z"
     id="path4805"
     inkscape:connector-curvature="0"
     style="fill:#192974;stroke-width:0.20001015" />
  <path
     d="m 11.152299,9.5122669 -0.877444,-0.129007 0.450223,0.7042361 0.430222,-0.0822 z"
     id="path4807"
     inkscape:connector-curvature="0"
     style="fill:#172a75;stroke-width:0.20001015" />
  <path
     d="m 11.213302,8.8214309 -0.938447,0.561829 0.877444,0.129007 0.494225,-0.830843 z"
     id="path4809"
     inkscape:connector-curvature="0"
     style="fill:#172d7d;stroke-width:0.20001015" />
  <path
     d="M 4.6589706,6.6195199 5.0603913,5.7930779 4.520364,6.6711229 Z m 6.2043144,1.023052 0.350017,1.178659 0.260013,-0.744038 z"
     id="path4811"
     inkscape:connector-curvature="0"
     style="fill:#18338a;stroke-width:0.20001015" />
  <path
     d="m 11.473916,8.0773939 -0.242613,-0.930647 -0.368018,0.496025 z"
     id="path4813"
     inkscape:connector-curvature="0"
     style="fill:#153791;stroke-width:0.20001015" />
  <path
     d="m 10.274855,9.3832599 0.938447,-0.561829 -0.909445,-0.40482 z"
     id="path4815"
     inkscape:connector-curvature="0"
     style="fill:#1b318b;stroke-width:0.20001015" />
  <path
     d="m 10.274855,9.3832599 -0.8504426,-0.859243 0.0802,1.185859 z"
     id="path4817"
     inkscape:connector-curvature="0"
     style="fill:#242d8d;stroke-width:0.20001015" />
  <path
     d="m 8.9431874,10.218302 -0.653033,-0.5782291 1.214462,0.0698 z"
     id="path4819"
     inkscape:connector-curvature="0"
     style="fill:#2a2b8f;stroke-width:0.20001015" />
  <path
     d="m 5.1517961,9.6306719 0.214611,-0.786839 -0.4770249,0.174408 z m 3.1383583,0.009 -0.2120102,0.9376481 0.8646432,-0.359019 z"
     id="path4821"
     inkscape:connector-curvature="0"
     style="fill:#27267f;stroke-width:0.20001015" />
  <path
     d="M 6.9384861,9.8318829 6.3100546,9.5122669 6.165447,10.258904 l 0.9908503,0.308016 0.9222469,0.0104 z"
     id="path4823"
     inkscape:connector-curvature="0"
     style="fill:#2d2381;stroke-width:0.20001015" />
  <path
     d="M 8.0785442,10.577321 8.2901544,9.6400729 6.9384861,9.8318829 Z"
     id="path4825"
     inkscape:connector-curvature="0"
     style="fill:#2f2485;stroke-width:0.20001015" />
  <path
     d="M 5.1021933,8.1867979 5.3732069,7.3211559 5.0655916,6.8385309 Z"
     id="path4827"
     inkscape:connector-curvature="0"
     style="fill:#233196;stroke-width:0.20001015" />
  <path
     d="M 5.6600212,6.5847179 6.8500816,6.2379009 6.2214499,7.5221659 Z"
     id="path4829"
     inkscape:connector-curvature="0"
     style="fill:#293cb7;stroke-width:0.20001015" />
  <path
     d="M 10.274855,9.3832599 9.4244124,8.5240169 10.303857,8.4166109 Z"
     id="path4831"
     inkscape:connector-curvature="0"
     style="fill:#25339c;stroke-width:0.20001015" />
  <path
     d="m 11.213302,8.8214309 -0.350017,-1.178659 -0.559428,0.773839 z"
     id="path4833"
     inkscape:connector-curvature="0"
     style="fill:#19348f;stroke-width:0.20001015" />
  <path
     d="m 9.5046164,9.7098759 -0.97265,-0.940447 0.892446,-0.245412 z"
     id="path4835"
     inkscape:connector-curvature="0"
     style="fill:#2a309a;stroke-width:0.20001015" />
  <path
     d="m 8.2901544,9.6400729 1.214462,0.0698 -0.97265,-0.940447 z"
     id="path4837"
     inkscape:connector-curvature="0"
     style="fill:#302b96;stroke-width:0.20001015" />
  <path
     d="M 8.2901544,9.6400729 7.6251209,9.0984449 8.5319664,8.7694289 Z"
     id="path4839"
     inkscape:connector-curvature="0"
     style="fill:#3630a7;stroke-width:0.20001015" />
  <path
     d="m 5.5732172,5.3036529 0.073404,-0.164608 -0.5862296,0.654233 z m 5.0694558,1.396871 0.220012,0.942248 0.368018,-0.496025 z"
     id="path4841"
     inkscape:connector-curvature="0"
     style="fill:#173da2;stroke-width:0.20001015" />
  <path
     d="m 5.6600212,6.5847179 0.5614287,0.937448 -0.848243,-0.20101 z"
     id="path4843"
     inkscape:connector-curvature="0"
     style="fill:#2a36a8;stroke-width:0.20001015" />
  <path
     d="m 5.3732069,7.3211559 0.848243,0.20101 -0.5736292,0.903446 z"
     id="path4845"
     inkscape:connector-curvature="0"
     style="fill:#312e9f;stroke-width:0.20001015" />
  <path
     d="M 6.8500816,6.2379009 7.3199051,5.2822519 6.4594622,5.7082739 Z"
     id="path4847"
     inkscape:connector-curvature="0"
     style="fill:#184dcd;stroke-width:0.20001015" />
  <path
     d="m 5.1021933,8.1867979 0.5456274,0.238814 -0.2814136,0.418221 z"
     id="path4849"
     inkscape:connector-curvature="0"
     style="fill:#272986;stroke-width:0.20001015" />
  <path
     d="M 5.6478207,8.4256119 5.3664071,8.8438329 6.165447,10.258904 6.3100546,9.5122669 Z"
     id="path4851"
     inkscape:connector-curvature="0"
     style="fill:#2c2584;stroke-width:0.20001015" />
  <path
     d="m 6.3100546,9.5122669 0.088404,-1.314667 -0.7506381,0.228012 z"
     id="path4853"
     inkscape:connector-curvature="0"
     style="fill:#32268b;stroke-width:0.20001015" />
  <path
     d="M 6.3100546,9.5122669 7.6251209,9.0984449 6.3984588,8.1975999 Z"
     id="path4855"
     inkscape:connector-curvature="0"
     style="fill:#372999;stroke-width:0.20001015" />
  <path
     d="M 7.6251209,9.0984449 7.496914,8.0819939 6.3984588,8.1975999 Z"
     id="path4857"
     inkscape:connector-curvature="0"
     style="fill:#392da5;stroke-width:0.20001015" />
  <path
     d="m 7.496914,8.0819939 0.9276474,-0.346818 0.107405,1.034253 z"
     id="path4859"
     inkscape:connector-curvature="0"
     style="fill:#3338bc;stroke-width:0.20001015" />
  <path
     d="M 6.9384861,9.8318829 8.2901544,9.6400729 7.6251209,9.0984449 Z"
     id="path4861"
     inkscape:connector-curvature="0"
     style="fill:#362896;stroke-width:0.20001015" />
  <path
     d="M 6.9384861,9.8318829 6.3100546,9.5122669 7.6251209,9.0984449 Z"
     id="path4863"
     inkscape:connector-curvature="0"
     style="fill:#35268f;stroke-width:0.20001015" />
  <path
     d="m 6.8500816,6.2379009 0.8054412,0.0852 -0.3356177,-1.040853 z"
     id="path4865"
     inkscape:connector-curvature="0"
     style="fill:#2648d3;stroke-width:0.20001015" />
  <path
     d="M 8.0705437,5.5866669 7.3199051,5.2822519 7.6555228,6.3231049 Z"
     id="path4867"
     inkscape:connector-curvature="0"
     style="fill:#1057dc;stroke-width:0.20001015" />
  <path
     d="m 8.0705437,5.5866669 0.7994397,0.547828 -1.2144606,0.18861 z"
     id="path4869"
     inkscape:connector-curvature="0"
     style="fill:#1653da;stroke-width:0.20001015" />
  <path
     d="m 7.6555228,6.3231049 1.1912596,0.631832 -0.422221,0.780239 z"
     id="path4871"
     inkscape:connector-curvature="0"
     style="fill:#2b46d5;stroke-width:0.20001015" />
  <path
     d="m 8.8467824,6.9549369 0.0232,-0.820442 -1.2144614,0.18861 z"
     id="path4873"
     inkscape:connector-curvature="0"
     style="fill:#244ad7;stroke-width:0.20001015" />
  <path
     d="m 8.8467824,6.9549369 0.0232,-0.820442 0.841442,0.412021 z"
     id="path4875"
     inkscape:connector-curvature="0"
     style="fill:#2547cf;stroke-width:0.20001015" />
  <path
     d="M 7.6555228,6.3231049 8.4245614,7.7351759 7.0758933,7.0595419 Z"
     id="path4877"
     inkscape:connector-curvature="0"
     style="fill:#333cc5;stroke-width:0.20001015" />
  <path
     d="M 7.496914,8.0819939 8.4245614,7.7351759 7.0758933,7.0595419 Z"
     id="path4879"
     inkscape:connector-curvature="0"
     style="fill:#3833b6;stroke-width:0.20001015" />
  <path
     d="m 8.4245614,7.7351759 1.18946,-0.217411 -0.767239,-0.562828 z"
     id="path4881"
     inkscape:connector-curvature="0"
     style="fill:#2a41c6;stroke-width:0.20001015" />
  <path
     d="m 9.7114264,6.5465159 -0.09741,0.971249 -0.767239,-0.562828 z"
     id="path4883"
     inkscape:connector-curvature="0"
     style="fill:#2045c1;stroke-width:0.20001015" />
  <path
     d="m 9.7114264,6.5465159 0.5614286,0.762639 -0.6588336,0.20861 z"
     id="path4885"
     inkscape:connector-curvature="0"
     style="fill:#1b43b7;stroke-width:0.20001015" />
  <path
     d="M 10.642673,6.7005239 9.7114264,6.5465159 10.272855,7.3091549 Z"
     id="path4887"
     inkscape:connector-curvature="0"
     style="fill:#1742af;stroke-width:0.20001015" />
  <path
     d="m 5.8980334,5.6148689 0.3600187,-0.78004 -0.6836345,0.467824 z m 4.7456396,1.085655 -0.369818,0.608631 0.59043,0.333617 z"
     id="path4889"
     inkscape:connector-curvature="0"
     style="fill:#1740a9;stroke-width:0.20001015" />
  <path
     d="m 10.303857,8.4166109 0.559428,-0.773839 -0.59043,-0.333617 z"
     id="path4891"
     inkscape:connector-curvature="0"
     style="fill:#1b3ca4;stroke-width:0.20001015" />
  <path
     d="m 10.303857,8.4166109 -0.031,-1.107456 -0.6588336,0.20861 z"
     id="path4893"
     inkscape:connector-curvature="0"
     style="fill:#1f3dad;stroke-width:0.20001015" />
  <path
     d="M 5.6600212,6.5847179 6.8500816,6.2379009 6.4594622,5.7082739 Z m 2.7645402,1.150458 1.000051,0.788841 0.189609,-1.006252 z"
     id="path4895"
     inkscape:connector-curvature="0"
     style="fill:#2543c3;stroke-width:0.20001015" />
  <path
     d="m 8.5319664,8.7694289 0.892446,-0.245412 -0.999851,-0.788841 z"
     id="path4897"
     inkscape:connector-curvature="0"
     style="fill:#2e37b2;stroke-width:0.20001015" />
  <path
     d="m 6.8500816,6.2379009 0.2258117,0.821641 0.5796295,-0.736437 z"
     id="path4899"
     inkscape:connector-curvature="0"
     style="fill:#2d40c7;stroke-width:0.20001015" />
  <path
     d="M 6.8500816,6.2379009 6.2214499,7.5221659 7.0758933,7.0595419 Z"
     id="path4901"
     inkscape:connector-curvature="0"
     style="fill:#3537b8;stroke-width:0.20001015" />
  <path
     d="M 7.0758933,7.0595419 6.3984588,8.1975999 7.496914,8.0819939 Z"
     id="path4903"
     inkscape:connector-curvature="0"
     style="fill:#3931b0;stroke-width:0.20001015" />
  <path
     d="m 7.496914,8.0819939 0.1282069,1.016451 0.9068455,-0.329016 z m -1.0988555,0.115606 0.6774349,-1.138058 -0.8544438,0.462624 z"
     id="path4905"
     inkscape:connector-curvature="0"
     style="fill:#3735b8;stroke-width:0.20001015" />
  <path
     d="m 5.6478207,8.4256119 0.5736292,-0.903446 0.1770089,0.675434 z"
     id="path4907"
     inkscape:connector-curvature="0"
     style="fill:#342892;stroke-width:0.20001015" />
  <path
     d="m 6.2134497,11.399763 0.6074307,0.190009 -0.9282471,-0.59903 z m -0.043802,-0.675635 0.666634,0.513226 0.3200159,-0.669634 -0.9908501,-0.308015 z m 1.8246922,0.617431 0.084205,-0.763438 -0.9222469,-0.0104 z m 0.9838498,-0.265013 -0.270014,0.635632 1.092456,-0.407421 z"
     id="path4909"
     inkscape:connector-curvature="0"
     style="fill:#232372;stroke-width:0.20001015" />
  <path
     d="m 5.1021933,8.1867979 0.2710136,-0.865642 0.2746138,1.104456 z"
     id="path4911"
     inkscape:connector-curvature="0"
     style="fill:#2a2f96;stroke-width:0.20001015" />
  <path
     d="m 5.3732069,7.3211559 0.2868143,-0.736438 -0.5942297,0.254813 z m 4.2402145,0.196609 -0.18961,1.006252 0.8800456,-0.107406 z"
     id="path4913"
     inkscape:connector-curvature="0"
     style="fill:#2636a5;stroke-width:0.20001015" />
  <path
     d="m 11.813133,8.4758139 v -0.0016 l -0.0348,-1.146858 v -0.004 l -0.172408,-0.572208 v -0.0012 l -0.493225,-0.93083 -0.568428,-0.60083 h -0.0012 l -0.5987926,-0.42741 h -0.0024 l -0.520028,-0.204014 h -0.0036 l -0.624043,-0.222051 h -0.0042 l -1.0274517,-0.0654 h -0.00434 l -0.6480323,0.117006 h -0.0024 l -0.528226,0.162408 h -0.00341 l -0.9381363,0.545628 -0.5860302,0.653833 -0.5400268,0.877845 v 0.0022 l -0.212811,0.747238 v 0.0028 l -0.040004,1.133857 v 0.0054 l 0.2026098,0.77244 v 0.0026 l 0.4470232,0.8800451 v 0.0014 l 0.3092155,0.435622 v 10e-4 l 0.4360219,0.40002 h 0.00122 l 0.5446281,0.368419 h 0.00122 l 0.671636,0.291927 h 0.00419 l 1.1238572,0.131807 h 0.00163 l 0.5868296,0.0164 h 0.0046 l 0.868445,-0.244812 h 0.003 l 0.7760386,-0.426021 0.0014,-0.001 h 10e-4 l 0.500025,-0.426022 0.38722,-0.462224 0.0014,-0.002 0.547627,-1.0720551 v -0.0042 l 0.120007,-0.733037 v -0.0018 z M 5.6794225,11.017143 5.5664167,10.913537 5.82043,11.112547 Z m 1.6484831,0.430622 -0.39702,-0.18561 0.9400478,0.0846 z m 0.1446078,-3.3801721 -1.042053,0.109605 0.6426323,-1.080054 z m -0.3636182,-0.972649 1.2732642,0.637832 -0.8758442,0.326816 z m 0.3732186,1.005651 0.1212063,0.960048 -1.160059,-0.851443 z m 0.1060053,0.99165 -1.2600641,0.39642 0.084605,-1.260063 z m -0.070005,-0.975649 0.9762503,0.648233 -0.8552432,0.310415 z m 0.015604,-0.0304 0.8760443,-0.327617 0.101406,0.97685 z m 1.3458693,-1.128258 0.811841,-0.383219 -0.0916,0.911846 z m 0.692434,0.550228 -1.116056,0.20401 0.39642,-0.732637 z m -1.147858,0.191409 -0.7260368,-1.335067 1.1262578,0.597231 z m -0.04001,-0.0038 -1.281665,-0.642033 0.5508289,-0.700034 z M 6.4050599,8.1541759 6.2416518,7.5305439 7.030292,7.1037229 Z M 6.2970545,9.4578419 5.673823,8.4355899 6.3798587,8.2209789 Z m 1.2718646,-0.323816 -0.6336329,0.676834 -0.580029,-0.294815 z m 0.9382473,-0.337418 -0.226011,0.814041 -0.6230319,-0.506425 z m -0.06121,-1.023251 0.942047,0.743037 -0.840042,0.231411 z m 0.01881,-0.0284 1.128258,-0.206011 -0.180009,0.954248 z m 1.16906,-0.251014 0.09041,-0.901845 0.5212256,0.708036 z m 0.6230306,-0.162007 0.02881,1.032652 -0.6432306,-0.837843 z m -1.3918696,-0.404222 0.0216,-0.766437 0.78624,0.385019 z m -0.034,0 -1.1220571,-0.595229 1.1438591,-0.177609 z m -1.7472879,0.0954 -0.2102108,-0.765238 0.7502379,0.08 z m -0.027402,0.0286 -0.7962407,0.430222 0.5856292,-1.196261 z m -0.6782361,1.134456 -0.691035,0.21001 0.5282266,-0.832242 z m -0.1250069,1.264663 -0.8632435,-0.61123 0.2574128,-0.38222 z m 0.069604,0.08681 0.5800297,0.294815 -0.7132363,0.3940191 z m 1.3042661,-0.416021 0.6228308,0.507225 -1.2656633,0.18001 z m 0.9140458,-0.320017 0.920046,0.888845 -1.147858,-0.0658 z m 0.0244,-0.0236 0.843643,-0.232011 0.0758,1.121256 z m 1.058454,-1.220062 0.6486326,0.845043 -0.8268416,0.100005 z m 0.6670336,-0.220011 0.547428,0.310215 -0.520027,0.717837 z m 0.0058,-0.0356 0.340017,-0.558228 0.20161,0.864844 z m -0.02501,-0.0244 -0.5216266,-0.708436 0.8654446,0.143007 z m -1.3714696,-1.148458 0.612631,-0.554628 0.175809,0.941048 z m -1.2124611,0.170809 0.3888203,-0.689835 0.7488378,0.513226 z m -0.8116402,-0.0768 0.4400223,-0.896046 0.3148154,0.97605 z M 6.2200452,7.4865439 5.6860186,6.5948979 6.8178759,6.2648819 Z m -0.565228,0.896645 -0.2584135,-1.039053 0.7980405,0.189009 z M 5.3702021,8.8076109 5.1333909,8.2195799 5.6224153,8.4335919 Z M 6.2912491,9.5196469 6.1580425,10.210282 5.4180048,8.9014149 Z M 6.928281,9.8566629 7.1308913,10.541099 6.2084449,10.254284 Z M 8.2683484,9.6600539 8.0673392,10.549698 6.9854843,9.8420629 Z m 1.194861,0.0642 -0.520026,0.4710241 -0.605031,-0.5356271 z m -0.01881,-1.156259 0.8000396,0.809241 -0.7254356,0.307616 z m 0.0164,-0.0316 0.8254416,-0.100005 -0.028,0.906845 z m 1.3960706,-0.855843 0.329617,1.110256 -0.856844,-0.381219 z m -0.187009,-0.938448 0.537827,0.407821 -0.336217,0.453223 z m -0.9256476,-0.20741 0.5000256,-0.571829 0.368618,0.715236 z m -0.0226,-0.02581 -0.174608,-0.934646 0.6732336,0.363418 z m -0.853038,-0.39599 -0.7456382,-0.510826 1.3552682,-0.0412 z M 7.6599142,6.2809019 7.347298,5.3116539 8.0463339,5.5950679 Z m -0.8128409,-0.0756 -0.3618182,-0.490825 0.7974399,-0.39502 z m -0.025005,0.0232 -1.1088558,0.323216 0.7448376,-0.816641 z m -0.635832,1.267864 -0.7900403,-0.18721 0.2672138,-0.685834 z m -0.5632259,0.900042 -0.500025,-0.219012 0.2486125,-0.79344 z m -0.278814,0.437422 -0.4302215,0.157408 0.1918095,-0.750038 z M 6.1180357,10.209499 5.1715876,9.6228689 5.3715979,8.8880329 Z M 7.0818846,10.561517 6.186439,10.703525 6.182619,10.281903 Z M 6.9678788,9.8712829 8.0207324,10.559717 7.1688891,10.550113 Z m 1.3326676,-0.200011 0.611031,0.5412271 -0.8092418,0.336018 z m 1.19766,0.0684 0.323017,0.8952461 -0.847243,-0.420021 z m 0.02881,-0.02001 0.7200376,-0.305615 -0.3972196,1.2030611 z m 0.7940406,-1.276865 0.856644,0.381219 -0.883845,0.529228 z m 0.57343,-0.757238 0.560028,0.39862 -0.240012,0.682635 z m -0.0062,-0.0462 0.336617,-0.453623 0.221811,0.851243 z m -0.224811,-0.944848 0.154807,-0.485024 0.372219,0.885644 z m -0.0234,-0.0378 -0.357219,-0.691235 0.512826,0.20501 z m -1.0554556,-1.100054 0.7458376,-0.0488 -0.094,0.400021 z m -1.4766753,0.013 0.5250273,-0.651433 0.841642,0.60983 z m -0.030999,-0.0156 -0.2704139,-0.708237 0.7900402,0.0636 z m -0.0352,0.0032 -0.6906353,-0.280014 0.4234221,-0.420022 z m -1.5516783,0.118606 0.2970144,-0.856843 0.5042261,0.460023 z m -0.7966406,0.849446 0.2174105,-0.890246 0.5162266,0.08581 z m -0.3228163,0.760038 -0.278814,-0.437822 0.538827,-0.230012 z m -0.0148,0.04001 L 5.117399,8.0853959 5.085396,6.9001349 Z M 5.0811878,8.2054109 4.8867776,8.9654489 4.5817619,8.2054109 Z m -0.5072257,-0.0332 0.016201,-0.745838 0.4818242,0.745238 z m 0.7684386,0.700035 -0.1942098,0.707437 -0.2360117,-0.551428 z m 0.7752396,1.3776701 -0.5866298,0.083 -0.3352167,-0.6544321 z m 0.032004,0.0296 0.00382,0.415622 -0.5800288,-0.333815 z m 0.9782487,0.31042 -0.2978145,0.620431 -0.6188312,-0.476424 z m 0.034797,0.0062 0.7836397,0.723636 -1.0842548,-0.0976 z m 0.038402,-0.0106 0.8600437,0.0098 -0.078404,0.711436 z m 1.7270874,-0.340017 0.0328,0.803641 -0.842843,-0.469423 z m 0.0342,0.003 0.850042,0.422021 -0.817241,0.38202 z M 10.280845,9.4248769 10.702866,10.08491 9.8828254,10.629738 Z m 0.0294,-0.0172 0.812442,0.120006 -0.396621,0.5300271 z m 0.015,-0.03201 0.869245,-0.520027 -0.0566,0.640032 z m 1.148059,-1.240063 0.153407,0.537027 -0.385019,0.124406 z m -0.205211,-0.916047 0.440022,0.554428 -0.226011,0.266814 z m -0.412021,-1.009851 0.571829,0.418821 -0.19661,0.473424 z m -0.589231,-0.287861 0.0922,-0.393019 0.411621,0.59443 z m -0.7286376,-0.39722 -0.100004,-0.60003 0.8600426,0.550828 z m -0.0378,-0.02 -0.820041,-0.593831 0.720037,-0.0046 z m -1.6670843,-0.691627 0.5350263,-0.328417 0.229812,0.390021 z m -0.5138265,0.446423 -0.4954249,-0.452023 0.9162464,0.0344 z M 6.4480458,5.6892429 5.9336197,5.6036429 6.73986,4.8476049 Z M 5.65001,6.5547119 5.1235834,6.1272909 5.8706208,5.6516669 Z m -0.022402,0.0256 -0.5438274,0.232011 0.0264,-0.652232 z M 5.0835804,8.1267929 4.5949553,7.3709549 5.0497782,6.8805299 Z m -0.211811,0.892846 -0.092605,0.462423 -0.1830098,-1.148258 z m 0.023598,0.0552 0.229012,0.534628 -0.3264169,-0.0456 z m 0.5940305,1.2518651 -0.345218,-0.067 0.021998,-0.5644291 z m 0.6522329,0.400019 -0.2452124,0.235812 -0.3294168,-0.566229 z m 0.029201,0.01881 0.5890305,0.454223 -0.8338425,-0.218011 z m 1.9216977,-0.141207 0.8400429,0.466424 -0.9200476,0.247011 z m 1.7386879,0.0918 -0.046,0.58663 -0.758239,-0.21061 z M 10.67486,10.141098 10.208036,10.95974 9.8782194,10.670525 Z m 0.460024,-0.5780281 0.0024,0.428021 -0.373419,0.0714 z m 0.0936,-0.729038 0.38002,-0.122806 -0.432823,0.728437 z m 0.263413,-0.752838 0.215612,-0.254213 -0.06921,0.762639 z m -0.241812,-0.937248 0.193609,-0.466223 0.250814,1.025852 z m -0.411821,-0.988049 0.136008,-0.237413 0.40982,0.637232 z m -0.0236,-0.027 -0.40242,-0.580029 0.538428,0.343217 z m -1.3498676,-1.227862 0.407221,-0.0434 0.4120206,0.568229 z m -0.827045,-0.024 -0.224211,-0.381019 0.916847,0.376818 z m -0.8524432,-0.07481 -0.1800095,-0.316416 0.7076357,-0.0072 z m -0.035999,0.0054 -0.8912458,-0.0334 0.7102363,-0.283815 z m -1.8000941,0.735238 0.3200162,-0.691036 0.4628229,-0.0422 z m -0.057403,0.0432 -0.2916148,-0.280014 0.615631,-0.421222 z m -0.021804,0.026 -0.725437,0.461824 0.4334218,-0.743038 z m -0.8200424,1.19866 -0.364018,-0.195809 0.3900192,-0.442223 z m -0.0114,0.0322 -0.442422,0.476624 0.076803,-0.673035 z m -0.5006254,1.336669 -0.1870096,0.152809 0.2014105,-0.811042 z m 0.0046,0.04001 0.1908101,1.19726 -0.3910196,-1.033251 z M 5.1333709,9.6454739 5.1115729,10.208102 4.8067562,9.5996699 Z m 0.3754179,0.7200341 0.311216,0.534227 -0.6388328,-0.596831 z m 1.3092661,0.884044 -0.013403,0.309016 -0.8144416,-0.525426 z m 0.033402,0.0132 0.4228214,0.197609 -0.4360217,0.106605 z m 1.1258571,0.0984 0.013201,0.433422 -0.6142313,-0.321416 z m 0.9710544,-0.259971 -0.249212,0.586631 -0.6588333,-0.342619 z m 0.04001,-0.0052 0.757838,0.210411 -1.00645,0.375419 z m 0.876845,-0.39302 0.3210156,0.280015 -0.3658176,0.284814 z m 0.8712436,-0.60103 0.370019,-0.0708 -0.811241,0.843243 z m 0.435822,-0.1636091 -0.0026,-0.417421 0.341416,-0.20861 z m 0.03001,-0.477024 0.414021,-0.695634 -0.07621,0.489824 z m 0.528427,-1.504076 0.0484,0.512026 -0.109605,0.151408 z m -0.252413,-1.282264 0.09461,0.0888 0.0948,0.686035 z m -0.480024,-0.78244 0.089,-0.0448 0.257613,0.58383 z m -0.623434,-0.408833 0.156407,-0.223811 0.38282,0.567829 z m -0.0244,-0.0244 -0.4076216,-0.562429 0.5644286,0.338217 z m -0.9182456,-0.588827 -0.0026,-0.244413 0.39282,0.202811 z m -0.03401,-0.0066 -0.897846,-0.368819 0.895246,0.117806 z M 7.6223097,4.4516369 7.765316,4.3290309 8.2391401,4.4456369 Z m -0.7800414,0.292789 0.2778152,-0.300015 0.384419,0.0346 z m -0.071799,0.0276 -0.4200205,0.0382 0.6910351,-0.329217 z m -1.1572576,0.483625 0.046399,-0.104206 0.3862198,-0.19181 z m -0.5070266,0.816441 -0.028199,-0.272614 0.4200219,-0.40002 z m -0.029201,0.048 -0.3484172,0.39502 0.3210157,-0.660033 z m -0.519026,1.234462 -0.2224114,0.0414 0.2938146,-0.667034 z m -0.0074,0.036 L 4.337947,8.2475969 4.324348,7.4325559 Z M 4.7379649,9.5244759 4.4851521,9.3164649 4.3639462,8.5364259 Z M 5.0923829,10.244512 4.9309742,10.191502 4.8229689,9.7076779 Z M 5.782618,10.910145 5.2469907,10.619731 5.1607867,10.330117 Z m 0.098005,0.09201 0.2322117,0.296016 -0.7100356,-0.556229 z m 0.086804,0.0558 0.7386379,0.476624 -0.4834243,-0.151208 z m 1.355069,0.424421 0.5740289,0.300015 -0.9978502,-0.19661 z M 8.0115315,11.36817 8.6539634,11.702387 8.024531,11.802393 Z m 1.7056859,-0.0156 -0.260013,0.225212 -0.58703,0.09101 z m 0.4820236,-0.337216 0.0218,0.140006 -0.3372166,0.104206 z m 0.875044,-0.903246 -0.346017,0.617231 -0.441422,0.20301 z m 0.09681,-0.102806 0.232212,-0.4290211 -0.248212,0.5886291 z m 0.490825,-1.3220661 0.0876,-0.121207 -0.140008,0.463624 z m 0.08441,-0.914447 -0.0012,-0.009 0.0088,-0.114806 0.0088,0.297414 z m -0.0234,-0.169008 -0.0876,-0.635632 0.108605,0.360017 z m -0.260015,-0.991251 -0.160008,-0.363019 0.224011,0.423022 z m -0.482824,-0.749638 -0.320017,-0.474224 0.408021,0.430021 z m -1.0684546,-1.023452 0.0214,-0.0154 0.2452116,0.175409 z m -0.0324,-0.0186 -0.166207,-0.0858 0.184809,0.0726 z m -1.40327,-0.363418 0.311615,-0.064 0.468824,0.166808 z m -0.101606,-0.0136 -0.4242209,-0.104406 0.7112359,0.0452 z m -0.8036385,0.0078 -0.3308163,-0.0298 0.463023,-0.0836 z m -1.1674589,0.295615 0.1892095,-0.141807 0.3052157,-0.094 z m -0.1554084,0.074 -0.1642082,0.0816 0.2524131,-0.147608 z m -0.6888501,0.472429 -0.1948094,0.186009 0.2226107,-0.248412 z m -0.9124459,1.312666 -0.086604,0.03201 0.3366169,-0.546627 z m -0.1128053,0.0778 0.093405,-0.0346 -0.2362121,0.536627 z m -0.2326121,1.39267 0.00481,0.298616 -0.017203,0.0544 z m 0.016201,0.37502 0.085205,0.549028 -0.117406,-0.448024 z M 4.7619645,9.5874789 4.8713702,10.077504 4.5219525,9.3900699 Z m 0.3510179,0.7000361 0.076004,0.255612 -0.2262114,-0.305015 z m 1.696886,1.315466 0.031596,0.0506 -0.332017,-0.144408 z m 0.085204,0.07201 -0.040006,-0.06201 0.7222365,0.142207 z m 1.76929,0.06001 -0.07601,0.086 -0.3964196,-0.011 z m 0.0526,-0.0082 0.472624,-0.0734 -0.542828,0.152808 z m 1.092056,-0.408221 0.2772126,-0.0856 -0.4880246,0.269414 z m 0.4440216,-0.183809 -0.0218,-0.140007 0.405021,-0.18621 z m 0.877245,-1.051654 -0.019,0.18901 -0.266414,0.317817 z m 0.438621,-0.8060401 0.06841,-0.033 -0.313416,0.615632 z m 0.09101,-0.0816 -0.0768,0.0372 0.154408,-0.508026 z"
     id="path4915"
     inkscape:connector-curvature="0"
     style="fill:url(#a);stroke-width:0.20001015" />
  <path
     d="m 11.813133,8.4758139 v -0.0016 l -0.0348,-1.146858 v -0.004 l -0.172408,-0.572208 v -0.0012 l -0.493225,-0.93083 -0.568428,-0.60083 h -0.0012 l -0.5987926,-0.42741 h -0.0024 l -0.520028,-0.204014 h -0.0036 l -0.624043,-0.222051 h -0.0042 l -1.0274517,-0.0654 h -0.00434 l -0.6480323,0.117006 h -0.0024 l -0.528226,0.162408 h -0.00341 l -0.9381363,0.545628 -0.5860302,0.653833 -0.5400268,0.877845 v 0.0022 l -0.212811,0.747238 v 0.0028 l -0.040004,1.133857 v 0.0054 l 0.2026098,0.77244 v 0.0026 l 0.4470232,0.8800451 v 0.0014 l 0.3092155,0.435622 v 10e-4 l 0.4360219,0.40002 h 0.00122 l 0.5446281,0.368419 h 0.00122 l 0.671636,0.291927 h 0.00419 l 1.1238572,0.131807 h 0.00163 l 0.5868296,0.0164 h 0.0046 l 0.868445,-0.244812 h 0.003 l 0.7760386,-0.426021 0.0014,-0.001 h 10e-4 l 0.500025,-0.426022 0.38722,-0.462224 0.0014,-0.002 0.547627,-1.0720551 v -0.0042 l 0.120007,-0.733037 v -0.0018 z M 5.6794225,11.017143 5.5664167,10.913537 5.82043,11.112547 Z m 1.6484831,0.430622 -0.39702,-0.18561 0.9400478,0.0846 z m 0.1446078,-3.3801721 -1.042053,0.109605 0.6426323,-1.080054 z m -0.3636182,-0.972649 1.2732642,0.637832 -0.8758442,0.326816 z m 0.3732186,1.005651 0.1212063,0.960048 -1.160059,-0.851443 z m 0.1060053,0.99165 -1.2600641,0.39642 0.084605,-1.260063 z m -0.070005,-0.975649 0.9762503,0.648233 -0.8552432,0.310415 z m 0.015604,-0.0304 0.8760443,-0.327617 0.101406,0.97685 z m 1.3458693,-1.128258 0.811841,-0.383219 -0.0916,0.911846 z m 0.692434,0.550228 -1.116056,0.20401 0.39642,-0.732637 z m -1.147858,0.191409 -0.7260368,-1.335067 1.1262578,0.597231 z m -0.04001,-0.0038 -1.281665,-0.642033 0.5508289,-0.700034 z M 6.4050599,8.1541759 6.2416518,7.5305439 7.030292,7.1037229 Z M 6.2970545,9.4578419 5.673823,8.4355899 6.3798587,8.2209789 Z m 1.2718646,-0.323816 -0.6336329,0.676834 -0.580029,-0.294815 z m 0.9382473,-0.337418 -0.226011,0.814041 -0.6230319,-0.506425 z m -0.06121,-1.023251 0.942047,0.743037 -0.840042,0.231411 z m 0.01881,-0.0284 1.128258,-0.206011 -0.180009,0.954248 z m 1.16906,-0.251014 0.09041,-0.901845 0.5212256,0.708036 z m 0.6230306,-0.162007 0.02881,1.032652 -0.6432306,-0.837843 z m -1.3918696,-0.404222 0.0216,-0.766437 0.78624,0.385019 z m -0.034,0 -1.1220571,-0.595229 1.1438591,-0.177609 z m -1.7472879,0.0954 -0.2102108,-0.765238 0.7502379,0.08 z m -0.027402,0.0286 -0.7962407,0.430222 0.5856292,-1.196261 z m -0.6782361,1.134456 -0.691035,0.21001 0.5282266,-0.832242 z m -0.1250069,1.264663 -0.8632435,-0.61123 0.2574128,-0.38222 z m 0.069604,0.08681 0.5800297,0.294815 -0.7132363,0.3940191 z m 1.3042661,-0.416021 0.6228308,0.507225 -1.2656633,0.18001 z m 0.9140458,-0.320017 0.920046,0.888845 -1.147858,-0.0658 z m 0.0244,-0.0236 0.843643,-0.232011 0.0758,1.121256 z m 1.058454,-1.220062 0.6486326,0.845043 -0.8268416,0.100005 z m 0.6670336,-0.220011 0.547428,0.310215 -0.520027,0.717837 z m 0.0058,-0.0356 0.340017,-0.558228 0.20161,0.864844 z m -0.02501,-0.0244 -0.5216266,-0.708436 0.8654446,0.143007 z m -1.3714696,-1.148458 0.612631,-0.554628 0.175809,0.941048 z m -1.2124611,0.170809 0.3888203,-0.689835 0.7488378,0.513226 z m -0.8116402,-0.0768 0.4400223,-0.896046 0.3148154,0.97605 z M 6.2200452,7.4865439 5.6860186,6.5948979 6.8178759,6.2648819 Z m -0.565228,0.896645 -0.2584135,-1.039053 0.7980405,0.189009 z M 5.3702021,8.8076109 5.1333909,8.2195799 5.6224153,8.4335919 Z M 6.2912491,9.5196469 6.1580425,10.210282 5.4180048,8.9014149 Z M 6.928281,9.8566629 7.1308913,10.541099 6.2084449,10.254284 Z M 8.2683484,9.6600539 8.0673392,10.549698 6.9854843,9.8420629 Z m 1.194861,0.0642 -0.520026,0.4710241 -0.605031,-0.5356271 z m -0.01881,-1.156259 0.8000396,0.809241 -0.7254356,0.307616 z m 0.0164,-0.0316 0.8254416,-0.100005 -0.028,0.906845 z m 1.3960706,-0.855843 0.329617,1.110256 -0.856844,-0.381219 z m -0.187009,-0.938448 0.537827,0.407821 -0.336217,0.453223 z m -0.9256476,-0.20741 0.5000256,-0.571829 0.368618,0.715236 z m -0.0226,-0.02581 -0.174608,-0.934646 0.6732336,0.363418 z m -0.853038,-0.39599 -0.7456382,-0.510826 1.3552682,-0.0412 z M 7.6599142,6.2809019 7.347298,5.3116539 8.0463339,5.5950679 Z m -0.8128409,-0.0756 -0.3618182,-0.490825 0.7974399,-0.39502 z m -0.025005,0.0232 -1.1088558,0.323216 0.7448376,-0.816641 z m -0.635832,1.267864 -0.7900403,-0.18721 0.2672138,-0.685834 z m -0.5632259,0.900042 -0.500025,-0.219012 0.2486125,-0.79344 z m -0.278814,0.437422 -0.4302215,0.157408 0.1918095,-0.750038 z M 6.1180357,10.209499 5.1715876,9.6228689 5.3715979,8.8880329 Z M 7.0818846,10.561517 6.186439,10.703525 6.182619,10.281903 Z M 6.9678788,9.8712829 8.0207324,10.559717 7.1688891,10.550113 Z m 1.3326676,-0.200011 0.611031,0.5412271 -0.8092418,0.336018 z m 1.19766,0.0684 0.323017,0.8952461 -0.847243,-0.420021 z m 0.02881,-0.02001 0.7200376,-0.305615 -0.3972196,1.2030611 z m 0.7940406,-1.276865 0.856644,0.381219 -0.883845,0.529228 z m 0.57343,-0.757238 0.560028,0.39862 -0.240012,0.682635 z m -0.0062,-0.0462 0.336617,-0.453623 0.221811,0.851243 z m -0.224811,-0.944848 0.154807,-0.485024 0.372219,0.885644 z m -0.0234,-0.0378 -0.357219,-0.691235 0.512826,0.20501 z m -1.0554556,-1.100054 0.7458376,-0.0488 -0.094,0.400021 z m -1.4766753,0.013 0.5250273,-0.651433 0.841642,0.60983 z m -0.030999,-0.0156 -0.2704139,-0.708237 0.7900402,0.0636 z m -0.0352,0.0032 -0.6906353,-0.280014 0.4234221,-0.420022 z m -1.5516783,0.118606 0.2970144,-0.856843 0.5042261,0.460023 z m -0.7966406,0.849446 0.2174105,-0.890246 0.5162266,0.08581 z m -0.3228163,0.760038 -0.278814,-0.437822 0.538827,-0.230012 z m -0.0148,0.04001 L 5.117399,8.0853959 5.085396,6.9001349 Z M 5.0811878,8.2054109 4.8867776,8.9654489 4.5817619,8.2054109 Z m -0.5072257,-0.0332 0.016201,-0.745838 0.4818242,0.745238 z m 0.7684386,0.700035 -0.1942098,0.707437 -0.2360117,-0.551428 z m 0.7752396,1.3776701 -0.5866298,0.083 -0.3352167,-0.6544321 z m 0.032004,0.0296 0.00382,0.415622 -0.5800288,-0.333815 z m 0.9782487,0.31042 -0.2978145,0.620431 -0.6188312,-0.476424 z m 0.034797,0.0062 0.7836397,0.723636 -1.0842548,-0.0976 z m 0.038402,-0.0106 0.8600437,0.0098 -0.078404,0.711436 z m 1.7270874,-0.340017 0.0328,0.803641 -0.842843,-0.469423 z m 0.0342,0.003 0.850042,0.422021 -0.817241,0.38202 z M 10.280845,9.4248769 10.702866,10.08491 9.8828254,10.629738 Z m 0.0294,-0.0172 0.812442,0.120006 -0.396621,0.5300271 z m 0.015,-0.03201 0.869245,-0.520027 -0.0566,0.640032 z m 1.148059,-1.240063 0.153407,0.537027 -0.385019,0.124406 z m -0.205211,-0.916047 0.440022,0.554428 -0.226011,0.266814 z m -0.412021,-1.009851 0.571829,0.418821 -0.19661,0.473424 z m -0.589231,-0.287861 0.0922,-0.393019 0.411621,0.59443 z m -0.7286376,-0.39722 -0.100004,-0.60003 0.8600426,0.550828 z m -0.0378,-0.02 -0.820041,-0.593831 0.720037,-0.0046 z m -1.6670843,-0.691627 0.5350263,-0.328417 0.229812,0.390021 z m -0.5138265,0.446423 -0.4954249,-0.452023 0.9162464,0.0344 z M 6.4480458,5.6892429 5.9336197,5.6036429 6.73986,4.8476049 Z M 5.65001,6.5547119 5.1235834,6.1272909 5.8706208,5.6516669 Z m -0.022402,0.0256 -0.5438274,0.232011 0.0264,-0.652232 z M 5.0835804,8.1267929 4.5949553,7.3709549 5.0497782,6.8805299 Z m -0.211811,0.892846 -0.092605,0.462423 -0.1830098,-1.148258 z m 0.023598,0.0552 0.229012,0.534628 -0.3264169,-0.0456 z m 0.5940305,1.2518651 -0.345218,-0.067 0.021998,-0.5644291 z m 0.6522329,0.400019 -0.2452124,0.235812 -0.3294168,-0.566229 z m 0.029201,0.01881 0.5890305,0.454223 -0.8338425,-0.218011 z m 1.9216977,-0.141207 0.8400429,0.466424 -0.9200476,0.247011 z m 1.7386879,0.0918 -0.046,0.58663 -0.758239,-0.21061 z M 10.67486,10.141098 10.208036,10.95974 9.8782194,10.670525 Z m 0.460024,-0.5780281 0.0024,0.428021 -0.373419,0.0714 z m 0.0936,-0.729038 0.38002,-0.122806 -0.432823,0.728437 z m 0.263413,-0.752838 0.215612,-0.254213 -0.06921,0.762639 z m -0.241812,-0.937248 0.193609,-0.466223 0.250814,1.025852 z m -0.411821,-0.988049 0.136008,-0.237413 0.40982,0.637232 z m -0.0236,-0.027 -0.40242,-0.580029 0.538428,0.343217 z m -1.3498676,-1.227862 0.407221,-0.0434 0.4120206,0.568229 z m -0.827045,-0.024 -0.224211,-0.381019 0.916847,0.376818 z m -0.8524432,-0.07481 -0.1800095,-0.316416 0.7076357,-0.0072 z m -0.035999,0.0054 -0.8912458,-0.0334 0.7102363,-0.283815 z m -1.8000941,0.735238 0.3200162,-0.691036 0.4628229,-0.0422 z m -0.057403,0.0432 -0.2916148,-0.280014 0.615631,-0.421222 z m -0.021804,0.026 -0.725437,0.461824 0.4334218,-0.743038 z m -0.8200424,1.19866 -0.364018,-0.195809 0.3900192,-0.442223 z m -0.0114,0.0322 -0.442422,0.476624 0.076803,-0.673035 z m -0.5006254,1.336669 -0.1870096,0.152809 0.2014105,-0.811042 z m 0.0046,0.04001 0.1908101,1.19726 -0.3910196,-1.033251 z M 5.1333709,9.6454739 5.1115729,10.208102 4.8067562,9.5996699 Z m 0.3754179,0.7200341 0.311216,0.534227 -0.6388328,-0.596831 z m 1.3092661,0.884044 -0.013403,0.309016 -0.8144416,-0.525426 z m 0.033402,0.0132 0.4228214,0.197609 -0.4360217,0.106605 z m 1.1258571,0.0984 0.013201,0.433422 -0.6142313,-0.321416 z m 0.9710544,-0.259971 -0.249212,0.586631 -0.6588333,-0.342619 z m 0.04001,-0.0052 0.757838,0.210411 -1.00645,0.375419 z m 0.876845,-0.39302 0.3210156,0.280015 -0.3658176,0.284814 z m 0.8712436,-0.60103 0.370019,-0.0708 -0.811241,0.843243 z m 0.435822,-0.1636091 -0.0026,-0.417421 0.341416,-0.20861 z m 0.03001,-0.477024 0.414021,-0.695634 -0.07621,0.489824 z m 0.528427,-1.504076 0.0484,0.512026 -0.109605,0.151408 z m -0.252413,-1.282264 0.09461,0.0888 0.0948,0.686035 z m -0.480024,-0.78244 0.089,-0.0448 0.257613,0.58383 z m -0.623434,-0.408833 0.156407,-0.223811 0.38282,0.567829 z m -0.0244,-0.0244 -0.4076216,-0.562429 0.5644286,0.338217 z m -0.9182456,-0.588827 -0.0026,-0.244413 0.39282,0.202811 z m -0.03401,-0.0066 -0.897846,-0.368819 0.895246,0.117806 z M 7.6223097,4.4516369 7.765316,4.3290309 8.2391401,4.4456369 Z m -0.7800414,0.292789 0.2778152,-0.300015 0.384419,0.0346 z m -0.071799,0.0276 -0.4200205,0.0382 0.6910351,-0.329217 z m -1.1572576,0.483625 0.046399,-0.104206 0.3862198,-0.19181 z m -0.5070266,0.816441 -0.028199,-0.272614 0.4200219,-0.40002 z m -0.029201,0.048 -0.3484172,0.39502 0.3210157,-0.660033 z m -0.519026,1.234462 -0.2224114,0.0414 0.2938146,-0.667034 z m -0.0074,0.036 L 4.337947,8.2475969 4.324348,7.4325559 Z M 4.7379649,9.5244759 4.4851521,9.3164649 4.3639462,8.5364259 Z M 5.0923829,10.244512 4.9309742,10.191502 4.8229689,9.7076779 Z M 5.782618,10.910145 5.2469907,10.619731 5.1607867,10.330117 Z m 0.098005,0.09201 0.2322117,0.296016 -0.7100356,-0.556229 z m 0.086804,0.0558 0.7386379,0.476624 -0.4834243,-0.151208 z m 1.355069,0.424421 0.5740289,0.300015 -0.9978502,-0.19661 z M 8.0115315,11.36817 8.6539634,11.702387 8.024531,11.802393 Z m 1.7056859,-0.0156 -0.260013,0.225212 -0.58703,0.09101 z m 0.4820236,-0.337216 0.0218,0.140006 -0.3372166,0.104206 z m 0.875044,-0.903246 -0.346017,0.617231 -0.441422,0.20301 z m 0.09681,-0.102806 0.232212,-0.4290211 -0.248212,0.5886291 z m 0.490825,-1.3220661 0.0876,-0.121207 -0.140008,0.463624 z m 0.08441,-0.914447 -0.0012,-0.009 0.0088,-0.114806 0.0088,0.297414 z m -0.0234,-0.169008 -0.0876,-0.635632 0.108605,0.360017 z m -0.260015,-0.991251 -0.160008,-0.363019 0.224011,0.423022 z m -0.482824,-0.749638 -0.320017,-0.474224 0.408021,0.430021 z m -1.0684546,-1.023452 0.0214,-0.0154 0.2452116,0.175409 z m -0.0324,-0.0186 -0.166207,-0.0858 0.184809,0.0726 z m -1.40327,-0.363418 0.311615,-0.064 0.468824,0.166808 z m -0.101606,-0.0136 -0.4242209,-0.104406 0.7112359,0.0452 z m -0.8036385,0.0078 -0.3308163,-0.0298 0.463023,-0.0836 z m -1.1674589,0.295615 0.1892095,-0.141807 0.3052157,-0.094 z m -0.1554084,0.074 -0.1642082,0.0816 0.2524131,-0.147608 z m -0.6888501,0.472429 -0.1948094,0.186009 0.2226107,-0.248412 z m -0.9124459,1.312666 -0.086604,0.03201 0.3366169,-0.546627 z m -0.1128053,0.0778 0.093405,-0.0346 -0.2362121,0.536627 z m -0.2326121,1.39267 0.00481,0.298616 -0.017203,0.0544 z m 0.016201,0.37502 0.085205,0.549028 -0.117406,-0.448024 z M 4.7619645,9.5874789 4.8713702,10.077504 4.5219525,9.3900699 Z m 0.3510179,0.7000361 0.076004,0.255612 -0.2262114,-0.305015 z m 1.696886,1.315466 0.031596,0.0506 -0.332017,-0.144408 z m 0.085204,0.07201 -0.040006,-0.06201 0.7222365,0.142207 z m 1.76929,0.06001 -0.07601,0.086 -0.3964196,-0.011 z m 0.0526,-0.0082 0.472624,-0.0734 -0.542828,0.152808 z m 1.092056,-0.408221 0.2772126,-0.0856 -0.4880246,0.269414 z m 0.4440216,-0.183809 -0.0218,-0.140007 0.405021,-0.18621 z m 0.877245,-1.051654 -0.019,0.18901 -0.266414,0.317817 z m 0.438621,-0.8060401 0.06841,-0.033 -0.313416,0.615632 z m 0.09101,-0.0816 -0.0768,0.0372 0.154408,-0.508026 z"
     id="path4917"
     inkscape:connector-curvature="0"
     style="fill:url(#b);stroke-width:0.20001015" />
  <path
     d="M 15.190304,5.3658559 C 14.853087,4.5554149 14.170252,3.6803709 13.633425,3.4039568 a 8.0334071,8.0334071 0 0 1 0.78504,2.3527191 c 0,-0.0018 0,0.0016 0.0012,0.0074 l 0.0014,0.0082 A 7.0109554,7.0109554 0 0 1 14.179452,11.003942 C 13.290201,12.910441 11.137091,14.86414 7.7669209,14.769135 4.1263366,14.66613 0.91877389,11.967194 0.31994359,8.4324139 c -0.1090055,-0.557428 0,-0.840042 0.054803,-1.293065 a 5.7750923,5.7750923 0 0 0 -0.12564,1.069455 v 0.04001 A 7.7619932,7.7619932 0 0 0 15.658522,9.5596729 c 0.013,-0.100005 0.0236,-0.199011 0.0352,-0.299016 a 7.9604036,7.9604036 0 0 0 -0.503418,-3.894801 z"
     id="path4919"
     inkscape:connector-curvature="0"
     style="fill:url(#c);stroke-width:0.20001015" />
  <path
     d="M 15.190304,5.3658559 C 14.853087,4.5554149 14.170252,3.6803709 13.633425,3.4039568 a 8.0334071,8.0334071 0 0 1 0.78504,2.3527191 c 0,-0.0018 0,0.0016 0.0012,0.0074 l 0.0014,0.0082 A 7.0109554,7.0109554 0 0 1 14.179452,11.003942 C 13.290201,12.910441 11.137091,14.86414 7.7669209,14.769135 4.1263366,14.66613 0.91877389,11.967194 0.31994359,8.4324139 c -0.1090055,-0.557428 0,-0.840042 0.054803,-1.293065 a 5.7750923,5.7750923 0 0 0 -0.12564,1.069455 v 0.04001 A 7.7619932,7.7619932 0 0 0 15.658522,9.5596729 c 0.013,-0.100005 0.0236,-0.199011 0.0352,-0.299016 a 7.9604036,7.9604036 0 0 0 -0.503418,-3.894801 z"
     id="path4921"
     inkscape:connector-curvature="0"
     style="fill:url(#d);stroke-width:0.20001015" />
  <path
     d="m 0.31995069,8.4324119 c 0.5988303,3.5347791 3.80639311,6.2337161 7.44777721,6.3367211 3.3701711,0.0952 5.5232801,-1.858694 6.4125251,-3.76519 a 7.0109554,7.0109554 0 0 0 0.241612,-5.2316661 v -0.0074 c 0,-0.0058 -0.0012,-0.0092 -0.0012,-0.0074 l 0.0016,0.013 c 0.275215,1.79549 -0.639032,3.534979 -2.068304,4.7112391 l -0.0043,0.01 c -2.7865296,2.264514 -5.4514644,1.365869 -5.9914915,0.99825 a 4.9522512,4.9522512 0 0 1 -0.1130931,-0.0564 C 4.621394,10.658529 3.9505596,9.1806539 4.0943666,7.9133899 a 1.992901,1.992901 0 0 1 -1.8385177,-1.155263 2.9303485,2.9303485 0 0 1 2.8533446,-0.114206 3.8675959,3.8675959 0 0 0 2.9137481,0.114406 c -0.00277,-0.063 -1.3534695,-0.60003 -1.8800957,-1.118057 -0.2814141,-0.277014 -0.415021,-0.41042 -0.533227,-0.510625 A 2.3525193,2.3525193 0 0 0 5.4096087,4.9780369 C 5.3634067,4.9466349 5.311604,4.9126329 5.2496008,4.8718309 4.6835721,4.5042129 3.557915,4.5246139 3.5207133,4.5254139 h -0.0036 C 3.2092974,4.1359939 3.2310985,2.8519289 3.2486994,2.5839152 A 1.3908705,1.3908705 0 0 0 2.9886862,2.7211222 5.6552867,5.6552867 0 0 0 2.2302474,3.3701549 6.8003447,6.8003447 0 0 0 1.5048108,4.2393989 v 0.0012 -0.0012 a 6.5381313,6.5381313 0 0 0 -1.04145281,2.347719 c -0.0036,0.01681 -0.2792142,1.220861 -0.1434073,1.845294 z"
     id="path4923"
     inkscape:connector-curvature="0"
     style="fill:url(#e);stroke-width:0.20001015" />
  <path
     d="m 10.746679,5.3734569 a 4.2124136,4.2124136 0 0 1 0.720036,0.940048 1.5752799,1.5752799 0 0 1 0.116606,0.0952 c 1.760089,1.620082 0.837442,3.9099981 0.76884,4.0732061 1.429272,-1.1762591 2.343518,-2.9157471 2.068304,-4.7112381 -0.877644,-2.1851066 -2.36552,-3.0661512 -3.580181,-4.98444841 a 9.5792857,9.5792857 0 0 1 -0.18281,-0.2970154 2.349519,2.349519 0 0 1 -0.0854,-0.1600079 1.4064712,1.4064712 0 0 1 -0.116006,-0.3078156 0.02000101,0.02000101 0 0 0 -0.0176,-0.020003 0.02580131,0.02580131 0 0 0 -0.0146,0 l -0.0038,0.00198 -0.0058,0.0024 c -0.299992,0.1430075 -2.0798826,2.95814991 0.33244,5.36767131 z"
     id="path4925"
     inkscape:connector-curvature="0"
     style="fill:url(#f);stroke-width:0.20001015" />
  <path
     d="m 7.7613282,4.3106029 1.0274512,0.0654 0.624032,0.222011 0.520027,0.20401 0.5990296,0.427822 0.564229,0.59483 0.196009,0.369819 a 4.6922379,4.6922379 0 0 1 0.126807,0.0826 c 0.017,0.0118 0.0324,0.0236 0.04821,0.0354 A 4.2124136,4.2124136 0 0 0 10.747079,5.3734569 C 8.3343574,2.9639344 10.114247,0.14879199 10.414262,0.00578459 l 0.004,-0.0044 C 8.4687304,1.1414445 7.807297,3.2517515 7.7466938,4.3074049 v 0.006 z"
     id="path4927"
     inkscape:connector-curvature="0"
     style="fill:url(#g);stroke-width:0.20001015" />
  <path
     d="M 5.2480007,4.8718309 A 4.5634311,4.5634311 0 0 1 5.408009,4.9780369 3.5855818,3.5855818 0 0 1 5.3862106,3.0835404 5.7474915,5.7474915 0 0 0 3.5181157,4.5254139 c 0.038204,-8.14e-4 1.1638588,-0.0212 1.729888,0.346417 z"
     id="path4929"
     inkscape:connector-curvature="0"
     style="fill:url(#h);stroke-width:0.20001015" />
  <path
     d="m 4.524964,8.9496369 c 0,0 0.358218,-1.333467 2.5651296,-1.333467 0.238612,0 0.9200477,-0.665033 0.9332472,-0.857843 a 3.8675959,3.8675959 0 0 1 -2.913747,-0.114406 2.9303485,2.9303485 0 0 0 -2.8533449,0.114206 1.992901,1.992901 0 0 0 1.8384936,1.155258 c -0.1438075,1.267265 0.5270269,2.7451401 2.1507088,3.5201791 0.036399,0.01739 0.070404,0.0364 0.107605,0.05301 C 5.4054083,10.997148 4.6227693,10.0725 4.524964,8.9496429 Z"
     id="path4931"
     inkscape:connector-curvature="0"
     style="fill:url(#i);stroke-width:0.20001015" />
  <path
     d="m 11.583721,6.4077089 a 1.5752799,1.5752799 0 0 0 -0.116606,-0.0952 c -0.0158,-0.0118 -0.0312,-0.0236 -0.04821,-0.0354 A 2.6813359,2.6813359 0 0 0 9.5476134,5.8232859 c 2.7915406,1.39407 2.0421026,6.1945131 -1.8258922,6.0133051 A 3.4483748,3.4483748 0 0 1 6.7118699,11.64198 4.5482305,4.5482305 0 0 1 6.4838582,11.54898 C 6.4402542,11.52897 6.3964542,11.50897 6.353051,11.48658 l 0.00543,0.0034 c 0.5400275,0.367618 3.2045624,1.266264 5.989704,-0.999051 l 0.0044,-0.01 c 0.0686,-0.163209 0.99045,-2.4537251 -0.768839,-4.0732071 z"
     id="path4933"
     inkscape:connector-curvature="0"
     style="fill:url(#j);stroke-width:0.20001015" />
  <path
     d="m 15.189705,5.3656559 c -0.337218,-0.810641 -1.020053,-1.685485 -1.55688,-1.9620991 a 8.0384077,8.0384077 0 0 1 0.78564,2.3529191 l 0.0016,0.0128 c -0.877444,-2.18491 -2.36552,-3.0659546 -3.580581,-4.98445181 a 9.0628593,9.0628593 0 0 1 -0.18281,-0.2968149 2.5593298,2.5593298 0 0 1 -0.0856,-0.160008 1.4106715,1.4106715 0 0 1 -0.115606,-0.3070156 0.02000101,0.02000101 0 0 0 -0.0176,-0.020003004 0.0276014,0.0276014 0 0 0 -0.0146,0 c -0.0012,0 -0.0028,0.001780004 -0.004,0.002210004 -0.0012,3.876e-4 -0.0038,0.00217 -0.0056,0.00298 l 0.0032,-0.0044 C 8.4673484,1.141832 7.8063146,3.2585391 7.7455115,4.3141929 l 0.015806,-0.0028 1.0274519,0.0654 0.57823,0.205611 0.565829,0.220011 0.5990286,0.427822 0.563629,0.59443 c 0,0 0.19401,0.364018 0.196611,0.370218 A 2.6559346,2.6559346 0 0 0 9.5469884,5.8232709 C 12.338329,7.2173419 11.589091,12.017785 7.7210957,11.836577 A 3.454575,3.454575 0 0 1 6.7112752,11.642185 q -0.1132058,-0.0424 -0.2280116,-0.09361 a 2.8881466,2.8881466 0 0 1 -0.130807,-0.06241 l 0.00543,0.0034 a 4.5634311,4.5634311 0 0 1 -0.1130296,-0.0562 c 0.036206,0.0172 0.070404,0.03621 0.1076057,0.0528 -0.947648,-0.489225 -1.7302876,-1.414072 -1.8280928,-2.5369281 0,0 0.3582179,-1.333468 2.5651298,-1.333468 0.238612,0 0.920047,-0.665034 0.9332481,-0.857844 -0.00277,-0.063 -1.3536688,-0.60003 -1.8800957,-1.118056 C 5.8612335,5.3630739 5.7276272,5.2294679 5.6092208,5.1292629 A 2.2801156,2.2801156 0 0 0 5.4082106,4.9778549 3.5887818,3.5887818 0 0 1 5.3864091,3.083159 5.7492909,5.7492909 0 0 0 3.5183146,4.5252319 h -0.0036 C 3.2070947,4.1360129 3.2288959,2.8519472 3.2462968,2.5837339 A 1.4084714,1.4084714 0 0 0 2.9862832,2.7209408 5.6446863,5.6446863 0 0 0 2.2278449,3.3701735 6.781944,6.781944 0 0 0 1.503008,4.2382179 6.5425316,6.5425316 0 0 0 0.46275539,6.5869369 c -0.00381,0.01681 -0.0068,0.0342 -0.0104,0.051 -0.014601,0.0684 -0.080004,0.414621 -0.089605,0.489025 0,0.0056 0,-0.0058 0,0 a 9.018657,9.018657 0 0 0 -0.1144034,1.081636 v 0.04001 A 7.761794,7.761794 0 0 0 15.658528,9.5596749 c 0.0132,-0.100005 0.02381,-0.200011 0.0354,-0.300015 a 7.9618036,7.9618036 0 0 0 -0.504223,-3.894004 z m -0.76984,0.39802 0.0012,0.0084 z"
     id="path4935"
     inkscape:connector-curvature="0"
     style="fill:url(#k);stroke-width:0.20001015" />
  <path
     d="m 8.0233408,6.7583269 c 0,0 -0.032797,0.0136 -0.093604,0.0344 -0.1516075,0.256213 -0.6906346,0.745438 -0.8966463,0.744438 -2.2069111,-0.0096 -2.5709296,1.309266 -2.5709296,1.309266 A 2.818743,2.818743 0 0 0 4.8945827,10.113095 2.8389438,2.8389438 0 0 1 4.5249642,8.9496349 c 0,0 0.358218,-1.333467 2.5651296,-1.333467 0.238612,0 0.9200477,-0.665034 0.9332472,-0.857843 z"
     id="path4937"
     inkscape:connector-curvature="0"
     style="fill:url(#l);stroke-width:0.20001015" />
  <path
     d="m 14.421865,5.7722769 v -0.0074 c 0,-0.0058 -0.0012,-0.0092 0,-0.0074 0.0012,0.0018 0,0.0044 0.0014,0.013 a 7.7477927,7.7477927 0 0 0 -0.166808,-0.384028 c -0.02001,-0.0424 -0.04001,-0.082 -0.061,-0.123406 -0.039,-0.08 -0.0776,-0.160008 -0.118007,-0.235212 -0.02501,-0.047 -0.05121,-0.09161 -0.0768,-0.137207 -0.0376,-0.067 -0.0748,-0.134407 -0.113406,-0.20001 -0.0284,-0.0472 -0.0576,-0.0924 -0.0864,-0.138407 -0.0378,-0.06 -0.0754,-0.120006 -0.114006,-0.178409 -0.0306,-0.0462 -0.06201,-0.09081 -0.093,-0.135807 -0.0386,-0.0556 -0.077,-0.111206 -0.116406,-0.165409 -0.0324,-0.0448 -0.0654,-0.0886 -0.0984,-0.132406 -0.04,-0.0522 -0.0786,-0.104405 -0.118406,-0.155608 A 13.40968,13.40968 0 0 0 13.157385,3.6543707 c -0.03999,-0.049804 -0.07999,-0.1000064 -0.12099,-0.1490088 q -0.05301,-0.064203 -0.106606,-0.1278061 c -0.02001,-0.022999 -0.0386,-0.046602 -0.0582,-0.069604 l 0.0248,0.030402 C 12.221554,2.5451134 11.491717,1.8140764 10.840083,0.78522449 a 9.4334787,9.4334787 0 0 1 -0.182809,-0.2970153 2.349519,2.349519 0 0 1 -0.0854,-0.1600084 1.5898806,1.5898806 0 0 1 -0.106805,-0.2724134 c -0.0014,-0.005 -0.0038,-0.0126 -0.0046,-0.0166 a 0.90404585,0.90404585 0 0 1 -0.0043,-0.017999 0.02000101,0.02000101 0 0 0 -0.0176,-0.020003 0.02580131,0.02580131 0 0 0 -0.0146,0 l -0.0038,0.00217 a 0.05400274,0.05400274 0 0 0 -0.0058,0.00298 0.22761154,0.22761154 0 0 0 -0.04701,0.034603 0.25201278,0.25201278 0 0 0 -0.0112,0.01 0.74443772,0.74443772 0 0 0 -0.0614,0.065004 l -0.0022,0.00217 C 9.8282374,0.66374569 8.6407764,3.0392661 10.554274,5.1701739 8.7627824,3.0620672 9.8918404,0.78395169 10.382465,0.18712159 a 1.7220873,1.7220873 0 0 0 0.0958,0.2344118 2.2977165,2.2977165 0 0 0 0.0854,0.160008 c 0.06001,0.1026051 0.121406,0.20001 0.182809,0.296815 1.215262,1.91849751 2.703337,2.80014171 3.580182,4.98445251 0,-0.0084 -0.0014,-0.0116 -0.0014,-0.0128 0,-0.0012 0,0.0016 0.001,0.0074 l 0.0012,0.0074 a 7.0111553,7.0111553 0 0 1 -0.240813,5.2328661 6.4309261,6.4309261 0 0 1 -1.232862,1.767689 6.4431266,6.4431266 0 0 0 1.326467,-1.861494 7.0119553,7.0119553 0 0 0 0.241612,-5.2316661 z"
     id="path4939"
     inkscape:connector-curvature="0"
     style="fill:url(#m);stroke-width:0.20001015" />
  <path
     d="m 10.414262,0.00578459 0.004,-0.0044 C 8.6621404,1.0288416 7.951304,2.8427335 7.7832956,3.9639899 a 5.7346907,5.7346907 0 0 1 2.3443514,-3.61778701 1.0872551,1.0872551 0 0 1 0.286615,-0.3404171 z"
     id="path4941"
     inkscape:connector-curvature="0"
     style="fill:url(#n);stroke-width:0.20001015" />
  <path
     d="m 12.34816,10.490916 0.0044,-0.01 c 0.0686,-0.163208 0.99045,-2.4537241 -0.768838,-4.0732061 a 1.5752799,1.5752799 0 0 0 -0.116596,-0.0952 c -0.0158,-0.0118 -0.0312,-0.0236 -0.04821,-0.0354 A 2.7087373,2.7087373 0 0 0 9.6188264,5.8120849 h -6.09e-4 a 1.7224873,1.7224873 0 0 0 -0.0706,0.011 c 2.7599386,1.37847 2.0585036,6.0867091 -1.696286,6.0167051 l 0.030596,0.0018 c 3.8064006,0.149607 4.5564386,-4.5184301 1.911705,-5.9821051 a 2.8101426,2.8101426 0 0 1 1.4698746,0.424422 1.636683,1.636683 0 0 1 0.0494,0.0338 1.4800751,1.4800751 0 0 1 0.120007,0.0904 c 1.821492,1.549479 0.99005,3.8741961 0.927646,4.0402051 l -0.004,0.0104"
     id="path4943"
     inkscape:connector-curvature="0"
     style="fill:url(#o);stroke-width:0.20001015" />
  <path
     d="m 5.1303948,6.7215249 a 3.8771966,3.8771966 0 0 0 2.8059423,0.06901 3.8777966,3.8777966 0 0 1 -2.8267433,-0.146608 2.9487495,2.9487495 0 0 0 -2.8163431,0.09001 l -0.010202,0.0066 h -0.001 l -0.0084,0.0056 -0.0064,0.0044 -0.004,0.0028 h -0.00119 l -0.0028,0.002 h -0.001 l 0.0036,0.0086 v 0.0012 l 0.0044,0.01 v 0.002 l 0.0066,0.0144 v 0.0012 a 1.6000811,1.6000811 0 0 0 0.051003,0.09741 1.9851006,1.9851006 0 0 0 1.7704902,1.020051 C 3.9543679,9.1393869 4.5820001,10.56666 6.1016769,11.3587 4.6491875,10.521734 4.0389567,9.0026559 4.2085649,7.7943949 3.0871101,7.7647269 2.5856846,7.0924939 2.4422772,6.8074799 a 3.0667554,3.0667554 0 0 1 2.6881365,-0.086 z"
     id="path4945"
     inkscape:connector-curvature="0"
     style="fill:url(#p);stroke-width:0.20001015" />
  <path
     d="m 5.4078086,4.9738359 -0.038006,-0.0222 0.040004,0.0264 z m -0.008,-0.0284 A 3.5915821,3.5915821 0 0 1 5.3872059,3.0835396 5.6572866,5.6572866 0 0 0 3.5911152,4.4458089 5.8586966,5.8586966 0 0 1 5.2289975,3.2889502 3.6359844,3.6359844 0 0 0 5.3998062,4.9454339 Z"
     id="path4947"
     inkscape:connector-curvature="0"
     style="fill:url(#q);stroke-width:0.20001015" />
  <path
     d="m 0.50716009,9.2448529 -0.0062,-0.0222 a 7.1775638,7.1775638 0 0 1 -0.1800091,-0.79024 3.3531699,3.3531699 0 0 1 0,-1.00005 6.5979342,6.5979342 0 0 0 -0.071004,0.776039 v 0.04001 A 7.7551935,7.7551935 0 0 0 5.4582108,15.570384 7.8451978,7.8451978 0 0 1 0.50715989,9.2448619 Z"
     id="path4949"
     inkscape:connector-curvature="0"
     style="fill:url(#r);stroke-width:0.20001015" />
  <path
     d="m 0.44495699,8.4636129 c -0.1358068,-0.624431 0.1400071,-1.828292 0.1434073,-1.845293 A 6.5381313,6.5381313 0 0 1 1.6298171,4.2698009 v 0.0012 -0.0012 a 6.8003447,6.8003447 0 0 1 0.7246368,-0.868244 5.6552867,5.6552867 0 0 1 0.7584385,-0.6490332 0.66763383,0.66763383 0 0 1 0.032801,-0.020003 c -0.00279,0.5896299 0.030801,1.5846803 0.3038151,1.9108963 h 0.0036 c 0.037402,-0.002 1.1670594,-0.0518 1.7448883,0.300016 0.064204,0.04 0.1170061,0.0718 0.1642087,0.102005 a 2.3855209,2.3855209 0 0 1 0.2058101,0.146208 c 0.1212065,0.0972 0.2588132,0.227011 0.548628,0.496424 0.4200211,0.39022 1.3338676,0.77824 1.7288877,0.963049 C 7.4607162,6.4573089 6.5526703,6.0430879 6.1432496,5.6400679 5.8618355,5.3630539 5.7282286,5.2296469 5.6100226,5.1294419 A 2.3525193,2.3525193 0 0 0 5.4100128,4.9778339 c -0.046202,-0.0314 -0.098006,-0.0654 -0.1600083,-0.106205 -0.5660288,-0.367619 -1.691686,-0.347218 -1.7288877,-0.346417 h -0.0036 C 3.2362979,4.1693929 3.2302977,3.0665376 3.2446984,2.6747177 c 0,-0.015201 0,-0.029003 0.00159,-0.042002 v -0.025402 c 0,-0.0084 0,-0.0166 0.0014,-0.0236 0,0 -0.0014,-0.0014 -0.00322,-0.0014 h -0.007 l -0.0044,0.00159 -0.0064,0.0024 -0.0062,0.0026 -0.0074,0.00341 -0.008,0.0038 -0.008,0.004 -0.0098,0.0048 -0.0078,0.0042 -0.0116,0.006 -0.0066,0.0036 A 3.8585957,3.8585957 0 0 0 2.9884378,2.7187266 5.6552867,5.6552867 0 0 0 2.2299991,3.3677592 6.8003447,6.8003447 0 0 0 1.5047623,4.2394039 v 0.0012 -0.0012 a 6.5381313,6.5381313 0 0 0 -1.04140431,2.347714 c -0.0036,0.01681 -0.2800142,1.220062 -0.1434073,1.845294 C 0.82957649,11.439764 3.2286982,13.842886 6.1764477,14.555522 3.2861011,13.806084 0.94738249,11.429163 0.44495699,8.4636129 Z"
     id="path4951"
     inkscape:connector-curvature="0"
     style="fill:url(#s);stroke-width:0.20001015" />
  <path
     d="M 15.190304,5.3658559 A 4.7532411,4.7532411 0 0 0 13.828236,3.5257631 l -0.01381,-0.0098 a 2.722738,2.722738 0 0 0 -0.046,-0.031603 q -0.0086,-0.006 -0.0174,-0.011399 -0.022,-0.013999 -0.04321,-0.026999 l -0.0168,-0.01 a 1.5726797,1.5726797 0 0 0 -0.0576,-0.031801 7.027756,7.027756 0 0 1 0.0612,0.1230063 6.7181407,6.7181407 0 0 1 0.0372,0.076604 7.9474033,7.9474033 0 0 1 0.686634,2.1529095 l 0.0016,0.013 c 0.275214,1.795491 -0.639032,3.534978 -2.068305,4.7112381 l -0.0044,0.01 c -1.77669,1.445073 -3.5041766,1.602681 -4.6626347,1.431872 1.1542571,0.215611 2.9749497,0.124606 4.8502447,-1.400071 l 0.0042,-0.01 c 1.429266,-1.1762611 2.343713,-2.9157501 2.068499,-4.7112401 l -0.0016,-0.013 a 7.7881946,7.7881946 0 0 0 -0.56583,-1.889096 5.1326599,5.1326599 0 0 1 0.848644,1.209461 7.7235915,7.7235915 0 0 1 0.717236,3.800192 c -0.006,0.09901 -0.011,0.19781 -0.0186,0.296015 A 7.7263921,7.7263921 0 0 1 8.3047594,15.963994 7.9302024,7.9302024 0 0 1 6.7724816,15.901594 7.7677938,7.7677938 0 0 0 15.658532,9.5596719 c 0.013,-0.100005 0.0236,-0.19901 0.0352,-0.299015 a 7.9604036,7.9604036 0 0 0 -0.503404,-3.8948 z m -0.768439,0.406421 v -0.0074 z"
     id="path4953"
     inkscape:connector-curvature="0"
     style="fill:url(#t);stroke-width:0.20001015" />
</svg>
