<?xml version="1.0" encoding="UTF-8" standalone="no"?>
<!-- This Source Code Form is subject to the terms of the Mozilla Public
   - License, v. 2.0. If a copy of the MPL was not distributed with this
   - file, You can obtain one at http://mozilla.org/MPL/2.0/. -->

<!-- IMPORTANT - The text part needs 'context-fill' for dark mode support on some pages -->

<svg
   xmlns:dc="http://purl.org/dc/elements/1.1/"
   xmlns:cc="http://creativecommons.org/ns#"
   xmlns:rdf="http://www.w3.org/1999/02/22-rdf-syntax-ns#"
   xmlns:svg="http://www.w3.org/2000/svg"
   xmlns="http://www.w3.org/2000/svg"
   xmlns:sodipodi="http://sodipodi.sourceforge.net/DTD/sodipodi-0.dtd"
   xmlns:inkscape="http://www.inkscape.org/namespaces/inkscape"
   viewBox="0 0 16 16"
   version="1.1"
   id="svg5182"
   sodipodi:docname="firefox-trunk.svg"
   width="16"
   height="16"
   inkscape:version="0.92.4 5da689c313, 2019-01-14">
  <metadata
     id="metadata5186">
    <rdf:RDF>
      <cc:Work
         rdf:about="">
        <dc:format>image/svg+xml</dc:format>
        <dc:type
           rdf:resource="http://purl.org/dc/dcmitype/StillImage" />
        <dc:title></dc:title>
      </cc:Work>
    </rdf:RDF>
  </metadata>
  <sodipodi:namedview
     pagecolor="#ffffff"
     bordercolor="#666666"
     borderopacity="1"
     objecttolerance="10"
     gridtolerance="10"
     guidetolerance="10"
     inkscape:pageopacity="0"
     inkscape:pageshadow="2"
     inkscape:window-width="1366"
     inkscape:window-height="708"
     id="namedview5184"
     showgrid="false"
     fit-margin-top="0"
     fit-margin-left="0"
     fit-margin-right="0"
     fit-margin-bottom="0"
     inkscape:zoom="3.281106"
     inkscape:cx="47.006882"
     inkscape:cy="39.971062"
     inkscape:window-x="0"
     inkscape:window-y="19"
     inkscape:window-maximized="1"
     inkscape:current-layer="svg5182" />
  <defs
     id="defs5140">
    <linearGradient
       id="a"
       x1="74.803001"
       y1="20.542999"
       x2="7.7420001"
       y2="62.785999"
       gradientUnits="userSpaceOnUse"
       gradientTransform="matrix(0.20008226,0,0,0.20008226,-0.00514438,-8.1990008e-4)">
      <stop
         offset="0"
         stop-color="#3fe1b0"
         id="stop4973" />
      <stop
         offset=".406"
         stop-color="#00b3f4"
         id="stop4975" />
      <stop
         offset=".421"
         stop-color="#03b0f4"
         id="stop4977" />
      <stop
         offset=".818"
         stop-color="#5561e9"
         id="stop4979" />
      <stop
         offset="1"
         stop-color="#7542e5"
         id="stop4981" />
    </linearGradient>
    <radialGradient
       id="b"
       cx="-7907.187"
       cy="-8515.1211"
       r="80.796997"
       gradientTransform="matrix(0.20008226,0,0,0.20008226,1595.6509,1705.5003)"
       gradientUnits="userSpaceOnUse">
      <stop
         offset=".108"
         stop-color="#3fe1b0"
         id="stop4984" />
      <stop
         offset=".122"
         stop-color="#3bdcb3"
         id="stop4986" />
      <stop
         offset=".254"
         stop-color="#1bb3d3"
         id="stop4988" />
      <stop
         offset=".358"
         stop-color="#0799e6"
         id="stop4990" />
      <stop
         offset=".42"
         stop-color="#0090ed"
         id="stop4992" />
      <stop
         offset=".487"
         stop-color="#2482f1"
         id="stop4994" />
      <stop
         offset=".64"
         stop-color="#7165fb"
         id="stop4996" />
      <stop
         offset=".71"
         stop-color="#9059ff"
         id="stop4998" />
      <stop
         offset=".795"
         stop-color="#7d49ed"
         id="stop5000" />
      <stop
         offset=".86"
         stop-color="#7542e5"
         id="stop5002" />
    </radialGradient>
    <radialGradient
       id="c"
       cx="-7936.7109"
       cy="-8482.0889"
       r="80.796997"
       gradientTransform="matrix(0.20008226,0,0,0.20008226,1595.6509,1705.5003)"
       gradientUnits="userSpaceOnUse">
      <stop
         offset=".3"
         stop-color="#45278d"
         id="stop5005" />
      <stop
         offset=".341"
         stop-color="#562896"
         stop-opacity=".787"
         id="stop5007" />
      <stop
         offset=".43"
         stop-color="#782aa9"
         stop-opacity=".364"
         id="stop5009" />
      <stop
         offset=".495"
         stop-color="#8d2bb5"
         stop-opacity=".1"
         id="stop5011" />
      <stop
         offset=".53"
         stop-color="#952bb9"
         stop-opacity="0"
         id="stop5013" />
    </radialGradient>
    <radialGradient
       id="d"
       cx="-7926.9702"
       cy="-8533.457"
       r="58.534"
       gradientTransform="matrix(0.20008226,0,0,0.20008226,1595.6509,1705.5003)"
       gradientUnits="userSpaceOnUse">
      <stop
         offset=".132"
         stop-color="#3fe1b0"
         id="stop5016" />
      <stop
         offset=".289"
         stop-color="#28d0c8"
         id="stop5018" />
      <stop
         offset=".526"
         stop-color="#00b3f4"
         id="stop5020" />
    </radialGradient>
    <radialGradient
       id="e"
       cx="-7945.6479"
       cy="-8460.9844"
       r="38.471001"
       gradientTransform="matrix(0.20008226,0,0,0.20008226,1595.6509,1705.5003)"
       gradientUnits="userSpaceOnUse">
      <stop
         offset=".287"
         stop-color="#0060df"
         id="stop5023" />
      <stop
         offset=".417"
         stop-color="#2357e1"
         id="stop5025" />
      <stop
         offset=".604"
         stop-color="#4f4ce3"
         id="stop5027" />
      <stop
         offset=".748"
         stop-color="#6b45e4"
         id="stop5029" />
      <stop
         offset=".833"
         stop-color="#7542e5"
         id="stop5031" />
    </radialGradient>
    <radialGradient
       id="f"
       cx="-7935.6201"
       cy="-8491.5459"
       r="20.396999"
       gradientTransform="matrix(0.19447996,-0.04701933,0.05502262,0.22769362,2019.0855,1567.4032)"
       gradientUnits="userSpaceOnUse">
      <stop
         offset=".206"
         stop-color="#45278d"
         stop-opacity="0"
         id="stop5034" />
      <stop
         offset=".251"
         stop-color="#44268a"
         stop-opacity=".055"
         id="stop5036" />
      <stop
         offset=".725"
         stop-color="#371f6f"
         stop-opacity=".591"
         id="stop5038" />
      <stop
         offset=".956"
         stop-color="#321c64"
         stop-opacity=".8"
         id="stop5040" />
    </radialGradient>
    <radialGradient
       id="g"
       cx="-7943.645"
       cy="-8466.5225"
       r="0.62599999"
       gradientTransform="matrix(0.20008226,0,0,0.20008226,1595.6509,1705.5003)"
       gradientUnits="userSpaceOnUse">
      <stop
         offset=".353"
         stop-color="#3a8ee6"
         id="stop5043" />
      <stop
         offset=".472"
         stop-color="#5c79f0"
         id="stop5045" />
      <stop
         offset=".669"
         stop-color="#9059ff"
         id="stop5047" />
      <stop
         offset="1"
         stop-color="#c139e6"
         id="stop5049" />
    </radialGradient>
    <radialGradient
       id="h"
       cx="-7943.48"
       cy="-8466.749"
       r="0.22400001"
       gradientTransform="matrix(0.19447996,-0.04701933,0.05502262,0.22769362,2017.6749,1566.3464)"
       gradientUnits="userSpaceOnUse">
      <stop
         offset=".206"
         stop-color="#9059ff"
         stop-opacity="0"
         id="stop5052" />
      <stop
         offset=".278"
         stop-color="#8c4ff3"
         stop-opacity=".064"
         id="stop5054" />
      <stop
         offset=".747"
         stop-color="#7716a8"
         stop-opacity=".45"
         id="stop5056" />
      <stop
         offset=".975"
         stop-color="#6e008b"
         stop-opacity=".6"
         id="stop5058" />
    </radialGradient>
    <radialGradient
       id="i"
       cx="-7937.731"
       cy="-8518.4268"
       r="27.676001"
       gradientTransform="matrix(0.20008226,0,0,0.20008226,1595.6509,1705.5003)"
       gradientUnits="userSpaceOnUse">
      <stop
         offset="0"
         stop-color="#0df"
         id="stop5061" />
      <stop
         offset=".235"
         stop-color="#00d6fd"
         id="stop5063" />
      <stop
         offset=".572"
         stop-color="#00c3f8"
         id="stop5065" />
      <stop
         offset=".792"
         stop-color="#00b3f4"
         id="stop5067" />
    </radialGradient>
    <radialGradient
       id="j"
       cx="-7915.9771"
       cy="-8535.9814"
       r="118.081"
       gradientTransform="matrix(0.20008226,0,0,0.20008226,1595.6509,1705.5003)"
       gradientUnits="userSpaceOnUse">
      <stop
         offset=".126"
         stop-color="#3fe1b0"
         id="stop5070" />
      <stop
         offset=".429"
         stop-color="#0df"
         id="stop5072" />
      <stop
         offset=".479"
         stop-color="#1ec1ff"
         id="stop5074" />
      <stop
         offset=".624"
         stop-color="#7077ff"
         id="stop5076" />
      <stop
         offset=".69"
         stop-color="#9059ff"
         id="stop5078" />
      <stop
         offset=".904"
         stop-color="#b833e1"
         id="stop5080" />
    </radialGradient>
    <radialGradient
       id="k"
       cx="-7927.165"
       cy="-8522.8594"
       r="86.499001"
       gradientTransform="matrix(0.02100864,0.19908186,-0.13065372,0.01380567,-937.19127,1694.7342)"
       gradientUnits="userSpaceOnUse">
      <stop
         offset="0"
         stop-color="#54ffbd"
         id="stop5083" />
      <stop
         offset=".095"
         stop-color="#4cf3b8"
         id="stop5085" />
      <stop
         offset=".197"
         stop-color="#3fe1b0"
         id="stop5087" />
      <stop
         offset=".257"
         stop-color="#33d8bd"
         id="stop5089" />
      <stop
         offset=".369"
         stop-color="#12c0e1"
         id="stop5091" />
      <stop
         offset=".423"
         stop-color="#00b3f4"
         id="stop5093" />
      <stop
         offset=".737"
         stop-color="#0060df"
         id="stop5095" />
    </radialGradient>
    <radialGradient
       id="l"
       cx="-7938.3828"
       cy="-8508.1758"
       r="73.720001"
       gradientTransform="matrix(0.20008226,0,0,0.20008226,1595.6509,1705.5003)"
       gradientUnits="userSpaceOnUse">
      <stop
         offset=".137"
         stop-color="#3fe1b0"
         id="stop5098" />
      <stop
         offset=".435"
         stop-color="#0df"
         id="stop5100" />
      <stop
         offset=".484"
         stop-color="#1ec1ff"
         id="stop5102" />
      <stop
         offset=".622"
         stop-color="#7077ff"
         id="stop5104" />
      <stop
         offset=".685"
         stop-color="#9059ff"
         id="stop5106" />
    </radialGradient>
    <radialGradient
       id="m"
       cx="-7918.9229"
       cy="-8503.8613"
       r="80.685997"
       gradientTransform="matrix(0.20008226,0,0,0.20008226,1595.6509,1705.5003)"
       gradientUnits="userSpaceOnUse">
      <stop
         offset=".094"
         stop-color="#54ffbd"
         id="stop5109" />
      <stop
         offset=".242"
         stop-color="#41f7cc"
         id="stop5111" />
      <stop
         offset=".543"
         stop-color="#0fe3f3"
         id="stop5113" />
      <stop
         offset=".626"
         stop-color="#0df"
         id="stop5115" />
    </radialGradient>
    <linearGradient
       id="n"
       x1="70.013"
       y1="12.061"
       x2="15.267"
       y2="66.806"
       gradientUnits="userSpaceOnUse"
       gradientTransform="matrix(0.20008226,0,0,0.20008226,-0.00514438,-8.1990008e-4)">
      <stop
         offset=".167"
         stop-color="#54ffbd"
         stop-opacity=".8"
         id="stop5118" />
      <stop
         offset=".236"
         stop-color="#43f8ca"
         stop-opacity=".639"
         id="stop5120" />
      <stop
         offset=".361"
         stop-color="#27ede1"
         stop-opacity=".368"
         id="stop5122" />
      <stop
         offset=".466"
         stop-color="#12e4f1"
         stop-opacity=".169"
         id="stop5124" />
      <stop
         offset=".545"
         stop-color="#05dffb"
         stop-opacity=".046"
         id="stop5126" />
      <stop
         offset=".589"
         stop-color="#0df"
         stop-opacity="0"
         id="stop5128" />
    </linearGradient>
    <linearGradient
       id="o"
       x1="75.657997"
       y1="72"
       x2="203.22"
       y2="72"
       gradientUnits="userSpaceOnUse">
      <stop
         offset=".002"
         stop-color="#005e5e"
         id="stop5131" />
      <stop
         offset=".478"
         stop-color="#0250bb"
         id="stop5133" />
      <stop
         offset=".735"
         stop-color="#253ba3"
         id="stop5135" />
      <stop
         offset="1"
         stop-color="#45278d"
         id="stop5137" />
    </linearGradient>
  </defs>
  <path
     d="M 15.184301,5.3675873 C 14.847362,4.556854 14.163881,3.6814944 13.628661,3.4047803 a 8.0565125,8.0565125 0 0 1 0.785323,2.3537679 l 0.0014,0.013006 C 13.538624,3.5856548 12.051813,2.7042925 10.837513,0.78510313 10.776093,0.68806353 10.714663,0.5908234 10.654838,0.4881811 10.620628,0.4295571 10.593208,0.376735 10.569408,0.3281155 a 1.4111803,1.4111803 0 0 1 -0.115647,-0.3071265 0.02000823,0.02000823 0 0 0 -0.0176,-0.0200050001 0.02761135,0.02761135 0 0 0 -0.01461,0 c -10e-4,0 -0.0026,0.00178 -0.0038,0.00221 -0.0012,4.26e-4 -0.0038,0.00221 -0.0056,0.00302 l 0.003,-0.0052 C 8.4673579,1.1414663 7.8064865,3.2527346 7.7456615,4.308769 A 3.8789949,3.8789949 0 0 0 5.6115648,5.131306 2.3183532,2.3183532 0 0 0 5.4114827,4.9796431 3.5950781,3.5950781 0 0 1 5.3896765,3.0842642 5.7433616,5.7433616 0 0 0 3.5231089,4.5268574 h -0.0036 C 3.2121811,4.1372973 3.2337901,2.8527688 3.2513973,2.5844585 A 1.38617,1.38617 0 0 0 2.9924911,2.7219152 5.6473219,5.6473219 0 0 0 2.2345789,3.3711823 6.7717843,6.7717843 0 0 0 1.509681,4.2409396 v 0.0012 -0.00139 A 6.549293,6.549293 0 0 0 0.46925322,6.5902964 l -0.010405,0.051226 c -0.014606,0.068226 -0.067228,0.4099693 -0.076231,0.4842002 0,0.00581 -0.0012,0.011207 -0.0018,0.017008 a 7.3904384,7.3904384 0 0 0 -0.1258576,1.0690617 v 0.040011 A 7.7549885,7.7549885 0 0 0 15.65209,9.5631425 c 0.013,-0.1000412 0.02361,-0.1990817 0.03522,-0.3001236 A 7.9746791,7.9746791 0 0 0 15.184301,5.3675873 Z M 6.2466263,11.437683 c 0.036214,0.01741 0.070229,0.03622 0.1074442,0.05282 l 0.00542,0.0034 q -0.056422,-0.02702 -0.1128454,-0.05622 z M 8.0229559,6.7605596 Z M 14.415985,5.773354 v -0.0074 l 0.0014,0.0082 z"
     id="path5142"
     inkscape:connector-curvature="0"
     style="fill:url(#a);stroke-width:0.20008227" />
  <path
     d="m 14.416385,5.7741545 -0.0014,-0.0082 v 0.0074 z"
     id="path5144"
     inkscape:connector-curvature="0"
     style="fill:none;stroke-width:0.20008227" />
  <path
     d="M 15.184301,5.3675873 C 14.847362,4.5568538 14.163881,3.6814941 13.628661,3.4047801 a 8.0565125,8.0565125 0 0 1 0.785323,2.3537681 v 0.0074 l 0.0014,0.0082 a 7.022888,7.022888 0 0 1 -0.24132,5.2337498 C 13.285292,12.91489 11.134008,14.869494 7.7666235,14.774455 4.128144,14.671412 0.92382642,11.971503 0.32478012,8.4352485 c -0.1090449,-0.5576294 0,-0.8403453 0.054823,-1.2935327 a 5.7775753,5.7775753 0 0 0 -0.1246517,1.0700401 v 0.040011 A 7.7549885,7.7549885 0 0 0 15.652082,9.5631061 c 0.013,-0.1000419 0.02361,-0.1990825 0.03521,-0.3001236 A 7.9746791,7.9746791 0 0 0 15.184301,5.3675873 Z"
     id="path5146"
     inkscape:connector-curvature="0"
     style="fill:url(#b);stroke-width:0.20008227" />
  <path
     d="M 15.184301,5.3675873 C 14.847362,4.5568538 14.163881,3.6814941 13.628661,3.4047801 a 8.0565125,8.0565125 0 0 1 0.785323,2.3537681 v 0.0074 l 0.0014,0.0082 a 7.022888,7.022888 0 0 1 -0.24132,5.2337498 C 13.285292,12.91489 11.134008,14.869494 7.7666235,14.774455 4.128144,14.671412 0.92382642,11.971503 0.32478012,8.4352485 c -0.1090449,-0.5576294 0,-0.8403453 0.054823,-1.2935327 a 5.7775753,5.7775753 0 0 0 -0.1246517,1.0700401 v 0.040011 A 7.7549885,7.7549885 0 0 0 15.652082,9.5631061 c 0.013,-0.1000419 0.02361,-0.1990825 0.03521,-0.3001236 A 7.9746791,7.9746791 0 0 0 15.184301,5.3675873 Z"
     id="path5148"
     inkscape:connector-curvature="0"
     style="fill:url(#c);stroke-width:0.20008227" />
  <path
     d="m 11.415951,6.2791623 c 0.01681,0.011806 0.03241,0.023606 0.04822,0.035411 A 4.2217358,4.2217358 0 0 0 10.743875,5.3751907 C 8.3336839,2.9645995 10.112215,0.1484414 10.412139,0.0053828 l 0.003,-0.0044 C 8.4673189,1.1414514 7.8064463,3.2527196 7.7456214,4.308754 7.8360584,4.302554 7.925696,4.294948 8.0181339,4.294948 a 3.9136093,3.9136093 0 0 1 3.3977971,1.9842152 z"
     id="path5150"
     inkscape:connector-curvature="0"
     style="fill:url(#d);stroke-width:0.20008227" />
  <path
     d="m 8.0231565,6.7605596 c -0.012803,0.1928803 -0.6942861,0.8581527 -0.9325834,0.8581527 -2.2051066,0 -2.5630537,1.3339487 -2.5630537,1.3339487 0.09764,1.123262 0.8803619,2.048442 1.8265511,2.537843 0.043217,0.02241 0.087036,0.04262 0.1308532,0.06243 q 0.1138475,0.05042 0.2276935,0.09324 a 3.4484177,3.4484177 0 0 0 1.0090153,0.19468 C 11.586622,12.022123 12.335329,7.2189479 9.5461829,5.8251741 A 2.6771007,2.6771007 0 0 1 11.415951,6.2791609 3.9136093,3.9136093 0 0 0 8.0181539,4.2949455 c -0.092037,0 -0.1820752,0.00761 -0.2725117,0.013806 A 3.8789949,3.8789949 0 0 0 5.6115648,5.1312899 c 0.1182485,0.100041 0.251704,0.2336961 0.5328192,0.5108099 0.5262163,0.5184128 1.8757712,1.0554337 1.8787725,1.1184598 z"
     id="path5152"
     inkscape:connector-curvature="0"
     style="fill:url(#e);stroke-width:0.20008227" />
  <path
     d="m 8.0231565,6.7605596 c -0.012803,0.1928803 -0.6942861,0.8581527 -0.9325834,0.8581527 -2.2051066,0 -2.5630537,1.3339487 -2.5630537,1.3339487 0.09764,1.123262 0.8803619,2.048442 1.8265511,2.537843 0.043217,0.02241 0.087036,0.04262 0.1308532,0.06243 q 0.1138475,0.05042 0.2276935,0.09324 a 3.4484177,3.4484177 0 0 0 1.0090153,0.19468 C 11.586622,12.022123 12.335329,7.2189479 9.5461829,5.8251741 A 2.6771007,2.6771007 0 0 1 11.415951,6.2791609 3.9136093,3.9136093 0 0 0 8.0181539,4.2949455 c -0.092037,0 -0.1820752,0.00761 -0.2725117,0.013806 A 3.8789949,3.8789949 0 0 0 5.6115648,5.1312899 c 0.1182485,0.100041 0.251704,0.2336961 0.5328192,0.5108099 0.5262163,0.5184128 1.8757712,1.0554337 1.8787725,1.1184598 z"
     id="path5154"
     inkscape:connector-curvature="0"
     style="fill:url(#f);stroke-width:0.20008227" />
  <path
     d="m 6.2466263,11.437683 q 0.056423,0.02901 0.1128464,0.05622 l -0.00542,-0.0034 c -0.036619,-0.0166 -0.071231,-0.03542 -0.1074458,-0.05282 z"
     id="path5156"
     inkscape:connector-curvature="0"
     style="fill:url(#g);stroke-width:0.20008227" />
  <path
     d="m 6.2466263,11.437683 q 0.056423,0.02901 0.1128464,0.05622 l -0.00542,-0.0034 c -0.036619,-0.0166 -0.071231,-0.03542 -0.1074458,-0.05282 z"
     id="path5158"
     inkscape:connector-curvature="0"
     style="fill:url(#h);stroke-width:0.20008227" />
  <path
     d="m 5.2500163,4.8733839 c 0.062826,0.040014 0.1146476,0.074831 0.1600662,0.1062437 A 3.5950781,3.5950781 0 0 1 5.3882747,3.0842484 5.7433616,5.7433616 0 0 0 3.5217069,4.5268418 c 0.037815,-0.00101 1.1626778,-0.021206 1.7283094,0.3465421 z"
     id="path5160"
     inkscape:connector-curvature="0"
     style="fill:url(#i);stroke-width:0.20008227" />
  <path
     d="m 0.32579162,8.4352485 c 0.598446,3.5362545 3.80336428,6.2361635 7.44186038,6.3392065 3.367384,0.09524 5.518669,-1.859565 6.407434,-3.766548 a 7.022888,7.022888 0 0 0 0.241299,-5.2337525 v -0.0074 c 0,-0.0058 -0.0012,-0.0092 0,-0.0074 l 0.0014,0.013006 c 0.275112,1.7961389 -0.638463,3.5362533 -2.06665,4.7129375 l -0.0044,0.01 C 9.5639699,12.761621 6.9008752,11.862651 6.3618538,11.4957 q -0.056423,-0.02701 -0.1128464,-0.05622 C 4.6265082,10.663962 3.9562323,9.1857543 4.0998912,7.9180335 A 1.9914188,1.9914188 0 0 1 2.2629734,6.762564 2.9248026,2.9248026 0 0 1 5.1139458,6.648117 3.8615877,3.8615877 0 0 0 8.0255427,6.762564 C 8.0225554,6.699538 6.6729866,6.1623167 6.1467705,5.6441042 5.8656548,5.3669898 5.7322,5.233535 5.6139514,5.1332942 A 2.3183532,2.3183532 0 0 0 5.4138687,4.9816319 C 5.3678505,4.950218 5.3160289,4.9162045 5.253803,4.8753881 4.6881709,4.5076371 3.5633084,4.5278451 3.526093,4.5288458 h -0.0036 C 3.2151648,4.1392853 3.2367739,2.8547575 3.2543811,2.5864468 A 1.38617,1.38617 0 0 0 2.9954749,2.7239035 5.6473219,5.6473219 0 0 0 2.2375628,3.3731706 6.7717843,6.7717843 0 0 0 1.5096636,4.2409269 v 0.0012 -0.00139 A 6.549293,6.549293 0 0 0 0.46923582,6.5902995 c -0.003803,0.015808 -0.2793148,1.220301 -0.1434589,1.8449583 z"
     id="path5162"
     inkscape:connector-curvature="0"
     style="fill:url(#j);stroke-width:0.20008227" />
  <path
     d="M 8.0231565,6.7605596 H 8.0229559 Z"
     id="path5164"
     inkscape:connector-curvature="0"
     style="fill:#ff4aa2;stroke-width:0.20008227" />
  <path
     d="m 10.744276,5.3751907 a 4.2217358,4.2217358 0 0 1 0.720296,0.9403865 c 0.04262,0.032214 0.08243,0.064227 0.116247,0.095239 1.758123,1.6206656 0.836944,3.9116088 0.768316,4.0746748 C 13.777322,9.3088072 14.690098,7.5686913 14.415784,5.7725536 13.538624,3.5856544 12.051813,2.7042921 10.837513,0.78510273 10.776083,0.68806313 10.714663,0.590823 10.654838,0.4881807 10.620618,0.4295567 10.593208,0.3767346 10.569408,0.3281151 a 1.4111803,1.4111803 0 0 1 -0.115647,-0.3071265 0.02000823,0.02000823 0 0 0 -0.0176,-0.0200050001 0.02761135,0.02761135 0 0 0 -0.01461,0 c -10e-4,0 -0.0026,0.00178 -0.0038,0.00221 -0.0012,4.26e-4 -0.0038,0.00221 -0.0056,0.00302 -0.299923,0.1422586 -2.0784551,2.9584166 0.332137,5.369008 z"
     id="path5166"
     inkscape:connector-curvature="0"
     style="fill:url(#k);stroke-width:0.20008227" />
  <path
     d="m 11.579618,6.4098159 c -0.03381,-0.031011 -0.07363,-0.063026 -0.116247,-0.095239 -0.01581,-0.011806 -0.03141,-0.023606 -0.04822,-0.035411 A 2.6771007,2.6771007 0 0 0 9.5453839,5.8251782 C 12.334531,7.2197518 11.586223,12.022126 7.7208332,11.840852 A 3.4484177,3.4484177 0 0 1 6.7118171,11.646169 Q 6.5979704,11.603548 6.4841236,11.552931 C 6.4403045,11.532925 6.3964879,11.51292 6.35327,11.490506 l 0.00542,0.0034 c 0.5390229,0.367948 3.2013179,1.266918 5.984862,-1.000415 l 0.0044,-0.01001 c 0.06943,-0.162066 0.990608,-2.4536084 -0.768316,-4.0736746 z"
     id="path5168"
     inkscape:connector-curvature="0"
     style="fill:url(#l);stroke-width:0.20008227" />
  <path
     d="m 4.5275194,8.952661 c 0,0 0.3579471,-1.3339487 2.5630537,-1.3339487 0.2382973,0 0.9203779,-0.6652724 0.9325834,-0.8581527 A 3.8615877,3.8615877 0 0 1 5.1115598,6.6461126 2.9248026,2.9248026 0 0 0 2.2605872,6.7605596 1.9914188,1.9914188 0 0 0 4.0975428,7.9160353 c -0.1436595,1.2679206 0.5266159,2.7461287 2.1490835,3.5214477 0.036214,0.0174 0.070229,0.03622 0.1074442,0.05282 C 5.4070813,11.001103 4.6251595,10.075923 4.5275194,8.952661 Z"
     id="path5170"
     inkscape:connector-curvature="0"
     style="fill:url(#m);stroke-width:0.20008227" />
  <path
     d="m 9.8905239,7.6941436 -2e-4,1.998e-4 z"
     id="path5172"
     inkscape:connector-curvature="0"
     style="fill:#ff4aa2;stroke-width:0.20008227" />
  <path
     d="M 15.184301,5.3675873 C 14.847362,4.556854 14.163881,3.6814944 13.628661,3.4047803 a 8.0565125,8.0565125 0 0 1 0.785323,2.3537679 l 0.0014,0.013006 C 13.538624,3.5856548 12.051813,2.7042925 10.837513,0.78510313 10.776093,0.68806353 10.714663,0.5908234 10.654838,0.4881811 10.620628,0.4295571 10.593208,0.376735 10.569408,0.3281155 a 1.4111803,1.4111803 0 0 1 -0.115647,-0.3071265 0.02000823,0.02000823 0 0 0 -0.0176,-0.0200050001 0.02761135,0.02761135 0 0 0 -0.01461,0 c -10e-4,0 -0.0026,0.00178 -0.0038,0.00221 -0.0012,4.26e-4 -0.0038,0.00221 -0.0056,0.00302 l 0.003,-0.0052 C 8.4673579,1.1414766 7.8064865,3.2527447 7.7456615,4.3087791 c 0.090437,-0.0062 0.1800739,-0.013806 0.2725118,-0.013806 A 3.9136093,3.9136093 0 0 1 11.415971,6.2791894 2.6771007,2.6771007 0 0 0 9.5462019,5.8252026 C 12.335348,7.2197758 11.587041,12.02215 7.7216519,11.840875 A 3.4484177,3.4484177 0 0 1 6.7126172,11.646184 q -0.113846,-0.04262 -0.2276935,-0.09324 c -0.043814,-0.02001 -0.087636,-0.04001 -0.1308532,-0.06242 l 0.00542,0.0034 q -0.056422,-0.02702 -0.1128454,-0.05622 c 0.036213,0.0174 0.070229,0.03622 0.1074442,0.05282 -0.9469892,-0.489401 -1.7289105,-1.414581 -1.8265511,-2.5378436 0,0 0.3579471,-1.3339486 2.5630543,-1.3339486 0.2382972,0 0.9203779,-0.6652732 0.9325833,-0.8581519 C 8.0201328,6.6975622 6.6706189,6.1603412 6.1444033,5.642128 5.8632682,5.3649927 5.7298133,5.2315379 5.6115648,5.1312965 A 2.3183532,2.3183532 0 0 0 5.4114827,4.9796342 3.5950781,3.5950781 0 0 1 5.3896748,3.0842553 5.7433616,5.7433616 0 0 0 3.5231072,4.5268481 h -0.0036 C 3.2121776,4.137288 3.2337862,2.8527599 3.2513934,2.5844492 A 1.38617,1.38617 0 0 0 2.9924872,2.7219059 5.6473219,5.6473219 0 0 0 2.2345752,3.371173 6.7717843,6.7717843 0 0 0 1.5096772,4.2409307 v 0.0012 -0.00139 A 6.549293,6.549293 0 0 0 0.46924942,6.5903026 l -0.010405,0.051226 c -0.014606,0.068226 -0.080033,0.4147705 -0.089437,0.4892004 0,0.00558 0,-0.00581 0,0 A 9.0225103,9.0225103 0 0 0 0.25496052,8.21179 V 8.251801 A 7.7549885,7.7549885 0 0 0 15.652091,9.5631402 c 0.013,-0.1000412 0.02361,-0.1990817 0.03521,-0.3001228 a 7.9746791,7.9746791 0 0 0 -0.503,-3.8954301 z m -0.769316,0.3983635 0.0014,0.0082 z"
     id="path5174"
     inkscape:connector-curvature="0"
     style="fill:url(#n);stroke-width:0.20008227" />
</svg>
