<?xml version="1.0" encoding="UTF-8" standalone="no"?>
<svg
   xmlns:dc="http://purl.org/dc/elements/1.1/"
   xmlns:cc="http://creativecommons.org/ns#"
   xmlns:rdf="http://www.w3.org/1999/02/22-rdf-syntax-ns#"
   xmlns:svg="http://www.w3.org/2000/svg"
   xmlns="http://www.w3.org/2000/svg"
   xmlns:sodipodi="http://sodipodi.sourceforge.net/DTD/sodipodi-0.dtd"
   xmlns:inkscape="http://www.inkscape.org/namespaces/inkscape"
   height="16"
   width="16"
   id="svg1008"
   version="1.1"
   viewBox="0 0 16 16"
   sodipodi:docname="firefox.svg"
   inkscape:version="0.92.4 5da689c313, 2019-01-14">
  <sodipodi:namedview
     pagecolor="#ffffff"
     bordercolor="#666666"
     borderopacity="1"
     objecttolerance="10"
     gridtolerance="10"
     guidetolerance="10"
     inkscape:pageopacity="0"
     inkscape:pageshadow="2"
     inkscape:window-width="1366"
     inkscape:window-height="708"
     id="namedview95"
     showgrid="false"
     inkscape:zoom="2.8792082"
     inkscape:cx="3.9414039"
     inkscape:cy="40.98349"
     inkscape:window-x="0"
     inkscape:window-y="19"
     inkscape:window-maximized="1"
     inkscape:current-layer="svg1008" />
  <metadata
     id="metadata1012">
    <rdf:RDF>
      <cc:Work
         rdf:about="">
        <dc:format>image/svg+xml</dc:format>
        <dc:type
           rdf:resource="http://purl.org/dc/dcmitype/StillImage" />
        <dc:title></dc:title>
      </cc:Work>
    </rdf:RDF>
  </metadata>
  <defs
     id="defs978">
    <linearGradient
       gradientTransform="matrix(0.20008182,0,0,0.20008182,-0.00512262,-8.1951351e-4)"
       gradientUnits="userSpaceOnUse"
       y2="74.468002"
       x2="6.447"
       y1="12.393"
       x1="70.786003"
       id="a">
      <stop
         id="stop834"
         stop-color="#fff44f"
         offset=".048" />
      <stop
         id="stop836"
         stop-color="#ffe847"
         offset=".111" />
      <stop
         id="stop838"
         stop-color="#ffc830"
         offset=".225" />
      <stop
         id="stop840"
         stop-color="#ff980e"
         offset=".368" />
      <stop
         id="stop842"
         stop-color="#ff8b16"
         offset=".401" />
      <stop
         id="stop844"
         stop-color="#ff672a"
         offset=".462" />
      <stop
         id="stop846"
         stop-color="#ff3647"
         offset=".534" />
      <stop
         id="stop848"
         stop-color="#e31587"
         offset=".705" />
    </linearGradient>
    <radialGradient
       gradientUnits="userSpaceOnUse"
       gradientTransform="matrix(0.20008182,0,0,0.20008182,1595.6474,1705.4966)"
       r="80.796997"
       cy="-8515.1211"
       cx="-7907.187"
       id="b">
      <stop
         id="stop851"
         stop-color="#ffbd4f"
         offset=".129" />
      <stop
         id="stop853"
         stop-color="#ffac31"
         offset=".186" />
      <stop
         id="stop855"
         stop-color="#ff9d17"
         offset=".247" />
      <stop
         id="stop857"
         stop-color="#ff980e"
         offset=".283" />
      <stop
         id="stop859"
         stop-color="#ff563b"
         offset=".403" />
      <stop
         id="stop861"
         stop-color="#ff3750"
         offset=".467" />
      <stop
         id="stop863"
         stop-color="#f5156c"
         offset=".71" />
      <stop
         id="stop865"
         stop-color="#eb0878"
         offset=".782" />
      <stop
         id="stop867"
         stop-color="#e50080"
         offset=".86" />
    </radialGradient>
    <radialGradient
       gradientUnits="userSpaceOnUse"
       gradientTransform="matrix(0.20008182,0,0,0.20008182,1595.6474,1705.4966)"
       r="80.796997"
       cy="-8482.0889"
       cx="-7936.7109"
       id="c">
      <stop
         id="stop870"
         stop-color="#960e18"
         offset=".3" />
      <stop
         id="stop872"
         stop-opacity=".74"
         stop-color="#b11927"
         offset=".351" />
      <stop
         id="stop874"
         stop-opacity=".343"
         stop-color="#db293d"
         offset=".435" />
      <stop
         id="stop876"
         stop-opacity=".094"
         stop-color="#f5334b"
         offset=".497" />
      <stop
         id="stop878"
         stop-opacity="0"
         stop-color="#ff3750"
         offset=".53" />
    </radialGradient>
    <radialGradient
       gradientUnits="userSpaceOnUse"
       gradientTransform="matrix(0.20008182,0,0,0.20008182,1595.6474,1705.4966)"
       r="58.534"
       cy="-8533.457"
       cx="-7926.9702"
       id="d">
      <stop
         id="stop881"
         stop-color="#fff44f"
         offset=".132" />
      <stop
         id="stop883"
         stop-color="#ffdc3e"
         offset=".252" />
      <stop
         id="stop885"
         stop-color="#ff9d12"
         offset=".506" />
      <stop
         id="stop887"
         stop-color="#ff980e"
         offset=".526" />
    </radialGradient>
    <radialGradient
       gradientUnits="userSpaceOnUse"
       gradientTransform="matrix(0.20008182,0,0,0.20008182,1595.6474,1705.4966)"
       r="38.471001"
       cy="-8460.9844"
       cx="-7945.6479"
       id="e">
      <stop
         id="stop890"
         stop-color="#3a8ee6"
         offset=".353" />
      <stop
         id="stop892"
         stop-color="#5c79f0"
         offset=".472" />
      <stop
         id="stop894"
         stop-color="#9059ff"
         offset=".669" />
      <stop
         id="stop896"
         stop-color="#c139e6"
         offset="1" />
    </radialGradient>
    <radialGradient
       gradientUnits="userSpaceOnUse"
       gradientTransform="matrix(0.19447953,-0.04701923,0.0550225,0.22769311,2019.0809,1567.3997)"
       r="20.396999"
       cy="-8491.5459"
       cx="-7935.6201"
       id="f">
      <stop
         id="stop899"
         stop-opacity="0"
         stop-color="#9059ff"
         offset=".206" />
      <stop
         id="stop901"
         stop-opacity=".064"
         stop-color="#8c4ff3"
         offset=".278" />
      <stop
         id="stop903"
         stop-opacity=".45"
         stop-color="#7716a8"
         offset=".747" />
      <stop
         id="stop905"
         stop-opacity=".6"
         stop-color="#6e008b"
         offset=".975" />
    </radialGradient>
    <radialGradient
       gradientUnits="userSpaceOnUse"
       gradientTransform="matrix(0.20008182,0,0,0.20008182,1595.6474,1705.4966)"
       r="27.676001"
       cy="-8518.4268"
       cx="-7937.731"
       id="g">
      <stop
         id="stop908"
         stop-color="#ffe226"
         offset="0" />
      <stop
         id="stop910"
         stop-color="#ffdb27"
         offset=".121" />
      <stop
         id="stop912"
         stop-color="#ffc82a"
         offset=".295" />
      <stop
         id="stop914"
         stop-color="#ffa930"
         offset=".502" />
      <stop
         id="stop916"
         stop-color="#ff7e37"
         offset=".732" />
      <stop
         id="stop918"
         stop-color="#ff7139"
         offset=".792" />
    </radialGradient>
    <radialGradient
       gradientUnits="userSpaceOnUse"
       gradientTransform="matrix(0.20008182,0,0,0.20008182,1595.6474,1705.4966)"
       r="118.081"
       cy="-8535.9814"
       cx="-7915.9771"
       id="h">
      <stop
         id="stop921"
         stop-color="#fff44f"
         offset=".113" />
      <stop
         id="stop923"
         stop-color="#ff980e"
         offset=".456" />
      <stop
         id="stop925"
         stop-color="#ff5634"
         offset=".622" />
      <stop
         id="stop927"
         stop-color="#ff3647"
         offset=".716" />
      <stop
         id="stop929"
         stop-color="#e31587"
         offset=".904" />
    </radialGradient>
    <radialGradient
       gradientUnits="userSpaceOnUse"
       gradientTransform="matrix(0.02100859,0.19908141,-0.13065343,0.01380564,-937.18921,1694.7304)"
       r="86.499001"
       cy="-8522.8594"
       cx="-7927.165"
       id="i">
      <stop
         id="stop932"
         stop-color="#fff44f"
         offset="0" />
      <stop
         id="stop934"
         stop-color="#ffe847"
         offset=".06" />
      <stop
         id="stop936"
         stop-color="#ffc830"
         offset=".168" />
      <stop
         id="stop938"
         stop-color="#ff980e"
         offset=".304" />
      <stop
         id="stop940"
         stop-color="#ff8b16"
         offset=".356" />
      <stop
         id="stop942"
         stop-color="#ff672a"
         offset=".455" />
      <stop
         id="stop944"
         stop-color="#ff3647"
         offset=".57" />
      <stop
         id="stop946"
         stop-color="#e31587"
         offset=".737" />
    </radialGradient>
    <radialGradient
       gradientUnits="userSpaceOnUse"
       gradientTransform="matrix(0.20008182,0,0,0.20008182,1595.6474,1705.4966)"
       r="73.720001"
       cy="-8508.1758"
       cx="-7938.3828"
       id="j">
      <stop
         id="stop949"
         stop-color="#fff44f"
         offset=".137" />
      <stop
         id="stop951"
         stop-color="#ff980e"
         offset=".48" />
      <stop
         id="stop953"
         stop-color="#ff5634"
         offset=".592" />
      <stop
         id="stop955"
         stop-color="#ff3647"
         offset=".655" />
      <stop
         id="stop957"
         stop-color="#e31587"
         offset=".904" />
    </radialGradient>
    <radialGradient
       gradientUnits="userSpaceOnUse"
       gradientTransform="matrix(0.20008182,0,0,0.20008182,1595.6474,1705.4966)"
       r="80.685997"
       cy="-8503.8613"
       cx="-7918.9229"
       id="k">
      <stop
         id="stop960"
         stop-color="#fff44f"
         offset=".094" />
      <stop
         id="stop962"
         stop-color="#ffe141"
         offset=".231" />
      <stop
         id="stop964"
         stop-color="#ffaf1e"
         offset=".509" />
      <stop
         id="stop966"
         stop-color="#ff980e"
         offset=".626" />
    </radialGradient>
    <linearGradient
       gradientTransform="matrix(0.20008182,0,0,0.20008182,-0.00512262,-8.1951351e-4)"
       gradientUnits="userSpaceOnUse"
       y2="66.806"
       x2="15.267"
       y1="12.061"
       x1="70.013"
       id="l">
      <stop
         id="stop969"
         stop-opacity=".8"
         stop-color="#fff44f"
         offset=".167" />
      <stop
         id="stop971"
         stop-opacity=".634"
         stop-color="#fff44f"
         offset=".266" />
      <stop
         id="stop973"
         stop-opacity=".217"
         stop-color="#fff44f"
         offset=".489" />
      <stop
         id="stop975"
         stop-opacity="0"
         stop-color="#fff44f"
         offset=".6" />
    </linearGradient>
  </defs>
  <path
     style="fill:url(#a);stroke-width:0.20008183"
     id="path980"
     d="M 15.184289,5.367576 C 14.847351,4.5568445 14.163872,3.6814864 13.628653,3.4047734 a 8.0564952,8.0564952 0 0 1 0.785321,2.3537631 l 0.0014,0.013006 C 13.538622,3.5856469 12.051814,2.704287 10.837517,0.78510185 10.776087,0.68806215 10.714666,0.59082219 10.654842,0.48818009 c -0.03421,-0.058624 -0.06163,-0.1114454 -0.08543,-0.1600652 a 1.411177,1.411177 0 0 1 -0.115648,-0.3071253 0.02000818,0.02000818 0 0 0 -0.01761,-0.0200060035 0.02761129,0.02761129 0 0 0 -0.01461,0 c -0.001,0 -0.0026,0.001780004 -0.0038,0.002210004 -0.0012,4.26e-4 -0.0038,0.00221 -0.0056,0.00298 l 0.003,-0.005200004 C 8.4673422,1.1414233 7.8064723,3.2526868 7.7456467,4.3087188 A 3.8789862,3.8789862 0 0 0 5.6115745,5.1312565 2.3183481,2.3183481 0 0 0 5.4114923,4.979594 3.5950701,3.5950701 0 0 1 5.3896862,3.0842192 5.7433489,5.7433489 0 0 0 3.5231226,4.5268089 h -0.0036 C 3.2121955,4.1372497 3.2338045,2.8527244 3.2514117,2.5844147 A 1.3861669,1.3861669 0 0 0 2.992506,2.7218706 5.6473095,5.6473095 0 0 0 2.2345958,3.3711364 6.7717691,6.7717691 0 0 0 1.5096995,4.2408921 v 0.0012 -0.00139 A 6.5492784,6.5492784 0 0 0 0.46927398,6.5902833 l -0.010405,0.051218 c -0.014606,0.068226 -0.067228,0.4099676 -0.076231,0.4841982 0,0.00581 -0.0012,0.011207 -0.0018,0.017008 a 7.3904222,7.3904222 0 0 0 -0.1258571,1.0690586 v 0.040019 A 7.7549712,7.7549712 0 0 0 15.652079,9.5630892 c 0.013,-0.100041 0.02361,-0.1990813 0.03521,-0.3001229 a 7.9746612,7.9746612 0 0 0 -0.503,-3.8953903 z m -8.9376552,6.070082 c 0.036213,0.01741 0.070229,0.03622 0.107444,0.05282 l 0.00542,0.0034 Q 6.303076,11.466872 6.2466526,11.437666 Z M 8.0229605,6.7605461 Z M 14.415975,5.7733422 v -0.0074 l 0.0014,0.0082 z"
     inkscape:connector-curvature="0" />
  <path
     style="fill:url(#b);stroke-width:0.20008183"
     id="path982"
     d="M 15.184289,5.367576 C 14.847351,4.5568445 14.163872,3.6814864 13.628653,3.4047734 a 8.0564952,8.0564952 0 0 1 0.785321,2.3537631 v 0.0074 l 0.0014,0.0082 a 7.0228722,7.0228722 0 0 1 -0.241309,5.2337465 c -0.888764,1.90698 -3.040043,3.861579 -6.40742,3.76654 -3.6384882,-0.103041 -6.84279882,-2.802946 -7.44184382,-6.3391927 -0.1090445,-0.5576273 0,-0.8403433 0.054822,-1.2935281 A 5.7775626,5.7775626 0 0 0 0.25497218,8.211739 V 8.25175 A 7.7549712,7.7549712 0 0 0 15.65208,9.5630892 c 0.013,-0.100041 0.02361,-0.1990813 0.03521,-0.3001229 A 7.9746612,7.9746612 0 0 0 15.184289,5.367576 Z"
     inkscape:connector-curvature="0" />
  <path
     style="fill:url(#c);stroke-width:0.20008183"
     id="path984"
     d="M 15.184289,5.367576 C 14.847351,4.5568445 14.163872,3.6814864 13.628653,3.4047734 a 8.0564952,8.0564952 0 0 1 0.785321,2.3537631 v 0.0074 l 0.0014,0.0082 a 7.0228722,7.0228722 0 0 1 -0.241309,5.2337465 c -0.888764,1.90698 -3.040043,3.861579 -6.40742,3.76654 -3.6384882,-0.103041 -6.84279882,-2.802946 -7.44184382,-6.3391927 -0.1090445,-0.5576273 0,-0.8403433 0.054822,-1.2935281 A 5.7775626,5.7775626 0 0 0 0.25497218,8.211739 V 8.25175 A 7.7549712,7.7549712 0 0 0 15.65208,9.5630892 c 0.013,-0.100041 0.02361,-0.1990813 0.03521,-0.3001229 A 7.9746612,7.9746612 0 0 0 15.184289,5.367576 Z"
     inkscape:connector-curvature="0" />
  <path
     style="fill:url(#d);stroke-width:0.20008183"
     id="path986"
     d="m 11.415948,6.2791492 c 0.01681,0.011806 0.03241,0.023606 0.04822,0.035411 A 4.2217263,4.2217263 0 0 0 10.743873,5.3751788 C 8.3336882,2.9645935 10.112214,0.14844189 10.412137,0.00538309 l 0.003,-0.004400004 C 8.4672992,1.141448 7.8064296,3.2527114 7.745604,4.3087434 c 0.090437,-0.0062 0.1800735,-0.013806 0.2725119,-0.013806 a 3.9136006,3.9136006 0 0 1 3.3977891,1.9842115 z"
     inkscape:connector-curvature="0" />
  <path
     style="fill:url(#e);stroke-width:0.20008183"
     id="path988"
     d="m 8.0231604,6.7605461 c -0.012803,0.1928791 -0.6942837,0.8581507 -0.9325812,0.8581507 -2.2051018,0 -2.5630485,1.3339456 -2.5630485,1.3339456 0.09764,1.1232586 0.8803602,2.0484386 1.8265471,2.5378376 0.043217,0.02241 0.087036,0.04262 0.1308534,0.06243 q 0.1138472,0.05042 0.2276929,0.09324 a 3.44841,3.44841 0 0 0 1.009013,0.19468 C 11.586617,12.022097 12.335324,7.2189333 9.5461832,5.8251622 a 2.6770948,2.6770948 0 0 1 1.8697648,0.453987 3.9136006,3.9136006 0 0 0 -3.3977894,-1.984212 c -0.092038,0 -0.1820748,0.00761 -0.2725119,0.013806 A 3.8789862,3.8789862 0 0 0 5.6115745,5.1312791 c 0.1182477,0.1000414 0.2517028,0.2336956 0.5328172,0.5108087 0.5262157,0.5184126 1.8757675,1.0554324 1.8787687,1.1184583 z"
     inkscape:connector-curvature="0" />
  <path
     style="fill:url(#f);stroke-width:0.20008183"
     id="path990"
     d="m 8.0231604,6.7605461 c -0.012803,0.1928791 -0.6942837,0.8581507 -0.9325812,0.8581507 -2.2051018,0 -2.5630485,1.3339456 -2.5630485,1.3339456 0.09764,1.1232586 0.8803602,2.0484386 1.8265471,2.5378376 0.043217,0.02241 0.087036,0.04262 0.1308534,0.06243 q 0.1138472,0.05042 0.2276929,0.09324 a 3.44841,3.44841 0 0 0 1.009013,0.19468 C 11.586617,12.022097 12.335324,7.2189333 9.5461832,5.8251622 a 2.6770948,2.6770948 0 0 1 1.8697648,0.453987 3.9136006,3.9136006 0 0 0 -3.3977894,-1.984212 c -0.092038,0 -0.1820748,0.00761 -0.2725119,0.013806 A 3.8789862,3.8789862 0 0 0 5.6115745,5.1312791 c 0.1182477,0.1000414 0.2517028,0.2336956 0.5328172,0.5108087 0.5262157,0.5184126 1.8757675,1.0554324 1.8787687,1.1184583 z"
     inkscape:connector-curvature="0" />
  <path
     style="fill:url(#g);stroke-width:0.20008183"
     id="path992"
     d="m 5.2500262,4.8733737 c 0.062825,0.040014 0.1146474,0.074831 0.1600654,0.1062435 A 3.5950701,3.5950701 0 0 1 5.3882838,3.0842425 5.7433489,5.7433489 0 0 0 3.5217206,4.5268321 c 0.037815,-0.00101 1.1626755,-0.021206 1.7283068,0.3465416 z"
     inkscape:connector-curvature="0" />
  <path
     style="fill:url(#h);stroke-width:0.20008183"
     id="path994"
     d="m 0.32581268,8.4352303 c 0.5984447,3.5362467 3.80335552,6.2361517 7.44184302,6.3391927 3.3673773,0.09524 5.5186573,-1.85956 6.4074193,-3.76654 a 7.0228722,7.0228722 0 0 0 0.2413,-5.2337403 v -0.0074 c 0,-0.0058 -0.0012,-0.00921 0,-0.0074 l 0.0014,0.013006 c 0.275113,1.7961338 -0.638461,3.5362456 -2.066645,4.7129273 l -0.0044,0.01001 C 9.5639712,12.7616 6.9008818,11.862633 6.361861,11.495683 q -0.056445,-0.02701 -0.1128677,-0.05622 C 4.6265564,10.663945 3.956282,9.1857406 4.0999412,7.918022 A 1.9914144,1.9914144 0 0 1 2.2629899,6.7625498 2.9247962,2.9247962 0 0 1 5.1139556,6.6481031 3.8615791,3.8615791 0 0 0 8.0255466,6.7625498 C 8.0225593,6.6995238 6.6729936,6.1623039 6.1467777,5.6440921 5.8656627,5.3669784 5.7322082,5.2335239 5.6139599,5.1332829 A 2.3183481,2.3183481 0 0 0 5.4138932,4.9816181 C 5.3678745,4.9502044 5.3160531,4.9161915 5.253828,4.8753747 4.6881967,4.5076244 3.5633366,4.5278328 3.5261215,4.528833 h -0.0036 C 3.2151944,4.1392738 3.236803,2.8547486 3.2544102,2.5864388 A 1.3861669,1.3861669 0 0 0 2.9955045,2.7238948 5.6473095,5.6473095 0 0 0 2.2375944,3.3731605 6.7717691,6.7717691 0 0 0 1.5096967,4.2409153 v 0.0012 -0.00139 a 6.5492784,6.5492784 0 0 0 -1.04042542,2.349558 c -0.0038,0.015808 -0.2793142,1.2202981 -0.1434586,1.844954 z"
     inkscape:connector-curvature="0" />
  <path
     style="fill:url(#i);stroke-width:0.20008183"
     id="path996"
     d="m 10.744274,5.3751788 a 4.2217263,4.2217263 0 0 1 0.720293,0.9403847 c 0.04262,0.032214 0.08244,0.064227 0.116248,0.095239 1.758119,1.6206628 0.836942,3.9115995 0.768314,4.0746655 1.428184,-1.1766803 2.340958,-2.9167922 2.066646,-4.7129263 -0.877159,-2.1868951 -2.363967,-3.068255 -3.578264,-4.98744015 -0.06143,-0.0970397 -0.122851,-0.19427966 -0.182675,-0.29692176 -0.03421,-0.058624 -0.06163,-0.1114454 -0.08543,-0.1600652 a 1.411177,1.411177 0 0 1 -0.115648,-0.3071253 0.02000818,0.02000818 0 0 0 -0.01761,-0.0200060035 0.02761129,0.02761129 0 0 0 -0.01461,0 c -10e-4,0 -0.0026,0.001780004 -0.0038,0.002210004 -0.0012,4.26e-4 -0.0038,0.00221 -0.0056,0.00298 -0.299899,0.1422579 -2.0784268,2.95840951 0.332159,5.36899531 z"
     inkscape:connector-curvature="0" />
  <path
     style="fill:url(#j);stroke-width:0.20008183"
     id="path998"
     d="m 11.579614,6.4098031 c -0.03381,-0.031011 -0.07363,-0.063027 -0.116247,-0.09524 -0.01581,-0.011806 -0.03141,-0.023606 -0.04822,-0.035411 A 2.6770948,2.6770948 0 0 0 9.5453822,5.8251666 C 12.334523,7.2197372 11.586216,12.022101 7.7208363,11.840827 a 3.44841,3.44841 0 0 1 -1.0090122,-0.19468 q -0.1138473,-0.04262 -0.2276938,-0.09324 c -0.04382,-0.02001 -0.087636,-0.04001 -0.1308538,-0.06242 l 0.00542,0.0034 c 0.5390222,0.367948 3.2013117,1.266916 5.9848495,-1.000412 l 0.0044,-0.01001 c 0.06943,-0.162067 0.990605,-2.4536037 -0.768315,-4.073667 z"
     inkscape:connector-curvature="0" />
  <path
     style="fill:url(#k);stroke-width:0.20008183"
     id="path1000"
     d="m 4.5275307,8.9526424 c 0,0 0.3579467,-1.3339456 2.5630485,-1.3339456 0.2382975,0 0.9203765,-0.6652716 0.9325812,-0.8581507 A 3.8615791,3.8615791 0 0 1 5.1115702,6.6460994 2.9247962,2.9247962 0 0 0 2.2606037,6.7605461 1.9914144,1.9914144 0 0 0 4.0975551,7.9160184 c -0.1436591,1.2679184 0.5266152,2.7461236 2.1490787,3.5214406 0.036213,0.01741 0.070229,0.03622 0.107444,0.05282 C 5.4070904,11.00108 4.6251711,10.075901 4.5275307,8.9526424 Z"
     inkscape:connector-curvature="0" />
  <path
     style="fill:url(#l);stroke-width:0.20008183"
     id="path1002"
     d="M 15.184289,5.367576 C 14.847351,4.5568445 14.163872,3.6814864 13.628653,3.4047734 a 8.0564952,8.0564952 0 0 1 0.785321,2.3537631 l 0.0014,0.013006 C 13.538622,3.5856469 12.051814,2.704287 10.837517,0.78510185 10.776087,0.68806215 10.714666,0.59082219 10.654842,0.48818009 c -0.03421,-0.058624 -0.06163,-0.1114454 -0.08543,-0.1600652 a 1.411177,1.411177 0 0 1 -0.115648,-0.3071253 0.02000818,0.02000818 0 0 0 -0.01761,-0.0200060035 0.02761129,0.02761129 0 0 0 -0.01461,0 c -0.001,0 -0.0026,0.001780004 -0.0038,0.002210004 -0.0012,4.26e-4 -0.0038,0.00221 -0.0056,0.00298 l 0.003,-0.005200004 C 8.4673182,1.1414405 7.8064477,3.2527039 7.7456229,4.3087359 c 0.090437,-0.0062 0.1800735,-0.013805 0.2725112,-0.013805 A 3.9136006,3.9136006 0 0 1 11.415946,6.2791365 2.6770948,2.6770948 0 0 0 9.5461822,5.8251503 C 12.335322,7.219721 11.587016,12.022086 7.7216363,11.840812 A 3.44841,3.44841 0 0 1 6.7126234,11.646121 Q 6.5987769,11.6035 6.4849304,11.552883 c -0.043815,-0.02 -0.087636,-0.04001 -0.1308538,-0.06242 l 0.00542,0.0034 q -0.056422,-0.02702 -0.1128451,-0.05622 c 0.036213,0.01741 0.070229,0.03622 0.1074439,0.05282 -0.9469867,-0.4894 -1.7289067,-1.414579 -1.8265464,-2.5378383 0,0 0.3579461,-1.3339456 2.563048,-1.3339456 0.2382975,0 0.9203766,-0.6652724 0.9325819,-0.8581507 C 8.0201359,6.6975249 6.6706252,6.1603052 6.14441,5.6420928 5.8632949,5.3649797 5.7298404,5.2315252 5.6115922,5.1312841 A 2.3183481,2.3183481 0 0 0 5.4115105,4.9796222 3.5950701,3.5950701 0 0 1 5.3897028,3.084247 5.7433489,5.7433489 0 0 0 3.5231396,4.5268367 h -0.0036 C 3.212192,4.1372559 3.2338006,2.8527306 3.2514082,2.5844209 A 1.3861669,1.3861669 0 0 0 2.9925021,2.7218768 5.6473095,5.6473095 0 0 0 2.234592,3.3711426 6.7717691,6.7717691 0 0 0 1.5096957,4.2408983 v 0.0012 -0.00139 A 6.5492784,6.5492784 0 0 0 0.46927018,6.5902887 l -0.010405,0.051226 c -0.014606,0.068226 -0.080033,0.4147702 -0.089437,0.4891999 0,0.00558 0,-0.00581 0,0 A 9.0224899,9.0224899 0 0 0 0.25498148,8.211777 V 8.251788 A 7.7549712,7.7549712 0 0 0 15.65208,9.5630923 c 0.013,-0.100041 0.02361,-0.1990813 0.03521,-0.3001229 A 7.9746612,7.9746612 0 0 0 15.184289,5.367576 Z m -0.769315,0.398363 0.0014,0.0082 z"
     inkscape:connector-curvature="0" />
</svg>
