<?xml version="1.0" encoding="UTF-8" standalone="no"?>
<svg
   xmlns:dc="http://purl.org/dc/elements/1.1/"
   xmlns:cc="http://creativecommons.org/ns#"
   xmlns:rdf="http://www.w3.org/1999/02/22-rdf-syntax-ns#"
   xmlns:svg="http://www.w3.org/2000/svg"
   xmlns="http://www.w3.org/2000/svg"
   xmlns:xlink="http://www.w3.org/1999/xlink"
   xmlns:sodipodi="http://sodipodi.sourceforge.net/DTD/sodipodi-0.dtd"
   xmlns:inkscape="http://www.inkscape.org/namespaces/inkscape"
   width="16"
   height="16"
   version="1.1"
   viewBox="0 0 12 12"
   id="svg24"
   sodipodi:docname="gimp.svg"
   inkscape:version="0.92.3 (2405546, 2018-03-11)">
  <metadata
     id="metadata30">
    <rdf:RDF>
      <cc:Work
         rdf:about="">
        <dc:format>image/svg+xml</dc:format>
        <dc:type
           rdf:resource="http://purl.org/dc/dcmitype/StillImage" />
        <dc:title></dc:title>
      </cc:Work>
    </rdf:RDF>
  </metadata>
  <defs
     id="defs28">
    <linearGradient
       inkscape:collect="always"
       id="linearGradient852">
      <stop
         style="stop-color:#925130;stop-opacity:1;"
         offset="0"
         id="stop848" />
      <stop
         style="stop-color:#754127;stop-opacity:1"
         offset="1"
         id="stop850" />
    </linearGradient>
    <linearGradient
       inkscape:collect="always"
       id="linearGradient844">
      <stop
         style="stop-color:#0049ff;stop-opacity:1;"
         offset="0"
         id="stop840" />
      <stop
         style="stop-color:#ff0041;stop-opacity:1"
         offset="1"
         id="stop842" />
    </linearGradient>
    <linearGradient
       inkscape:collect="always"
       xlink:href="#linearGradient844"
       id="linearGradient846"
       x1="272.83267"
       y1="173.62025"
       x2="370.54828"
       y2="95.383087"
       gradientUnits="userSpaceOnUse" />
    <linearGradient
       inkscape:collect="always"
       xlink:href="#linearGradient852"
       id="linearGradient854"
       x1="31.9517"
       y1="191.9989"
       x2="339.66656"
       y2="191.9989"
       gradientUnits="userSpaceOnUse" />
  </defs>
  <sodipodi:namedview
     pagecolor="#ffffff"
     bordercolor="#666666"
     borderopacity="1"
     objecttolerance="10"
     gridtolerance="10"
     guidetolerance="10"
     inkscape:pageopacity="0"
     inkscape:pageshadow="2"
     inkscape:window-width="1366"
     inkscape:window-height="704"
     id="namedview26"
     showgrid="false"
     inkscape:zoom="0.65186406"
     inkscape:cx="-187.09074"
     inkscape:cy="262.58667"
     inkscape:window-x="0"
     inkscape:window-y="30"
     inkscape:window-maximized="1"
     inkscape:current-layer="svg24" />
  <ellipse
     cx="3.7331004"
     cy="6.8276219"
     rx="1.116303"
     ry="1.4785882"
     style="fill:#ffffff;stroke-width:0.03404296;paint-order:markers fill stroke"
     id="ellipse2" />
  <g
     id="g12"
     style="stroke-width:1.36000001"
     transform="matrix(0.03404297,0,0,0.03404297,-0.53622835,-0.53621267)">
    <path
       d="m 211.47,52.615 c -8.6431,14.604 -14.349,30.726 -24.617,44.337 -8.0322,10.651 -16.962,20.867 -28.495,28.628 22.391,-8.2075 49.32,-11.793 66.276,-19.533 0.57904,-0.27624 1.2059,-0.57905 1.8009,-0.8606 -2.6615,-17.876 -7.416,-35.72 -14.965,-52.571 z"
       id="path4"
       style="fill:#4b2a19;fill-opacity:1"
       inkscape:connector-curvature="0" />
    <path
       d="m 300.43,43.142 c -7.4107,28.49 -47.539,48.576 -74.467,61.421 -0.1753,0.085 -0.3566,0.16999 -0.5319,0.25499 -0.42498,0.20186 -0.85993,0.40905 -1.269,0.60561 -0.48873,0.22311 -0.98343,0.44158 -1.4881,0.65938 -0.0797,0.0319 -0.15341,0.0637 -0.23309,0.0956 -0.2603,0.11157 -0.52724,0.21714 -0.79286,0.32871 -0.42498,0.1753 -0.85528,0.35194 -1.2909,0.52192 -0.22312,0.085 -0.45023,0.17399 -0.67334,0.25898 -0.47811,0.18593 -0.96286,0.36125 -1.4463,0.54186 l -0.6056,0.22312 c -0.6428,0.22843 -1.2962,0.45819 -1.9603,0.6813 -0.0319,0.0106 -0.0625,0.0252 -0.0996,0.0359 0,0 -0.006,6.7e-4 -0.0119,0.006 -0.72248,0.24438 -1.4596,0.48409 -2.2033,0.72315 -0.14345,0.0425 -0.28687,0.089 -0.43031,0.13148 -0.6056,0.19125 -1.2119,0.37784 -1.8228,0.56377 -0.19654,0.0637 -0.39311,0.12284 -0.58966,0.18128 -0.61623,0.18062 -1.2318,0.36522 -1.8586,0.54584 -0.13812,0.0372 -0.27624,0.0803 -0.41437,0.11754 -1.02,0.29748 -2.0612,0.58369 -3.1077,0.87055 -0.92434,0.24968 -1.8606,0.49935 -2.8009,0.74904 -0.45686,0.12218 -0.91771,0.24038 -1.3746,0.36256 -0.26031,0.0638 -0.52193,0.13148 -0.77692,0.19523 -1.5884,0.40905 -3.1914,0.81943 -4.817,1.2232 -5.0998,1.275 -10.348,2.5486 -15.602,3.9085 -7.4372,1.9284 -14.881,4.044 -21.877,6.6098 -5.4876,2.0134 -10.709,4.2977 -15.437,6.9963 -21.398,12.202 -36.963,28.835 -49.086,48.171 -16.303,26.02 -5.0102,59.472 -49.618,84.36 -0.73841,0.87654 -1.6455,1.6827 -2.6814,2.4423 0.04781,-0.0372 0.09961,-0.0744 0.14742,-0.11156 1.5034,0.86059 2.9231,3.9218 2.9284,9.5104 0.0053,14.37 -6.0029,30.21 -10.757,34.657 -0.23905,0.22312 -0.60693,0.51529 -1.0478,0.81279 15.916,15.501 38.951,26.068 63.881,28.208 12.346,1.3334 29.748,0.70588 37.079,0.69526 62.298,-0.15406 121.66,-29.073 157.33,-70.095 2.6491,-3.2168 13.069,-15.443 13.273,-17.634 16.426,-26.323 34.651,-53.265 35.77,-83.418 h -0.002 c -17.809,5.2848 -36.552,11.198 -55.684,12.979 0.20187,-0.005 0.39378,-0.0109 0.57971,-0.016 0.085,0 0.17597,-0.006 0.26097,-0.006 0.0191,0 0.0369,-2e-5 0.0558,0 -4.8912,0.0535 -14.152,1.9525 -16.359,-0.37651 21.016,-23.486 40.953,-49.107 45.388,-78.585 2.7837,-20.468 -0.72845,-42.584 -13.473,-60.407 z m -15.286,139.37 c 0.0605,7.9e-4 0.12219,3e-5 0.18328,0.002 0.0797,0 0.16468,5.3e-4 0.23906,0.006 0.14343,0.005 0.26961,0.0152 0.40241,0.0259 0.0875,0.005 0.17551,0.0112 0.25897,0.0199 -0.3254,-0.0333 -0.68601,-0.052 -1.0837,-0.0538 z m -155.67,3.1197 c 12.712,-0.016 13.663,19.741 15.06,28.607 2.1143,13.26 4.5686,28.166 -15.029,33.133 -1.3334,0.56842 -6.4804,3.8581 -4.9664,-0.21116 5.5673,-9.6844 -4.0858,-34.137 -18.987,-21.977 -1.4821,-13.801 3.4524,-29.591 17.716,-38.245 2.3321,-0.89778 4.3886,-1.3068 6.2054,-1.3068 z m 174.14,66.999 c -0.62824,0.0227 -2.3416,1.1246 -5.6477,3.8408 -2.2585,1.2327 -3.9643,1.8836 -5.2672,2.0997 0.0365,-0.006 0.0705,-0.009 0.10756,-0.016 0.31874,-0.0638 0.66405,-0.15005 1.0359,-0.26694 0.18062,-0.0585 0.37187,-0.12215 0.57374,-0.19124 0.79153,-0.28689 1.6906,-0.67932 2.7053,-1.2052 0.25499,-0.13286 0.51929,-0.27158 0.7849,-0.42033 0.53122,-0.4303 1.01,-0.81146 1.4562,-1.1674 0.17531,-0.13811 0.32337,-0.251 0.48806,-0.3785 0.26561,-0.20718 0.5259,-0.40243 0.76498,-0.57772 0.14341,-0.11151 0.28156,-0.2072 0.41436,-0.30279 0.21781,-0.1594 0.4263,-0.30348 0.61756,-0.43629 0.15936,-0.10621 0.32804,-0.22244 0.46614,-0.31276 0.0319,-0.0159 0.0651,-0.0377 0.0916,-0.0538 0.20187,-0.12742 0.38115,-0.23372 0.54585,-0.31874 0.0638,-0.0319 0.12875,-0.0691 0.18725,-0.0956 0.0265,-0.0109 0.0532,-0.0273 0.0797,-0.0378 0.0797,-0.0372 0.15405,-0.0631 0.22311,-0.0896 0.0109,0 0.0152,-0.004 0.0259,-0.0104 0.0744,-0.0265 0.14343,-0.043 0.20718,-0.0538 h 0.0219 c 0.0428,-0.005 0.0795,-0.009 0.11754,-0.006 z m -11.391,5.9983 c -0.15706,0.0137 -0.30841,0.0207 -0.45222,0.0199 0.14596,-0.001 0.2929,-0.004 0.45222,-0.0199 z m -251.49,8.5322 c -0.08501,0.0637 -0.17398,0.12086 -0.25898,0.1793 0.085,-0.0584 0.17398,-0.11554 0.25898,-0.1793 z m -8.7813,44.261 v 0.006 c 0.05844,0.0585 0.12284,0.11687 0.18129,0.17531 -0.05845,-0.0584 -0.11754,-0.12285 -0.18129,-0.18127 z"
       id="path6"
       style="fill:url(#linearGradient854);fill-opacity:1"
       inkscape:connector-curvature="0" />
    <path
       d="m 349.33,88.574 c -18.163,3.1661 2.688,22.168 -1.6628,32.538 15.767,-4.388 18.907,-28.166 1.6628,-32.538 z m 7.5382,40.188 c -0.87653,0.0106 -1.838,0.32937 -2.4384,0.76498 -11.336,8.2447 -3.5327,25.759 -11.097,36.033 5.3495,0.30281 10.72,-1.4662 15.443,-3.3521 15.353,-5.0467 9.7162,-25.876 -0.52061,-33.096 -0.36655,-0.25499 -0.8606,-0.36124 -1.3865,-0.35062 z m -23.443,0.79685 c -5.4611,-0.0425 -3.6018,14.317 2.4012,14.556 5.0733,0.20186 5.6258,-8.335 3.4955,-12.096 -0.92965,-1.6309 -4.5048,-2.449 -5.8967,-2.4596 z m 6.2367,39.996 c -17.812,5.2858 -36.559,11.198 -55.694,12.978 h 0.0107 c 0.20187,-0.005 0.39312,-0.0106 0.57905,-0.016 0.085,0 0.1753,-0.005 0.26029,-0.005 0.17531,0 0.34,0 0.51,0.005 0.0797,0 0.16467,0 0.23905,0.005 0.14343,0.005 0.27093,0.016 0.40373,0.0265 0.0957,0.005 0.19125,0.0107 0.28155,0.0213 0.17531,0.0212 0.34,0.0425 0.49405,0.0744 h 0.005 c 0.005,0 0.0107,0 0.016,0.005 0.0744,0.016 0.14875,0.0318 0.2178,0.0532 0.0107,0 0.0212,0.005 0.0319,0.005 0.069,0.0213 0.1328,0.0425 0.19124,0.0637 0.005,0.005 0.0106,0.005 0.0106,0.005 0.0637,0.0265 0.1275,0.0532 0.18063,0.085 0.28155,0.14344 0.44092,0.34531 0.46748,0.61092 0.005,0.0106 0.005,0.0213 0.005,0.0318 0.005,0.0425 0,0.085 -0.005,0.1275 0,0.0213 0,0.0372 -0.005,0.0532 -0.005,0.0478 -0.016,0.0957 -0.0319,0.14344 0,0.0212 -0.005,0.0372 -0.0159,0.0584 -0.016,0.0478 -0.0319,0.0957 -0.0584,0.14875 -0.0106,0.0265 -0.016,0.0478 -0.0318,0.0744 -0.0213,0.0478 -0.0478,0.0956 -0.0744,0.14343 -0.016,0.0318 -0.0372,0.069 -0.0584,0.10089 -0.0319,0.0478 -0.0637,0.10089 -0.0956,0.14875 -0.0265,0.0425 -0.0532,0.0797 -0.085,0.11687 -0.0319,0.0532 -0.0744,0.1009 -0.11687,0.15406 -0.0319,0.0425 -0.069,0.0903 -0.10624,0.13281 -0.0425,0.0532 -0.085,0.10624 -0.13281,0.15936 -0.0425,0.0478 -0.085,0.0957 -0.13281,0.14875 -0.0585,0.0637 -0.11687,0.12218 -0.18062,0.19124 -0.0212,0.0265 -0.0532,0.0532 -0.0797,0.0797 -0.18593,0.19124 -0.40374,0.39843 -0.63748,0.61622 -0.15406,0.13813 -0.33999,0.29749 -0.52061,0.44624 -0.13812,0.12218 -0.2603,0.23375 -0.40905,0.35593 -0.21249,0.17531 -0.45686,0.36655 -0.69059,0.55248 -0.15938,0.12218 -0.30281,0.23905 -0.4728,0.37186 -0.41968,0.32405 -0.87653,0.66404 -1.3706,1.02 -0.55778,0.61092 -1.0571,1.2112 -1.5034,1.8062 -1.3281,1.7956 -2.1462,3.5486 -2.518,5.2433 -0.0584,0.28155 -0.11156,0.5631 -0.14874,0.84465 -0.14343,1.0837 -0.10625,2.1409 0.0903,3.1662 0.005,0.0372 0.005,0.069 0.016,0.10624 0.0532,0.26562 0.11688,0.52592 0.19125,0.78623 0.22312,0.78622 0.53654,1.5565 0.94028,2.3002 0.13281,0.24968 0.27624,0.49936 0.42499,0.74373 h 0.005 c 0.14875,0.24436 0.31343,0.48342 0.48342,0.72778 0.17001,0.23905 0.34531,0.47812 0.53124,0.71185 0.19125,0.23375 0.3878,0.46748 0.58966,0.70123 0.20187,0.22843 0.41436,0.45686 0.63749,0.68529 0.44092,0.45155 0.9084,0.89247 1.4078,1.3228 2.0028,1.7212 4.457,3.2777 7.2088,4.627 -0.13812,0.28686 -0.29749,0.56841 -0.47811,0.86059 -0.0903,0.14343 -0.18593,0.28686 -0.28686,0.4303 -0.1009,0.14875 -0.20718,0.29217 -0.31874,0.44092 -0.2178,0.29217 -0.45686,0.58966 -0.71185,0.88716 -0.255,0.29749 -0.52592,0.59498 -0.81278,0.89777 -0.57374,0.60562 -1.2006,1.2165 -1.8593,1.8328 -0.66405,0.61624 -1.3653,1.2378 -2.0877,1.8646 -1.7956,1.5671 -3.7133,3.1555 -5.4558,4.7386 -2.6136,2.3852 -4.8395,4.7545 -5.6948,7.0229 -0.0584,0.15405 -0.10624,0.3028 -0.15405,0.45686 -0.0425,0.14875 -0.0797,0.29749 -0.11156,0.44624 -0.0637,0.29749 -0.10089,0.59498 -0.11155,0.89246 -0.005,0.29218 0.016,0.58436 0.069,0.87653 0.0265,0.14344 0.0584,0.28687 0.1009,0.4303 0.0425,0.14344 0.0956,0.28687 0.15405,0.4303 0.11688,0.28686 0.26561,0.56842 0.45155,0.84466 0.0957,0.13811 0.19655,0.27624 0.30812,0.41436 0.11156,0.13812 0.23373,0.27625 0.36655,0.41436 0.26029,0.27093 0.55779,0.54186 0.89778,0.80747 0.16999,0.13281 0.35061,0.26562 0.54186,0.39843 0.37717,0.2603 0.80215,0.5206 1.2696,0.77559 0.46218,0.255 0.97747,0.50999 1.53,0.75435 0.46749,0.21249 0.97747,0.41436 1.514,0.61623 0.1009,0.0372 0.19656,0.0797 0.29749,0.11688 0.65342,0.23905 1.3546,0.4781 2.1037,0.70653 0.36655,0.0265 0.70654,0.0744 1.0253,0.13812 0.0319,0.005 0.0637,0.0106 0.0904,0.016 h 0.005 c 0.0372,0.005 0.0744,0.016 0.11155,0.0265 0.30281,0.069 0.58968,0.14875 0.85529,0.24968 0.14875,0.0532 0.29217,0.11688 0.4303,0.18062 0.13812,0.0637 0.27093,0.13812 0.39842,0.21249 0.255,0.14875 0.48343,0.31343 0.70122,0.49404 0.10625,0.0904 0.20719,0.18594 0.30281,0.28157 0.10089,0.10089 0.19125,0.20186 0.28155,0.30811 0.085,0.10624 0.16999,0.21249 0.24968,0.32405 0.0797,0.11687 0.15406,0.22843 0.22844,0.35061 0.21249,0.35592 0.3931,0.73841 0.54184,1.1422 0.1275,0.3453 0.23375,0.71185 0.31875,1.089 0.016,0.0637 0.0372,0.12219 0.0478,0.18593 0.069,0.29218 0.12218,0.59498 0.16468,0.9031 0.0478,0.30811 0.085,0.61622 0.11687,0.93497 0.0265,0.31873 0.0532,0.63747 0.069,0.95622 v 0.0319 c 0.0372,0.63217 0.0532,1.275 0.0637,1.9071 0.0106,0.64279 0.016,1.2803 0.0319,1.8965 0.0213,0.92434 0.0637,1.8062 0.17531,2.5977 0.0372,0.2603 0.0797,0.50998 0.1328,0.75435 0.0265,0.11686 0.0585,0.23905 0.0903,0.35061 0.0319,0.11687 0.0637,0.22311 0.1009,0.33468 0.0372,0.10624 0.0797,0.20718 0.12217,0.30811 0.0425,0.1009 0.0904,0.19656 0.13813,0.29218 0.016,0.0319 0.0372,0.0584 0.0532,0.085 0.085,0.15406 0.18062,0.29749 0.28156,0.42499 0.0637,0.0744 0.13281,0.14875 0.20187,0.21781 0.2178,0.20187 0.46216,0.36654 0.75435,0.48342 0.28686,0.11687 0.62153,0.18593 0.99871,0.20717 0.255,0.0107 0.52592,0 0.82341,-0.0372 0.14874,-0.016 0.3028,-0.0425 0.46217,-0.069 0.31874,-0.0637 0.66404,-0.14875 1.0359,-0.26561 0.18062,-0.0584 0.37186,-0.12219 0.57374,-0.19125 0.79153,-0.28686 1.6893,-0.67997 2.704,-1.2059 0.25499,-0.13281 0.5206,-0.27093 0.78621,-0.41968 0.53124,-0.43029 1.0093,-0.81278 1.4556,-1.1687 0.1753,-0.13813 0.32405,-0.24969 0.48873,-0.37718 0.26562,-0.20718 0.52592,-0.40373 0.76497,-0.57904 0.14344,-0.11156 0.28156,-0.20718 0.41436,-0.30281 0.21781,-0.15936 0.42499,-0.30279 0.61624,-0.4356 0.15937,-0.10626 0.32936,-0.22312 0.46748,-0.31343 0.0319,-0.016 0.0637,-0.0372 0.0903,-0.0532 0.20186,-0.1275 0.38249,-0.23375 0.54717,-0.31875 0.0637,-0.0318 0.12749,-0.069 0.18593,-0.0956 0.0265,-0.0107 0.0532,-0.0265 0.0797,-0.0372 0.0797,-0.0372 0.15407,-0.0637 0.22313,-0.0903 0.0106,0 0.016,-0.005 0.0265,-0.0106 0.0744,-0.0265 0.14344,-0.0425 0.20718,-0.0532 h 0.0213 c 0.0478,-0.005 0.0903,-0.0106 0.1328,-0.005 0.0106,0 0.0213,0.005 0.0318,0.005 0.0319,0.005 0.0584,0.016 0.0797,0.0319 0.0106,0.005 0.016,0.0106 0.0212,0.016 0.0265,0.016 0.0425,0.0425 0.0584,0.069 0,0.005 0.005,0.0106 0.005,0.016 0.016,0.0318 0.0212,0.0744 0.0212,0.12218 0,0.0532 -0.005,0.11156 -0.016,0.17531 16.442,-26.354 34.711,-53.325 35.832,-83.515 z"
       id="path8"
       style="fill:url(#linearGradient846);fill-opacity:1"
       inkscape:connector-curvature="0" />
    <path
       d="m 41.681,266.66 c -10.832,8.0907 -32.952,8.096 -23.735,25.207 4.9511,7.6497 8.76,13.839 14.853,19.772 0.44092,-0.29749 0.80747,-0.58967 1.0518,-0.81279 4.7492,-4.4517 10.763,-20.288 10.752,-34.663 0,-5.5886 -1.4237,-8.6431 -2.9218,-9.5037 z"
       id="path10"
       style="fill:#4b2819;fill-opacity:1"
       inkscape:connector-curvature="0" />
  </g>
  <path
     d="m 4.616856,9.1595663 c -0.010474,-8.8e-4 -0.021982,0.00352 -0.02992,0.011432 -0.00794,0.008 -0.013182,0.01868 -0.017154,0.032312 -2.383e-4,8.8e-4 -4.4e-4,0.00176 -5.6e-4,0.00264 -0.00337,0.027824 -0.010286,0.043056 -0.025331,0.06416 -0.014937,0.020952 -0.038457,0.047072 -0.071344,0.08983 -0.3058829,0.31921 -0.6155655,0.7107497 -0.9135095,0.9529297 -6.4e-4,5.2e-4 -0.0012,0.001 -0.00176,0.0017 -0.00672,0.0074 -0.03038,0.02491 -0.061635,0.04414 -0.031256,0.01923 -0.07084,0.0414 -0.1129681,0.0633 -0.084253,0.0438 -0.179386,0.08654 -0.2372388,0.102793 -0.00575,0.0016 -0.010196,0.0062 -0.011636,0.01197 -0.00284,0.01118 0.00636,0.02175 0.01782,0.02054 0.2438462,-0.02494 0.3596639,-0.03602 0.6510039,-0.275537 2.38e-4,-2.04e-4 4.8e-4,-4e-4 7.6e-4,-5.71e-4 0.3193059,-0.2937095 0.5978625,-0.6363999 0.8948191,-0.9544631 0.00177,-0.00192 0.00309,-0.00432 0.00383,-0.00688 0.00571,-0.020136 0.00217,-0.042408 -0.00486,-0.06456 -0.00704,-0.022144 -0.018114,-0.043968 -0.031314,-0.061504 -0.0132,-0.017528 -0.028051,-0.032504 -0.049,-0.034248 z"
     dominant-baseline="auto"
     style="color:#000000;font-variant-ligatures:normal;font-variant-position:normal;font-variant-caps:normal;font-variant-numeric:normal;font-variant-alternates:normal;font-feature-settings:normal;text-indent:0;text-decoration:none;text-decoration-line:none;text-decoration-style:solid;text-decoration-color:#000000;text-transform:none;text-orientation:mixed;dominant-baseline:auto;white-space:normal;shape-padding:0;isolation:auto;mix-blend-mode:normal;solid-color:#000000;fill-rule:evenodd;stroke-width:0.03404296;color-rendering:auto;image-rendering:auto;shape-rendering:auto"
     id="path14"
     inkscape:connector-curvature="0" />
  <path
     d="M 10.17786,2.4160788 C 10.17366,2.5227165 10.16433,2.6287954 10.15008,2.7335973 9.9990715,3.737116 9.3203585,4.6093221 8.6049205,5.408864 c 0.03122,0.032943 0.104115,0.04092 0.190345,0.039 0.641956,-0.7403328 1.2173005,-1.5450827 1.3547915,-2.4589319 0.02559,-0.188178 0.03541,-0.3804558 0.02778,-0.5728413 z m 0.849099,2.8197789 c -0.0074,0.00217 -0.01514,0.00446 -0.02259,0.00669 -0.001,0.00794 -0.0018,0.015914 -0.0029,0.023834 -0.003,0.021646 -0.0066,0.043229 -0.01018,0.064778 -0.0016,0.00977 -0.0029,0.019617 -0.0046,0.029371 0,1.703e-4 -2.3e-5,3.143e-4 -6.8e-5,4.4e-4 -0.0054,0.031109 -0.01135,0.062132 -0.0177,0.093052 -0.0064,0.031297 -0.01333,0.062493 -0.0207,0.093601 -0.0073,0.030669 -0.01495,0.061265 -0.02309,0.091758 -2.5e-5,2.72e-4 -1.02e-4,5.2e-4 -2.05e-4,8e-4 -0.0081,0.030446 -0.01667,0.060833 -0.02563,0.091109 -1.01e-4,3.143e-4 -1.36e-4,5.6e-4 -2.37e-4,8.56e-4 -0.009,0.030246 -0.01829,0.060379 -0.02802,0.090461 -6.8e-5,3.428e-4 -2.05e-4,7.428e-4 -3.15e-4,0.00103 -0.0097,0.030034 -0.01983,0.059988 -0.03032,0.089861 -1.7e-4,3.714e-4 -2.72e-4,7.428e-4 -4e-4,0.00114 -0.01047,0.029829 -0.02133,0.05959 -0.03251,0.089263 -1.69e-4,4e-4 -3.13e-4,7.429e-4 -4.4e-4,0.0012 -0.01118,0.029646 -0.02276,0.059218 -0.03461,0.088714 -1.7e-4,4.4e-4 -3.71e-4,8.56e-4 -5.6e-4,0.00137 -0.02386,0.059353 -0.04902,0.118444 -0.07535,0.1772297 -0.0103,0.022989 -0.02158,0.045714 -0.03222,0.068618 -0.153863,0.3312295 -0.342004,0.6542383 -0.538271,0.9724215 -5.6e-4,8.8e-4 -0.0011,0.00184 -0.0017,0.00272 -0.104373,0.1691632 -0.2107275,0.3370249 -0.3150165,0.5041585 -0.0047,0.05088 -0.170458,0.2595096 -0.304497,0.4225336 0.02251,-0.00892 0.04669,-0.019552 0.074,-0.033712 0.0087,-0.00448 0.01769,-0.00925 0.02673,-0.014312 0.01809,-0.014648 0.03438,-0.027672 0.04957,-0.039792 0.006,-0.00472 0.011,-0.00847 0.01661,-0.012816 0.009,-0.00704 0.01789,-0.013784 0.02603,-0.019752 0.0049,-0.00384 0.0096,-0.00704 0.01411,-0.010272 0.0074,-0.00544 0.01454,-0.010288 0.02105,-0.014808 0.0054,-0.0036 0.01115,-0.00768 0.01586,-0.01072 0.0011,-5.6e-4 0.0022,-0.0012 0.0031,-0.00176 0.0069,-0.00432 0.01294,-0.008 0.01855,-0.010872 0.0022,-0.00112 0.0044,-0.00232 0.0064,-0.00328 8.8e-4,-3.712e-4 0.0018,-9.6e-4 0.0027,-0.00128 0.0027,-0.00128 0.0053,-0.00216 0.0076,-0.00304 3.7e-4,0 4.8e-4,-2.384e-4 8.8e-4,-4e-4 0.0026,-8.8e-4 0.0049,-0.00152 0.007,-0.00184 h 7.43e-4 c 0.0013,-1.36e-4 0.0023,-1.696e-4 0.0035,-1.36e-4 -0.0217,0.0012 -0.07986,0.038792 -0.191742,0.1307024 -0.03943,0.021528 -0.07321,0.037056 -0.103276,0.048672 -0.06225,0.075712 -0.11827,0.1424648 -0.146861,0.1771784 C 8.1435242,9.8171151 6.1226232,10.801587 4.001661,10.806821 3.7520912,10.807192 3.1596597,10.828573 2.7393732,10.783189 1.8906563,10.710309 1.1065107,10.350596 0.56469135,9.8228959 c 0.00451,-0.00304 0.00826,-0.00592 0.012269,-0.00887 -0.2053151,-0.2009268 -0.3346511,-0.4106364 -0.5022191,-0.6695332 -0.020686,-0.0384 -0.036442,-0.07408 -0.04827,-0.1076648 -0.043166,0.089524 -0.037002,0.2046776 0.04827,0.362992 0.1675629,0.2588976 0.2968889,0.4685928 0.5022189,0.6695321 -0.00401,0.003 -0.00775,0.0058 -0.012269,0.0089 0.54181935,0.5277 1.32596495,0.887423 2.17468185,0.960293 0.4202865,0.04539 1.012736,0.024 1.2622878,0.02363 2.1207834,-0.0053 4.1418384,-0.989706 5.3558957,-2.3862172 0.09018,-0.1095072 0.444873,-0.5257088 0.451844,-0.6003136 0.104286,-0.1671264 0.2106405,-0.335008 0.3150165,-0.5041593 5.6e-4,-8.8e-4 0.0011,-0.00184 0.0017,-0.00272 0.196256,-0.3181832 0.384413,-0.641192 0.53827,-0.9724224 0.01064,-0.022904 0.02192,-0.045632 0.03222,-0.068616 0.02633,-0.058784 0.05149,-0.1178772 0.07535,-0.1772292 1.71e-4,-4.4e-4 3.71e-4,-8.56e-4 5.6e-4,-0.00137 0.01185,-0.029497 0.02342,-0.059069 0.03461,-0.088714 1.36e-4,-4.4e-4 2.73e-4,-7.429e-4 4.4e-4,-0.0012 0.01118,-0.029674 0.02203,-0.059437 0.03251,-0.089263 1.36e-4,-3.72e-4 2.38e-4,-7.428e-4 4e-4,-0.00114 0.01049,-0.029874 0.02058,-0.059828 0.03032,-0.089861 1.02e-4,-3.142e-4 2.38e-4,-7.428e-4 3.14e-4,-0.00103 0.0097,-0.030086 0.01907,-0.060215 0.02802,-0.090461 1.03e-4,-2.725e-4 1.71e-4,-5.6e-4 2.39e-4,-8.56e-4 0.009,-0.030274 0.0175,-0.060665 0.02563,-0.091109 1.02e-4,-2.72e-4 1.36e-4,-5.2e-4 2.04e-4,-8e-4 0.0081,-0.030491 0.01582,-0.061089 0.02309,-0.091758 0.0074,-0.031109 0.01426,-0.062306 0.0207,-0.093601 0.0063,-0.03092 0.0123,-0.061946 0.0177,-0.093052 2.5e-5,-1.36e-4 6.8e-5,-2.72e-4 6.8e-5,-4.4e-4 0.0017,-0.00975 0.003,-0.0196 0.0046,-0.029371 0.0035,-0.021554 0.0071,-0.043137 0.01017,-0.064777 0.0088,-0.062879 0.01568,-0.1261092 0.0203,-0.1897972 2e-6,-2.51e-5 -4e-6,-1.36e-4 0,-1.696e-4 0.0023,-0.031869 0.0041,-0.063818 0.0053,-0.095894 z M 3.8715531,5.5278954 c -0.061849,0 -0.1318484,0.013914 -0.2112384,0.04448 C 3.1860534,5.8601235 3.0148855,6.3796029 3.0541795,6.8414053 3.0870595,6.454055 3.2721046,6.0632326 3.6603147,5.8276978 c 0.07939,-0.030566 0.1493892,-0.04448 0.2112384,-0.04448 0.4327709,-5.6e-4 0.4651207,0.6720337 0.5126869,0.9738763 0.016074,0.1008264 0.032303,0.20436 0.04104,0.3063864 C 4.4456744,6.8852917 4.4140568,6.6887437 4.38424,6.5017709 4.336676,6.1999292 4.3043189,5.5273594 3.8715531,5.5278954 Z m 5.9278164,2.2808972 c -0.0011,-2.64e-5 -0.0022,1.36e-5 -0.0035,1.696e-4 h -7.43e-4 c -0.0022,3.72e-4 -0.0046,9.6e-4 -0.0071,0.00184 -3.7e-4,1.712e-4 -4.8e-4,4e-4 -8.8e-4,4e-4 -0.0023,8.8e-4 -0.0049,0.00176 -0.0076,0.00304 -8.8e-4,3.72e-4 -0.0018,8.8e-4 -0.0027,0.00128 -0.002,8.8e-4 -0.0042,0.00216 -0.0064,0.00328 -0.0056,0.00288 -0.01167,0.00656 -0.01855,0.010872 -8.8e-4,5.6e-4 -0.0021,0.0012 -0.0031,0.00176 -0.0047,0.00312 -0.01043,0.00712 -0.01586,0.010728 -0.0065,0.00448 -0.01363,0.00938 -0.02105,0.014816 -0.0045,0.00328 -0.0092,0.00648 -0.01411,0.010272 -0.0081,0.006 -0.01699,0.012696 -0.02603,0.019752 -0.0056,0.00432 -0.01063,0.00811 -0.01661,0.012816 -0.01519,0.012112 -0.03149,0.025152 -0.04957,0.039792 -0.009,0.00512 -0.01805,0.00979 -0.02673,0.014312 -0.0341,0.017672 -0.06431,0.030864 -0.09101,0.040592 0.03397,-0.011992 0.07306,-0.029448 0.119781,-0.054952 0.111875,-0.091913 0.170043,-0.1294968 0.191743,-0.1307024 z M 0.85057985,8.3034278 c -0.0029,0.00216 -0.00593,0.00408 -0.00883,0.00608 0.0029,-0.002 0.00593,-0.00392 0.00883,-0.00608 z m -0.2989057,1.5068105 c 0.00217,0.002 0.00414,0.00416 0.00614,0.00616 -0.002,-0.002 -0.00414,-0.00392 -0.00614,-0.00592 z m 0,0.2553227 v 2.04e-4 c 0.002,0.002 0.00414,0.0039 0.00614,0.0059 -0.002,-0.002 -0.00397,-0.0042 -0.00614,-0.0062 z"
     id="path16"
     inkscape:connector-curvature="0"
     style="opacity:0.3;stroke-width:0.04629759" />
  <path
     d="m 9.6914705,0.93247779 -1.01e-4,6.8e-5 c 2.1e-5,3.048e-5 2.5e-5,6.8e-5 3.3e-5,1.02e-4 1.4e-5,-6.8e-5 2.7e-5,-1.02e-4 6.8e-5,-1.36e-4 z m -6.8e-5,1.36e-4 C 9.4400615,1.8984214 8.084609,2.5802851 7.1680529,3.0177793 7.0767121,2.4182063 6.9160065,1.8201394 6.6627959,1.2549072 6.3685622,1.7520451 6.1743382,2.3009115 5.8247771,2.7642445 5.5697428,3.1024445 5.2880639,3.4276737 4.9327319,3.684298 4.9011719,3.695194 4.8698559,3.706314 4.8387809,3.71771 4.6519666,3.786252 4.4741809,3.8640068 4.3132254,3.9558773 3.5847655,4.3712865 3.0548955,4.9374892 2.6422181,5.5957863 2.0871984,6.4815757 2.4716755,7.620391 0.95310785,8.4676526 c -0.025137,0.02984 -0.056043,0.057272 -0.091308,0.08313 0.00163,-0.00128 0.00341,-0.00248 0.00504,-0.00384 0.00146,8.8e-4 0.00289,0.00192 0.00434,0.00288 -0.2703095,0.1938576 -0.7305534,0.2506496 -0.844606,0.4872057 -2.8e-5,-6.8e-5 -7.14e-5,-1.696e-4 -9.85e-5,-2.72e-4 -0.00269,0.0056 -0.00522,0.011304 -0.00753,0.017104 -4.44e-5,1.016e-4 -5.8e-5,2.376e-4 -9.9e-5,3.424e-4 -0.00157,0.004 -0.00295,0.00811 -0.00434,0.012216 -0.00194,0.00568 -0.00369,0.011544 -0.00523,0.017456 -0.00143,0.00552 -0.00269,0.011088 -0.00379,0.016752 -0.00123,0.0064 -0.00226,0.012848 -0.00305,0.019448 -5.714e-4,0.00488 -0.00106,0.00977 -0.0014,0.01476 -5.4400498e-4,0.00792 -7.1430498e-4,0.016048 -6.0000498e-4,0.024336 5.08e-5,0.00352 2.8e-5,0.00688 2.008e-4,0.010424 4.8400498e-4,0.010368 0.001570005,0.021104 0.003090005,0.032016 4.28e-4,0.00304 8.32e-4,0.00608 0.00134,0.00918 0.00189,0.011536 0.00441,0.023432 0.00748,0.035608 7.143e-4,0.00288 0.00151,0.00576 0.00229,0.00862 0.00327,0.012048 0.00716,0.024424 0.01162,0.037104 6.9e-6,1.36e-5 -6.9e-6,2.56e-5 0,6.8e-5 2.82e-5,6.8e-5 7.86e-5,1.024e-4 9.89e-5,1.704e-4 0.1140448,-0.236556 0.5742962,-0.2933393 0.8446059,-0.4872057 -0.00146,-9.6e-4 -0.00289,-0.00208 -0.00434,-0.00288 -0.00163,0.00128 -0.00341,0.00248 -0.00504,0.00384 0.035265,-0.025864 0.06617,-0.053288 0.091309,-0.08313 C 2.4716677,7.875723 2.0871778,6.7368829 2.6421975,5.8511183 3.0549001,5.1928463 3.5847706,4.6266185 4.3132046,4.2112094 4.47416,4.1193393 4.6519406,4.0415833 4.83876,3.9730421 4.8698344,3.9616461 4.901152,3.9505261 4.9327108,3.9396301 5.288017,3.6830057 5.5697148,3.3577506 5.8247559,3.0195765 6.1743428,2.5562431 6.3685411,2.0073768 6.6627748,1.5102388 6.9159881,2.0754714 7.0767025,2.6735382 7.1680313,3.273111 8.0845626,2.8356421 9.4399655,2.1538042 9.6913815,1.1880476 c -2.5e-5,-3.4e-5 -6.8e-5,-1.022e-4 -1.02e-4,-1.362e-4 l 1.7e-4,-1.02e-4 c -2e-5,6.8e-5 -2.5e-5,1.702e-4 -6.8e-5,2.382e-4 0.3172895,0.4438012 0.4658875,0.965782 0.4860065,1.4867926 5.6e-4,-0.013694 0.0012,-0.027377 0.0016,-0.041091 1.4e-5,-4.84e-4 3.4e-5,-9.68e-4 3.4e-5,-0.00146 1.7e-5,-6.571e-4 6.8e-5,-0.00129 6.8e-5,-0.00194 6.28e-4,-0.023334 9.6e-4,-0.046688 0.0011,-0.070062 0.003,-0.5671224 -0.142908,-1.1438444 -0.4888485,-1.62768001 z M 11.026866,5.2360703 c -0.0074,0.00217 -0.01515,0.00446 -0.02259,0.00669 v 3.38e-5 c -0.05643,0.016771 -0.114232,0.033737 -0.171196,0.050714 -0.08867,0.026429 -0.176624,0.052823 -0.266504,0.078941 -2.6e-5,9.7e-6 -6.8e-5,3.37e-5 -1.02e-4,3.37e-5 -0.07759,0.022549 -0.155628,0.044789 -0.23403,0.066425 -2.4e-5,9.2e-6 -6.8e-5,0 -1.01e-4,0 -0.03918,0.010811 -0.07846,0.021446 -0.117837,0.031914 -2.6e-5,1.31e-5 -1.36e-4,6.8e-5 -1.7e-4,6.8e-5 -0.03936,0.010457 -0.07885,0.020731 -0.118385,0.030766 -2.6e-5,1.2e-5 -1.37e-4,6.8e-5 -1.71e-4,6.8e-5 -0.0082,0.00206 -0.01643,0.004 -0.02463,0.00609 -0.1052445,0.026422 -0.2110695,0.051126 -0.3174685,0.073406 -0.0054,0.00114 -0.01086,0.0024 -0.01631,0.00354 -6.8e-5,1.36e-5 -1.36e-4,0 -2.04e-4,0 -0.007,0.00143 -0.0141,0.00274 -0.02114,0.00411 -0.193511,0.039411 -0.388728,0.070645 -0.585147,0.088913 h 4e-4 c 0.0069,-1.709e-4 0.01338,-3.715e-4 0.0197,-5.6e-4 0.0029,0 0.006,-1.029e-4 0.0089,-1.029e-4 h 7.43e-4 c -0.09734,0.00126 -0.244596,0.023394 -0.365417,0.02608 -1.5e-5,1.82e-5 -2.6e-5,2.57e-5 -3.5e-5,3.42e-5 -0.06298,0.072634 -0.126376,0.1448955 -0.190294,0.2163269 0.07498,0.079114 0.388933,0.014954 0.555734,0.012863 h -6.85e-4 c -0.0029,0 -0.006,1.708e-4 -0.0089,1.708e-4 -0.0063,1.698e-4 -0.01285,3.715e-4 -0.0197,5.6e-4 h -3.43e-4 c 0.196422,-0.018269 0.391639,-0.049554 0.585148,-0.088964 0.007,-0.00143 0.01411,-0.00269 0.02114,-0.00417 6.8e-5,0 1.36e-4,1.43e-5 2.04e-4,0 0.0054,-0.00114 0.01086,-0.0024 0.0163,-0.00354 0.106388,-0.022274 0.212213,-0.046983 0.3174685,-0.073405 0.0082,-0.00206 0.01644,-0.004 0.02463,-0.00609 2.5e-5,0 6.8e-5,-2.57e-5 1.02e-4,-3.43e-5 0.03954,-0.010034 0.07902,-0.020309 0.118386,-0.030766 2.5e-5,0 1.36e-4,1.31e-5 1.69e-4,0 0.03938,-0.010463 0.07865,-0.021103 0.117837,-0.031914 2.6e-5,0 6.8e-5,-6.8e-5 1.02e-4,-6.8e-5 0.07841,-0.021634 0.156436,-0.043874 0.234028,-0.066425 2.6e-5,0 6.8e-5,9.8e-6 1.03e-4,0 0.08987,-0.026114 0.177818,-0.052514 0.266505,-0.078941 0.05696,-0.016971 0.114764,-0.033943 0.171196,-0.050714 v -6.8e-5 c 3.4e-5,-1.49e-5 1.02e-4,-2.58e-5 1.36e-4,-3.43e-5 0.01146,-0.086585 0.01931,-0.1738646 0.02259,-0.2620115 z M 9.1710815,5.6771909 c 0.0021,2.57e-5 0.0042,-1.7e-6 0.0062,3.43e-5 0.0027,0 0.0056,9.1e-6 0.0081,2.04e-4 0.0049,1.703e-4 0.0092,5.6e-4 0.01371,8.56e-4 0.003,1.703e-4 0.006,3.429e-4 0.0088,6.286e-4 -0.01107,-0.00114 -0.02337,-0.00177 -0.0369,-0.00183 z m 0,0.2553217 c 0.01354,3.43e-5 0.02582,6.286e-4 0.0369,0.00177 -0.0029,-3.137e-4 -0.0058,-4.8e-4 -0.0088,-6.286e-4 -0.0045,-3.714e-4 -0.0088,-7.428e-4 -0.01371,-8.56e-4 -0.0026,-1.697e-4 -0.0054,-2.04e-4 -0.0081,-2.04e-4 -0.0021,-6.8e-5 -0.0042,-2.4e-5 -0.0062,-6.8e-5 z m -8.32044195,2.371 c -0.0029,0.00216 -0.00594,0.00408 -0.00883,0.00608 0.0029,-0.002 0.00593,-0.00392 0.00883,-0.00608 z M 9.5047875,8.498347 c -9.6e-4,3.712e-4 -0.0019,7.432e-4 -0.0029,0.00112 -0.0045,0.00176 -0.0095,0.00408 -0.01386,0.00568 0.0053,-0.00184 0.0101,-0.00328 0.01566,-0.00544 3.14e-4,-3.712e-4 4e-4,-4.8e-4 6.86e-4,-8.8e-4 1.36e-4,-1.704e-4 2.72e-4,-3.432e-4 4e-4,-4.8e-4 z M 0.85063955,8.558835 c -0.0029,0.00216 -0.00594,0.00408 -0.00883,0.00608 0.0029,-0.002 0.00593,-0.00392 0.00883,-0.00608 z"
     id="path18"
     inkscape:connector-curvature="0"
     style="opacity:0.1;fill:#ffffff;stroke-width:0.04629759" />
  <ellipse
     cx="3.263988"
     cy="7.4029489"
     rx="0.14722222"
     ry="0.18693334"
     style="opacity:0.3;fill:#070707;stroke-width:0.03404296;paint-order:markers fill stroke"
     id="ellipse20" />
  <ellipse
     cx="3.263988"
     cy="7.3008199"
     rx="0.14722222"
     ry="0.18693334"
     style="fill:#ffffff;stroke-width:0.03404296;paint-order:markers fill stroke"
     id="ellipse22" />
</svg>
