<?xml version="1.0" encoding="UTF-8" standalone="no"?>
<svg
   xmlns:dc="http://purl.org/dc/elements/1.1/"
   xmlns:cc="http://creativecommons.org/ns#"
   xmlns:rdf="http://www.w3.org/1999/02/22-rdf-syntax-ns#"
   xmlns:svg="http://www.w3.org/2000/svg"
   xmlns="http://www.w3.org/2000/svg"
   xmlns:xlink="http://www.w3.org/1999/xlink"
   xmlns:sodipodi="http://sodipodi.sourceforge.net/DTD/sodipodi-0.dtd"
   xmlns:inkscape="http://www.inkscape.org/namespaces/inkscape"
   width="16"
   height="16"
   version="1.0"
   id="svg12"
   sodipodi:docname="gnome-mpv.svg"
   inkscape:version="0.92.4 5da689c313, 2019-01-14">
  <metadata
     id="metadata18">
    <rdf:RDF>
      <cc:Work
         rdf:about="">
        <dc:format>image/svg+xml</dc:format>
        <dc:type
           rdf:resource="http://purl.org/dc/dcmitype/StillImage" />
      </cc:Work>
    </rdf:RDF>
  </metadata>
  <defs
     id="defs16">
    <linearGradient
       inkscape:collect="always"
       id="linearGradient832">
      <stop
         style="stop-color:#0065e3;stop-opacity:1"
         offset="0"
         id="stop828" />
      <stop
         style="stop-color:#d90b0b;stop-opacity:1"
         offset="1"
         id="stop830" />
    </linearGradient>
    <linearGradient
       inkscape:collect="always"
       xlink:href="#linearGradient832"
       id="linearGradient834"
       x1="0"
       y1="1"
       x2="16"
       y2="14"
       gradientUnits="userSpaceOnUse" />
  </defs>
  <sodipodi:namedview
     pagecolor="#ffffff"
     bordercolor="#666666"
     borderopacity="1"
     objecttolerance="10"
     gridtolerance="10"
     guidetolerance="10"
     inkscape:pageopacity="0"
     inkscape:pageshadow="2"
     inkscape:window-width="1366"
     inkscape:window-height="709"
     id="namedview14"
     showgrid="false"
     inkscape:zoom="14.75"
     inkscape:cx="1.3220339"
     inkscape:cy="1.7627119"
     inkscape:window-x="0"
     inkscape:window-y="25"
     inkscape:window-maximized="1"
     inkscape:current-layer="svg12" />
  <rect
     style="fill:url(#linearGradient834);fill-opacity:1"
     width="16"
     height="13"
     x="0"
     y="1"
     rx="1"
     ry="1"
     id="rect2" />
  <path
     style="fill:#ffffff"
     d="M 8 3 A 3 3 0 0 0 5 6 A 3 3 0 0 0 8 9 A 3 3 0 0 0 11 6 A 3 3 0 0 0 8 3 z M 7 4.5 L 7.265625 4.5 L 7.2929688 4.5 C 7.3441608 4.49955 7.3949034 4.5112194 7.4394531 4.5371094 L 9.4882812 5.7382812 C 9.5792183 5.7898463 9.625 5.8945346 9.625 6 C 9.625 6.1054654 9.5792181 6.2101514 9.4882812 6.2617188 L 7.4394531 7.4628906 C 7.3949031 7.4887506 7.3441617 7.500299 7.2929688 7.5 L 7.265625 7.5 L 7 7.5 L 7 4.5 z"
     id="path4" />
  <rect
     style="opacity:0.5;fill:#ffffff"
     width="10"
     height="1"
     x="3"
     y="11"
     rx=".5"
     ry=".5"
     id="rect6" />
  <rect
     style="fill:#ffffff"
     width="3"
     height="3"
     x="4"
     y="10"
     rx="1.5"
     ry="1.5"
     id="rect8" />
  <path
     style="opacity:0.3"
     d="M 1 1 L 1 2 L 2 2 L 2 1 L 1 1 z M 14 1 L 14 2 L 15 2 L 15 1 L 14 1 z M 1 3 L 1 4 L 2 4 L 2 3 L 1 3 z M 14 3 L 14 4 L 15 4 L 15 3 L 14 3 z M 1 5 L 1 6 L 2 6 L 2 5 L 1 5 z M 14 5 L 14 6 L 15 6 L 15 5 L 14 5 z M 1 7 L 1 8 L 2 8 L 2 7 L 1 7 z M 14 7 L 14 8 L 15 8 L 15 7 L 14 7 z M 1 9 L 1 10 L 2 10 L 2 9 L 1 9 z M 14 9 L 14 10 L 15 10 L 15 9 L 14 9 z M 1 11 L 1 12 L 2 12 L 2 11 L 1 11 z M 14 11 L 14 12 L 15 12 L 15 11 L 14 11 z M 1 13 L 1 14 L 2 14 L 2 13 L 1 13 z M 14 13 L 14 14 L 15 14 L 15 13 L 14 13 z"
     id="path10" />
</svg>
