<?xml version="1.0" encoding="UTF-8" standalone="no"?>
<svg
   xmlns:dc="http://purl.org/dc/elements/1.1/"
   xmlns:cc="http://creativecommons.org/ns#"
   xmlns:rdf="http://www.w3.org/1999/02/22-rdf-syntax-ns#"
   xmlns:svg="http://www.w3.org/2000/svg"
   xmlns="http://www.w3.org/2000/svg"
   xmlns:xlink="http://www.w3.org/1999/xlink"
   xmlns:sodipodi="http://sodipodi.sourceforge.net/DTD/sodipodi-0.dtd"
   xmlns:inkscape="http://www.inkscape.org/namespaces/inkscape"
   width="16"
   height="16"
   version="1.1"
   viewBox="0 0 12 12"
   id="svg26"
   sodipodi:docname="gnome-contacts.svg"
   inkscape:version="0.92.4 5da689c313, 2019-01-14">
  <metadata
     id="metadata30">
    <rdf:RDF>
      <cc:Work
         rdf:about="">
        <dc:format>image/svg+xml</dc:format>
        <dc:type
           rdf:resource="http://purl.org/dc/dcmitype/StillImage" />
        <dc:title></dc:title>
      </cc:Work>
    </rdf:RDF>
  </metadata>
  <sodipodi:namedview
     pagecolor="#ffffff"
     bordercolor="#666666"
     borderopacity="1"
     objecttolerance="10"
     gridtolerance="10"
     guidetolerance="10"
     inkscape:pageopacity="0"
     inkscape:pageshadow="2"
     inkscape:window-width="1366"
     inkscape:window-height="712"
     id="namedview28"
     showgrid="false"
     inkscape:zoom="16.96875"
     inkscape:cx="4.5637558"
     inkscape:cy="6.4009289"
     inkscape:window-x="0"
     inkscape:window-y="25"
     inkscape:window-maximized="1"
     inkscape:current-layer="svg26" />
  <defs
     id="defs10">
    <linearGradient
       inkscape:collect="always"
       id="linearGradient829">
      <stop
         style="stop-color:#0066cc;stop-opacity:1;"
         offset="0"
         id="stop825" />
      <stop
         style="stop-color:#0099ff;stop-opacity:1"
         offset="1"
         id="stop827" />
    </linearGradient>
    <clipPath
       id="clipPath4">
      <rect
         width="384"
         height="384"
         id="rect2"
         x="0"
         y="0" />
    </clipPath>
    <clipPath
       id="clipPath8">
      <rect
         width="384"
         height="384"
         id="rect6"
         x="0"
         y="0" />
    </clipPath>
    <linearGradient
       inkscape:collect="always"
       xlink:href="#linearGradient829"
       id="linearGradient831"
       x1="23.758291"
       y1="40.747311"
       x2="25.647699"
       y2="2.4176376"
       gradientUnits="userSpaceOnUse"
       gradientTransform="matrix(0.27083329,0,0,0.28571429,-0.5260904,-0.8571429)" />
    <filter
       inkscape:collect="always"
       style="color-interpolation-filters:sRGB"
       id="filter876"
       x="-0.04730333"
       width="1.0946068"
       y="-0.048717495"
       height="1.097435">
      <feGaussianBlur
         inkscape:collect="always"
         stdDeviation="0.35885774"
         id="feGaussianBlur878" />
    </filter>
  </defs>
  <path
     d="m 1.4557119,0.97955967 h 9.0365131 c 0.196989,0 0.356647,0.16045393 0.356647,0.35835733 V 11.641534 C 10.848872,11.839563 10.689207,12 10.492225,12 H 1.4557119 C 1.2587241,12 1.0989226,11.839546 1.0989226,11.641534 V 1.337917 c 0,-0.1978891 0.1598015,-0.35835733 0.3567893,-0.35835733 z"
     id="path12"
     style="fill:#0066cc;stroke-width:0.03294088"
     inkscape:connector-curvature="0" />
  <path
     d="m 1.4555706,0 h 9.0365124 c 0.196988,0 0.356648,0.1604537 0.356648,0.35846405 V 10.662083 c 0,0.197889 -0.159664,0.358357 -0.356648,0.358357 H 1.4555706 c -0.1969879,0 -0.356648,-0.160452 -0.356648,-0.358357 V 0.35846405 C 1.0989226,0.1604359 1.2585862,0 1.4555706,0 Z"
     id="path14"
     style="fill:url(#linearGradient831);fill-opacity:1;stroke-width:0.03294088"
     inkscape:connector-curvature="0" />
  <path
     d="M 1.5470249,0 C 1.2988304,0 1.0989226,0.15989833 1.0989226,0.35846405 V 11.641785 c 0,0.196079 0.1948743,0.354029 0.4387296,0.358072 H 3.0976956 V 1.068e-4 Z"
     id="path16"
     style="fill:#000000;fill-opacity:0.19607843;stroke-width:0.03692361"
     inkscape:connector-curvature="0" />
  <path
     d="m 10.84866,10.043298 c 0,0.262821 -0.159111,0.474274 -0.356647,0.474274 H 1.4554999 c -0.042025,0 -0.082251,-0.0099 -0.1197133,-0.02762 v 0.972266 c 0.037463,0.01768 0.077689,0.0278 0.1197133,0.0278 h 9.0365121 c 0.197678,0 0.356792,-0.21162 0.356792,-0.474415 z"
     id="path18"
     inkscape:connector-curvature="0"
     style="fill:#ffffff;stroke-width:0.03789583" />
  <path
     d="m 1.4555881,1.76e-5 c -0.1969887,0 -0.3566655,0.1604379 -0.3566655,0.35846426 v 0.26719162 c 0,-0.19802882 0.1596636,-0.35846447 0.3566655,-0.35846447 H 10.49219 c 0.196988,0 0.356666,0.16043843 0.356666,0.35846447 V 0.35848203 C 10.848856,0.16045289 10.689192,1.76e-5 10.49219,1.76e-5 Z"
     id="path24"
     inkscape:connector-curvature="0"
     style="opacity:0.4;fill:#ffffff;stroke-width:0.03294005" />
  <path
     d="m 28.662693,13.448491 c -0.12042,-0.03619 -0.881085,-0.352461 -0.405711,-1.684842 h -0.0073 c 1.239065,-1.176723 2.185992,-3.070238 2.185992,-4.934407 6e-6,-2.866464 -2.067179,-4.369131 -4.469709,-4.369131 -2.404032,0 -4.459866,1.50196 -4.459866,4.369131 0,1.871864 0.941623,3.77304 2.188314,4.946985 0.485929,1.175326 -0.383023,1.611551 -0.564685,1.672264 -1.69385,0.505071 -6.301784,3.023148 -6.228881,6.69025 h 18.204952 c 0.08131,-3.503129 -3.56353,-5.777949 -6.443463,-6.69025 z"
     id="path34-5"
     style="opacity:0.5;fill:#000000;fill-opacity:1;stroke-width:0.07803718;filter:url(#filter876)"
     inkscape:connector-curvature="0"
     transform="matrix(0.2708333,0,0,0.28571429,-0.66403145,2.7000001)" />
  <path
     d="M 7.1522973,6.1885002 C 7.1196917,6.1781629 6.9136718,6.0877967 7.0424189,5.7071167 h -0.00195 C 7.3760509,5.3709099 7.63251,4.8299057 7.63251,4.297286 7.6325116,3.478296 7.0726495,3.0489628 6.4219646,3.0489628 c -0.651092,0 -1.20788,0.4291312 -1.20788,1.2483232 0,0.5348181 0.2550229,1.0780112 0.5926684,1.4134245 C 5.9383018,6.0465178 5.7029599,6.1711532 5.65376,6.1885002 5.1950351,6.3328068 3.9470529,7.0522567 3.9667976,8.0999996 H 8.8973055 C 8.9193237,7.0991054 7.9321811,6.4491579 7.1521998,6.1885002 Z"
     id="path34"
     style="fill:#ffffff;fill-opacity:1;stroke-width:0.02170794"
     inkscape:connector-curvature="0" />
</svg>
