<?xml version="1.0" encoding="UTF-8" standalone="no"?>
<svg
   xmlns:dc="http://purl.org/dc/elements/1.1/"
   xmlns:cc="http://creativecommons.org/ns#"
   xmlns:rdf="http://www.w3.org/1999/02/22-rdf-syntax-ns#"
   xmlns:svg="http://www.w3.org/2000/svg"
   xmlns="http://www.w3.org/2000/svg"
   xmlns:xlink="http://www.w3.org/1999/xlink"
   xmlns:sodipodi="http://sodipodi.sourceforge.net/DTD/sodipodi-0.dtd"
   xmlns:inkscape="http://www.inkscape.org/namespaces/inkscape"
   width="16"
   height="16"
   version="1"
   id="svg12"
   sodipodi:docname="inkscape.svg"
   inkscape:version="0.92.4 5da689c313, 2019-01-14">
  <metadata
     id="metadata18">
    <rdf:RDF>
      <cc:Work
         rdf:about="">
        <dc:format>image/svg+xml</dc:format>
        <dc:type
           rdf:resource="http://purl.org/dc/dcmitype/StillImage" />
        <dc:title></dc:title>
      </cc:Work>
    </rdf:RDF>
  </metadata>
  <defs
     id="defs16">
    <linearGradient
       inkscape:collect="always"
       id="linearGradient864">
      <stop
         style="stop-color:#000000;stop-opacity:1;"
         offset="0"
         id="stop860" />
      <stop
         style="stop-color:#000000;stop-opacity:0;"
         offset="1"
         id="stop862" />
    </linearGradient>
    <linearGradient
       inkscape:collect="always"
       id="linearGradient832">
      <stop
         style="stop-color:#3b3b3b;stop-opacity:1"
         offset="0"
         id="stop828" />
      <stop
         style="stop-color:#4f4f4f;stop-opacity:1"
         offset="1"
         id="stop830" />
    </linearGradient>
    <linearGradient
       inkscape:collect="always"
       xlink:href="#linearGradient832"
       id="linearGradient834"
       x1="33.372715"
       y1="59.660995"
       x2="31.996094"
       y2="4.0000463"
       gradientUnits="userSpaceOnUse"
       gradientTransform="matrix(0.27585845,0,0,0.27585845,-0.82756366,-0.82757499)" />
    <linearGradient
       inkscape:collect="always"
       xlink:href="#linearGradient864"
       id="linearGradient866"
       x1="33.237309"
       y1="60.338982"
       x2="33.203365"
       y2="37.966103"
       gradientUnits="userSpaceOnUse"
       gradientTransform="matrix(0.27585845,0,0,0.27585845,-0.82756366,-0.82757499)" />
  </defs>
  <sodipodi:namedview
     pagecolor="#ffffff"
     bordercolor="#666666"
     borderopacity="1"
     objecttolerance="10"
     gridtolerance="10"
     guidetolerance="10"
     inkscape:pageopacity="0"
     inkscape:pageshadow="2"
     inkscape:window-width="1366"
     inkscape:window-height="709"
     id="namedview14"
     showgrid="false"
     inkscape:zoom="7.375"
     inkscape:cx="28.843265"
     inkscape:cy="28.500511"
     inkscape:window-x="0"
     inkscape:window-y="25"
     inkscape:window-maximized="1"
     inkscape:current-layer="svg12" />
  <path
     style="fill:url(#linearGradient834);fill-opacity:1;fill-rule:evenodd;stroke-width:0.27585846"
     d="M 7.9988289,2.3053806e-6 C 7.5428833,1.8630538e-4 7.0993561,0.17135991 6.7499217,0.53287511 L 0.53125514,6.9551892 C 0.18860374,7.3096644 0.00683014,7.777026 1.4237881e-5,8.2396596 c -1.024e-4,0.00704 0,0.024 0,0.032 -6.48e-5,1.3763976 3.477688462119,0.04 3.809216862119,1.7225048 0.1793895,0.9107556 -1.8765916,0.4936736 -1.8765916,1.4099966 0,1.074914 3.3391367,0.198078 4.0592134,1.221433 0.5512008,0.783348 -1.4012116,0.817372 -0.9638886,1.567322 0.3751389,0.643352 1.7169838,0.231277 1.9407078,1.095898 0.25554,0.987642 1.9007439,0.87738 2.8302419,0.09432 0.569793,-0.480074 -0.756981,-0.78063 -0.23922,-1.316254 0.517729,-0.535673 2.983671,-0.434954 2.845868,-1.597499 -0.0912,-0.76943 -1.045589,-0.853972 -1.060332,-1.723041 -0.05152,-0.73599 0.909333,-0.521273 3.560837,-1.2537592 1.060221,-0.4981528 1.097774,-0.7627096 1.093735,-1.2214232 -8.4e-5,-0.0088 0,-0.0216 0,-0.0312 -0.006,-0.4625536 -0.219876,-0.9299872 -0.562488,-1.2844624 L 9.248812,0.53285911 C 8.899303,0.17135191 8.455626,1.8630538e-4 7.9999057,2.3053806e-6 Z M 15.287526,11.035414 c -0.122807,-0.0042 -0.246669,0.0066 -0.334044,0.0336 -0.164702,0.052 -0.945219,0.082 -0.880915,0.73271 0.706903,0.325196 1.784768,0.583833 1.913229,-0.0672 0.09645,-0.487914 -0.329803,-0.684392 -0.698262,-0.699352 z M 2.7510532,12.971277 c -0.068879,0.0088 -0.1164064,0.04 -0.1837255,0.0696 -0.5382968,0.234157 -0.8989159,0.727109 -0.3960107,0.942339 0.5029853,0.215197 0.8392512,-0.012 1.2801557,-0.279116 0.440978,-0.267037 0.4289782,-0.315676 0.3970826,-0.418634 -0.061119,0.0136 -0.4619778,-0.271677 -0.8841473,-0.314076 -0.070319,-0.0067 -0.144502,-0.0088 -0.2133572,0 z"
     id="path4"
     inkscape:connector-curvature="0" />
  <path
     style="opacity:0.2;fill-rule:evenodd;stroke-width:0.27585846"
     d="m 8.028522,2.2083006 c 0.469209,0.004 1.754912,1.5950665 2.902021,2.7866345 0.32266,0.4329542 -0.124806,0.8766762 -0.124806,0.8766762 L 8.4031,4.556573 7.3421601,5.9969377 6.4061721,4.5881966 5.8442741,6.7797916 4.1905795,5.7778926 4.6275264,5.2140922 7.2172097,2.5529039 C 7.4158545,2.3504267 7.5679729,2.2049087 8.028514,2.2085086 Z"
     id="path6"
     inkscape:connector-curvature="0" />
  <path
     style="fill:#ffffff;fill-rule:evenodd;stroke-width:0.27585846"
     d="m 8.028522,1.9324323 c 0.469209,0.00399 1.754912,1.5950666 2.902021,2.7866266 0.32266,0.4329541 -0.124806,0.8766762 -0.124806,0.8766762 L 8.4031,4.2807047 7.3421601,5.7210693 6.4061721,4.3123203 5.8442741,6.5039148 4.1905795,5.5020243 4.6275264,4.9382239 7.2172097,2.2770357 C 7.4158545,2.0745584 7.5679729,1.9290403 8.028514,1.9326403 Z"
     id="path8"
     inkscape:connector-curvature="0" />
  <path
     style="opacity:0.4;fill:#ffffff;fill-rule:evenodd;stroke-width:0.27585846"
     d="M 7.9988289,2.3053806e-6 C 7.5428833,1.8630538e-4 7.0993561,0.17135991 6.7499217,0.53287511 L 0.53125514,6.9551892 C 0.18860374,7.3096644 0.00683014,7.777026 1.4237881e-5,8.2396596 c -1.024e-4,0.00704 0,0.024 0,0.032 -1.6e-6,0.0368 0.0038100021,0.0704 0.0086400021,0.1034384 0.037839,-0.4155144 0.2146851,-0.8252688 0.522625,-1.1438408 L 6.7499457,0.80892741 c 0.349436,-0.3614351 0.7929576,-0.5326328 1.2489072,-0.5328728 h 0.00112 c 0.4557221,1.84e-4 0.8993971,0.1713577 1.2489061,0.5328728 L 15.43737,7.2312572 c 0.327051,0.338396 0.534552,0.7796696 0.558184,1.221432 0.0038,-0.0576 0.0049,-0.1174384 0.0043,-0.1815976 -8.4e-5,-0.0088 0,-0.0216 0,-0.0312 C 15.993754,7.777338 15.779977,7.3099044 15.437366,6.9554292 L 9.248812,0.53285911 C 8.899303,0.17135191 8.455626,1.8630538e-4 7.9999057,2.3053806e-6 Z M 3.7962984,10.222393 c -0.1957093,0.610232 -1.8636613,0.354875 -1.8636613,1.181552 0,0.048 0.00896,0.09008 0.02152,0.130399 0.2110372,-0.725991 2.0240264,-0.406555 1.8550399,-1.264536 -0.00326,-0.0168 -0.00904,-0.0312 -0.01296,-0.0472 z m 7.5591666,0.640631 c -0.0094,0.048 -0.0144,0.09936 -0.01024,0.158959 0.0144,0.849732 0.924788,0.951347 1.050633,1.674545 0.01464,-0.0704 0.01944,-0.145278 0.0097,-0.227357 -0.08688,-0.73287 -0.955019,-0.845997 -1.050093,-1.606123 z m 3.932061,0.172398 c -0.122807,-0.0042 -0.246669,0.0066 -0.334044,0.0336 -0.164702,0.052 -0.945219,0.082 -0.880915,0.73271 0.0092,0.0042 0.01976,0.008 0.02912,0.012 0.140287,-0.395755 0.713207,-0.425435 0.851821,-0.469274 0.08737,-0.0264 0.211245,-0.0376 0.334043,-0.0336 0.293844,0.012 0.619944,0.142158 0.692879,0.440714 0.0014,-0.0061 0.0042,-0.0112 0.0054,-0.0176 0.09645,-0.487914 -0.329804,-0.684392 -0.698263,-0.699352 z M 2.7510532,12.971277 c -0.068879,0.0088 -0.1164064,0.04 -0.1837255,0.0696 -0.4305382,0.187277 -0.74575,0.539513 -0.598056,0.783429 0.084495,-0.188717 0.3142199,-0.384075 0.598056,-0.507513 0.067279,-0.0296 0.1148465,-0.0608 0.1837255,-0.0696 0.068879,-0.0088 0.1430061,-0.0067 0.2133572,0 0.3096118,0.0312 0.6050719,0.191837 0.7661497,0.270477 0.1436301,-0.111279 0.1402221,-0.160479 0.1179904,-0.232237 -0.061119,0.0136 -0.4619778,-0.271677 -0.8841473,-0.314076 -0.070319,-0.0067 -0.144502,-0.0088 -0.2133572,0 z m 3.3054524,0.0488 C 5.8569563,13.43295 4.7824723,13.584229 4.9983295,14.121894 5.2051747,13.710778 6.2837266,13.560781 6.0565056,13.020077 Z m 3.4180584,1.441797 c -0.160126,0.313676 0.282828,0.548792 0.425642,0.80494 0.179285,-0.291196 -0.289796,-0.523272 -0.425642,-0.80494 z"
     id="path10"
     inkscape:connector-curvature="0" />
  <path
     inkscape:connector-curvature="0"
     style="opacity:0.4;fill:none;fill-opacity:1;fill-rule:evenodd;stroke:url(#linearGradient866);stroke-width:0.27116886;stroke-miterlimit:4;stroke-dasharray:none;stroke-opacity:1"
     d="m 7.9987889,0.13559241 c -0.4482096,1.84e-4 -0.8842144,0.1684778 -1.2277192,0.523833 L 0.65789664,6.9729092 c -0.3368355,0.3484752 -0.5155291,0.8079088 -0.522233,1.2626944 -1.008e-4,0.00696 0,0.024 0,0.0312 -6.32e-5,1.3530696 3.41869236,0.0392 3.74459686,1.6933048 0.1763496,0.8953236 -1.8447569,0.4852736 -1.8447569,1.3861016 0,1.056698 3.2824911,0.194718 3.990352,1.200728 0.5418485,0.77007 -1.3774414,0.803525 -0.9475369,1.540772 0.3687792,0.632391 1.6878566,0.227356 1.9077846,1.077313 0.2512048,0.970907 1.8684987,0.862509 2.7822307,0.09272 0.56012,-0.471914 -0.744143,-0.76743 -0.235165,-1.293943 0.508945,-0.526553 2.933055,-0.427594 2.797589,-1.570426 -0.08966,-0.756311 -1.027852,-0.839493 -1.042344,-1.693834 -0.05064,-0.7235106 0.893907,-0.512473 3.50043,-1.2325034 1.042236,-0.4896736 1.079151,-0.7497504 1.075182,-1.200728 -8.3e-5,-0.0088 0,-0.0208 0,-0.0304 C 15.858126,7.781195 15.647877,7.3216814 15.311074,6.9732142 L 9.227568,0.65941741 C 8.883989,0.30406221 8.447834,0.13574441 7.9998481,0.13558441 Z M 15.163839,10.983975 c -0.120718,-0.0042 -0.242485,0.0065 -0.328379,0.0328 -0.16191,0.0512 -0.929184,0.08064 -0.865971,0.72031 0.694911,0.319676 1.754492,0.573913 1.880773,-0.0656 0.09481,-0.479673 -0.324204,-0.672791 -0.686423,-0.68751 z M 2.8400376,12.887022 c -0.067679,0.0088 -0.1144304,0.0392 -0.1806055,0.068 -0.5291689,0.230236 -0.8836665,0.71479 -0.3892908,0.926372 0.4944494,0.211596 0.8250137,-0.012 1.2584391,-0.274397 0.4334982,-0.262476 0.4216983,-0.310316 0.3903467,-0.411515 -0.060079,0.0136 -0.4541379,-0.267036 -0.8691491,-0.308796 -0.069119,-0.0066 -0.142046,-0.0088 -0.2097412,0 z"
     id="path4-7" />
</svg>
