<?xml version="1.0" encoding="UTF-8" standalone="no"?>
<svg
   xmlns:dc="http://purl.org/dc/elements/1.1/"
   xmlns:cc="http://creativecommons.org/ns#"
   xmlns:rdf="http://www.w3.org/1999/02/22-rdf-syntax-ns#"
   xmlns:svg="http://www.w3.org/2000/svg"
   xmlns="http://www.w3.org/2000/svg"
   xmlns:xlink="http://www.w3.org/1999/xlink"
   xmlns:sodipodi="http://sodipodi.sourceforge.net/DTD/sodipodi-0.dtd"
   xmlns:inkscape="http://www.inkscape.org/namespaces/inkscape"
   width="16"
   height="16"
   version="1"
   id="svg14"
   sodipodi:docname="krfb.svg"
   inkscape:version="0.92.4 5da689c313, 2019-01-14">
  <metadata
     id="metadata20">
    <rdf:RDF>
      <cc:Work
         rdf:about="">
        <dc:format>image/svg+xml</dc:format>
        <dc:type
           rdf:resource="http://purl.org/dc/dcmitype/StillImage" />
        <dc:title></dc:title>
      </cc:Work>
    </rdf:RDF>
  </metadata>
  <defs
     id="defs18">
    <linearGradient
       inkscape:collect="always"
       id="linearGradient831">
      <stop
         style="stop-color:#ff2525;stop-opacity:1"
         offset="0"
         id="stop827" />
      <stop
         style="stop-color:#4545ff;stop-opacity:1"
         offset="1"
         id="stop829" />
    </linearGradient>
    <linearGradient
       inkscape:collect="always"
       xlink:href="#linearGradient831"
       id="linearGradient833"
       x1="14.546678"
       y1="56.928509"
       x2="87.421364"
       y2="1.1269988"
       gradientUnits="userSpaceOnUse"
       gradientTransform="matrix(0.28571427,0,0,0.28571427,-1.1428569,-1.1428572)" />
  </defs>
  <sodipodi:namedview
     pagecolor="#ffffff"
     bordercolor="#666666"
     borderopacity="1"
     objecttolerance="10"
     gridtolerance="10"
     guidetolerance="10"
     inkscape:pageopacity="0"
     inkscape:pageshadow="2"
     inkscape:window-width="1366"
     inkscape:window-height="714"
     id="namedview16"
     showgrid="false"
     inkscape:zoom="5.2149125"
     inkscape:cx="35.970926"
     inkscape:cy="18.161626"
     inkscape:window-x="0"
     inkscape:window-y="19"
     inkscape:window-maximized="1"
     inkscape:current-layer="svg14" />
  <rect
     style="fill:url(#linearGradient833);fill-opacity:1;stroke-width:0.2857143"
     width="16"
     height="16"
     x="7.5977326e-08"
     y="0"
     rx="8"
     ry="8"
     id="rect4" />
  <path
     style="opacity:0.2;fill:#ffffff;stroke-width:0.2857143"
     d="M 7.9999999,5.581e-4 C 3.5681251,5.581e-4 1.2402268e-7,3.5681251 1.2402268e-7,7.9999992 c 0,0.032416 0.003219995977,0.064032 0.005019995977,0.095983 0.1007268,-4.3429757 3.62692338,-7.80971 7.99497658,-7.80971 4.3680533,0 7.8942503,3.4667343 7.9949773,7.80971 0.0018,-0.031952 0.005,-0.063568 0.005,-0.095983 0,-4.4318741 -3.568125,-7.9994411 -8.0000001,-7.9994411 z"
     id="path6"
     inkscape:connector-curvature="0" />
  <path
     style="opacity:0.7;fill:none;stroke:#000000;stroke-width:1.14285719"
     d="M 9.7140109,5.1431793 5.1427123,8.0002416 9.7140109,10.857304"
     id="path8"
     inkscape:connector-curvature="0" />
  <path
     style="opacity:0.2;fill-rule:evenodd;stroke-width:0.2857143"
     d="M 9.7140109,3.7145437 A 1.7142373,1.7142373 0 0 0 7.9997743,5.428781 1.7142373,1.7142373 0 0 0 9.7140109,7.1430176 1.7142373,1.7142373 0 0 0 11.428249,5.428781 1.7142373,1.7142373 0 0 0 9.7140109,3.7145437 Z M 5.1427123,6.5716056 A 1.7142373,1.7142373 0 0 0 3.4284745,8.2858432 1.7142373,1.7142373 0 0 0 5.1427123,10.00008 1.7142373,1.7142373 0 0 0 6.8569495,8.2858432 1.7142373,1.7142373 0 0 0 5.1427123,6.5716056 Z M 9.7140109,9.428668 A 1.7142373,1.7142373 0 0 0 7.9997743,11.142906 1.7142373,1.7142373 0 0 0 9.7140109,12.857142 1.7142373,1.7142373 0 0 0 11.428249,11.142906 1.7142373,1.7142373 0 0 0 9.7140109,9.428668 Z"
     id="path10"
     inkscape:connector-curvature="0" />
  <path
     style="fill:#ffffff;fill-rule:evenodd;stroke-width:0.2857143"
     d="M 9.7140109,3.4289418 A 1.7142373,1.7142373 0 0 0 7.9997743,5.1431793 1.7142373,1.7142373 0 0 0 9.7140109,6.8574168 1.7142373,1.7142373 0 0 0 11.428249,5.1431793 1.7142373,1.7142373 0 0 0 9.7140109,3.4289418 Z M 5.1427123,6.2860039 A 1.7142373,1.7142373 0 0 0 3.4284745,8.0002416 1.7142373,1.7142373 0 0 0 5.1427123,9.7144792 1.7142373,1.7142373 0 0 0 6.8569495,8.0002416 1.7142373,1.7142373 0 0 0 5.1427123,6.2860039 Z M 9.7140109,9.1430664 A 1.7142373,1.7142373 0 0 0 7.9997743,10.857304 1.7142373,1.7142373 0 0 0 9.7140109,12.571541 1.7142373,1.7142373 0 0 0 11.428249,10.857304 1.7142373,1.7142373 0 0 0 9.7140109,9.1430664 Z"
     id="path12"
     inkscape:connector-curvature="0" />
  <path
     style="opacity:0.2;stroke-width:0.2857143"
     d="M 0.01451392,7.7145192 C 0.01114392,7.8099452 -7.5977322e-8,7.903656 -7.5977322e-8,8.0002256 -2.7597732e-7,12.4321 3.5678992,15.999999 7.9997739,15.999999 c 4.4318761,0 7.9997751,-3.567899 7.9997751,-7.9997734 0,-0.096478 -0.01115,-0.1900752 -0.01451,-0.2857064 -0.150853,4.2975928 -3.650183,7.7140678 -7.9854895,7.7140678 -4.3354206,0 -7.83463598,-3.416475 -7.98548878,-7.7140678 z"
     id="path2"
     inkscape:connector-curvature="0" />
</svg>
