<?xml version="1.0" encoding="UTF-8" standalone="no"?>
<svg
   xmlns:dc="http://purl.org/dc/elements/1.1/"
   xmlns:cc="http://creativecommons.org/ns#"
   xmlns:rdf="http://www.w3.org/1999/02/22-rdf-syntax-ns#"
   xmlns:svg="http://www.w3.org/2000/svg"
   xmlns="http://www.w3.org/2000/svg"
   xmlns:xlink="http://www.w3.org/1999/xlink"
   xmlns:sodipodi="http://sodipodi.sourceforge.net/DTD/sodipodi-0.dtd"
   xmlns:inkscape="http://www.inkscape.org/namespaces/inkscape"
   viewBox="0 0 16 16"
   version="1.1"
   id="svg14"
   sodipodi:docname="maps.svg"
   inkscape:version="0.92.4 5da689c313, 2019-01-14"
   width="16"
   height="16">
  <metadata
     id="metadata20">
    <rdf:RDF>
      <cc:Work
         rdf:about="">
        <dc:format>image/svg+xml</dc:format>
        <dc:type
           rdf:resource="http://purl.org/dc/dcmitype/StillImage" />
        <dc:title></dc:title>
      </cc:Work>
    </rdf:RDF>
  </metadata>
  <defs
     id="defs18">
    <linearGradient
       inkscape:collect="always"
       id="linearGradient877">
      <stop
         style="stop-color:#000000;stop-opacity:1;"
         offset="0"
         id="stop873" />
      <stop
         style="stop-color:#000000;stop-opacity:0;"
         offset="1"
         id="stop875" />
    </linearGradient>
    <linearGradient
       inkscape:collect="always"
       id="linearGradient854">
      <stop
         style="stop-color:#ffffff;stop-opacity:1"
         offset="0"
         id="stop850" />
      <stop
         style="stop-color:#ffffff;stop-opacity:0"
         offset="1"
         id="stop852" />
    </linearGradient>
    <linearGradient
       inkscape:collect="always"
       id="linearGradient831">
      <stop
         style="stop-color:#f60000;stop-opacity:1;"
         offset="0"
         id="stop827" />
      <stop
         style="stop-color:#ce0000;stop-opacity:1"
         offset="1"
         id="stop829" />
    </linearGradient>
    <linearGradient
       inkscape:collect="always"
       xlink:href="#linearGradient831"
       id="linearGradient833"
       x1="35.260868"
       y1="4"
       x2="35.260868"
       y2="34.692307"
       gradientUnits="userSpaceOnUse"
       gradientTransform="matrix(0.28,0,0,0.27776949,-0.96000004,-1.1110781)" />
    <linearGradient
       inkscape:collect="always"
       xlink:href="#linearGradient854"
       id="linearGradient856"
       x1="46.86578"
       y1="-20.338984"
       x2="46.964725"
       y2="-16"
       gradientUnits="userSpaceOnUse"
       gradientTransform="matrix(0.27397889,0,0,0.2803146,-4.6308915,8.5237098)" />
    <linearGradient
       inkscape:collect="always"
       xlink:href="#linearGradient877"
       id="linearGradient879"
       x1="33.654331"
       y1="57.243763"
       x2="33.640289"
       y2="55.100533"
       gradientUnits="userSpaceOnUse"
       gradientTransform="matrix(0.28,0,0,0.27776949,-0.96000004,-1.1110781)" />
  </defs>
  <sodipodi:namedview
     pagecolor="#ffffff"
     bordercolor="#666666"
     borderopacity="1"
     objecttolerance="10"
     gridtolerance="10"
     guidetolerance="10"
     inkscape:pageopacity="0"
     inkscape:pageshadow="2"
     inkscape:window-width="1366"
     inkscape:window-height="708"
     id="namedview16"
     showgrid="false"
     inkscape:zoom="7.375"
     inkscape:cx="23.718685"
     inkscape:cy="30.889861"
     inkscape:window-x="0"
     inkscape:window-y="25"
     inkscape:window-maximized="1"
     inkscape:current-layer="svg14" />
  <path
     d="M 4.8043473,2.0939545 1,2.8118817 V 15.375607 L 4.8043475,14.65768 11.195649,15.555089 15,14.837162 V 2.2734361 l -3.80435,0.7179277 z"
     style="fill:#2ecc71;fill-opacity:1;fill-rule:evenodd;stroke:none;stroke-width:0.30173087"
     id="path4"
     inkscape:connector-curvature="0" />
  <path
     d="M 2.9024778,2.4681737 1.3804347,2.7670112 4.8043473,6.1322947 6.7527822,10.34608 4.8043473,10.61934 0.99999994,12.862863 v 1.570465 H 15 V 7.4784069 L 11.19565,9.7219303 7.5297815,10.236145 4.8020648,4.337477 2.9001956,2.4681737 Z"
     style="fill:#f1c40f;fill-opacity:1;fill-rule:evenodd;stroke:none;stroke-width:0.30173087"
     id="path6"
     inkscape:connector-curvature="0" />
  <path
     d="M 4.8730664,2.2635948 1.1505274,2.9880997 V 15.666945 l 3.722539,-0.724506 6.2538646,0.905631 3.72254,-0.724505 V 2.4447206 l -3.72254,0.7245054 z"
     style="opacity:0.4;fill:none;fill-opacity:1;fill-rule:evenodd;stroke:url(#linearGradient856);stroke-width:0.29985324;stroke-miterlimit:4;stroke-dasharray:none;stroke-opacity:1"
     id="path4-2"
     inkscape:connector-curvature="0" />
  <path
     d="M 4.8043473,11.965453 1,14.208976 v 1.166631 L 4.8043475,14.65768 11.195649,15.555089 15,14.837162 V 8.8245217 l -3.80435,2.2435233"
     style="fill:#3498db;fill-opacity:1;fill-rule:evenodd;stroke:none;stroke-width:0.30173087"
     id="path8"
     inkscape:connector-curvature="0" />
  <path
     d="M 4.8730647,1.817988 1.150524,2.5425563 V 15.2225 l 3.7225407,-0.724568 6.2538693,0.90571 3.72254,-0.724566 V 1.9991297 l -3.72254,0.7245685 z"
     style="opacity:0.4;fill:none;fill-opacity:1;fill-rule:evenodd;stroke:url(#linearGradient879);stroke-width:0.29984638;stroke-opacity:1"
     id="path4-0"
     inkscape:connector-curvature="0" />
  <path
     d="M 11.19565,2.9913638 15,2.2734361 V 14.837162 l -3.80435,0.717927 z M 4.8043473,14.65768 1,15.375607 V 2.8118817 L 4.8043473,2.0939545 Z"
     style="opacity:0.15;fill:#000000;fill-opacity:1;fill-rule:evenodd;stroke:none;stroke-width:0.30173087"
     id="path10"
     inkscape:connector-curvature="0"
     sodipodi:nodetypes="cccccccccc" />
  <path
     d="M 8.9130431,-1.7102653e-7 C 7.4001298,-1.7102653e-7 6.1739129,1.2055193 6.1739129,2.6922271 6.1745051,3.1247782 6.2807386,3.5510475 6.4843471,3.9351386 7.2914766,5.4634261 8.1034773,6.9962003 8.9130431,8.5253855 L 11.341735,3.9351386 c 0.20422,-0.3834925 0.309523,-0.8097623 0.310436,-1.2429115 0,-1.4870067 -1.22652,-2.69222727102653 -2.7391279,-2.69222727102653 m 0,1.79481827102653 A 0.91304342,0.89740911 0 0 1 9.8260865,2.6922271 0.91304342,0.89740911 0 0 1 8.9130431,3.5896364 0.91304342,0.89740911 0 0 1 7.999999,2.6922271 0.91304342,0.89740911 0 0 1 8.9130431,1.7948181 Z"
     style="opacity:1;fill:url(#linearGradient833);fill-opacity:1;fill-rule:nonzero;stroke:none;stroke-width:0.30173087"
     id="path12"
     inkscape:connector-curvature="0" />
</svg>
