<?xml version="1.0" encoding="UTF-8" standalone="no"?>
<svg
   xmlns:dc="http://purl.org/dc/elements/1.1/"
   xmlns:cc="http://creativecommons.org/ns#"
   xmlns:rdf="http://www.w3.org/1999/02/22-rdf-syntax-ns#"
   xmlns:svg="http://www.w3.org/2000/svg"
   xmlns="http://www.w3.org/2000/svg"
   xmlns:xlink="http://www.w3.org/1999/xlink"
   xmlns:sodipodi="http://sodipodi.sourceforge.net/DTD/sodipodi-0.dtd"
   xmlns:inkscape="http://www.inkscape.org/namespaces/inkscape"
   width="16"
   height="16"
   version="1"
   id="svg22"
   sodipodi:docname="multimedia-audio-player.svg"
   inkscape:version="0.92.4 5da689c313, 2019-01-14">
  <metadata
     id="metadata28">
    <rdf:RDF>
      <cc:Work
         rdf:about="">
        <dc:format>image/svg+xml</dc:format>
        <dc:type
           rdf:resource="http://purl.org/dc/dcmitype/StillImage" />
        <dc:title></dc:title>
      </cc:Work>
    </rdf:RDF>
  </metadata>
  <defs
     id="defs26">
    <linearGradient
       id="linearGradient910"
       inkscape:collect="always">
      <stop
         id="stop906"
         offset="0"
         style="stop-color:#ffffff;stop-opacity:1" />
      <stop
         id="stop908"
         offset="1"
         style="stop-color:#ffffff;stop-opacity:0" />
    </linearGradient>
    <linearGradient
       inkscape:collect="always"
       id="linearGradient878">
      <stop
         style="stop-color:#000000;stop-opacity:1;"
         offset="0"
         id="stop874" />
      <stop
         style="stop-color:#000000;stop-opacity:0;"
         offset="1"
         id="stop876" />
    </linearGradient>
    <linearGradient
       inkscape:collect="always"
       id="linearGradient2344">
      <stop
         style="stop-color:#ff9900;stop-opacity:1"
         offset="0"
         id="stop2340" />
      <stop
         style="stop-color:#ff6600;stop-opacity:1"
         offset="1"
         id="stop2342" />
    </linearGradient>
    <linearGradient
       inkscape:collect="always"
       xlink:href="#linearGradient2344"
       id="linearGradient2346"
       x1="-63.451641"
       y1="0.026913203"
       x2="-0.16484457"
       y2="-63.831791"
       gradientUnits="userSpaceOnUse"
       gradientTransform="matrix(0.28571426,0,0,0.28571426,17.142856,17.142855)" />
    <linearGradient
       inkscape:collect="always"
       xlink:href="#linearGradient878"
       id="linearGradient880"
       x1="-60.000004"
       y1="-32.000004"
       x2="-52.31498"
       y2="-32.000004"
       gradientUnits="userSpaceOnUse"
       gradientTransform="matrix(0.28571426,0,0,0.28571426,1.1428573,1.1428577)" />
    <linearGradient
       gradientTransform="matrix(0.28571426,0,0,0.28571426,17.142856,1.1428569)"
       inkscape:collect="always"
       xlink:href="#linearGradient910"
       id="linearGradient880-4"
       x1="-60.000004"
       y1="-32.000004"
       x2="-51.230232"
       y2="-31.728817"
       gradientUnits="userSpaceOnUse" />
  </defs>
  <sodipodi:namedview
     pagecolor="#ffffff"
     bordercolor="#666666"
     borderopacity="1"
     objecttolerance="10"
     gridtolerance="10"
     guidetolerance="10"
     inkscape:pageopacity="0"
     inkscape:pageshadow="2"
     inkscape:window-width="1366"
     inkscape:window-height="708"
     id="namedview24"
     showgrid="false"
     inkscape:zoom="14.75"
     inkscape:cx="-2.0532874"
     inkscape:cy="11.73963"
     inkscape:window-x="0"
     inkscape:window-y="25"
     inkscape:window-maximized="1"
     inkscape:current-layer="svg22" />
  <rect
     style="fill:url(#linearGradient2346);fill-opacity:1;stroke-width:0.39999998"
     width="15.999999"
     height="15.999999"
     x="8.9406967e-08"
     y="-3.8743019e-07"
     rx="7.9999995"
     ry="7.9999995"
     transform="matrix(0,1,1,0,0,0)"
     id="rect8" />
  <circle
     style="opacity:0.2;fill:#ffffff;fill-opacity:1;stroke:none;stroke-width:0.23977004;stroke-miterlimit:4;stroke-dasharray:none;stroke-opacity:0"
     id="path829-1-7"
     cx="8"
     cy="8"
     r="3.9999998" />
  <circle
     style="opacity:0.2;fill:#ffffff;fill-opacity:1;stroke:none;stroke-width:0.41103435;stroke-miterlimit:4;stroke-dasharray:none;stroke-opacity:0"
     id="path829"
     cx="8"
     cy="8"
     r="6.8571424" />
  <circle
     style="opacity:0.2;fill:#ffffff;fill-opacity:1;stroke:none;stroke-width:0.3254022;stroke-miterlimit:4;stroke-dasharray:none;stroke-opacity:0"
     id="path829-1"
     cx="8"
     cy="8"
     r="5.4285712" />
  <path
     style="opacity:0.2;fill:#ffffff;fill-opacity:1;stroke:none;stroke-width:0.58812195;stroke-miterlimit:4;stroke-dasharray:none;stroke-opacity:1"
     id="path2348"
     r="24"
     cy="32"
     cx="32"
     d=""
     inkscape:connector-curvature="0" />
  <path
     style="color:#4d4d4d;opacity:0.2;fill:#000000;fill-opacity:1;stroke:none;stroke-width:0.43403077"
     class="ColorScheme-Text"
     d="M 10.436124,5.2945057 7.1932564,6.1112651 C 6.9496212,6.1748531 6.7530604,6.4276807 6.7530604,6.6733718 V 10.568948 C 6.5060076,10.442941 6.1886962,10.392012 5.8597488,10.475266 5.2661585,10.625501 4.8945665,11.1109 5.0218076,11.559448 c 0.1272417,0.448558 0.7122326,0.698721 1.3058212,0.548482 0.4735628,-0.11985 0.7997236,-0.458296 0.8517844,-0.8159 L 7.1932612,7.6102182 10.271864,6.8070862 V 9.7121613 C 10.024809,9.5861501 9.7074989,9.5352198 9.3785529,9.6184793 c -0.593591,0.1502312 -0.966105,0.6356247 -0.838865,1.0841827 0.127242,0.448553 0.712235,0.69872 1.305823,0.548484 0.4735631,-0.119862 0.7997221,-0.458294 0.8517841,-0.815908 l 0.01385,-4.7923945 c 3e-6,-0.1842697 -0.117059,-0.3224182 -0.275005,-0.3483382 z"
     id="path4-7"
     inkscape:connector-curvature="0" />
  <path
     style="color:#4d4d4d;fill:#ffffff;fill-opacity:1;stroke:none;stroke-width:0.43403077"
     class="ColorScheme-Text"
     d="M 10.010694,4.5714283 6.767826,5.3881873 C 6.5241908,5.4517761 6.3276293,5.7046033 6.3276293,5.9502948 V 9.8458717 C 6.0805773,9.7198637 5.7632659,9.6689333 5.4343179,9.7521885 4.8407276,9.9024237 4.4691355,10.387824 4.5963773,10.836372 c 0.1272423,0.448558 0.7122332,0.69872 1.3058217,0.54848 0.4735618,-0.119849 0.799723,-0.458296 0.8517838,-0.8159 L 6.7678308,6.8871414 9.8464339,6.0840091 V 8.9890846 C 9.5993789,8.8630734 9.2820679,8.8121422 8.9531229,8.8954022 8.3595319,9.0456334 7.9870164,9.5310278 8.1142589,9.9795853 c 0.127241,0.4485537 0.712234,0.6987207 1.305822,0.5484847 0.473563,-0.119862 0.7997221,-0.458294 0.8517831,-0.8159087 l 0.01385,-4.7923945 c 2e-6,-0.1842703 -0.117059,-0.3224183 -0.275004,-0.3483385 z"
     id="path4"
     inkscape:connector-curvature="0" />
  <rect
     style="opacity:0.4;fill:none;fill-opacity:1;stroke:url(#linearGradient880-4);stroke-width:0.28070176;stroke-miterlimit:4;stroke-dasharray:none;stroke-opacity:1"
     width="15.719297"
     height="15.719297"
     x="0.14035115"
     y="-15.85965"
     rx="7.8596487"
     ry="7.8596487"
     transform="rotate(90)"
     id="rect8-2-8" />
  <rect
     style="opacity:0.4;fill:none;fill-opacity:1;stroke:url(#linearGradient880);stroke-width:0.28070176;stroke-miterlimit:4;stroke-dasharray:none;stroke-opacity:1"
     width="15.719297"
     height="15.719297"
     x="-15.859649"
     y="-15.85965"
     rx="7.8596487"
     ry="7.8596487"
     transform="matrix(0,-1,-1,0,0,0)"
     id="rect8-2" />
</svg>
