<?xml version="1.0" encoding="UTF-8" standalone="no"?>
<!-- Created with Inkscape (http://www.inkscape.org/) -->

<svg
   xmlns:dc="http://purl.org/dc/elements/1.1/"
   xmlns:cc="http://creativecommons.org/ns#"
   xmlns:rdf="http://www.w3.org/1999/02/22-rdf-syntax-ns#"
   xmlns:svg="http://www.w3.org/2000/svg"
   xmlns="http://www.w3.org/2000/svg"
   xmlns:sodipodi="http://sodipodi.sourceforge.net/DTD/sodipodi-0.dtd"
   xmlns:inkscape="http://www.inkscape.org/namespaces/inkscape"
   width="16"
   height="16"
   viewBox="0 0 4.2333332 4.2333335"
   version="1.1"
   id="svg947"
   sodipodi:docname="partitionmanager.svg"
   inkscape:version="0.92.3 (2405546, 2018-03-11)">
  <defs
     id="defs941" />
  <sodipodi:namedview
     id="base"
     pagecolor="#ffffff"
     bordercolor="#666666"
     borderopacity="1.0"
     inkscape:pageopacity="0.0"
     inkscape:pageshadow="2"
     inkscape:zoom="16.25"
     inkscape:cx="1.1084335"
     inkscape:cy="0.36860915"
     inkscape:document-units="mm"
     inkscape:current-layer="layer1"
     showgrid="false"
     units="px"
     inkscape:window-width="1366"
     inkscape:window-height="704"
     inkscape:window-x="0"
     inkscape:window-y="30"
     inkscape:window-maximized="1" />
  <metadata
     id="metadata944">
    <rdf:RDF>
      <cc:Work
         rdf:about="">
        <dc:format>image/svg+xml</dc:format>
        <dc:type
           rdf:resource="http://purl.org/dc/dcmitype/StillImage" />
        <dc:title></dc:title>
      </cc:Work>
    </rdf:RDF>
  </metadata>
  <g
     inkscape:label="Capa 1"
     inkscape:groupmode="layer"
     id="layer1"
     transform="translate(0,-292.76665)">
    <circle
       style="fill:#c6262e;stroke-width:0.13229156"
       cx="2.1166685"
       cy="294.88333"
       r="2.1166649"
       id="circle12" />
    <path
       inkscape:connector-curvature="0"
       style="fill:#ffffff;stroke-width:0.13229156"
       d="m 1.8520858,293.82497 -0.023335,0.27876 a 0.83155822,0.83155822 0 0 0 -0.2430251,0.14058 l -0.2533619,-0.11934 -0.2645831,0.45828 0.2300311,0.15976 a 0.83155822,0.83155822 0 0 0 -0.012707,0.14027 0.83155822,0.83155822 0 0 0 0.012093,0.14085 l -0.2294437,0.15916 0.2645831,0.45829 0.2527722,-0.11906 a 0.83155822,0.83155822 0 0 0 0.2436149,0.13968 l 0.023335,0.27934 h 0.5291662 l 0.023335,-0.27877 A 0.83155822,0.83155822 0 0 0 2.64759,295.52221 l 0.2533597,0.11933 0.2645831,-0.45829 -0.230034,-0.15974 a 0.83155822,0.83155822 0 0 0 0.012707,-0.14027 0.83155822,0.83155822 0 0 0 -0.012093,-0.14085 l 0.229444,-0.15916 -0.2645831,-0.4583 -0.252772,0.11907 a 0.83155822,0.83155822 0 0 0 -0.2436814,-0.13971 l -0.023283,-0.2794 H 1.8520712 Z m 0.2645831,0.75598 a 0.30239203,0.30239203 0 0 1 0.3024183,0.30241 0.30239203,0.30239203 0 0 1 -0.3024183,0.30241 0.30239203,0.30239203 0 0 1 -0.3024188,-0.30241 0.30239203,0.30239203 0 0 1 0.3024188,-0.30241 z"
       id="path14" />
  </g>
</svg>
