<?xml version="1.0" encoding="UTF-8" standalone="no"?>
<svg
   xmlns:dc="http://purl.org/dc/elements/1.1/"
   xmlns:cc="http://creativecommons.org/ns#"
   xmlns:rdf="http://www.w3.org/1999/02/22-rdf-syntax-ns#"
   xmlns:svg="http://www.w3.org/2000/svg"
   xmlns="http://www.w3.org/2000/svg"
   xmlns:xlink="http://www.w3.org/1999/xlink"
   xmlns:sodipodi="http://sodipodi.sourceforge.net/DTD/sodipodi-0.dtd"
   xmlns:inkscape="http://www.inkscape.org/namespaces/inkscape"
   width="16"
   height="16"
   version="1.1"
   viewBox="0 0 12 12"
   id="svg27"
   sodipodi:docname="preferences-system-login.svg"
   inkscape:version="0.92.3 (2405546, 2018-03-11)">
  <metadata
     id="metadata31">
    <rdf:RDF>
      <cc:Work
         rdf:about="">
        <dc:format>image/svg+xml</dc:format>
        <dc:type
           rdf:resource="http://purl.org/dc/dcmitype/StillImage" />
        <dc:title></dc:title>
      </cc:Work>
    </rdf:RDF>
  </metadata>
  <sodipodi:namedview
     pagecolor="#ffffff"
     bordercolor="#666666"
     borderopacity="1"
     objecttolerance="10"
     gridtolerance="10"
     guidetolerance="10"
     inkscape:pageopacity="0"
     inkscape:pageshadow="2"
     inkscape:window-width="1366"
     inkscape:window-height="704"
     id="namedview29"
     showgrid="false"
     inkscape:zoom="7.375"
     inkscape:cx="13.508267"
     inkscape:cy="30.080876"
     inkscape:window-x="0"
     inkscape:window-y="30"
     inkscape:window-maximized="1"
     inkscape:current-layer="svg27" />
  <defs
     id="defs15">
    <linearGradient
       inkscape:collect="always"
       id="linearGradient4499">
      <stop
         style="stop-color:#fa006f;stop-opacity:1"
         offset="0"
         id="stop4495" />
      <stop
         style="stop-color:#ffff00;stop-opacity:1"
         offset="1"
         id="stop4497" />
    </linearGradient>
    <clipPath
       id="clipPath4">
      <rect
         width="384"
         height="384"
         id="rect2"
         x="0"
         y="0" />
    </clipPath>
    <clipPath
       id="clipPath8">
      <rect
         width="384"
         height="384"
         id="rect6"
         x="0"
         y="0" />
    </clipPath>
    <linearGradient
       id="a"
       x1="105.51208"
       x2="456.32745"
       y1="330.3624"
       y2="-70.879669"
       gradientUnits="userSpaceOnUse">
      <stop
         stop-color="#e5e5e5"
         offset="0"
         id="stop10"
         style="stop-color:#fa006f;stop-opacity:1" />
      <stop
         stop-color="#fff"
         offset="1"
         id="stop12"
         style="stop-color:#ffff00;stop-opacity:1" />
    </linearGradient>
    <linearGradient
       inkscape:collect="always"
       xlink:href="#linearGradient4499"
       id="linearGradient4509"
       x1="27.254238"
       y1="356.33899"
       x2="560.13556"
       y2="-162.71187"
       gradientUnits="userSpaceOnUse"
       gradientTransform="matrix(0.03571429,0,0,0.03571429,-0.85721812,-0.8571428)" />
  </defs>
  <path
     d="m 11.999924,6 c 0,-3.31375 -2.6862489,-6 -5.999999,-6 C 2.6861747,0 -7.52e-5,2.68625 -7.52e-5,6 c 0,3.3137496 2.6862499,6 6.0000002,6 3.3137501,0 5.999999,-2.6862504 5.999999,-6 z"
     id="path17"
     style="fill:url(#linearGradient4509);fill-opacity:1;fill-rule:evenodd;stroke-width:0.03571429"
     inkscape:connector-curvature="0" />
  <path
     d="m 9.4281381,2.8396428 c 0,0 -1.0283204,-0.02888 -2.0559276,0.4855 C 7.0580361,3.4678608 6.715389,3.69625 6.4298176,3.9818216 5.9681748,4.4436072 5.2508176,5.2936074 4.6859605,5.9807143 H 3.4316392 L 2.8604964,6.8372856 3.8291036,7.0991432 c 0.0028,0.0346 0.011996,0.083425 0.03878,0.1494136 L 3.7174944,7.5794712 c 0,0 -0.0572,0.1142576 0.3711072,0.5711432 0.4568925,0.4571784 0.5997503,0.3996784 0.5997503,0.3996784 L 5.0432622,8.3893 c 0.053154,0.0166 0.092493,0.022184 0.118164,0.022184 L 5.4306799,9.4070192 6.2873942,8.835876 V 7.543196 C 6.9792161,6.9837664 7.8282865,6.2807663 8.2862865,5.8376949 8.5717231,5.55212 8.8002521,5.2094806 8.9712871,4.8953023 9.4563581,3.8676949 9.4281801,2.8396233 9.4281801,2.8396233 Z M 7.4292457,5.4095354 c -0.3143144,0 -0.5711416,-0.2569748 -0.5711416,-0.5709998 0,-0.3144536 0.2568352,-0.5711428 0.5711416,-0.5711428 0.3141752,0 0.5711424,0.2566964 0.5711424,0.5711428 0,0.3140358 -0.2572528,0.5709998 -0.5711424,0.5709998 z M 4.4310679,8.8361432 c 0.057057,0.02888 0.085657,0.057056 0.1427177,0.085657 C 4.5167288,8.979 4.4595285,9.0646568 4.402189,9.1217144 3.7451176,9.7785352 2.5749033,9.6928568 2.5749033,9.6928568 c 0,0 -0.085657,-1.1710352 0.5711431,-1.8272856 0.057057,-0.057336 0.142718,-0.1139784 0.199914,-0.171596 0.02846,0.057056 0.056779,0.085657 0.085657,0.1427176 -0.4282856,0.5422856 -0.37125,1.3706784 -0.37125,1.3706784 0,0 0.8278572,0.057056 1.3706785,-0.3712496 z"
     id="path19"
     inkscape:connector-curvature="0"
     style="opacity:0.3;stroke-width:0.03571429" />
  <path
     d="m 9.4281381,2.5716786 c 0,0 -1.0283204,-0.028878 -2.0559276,0.4854998 C 7.0580361,3.1998964 6.715389,3.4282856 6.4298176,3.7138572 5.9681748,4.1756428 5.2508176,5.0256429 4.6859605,5.7127503 H 3.4316392 L 2.8604964,6.5693217 3.8291036,6.8311784 c 0.0028,0.0346 0.011996,0.083425 0.03878,0.1494144 L 3.7174944,7.3115072 c 0,0 -0.0572,0.1142576 0.3711072,0.5711432 0.4568925,0.4571784 0.5997503,0.3996784 0.5997503,0.3996784 L 5.0432622,8.1213352 c 0.053154,0.0166 0.092493,0.022184 0.118164,0.022184 L 5.4306799,9.1390552 6.2873942,8.567912 V 7.275232 C 6.9792161,6.7158034 7.8282865,6.0128034 8.2862865,5.5697314 8.5717231,5.2841566 8.8002521,4.9415177 8.9712871,4.6273389 9.4563581,3.5997317 9.4281801,2.5716603 9.4281801,2.5716603 Z M 7.4292457,5.1415714 c -0.3143144,0 -0.5711416,-0.2569748 -0.5711416,-0.5709998 0,-0.314454 0.2568352,-0.5711432 0.5711416,-0.5711432 0.3141752,0 0.5711424,0.2566964 0.5711424,0.5711432 0,0.3140358 -0.2572528,0.5709998 -0.5711424,0.5709998 z m -2.9981779,3.426607 c 0.057057,0.02888 0.085657,0.057056 0.1427178,0.085657 C 4.5167286,8.7110354 4.4595284,8.796693 4.402189,8.8537498 3.7451176,9.5105714 2.5749033,9.424893 2.5749033,9.424893 c 0,0 -0.085657,-1.171036 0.5711431,-1.8272856 0.057061,-0.057344 0.142718,-0.1139784 0.199918,-0.1715968 0.02846,0.057064 0.056778,0.085658 0.085657,0.1427184 -0.428286,0.5422856 -0.37125,1.3706784 -0.37125,1.3706784 0,0 0.8278568,0.057056 1.3706785,-0.3712504 z"
     id="path21"
     style="fill:#ffffff;fill-opacity:1;stroke-width:0.03571429"
     inkscape:connector-curvature="0" />
  <path
     d="M 0.0015856,5.8660714 C 6.142e-4,5.91062 -1.001e-4,5.9552194 -1.001e-4,6 c 0,3.3136608 2.6863391,6 5.9999994,6 3.3136618,0 5.9999997,-2.6863392 5.9999997,-6 0,-0.044783 -6.85e-4,-0.089382 -0.0017,-0.1339286 -0.07122,3.2517854 -2.7294419,5.8660716 -5.9983711,5.8660716 -3.2689285,0 -5.9271428,-2.6142054 -5.9983927,-5.8660716 z"
     id="path23"
     inkscape:connector-curvature="0"
     style="opacity:0.3;stroke-width:0.03571339" />
  <path
     d="M 5.999925,0 C 2.6862642,0 -7.52e-5,2.6863394 -7.52e-5,6 c 0,0.044783 6.857e-4,0.089381 0.00169,0.1339286 0.07125,-3.2517858 2.7294643,-5.8660715 5.9983929,-5.8660715 3.2689294,0 5.9271423,2.6142053 5.9983923,5.8660715 C 11.99936,6.0893796 12.0001,6.0447806 12.0001,6 12.0001,2.6863394 9.3137621,0 6.0001005,0 Z"
     id="path25"
     inkscape:connector-curvature="0"
     style="opacity:0.4;fill:#ffffff;stroke-width:0.03571339" />
</svg>
