<?xml version="1.0" encoding="UTF-8" standalone="no"?>
<svg
   xmlns:dc="http://purl.org/dc/elements/1.1/"
   xmlns:cc="http://creativecommons.org/ns#"
   xmlns:rdf="http://www.w3.org/1999/02/22-rdf-syntax-ns#"
   xmlns:svg="http://www.w3.org/2000/svg"
   xmlns="http://www.w3.org/2000/svg"
   xmlns:xlink="http://www.w3.org/1999/xlink"
   xmlns:sodipodi="http://sodipodi.sourceforge.net/DTD/sodipodi-0.dtd"
   xmlns:inkscape="http://www.inkscape.org/namespaces/inkscape"
   width="16"
   height="16"
   version="1"
   id="svg12"
   sodipodi:docname="preferences-desktop-online-accounts.svg"
   inkscape:version="0.92.3 (2405546, 2018-03-11)">
  <metadata
     id="metadata18">
    <rdf:RDF>
      <cc:Work
         rdf:about="">
        <dc:format>image/svg+xml</dc:format>
        <dc:type
           rdf:resource="http://purl.org/dc/dcmitype/StillImage" />
        <dc:title></dc:title>
      </cc:Work>
    </rdf:RDF>
  </metadata>
  <defs
     id="defs16">
    <linearGradient
       inkscape:collect="always"
       id="linearGradient832">
      <stop
         style="stop-color:#37dbad;stop-opacity:1;"
         offset="0"
         id="stop828" />
      <stop
         style="stop-color:#0066cc;stop-opacity:1"
         offset="1"
         id="stop830" />
    </linearGradient>
    <linearGradient
       inkscape:collect="always"
       xlink:href="#linearGradient832"
       id="linearGradient834"
       x1="0.47457626"
       y1="0.67796606"
       x2="63.796612"
       y2="63.050846"
       gradientUnits="userSpaceOnUse"
       gradientTransform="matrix(0.28571428,0,0,0.28571428,-1.1428571,-1.1428571)" />
  </defs>
  <sodipodi:namedview
     pagecolor="#ffffff"
     bordercolor="#666666"
     borderopacity="1"
     objecttolerance="10"
     gridtolerance="10"
     guidetolerance="10"
     inkscape:pageopacity="0"
     inkscape:pageshadow="2"
     inkscape:window-width="1366"
     inkscape:window-height="704"
     id="namedview14"
     showgrid="false"
     inkscape:zoom="7.375"
     inkscape:cx="32.373752"
     inkscape:cy="27.693281"
     inkscape:window-x="0"
     inkscape:window-y="30"
     inkscape:window-maximized="1"
     inkscape:current-layer="svg12" />
  <rect
     style="fill:url(#linearGradient834);fill-opacity:1;stroke-width:0.2857143"
     width="16"
     height="16"
     x="0"
     y="0"
     rx="8"
     ry="8"
     id="rect2" />
  <path
     style="opacity:0.2;stroke-width:0.2857143"
     d="m 7.9998856,3.7144164 c -2.5247067,0 -4.5713632,2.0466562 -4.5713632,4.5713628 0,2.5247068 2.0466565,4.5713638 4.5713632,4.5713638 h 2.8571014 c 0,0 0.535707,0 0.571421,-0.571421 0,-0.57142 -0.571421,-0.57142 -0.571421,-0.57142 H 7.9998856 c -1.8935159,0 -3.4285222,-1.535007 -3.4285222,-3.4285228 0,-1.8935158 1.5350063,-3.4285221 3.4285222,-3.4285221 1.8935164,0 3.4285224,1.5350063 3.4285224,3.4285221 V 8.8572 c 0,0.315584 -0.255837,0.5714208 -0.571421,0.5714208 -0.315584,0 -0.57142,-0.2558368 -0.57142,-0.5714208 V 8.2857792 c 0,-1.262324 -1.023357,-2.2856809 -2.2856814,-2.2856809 -1.2623248,0 -2.2856816,1.0233569 -2.2856816,2.2856809 0,1.2623256 1.0233568,2.2856818 2.2856816,2.2856818 0.59782,0 1.1372974,-0.234796 1.5446064,-0.6105058 0.32571,0.3868518 0.806274,0.6102778 1.312553,0.6102778 0.946729,0 1.714261,-0.7675322 1.714261,-1.7142618 v -0.57142 c 0,-2.5245358 -2.046828,-4.5713636 -4.5713636,-4.5713636 z m 0,3.4285228 c 0.6311912,0 1.1428404,0.5116664 1.1428404,1.14284 0,0.6311744 -0.5116668,1.1428416 -1.1428404,1.1428416 -0.6311744,0 -1.1428408,-0.5116672 -1.1428408,-1.1428416 0,-0.6311736 0.5116664,-1.14284 1.1428408,-1.14284 z"
     id="path4"
     inkscape:connector-curvature="0" />
  <path
     style="fill:#ffffff;stroke-width:0.2857143"
     d="m 7.9998856,3.4287596 c -2.5247067,0 -4.5713632,2.0466564 -4.5713632,4.5713628 0,2.5247076 2.0466565,4.5713636 4.5713632,4.5713636 h 2.8571014 c 0,0 0.535707,0 0.571421,-0.57142 0,-0.571421 -0.571421,-0.571421 -0.571421,-0.571421 H 7.9998856 c -1.8935159,0 -3.4285222,-1.5350066 -3.4285222,-3.4285226 0,-1.8935155 1.5350063,-3.4285218 3.4285222,-3.4285218 1.8935164,0 3.4285224,1.5350063 3.4285224,3.4285218 v 0.5714208 c 0,0.315584 -0.255837,0.57142 -0.571421,0.57142 -0.315584,0 -0.57142,-0.255836 -0.57142,-0.57142 V 8.0001224 c 0,-1.2623248 -1.023357,-2.2856813 -2.2856814,-2.2856813 -1.2623248,0 -2.2856816,1.0233565 -2.2856816,2.2856813 0,1.2623248 1.0233568,2.2856826 2.2856816,2.2856826 0.59782,0 1.1372974,-0.234798 1.5446064,-0.6105066 0.32571,0.3868516 0.806274,0.6102766 1.312553,0.6102766 0.946729,0 1.714261,-0.7675318 1.714261,-1.7142606 v -0.57142 c 0,-2.5245355 -2.046828,-4.5713636 -4.5713636,-4.5713636 z m 0,3.428522 c 0.6311912,0 1.1428404,0.5116672 1.1428404,1.1428408 0,0.6311744 -0.5116668,1.1428408 -1.1428404,1.1428408 -0.6311744,0 -1.1428408,-0.5116664 -1.1428408,-1.1428408 0,-0.6311736 0.5116664,-1.1428408 1.1428408,-1.1428408 z"
     id="path6"
     inkscape:connector-curvature="0" />
  <path
     style="opacity:0.2;stroke-width:0.2857143"
     d="M 15.994978,7.9040176 C 15.894537,12.247315 12.368363,15.714286 8,15.714286 3.6320103,15.714286 0.1060418,12.247909 0.0050223,7.9051344 0.0032575,7.9367392 0,7.967932 0,8 c 0,4.431937 3.568,8 8,8 4.432001,0 8,-3.568063 8,-8 0,-0.032408 -0.0033,-0.064032 -0.005,-0.095982 z"
     id="path8"
     inkscape:connector-curvature="0" />
  <path
     style="opacity:0.4;fill:#ffffff;stroke-width:0.2857143"
     d="M 8,0 C 3.5680634,0 0,3.5680636 0,8 0,8.032448 0.003224,8.064008 0.005024,8.0959824 0.1054618,3.7526852 3.6316989,0.2857144 8,0.2857144 c 4.368302,0 7.894538,3.4669708 7.994978,7.810268 C 15.996799,8.0640096 16,8.032444 16,8 16,3.5680636 12.431937,0 8,0 Z"
     id="path10"
     inkscape:connector-curvature="0" />
</svg>
