<?xml version="1.0" encoding="UTF-8" standalone="no"?>
<svg
   xmlns:dc="http://purl.org/dc/elements/1.1/"
   xmlns:cc="http://creativecommons.org/ns#"
   xmlns:rdf="http://www.w3.org/1999/02/22-rdf-syntax-ns#"
   xmlns:svg="http://www.w3.org/2000/svg"
   xmlns="http://www.w3.org/2000/svg"
   xmlns:xlink="http://www.w3.org/1999/xlink"
   xmlns:sodipodi="http://sodipodi.sourceforge.net/DTD/sodipodi-0.dtd"
   xmlns:inkscape="http://www.inkscape.org/namespaces/inkscape"
   width="16"
   height="16"
   version="1"
   id="svg16"
   sodipodi:docname="preferences-system-windows.svg"
   inkscape:version="0.92.4 5da689c313, 2019-01-14">
  <metadata
     id="metadata22">
    <rdf:RDF>
      <cc:Work
         rdf:about="">
        <dc:format>image/svg+xml</dc:format>
        <dc:type
           rdf:resource="http://purl.org/dc/dcmitype/StillImage" />
        <dc:title></dc:title>
      </cc:Work>
    </rdf:RDF>
  </metadata>
  <defs
     id="defs20">
    <linearGradient
       inkscape:collect="always"
       id="linearGradient857">
      <stop
         style="stop-color:#50595e;stop-opacity:1"
         offset="0"
         id="stop853" />
      <stop
         style="stop-color:#768388;stop-opacity:1"
         offset="1"
         id="stop855" />
    </linearGradient>
    <linearGradient
       inkscape:collect="always"
       xlink:href="#linearGradient857"
       id="linearGradient859"
       x1="24.881355"
       y1="28.618645"
       x2="25.220339"
       y2="22.11017"
       gradientUnits="userSpaceOnUse"
       gradientTransform="matrix(0.36363637,0,0,0.559452,-1.4545454,-11.277779)" />
  </defs>
  <sodipodi:namedview
     pagecolor="#ffffff"
     bordercolor="#666666"
     borderopacity="1"
     objecttolerance="10"
     gridtolerance="10"
     guidetolerance="10"
     inkscape:pageopacity="0"
     inkscape:pageshadow="2"
     inkscape:window-width="1366"
     inkscape:window-height="709"
     id="namedview18"
     showgrid="false"
     inkscape:zoom="29.5"
     inkscape:cx="6.2766222"
     inkscape:cy="9.9798435"
     inkscape:window-x="0"
     inkscape:window-y="25"
     inkscape:window-maximized="1"
     inkscape:current-layer="svg16" />
  <path
     style="fill:#e4e4e4;stroke-width:0.3670958"
     d="M 0,3.4747055 V 13.888235 C 0,14.504153 0.4865454,15 1.090909,15 H 14.909091 C 15.513454,15 16,14.504153 16,13.888235 V 3.4747055 Z"
     id="path6"
     inkscape:connector-curvature="0" />
  <path
     style="fill:url(#linearGradient859);fill-opacity:1;stroke-width:0.45104006"
     d="M 1.090909,1.0301639 C 0.4865454,1.0301639 0,1.7787106 0,2.7085199 V 4.9463275 H 16 V 2.7085199 c 0,-0.9298093 -0.486546,-1.678356 -1.090909,-1.678356 z"
     id="path8"
     inkscape:connector-curvature="0" />
  <path
     style="opacity:0.2;stroke-width:0.3670958"
     d="m 0,13.517647 v 0.370588 C 0,14.504153 0.4865454,15 1.090909,15 H 14.909091 C 15.513454,15 16,14.504153 16,13.888235 v -0.370588 c 0,0.615917 -0.486546,1.111765 -1.090909,1.111765 H 1.090909 C 0.4865454,14.629412 0,14.133564 0,13.517647 Z"
     id="path14"
     inkscape:connector-curvature="0" />
  <path
     inkscape:connector-curvature="0"
     style="opacity:0.4;fill:#ffffff;stroke-width:0.3670958"
     d="M 1.090909,1 C 0.4865454,1 0,1.4958471 0,2.1117646 V 2.4823531 C 0,1.8664351 0.4865454,1.3705881 1.090909,1.3705881 H 14.909091 C 15.513454,1.3705881 16,1.8664351 16,2.4823531 V 2.1117646 C 16,1.4958471 15.513454,1 14.909091,1 Z"
     id="path12-4" />
</svg>
