<?xml version="1.0" encoding="UTF-8" standalone="no"?>
<svg
   xmlns:dc="http://purl.org/dc/elements/1.1/"
   xmlns:cc="http://creativecommons.org/ns#"
   xmlns:rdf="http://www.w3.org/1999/02/22-rdf-syntax-ns#"
   xmlns:svg="http://www.w3.org/2000/svg"
   xmlns="http://www.w3.org/2000/svg"
   xmlns:xlink="http://www.w3.org/1999/xlink"
   xmlns:sodipodi="http://sodipodi.sourceforge.net/DTD/sodipodi-0.dtd"
   xmlns:inkscape="http://www.inkscape.org/namespaces/inkscape"
   width="16"
   height="16"
   version="1.1"
   viewBox="0 0 12 12"
   id="svg28"
   sodipodi:docname="preferences-system-time.svg"
   inkscape:version="0.92.4 5da689c313, 2019-01-14">
  <metadata
     id="metadata32">
    <rdf:RDF>
      <cc:Work
         rdf:about="">
        <dc:format>image/svg+xml</dc:format>
        <dc:type
           rdf:resource="http://purl.org/dc/dcmitype/StillImage" />
        <dc:title></dc:title>
      </cc:Work>
    </rdf:RDF>
  </metadata>
  <sodipodi:namedview
     pagecolor="#ffffff"
     bordercolor="#666666"
     borderopacity="1"
     objecttolerance="10"
     gridtolerance="10"
     guidetolerance="10"
     inkscape:pageopacity="0"
     inkscape:pageshadow="2"
     inkscape:window-width="1366"
     inkscape:window-height="712"
     id="namedview30"
     showgrid="false"
     inkscape:zoom="5.2149125"
     inkscape:cx="36.860427"
     inkscape:cy="5.3517842"
     inkscape:window-x="0"
     inkscape:window-y="25"
     inkscape:window-maximized="1"
     inkscape:current-layer="svg28"
     showguides="false" />
  <defs
     id="defs6">
    <linearGradient
       inkscape:collect="always"
       id="linearGradient958">
      <stop
         style="stop-color:#000000;stop-opacity:1;"
         offset="0"
         id="stop954" />
      <stop
         style="stop-color:#000000;stop-opacity:0;"
         offset="1"
         id="stop956" />
    </linearGradient>
    <linearGradient
       inkscape:collect="always"
       id="linearGradient890">
      <stop
         style="stop-color:#0049dc;stop-opacity:1"
         offset="0"
         id="stop886" />
      <stop
         style="stop-color:#00e9f2;stop-opacity:1"
         offset="1"
         id="stop888" />
    </linearGradient>
    <linearGradient
       inkscape:collect="always"
       id="linearGradient843">
      <stop
         style="stop-color:#ffffff;stop-opacity:1;"
         offset="0"
         id="stop839" />
      <stop
         style="stop-color:#f0f0f0;stop-opacity:1"
         offset="1"
         id="stop841" />
    </linearGradient>
    <clipPath
       id="clipPath4">
      <rect
         width="384"
         height="384"
         id="rect2"
         x="0"
         y="0" />
    </clipPath>
    <linearGradient
       inkscape:collect="always"
       xlink:href="#linearGradient843"
       id="linearGradient845"
       x1="46.721355"
       y1="37.870853"
       x2="347.0871"
       y2="347.02341"
       gradientUnits="userSpaceOnUse"
       gradientTransform="matrix(0.03528847,0,0,0.03528847,-0.83361225,-0.7337455)" />
    <linearGradient
       inkscape:collect="always"
       xlink:href="#linearGradient890"
       id="linearGradient892"
       x1="-0.16400324"
       y1="49.887299"
       x2="48.020184"
       y2="0.4137941"
       gradientUnits="userSpaceOnUse"
       gradientTransform="matrix(0,-0.28571428,0.28571428,0,-0.85714276,12.857143)" />
    <filter
       inkscape:collect="always"
       style="color-interpolation-filters:sRGB"
       id="filter950"
       x="-0.048"
       width="1.096"
       y="-0.048"
       height="1.096">
      <feGaussianBlur
         inkscape:collect="always"
         stdDeviation="0.73540244"
         id="feGaussianBlur952" />
    </filter>
    <linearGradient
       inkscape:collect="always"
       xlink:href="#linearGradient958"
       id="linearGradient960"
       x1="3.8499732"
       y1="23.999998"
       x2="44.150024"
       y2="23.999998"
       gradientUnits="userSpaceOnUse" />
    <filter
       inkscape:collect="always"
       style="color-interpolation-filters:sRGB"
       id="filter986"
       x="-0.051748704"
       width="1.1034974"
       y="-0.044757728"
       height="1.0895154">
      <feGaussianBlur
         inkscape:collect="always"
         stdDeviation="0.47806193"
         id="feGaussianBlur988" />
    </filter>
  </defs>
  <path
     d="M 5.9999999,9.9999999e-8 C 9.3137421,9.9999999e-8 12,2.6862578 12,5.9999999 12,9.3135999 9.3137421,12 5.9999999,12 2.6863996,12 -5e-8,9.3137423 -5e-8,5.9999999 -5e-8,2.6862578 2.6862573,9.9999999e-8 5.9999999,9.9999999e-8 Z"
     style="fill:url(#linearGradient892);fill-opacity:1;fill-rule:evenodd;stroke-width:0.03555555"
     id="path10"
     inkscape:connector-curvature="0" />
  <path
     d="m 11.357142,5.9999999 c 0,2.9587264 -2.3985209,5.3571431 -5.3571421,5.3571431 -2.9587262,0 -5.35714285,-2.3985223 -5.35714285,-5.3571431 0,-2.9586207 2.39852265,-5.35714264 5.35714295,-5.35714264 2.9586211,0 5.357142,2.39852194 5.357142,5.35714264"
     style="fill:url(#linearGradient845);fill-opacity:1;fill-rule:evenodd;stroke-width:0.03528847"
     id="path12"
     inkscape:connector-curvature="0" />
  <path
     d="m 34.490667,0.940621 c -0.258646,0 -0.517839,0.09947 -0.715307,0.29695 l -9.97136,9.97136 -7.47e-4,-7.47e-4 V 11.20806 L 14.882827,3.326993 c -0.386338,-0.341264 -0.977561,-0.305262 -1.318863,0.08167 -0.341799,0.386313 -0.305088,0.976988 0.08167,1.318738 l 8.919929,7.880818 c 0.181614,0.160769 0.409472,0.226239 0.634007,0.222394 0.04561,0.08597 0.0948,0.171285 0.167341,0.244271 l 0.03263,0.03263 h 0.01677 c 0.396791,0.352539 1.00067,0.347923 1.380836,-0.03227 L 35.205428,2.667086 c 0.394539,-0.394538 0.394539,-1.035004 0,-1.429493 C 35.007947,1.040112 34.748879,0.940644 34.490669,0.940644 Z M 23.535822,13.961244 c -0.134686,0.0081 -0.261769,0.0841 -0.332864,0.214741 L 16.832025,25.90923 c -0.11375,0.209029 -0.04138,0.47931 0.16133,0.603754 0.202707,0.12493 0.459374,0.0559 0.573129,-0.153128 l 6.371057,-11.733245 c 0.11375,-0.20903 0.0412,-0.47931 -0.161504,-0.603755 -0.07602,-0.04685 -0.15945,-0.06647 -0.240265,-0.06162 z"
     dominant-baseline="auto"
     style="color:#000000;font-variant-ligatures:normal;font-variant-position:normal;font-variant-caps:normal;font-variant-numeric:normal;font-variant-alternates:normal;font-feature-settings:normal;text-indent:0;text-decoration:none;text-decoration-line:none;text-decoration-style:solid;text-decoration-color:#000000;text-transform:none;text-orientation:mixed;dominant-baseline:auto;white-space:normal;shape-padding:0;opacity:0.3;isolation:auto;mix-blend-mode:normal;solid-color:#000000;stroke-width:0.12444445;filter:url(#filter986);color-rendering:auto;image-rendering:auto;shape-rendering:auto"
     id="path16"
     inkscape:connector-curvature="0"
     transform="matrix(0.28571429,0,0,0.28571429,-0.8571428,2.5714285)" />
  <path
     d="m 9.0005331,2.6066486 c -0.06583,0 -0.131527,0.02514 -0.181944,0.075556 L 5.9470503,5.5537417 c -0.00653,-0.0075 -0.013474,-0.014726 -0.021114,-0.021526 L 3.3773169,3.2805516 c -0.097639,-0.086251 -0.2458352,-0.077223 -0.332082,0.020556 -0.086389,0.097639 -0.077223,0.245696 0.020556,0.3320815 l 2.5486217,2.2516623 c 0.050834,0.045 0.115417,0.06389 0.1777782,0.057917 0.012497,0.027777 0.029863,0.053886 0.05264,0.076807 h 1.418e-4 c 0.1006937,0.1006925 0.2629159,0.1006925 0.3636273,0 L 9.1823591,3.0458148 c 0.100694,-0.1006932 0.100694,-0.2629153 0,-0.3636264 -0.05042,-0.050419 -0.116108,-0.075558 -0.181804,-0.075558 z"
     id="path18"
     style="fill:#323232;fill-opacity:1;stroke:none;stroke-width:0.06336"
     inkscape:connector-curvature="0" />
  <path
     d="M 3.9552,9.7087991 5.7754664,6.3564445 c 0.032497,-0.059723 0.1058354,-0.079445 0.1637513,-0.043754 0.057917,0.035554 0.07861,0.1127789 0.046114,0.1725011 l -1.820266,3.3523555 c -0.032503,0.05972 -0.1058348,0.079448 -0.1637514,0.043752 -0.057917,-0.035552 -0.07861,-0.1127792 -0.046112,-0.1725016 z"
     id="path22"
     inkscape:connector-curvature="0"
     style="fill:#fd4747;stroke:none;stroke-width:0.03555555" />
  <path
     d="m 6.5738664,6.1180439 c -1.418e-4,0.2841675 -0.2305561,0.514596 -0.5147378,0.514596 -0.2843052,0 -0.5147371,-0.2304182 -0.5147371,-0.514596 -1.429e-4,-0.2843056 0.2304172,-0.5148445 0.5147371,-0.5148445 0.2843058,0 0.5148452,0.2305572 0.5147378,0.5148445"
     style="opacity:0.3;fill:#030000;stroke-width:0.03555555"
     id="path24"
     inkscape:connector-curvature="0" />
  <path
     d="m 6.5738664,5.9580446 c -1.418e-4,0.2841668 -0.2305561,0.5145953 -0.5147378,0.5145953 -0.2843052,0 -0.5147371,-0.2304176 -0.5147371,-0.5145953 -1.429e-4,-0.2843063 0.2304172,-0.5148452 0.5147371,-0.5148452 0.2843058,0 0.5148452,0.2305572 0.5147378,0.5148452"
     style="fill:#ffffff;stroke:none;stroke-width:0.03555555"
     id="path26"
     inkscape:connector-curvature="0" />
  <path
     d="M 42.385061,24 C 42.385061,34.153988 34.153627,42.385061 24,42.385061 13.846011,42.385061 5.614939,34.153627 5.614939,24 5.614939,13.846374 13.846375,5.614939 24,5.614939 34.153627,5.614939 42.385061,13.846374 42.385061,24"
     style="opacity:0.5;fill:none;fill-opacity:1;fill-rule:evenodd;stroke:url(#linearGradient960);stroke-width:0.72974998;stroke-miterlimit:4;stroke-dasharray:none;stroke-opacity:1;filter:url(#filter950)"
     id="path12-7"
     inkscape:connector-curvature="0"
     transform="matrix(0,0.28571429,-0.28571429,0,12.857142,-0.8571427)" />
</svg>
