<?xml version="1.0" encoding="UTF-8" standalone="no"?>
<svg
   xmlns:dc="http://purl.org/dc/elements/1.1/"
   xmlns:cc="http://creativecommons.org/ns#"
   xmlns:rdf="http://www.w3.org/1999/02/22-rdf-syntax-ns#"
   xmlns:svg="http://www.w3.org/2000/svg"
   xmlns="http://www.w3.org/2000/svg"
   xmlns:xlink="http://www.w3.org/1999/xlink"
   xmlns:sodipodi="http://sodipodi.sourceforge.net/DTD/sodipodi-0.dtd"
   xmlns:inkscape="http://www.inkscape.org/namespaces/inkscape"
   width="16"
   height="16"
   version="1"
   id="svg10"
   sodipodi:docname="preferences-web-browser-cache.svg"
   inkscape:version="0.92.3 (2405546, 2018-03-11)">
  <metadata
     id="metadata16">
    <rdf:RDF>
      <cc:Work
         rdf:about="">
        <dc:format>image/svg+xml</dc:format>
        <dc:type
           rdf:resource="http://purl.org/dc/dcmitype/StillImage" />
        <dc:title></dc:title>
      </cc:Work>
    </rdf:RDF>
  </metadata>
  <defs
     id="defs14">
    <linearGradient
       inkscape:collect="always"
       id="linearGradient827">
      <stop
         style="stop-color:#ffcc00;stop-opacity:1"
         offset="0"
         id="stop823" />
      <stop
         style="stop-color:#ffb800;stop-opacity:1"
         offset="1"
         id="stop825" />
    </linearGradient>
    <linearGradient
       inkscape:collect="always"
       xlink:href="#linearGradient827"
       id="linearGradient829"
       x1="31.999599"
       y1="16.000658"
       x2="31.999599"
       y2="48.000198"
       gradientUnits="userSpaceOnUse"
       gradientTransform="matrix(0.28571428,0,0,0.28571428,-1.1428571,-1.1428611)" />
  </defs>
  <sodipodi:namedview
     pagecolor="#ffffff"
     bordercolor="#666666"
     borderopacity="1"
     objecttolerance="10"
     gridtolerance="10"
     guidetolerance="10"
     inkscape:pageopacity="0"
     inkscape:pageshadow="2"
     inkscape:window-width="1366"
     inkscape:window-height="704"
     id="namedview12"
     showgrid="false"
     inkscape:zoom="3.6875"
     inkscape:cx="1.4546133"
     inkscape:cy="1.3255361"
     inkscape:window-x="0"
     inkscape:window-y="30"
     inkscape:window-maximized="1"
     inkscape:current-layer="svg10" />
  <path
     style="fill:url(#linearGradient829);fill-opacity:1;stroke-width:0.2857143"
     d="M 7.9999992,4e-6 C 3.568,4e-6 0,3.568004 0,8.000004 c 0,4.431999 3.568,8 7.9999992,8 4.4320008,0 8.0000008,-3.568001 8.0000008,-8 0,-4.432 -3.568,-8 -8.0000008,-8 z"
     id="path2"
     inkscape:connector-curvature="0" />
  <path
     style="opacity:0.4;fill:#ffffff;stroke-width:0.2857143"
     d="m 8,-4e-6 c -4.4319366,0 -8,3.5680632 -8,7.9999992 0,0.028096 0.0032,0.055416 0.00502,0.083148 C 0.1121064,3.7458516 3.6360006,0.28571 8,0.28571 c 4.363999,0 7.887894,3.4601416 7.994978,7.7974332 C 15.996791,8.0554328 16,8.0280536 16,7.9999952 16,3.5680592 12.431937,-4e-6 8,-4e-6 Z"
     id="path4"
     inkscape:connector-curvature="0" />
  <path
     style="fill:#3f3f3f;stroke-width:0.2857143"
     d="M 7.9998856,3.4287553 V 6.8572776 H 11.428408 L 7.9998856,12.571482 V 9.1429592 H 4.5713634 Z"
     id="path6"
     inkscape:connector-curvature="0" />
  <path
     style="opacity:0.4;stroke-width:0.2857143"
     d="M 15.994978,7.9040136 C 15.894537,12.24731 12.368363,15.714282 8,15.714282 3.6320103,15.714282 0.1060418,12.247905 0.0050223,7.9051296 0.0032575,7.9367352 0,7.9679272 0,7.9999952 c 0,4.4319378 3.568,7.9999998 8,7.9999998 4.432001,0 8,-3.568062 8,-7.9999998 0,-0.032408 -0.0033,-0.064032 -0.005,-0.095982 z"
     id="path8"
     inkscape:connector-curvature="0" />
</svg>
