<?xml version="1.0" encoding="UTF-8" standalone="no"?>
<svg
   xmlns:dc="http://purl.org/dc/elements/1.1/"
   xmlns:cc="http://creativecommons.org/ns#"
   xmlns:rdf="http://www.w3.org/1999/02/22-rdf-syntax-ns#"
   xmlns:svg="http://www.w3.org/2000/svg"
   xmlns="http://www.w3.org/2000/svg"
   xmlns:xlink="http://www.w3.org/1999/xlink"
   xmlns:sodipodi="http://sodipodi.sourceforge.net/DTD/sodipodi-0.dtd"
   xmlns:inkscape="http://www.inkscape.org/namespaces/inkscape"
   width="16"
   height="16"
   version="1"
   id="svg10"
   sodipodi:docname="preferences-desktop-default-applications.svg"
   inkscape:version="0.92.3 (2405546, 2018-03-11)">
  <metadata
     id="metadata16">
    <rdf:RDF>
      <cc:Work
         rdf:about="">
        <dc:format>image/svg+xml</dc:format>
        <dc:type
           rdf:resource="http://purl.org/dc/dcmitype/StillImage" />
        <dc:title></dc:title>
      </cc:Work>
    </rdf:RDF>
  </metadata>
  <defs
     id="defs14">
    <linearGradient
       inkscape:collect="always"
       id="linearGradient827">
      <stop
         style="stop-color:#ff3300;stop-opacity:1"
         offset="0"
         id="stop823" />
      <stop
         style="stop-color:#ffcc00;stop-opacity:1"
         offset="1"
         id="stop825" />
    </linearGradient>
    <linearGradient
       inkscape:collect="always"
       xlink:href="#linearGradient827"
       id="linearGradient829"
       x1="2.1016948"
       y1="64"
       x2="62.711864"
       y2="2.7118645"
       gradientUnits="userSpaceOnUse"
       gradientTransform="matrix(0.28571428,0,0,0.28571428,-1.1428571,-1.1428571)" />
  </defs>
  <sodipodi:namedview
     pagecolor="#ffffff"
     bordercolor="#666666"
     borderopacity="1"
     objecttolerance="10"
     gridtolerance="10"
     guidetolerance="10"
     inkscape:pageopacity="0"
     inkscape:pageshadow="2"
     inkscape:window-width="1366"
     inkscape:window-height="704"
     id="namedview12"
     showgrid="false"
     inkscape:zoom="7.375"
     inkscape:cx="17.15127"
     inkscape:cy="32.778345"
     inkscape:window-x="0"
     inkscape:window-y="30"
     inkscape:window-maximized="1"
     inkscape:current-layer="svg10" />
  <rect
     style="fill:url(#linearGradient829);fill-opacity:1;stroke-width:0.2857143"
     width="16"
     height="16"
     x="0"
     y="0"
     rx="8"
     ry="8"
     id="rect2" />
  <path
     style="opacity:0.4;fill:#ffffff;stroke-width:0.2857143"
     d="M 8,0 C 3.5681251,0 0,3.568 0,8 0,8.032408 0.003224,8.064032 0.005024,8.0959824 0.1054604,3.7526232 3.6317594,0.2857144 8,0.2857144 c 4.368241,0 7.894539,3.4669088 7.994978,7.810268 C 15.99677,8.0640328 16,8.0324136 16,8 16,3.568 12.431875,0 8,0 Z"
     id="path4"
     inkscape:connector-curvature="0" />
  <path
     style="fill:#ffffff;fill-opacity:1;stroke-width:0.2857143"
     d="M 8,3.1428572 6.7891432,6.4445712 3.4285714,6.6348568 6.0411429,8.8662856 5.1748571,12.285714 8,10.362857 10.825143,12.285714 9.958857,8.8662856 12.571429,6.6348568 9.210857,6.4445712 Z"
     id="path6"
     inkscape:connector-curvature="0" />
  <path
     style="opacity:0.2;stroke-width:0.2857143"
     d="m 0.0139509,8 c 5.93e-5,0.00168 4.96e-4,0.00328 5.56e-4,0.00504 6.38e-5,-0.00168 -5.91e-5,-0.00336 0,-0.00504 z m 5.56e-4,0.00504 C 0.0109346,8.09872 0,8.190836 0,8.2857144 c 0,0.064008 0.00354,0.1272064 0.00502,0.190848 0.00346,-0.061904 0.00712,-0.1237976 0.00949,-0.1858256 -6.03e-5,-0.00168 -5e-4,-0.00328 -5.56e-4,-0.00504 h 5.56e-4 c -5.9e-5,0.00168 6.38e-5,0.00336 0,0.00504 C 0.1679402,12.586066 3.6661629,16 8,16 c 4.335429,0 7.834634,-3.416571 7.985491,-7.7142856 0.0022,0.063504 0.0059,0.1265824 0.0095,0.189732 C 15.996441,8.4121744 16,8.3493512 16,8.2857144 16,8.1892344 15.988846,8.0956344 15.985491,8 15.834634,12.297714 12.335429,15.714286 8,15.714286 c -4.3338371,0 -7.8320598,-3.413934 -7.9854911,-7.7092636 z"
     id="path8"
     inkscape:connector-curvature="0" />
</svg>
