<?xml version="1.0" encoding="UTF-8" standalone="no"?>
<svg
   xmlns:dc="http://purl.org/dc/elements/1.1/"
   xmlns:cc="http://creativecommons.org/ns#"
   xmlns:rdf="http://www.w3.org/1999/02/22-rdf-syntax-ns#"
   xmlns:svg="http://www.w3.org/2000/svg"
   xmlns="http://www.w3.org/2000/svg"
   xmlns:xlink="http://www.w3.org/1999/xlink"
   xmlns:sodipodi="http://sodipodi.sourceforge.net/DTD/sodipodi-0.dtd"
   xmlns:inkscape="http://www.inkscape.org/namespaces/inkscape"
   width="16"
   height="16"
   version="1"
   id="svg16"
   sodipodi:docname="sound-recorder.svg"
   inkscape:version="0.92.3 (2405546, 2018-03-11)">
  <metadata
     id="metadata22">
    <rdf:RDF>
      <cc:Work
         rdf:about="">
        <dc:format>image/svg+xml</dc:format>
        <dc:type
           rdf:resource="http://purl.org/dc/dcmitype/StillImage" />
        <dc:title></dc:title>
      </cc:Work>
    </rdf:RDF>
  </metadata>
  <defs
     id="defs20">
    <linearGradient
       inkscape:collect="always"
       id="linearGradient848">
      <stop
         style="stop-color:#ff0707;stop-opacity:1"
         offset="0"
         id="stop844" />
      <stop
         style="stop-color:#ff188a;stop-opacity:1"
         offset="1"
         id="stop846" />
    </linearGradient>
    <linearGradient
       inkscape:collect="always"
       xlink:href="#linearGradient848"
       id="linearGradient850"
       x1="-24.745762"
       y1="33.898304"
       x2="115.79393"
       y2="31.306753"
       gradientUnits="userSpaceOnUse"
       gradientTransform="matrix(0.28571401,0,0,0.28571401,-1.1428634,-1.1428486)" />
  </defs>
  <sodipodi:namedview
     pagecolor="#ffffff"
     bordercolor="#666666"
     borderopacity="1"
     objecttolerance="10"
     gridtolerance="10"
     guidetolerance="10"
     inkscape:pageopacity="0"
     inkscape:pageshadow="2"
     inkscape:window-width="1366"
     inkscape:window-height="704"
     id="namedview18"
     showgrid="false"
     inkscape:zoom="5.2149125"
     inkscape:cx="31.058748"
     inkscape:cy="34.475301"
     inkscape:window-x="0"
     inkscape:window-y="30"
     inkscape:window-maximized="1"
     inkscape:current-layer="svg16" />
  <rect
     style="fill:url(#linearGradient850);fill-opacity:1;stroke-width:0.28571403"
     width="15.999984"
     height="15.999984"
     x="-7.2696503e-06"
     y="7.1239288e-06"
     rx="7.9999919"
     ry="7.9999919"
     id="rect4" />
  <g
     style="opacity:0.2;enable-background:new"
     transform="matrix(0.57142212,0,0,0.57142212,-193.71225,240.85459)"
     id="g8">
    <path
       d="m 353,-415 c -1.6621,0 -3,1.3379 -3,3 v 5 c 0,1.6621 1.3379,3 3,3 1.6621,0 3,-1.3379 3,-3 v -5 c 0,-1.6621 -1.3379,-3 -3,-3 z m -6,7 v 0.99999 c 0,2.9695 2.1624,5.4322 5,5.9062 v 2.0938 h 2 v -2.0938 c 2.8376,-0.47409 5,-2.9368 5,-5.9062 V -408 h -2 v 0.99999 c 0,2.2334 -1.7666,4 -4,4 -2.2334,0 -4,-1.7666 -4,-4 v -1 z"
       id="path6"
       inkscape:connector-curvature="0" />
  </g>
  <g
     style="fill:#ffffff;enable-background:new"
     transform="matrix(0.62500039,0,0,0.62500039,-212.62514,262.37516)"
     id="g12">
    <path
       d="m 353,-415 c -1.6621,0 -3,1.3379 -3,3 v 5 c 0,1.6621 1.3379,3 3,3 1.6621,0 3,-1.3379 3,-3 v -5 c 0,-1.6621 -1.3379,-3 -3,-3 z m -6,7 v 0.99999 c 0,2.9695 2.1624,5.4322 5,5.9062 v 2.0938 h 2 v -2.0938 c 2.8376,-0.47409 5,-2.9368 5,-5.9062 V -408 h -2 v 0.99999 c 0,2.2334 -1.7666,4 -4,4 -2.2334,0 -4,-1.7666 -4,-4 V -408 Z"
       id="path10"
       inkscape:connector-curvature="0" />
  </g>
  <path
     style="opacity:0.4;fill:#ffffff;stroke-width:0.28571403"
     d="M 7.9999848,7.12e-6 C 3.5680356,7.12e-6 -7.325e-6,3.5680504 -7.325e-6,8.0000007 c 0,0.031272 0.002769995,0.061792 0.004459995,0.092634 C 0.10662377,3.7508874 3.6327864,0.28572166 7.99998,0.28572166 c 4.367194,0 7.893357,3.46516574 7.995528,7.80691304 0.0017,-0.03084 0.0045,-0.06136 0.0045,-0.092634 C 15.999993,3.5680504 12.43195,7.12e-6 8.0000008,7.12e-6 Z"
     id="path14"
     inkscape:connector-curvature="0" />
  <path
     inkscape:connector-curvature="0"
     style="opacity:0.4;fill:#000000;fill-opacity:1;stroke-width:0.28571403"
     d="m 7.999984,15.999993 c -4.431949,0 -7.999992025,-3.568042 -7.999992025,-7.9999923 0,-0.031272 0.002769995,-0.061792 0.004459995,-0.092634 0.1021711,4.3417463 3.62833393,7.8069123 7.99552723,7.8069123 4.3671948,0 7.8933568,-3.465166 7.9955288,-7.8069123 0.0017,0.03084 0.0045,0.06136 0.0045,0.092634 -1.5e-5,4.4319503 -3.568058,7.9999923 -8.0000072,7.9999923 z"
     id="path14-3" />
  <ellipse
     style="opacity:0.4;fill:none;fill-opacity:1;stroke:#ffffff;stroke-width:0.33225167;stroke-miterlimit:4;stroke-dasharray:none;stroke-opacity:1"
     id="path852"
     cx="7.9999857"
     cy="8.000001"
     rx="6.9767256"
     ry="6.9767232" />
  <ellipse
     style="opacity:0.4;fill:none;fill-opacity:1;stroke:#ffffff;stroke-width:0.21264108;stroke-miterlimit:4;stroke-dasharray:none;stroke-opacity:1"
     id="path852-6"
     cx="7.9999857"
     cy="8.000001"
     rx="4.4651041"
     ry="4.4651031" />
  <circle
     style="opacity:0.4;fill:none;fill-opacity:1;stroke:#ffffff;stroke-width:0.23922117;stroke-miterlimit:4;stroke-dasharray:none;stroke-opacity:1"
     id="path852-6-7"
     cx="7.9999857"
     cy="8.000001"
     r="5.023241" />
  <circle
     style="opacity:0.4;fill:none;fill-opacity:1;stroke:#ffffff;stroke-width:0.27909136;stroke-miterlimit:4;stroke-dasharray:none;stroke-opacity:1"
     id="path852-6-7-5"
     cx="7.9999857"
     cy="8.000001"
     r="5.8604479" />
  <ellipse
     style="opacity:0.4;fill:none;fill-opacity:1;stroke:#ffffff;stroke-width:0.18606092;stroke-miterlimit:4;stroke-dasharray:none;stroke-opacity:1"
     id="path852-6-7-3"
     cx="7.9999857"
     cy="8.000001"
     rx="3.906966"
     ry="3.9069653" />
  <circle
     style="opacity:0.4;fill:none;fill-opacity:1;stroke:#ffffff;stroke-width:0.15948078;stroke-miterlimit:4;stroke-dasharray:none;stroke-opacity:1"
     id="path852-6-7-3-6"
     cx="7.9999857"
     cy="8.000001"
     r="3.3488278" />
</svg>
