<?xml version="1.0" encoding="UTF-8" standalone="no"?>
<svg
   xmlns:dc="http://purl.org/dc/elements/1.1/"
   xmlns:cc="http://creativecommons.org/ns#"
   xmlns:rdf="http://www.w3.org/1999/02/22-rdf-syntax-ns#"
   xmlns:svg="http://www.w3.org/2000/svg"
   xmlns="http://www.w3.org/2000/svg"
   xmlns:xlink="http://www.w3.org/1999/xlink"
   xmlns:sodipodi="http://sodipodi.sourceforge.net/DTD/sodipodi-0.dtd"
   xmlns:inkscape="http://www.inkscape.org/namespaces/inkscape"
   width="16"
   height="16"
   version="1.1"
   viewBox="0 0 12 12"
   id="svg44"
   sodipodi:docname="spotify-client.svg"
   inkscape:version="0.92.3 (2405546, 2018-03-11)">
  <metadata
     id="metadata48">
    <rdf:RDF>
      <cc:Work
         rdf:about="">
        <dc:format>image/svg+xml</dc:format>
        <dc:type
           rdf:resource="http://purl.org/dc/dcmitype/StillImage" />
        <dc:title></dc:title>
      </cc:Work>
    </rdf:RDF>
  </metadata>
  <sodipodi:namedview
     pagecolor="#ffffff"
     bordercolor="#666666"
     borderopacity="1"
     objecttolerance="10"
     gridtolerance="10"
     guidetolerance="10"
     inkscape:pageopacity="0"
     inkscape:pageshadow="2"
     inkscape:window-width="1366"
     inkscape:window-height="704"
     id="namedview46"
     showgrid="false"
     inkscape:zoom="10.429825"
     inkscape:cx="12.697249"
     inkscape:cy="19.659183"
     inkscape:window-x="0"
     inkscape:window-y="30"
     inkscape:window-maximized="1"
     inkscape:current-layer="svg44" />
  <defs
     id="defs30">
    <linearGradient
       id="linearGradient1530"
       inkscape:collect="always">
      <stop
         id="stop1526"
         offset="0"
         style="stop-color:#000000;stop-opacity:1" />
      <stop
         id="stop1528"
         offset="1"
         style="stop-color:#000000;stop-opacity:0" />
    </linearGradient>
    <linearGradient
       inkscape:collect="always"
       id="linearGradient1498">
      <stop
         style="stop-color:#ffffff;stop-opacity:1;"
         offset="0"
         id="stop1494" />
      <stop
         style="stop-color:#ffffff;stop-opacity:0;"
         offset="1"
         id="stop1496" />
    </linearGradient>
    <clipPath
       id="f">
      <path
         d="m 111,119 h 177 v 23 H 111 Z"
         id="path2"
         inkscape:connector-curvature="0" />
    </clipPath>
    <clipPath
       id="d">
      <path
         d="m 177,130 h 45 v 89 h -45 z"
         id="path5"
         inkscape:connector-curvature="0" />
    </clipPath>
    <clipPath
       id="b">
      <path
         d="m 111,207 h 177 v 89 H 111 Z"
         id="path8"
         inkscape:connector-curvature="0" />
    </clipPath>
    <clipPath
       id="h">
      <rect
         width="384"
         height="384"
         id="rect11"
         x="0"
         y="0" />
    </clipPath>
    <g
       clip-path="url(#h)"
       id="g14" />
    <clipPath
       id="e">
      <path
         d="m 111,119 h 177 v 23 H 111 Z"
         id="path16"
         inkscape:connector-curvature="0" />
    </clipPath>
    <clipPath
       id="c">
      <path
         d="m 177,130 h 45 v 89 h -45 z"
         id="path19"
         inkscape:connector-curvature="0" />
    </clipPath>
    <clipPath
       id="a">
      <path
         d="m 111,207 h 177 v 89 H 111 Z"
         id="path22"
         inkscape:connector-curvature="0" />
    </clipPath>
    <clipPath
       id="g">
      <rect
         width="384"
         height="384"
         id="rect25"
         x="0"
         y="0" />
    </clipPath>
    <g
       clip-path="url(#g)"
       id="g28" />
    <linearGradient
       inkscape:collect="always"
       xlink:href="#linearGradient1498"
       id="linearGradient1500"
       x1="192.80475"
       y1="25.220339"
       x2="184.6868"
       y2="115.52542"
       gradientUnits="userSpaceOnUse"
       gradientTransform="matrix(0.03404255,0,0,0.03404255,-0.53617,-0.5361704)" />
    <linearGradient
       gradientTransform="matrix(0.03404255,0,0,0.03404255,-0.53617,-12.53617)"
       inkscape:collect="always"
       xlink:href="#linearGradient1530"
       id="linearGradient1500-9"
       x1="192.80475"
       y1="25.220339"
       x2="184.6868"
       y2="115.52542"
       gradientUnits="userSpaceOnUse" />
  </defs>
  <circle
     style="opacity:1;fill:#1b1b1b;fill-opacity:1;fill-rule:evenodd;stroke:none;stroke-width:0.28792831;stroke-linejoin:round;stroke-miterlimit:4;stroke-dasharray:none;stroke-opacity:1;paint-order:normal"
     id="path1481"
     cx="6.000001"
     cy="6"
     r="4.8510637" />
  <path
     inkscape:connector-curvature="0"
     style="fill:#1ed760;stroke-width:0.07164821"
     d="M 5.999964,0 C 2.6863457,0 0,2.686338 0,6.0000354 0,9.3138768 2.6863457,12 5.999964,12 9.313941,12 12,9.3138768 12,6.0000354 12,2.6865531 9.313941,2.8672e-4 5.9998926,2.8672e-4 Z M 8.7515088,8.6537736 C 8.6440376,8.8300304 8.4133336,8.8859168 8.2370808,8.7777264 6.8283504,7.9172216 5.0549354,7.722336 2.9664156,8.1995184 2.765158,8.2453744 2.5645451,8.1192712 2.5186909,7.9179376 2.4726221,7.716604 2.5982197,7.5159872 2.7999786,7.4701312 c 2.28555,-0.5223928 4.2460366,-0.297344 5.8275806,0.6692024 0.176252,0.1081896 0.2321376,0.3381832 0.1239496,0.51444 z M 9.485894,7.0198168 C 9.350481,7.2401376 9.0624584,7.3096368 8.8425008,7.1742208 7.2297192,6.1826697 4.7712834,5.8955714 2.8636728,6.4746394 2.6162746,6.5493691 2.3549769,6.40994 2.2798903,6.1629657 2.2053771,5.9155617 2.3448746,5.6547589 2.5918429,5.5795274 4.7708537,4.9183497 7.4797688,5.2386206 9.331853,6.3767663 9.55181,6.5121834 9.621308,6.8002128 9.485894,7.0198888 Z M 9.548944,5.3185817 C 7.6151816,4.1699752 4.4247257,4.0643644 2.5784449,4.624732 2.281968,4.7146516 1.9684394,4.5472796 1.8785934,4.2507956 1.7887477,3.9541684 1.9559726,3.6408472 2.2526643,3.5507124 4.3720646,2.9073036 7.8953232,3.0316152 10.121693,4.3533256 10.388938,4.511598 10.476347,4.8560152 10.318006,5.1223343 10.160382,5.3890126 9.815042,5.4769257 9.54923,5.3185817 Z"
     id="path913" />
  <circle
     style="opacity:0.4;fill:none;fill-opacity:1;fill-rule:evenodd;stroke:url(#linearGradient1500);stroke-width:0.25531915;stroke-linejoin:round;stroke-miterlimit:4;stroke-dasharray:none;stroke-opacity:1;paint-order:normal"
     id="path1492"
     cx="6.000001"
     cy="6"
     r="5.8548975" />
  <circle
     style="opacity:0.4;fill:none;fill-opacity:1;fill-rule:evenodd;stroke:url(#linearGradient1500-9);stroke-width:0.25531915;stroke-linejoin:round;stroke-miterlimit:4;stroke-dasharray:none;stroke-opacity:1;paint-order:normal"
     id="path1492-8"
     cx="6.000001"
     cy="-6"
     r="5.8548975"
     transform="scale(1,-1)" />
</svg>
