<?xml version="1.0" encoding="UTF-8" standalone="no"?>
<svg
   xmlns:dc="http://purl.org/dc/elements/1.1/"
   xmlns:cc="http://creativecommons.org/ns#"
   xmlns:rdf="http://www.w3.org/1999/02/22-rdf-syntax-ns#"
   xmlns:svg="http://www.w3.org/2000/svg"
   xmlns="http://www.w3.org/2000/svg"
   xmlns:xlink="http://www.w3.org/1999/xlink"
   xmlns:sodipodi="http://sodipodi.sourceforge.net/DTD/sodipodi-0.dtd"
   xmlns:inkscape="http://www.inkscape.org/namespaces/inkscape"
   width="16"
   height="16"
   version="1.1"
   viewBox="0 0 12 12"
   id="svg26"
   sodipodi:docname="steam.svg"
   inkscape:version="0.92.3 (2405546, 2018-03-11)">
  <metadata
     id="metadata30">
    <rdf:RDF>
      <cc:Work
         rdf:about="">
        <dc:format>image/svg+xml</dc:format>
        <dc:type
           rdf:resource="http://purl.org/dc/dcmitype/StillImage" />
        <dc:title></dc:title>
      </cc:Work>
    </rdf:RDF>
  </metadata>
  <sodipodi:namedview
     pagecolor="#ffffff"
     bordercolor="#666666"
     borderopacity="1"
     objecttolerance="10"
     gridtolerance="10"
     guidetolerance="10"
     inkscape:pageopacity="0"
     inkscape:pageshadow="2"
     inkscape:window-width="1366"
     inkscape:window-height="704"
     id="namedview28"
     showgrid="false"
     inkscape:zoom="0.921875"
     inkscape:cx="-20.988347"
     inkscape:cy="224.60303"
     inkscape:window-x="0"
     inkscape:window-y="30"
     inkscape:window-maximized="1"
     inkscape:current-layer="svg26" />
  <defs
     id="defs10">
    <linearGradient
       inkscape:collect="always"
       id="linearGradient912">
      <stop
         style="stop-color:#ffffff;stop-opacity:1"
         offset="0"
         id="stop908" />
      <stop
         style="stop-color:#ffffff;stop-opacity:0"
         offset="1"
         id="stop910" />
    </linearGradient>
    <linearGradient
       inkscape:collect="always"
       id="linearGradient880">
      <stop
         style="stop-color:#000000;stop-opacity:1;"
         offset="0"
         id="stop876" />
      <stop
         style="stop-color:#000000;stop-opacity:0;"
         offset="1"
         id="stop878" />
    </linearGradient>
    <clipPath
       id="clipPath4">
      <rect
         width="384"
         height="384"
         id="rect2"
         x="0"
         y="0" />
    </clipPath>
    <clipPath
       id="clipPath8">
      <rect
         width="384"
         height="384"
         id="rect6"
         x="0"
         y="0" />
    </clipPath>
    <linearGradient
       gradientUnits="userSpaceOnUse"
       y1="2.1683273"
       gradientTransform="matrix(0.02551822,0,0,0.02554562,-0.53617013,-0.5361697)"
       id="a"
       x2="231.73351"
       x1="257.78137"
       y2="499.57922">
      <stop
         stop-color="#111D2E"
         offset="0"
         id="stop905" />
      <stop
         stop-color="#051839"
         offset=".21248"
         id="stop907" />
      <stop
         stop-color="#0A1B48"
         offset=".40695"
         id="stop909" />
      <stop
         stop-color="#132E62"
         offset=".58110"
         id="stop911" />
      <stop
         stop-color="#144B7E"
         offset=".73760"
         id="stop913" />
      <stop
         stop-color="#136497"
         offset=".87279"
         id="stop915" />
      <stop
         stop-color="#1387B8"
         offset="1"
         id="stop917" />
    </linearGradient>
    <linearGradient
       gradientUnits="userSpaceOnUse"
       y1="2.1683273"
       gradientTransform="matrix(0.74959755,0,0,0.75040267,-5.9322034e-6,4.2372881e-7)"
       id="a-3"
       x2="231.73351"
       x1="257.78137"
       y2="499.57922">
      <stop
         stop-color="#111D2E"
         offset="0"
         id="stop905-6" />
      <stop
         stop-color="#051839"
         offset=".21248"
         id="stop907-7" />
      <stop
         stop-color="#0A1B48"
         offset=".40695"
         id="stop909-5" />
      <stop
         stop-color="#132E62"
         offset=".58110"
         id="stop911-3" />
      <stop
         stop-color="#144B7E"
         offset=".73760"
         id="stop913-5" />
      <stop
         stop-color="#136497"
         offset=".87279"
         id="stop915-6" />
      <stop
         stop-color="#1387B8"
         offset="1"
         id="stop917-2" />
    </linearGradient>
    <linearGradient
       gradientUnits="userSpaceOnUse"
       y1="2.1683273"
       gradientTransform="matrix(0.74959755,0,0,0.75040267,-159.53373,196.88136)"
       id="a-4"
       x2="231.73351"
       x1="257.78137"
       y2="499.57922">
      <stop
         stop-color="#111D2E"
         offset="0"
         id="stop905-0" />
      <stop
         stop-color="#051839"
         offset=".21248"
         id="stop907-5" />
      <stop
         stop-color="#0A1B48"
         offset=".40695"
         id="stop909-7" />
      <stop
         stop-color="#132E62"
         offset=".58110"
         id="stop911-7" />
      <stop
         stop-color="#144B7E"
         offset=".73760"
         id="stop913-3" />
      <stop
         stop-color="#136497"
         offset=".87279"
         id="stop915-2" />
      <stop
         stop-color="#1387B8"
         offset="1"
         id="stop917-8" />
    </linearGradient>
    <linearGradient
       inkscape:collect="always"
       xlink:href="#linearGradient880"
       id="linearGradient882"
       x1="196.49483"
       y1="361.49728"
       x2="194.98299"
       y2="280.07211"
       gradientUnits="userSpaceOnUse"
       gradientTransform="matrix(0.03333333,0,0,0.03333333,-0.4000001,-0.3999996)" />
    <linearGradient
       inkscape:collect="always"
       xlink:href="#linearGradient912"
       id="linearGradient914"
       x1="190.70628"
       y1="25.220339"
       x2="196.54797"
       y2="151.32204"
       gradientUnits="userSpaceOnUse"
       gradientTransform="matrix(0.03404255,0,0,0.03404255,-0.53617013,-0.5361697)" />
  </defs>
  <path
     inkscape:connector-curvature="0"
     style="fill:url(#a);stroke-width:0.02553191"
     d="M 0.2443047,7.7258368 C 0.9860517,10.198455 3.2805527,12 5.9961492,12 9.311925,12 12,9.313648 12,6 12,2.6863004 9.311925,0 5.9961492,0 2.8143143,0 0.2108074,2.4735965 0.0051819,5.6013728 c 0.3885292,0.6520176 0.5401406,1.05528 0.2391803,2.124464 z"
     id="path922" />
  <path
     inkscape:connector-curvature="0"
     style="fill:#ffffff;stroke-width:0.02553191"
     d="m 5.6868817,4.4972704 c 0,0.010096 0,0.020192 5.6e-4,0.029664 L 4.2182811,6.6597408 c -0.2379896,-0.010816 -0.476804,0.030896 -0.7032496,0.1241208 -0.099824,0.040688 -0.19336,0.090643 -0.2811248,0.1483256 l -3.226068,-1.327208 c 2.58e-5,0 -0.074649,1.227296 0.2364438,2.1419736 l 2.2806386,0.9404296 c 0.1145112,0.511416 0.4655692,0.96 0.9834976,1.1757944 0.8473927,0.3538182 1.8244492,-0.04944 2.176951,-0.8966536 0.091732,-0.2214584 0.1345062,-0.4537336 0.1283217,-0.6854928 l 2.1021198,-1.501288 c 0.017008,5.6e-4 0.034528,0.00104 0.051536,0.00104 1.2579748,0 2.2804318,-1.0248928 2.2804318,-2.2835024 0,-1.2587127 -1.022457,-2.2826783 -2.2804318,-2.2826783 -1.2574581,0 -2.2804313,1.0239656 -2.2804313,2.2826783 z M 5.3343806,8.8192272 C 5.0615526,9.47382 4.3088297,9.7843776 3.6545395,9.5119312 3.3526975,9.3862664 3.1248087,9.1560512 2.9933423,8.8815448 l 0.7423648,0.307468 C 4.2182308,9.3898712 4.7718223,9.1611968 4.9723966,8.6791416 5.1735908,8.1965664 4.945339,7.6424032 4.4630743,7.4415448 L 3.6956639,7.1237768 C 3.9917855,7.0115024 4.3284125,7.0073824 4.6429319,7.1382008 4.9600286,7.2700456 5.2060583,7.5182864 5.3364423,7.83554 5.4668263,8.1527936 5.4663108,8.503008 5.3343863,8.8192312 M 7.9673192,6.018544 c -0.837448,0 -1.5192575,-0.6824032 -1.5192575,-1.5212696 0,-0.838198 0.6818095,-1.5208072 1.5192575,-1.5208072 0.8379618,0 1.5197728,0.6826092 1.5197728,1.5208072 0,0.8388664 -0.681811,1.5212696 -1.5197728,1.5212696 M 6.8289008,4.494956 c 0,-0.6310564 0.511228,-1.1428844 1.140988,-1.1428844 0.6302762,0 1.1415052,0.511828 1.1415052,1.1428844 0,0.6311072 -0.511229,1.142472 -1.1415052,1.142472 -0.62976,0 -1.140988,-0.5113648 -1.140988,-1.142472 z"
     id="path924" />
  <path
     inkscape:connector-curvature="0"
     style="fill:none;stroke:url(#linearGradient882);stroke-width:0.25;stroke-miterlimit:4;stroke-dasharray:none;stroke-opacity:1"
     d="m 0.3628187,7.6898816 c 0.7262938,2.4211054 2.9729932,4.1851174 5.6320145,4.1851174 3.2466958,0 5.8787698,-2.6303854 5.8787698,-5.874999 0,-3.2446641 -2.632074,-5.875 -5.8787698,-5.875 -3.1155469,0 -5.6648141,2.4220632 -5.8661558,5.4846776 0.3804351,0.6384344 0.5288877,1.0332944 0.2341973,2.080204 z"
     id="path922-9" />
  <path
     inkscape:connector-curvature="0"
     style="opacity:0.4;fill:none;stroke:url(#linearGradient914);stroke-width:0.24999997;stroke-miterlimit:4;stroke-dasharray:none;stroke-opacity:1"
     d="m 0.3628187,7.6898816 c 0.7262938,2.4211054 2.9729928,4.1851174 5.6320145,4.1851174 3.2466958,0 5.8787698,-2.6303854 5.8787698,-5.874999 0,-3.2446639 -2.632074,-5.875 -5.8787698,-5.875 -3.1155469,0 -5.6648138,2.4220639 -5.8661555,5.4846776 0.3804348,0.6384344 0.5288877,1.0332944 0.234197,2.080204 z"
     id="path922-9-7" />
</svg>
