<?xml version="1.0" encoding="UTF-8" standalone="no"?>
<svg
   xmlns:dc="http://purl.org/dc/elements/1.1/"
   xmlns:cc="http://creativecommons.org/ns#"
   xmlns:rdf="http://www.w3.org/1999/02/22-rdf-syntax-ns#"
   xmlns:svg="http://www.w3.org/2000/svg"
   xmlns="http://www.w3.org/2000/svg"
   xmlns:xlink="http://www.w3.org/1999/xlink"
   xmlns:sodipodi="http://sodipodi.sourceforge.net/DTD/sodipodi-0.dtd"
   xmlns:inkscape="http://www.inkscape.org/namespaces/inkscape"
   width="16"
   height="16"
   version="1"
   id="svg20"
   sodipodi:docname="preferences-system-users.svg"
   inkscape:version="0.92.3 (2405546, 2018-03-11)">
  <metadata
     id="metadata26">
    <rdf:RDF>
      <cc:Work
         rdf:about="">
        <dc:format>image/svg+xml</dc:format>
        <dc:type
           rdf:resource="http://purl.org/dc/dcmitype/StillImage" />
        <dc:title></dc:title>
      </cc:Work>
    </rdf:RDF>
  </metadata>
  <defs
     id="defs24">
    <linearGradient
       inkscape:collect="always"
       id="linearGradient852">
      <stop
         style="stop-color:#f88800;stop-opacity:1"
         offset="0"
         id="stop848" />
      <stop
         style="stop-color:#ff3e0e;stop-opacity:1"
         offset="1"
         id="stop850" />
    </linearGradient>
    <linearGradient
       inkscape:collect="always"
       xlink:href="#linearGradient852"
       id="linearGradient854"
       x1="3.7288136"
       y1="64.81356"
       x2="64.067795"
       y2="2.1694915"
       gradientUnits="userSpaceOnUse"
       gradientTransform="matrix(0.28571428,0,0,0.28571428,-1.1428571,-1.1428571)" />
  </defs>
  <sodipodi:namedview
     pagecolor="#ffffff"
     bordercolor="#666666"
     borderopacity="1"
     objecttolerance="10"
     gridtolerance="10"
     guidetolerance="10"
     inkscape:pageopacity="0"
     inkscape:pageshadow="2"
     inkscape:window-width="1366"
     inkscape:window-height="704"
     id="namedview22"
     showgrid="false"
     inkscape:zoom="14.75"
     inkscape:cx="6.757952"
     inkscape:cy="5.9466944"
     inkscape:window-x="0"
     inkscape:window-y="30"
     inkscape:window-maximized="1"
     inkscape:current-layer="svg20" />
  <circle
     style="fill:url(#linearGradient854);fill-opacity:1;stroke-width:0.2857143"
     cx="8"
     cy="8"
     r="8"
     id="circle4" />
  <g
     style="opacity:0.2"
     transform="matrix(0.28571429,0,0,0.28571429,-1.1428571,-0.8571428)"
     id="g10">
    <path
       d="m 32,14 c -3.8668,0 -7,3.1346 -7,7 0,3.8654 3.1332,7 7,7 3.8668,0 7,-3.1346 7,-7 0,-3.8654 -3.1332,-7 -7,-7 z"
       id="path6"
       inkscape:connector-curvature="0" />
    <path
       d="m 32,33.000002 c -13.9986,0.0084 -14,8.861538 -14,8.861538 v 3.6 c 0,0 2.584598,5.53846 14,5.53846 11.415402,0 14,-5.53846 14,-5.53846 v -3.6 c 0,0 0,-8.867076 -13.9972,-8.861538 z"
       id="path8"
       inkscape:connector-curvature="0" />
  </g>
  <g
     id="g16"
     transform="matrix(0.28571429,0,0,0.28571429,-1.1428571,-1.1428571)">
    <path
       style="fill:#ffffff"
       d="m 32,14 c -3.8668,0 -7,3.1346 -7,7 0,3.8654 3.1332,7 7,7 3.8668,0 7,-3.1346 7,-7 0,-3.8654 -3.1332,-7 -7,-7 z"
       id="path12"
       inkscape:connector-curvature="0" />
    <path
       style="fill:#ffffff"
       d="m 32,33.000002 c -13.9986,0.0084 -14,8.861538 -14,8.861538 v 3.6 c 0,0 2.584598,5.53846 14,5.53846 11.415402,0 14,-5.53846 14,-5.53846 v -3.6 c 0,0 0,-8.867076 -13.9972,-8.861538 z"
       id="path14"
       inkscape:connector-curvature="0" />
  </g>
  <path
     style="opacity:0.4;fill:#ffffff;stroke-width:0.2857143"
     d="M 8,0 A 8,8 0 0 0 0,8 8,8 0 0 0 0.0050223,8.1406248 8,8 0 0 1 8,0.2857144 8,8 0 0 1 15.992746,8.1406248 8,8 0 0 0 16,8 8,8 0 0 0 8,0 Z"
     id="path18"
     inkscape:connector-curvature="0" />
  <path
     inkscape:connector-curvature="0"
     style="opacity:0.4;fill:#000000;fill-opacity:1;stroke-width:0.2857143"
     d="M 8,16 A 8,8 0 0 1 0,8 8,8 0 0 1 0.0050223,7.8593752 8,8 0 0 0 8,15.714286 8,8 0 0 0 15.992746,7.8593752 8,8 0 0 1 16,8 8,8 0 0 1 8,16 Z"
     id="path18-3" />
</svg>
