<?xml version="1.0" encoding="UTF-8" standalone="no"?>
<svg
   xmlns:dc="http://purl.org/dc/elements/1.1/"
   xmlns:cc="http://creativecommons.org/ns#"
   xmlns:rdf="http://www.w3.org/1999/02/22-rdf-syntax-ns#"
   xmlns:svg="http://www.w3.org/2000/svg"
   xmlns="http://www.w3.org/2000/svg"
   xmlns:xlink="http://www.w3.org/1999/xlink"
   xmlns:sodipodi="http://sodipodi.sourceforge.net/DTD/sodipodi-0.dtd"
   xmlns:inkscape="http://www.inkscape.org/namespaces/inkscape"
   width="16"
   height="16"
   version="1"
   id="svg24"
   sodipodi:docname="twitter.svg"
   inkscape:version="0.92.4 5da689c313, 2019-01-14">
  <metadata
     id="metadata30">
    <rdf:RDF>
      <cc:Work
         rdf:about="">
        <dc:format>image/svg+xml</dc:format>
        <dc:type
           rdf:resource="http://purl.org/dc/dcmitype/StillImage" />
        <dc:title></dc:title>
      </cc:Work>
    </rdf:RDF>
  </metadata>
  <defs
     id="defs28">
    <linearGradient
       inkscape:collect="always"
       id="linearGradient888">
      <stop
         style="stop-color:#ffffff;stop-opacity:1"
         offset="0"
         id="stop884" />
      <stop
         style="stop-color:#ffffff;stop-opacity:0"
         offset="1"
         id="stop886" />
    </linearGradient>
    <linearGradient
       inkscape:collect="always"
       id="linearGradient845">
      <stop
         style="stop-color:#0079f1;stop-opacity:1"
         offset="0"
         id="stop841" />
      <stop
         style="stop-color:#00c3f1;stop-opacity:1"
         offset="1"
         id="stop843" />
    </linearGradient>
    <linearGradient
       inkscape:collect="always"
       xlink:href="#linearGradient845"
       id="linearGradient847"
       x1="4"
       y1="51.019531"
       x2="52.337891"
       y2="14.927734"
       gradientUnits="userSpaceOnUse"
       gradientTransform="matrix(0.2856986,0,0,0.28934606,-1.1418942,-1.2590779)" />
    <linearGradient
       inkscape:collect="always"
       xlink:href="#linearGradient888"
       id="linearGradient890"
       x1="56.021866"
       y1="9.7434835"
       x2="60.00246"
       y2="16.336468"
       gradientUnits="userSpaceOnUse"
       gradientTransform="matrix(0.27633334,0,0,0.28322568,-4.8401657,-1.2737867)" />
  </defs>
  <sodipodi:namedview
     pagecolor="#ffffff"
     bordercolor="#666666"
     borderopacity="1"
     objecttolerance="10"
     gridtolerance="10"
     guidetolerance="10"
     inkscape:pageopacity="0"
     inkscape:pageshadow="2"
     inkscape:window-width="1366"
     inkscape:window-height="691"
     id="namedview26"
     showgrid="false"
     inkscape:zoom="10.143429"
     inkscape:cx="8.4089864"
     inkscape:cy="22.731071"
     inkscape:window-x="0"
     inkscape:window-y="0"
     inkscape:window-maximized="1"
     inkscape:current-layer="svg24" />
  <path
     style="opacity:1;fill:url(#linearGradient847);fill-opacity:1;stroke-width:0.28751653"
     d="m 10.857447,1.3450367 c -1.8934432,0 -3.428383,1.5545356 -3.428383,3.4721533 0,0.4047035 -0.011856,0.7882646 -0.03404,1.1556885 -0.00248,-5.48e-5 -0.0048,-5.6e-4 -0.00728,-5.6e-4 C 3.7995915,5.9723208 2.046421,4.3523928 0.44170102,2.5024279 0.15842222,2.980632 8.7691864e-4,3.8592736 8.7701864e-4,4.4526883 8.7701864e-4,5.5760688 1.2064252,6.5259702 2.08949,7.1065342 1.5500301,7.0897182 0.45628522,6.8443618 0.01259512,6.6018743 c -3.828e-4,0.013496 -5.56e-4,0.027032 -5.56e-4,0.040688 -9e-7,1.5687614 2.07726268,3.5340287 3.25037898,3.9615557 -1.1731163,0 -2.26800668,-0.533483 -2.69014278,-0.533483 0.3914198,1.202174 2.18047368,2.116173 3.58853098,2.252039 -0.9888931,0.672614 -2.1444574,1.226895 -3.38206918,1.226895 -0.2633541,0 -0.522608,-0.01634 -0.77785910136,-0.04634 C 1.4448392,14.424966 3.1601135,14.654963 5.0028353,14.654963 c 5.7957307,0 9.0540437,-4.7052217 9.2706967,-8.8940013 C 14.896456,5.2998908 15.57607,4.573096 16,3.9491588 15.899486,3.9930278 15.790778,4.0366038 15.683612,4.0802682 15.797177,3.9380222 15.907548,3.7958828 16,3.659812 c -0.437373,0.1909001 -0.946771,0.3890968 -1.451348,0.5103136 0.43469,-0.3865112 0.778375,-0.88626 0.956979,-1.435993 -0.04901,0.028598 -0.100743,0.054692 -0.151777,0.081379 C 15.411694,2.6945743 15.464399,2.5716855 15.505631,2.444777 15.010029,2.7339986 14.405939,2.9206027 13.810969,3.0602026 13.215045,2.0349667 12.117114,1.3450374 10.857447,1.3450367 Z"
     id="path4"
     inkscape:connector-curvature="0" />
  <path
     inkscape:connector-curvature="0"
     style="opacity:0.4;fill:none;fill-opacity:1;stroke:url(#linearGradient890);stroke-width:0.27975827;stroke-opacity:1"
     d="m 10.640543,1.4858183 c -1.8313752,0 -3.316,1.5216531 -3.316,3.3987078 0,0.3961429 -0.011472,0.771592 -0.03292,1.1312434 -0.00232,-5.26e-5 -0.00464,-5.6e-4 -0.00704,-5.6e-4 -3.4705117,1.7e-6 -5.1662128,-1.5856607 -6.71832988,-3.3964944 -0.2739928,0.4680897 -0.4263738,1.3281455 -0.4263738,1.9090073 0,1.0996185 1.16602998,2.029427 2.02014808,2.5977102 C 1.6382511,7.1089686 0.58035912,6.8688059 0.15121342,6.6314471 c -3.6e-4,0.013216 -5.52e-4,0.026456 -5.52e-4,0.039832 -8e-7,1.5355774 2.00916938,3.4592749 3.14383078,3.8777579 -1.1346614,0 -2.1936611,-0.522198 -2.60195938,-0.522198 0.37858918,1.176746 2.10899778,2.071411 3.47089838,2.204403 -0.9564772,0.658386 -2.0741619,1.200944 -3.27120428,1.200944 -0.2547214,0 -0.505477,-0.01599 -0.7523607,-0.04536 1.39662778,0.90224 3.05567518,1.127371 4.83799178,1.127371 5.605745,0 8.757251,-4.6056941 8.966803,-8.7058697 0.602504,-0.4513184 1.259839,-1.16274 1.669873,-1.7734804 -0.09722,0.042942 -0.202364,0.085596 -0.306018,0.1283372 0.109843,-0.1392375 0.216596,-0.2783693 0.306018,-0.4115623 -0.423059,0.1868601 -0.915759,0.3808647 -1.403795,0.4995168 0.42044,-0.3783348 0.752859,-0.8675134 0.925609,-1.4056177 -0.0474,0.02799 -0.09744,0.053535 -0.146802,0.079658 0.05594,-0.1183702 0.106921,-0.2386587 0.146802,-0.3628829 C 14.656992,2.8453928 14.072705,3.0280499 13.497238,3.164696 12.920862,2.1611449 11.858921,1.4858096 10.640546,1.4858096 Z"
     id="path4-5" />
</svg>
