<?xml version="1.0" encoding="UTF-8" standalone="no"?>
<svg
   xmlns:dc="http://purl.org/dc/elements/1.1/"
   xmlns:cc="http://creativecommons.org/ns#"
   xmlns:rdf="http://www.w3.org/1999/02/22-rdf-syntax-ns#"
   xmlns:svg="http://www.w3.org/2000/svg"
   xmlns="http://www.w3.org/2000/svg"
   xmlns:xlink="http://www.w3.org/1999/xlink"
   xmlns:sodipodi="http://sodipodi.sourceforge.net/DTD/sodipodi-0.dtd"
   xmlns:inkscape="http://www.inkscape.org/namespaces/inkscape"
   width="16"
   height="16"
   version="1"
   id="svg12"
   sodipodi:docname="utilities-tweak-tool.svg"
   inkscape:version="0.92.4 5da689c313, 2019-01-14">
  <metadata
     id="metadata18">
    <rdf:RDF>
      <cc:Work
         rdf:about="">
        <dc:format>image/svg+xml</dc:format>
        <dc:type
           rdf:resource="http://purl.org/dc/dcmitype/StillImage" />
        <dc:title></dc:title>
      </cc:Work>
    </rdf:RDF>
  </metadata>
  <defs
     id="defs16">
    <linearGradient
       id="linearGradient4679"
       inkscape:collect="always">
      <stop
         id="stop4675"
         offset="0"
         style="stop-color:#ffffff;stop-opacity:1" />
      <stop
         id="stop4677"
         offset="1"
         style="stop-color:#ffffff;stop-opacity:0" />
    </linearGradient>
    <linearGradient
       inkscape:collect="always"
       id="linearGradient4647">
      <stop
         style="stop-color:#000000;stop-opacity:1;"
         offset="0"
         id="stop4643" />
      <stop
         style="stop-color:#000000;stop-opacity:0;"
         offset="1"
         id="stop4645" />
    </linearGradient>
    <linearGradient
       inkscape:collect="always"
       id="linearGradient4607">
      <stop
         style="stop-color:#646464;stop-opacity:1;"
         offset="0"
         id="stop4603" />
      <stop
         style="stop-color:#8c8c8c;stop-opacity:1"
         offset="1"
         id="stop4605" />
    </linearGradient>
    <linearGradient
       inkscape:collect="always"
       id="linearGradient4535">
      <stop
         style="stop-color:#dcdcdc;stop-opacity:1"
         offset="0"
         id="stop4531" />
      <stop
         style="stop-color:#f0f0f0;stop-opacity:1"
         offset="1"
         id="stop4533" />
    </linearGradient>
    <linearGradient
       inkscape:collect="always"
       xlink:href="#linearGradient4535"
       id="linearGradient4537"
       x1="30.529007"
       y1="4"
       x2="33.508476"
       y2="59.389832"
       gradientUnits="userSpaceOnUse"
       gradientTransform="matrix(0.20105819,0,0,-0.20408162,1.5661376,14.530612)" />
    <linearGradient
       inkscape:collect="always"
       xlink:href="#linearGradient4607"
       id="linearGradient4609"
       x1="4"
       y1="32"
       x2="60"
       y2="32"
       gradientUnits="userSpaceOnUse"
       gradientTransform="matrix(0.28571428,0,0,0.28571428,-17.142857,-1.1428571)" />
    <linearGradient
       inkscape:collect="always"
       xlink:href="#linearGradient4647"
       id="linearGradient4649"
       x1="-60"
       y1="32"
       x2="-40.570034"
       y2="32"
       gradientUnits="userSpaceOnUse"
       gradientTransform="matrix(0.28571428,0,0,0.28571428,1.1428552,-1.1428569)" />
    <linearGradient
       gradientTransform="matrix(0.28571428,0,0,0.28571428,17.142857,-1.1428569)"
       inkscape:collect="always"
       xlink:href="#linearGradient4679"
       id="linearGradient4649-8"
       x1="-60"
       y1="32"
       x2="-40.570034"
       y2="32"
       gradientUnits="userSpaceOnUse" />
    <filter
       inkscape:collect="always"
       style="color-interpolation-filters:sRGB"
       id="filter4721"
       x="-0.049263157"
       width="1.0985264"
       y="-0.046799999"
       height="1.0936">
      <feGaussianBlur
         inkscape:collect="always"
         stdDeviation="0.78"
         id="feGaussianBlur4723" />
    </filter>
  </defs>
  <sodipodi:namedview
     pagecolor="#ffffff"
     bordercolor="#666666"
     borderopacity="1"
     objecttolerance="10"
     gridtolerance="10"
     guidetolerance="10"
     inkscape:pageopacity="0"
     inkscape:pageshadow="2"
     inkscape:window-width="1366"
     inkscape:window-height="712"
     id="namedview14"
     showgrid="false"
     inkscape:zoom="20.85965"
     inkscape:cx="9.0748566"
     inkscape:cy="9.4922189"
     inkscape:window-x="0"
     inkscape:window-y="25"
     inkscape:window-maximized="1"
     inkscape:current-layer="svg12" />
  <rect
     style="opacity:1;fill:url(#linearGradient4609);fill-opacity:1;stroke:none;stroke-width:0.24614123;stroke-miterlimit:4;stroke-dasharray:none;stroke-opacity:0"
     id="rect4601"
     width="16"
     height="16"
     x="-16"
     y="9.1539023e-17"
     rx="8"
     ry="8"
     transform="rotate(-90)" />
  <path
     style="fill:#000000;fill-opacity:1;stroke:none;stroke-width:0.72662705;filter:url(#filter4721)"
     d="m 30.964856,37 c -2.293237,0 -4.139128,-1.783721 -4.139128,-3.999721 v -1.875 a 15.522816,15 0 0 1 -4.895635,-2.73298 l -1.681927,0.9375 c -1.986002,1.108 -4.508411,0.454268 -5.65503,-1.464843 l -1.035143,-1.729912 c -1.146618,-1.919113 -0.470102,-4.356564 1.5159,-5.464564 l 1.674709,-0.93471 A 15.522816,15 0 0 1 16.477183,17 15.522816,15 0 0 1 16.748602,14.26423 l -1.674709,-0.93471 c -1.986002,-1.108 -2.662518,-3.545452 -1.5159,-5.464564 l 1.035143,-1.729912 c 1.146619,-1.919112 3.669029,-2.572843 5.65503,-1.464843 l 1.670376,0.93192 A 15.522816,15 0 0 1 26.825728,2.878906 V 0.999721 C 26.825728,-1.216279 28.671619,-3 30.964856,-3 h 2.070287 c 2.293238,0 4.139129,1.783721 4.139129,3.999721 v 1.88616 a 15.522816,15 0 0 1 4.895635,2.72182 l 1.681928,-0.9375 c 1.986001,-1.108 4.508409,-0.454269 5.655028,1.464843 l 1.035143,1.729912 c 1.146619,1.919112 0.470101,4.356564 -1.5159,5.464564 l -1.674709,0.93471 A 15.522816,15 0 0 1 47.522815,17 15.522816,15 0 0 1 47.251397,19.73577 l 1.674709,0.93471 c 1.986002,1.108 2.662519,3.545451 1.5159,5.464564 l -1.035143,1.729912 c -1.146619,1.919113 -3.669028,2.572843 -5.655028,1.464843 l -1.670379,-0.93192 a 15.522816,15 0 0 1 -4.907184,2.72461 v 1.87779 c 0,2.216 -1.845891,3.999721 -4.139129,3.999721 z m 1.035143,-11.429966 c 4.898721,0 8.870181,-3.8377 8.870181,-8.571429 0,-4.733729 -3.97146,-8.570034 -8.870181,-8.570034 -4.89872,0 -8.870179,3.836305 -8.870179,8.570034 0,4.733729 3.971459,8.571429 8.870179,8.571429 z"
     id="path4-6"
     inkscape:connector-curvature="0"
     transform="matrix(0.28571428,0,0,0.28571428,-1.1428571,3.8937141)" />
  <path
     style="fill:url(#linearGradient4537);fill-opacity:1;stroke-width:0.20760772"
     d="m 7.7042447,13.714286 c -0.6552104,0 -1.182608,-0.509635 -1.182608,-1.142777 V 12.035794 A 4.4350904,4.2857144 0 0 1 5.1228839,11.254943 L 4.6423336,11.5228 C 4.0749044,11.839371 3.3542158,11.652591 3.0266102,11.104273 L 2.7308554,10.610013 C 2.4032502,10.061695 2.5965402,9.3652798 3.1639694,9.0487086 l 0.4784881,-0.26706 A 4.4350904,4.2857144 0 0 1 3.5649095,7.9999998 4.4350904,4.2857144 0 0 1 3.6424575,7.218351 L 3.1639694,6.951291 C 2.5965402,6.6347198 2.4032502,5.938305 2.7308554,5.3899872 L 3.0266102,4.8957268 C 3.3542158,4.3474089 4.0749044,4.1606289 4.6423336,4.4772001 l 0.4772497,0.2662626 a 4.4350904,4.2857144 0 0 1 1.4020534,-0.778061 v -0.53691 c 0,-0.6331428 0.5273976,-1.1427775 1.182608,-1.1427775 h 0.5915102 c 0.655211,0 1.182608,0.5096347 1.182608,1.1427775 v 0.5389028 a 4.4350904,4.2857144 0 0 1 1.3987541,0.777663 l 0.48055,-0.2678574 c 0.567429,-0.3165712 1.288117,-0.1297912 1.615723,0.4185266 l 0.295755,0.4942605 C 13.59675,5.9383049 13.403459,6.6347198 12.83603,6.951291 l -0.478488,0.26706 a 4.4350904,4.2857144 0 0 1 0.07755,0.7816488 4.4350904,4.2857144 0 0 1 -0.07755,0.7816488 l 0.478488,0.26706 c 0.567429,0.3165712 0.76072,1.0129864 0.433115,1.5613044 l -0.295755,0.49426 c -0.327602,0.548318 -1.04829,0.735098 -1.615719,0.418527 l -0.477251,-0.266263 a 4.4350904,4.2857144 0 0 1 -1.4020531,0.77846 v 0.536512 c 0,0.633142 -0.527397,1.142777 -1.182608,1.142777 z m 0.2957552,-3.265705 c 1.399634,0 2.5343371,-1.096486 2.5343371,-2.4489796 0,-1.3524944 -1.1347031,-2.448581 -2.5343371,-2.448581 -1.3996344,0 -2.5343366,1.0960866 -2.5343366,2.448581 0,1.3524936 1.1347022,2.4489796 2.5343366,2.4489796 z"
     id="path4"
     inkscape:connector-curvature="0" />
  <rect
     style="opacity:1;fill:none;fill-opacity:1;stroke:url(#linearGradient4649);stroke-width:0.28494066;stroke-miterlimit:4;stroke-dasharray:none;stroke-opacity:1"
     id="rect4601-7"
     width="15.715059"
     height="15.715059"
     x="-15.85753"
     y="0.14247036"
     rx="7.8575296"
     ry="7.8575296"
     transform="rotate(-90)" />
  <rect
     style="opacity:0.5;fill:none;fill-opacity:1;stroke:url(#linearGradient4649-8);stroke-width:0.28494066;stroke-miterlimit:4;stroke-dasharray:none;stroke-opacity:1"
     id="rect4601-7-0"
     width="15.715059"
     height="15.715059"
     x="0.14247036"
     y="0.14247036"
     rx="7.8575296"
     ry="7.8575296"
     transform="matrix(0,1,1,0,0,0)" />
</svg>
