<?xml version="1.0" encoding="UTF-8" standalone="no"?>
<svg
   xmlns:dc="http://purl.org/dc/elements/1.1/"
   xmlns:cc="http://creativecommons.org/ns#"
   xmlns:rdf="http://www.w3.org/1999/02/22-rdf-syntax-ns#"
   xmlns:svg="http://www.w3.org/2000/svg"
   xmlns="http://www.w3.org/2000/svg"
   xmlns:sodipodi="http://sodipodi.sourceforge.net/DTD/sodipodi-0.dtd"
   xmlns:inkscape="http://www.inkscape.org/namespaces/inkscape"
   width="16"
   height="16"
   version="1.1"
   viewBox="0 0 12 12"
   id="svg12"
   sodipodi:docname="whatsapp.svg"
   inkscape:version="0.92.3 (2405546, 2018-03-11)">
  <metadata
     id="metadata18">
    <rdf:RDF>
      <cc:Work
         rdf:about="">
        <dc:format>image/svg+xml</dc:format>
        <dc:type
           rdf:resource="http://purl.org/dc/dcmitype/StillImage" />
        <dc:title></dc:title>
      </cc:Work>
    </rdf:RDF>
  </metadata>
  <defs
     id="defs16">
    <linearGradient
       id="linearGradient2630"
       x2="1"
       gradientTransform="matrix(0,-11.998801,12.053595,0,5.9999989,12.000338)"
       gradientUnits="userSpaceOnUse">
      <stop
         stop-color="#f9f9f9"
         offset="0"
         id="stop963" />
      <stop
         stop-color="#fff"
         offset="1"
         id="stop965" />
    </linearGradient>
    <linearGradient
       id="linearGradient2628"
       x2="1"
       gradientTransform="matrix(0,-11.583571,11.636469,0,5.9999652,11.791183)"
       gradientUnits="userSpaceOnUse">
      <stop
         stop-color="#20b038"
         offset="0"
         id="stop958" />
      <stop
         stop-color="#60d66a"
         offset="1"
         id="stop960" />
    </linearGradient>
  </defs>
  <sodipodi:namedview
     pagecolor="#ffffff"
     bordercolor="#666666"
     borderopacity="1"
     objecttolerance="10"
     gridtolerance="10"
     guidetolerance="10"
     inkscape:pageopacity="0"
     inkscape:pageshadow="2"
     inkscape:window-width="1366"
     inkscape:window-height="704"
     id="namedview14"
     showgrid="false"
     inkscape:zoom="10.429825"
     inkscape:cx="-4.4628437"
     inkscape:cy="-1.4216156"
     inkscape:window-x="0"
     inkscape:window-y="30"
     inkscape:window-maximized="1"
     inkscape:current-layer="svg12" />
  <path
     inkscape:connector-curvature="0"
     style="fill:#ffffff;stroke-width:0.17183182"
     d="m 3.3141713,10.095634 0.1814216,0.107052 c 0.7623146,0.450342 1.6362985,0.688506 2.5275557,0.688988 h 0.00183 c 2.7371529,0 4.9648624,-2.2170729 4.9658984,-4.9419527 C 10.991245,4.6291278 10.475289,3.3875385 9.5377005,2.453355 8.6000465,1.5193462 7.3533877,1.0046129 6.0267471,1.0040639 c -2.73922,0 -4.9669343,2.2167312 -4.9679666,4.9416119 C 1.058409,6.8794286 1.320819,7.7888357 1.8179956,8.5755765 L 1.9361796,8.7625817 1.4343868,10.586199 Z M 7.1088096e-5,11.998798 0.84768669,8.9178359 C 0.32486849,8.0161273 0.04982649,6.9932409 0.05025509,5.9453975 0.05136509,2.6671061 2.7316088,0 6.0252126,0 c 1.5982059,7.3952e-4 3.0983079,0.61986008 4.2263714,1.7437234 1.127945,1.1238488 1.748933,2.6177327 1.748415,4.2064728 -0.0015,3.2781194 -2.6820385,5.9457378 -5.9747864,5.9457378 -2.384e-4,0 1.365e-4,0 0,0 h -0.00263 C 5.0226537,11.895593 4.0401202,11.645906 3.1674624,11.172112 Z"
     id="path976" />
  <path
     inkscape:connector-curvature="0"
     style="fill:url(#linearGradient2628);stroke-width:0.17183182"
     d="m 0.25616709,5.9484828 c -3.715e-4,1.011482 0.2651382,1.9989995 0.76997881,2.8695736 L 0.20780849,11.792383 3.2654665,10.994278 c 0.8424519,0.456993 1.7909569,0.698241 2.7562701,0.698554 h 0.00263 c 3.1789069,0 5.7663934,-2.5750429 5.7677724,-5.7398423 C 11.79288,4.4192637 11.193286,2.9772939 10.104228,1.8922447 9.0153505,0.80734796 7.5672057,0.20955265 6.0240794,0.20883323 c -3.1790773,0 -5.76656471,2.57469757 -5.76794291,5.73966437 M 6.0242514,11.692794 h 6.8e-5 -6.8e-5 c -6.8e-5,0 -1.023e-4,0 0,0"
     id="path978" />
  <path
     inkscape:connector-curvature="0"
     style="fill:url(#linearGradient2630);stroke-width:0.17183182"
     d="m 0.05018819,5.946769 c -3.714e-4,1.0478297 0.2746803,2.0708308 0.7974985,2.9724382 L 1.8809637e-7,12 3.1673673,11.173295 c 0.8727094,0.473742 1.8551955,0.723411 2.8551253,0.723822 h 0.00263 c 3.2927479,0 5.9734084,-2.6676172 5.9747864,-5.9457377 C 12.000651,4.3625539 11.379463,2.8687034 10.2515,1.7449064 9.1233775,0.62111387 7.6233753,0.00186956 6.02514,0.0011834 c -3.293433,0 -5.97357921,2.6671058 -5.97495781,5.9453961 M 1.9363484,8.7638647 1.8181144,8.5769264 C 1.3209388,7.7900819 1.0585388,6.8806925 1.0589002,5.9470256 1.0600122,3.2223154 3.2876505,1.005414 6.0268674,1.005414 c 1.3265015,3.698e-4 2.5731951,0.5153006 3.5109551,1.4492912 0.9376515,0.9340609 1.4535985,2.1757581 1.4532365,3.4961958 -0.0011,2.7248803 -2.2289165,4.941952 -4.9660699,4.941952 h -0.00183 C 5.1319223,10.892483 4.2578675,10.654189 3.4956048,10.203917 l -0.181388,-0.107052 -1.879652,0.490563 z m 4.088763,3.1332523 h 6.8e-5 -6.8e-5 c -6.8e-5,0 -1.36e-4,0 0,0"
     id="path980" />
  <path
     inkscape:connector-curvature="0"
     style="fill:#ffffff;fill-rule:evenodd;stroke-width:0.17183182"
     d="M 4.5317949,3.4608756 C 4.4199396,3.2133842 4.3022533,3.2084292 4.1958715,3.2040751 c -0.087063,-0.0037 -0.1866371,-0.00334 -0.286097,-0.00334 -0.099582,0 -0.2613156,0.037198 -0.3980784,0.1859119 -0.1368856,0.1487216 -0.5225604,0.5082163 -0.5225604,1.2393598 0,0.7312141 0.5350276,1.4377373 0.6095676,1.5369859 0.074667,0.099067 1.0328083,1.6474937 2.5501161,2.2431305 1.2611271,0.4950352 1.5177567,0.396577 1.7914727,0.371771 0.2737152,-0.02474 0.8832834,-0.3593804 1.0076464,-0.7064093 0.12443,-0.3469802 0.12443,-0.6444133 0.087122,-0.7065271 C 8.9977565,7.3030245 8.8981785,7.2658321 8.7488965,7.191564 8.5995565,7.1172315 7.8656129,6.7576824 7.7287985,6.7080826 7.5919129,6.6585487 7.4923865,6.6338106 7.3928041,6.7825958 7.2932857,6.9311946 7.0073681,7.2658361 6.9202409,7.364961 6.8331777,7.4642723 6.7460554,7.4766716 6.5967691,7.4023423 6.447428,7.3277692 5.9666046,7.1709995 5.3962143,6.664786 4.9523966,6.2708836 4.6527933,5.7844349 4.5656676,5.6356424 4.4786041,5.4870433 4.5563916,5.4065475 4.6312247,5.3324498 4.6983018,5.265859 4.7805653,5.1589336 4.8552367,5.0722034 4.9297206,4.985414 4.9545726,4.9234815 5.004332,4.8243522 5.0541548,4.7251632 5.0292577,4.6383734 4.9919263,4.564035 4.954564,4.4897036 4.6644436,3.7547989 4.5316938,3.4609345"
     id="path982" />
</svg>
