<?xml version="1.0" encoding="UTF-8" standalone="no"?>
<svg
   xmlns:dc="http://purl.org/dc/elements/1.1/"
   xmlns:cc="http://creativecommons.org/ns#"
   xmlns:rdf="http://www.w3.org/1999/02/22-rdf-syntax-ns#"
   xmlns:svg="http://www.w3.org/2000/svg"
   xmlns="http://www.w3.org/2000/svg"
   xmlns:xlink="http://www.w3.org/1999/xlink"
   xmlns:sodipodi="http://sodipodi.sourceforge.net/DTD/sodipodi-0.dtd"
   xmlns:inkscape="http://www.inkscape.org/namespaces/inkscape"
   width="16"
   height="16"
   version="1"
   id="svg16"
   sodipodi:docname="yast.svg"
   inkscape:version="0.92.3 (2405546, 2018-03-11)">
  <metadata
     id="metadata22">
    <rdf:RDF>
      <cc:Work
         rdf:about="">
        <dc:format>image/svg+xml</dc:format>
        <dc:type
           rdf:resource="http://purl.org/dc/dcmitype/StillImage" />
        <dc:title></dc:title>
      </cc:Work>
    </rdf:RDF>
  </metadata>
  <defs
     id="defs20">
    <linearGradient
       inkscape:collect="always"
       id="linearGradient833">
      <stop
         style="stop-color:#c8c8c8;stop-opacity:1"
         offset="0"
         id="stop829" />
      <stop
         style="stop-color:#dcdcdc;stop-opacity:1"
         offset="1"
         id="stop831" />
    </linearGradient>
    <linearGradient
       inkscape:collect="always"
       xlink:href="#linearGradient833"
       id="linearGradient835"
       x1="33.016949"
       y1="58.576271"
       x2="32.203388"
       y2="5.1525426"
       gradientUnits="userSpaceOnUse"
       gradientTransform="matrix(0.28571428,0,0,0.28571428,-1.1428571,-1.1428571)" />
  </defs>
  <sodipodi:namedview
     pagecolor="#ffffff"
     bordercolor="#666666"
     borderopacity="1"
     objecttolerance="10"
     gridtolerance="10"
     guidetolerance="10"
     inkscape:pageopacity="0"
     inkscape:pageshadow="2"
     inkscape:window-width="1366"
     inkscape:window-height="704"
     id="namedview18"
     showgrid="false"
     inkscape:zoom="7.375"
     inkscape:cx="19.234837"
     inkscape:cy="28.100697"
     inkscape:window-x="0"
     inkscape:window-y="30"
     inkscape:window-maximized="1"
     inkscape:current-layer="svg16" />
  <rect
     style="fill:url(#linearGradient835);fill-opacity:1;stroke-width:0.2857143"
     width="16"
     height="16"
     x="0"
     y="0"
     rx="0.85714281"
     ry="0.85714281"
     id="rect2" />
  <path
     style="opacity:0.4;fill:#ffffff;stroke-width:0.2857143"
     d="M 0.8571429,0 C 0.3822857,0 0,0.38228568 0,0.85714288 V 1.1428571 C 0,0.668 0.3822857,0.28571432 0.8571429,0.28571432 H 15.142857 C 15.617714,0.28571432 16,0.668 16,1.1428571 V 0.85714288 C 16,0.38228568 15.617714,0 15.142857,0 Z"
     id="path4"
     inkscape:connector-curvature="0" />
  <path
     style="opacity:0.3;stroke-width:0.2857143"
     d="m 3.1428572,3.4285714 c -0.4748572,0 -0.8571429,0.3822857 -0.8571429,0.8571429 v 8.5714287 c 0,0.474857 0.3822857,0.857143 0.8571429,0.857143 C 3.6177143,13.714286 4,13.332 4,12.857143 V 4.2857143 C 4,3.8108571 3.6177143,3.4285714 3.1428572,3.4285714 Z m 4.5714284,0 c -0.4748568,0 -0.8571424,0.3822857 -0.8571424,0.8571429 v 8.5714287 c 0,0.474857 0.3822856,0.857143 0.8571424,0.857143 0.4748576,0 0.8571432,-0.382286 0.8571432,-0.857143 V 4.2857143 c 0,-0.4748572 -0.3822856,-0.8571429 -0.8571432,-0.8571429 z m 4.5714284,0 c -0.474857,0 -0.857143,0.3822857 -0.857143,0.8571429 v 8.5714287 c 0,0.474857 0.382286,0.857143 0.857143,0.857143 0.474857,0 0.857143,-0.382286 0.857143,-0.857143 V 4.2857143 c 0,-0.4748572 -0.382286,-0.8571429 -0.857143,-0.8571429 z"
     id="path6"
     inkscape:connector-curvature="0" />
  <path
     style="opacity:0.2;stroke-width:0.2857143"
     d="m 0,14.857143 v 0.285714 C 0,15.617714 0.3822857,16 0.8571429,16 H 15.142857 C 15.617714,16 16,15.617714 16,15.142857 v -0.285714 c 0,0.474857 -0.382286,0.857143 -0.857143,0.857143 H 0.8571429 C 0.3822857,15.714286 0,15.332 0,14.857143 Z"
     id="path8"
     inkscape:connector-curvature="0" />
  <path
     style="fill:#0066cc;stroke-width:0.2857143"
     d="m 2.2857143,7.1428568 v 5.7142862 c 0,0.474857 0.3822857,0.857143 0.8571429,0.857143 C 3.6177143,13.714286 4,13.332 4,12.857143 V 7.1428568 Z m 9.1428567,0.5714288 v 5.1428574 c 0,0.474857 0.382286,0.857143 0.857143,0.857143 0.474857,0 0.857143,-0.382286 0.857143,-0.857143 V 7.7142856 Z M 6.8571432,10.571429 v 2.285714 c 0,0.474857 0.3822856,0.857143 0.8571424,0.857143 0.4748576,0 0.8571432,-0.382286 0.8571432,-0.857143 v -2.285714 z"
     id="path10"
     inkscape:connector-curvature="0" />
  <path
     style="opacity:0.2;stroke-width:0.2857143"
     d="m 3.1428572,5.7142857 c -0.9467738,0 -1.7142858,0.7675119 -1.7142858,1.7142855 0,0.9467736 0.767512,1.7142856 1.7142858,1.7142856 0.9467737,0 1.7142857,-0.767512 1.7142857,-1.7142856 0,-0.9467736 -0.767512,-1.7142855 -1.7142857,-1.7142855 z m 9.1428568,0.8571431 c -0.946773,0 -1.714285,0.767512 -1.714285,1.7142856 C 10.571429,9.232488 11.338941,10 12.285714,10 13.232488,10 14,9.232488 14,8.2857144 14,7.3389408 13.232488,6.5714288 12.285714,6.5714288 Z m -4.5714284,2 C 6.767512,8.5714288 6,9.3389408 6,10.285714 6,11.232488 6.767512,12 7.7142856,12 8.6610592,12 9.428571,11.232488 9.428571,10.285714 c 0,-0.9467732 -0.7675118,-1.7142852 -1.7142854,-1.7142852 z"
     id="path12"
     inkscape:connector-curvature="0" />
  <path
     style="fill:#ffffff;stroke-width:0.2857143"
     d="m 3.1428572,5.4285714 c -0.9467738,0 -1.7142858,0.767512 -1.7142858,1.7142854 0,0.9467744 0.767512,1.7142864 1.7142858,1.7142864 0.9467737,0 1.7142857,-0.767512 1.7142857,-1.7142864 0,-0.9467734 -0.767512,-1.7142854 -1.7142857,-1.7142854 z m 9.1428568,0.8571429 c -0.946773,0 -1.714285,0.7675121 -1.714285,1.7142857 0,0.9467736 0.767512,1.7142856 1.714285,1.7142856 C 13.232488,9.7142856 14,8.9467736 14,8 14,7.0532264 13.232488,6.2857143 12.285714,6.2857143 Z M 7.7142856,8.2857144 C 6.767512,8.2857144 6,9.0532264 6,10 c 0,0.946774 0.767512,1.714286 1.7142856,1.714286 0.9467736,0 1.7142854,-0.767512 1.7142854,-1.714286 0,-0.9467736 -0.7675118,-1.7142856 -1.7142854,-1.7142856 z"
     id="path14"
     inkscape:connector-curvature="0" />
</svg>
