<?xml version="1.0" encoding="UTF-8" standalone="no"?>
<svg
   xmlns:dc="http://purl.org/dc/elements/1.1/"
   xmlns:cc="http://creativecommons.org/ns#"
   xmlns:rdf="http://www.w3.org/1999/02/22-rdf-syntax-ns#"
   xmlns:svg="http://www.w3.org/2000/svg"
   xmlns="http://www.w3.org/2000/svg"
   xmlns:sodipodi="http://sodipodi.sourceforge.net/DTD/sodipodi-0.dtd"
   xmlns:inkscape="http://www.inkscape.org/namespaces/inkscape"
   width="32"
   height="32"
   version="1"
   id="svg12"
   sodipodi:docname="application-x-krita.svg"
   inkscape:version="0.92.3 (2405546, 2018-03-11)">
  <metadata
     id="metadata18">
    <rdf:RDF>
      <cc:Work
         rdf:about="">
        <dc:format>image/svg+xml</dc:format>
        <dc:type
           rdf:resource="http://purl.org/dc/dcmitype/StillImage" />
        <dc:title></dc:title>
      </cc:Work>
    </rdf:RDF>
  </metadata>
  <defs
     id="defs16" />
  <sodipodi:namedview
     pagecolor="#ffffff"
     bordercolor="#666666"
     borderopacity="1"
     objecttolerance="10"
     gridtolerance="10"
     guidetolerance="10"
     inkscape:pageopacity="0"
     inkscape:pageshadow="2"
     inkscape:window-width="1366"
     inkscape:window-height="704"
     id="namedview14"
     showgrid="false"
     inkscape:zoom="7.375"
     inkscape:cx="1.6949153"
     inkscape:cy="14.711864"
     inkscape:window-x="0"
     inkscape:window-y="30"
     inkscape:window-maximized="1"
     inkscape:current-layer="svg12" />
  <path
     style="opacity:0.2"
     d="M 7.25,5 C 6.5575,5 6,5.5575 6,6.25 v 22.5 C 6,29.442 6.5575,30 7.25,30 h 17.5 C 25.442,30 26,29.442 26,28.75 V 13 L 19.125,11.875 18,5 Z"
     id="path2" />
  <path
     fill="#e4e4e4"
     d="m7.25 4c-0.6925 0-1.25 0.5575-1.25 1.25v22.5c0 0.692 0.5575 1.25 1.25 1.25h17.5c0.692 0 1.25-0.558 1.25-1.25v-15.75l-6.875-1.125-1.125-6.875z"
     id="path4" />
  <path
     style="opacity:0.2"
     d="m 18,5 v 6.6667 c 0,0.736 0.597,1.333 1.333,1.333 H 26 l -8,-8 z"
     id="path6" />
  <path
     fill="#fafafa"
     d="m18 4v6.6667c0 0.736 0.597 1.333 1.333 1.333h6.667l-8-8z"
     id="path8" />
  <path
     fill="#fff"
     opacity=".2"
     d="m7.25 4c-0.6925 0-1.25 0.5575-1.25 1.25v1c0-0.6925 0.5575-1.25 1.25-1.25h10.75v-1z"
     id="path10" />
  <circle
     style="opacity:0.2;stroke:#000000;stroke-width:0;stroke-linecap:round;stroke-linejoin:round"
     cx="16.206896"
     cy="22.206896"
     r="5.7931032"
     id="circle2" />
  <ellipse
     style="fill:#ffffff;stroke:#000000;stroke-width:0;stroke-linecap:round;stroke-linejoin:round"
     cx="16.204414"
     cy="22.003521"
     rx="5.649724"
     ry="5.6507587"
     id="ellipse4" />
  <path
     inkscape:connector-curvature="0"
     style="fill:#e040fb;stroke:#000000;stroke-width:0;stroke-linecap:round;stroke-linejoin:round"
     d="m 21.222705,19.105675 a 5.7945942,5.7956196 0 0 0 -7.915563,-2.121345 5.7945942,5.7956196 0 0 0 -2.127776,2.146907 l 5.025073,2.872247 z"
     id="path6-3" />
  <path
     inkscape:connector-curvature="0"
     style="fill:#fdfd4b;stroke:#000000;stroke-width:0;stroke-linecap:round;stroke-linejoin:round"
     d="m 21.222705,19.105675 -5.018266,2.897809 -0.02575,5.789508 a 5.7945942,5.7956196 0 0 0 2.923043,-0.770354 5.7945942,5.7956196 0 0 0 2.120969,-7.916963 z"
     id="path8-6" />
  <path
     inkscape:connector-curvature="0"
     style="fill:#18ffff;stroke:#000000;stroke-width:0;stroke-linecap:round;stroke-linejoin:round"
     d="m 16.204439,22.003484 -5.025073,-2.872247 a 5.7945942,5.7956196 0 0 0 0.0068,5.770057 5.7945942,5.7956196 0 0 0 4.992521,2.891698 z"
     id="path10-7" />
  <path
     inkscape:connector-curvature="0"
     style="opacity:0.2;fill:#ffffff;stroke:#000000;stroke-width:0;stroke-linecap:round;stroke-linejoin:round"
     d="m 16.206896,16.206898 a 5.7931029,5.7931029 0 0 0 -5.793103,5.793104 5.7931029,5.7931029 0 0 0 0.0036,0.101832 5.7931029,5.7931029 0 0 1 5.789467,-5.688039 5.7931029,5.7931029 0 0 1 5.78785,5.688039 5.7931029,5.7931029 0 0 0 0.0053,-0.101832 5.7931029,5.7931029 0 0 0 -5.793104,-5.793104 z"
     id="path12" />
  <path
     inkscape:connector-curvature="0"
     style="opacity:0.1;stroke-width:0.20689654"
     d="m 17.348217,22.772123 c -0.894736,0.823991 -2.616094,-0.483026 -3.342658,-1.303895 -0.747294,-0.844293 -3.537669,-3.691865 -3.741624,-3.876547 -0.203946,-0.184674 -0.3663729,-0.412739 -0.186033,-0.639649 0.187739,-0.220983 0.447361,-0.111191 0.672531,0.04766 0.225184,0.158854 3.624072,2.265962 4.615314,2.813414 0.963734,0.532264 2.61473,1.924907 1.98247,2.95902 z"
     id="path14" />
  <path
     inkscape:connector-curvature="0"
     style="fill:#4f4f4f;stroke-width:0.20689654"
     d="m 17.348217,22.565226 c -0.894736,0.823991 -2.616094,-0.483025 -3.342658,-1.303894 -0.747294,-0.844293 -3.537669,-3.691866 -3.741624,-3.876547 -0.203946,-0.184675 -0.3663729,-0.412739 -0.186033,-0.639649 0.187739,-0.220983 0.447361,-0.111191 0.672531,0.04766 0.225184,0.158854 3.624072,2.265961 4.615314,2.813413 0.963734,0.532265 2.61473,1.924907 1.98247,2.95902 z"
     id="path16" />
  <path
     inkscape:connector-curvature="0"
     style="opacity:0.1;stroke-width:0.20689654"
     d="m 18.648275,23.381981 c -3.268965,2.848107 -6.260507,0.304303 -6.694374,-0.692532 0.256568,1.730224 1.4425,3.27857 3.234072,3.874448 1.353076,0.450025 4.138213,0.151749 4.347758,-1.228126 z"
     id="path18" />
  <path
     inkscape:connector-curvature="0"
     style="fill:#4883f7;stroke-width:0.20689654"
     d="m 18.648275,23.175085 c -3.268965,2.848107 -6.260507,0.304303 -6.694374,-0.692533 0.256568,1.730225 1.4425,3.278571 3.234072,3.874449 1.353076,0.450025 4.138213,0.151748 4.347758,-1.228127 z"
     id="path20" />
  <path
     inkscape:connector-curvature="0"
     style="opacity:0.1;stroke-width:0.20689654"
     d="m 18.597464,23.788096 c -0.279664,0.125919 -0.249419,0.216931 -0.497736,0.177671 -0.171268,-0.02708 -1.654959,-1.132737 -1.654959,-1.132737 -0.0752,-0.177424 0.01501,-0.421335 0.184463,-0.614382 0.157166,-0.202843 0.381313,-0.339953 0.573423,-0.304228 0,0 1.406632,1.199057 1.468929,1.358217 0.09032,0.230767 -0.0065,0.220455 -0.07412,0.515459 z"
     id="path22" />
  <path
     inkscape:connector-curvature="0"
     style="fill:#9b9b9b;stroke-width:0.20689654"
     d="m 18.597464,23.5812 c -0.279664,0.125919 -0.249419,0.216931 -0.497736,0.17767 -0.171268,-0.02708 -1.654959,-1.132736 -1.654959,-1.132736 -0.0752,-0.177425 0.01501,-0.421335 0.184463,-0.614383 0.157166,-0.202843 0.381313,-0.339953 0.573423,-0.304228 0,0 1.406632,1.199057 1.468929,1.358218 0.09032,0.230767 -0.0065,0.220455 -0.07412,0.515459 z"
     id="path24" />
  <path
     inkscape:connector-curvature="0"
     style="opacity:0.1;stroke-width:0.20689654"
     d="m 18.873081,26.214054 c 1.051718,-0.59158 1.298988,-1.657592 0.883707,-2.411573 -0.322713,-0.585913 -0.852589,-0.696689 -1.218572,-0.413383 -0.363063,0.281046 -0.395069,0.615937 -0.28677,0.948542 0.220861,0.678364 1.167963,1.176773 0.621635,1.876414 z"
     id="path26" />
  <path
     inkscape:connector-curvature="0"
     style="fill:#3f3f3f;stroke-width:0.20689654"
     d="m 18.873081,26.007158 c 1.051718,-0.591581 1.298988,-1.657592 0.883707,-2.411574 -0.322713,-0.585913 -0.852589,-0.696688 -1.218572,-0.413382 -0.363063,0.281045 -0.395069,0.615936 -0.28677,0.948541 0.220861,0.678365 1.167963,1.176774 0.621635,1.876415 z"
     id="path28" />
</svg>
