<?xml version="1.0" encoding="UTF-8" standalone="no"?>
<svg
   xmlns:dc="http://purl.org/dc/elements/1.1/"
   xmlns:cc="http://creativecommons.org/ns#"
   xmlns:rdf="http://www.w3.org/1999/02/22-rdf-syntax-ns#"
   xmlns:svg="http://www.w3.org/2000/svg"
   xmlns="http://www.w3.org/2000/svg"
   xmlns:xlink="http://www.w3.org/1999/xlink"
   xmlns:sodipodi="http://sodipodi.sourceforge.net/DTD/sodipodi-0.dtd"
   xmlns:inkscape="http://www.inkscape.org/namespaces/inkscape"
   width="32"
   height="32"
   version="1"
   id="svg12"
   sodipodi:docname="application-x-bittorrent.svg"
   inkscape:version="0.92.4 5da689c313, 2019-01-14">
  <metadata
     id="metadata18">
    <rdf:RDF>
      <cc:Work
         rdf:about="">
        <dc:format>image/svg+xml</dc:format>
        <dc:type
           rdf:resource="http://purl.org/dc/dcmitype/StillImage" />
        <dc:title />
      </cc:Work>
    </rdf:RDF>
  </metadata>
  <defs
     id="defs16">
    <linearGradient
       gradientTransform="matrix(0.03404255,0,0,0.03404255,9.4638339,14.463833)"
       inkscape:collect="always"
       xlink:href="#linearGradient844"
       id="linearGradient846"
       x1="184.97034"
       y1="366.10168"
       x2="187.63983"
       y2="242.44067"
       gradientUnits="userSpaceOnUse" />
    <linearGradient
       inkscape:collect="always"
       id="linearGradient844">
      <stop
         style="stop-color:#000000;stop-opacity:1;"
         offset="0"
         id="stop840" />
      <stop
         style="stop-color:#000000;stop-opacity:0;"
         offset="1"
         id="stop842" />
    </linearGradient>
    <linearGradient
       gradientTransform="matrix(0.03404255,0,0,0.03404255,9.4638339,-27.536168)"
       inkscape:collect="always"
       xlink:href="#linearGradient876"
       id="linearGradient846-4"
       x1="184.97034"
       y1="366.10168"
       x2="187.63983"
       y2="242.44067"
       gradientUnits="userSpaceOnUse" />
    <linearGradient
       id="linearGradient876"
       inkscape:collect="always">
      <stop
         id="stop872"
         offset="0"
         style="stop-color:#ffffff;stop-opacity:1" />
      <stop
         id="stop874"
         offset="1"
         style="stop-color:#ffffff;stop-opacity:0" />
    </linearGradient>
  </defs>
  <sodipodi:namedview
     pagecolor="#ffffff"
     bordercolor="#666666"
     borderopacity="1"
     objecttolerance="10"
     gridtolerance="10"
     guidetolerance="10"
     inkscape:pageopacity="0"
     inkscape:pageshadow="2"
     inkscape:window-width="1366"
     inkscape:window-height="708"
     id="namedview14"
     showgrid="false"
     inkscape:zoom="7.375"
     inkscape:cx="2.5762712"
     inkscape:cy="3.8644064"
     inkscape:window-x="0"
     inkscape:window-y="25"
     inkscape:window-maximized="1"
     inkscape:current-layer="svg12" />
  <path
     style="opacity:0.2"
     d="M 7.25,5 C 6.5575,5 6,5.5575 6,6.25 v 22.5 C 6,29.442 6.5575,30 7.25,30 h 17.5 C 25.442,30 26,29.442 26,28.75 V 13 L 19.125,11.875 18,5 Z"
     id="path2" />
  <path
     fill="#e4e4e4"
     d="m7.25 4c-0.6925 0-1.25 0.5575-1.25 1.25v22.5c0 0.692 0.5575 1.25 1.25 1.25h17.5c0.692 0 1.25-0.558 1.25-1.25v-15.75l-6.875-1.125-1.125-6.875z"
     id="path4" />
  <path
     style="opacity:0.2"
     d="m 18,5 v 6.6667 c 0,0.736 0.597,1.333 1.333,1.333 H 26 l -8,-8 z"
     id="path6" />
  <path
     fill="#fafafa"
     d="m18 4v6.6667c0 0.736 0.597 1.333 1.333 1.333h6.667l-8-8z"
     id="path8" />
  <path
     fill="#fff"
     opacity=".2"
     d="m7.25 4c-0.6925 0-1.25 0.5575-1.25 1.25v1c0-0.6925 0.5575-1.25 1.25-1.25h10.75v-1z"
     id="path10" />
  <circle
     style="opacity:1;fill:#00a441;fill-opacity:1;stroke:none;stroke-width:0.39228725;stroke-miterlimit:4;stroke-dasharray:none;stroke-opacity:0;paint-order:stroke fill markers"
     id="path823"
     cx="16"
     cy="21"
     r="6" />
  <path
     d="m 15.244834,15.962318 c -0.04958,0.0015 -0.101167,0.0089 -0.154343,0.02205 -1.008727,0.250118 -1.863299,0.739583 -2.622359,1.50216 -0.545978,0.548288 -0.918495,1.099748 -1.179931,1.746263 -0.18768,0.463957 -0.27915,0.818332 -0.34563,1.340475 -0.03645,0.28668 -0.03645,1.06788 0,1.354417 0.06278,0.492518 0.151133,0.846443 0.317415,1.271565 0.287791,0.735225 0.718321,1.35648 1.361926,1.964918 0.90738,0.857782 1.95015,1.33884 3.219705,1.485277 0.176047,0.02025 0.409147,0.02475 1.622752,0.03142 l 0.641707,-0.06465 c 0.575903,-0.266025 1.215608,-0.557602 1.681628,-0.970935 l -1.598363,0.01388 c -2.254634,0.0195 -2.192249,0.0023 -2.641057,-0.08382 -0.676462,-0.129367 -1.310332,-0.420457 -1.882035,-0.864315 -0.202087,-0.15687 -0.63399,-0.579997 -0.78183,-0.765727 -0.309022,-0.388853 -0.53313,-0.787095 -0.689812,-1.226265 -0.298013,-0.835118 -0.325763,-1.856708 -0.0738,-2.710568 0.159472,-0.539827 0.425452,-1.036747 0.796305,-1.4874 0.161947,-0.19662 0.53514,-0.5616 0.739545,-0.7233 0.487552,-0.385522 1.063095,-0.671115 1.637895,-0.812715 0.07826,-0.01935 0.173415,-0.05048 0.211537,-0.06938 0.09082,-0.04492 0.182573,-0.138427 0.232013,-0.236505 0.03518,-0.06982 0.03983,-0.09446 0.03983,-0.210682 0,-0.120443 -0.0038,-0.139148 -0.0462,-0.22272 -0.09595,-0.19008 -0.272145,-0.290175 -0.486945,-0.283335 z m 0.67968,1.246283 c -0.08465,0.0015 -0.191122,0.01642 -0.334553,0.04545 -0.606104,0.122557 -1.164164,0.379177 -1.662097,0.7641 -0.192787,0.14901 -0.58722,0.532882 -0.735375,0.71559 -0.500257,0.616747 -0.786652,1.302982 -0.865072,2.072512 -0.02198,0.215048 -0.01823,0.739478 0.0068,0.948788 0.110182,0.92217 0.503835,1.70592 1.197345,2.384325 0.525982,0.514432 1.14027,0.873487 1.793175,1.048192 0.182557,0.04883 0.296805,0.07193 0.56646,0.114533 l 0.198352,0.03128 2.221537,0.0045 c 0.805778,0.0015 1.435455,-0.0015 1.824998,0.0022 0.302745,-0.30954 0.58668,-0.594173 0.819668,-0.959108 l -4.85196,-0.057 -0.16302,-0.03067 c -0.348383,-0.06555 -0.5844,-0.141772 -0.864908,-0.278992 -0.590602,-0.289103 -1.124827,-0.811665 -1.42068,-1.39017 -0.364185,-0.71226 -0.420705,-1.619175 -0.149497,-2.403368 0.09206,-0.266587 0.302167,-0.637612 0.486892,-0.85992 0.530168,-0.638505 1.19175,-1.031107 1.927103,-1.143847 0.18318,-0.02813 0.292627,-0.07908 0.387465,-0.180188 0.10074,-0.107445 0.134032,-0.20022 0.12675,-0.35316 -0.0045,-0.09354 -0.01365,-0.13482 -0.04402,-0.19527 -0.04755,-0.09475 -0.154793,-0.194475 -0.261728,-0.243285 -0.05618,-0.02572 -0.11904,-0.03795 -0.203692,-0.0366 z m 0.513158,1.348447 c -0.428378,1.28e-4 -0.755378,0.07275 -1.12746,0.247305 -0.306698,0.144023 -0.535598,0.3084 -0.800753,0.575288 -0.318787,0.320842 -0.507517,0.616462 -0.638625,1.00017 -0.18876,0.552367 -0.187815,1.190865 0.0023,1.74822 0.25059,0.734467 0.8697,1.363897 1.620863,1.648162 0.17667,0.06683 0.280207,0.09476 0.510652,0.138135 l 0.198353,0.03735 2.6538,0.0045 c 1.328744,0.0023 2.011687,0.0045 2.350897,0.0091 0.171307,-0.314032 0.3159,-0.644002 0.43092,-0.987045 l -2.499623,-1.27e-4 c -1.793362,-2.7e-4 -2.829847,-0.0053 -2.893545,-0.01417 -0.222697,-0.03112 -0.461497,-0.11262 -0.641737,-0.218708 -0.20766,-0.122415 -0.453435,-0.35196 -0.593993,-0.554617 -0.17838,-0.25752 -0.27342,-0.584408 -0.273577,-0.94152 -1.28e-4,-0.472418 0.151102,-0.84039 0.486,-1.181933 0.165825,-0.16911 0.31308,-0.276277 0.51021,-0.371332 0.253537,-0.122115 0.406335,-0.154455 0.810825,-0.171075 0.224865,-0.0092 0.262342,-0.0141 0.317362,-0.0417 0.213398,-0.107603 0.327345,-0.349725 0.264113,-0.56145 -0.04537,-0.15264 -0.143063,-0.26382 -0.287648,-0.3282 -0.05858,-0.02603 -0.09828,-0.0306 -0.3123,-0.0351 -0.02947,-6.23e-4 -0.0585,-7.5e-4 -0.08708,-7.5e-4 z"
     style="fill:#ffffff;fill-opacity:1;stroke-width:0.03213109"
     id="path2-3"
     inkscape:connector-curvature="0"
     sodipodi:nodetypes="ccccccccccccsccccccccccscccccccccccccccccccccccccccccccccccccccccccccccccccc" />
  <circle
     style="opacity:0.4;fill:none;fill-opacity:1;stroke:url(#linearGradient846);stroke-width:0.24999999;stroke-miterlimit:4;stroke-dasharray:none;stroke-opacity:1;paint-order:stroke fill markers"
     id="path823-5"
     cx="16"
     cy="21"
     r="5.875" />
  <circle
     style="opacity:0.4;fill:none;fill-opacity:1;stroke:url(#linearGradient846-4);stroke-width:0.24999999;stroke-miterlimit:4;stroke-dasharray:none;stroke-opacity:1;paint-order:stroke fill markers"
     id="path823-5-9"
     cx="16"
     cy="-21"
     r="5.875"
     transform="scale(1,-1)" />
</svg>
