<?xml version="1.0" encoding="UTF-8" standalone="no"?>
<svg
   xmlns:dc="http://purl.org/dc/elements/1.1/"
   xmlns:cc="http://creativecommons.org/ns#"
   xmlns:rdf="http://www.w3.org/1999/02/22-rdf-syntax-ns#"
   xmlns:svg="http://www.w3.org/2000/svg"
   xmlns="http://www.w3.org/2000/svg"
   xmlns:sodipodi="http://sodipodi.sourceforge.net/DTD/sodipodi-0.dtd"
   xmlns:inkscape="http://www.inkscape.org/namespaces/inkscape"
   width="32"
   height="32"
   version="1"
   id="svg16"
   sodipodi:docname="application-vnd.oasis.opendocument.database.svg"
   inkscape:version="0.92.3 (2405546, 2018-03-11)">
  <metadata
     id="metadata22">
    <rdf:RDF>
      <cc:Work
         rdf:about="">
        <dc:format>image/svg+xml</dc:format>
        <dc:type
           rdf:resource="http://purl.org/dc/dcmitype/StillImage" />
      </cc:Work>
    </rdf:RDF>
  </metadata>
  <defs
     id="defs20" />
  <sodipodi:namedview
     pagecolor="#ffffff"
     bordercolor="#666666"
     borderopacity="1"
     objecttolerance="10"
     gridtolerance="10"
     guidetolerance="10"
     inkscape:pageopacity="0"
     inkscape:pageshadow="2"
     inkscape:window-width="1366"
     inkscape:window-height="704"
     id="namedview18"
     showgrid="false"
     inkscape:zoom="7.375"
     inkscape:cx="1.6949153"
     inkscape:cy="16"
     inkscape:window-x="0"
     inkscape:window-y="30"
     inkscape:window-maximized="1"
     inkscape:current-layer="svg16" />
  <path
     style="opacity:0.2"
     d="M 7.25,5 C 6.5575,5 6,5.5575 6,6.25 v 22.5 C 6,29.442 6.5575,30 7.25,30 h 17.5 C 25.442,30 26,29.442 26,28.75 V 13 L 19.125,11.875 18,5 Z"
     id="path2" />
  <path
     fill="#e81d62"
     d="m7.25 4c-0.6925 0-1.25 0.5575-1.25 1.25v22.5c0 0.692 0.5575 1.25 1.25 1.25h17.5c0.692 0 1.25-0.558 1.25-1.25v-15.75l-6.875-1.125-1.125-6.875z"
     id="path4"
     style="fill:#e4e4e4;fill-opacity:1" />
  <path
     style="opacity:0.2"
     d="m 18,5 v 6.6667 c 0,0.736 0.597,1.333 1.333,1.333 H 26 l -8,-8 z"
     id="path6" />
  <path
     fill="#f0729d"
     d="m18 4v6.6667c0 0.736 0.597 1.333 1.333 1.333h6.667l-8-8z"
     id="path8"
     style="fill:#fafafa;fill-opacity:1" />
  <path
     style="fill:#e81d62;fill-opacity:1"
     d="M 16 16 C 14.3221 16 12.888822 16.51757 12.294922 17.25 C 12.245052 17.31149 12.199739 17.37314 12.162109 17.4375 C 12.126359 17.49866 12.096346 17.56157 12.072266 17.625 A 4 2 0 0 0 12.054688 17.683594 C 12.040978 17.726584 12.025708 17.76864 12.017578 17.8125 A 4 2 0 0 0 12 18 C 12.00022 18.06499 12.008674 18.130872 12.021484 18.195312 A 4 2 0 0 0 12.076172 18.382812 A 4 2 0 0 0 12.167969 18.568359 A 4 2 0 0 0 12.294922 18.75 A 4 2 0 0 0 16 20 A 4 2 0 0 0 19.705078 18.75 A 4 2 0 0 0 19.707031 18.75 A 4 2 0 0 0 19.814453 18.59375 C 19.820853 18.58361 19.829918 18.574633 19.835938 18.564453 A 4 2 0 0 0 19.900391 18.431641 C 19.909691 18.410721 19.921708 18.390201 19.929688 18.369141 A 4 2 0 0 0 19.962891 18.257812 C 19.970591 18.228482 19.979285 18.199412 19.984375 18.169922 A 4 2 0 0 0 20.001953 18.001953 A 4 2 0 0 0 19.980469 17.800781 C 19.941469 17.607781 19.847031 17.424953 19.707031 17.251953 C 19.113031 16.519953 17.679953 16.001953 16.001953 16.001953 L 16 16 z M 12.294922 20 C 12.100922 20.26 12.001 20.538359 12 20.818359 C 12 22.023359 13.791 23 16 23 C 18.209 23 20 22.023359 20 20.818359 C 19.999 20.538359 19.899078 20.26 19.705078 20 C 19.094078 20.824 17.629 21.499 16 21.5 C 14.371 21.499 12.905922 20.824 12.294922 20 z M 12.294922 23 C 12.100922 23.26 12.001 23.538359 12 23.818359 C 12 25.023359 13.791 26 16 26 C 18.209 26 20 25.023359 20 23.818359 C 19.999 23.538359 19.899078 23.26 19.705078 23 C 19.094078 23.824 17.629 24.499 16 24.5 C 14.371 24.499 12.905922 23.824 12.294922 23 z"
     id="path12" />
  <path
     fill="#fff"
     opacity=".2"
     d="m7.25 4c-0.6925 0-1.25 0.5575-1.25 1.25v1c0-0.6925 0.5575-1.25 1.25-1.25h10.75v-1z"
     id="path14" />
</svg>
