<?xml version="1.0" encoding="UTF-8" standalone="no"?>
<svg
   xmlns:dc="http://purl.org/dc/elements/1.1/"
   xmlns:cc="http://creativecommons.org/ns#"
   xmlns:rdf="http://www.w3.org/1999/02/22-rdf-syntax-ns#"
   xmlns:svg="http://www.w3.org/2000/svg"
   xmlns="http://www.w3.org/2000/svg"
   xmlns:sodipodi="http://sodipodi.sourceforge.net/DTD/sodipodi-0.dtd"
   xmlns:inkscape="http://www.inkscape.org/namespaces/inkscape"
   width="32"
   height="32"
   version="1.1"
   id="svg16"
   sodipodi:docname="application-vnd.oasis.opendocument.graphics.svg"
   inkscape:version="0.92.3 (2405546, 2018-03-11)">
  <metadata
     id="metadata22">
    <rdf:RDF>
      <cc:Work
         rdf:about="">
        <dc:format>image/svg+xml</dc:format>
        <dc:type
           rdf:resource="http://purl.org/dc/dcmitype/StillImage" />
      </cc:Work>
    </rdf:RDF>
  </metadata>
  <defs
     id="defs20" />
  <sodipodi:namedview
     pagecolor="#ffffff"
     bordercolor="#666666"
     borderopacity="1"
     objecttolerance="10"
     gridtolerance="10"
     guidetolerance="10"
     inkscape:pageopacity="0"
     inkscape:pageshadow="2"
     inkscape:window-width="1366"
     inkscape:window-height="704"
     id="namedview18"
     showgrid="false"
     inkscape:zoom="7.375"
     inkscape:cx="1.6949153"
     inkscape:cy="16"
     inkscape:window-x="0"
     inkscape:window-y="30"
     inkscape:window-maximized="1"
     inkscape:current-layer="svg16" />
  <path
     style="opacity:0.2"
     d="M 7.25,5 C 6.5575,5 6,5.5575 6,6.25 v 22.5 C 6,29.442 6.5575,30 7.25,30 h 17.5 C 25.442,30 26,29.442 26,28.75 V 13 L 19.125,11.875 18,5 Z"
     id="path2" />
  <path
     fill="#fec006"
     d="m7.25 4c-0.6925 0-1.25 0.5575-1.25 1.25v22.5c0 0.692 0.5575 1.25 1.25 1.25h17.5c0.692 0 1.25-0.558 1.25-1.25v-15.75l-6.875-1.125-1.125-6.875z"
     id="path4"
     style="fill:#e4e4e4;fill-opacity:1" />
  <path
     style="opacity:0.2"
     d="m 18,5 v 6.6667 c 0,0.736 0.597,1.333 1.333,1.333 H 26 l -8,-8 z"
     id="path6" />
  <path
     fill="#fed861"
     d="m18 4v6.6667c0 0.736 0.597 1.333 1.333 1.333h6.667l-8-8z"
     id="path8"
     style="fill:#fafafa;fill-opacity:1" />
  <path
     fill="none"
     stroke="#fff"
     stroke-linecap="square"
     d="m9.7664 20.245 0.96159 0.02125c1.8926 0.04125 3.6903 0.51294 4.361 1.554 1.5648 2.4289-1.5345 3.2165-2.7798 1.5011-1.1637-1.8828-0.76156-5.7945 0.91509-6.2488 3.0338-0.69144 3.5363 4.1239 5.404 3.1838 1.4427-0.72612-0.91209-4.0264 0.49926-4.8115 0.60492-0.3365 1.8703 0.90281 1.8703 0.90281"
     id="path12"
     style="stroke:#fec006;stroke-opacity:1" />
  <path
     fill="#fff"
     opacity=".2"
     d="m7.25 4c-0.6925 0-1.25 0.5575-1.25 1.25v1c0-0.6925 0.5575-1.25 1.25-1.25h10.75v-1z"
     id="path14" />
</svg>
