<?xml version="1.0" encoding="UTF-8" standalone="no"?>
<svg
   xmlns:dc="http://purl.org/dc/elements/1.1/"
   xmlns:cc="http://creativecommons.org/ns#"
   xmlns:rdf="http://www.w3.org/1999/02/22-rdf-syntax-ns#"
   xmlns:svg="http://www.w3.org/2000/svg"
   xmlns="http://www.w3.org/2000/svg"
   xmlns:xlink="http://www.w3.org/1999/xlink"
   xmlns:sodipodi="http://sodipodi.sourceforge.net/DTD/sodipodi-0.dtd"
   xmlns:inkscape="http://www.inkscape.org/namespaces/inkscape"
   width="32"
   height="32"
   version="1"
   id="svg16"
   sodipodi:docname="audio-x-generic.svg"
   inkscape:version="0.92.3 (2405546, 2018-03-11)">
  <metadata
     id="metadata22">
    <rdf:RDF>
      <cc:Work
         rdf:about="">
        <dc:format>image/svg+xml</dc:format>
        <dc:type
           rdf:resource="http://purl.org/dc/dcmitype/StillImage" />
        <dc:title />
      </cc:Work>
    </rdf:RDF>
  </metadata>
  <defs
     id="defs20">
    <linearGradient
       inkscape:collect="always"
       id="linearGradient848">
      <stop
         style="stop-color:#dcdcdc;stop-opacity:1;"
         offset="0"
         id="stop844" />
      <stop
         style="stop-color:#f0f0f0;stop-opacity:1"
         offset="1"
         id="stop846" />
    </linearGradient>
    <linearGradient
       inkscape:collect="always"
       xlink:href="#linearGradient848"
       id="linearGradient850"
       x1="31.118645"
       y1="59.661018"
       x2="32.610168"
       y2="4.8813558"
       gradientUnits="userSpaceOnUse"
       gradientTransform="scale(0.5)" />
  </defs>
  <sodipodi:namedview
     pagecolor="#ffffff"
     bordercolor="#666666"
     borderopacity="1"
     objecttolerance="10"
     gridtolerance="10"
     guidetolerance="10"
     inkscape:pageopacity="0"
     inkscape:pageshadow="2"
     inkscape:window-width="1366"
     inkscape:window-height="704"
     id="namedview18"
     showgrid="false"
     inkscape:zoom="14.75"
     inkscape:cx="9.0535941"
     inkscape:cy="19.414831"
     inkscape:window-x="0"
     inkscape:window-y="30"
     inkscape:window-maximized="1"
     inkscape:current-layer="svg16" />
  <rect
     style="fill:url(#linearGradient850);fill-opacity:1;stroke-width:0.5"
     width="28"
     height="28"
     x="2"
     y="2"
     rx="1.5"
     ry="1.5"
     id="rect4" />
  <path
     style="opacity:1;fill:#ffffff;stroke-width:0.5"
     d="M 3.5,2 C 2.669,2 2,2.6689998 2,3.5 V 4 C 2,3.169 2.669,2.5000002 3.5,2.5000002 h 25 C 29.331,2.5000002 30,3.169 30,4 V 3.5 C 30,2.6689998 29.331,2 28.5,2 Z"
     id="path6"
     inkscape:connector-curvature="0" />
  <path
     inkscape:connector-curvature="0"
     style="opacity:0.2;fill:#000000;fill-opacity:1;stroke-width:0.5"
     d="M 3.5,30 C 2.669,30 2,29.331 2,28.5 V 28 c 0,0.831 0.669,1.5 1.5,1.5 h 25 c 0.831,0 1.5,-0.669 1.5,-1.5 v 0.5 c 0,0.831 -0.669,1.5 -1.5,1.5 z"
     id="path6-3" />
  <path
     style="color:#4d4d4d;opacity:0.3;fill:#000000;fill-opacity:1;stroke:none;stroke-width:1"
     class="ColorScheme-Text"
     d="m 20.374357,8.0000003 -7.377542,1.905771 c -0.554268,0.1483817 -1.001447,0.7383027 -1.001447,1.3115847 v 9.089677 c -0.562043,-0.294023 -1.283931,-0.412862 -2.0322873,-0.218597 -1.350422,0.350549 -2.195796,1.483145 -1.90632,2.529768 0.289476,1.046623 1.620332,1.630345 2.9707513,1.279788 1.077356,-0.279664 1.81937,-1.069361 1.937811,-1.903784 l 0.03149,-8.590878 7.003836,-1.873976 v 6.778507 c -0.562053,-0.294024 -1.283938,-0.412866 -2.032291,-0.218598 -1.350421,0.350551 -2.197894,1.483138 -1.90842,2.529768 0.289475,1.046622 1.620336,1.630346 2.970753,1.279789 1.077358,-0.279667 1.819371,-1.069358 1.937811,-1.903785 l 0.0315,-11.1822507 c 0,-0.4299603 -0.266314,-0.7523054 -0.625642,-0.812784 z"
     id="path4"
     inkscape:connector-curvature="0" />
</svg>
