<?xml version="1.0" encoding="UTF-8" standalone="no"?>
<svg
   xmlns:dc="http://purl.org/dc/elements/1.1/"
   xmlns:cc="http://creativecommons.org/ns#"
   xmlns:rdf="http://www.w3.org/1999/02/22-rdf-syntax-ns#"
   xmlns:svg="http://www.w3.org/2000/svg"
   xmlns="http://www.w3.org/2000/svg"
   xmlns:xlink="http://www.w3.org/1999/xlink"
   xmlns:sodipodi="http://sodipodi.sourceforge.net/DTD/sodipodi-0.dtd"
   xmlns:inkscape="http://www.inkscape.org/namespaces/inkscape"
   width="32"
   height="32"
   version="1"
   id="svg20"
   sodipodi:docname="image-x-xcf.svg"
   inkscape:version="0.92.3 (2405546, 2018-03-11)">
  <metadata
     id="metadata26">
    <rdf:RDF>
      <cc:Work
         rdf:about="">
        <dc:format>image/svg+xml</dc:format>
        <dc:type
           rdf:resource="http://purl.org/dc/dcmitype/StillImage" />
        <dc:title></dc:title>
      </cc:Work>
    </rdf:RDF>
  </metadata>
  <defs
     id="defs24">
    <linearGradient
       inkscape:collect="always"
       xlink:href="#linearGradient852"
       id="linearGradient854"
       x1="31.9517"
       y1="191.9989"
       x2="339.66656"
       y2="191.9989"
       gradientUnits="userSpaceOnUse" />
    <linearGradient
       inkscape:collect="always"
       id="linearGradient852">
      <stop
         style="stop-color:#925130;stop-opacity:1;"
         offset="0"
         id="stop848" />
      <stop
         style="stop-color:#754127;stop-opacity:1"
         offset="1"
         id="stop850" />
    </linearGradient>
    <linearGradient
       inkscape:collect="always"
       xlink:href="#linearGradient844"
       id="linearGradient846"
       x1="272.83267"
       y1="173.62025"
       x2="370.54828"
       y2="95.383087"
       gradientUnits="userSpaceOnUse" />
    <linearGradient
       inkscape:collect="always"
       id="linearGradient844">
      <stop
         style="stop-color:#0049ff;stop-opacity:1;"
         offset="0"
         id="stop840" />
      <stop
         style="stop-color:#ff0041;stop-opacity:1"
         offset="1"
         id="stop842" />
    </linearGradient>
  </defs>
  <sodipodi:namedview
     pagecolor="#ffffff"
     bordercolor="#666666"
     borderopacity="1"
     objecttolerance="10"
     gridtolerance="10"
     guidetolerance="10"
     inkscape:pageopacity="0"
     inkscape:pageshadow="2"
     inkscape:window-width="1366"
     inkscape:window-height="704"
     id="namedview22"
     showgrid="false"
     inkscape:zoom="9.8333335"
     inkscape:cx="6.0101951"
     inkscape:cy="17.136421"
     inkscape:window-x="0"
     inkscape:window-y="30"
     inkscape:window-maximized="1"
     inkscape:current-layer="svg20" />
  <path
     inkscape:connector-curvature="0"
     style="opacity:0.2;stroke-width:0.71350604"
     d="M 30,7.1818181 C 30,6.3759998 29.3756,5.7272725 28.6,5.7272725 H 3.4 c -0.7756,0 -1.4,0.6487273 -1.4,1.4545456 V 27.545454 C 2,28.351273 2.6244,29 3.4,29 h 18.2 l 0.7,-7.999999 7.7,-0.727273 z"
     id="path2" />
  <path
     style="fill:#e4e4e4;stroke-width:0.72456878"
     inkscape:connector-curvature="0"
     d="M 30,5.5000001 C 30,4.669 29.3756,4 28.6,4 H 3.4 C 2.6244,4 2,4.669 2,5.5000001 V 26.499999 C 2,27.330999 2.6244,28 3.4,28 H 21.6 L 23.701093,22.258185 30,20.272728 Z"
     id="path4"
     sodipodi:nodetypes="sssssscccs" />
  <path
     inkscape:connector-curvature="0"
     style="opacity:0.2;stroke-width:0.74925858"
     d="m 30,20.272728 h -7.719092 c -0.852651,0 -1.543818,0.651222 -1.543818,1.454546 V 29 Z"
     id="path8" />
  <path
     style="fill:#ffffff;stroke-width:0.71350604;fill-opacity:1"
     inkscape:connector-curvature="0"
     d="m 30,20.272728 h -7 c -0.77322,0 -1.4,0.651222 -1.4,1.454546 V 29 Z"
     id="path10" />
  <ellipse
     cx="12.977467"
     cy="17.103493"
     rx="1.4884039"
     ry="1.9714509"
     style="fill:#ffffff;stroke-width:0.04539062;paint-order:markers fill stroke"
     id="ellipse2" />
  <g
     id="g12"
     style="stroke-width:1.36000001"
     transform="matrix(0.04539063,0,0,0.04539063,7.2850282,7.2850448)">
    <path
       d="m 211.47,52.615 c -8.6431,14.604 -14.349,30.726 -24.617,44.337 -8.0322,10.651 -16.962,20.867 -28.495,28.628 22.391,-8.2075 49.32,-11.793 66.276,-19.533 0.57904,-0.27624 1.2059,-0.57905 1.8009,-0.8606 -2.6615,-17.876 -7.416,-35.72 -14.965,-52.571 z"
       id="path4-3"
       style="fill:#4b2a19;fill-opacity:1"
       inkscape:connector-curvature="0" />
    <path
       d="m 300.43,43.142 c -7.4107,28.49 -47.539,48.576 -74.467,61.421 -0.1753,0.085 -0.3566,0.16999 -0.5319,0.25499 -0.42498,0.20186 -0.85993,0.40905 -1.269,0.60561 -0.48873,0.22311 -0.98343,0.44158 -1.4881,0.65938 -0.0797,0.0319 -0.15341,0.0637 -0.23309,0.0956 -0.2603,0.11157 -0.52724,0.21714 -0.79286,0.32871 -0.42498,0.1753 -0.85528,0.35194 -1.2909,0.52192 -0.22312,0.085 -0.45023,0.17399 -0.67334,0.25898 -0.47811,0.18593 -0.96286,0.36125 -1.4463,0.54186 l -0.6056,0.22312 c -0.6428,0.22843 -1.2962,0.45819 -1.9603,0.6813 -0.0319,0.0106 -0.0625,0.0252 -0.0996,0.0359 0,0 -0.006,6.7e-4 -0.0119,0.006 -0.72248,0.24438 -1.4596,0.48409 -2.2033,0.72315 -0.14345,0.0425 -0.28687,0.089 -0.43031,0.13148 -0.6056,0.19125 -1.2119,0.37784 -1.8228,0.56377 -0.19654,0.0637 -0.39311,0.12284 -0.58966,0.18128 -0.61623,0.18062 -1.2318,0.36522 -1.8586,0.54584 -0.13812,0.0372 -0.27624,0.0803 -0.41437,0.11754 -1.02,0.29748 -2.0612,0.58369 -3.1077,0.87055 -0.92434,0.24968 -1.8606,0.49935 -2.8009,0.74904 -0.45686,0.12218 -0.91771,0.24038 -1.3746,0.36256 -0.26031,0.0638 -0.52193,0.13148 -0.77692,0.19523 -1.5884,0.40905 -3.1914,0.81943 -4.817,1.2232 -5.0998,1.275 -10.348,2.5486 -15.602,3.9085 -7.4372,1.9284 -14.881,4.044 -21.877,6.6098 -5.4876,2.0134 -10.709,4.2977 -15.437,6.9963 -21.398,12.202 -36.963,28.835 -49.086,48.171 -16.303,26.02 -5.0102,59.472 -49.618,84.36 -0.73841,0.87654 -1.6455,1.6827 -2.6814,2.4423 0.04781,-0.0372 0.09961,-0.0744 0.14742,-0.11156 1.5034,0.86059 2.9231,3.9218 2.9284,9.5104 0.0053,14.37 -6.0029,30.21 -10.757,34.657 -0.23905,0.22312 -0.60693,0.51529 -1.0478,0.81279 15.916,15.501 38.951,26.068 63.881,28.208 12.346,1.3334 29.748,0.70588 37.079,0.69526 62.298,-0.15406 121.66,-29.073 157.33,-70.095 2.6491,-3.2168 13.069,-15.443 13.273,-17.634 16.426,-26.323 34.651,-53.265 35.77,-83.418 h -0.002 c -17.809,5.2848 -36.552,11.198 -55.684,12.979 0.20187,-0.005 0.39378,-0.0109 0.57971,-0.016 0.085,0 0.17597,-0.006 0.26097,-0.006 0.0191,0 0.0369,-2e-5 0.0558,0 -4.8912,0.0535 -14.152,1.9525 -16.359,-0.37651 21.016,-23.486 40.953,-49.107 45.388,-78.585 2.7837,-20.468 -0.72845,-42.584 -13.473,-60.407 z m -15.286,139.37 c 0.0605,7.9e-4 0.12219,3e-5 0.18328,0.002 0.0797,0 0.16468,5.3e-4 0.23906,0.006 0.14343,0.005 0.26961,0.0152 0.40241,0.0259 0.0875,0.005 0.17551,0.0112 0.25897,0.0199 -0.3254,-0.0333 -0.68601,-0.052 -1.0837,-0.0538 z m -155.67,3.1197 c 12.712,-0.016 13.663,19.741 15.06,28.607 2.1143,13.26 4.5686,28.166 -15.029,33.133 -1.3334,0.56842 -6.4804,3.8581 -4.9664,-0.21116 5.5673,-9.6844 -4.0858,-34.137 -18.987,-21.977 -1.4821,-13.801 3.4524,-29.591 17.716,-38.245 2.3321,-0.89778 4.3886,-1.3068 6.2054,-1.3068 z m 174.14,66.999 c -0.62824,0.0227 -2.3416,1.1246 -5.6477,3.8408 -2.2585,1.2327 -3.9643,1.8836 -5.2672,2.0997 0.0365,-0.006 0.0705,-0.009 0.10756,-0.016 0.31874,-0.0638 0.66405,-0.15005 1.0359,-0.26694 0.18062,-0.0585 0.37187,-0.12215 0.57374,-0.19124 0.79153,-0.28689 1.6906,-0.67932 2.7053,-1.2052 0.25499,-0.13286 0.51929,-0.27158 0.7849,-0.42033 0.53122,-0.4303 1.01,-0.81146 1.4562,-1.1674 0.17531,-0.13811 0.32337,-0.251 0.48806,-0.3785 0.26561,-0.20718 0.5259,-0.40243 0.76498,-0.57772 0.14341,-0.11151 0.28156,-0.2072 0.41436,-0.30279 0.21781,-0.1594 0.4263,-0.30348 0.61756,-0.43629 0.15936,-0.10621 0.32804,-0.22244 0.46614,-0.31276 0.0319,-0.0159 0.0651,-0.0377 0.0916,-0.0538 0.20187,-0.12742 0.38115,-0.23372 0.54585,-0.31874 0.0638,-0.0319 0.12875,-0.0691 0.18725,-0.0956 0.0265,-0.0109 0.0532,-0.0273 0.0797,-0.0378 0.0797,-0.0372 0.15405,-0.0631 0.22311,-0.0896 0.0109,0 0.0152,-0.004 0.0259,-0.0104 0.0744,-0.0265 0.14343,-0.043 0.20718,-0.0538 h 0.0219 c 0.0428,-0.005 0.0795,-0.009 0.11754,-0.006 z m -11.391,5.9983 c -0.15706,0.0137 -0.30841,0.0207 -0.45222,0.0199 0.14596,-0.001 0.2929,-0.004 0.45222,-0.0199 z m -251.49,8.5322 c -0.08501,0.0637 -0.17398,0.12086 -0.25898,0.1793 0.085,-0.0584 0.17398,-0.11554 0.25898,-0.1793 z m -8.7813,44.261 v 0.006 c 0.05844,0.0585 0.12284,0.11687 0.18129,0.17531 -0.05845,-0.0584 -0.11754,-0.12285 -0.18129,-0.18127 z"
       id="path6"
       style="fill:url(#linearGradient854);fill-opacity:1"
       inkscape:connector-curvature="0" />
    <path
       d="m 349.33,88.574 c -18.163,3.1661 2.688,22.168 -1.6628,32.538 15.767,-4.388 18.907,-28.166 1.6628,-32.538 z m 7.5382,40.188 c -0.87653,0.0106 -1.838,0.32937 -2.4384,0.76498 -11.336,8.2447 -3.5327,25.759 -11.097,36.033 5.3495,0.30281 10.72,-1.4662 15.443,-3.3521 15.353,-5.0467 9.7162,-25.876 -0.52061,-33.096 -0.36655,-0.25499 -0.8606,-0.36124 -1.3865,-0.35062 z m -23.443,0.79685 c -5.4611,-0.0425 -3.6018,14.317 2.4012,14.556 5.0733,0.20186 5.6258,-8.335 3.4955,-12.096 -0.92965,-1.6309 -4.5048,-2.449 -5.8967,-2.4596 z m 6.2367,39.996 c -17.812,5.2858 -36.559,11.198 -55.694,12.978 h 0.0107 c 0.20187,-0.005 0.39312,-0.0106 0.57905,-0.016 0.085,0 0.1753,-0.005 0.26029,-0.005 0.17531,0 0.34,0 0.51,0.005 0.0797,0 0.16467,0 0.23905,0.005 0.14343,0.005 0.27093,0.016 0.40373,0.0265 0.0957,0.005 0.19125,0.0107 0.28155,0.0213 0.17531,0.0212 0.34,0.0425 0.49405,0.0744 h 0.005 c 0.005,0 0.0107,0 0.016,0.005 0.0744,0.016 0.14875,0.0318 0.2178,0.0532 0.0107,0 0.0212,0.005 0.0319,0.005 0.069,0.0213 0.1328,0.0425 0.19124,0.0637 0.005,0.005 0.0106,0.005 0.0106,0.005 0.0637,0.0265 0.1275,0.0532 0.18063,0.085 0.28155,0.14344 0.44092,0.34531 0.46748,0.61092 0.005,0.0106 0.005,0.0213 0.005,0.0318 0.005,0.0425 0,0.085 -0.005,0.1275 0,0.0213 0,0.0372 -0.005,0.0532 -0.005,0.0478 -0.016,0.0957 -0.0319,0.14344 0,0.0212 -0.005,0.0372 -0.0159,0.0584 -0.016,0.0478 -0.0319,0.0957 -0.0584,0.14875 -0.0106,0.0265 -0.016,0.0478 -0.0318,0.0744 -0.0213,0.0478 -0.0478,0.0956 -0.0744,0.14343 -0.016,0.0318 -0.0372,0.069 -0.0584,0.10089 -0.0319,0.0478 -0.0637,0.10089 -0.0956,0.14875 -0.0265,0.0425 -0.0532,0.0797 -0.085,0.11687 -0.0319,0.0532 -0.0744,0.1009 -0.11687,0.15406 -0.0319,0.0425 -0.069,0.0903 -0.10624,0.13281 -0.0425,0.0532 -0.085,0.10624 -0.13281,0.15936 -0.0425,0.0478 -0.085,0.0957 -0.13281,0.14875 -0.0585,0.0637 -0.11687,0.12218 -0.18062,0.19124 -0.0212,0.0265 -0.0532,0.0532 -0.0797,0.0797 -0.18593,0.19124 -0.40374,0.39843 -0.63748,0.61622 -0.15406,0.13813 -0.33999,0.29749 -0.52061,0.44624 -0.13812,0.12218 -0.2603,0.23375 -0.40905,0.35593 -0.21249,0.17531 -0.45686,0.36655 -0.69059,0.55248 -0.15938,0.12218 -0.30281,0.23905 -0.4728,0.37186 -0.41968,0.32405 -0.87653,0.66404 -1.3706,1.02 -0.55778,0.61092 -1.0571,1.2112 -1.5034,1.8062 -1.3281,1.7956 -2.1462,3.5486 -2.518,5.2433 -0.0584,0.28155 -0.11156,0.5631 -0.14874,0.84465 -0.14343,1.0837 -0.10625,2.1409 0.0903,3.1662 0.005,0.0372 0.005,0.069 0.016,0.10624 0.0532,0.26562 0.11688,0.52592 0.19125,0.78623 0.22312,0.78622 0.53654,1.5565 0.94028,2.3002 0.13281,0.24968 0.27624,0.49936 0.42499,0.74373 h 0.005 c 0.14875,0.24436 0.31343,0.48342 0.48342,0.72778 0.17001,0.23905 0.34531,0.47812 0.53124,0.71185 0.19125,0.23375 0.3878,0.46748 0.58966,0.70123 0.20187,0.22843 0.41436,0.45686 0.63749,0.68529 0.44092,0.45155 0.9084,0.89247 1.4078,1.3228 2.0028,1.7212 4.457,3.2777 7.2088,4.627 -0.13812,0.28686 -0.29749,0.56841 -0.47811,0.86059 -0.0903,0.14343 -0.18593,0.28686 -0.28686,0.4303 -0.1009,0.14875 -0.20718,0.29217 -0.31874,0.44092 -0.2178,0.29217 -0.45686,0.58966 -0.71185,0.88716 -0.255,0.29749 -0.52592,0.59498 -0.81278,0.89777 -0.57374,0.60562 -1.2006,1.2165 -1.8593,1.8328 -0.66405,0.61624 -1.3653,1.2378 -2.0877,1.8646 -1.7956,1.5671 -3.7133,3.1555 -5.4558,4.7386 -2.6136,2.3852 -4.8395,4.7545 -5.6948,7.0229 -0.0584,0.15405 -0.10624,0.3028 -0.15405,0.45686 -0.0425,0.14875 -0.0797,0.29749 -0.11156,0.44624 -0.0637,0.29749 -0.10089,0.59498 -0.11155,0.89246 -0.005,0.29218 0.016,0.58436 0.069,0.87653 0.0265,0.14344 0.0584,0.28687 0.1009,0.4303 0.0425,0.14344 0.0956,0.28687 0.15405,0.4303 0.11688,0.28686 0.26561,0.56842 0.45155,0.84466 0.0957,0.13811 0.19655,0.27624 0.30812,0.41436 0.11156,0.13812 0.23373,0.27625 0.36655,0.41436 0.26029,0.27093 0.55779,0.54186 0.89778,0.80747 0.16999,0.13281 0.35061,0.26562 0.54186,0.39843 0.37717,0.2603 0.80215,0.5206 1.2696,0.77559 0.46218,0.255 0.97747,0.50999 1.53,0.75435 0.46749,0.21249 0.97747,0.41436 1.514,0.61623 0.1009,0.0372 0.19656,0.0797 0.29749,0.11688 0.65342,0.23905 1.3546,0.4781 2.1037,0.70653 0.36655,0.0265 0.70654,0.0744 1.0253,0.13812 0.0319,0.005 0.0637,0.0106 0.0904,0.016 h 0.005 c 0.0372,0.005 0.0744,0.016 0.11155,0.0265 0.30281,0.069 0.58968,0.14875 0.85529,0.24968 0.14875,0.0532 0.29217,0.11688 0.4303,0.18062 0.13812,0.0637 0.27093,0.13812 0.39842,0.21249 0.255,0.14875 0.48343,0.31343 0.70122,0.49404 0.10625,0.0904 0.20719,0.18594 0.30281,0.28157 0.10089,0.10089 0.19125,0.20186 0.28155,0.30811 0.085,0.10624 0.16999,0.21249 0.24968,0.32405 0.0797,0.11687 0.15406,0.22843 0.22844,0.35061 0.21249,0.35592 0.3931,0.73841 0.54184,1.1422 0.1275,0.3453 0.23375,0.71185 0.31875,1.089 0.016,0.0637 0.0372,0.12219 0.0478,0.18593 0.069,0.29218 0.12218,0.59498 0.16468,0.9031 0.0478,0.30811 0.085,0.61622 0.11687,0.93497 0.0265,0.31873 0.0532,0.63747 0.069,0.95622 v 0.0319 c 0.0372,0.63217 0.0532,1.275 0.0637,1.9071 0.0106,0.64279 0.016,1.2803 0.0319,1.8965 0.0213,0.92434 0.0637,1.8062 0.17531,2.5977 0.0372,0.2603 0.0797,0.50998 0.1328,0.75435 0.0265,0.11686 0.0585,0.23905 0.0903,0.35061 0.0319,0.11687 0.0637,0.22311 0.1009,0.33468 0.0372,0.10624 0.0797,0.20718 0.12217,0.30811 0.0425,0.1009 0.0904,0.19656 0.13813,0.29218 0.016,0.0319 0.0372,0.0584 0.0532,0.085 0.085,0.15406 0.18062,0.29749 0.28156,0.42499 0.0637,0.0744 0.13281,0.14875 0.20187,0.21781 0.2178,0.20187 0.46216,0.36654 0.75435,0.48342 0.28686,0.11687 0.62153,0.18593 0.99871,0.20717 0.255,0.0107 0.52592,0 0.82341,-0.0372 0.14874,-0.016 0.3028,-0.0425 0.46217,-0.069 0.31874,-0.0637 0.66404,-0.14875 1.0359,-0.26561 0.18062,-0.0584 0.37186,-0.12219 0.57374,-0.19125 0.79153,-0.28686 1.6893,-0.67997 2.704,-1.2059 0.25499,-0.13281 0.5206,-0.27093 0.78621,-0.41968 0.53124,-0.43029 1.0093,-0.81278 1.4556,-1.1687 0.1753,-0.13813 0.32405,-0.24969 0.48873,-0.37718 0.26562,-0.20718 0.52592,-0.40373 0.76497,-0.57904 0.14344,-0.11156 0.28156,-0.20718 0.41436,-0.30281 0.21781,-0.15936 0.42499,-0.30279 0.61624,-0.4356 0.15937,-0.10626 0.32936,-0.22312 0.46748,-0.31343 0.0319,-0.016 0.0637,-0.0372 0.0903,-0.0532 0.20186,-0.1275 0.38249,-0.23375 0.54717,-0.31875 0.0637,-0.0318 0.12749,-0.069 0.18593,-0.0956 0.0265,-0.0107 0.0532,-0.0265 0.0797,-0.0372 0.0797,-0.0372 0.15407,-0.0637 0.22313,-0.0903 0.0106,0 0.016,-0.005 0.0265,-0.0106 0.0744,-0.0265 0.14344,-0.0425 0.20718,-0.0532 h 0.0213 c 0.0478,-0.005 0.0903,-0.0106 0.1328,-0.005 0.0106,0 0.0213,0.005 0.0318,0.005 0.0319,0.005 0.0584,0.016 0.0797,0.0319 0.0106,0.005 0.016,0.0106 0.0212,0.016 0.0265,0.016 0.0425,0.0425 0.0584,0.069 0,0.005 0.005,0.0106 0.005,0.016 0.016,0.0318 0.0212,0.0744 0.0212,0.12218 0,0.0532 -0.005,0.11156 -0.016,0.17531 16.442,-26.354 34.711,-53.325 35.832,-83.515 z"
       id="path8-6"
       style="fill:url(#linearGradient846);fill-opacity:1"
       inkscape:connector-curvature="0" />
    <path
       d="m 41.681,266.66 c -10.832,8.0907 -32.952,8.096 -23.735,25.207 4.9511,7.6497 8.76,13.839 14.853,19.772 0.44092,-0.29749 0.80747,-0.58967 1.0518,-0.81279 4.7492,-4.4517 10.763,-20.288 10.752,-34.663 0,-5.5886 -1.4237,-8.6431 -2.9218,-9.5037 z"
       id="path10-7"
       style="fill:#4b2819;fill-opacity:1"
       inkscape:connector-curvature="0" />
  </g>
  <path
     d="m 14.155807,20.212749 c -0.01397,-0.0011 -0.02931,0.0046 -0.03989,0.01525 -0.01059,0.01064 -0.01758,0.02491 -0.02287,0.04309 -3.14e-4,0.0012 -5.71e-4,0.0024 -7.14e-4,0.0035 -0.0045,0.0371 -0.01371,0.05741 -0.03378,0.08555 -0.01992,0.02793 -0.05128,0.06276 -0.09512,0.119773 -0.407844,0.425614 -0.820754,0.947665 -1.218012,1.270574 -8.29e-4,6.86e-4 -0.0016,0.0014 -0.0023,0.0022 -0.009,0.0098 -0.04051,0.03321 -0.08218,0.05887 -0.04168,0.02565 -0.09445,0.0552 -0.150624,0.0844 -0.112337,0.0584 -0.239182,0.115382 -0.316318,0.137056 -0.0077,0.0021 -0.01359,0.0082 -0.01552,0.01596 -0.0038,0.0149 0.0085,0.029 0.02376,0.02739 0.325128,-0.03326 0.479552,-0.04802 0.868005,-0.367383 3.14e-4,-2.72e-4 6.57e-4,-5.43e-4 10e-4,-8e-4 0.425741,-0.391612 0.797149,-0.848532 1.193092,-1.272617 0.0024,-0.0026 0.0041,-0.0057 0.005,-0.0091 0.0076,-0.02686 0.0029,-0.05655 -0.0065,-0.08608 -0.0094,-0.02953 -0.02416,-0.05863 -0.04176,-0.082 -0.0176,-0.02338 -0.0374,-0.04334 -0.06534,-0.04566 z"
     dominant-baseline="auto"
     style="color:#000000;font-variant-ligatures:normal;font-variant-position:normal;font-variant-caps:normal;font-variant-numeric:normal;font-variant-alternates:normal;font-feature-settings:normal;text-indent:0;text-decoration:none;text-decoration-line:none;text-decoration-style:solid;text-decoration-color:#000000;text-transform:none;text-orientation:mixed;dominant-baseline:auto;white-space:normal;shape-padding:0;isolation:auto;mix-blend-mode:normal;solid-color:#000000;fill-rule:evenodd;stroke-width:0.04539062;color-rendering:auto;image-rendering:auto;shape-rendering:auto"
     id="path14"
     inkscape:connector-curvature="0" />
  <path
     d="m 21.570479,11.221434 c -0.0056,0.142184 -0.01803,0.283622 -0.03704,0.423358 -0.201344,1.338025 -1.106294,2.500967 -2.060212,3.567022 0.04163,0.04393 0.13882,0.05456 0.253794,0.052 0.855942,-0.987109 1.623066,-2.06011 1.806388,-3.278576 0.03412,-0.250903 0.04722,-0.507274 0.03704,-0.763788 z m 1.132133,3.759705 c -0.0099,0.0029 -0.02019,0.006 -0.03012,0.0089 -0.0014,0.01058 -0.0024,0.02122 -0.0039,0.03178 -0.0041,0.02886 -0.0089,0.05764 -0.01356,0.08637 -0.0021,0.01303 -0.0039,0.02616 -0.0061,0.03916 0,2.27e-4 -3.1e-5,4.29e-4 -9.1e-5,6e-4 -0.0072,0.04148 -0.01513,0.08284 -0.0236,0.12407 -0.0086,0.04173 -0.01777,0.08332 -0.02759,0.124801 -0.0097,0.04089 -0.01994,0.08169 -0.03078,0.122344 -3.4e-5,3.71e-4 -1.37e-4,6.85e-4 -2.73e-4,0.0011 -0.01083,0.04059 -0.02224,0.08111 -0.03418,0.121479 -1.36e-4,4.28e-4 -1.81e-4,7.71e-4 -3.14e-4,0.0011 -0.01194,0.04033 -0.02438,0.0805 -0.03737,0.120614 -9.1e-5,4.57e-4 -2.72e-4,10e-4 -4.29e-4,0.0014 -0.01298,0.04004 -0.02645,0.07998 -0.04043,0.119814 -2.27e-4,4.86e-4 -3.71e-4,10e-4 -5.42e-4,0.0015 -0.01397,0.03977 -0.02844,0.07945 -0.04335,0.119018 -2.27e-4,5.43e-4 -4.29e-4,10e-4 -6e-4,0.0016 -0.01491,0.03953 -0.03035,0.07896 -0.04614,0.118286 -2.27e-4,6e-4 -4.86e-4,0.0012 -7.15e-4,0.0018 -0.03181,0.07914 -0.06536,0.157925 -0.100467,0.236306 -0.01373,0.03065 -0.02877,0.06095 -0.04295,0.09149 -0.20515,0.441639 -0.456006,0.872317 -0.717694,1.29656 -7.71e-4,0.0012 -0.0015,0.0024 -0.0023,0.0037 -0.139164,0.225552 -0.28097,0.449367 -0.420022,0.672213 -0.0063,0.06784 -0.227278,0.346012 -0.405996,0.563377 0.03002,-0.01189 0.06225,-0.02607 0.09867,-0.04495 0.01157,-0.006 0.02358,-0.01233 0.03564,-0.01908 0.02411,-0.01953 0.04584,-0.0369 0.06609,-0.05306 0.008,-0.0063 0.01467,-0.0113 0.02214,-0.01709 0.01206,-0.0094 0.02385,-0.01837 0.03471,-0.02633 0.0065,-0.0051 0.01279,-0.0094 0.01881,-0.0137 0.0099,-0.0072 0.01938,-0.01372 0.02806,-0.01975 0.0072,-0.0048 0.01488,-0.01019 0.02114,-0.01429 0.0015,-7.14e-4 0.003,-0.0016 0.0042,-0.0023 0.0092,-0.0058 0.01726,-0.01064 0.02473,-0.01449 0.0029,-0.0015 0.0059,-0.0031 0.0085,-0.0043 0.0012,-4.85e-4 0.0024,-0.0013 0.0036,-0.0017 0.0036,-0.0017 0.007,-0.0029 0.01017,-0.0041 4.85e-4,0 6.57e-4,-3.14e-4 0.0011,-5.43e-4 0.0034,-0.0012 0.0066,-0.002 0.0094,-0.0025 h 0.001 c 0.0017,-1.81e-4 0.0031,-2.27e-4 0.0046,-1.81e-4 -0.02893,0.0016 -0.106486,0.05172 -0.255656,0.174269 -0.05258,0.0287 -0.09761,0.04941 -0.1377,0.06489 -0.083,0.100948 -0.157694,0.189953 -0.195815,0.236238 -1.618711,1.86198 -4.313247,3.174609 -7.141196,3.181587 -0.33276,4.86e-4 -1.122669,0.02901 -1.68305,-0.03152 -1.131624,-0.09714 -2.1771519,-0.576752 -2.8995777,-1.280352 0.00602,-0.0041 0.011009,-0.0079 0.016358,-0.01184 -0.2737531,-0.267901 -0.4462011,-0.547513 -0.6696251,-0.892709 -0.027581,-0.0512 -0.048589,-0.09877 -0.064361,-0.143552 -0.057553,0.119365 -0.049335,0.272902 0.064361,0.483989 0.2234171,0.345196 0.3958518,0.62479 0.6696251,0.892709 -0.00535,0.0039 -0.010339,0.0078 -0.016358,0.01184 0.7224258,0.7036 1.7679537,1.183231 2.8995757,1.28039 0.560382,0.06052 1.350315,0.032 1.683051,0.03152 2.827711,-0.007 5.52245,-1.319607 7.141193,-3.181622 0.120243,-0.14601 0.593165,-0.700944 0.602458,-0.800418 0.139049,-0.222835 0.280855,-0.446678 0.420022,-0.672212 7.72e-4,-0.0012 0.0015,-0.0024 0.0023,-0.0037 0.261675,-0.424243 0.512551,-0.854921 0.717694,-1.29656 0.01419,-0.03054 0.02923,-0.06084 0.04295,-0.09149 0.0351,-0.07838 0.06865,-0.157169 0.100468,-0.236306 2.27e-4,-6e-4 4.86e-4,-0.0012 7.14e-4,-0.0018 0.0158,-0.03933 0.03123,-0.07876 0.04614,-0.118285 1.82e-4,-5.72e-4 3.72e-4,-0.001 6e-4,-0.0016 0.01491,-0.03957 0.02938,-0.07925 0.04335,-0.119018 1.82e-4,-4.86e-4 3.15e-4,-10e-4 5.43e-4,-0.0015 0.01398,-0.03983 0.02745,-0.07977 0.04043,-0.119814 1.36e-4,-4.29e-4 3.15e-4,-9.43e-4 4.29e-4,-0.0014 0.01299,-0.04011 0.02543,-0.08029 0.03737,-0.120614 1.36e-4,-3.72e-4 2.27e-4,-7.15e-4 3.14e-4,-0.0011 0.01194,-0.04037 0.02334,-0.08089 0.03418,-0.121479 1.36e-4,-3.72e-4 1.82e-4,-6.86e-4 2.72e-4,-0.0011 0.01084,-0.04066 0.0211,-0.08145 0.03079,-0.122344 0.0098,-0.04148 0.01902,-0.08307 0.02759,-0.124801 0.0085,-0.04123 0.0164,-0.0826 0.0236,-0.12407 3.4e-5,-1.82e-4 9.1e-5,-3.72e-4 9.1e-5,-6e-4 0.0023,-0.01301 0.004,-0.02613 0.0061,-0.03916 0.0047,-0.02874 0.0095,-0.05752 0.01356,-0.08637 0.01179,-0.08384 0.02091,-0.168145 0.02706,-0.253062 4e-6,-3.4e-5 -5e-6,-1.82e-4 0,-2.27e-4 0.0031,-0.04249 0.0055,-0.08509 0.007,-0.127859 z m -9.540542,0.389384 c -0.08246,0 -0.175798,0.01856 -0.281651,0.05931 -0.632348,0.383665 -0.860572,1.076303 -0.80818,1.692038 0.04384,-0.516466 0.290567,-1.037562 0.80818,-1.351608 0.105853,-0.04075 0.199186,-0.05931 0.281651,-0.05931 0.577029,-7.15e-4 0.620161,0.896044 0.683583,1.2985 0.02144,0.134436 0.04307,0.27248 0.05472,0.408516 0.02719,-0.237586 -0.01497,-0.499648 -0.05472,-0.748945 -0.06342,-0.402456 -0.106561,-1.299216 -0.683583,-1.298501 z m 7.903756,3.041194 c -0.0015,-3.4e-5 -0.0029,1.8e-5 -0.0047,2.27e-4 h -0.001 c -0.0029,4.86e-4 -0.0061,0.0013 -0.0094,0.0025 -4.86e-4,2.27e-4 -6.57e-4,5.43e-4 -0.0011,5.43e-4 -0.0031,0.0012 -0.0066,0.0024 -0.01017,0.0041 -0.0012,4.85e-4 -0.0024,0.0012 -0.0036,0.0017 -0.0027,0.0012 -0.0056,0.0029 -0.0085,0.0043 -0.0075,0.0039 -0.01557,0.0087 -0.02473,0.01449 -0.0012,7.15e-4 -0.0027,0.0016 -0.0042,0.0023 -0.0063,0.0041 -0.01391,0.0095 -0.02114,0.0143 -0.0087,0.006 -0.01817,0.01251 -0.02806,0.01975 -0.006,0.0043 -0.01231,0.0086 -0.01881,0.0137 -0.01085,0.008 -0.02265,0.01692 -0.0347,0.02633 -0.0075,0.0058 -0.01418,0.01082 -0.02214,0.01709 -0.02025,0.01616 -0.04198,0.03353 -0.06609,0.05306 -0.01206,0.0068 -0.02407,0.01305 -0.03564,0.01908 -0.04547,0.02357 -0.08575,0.04115 -0.121346,0.05412 0.04529,-0.01599 0.09742,-0.03927 0.159709,-0.07327 0.149166,-0.122551 0.226723,-0.172662 0.255656,-0.174269 z M 9.1341059,19.071232 c -0.00386,0.0029 -0.00791,0.0055 -0.011768,0.0081 0.00386,-0.0027 0.00791,-0.0052 0.011768,-0.0081 z m -0.3985409,2.00908 c 0.0029,0.0027 0.00552,0.0055 0.00818,0.0082 -0.00267,-0.0027 -0.00552,-0.0053 -0.00818,-0.0079 z m 0,0.340429 v 2.73e-4 c 0.00267,0.0027 0.00552,0.0053 0.00818,0.0079 -0.00267,-0.0027 -0.00528,-0.0055 -0.00818,-0.0082 z"
     id="path16"
     inkscape:connector-curvature="0"
     style="opacity:0.3;stroke-width:0.06173011" />
  <path
     d="m 20.921961,9.2432988 -1.37e-4,9.1e-5 c 2.9e-5,4.1e-5 3.5e-5,9e-5 4.6e-5,1.36e-4 1.7e-5,-9.1e-5 3.4e-5,-1.36e-4 9.1e-5,-1.82e-4 z m -9.1e-5,1.81e-4 c -0.335123,1.2877442 -2.142392,2.1968962 -3.364467,2.7802212 -0.121788,-0.79943 -0.336062,-1.596853 -0.673676,-2.3504962 -0.392311,0.6628512 -0.651276,1.3946722 -1.117359,2.0124502 -0.340045,0.450933 -0.715617,0.884572 -1.189393,1.226738 -0.04208,0.01453 -0.08383,0.02935 -0.125268,0.04455 -0.249085,0.09139 -0.486133,0.195062 -0.70074,0.317556 -0.97128,0.55388 -1.677773,1.308816 -2.22801,2.186546 -0.740026,1.181053 -0.22739,2.699471 -2.2521471,3.829153 -0.033516,0.03979 -0.074724,0.07636 -0.1217443,0.110841 0.00217,-0.0017 0.00454,-0.0034 0.00672,-0.0051 0.00194,0.0011 0.00385,0.0026 0.00578,0.0039 -0.3604125,0.258477 -0.9740712,0.3342 -1.1261413,0.649608 -3.73e-5,-9.1e-5 -9.52e-5,-2.27e-4 -1.314e-4,-3.71e-4 -0.00358,0.0075 -0.00697,0.01507 -0.010042,0.02281 -5.9e-5,1.36e-4 -7.73e-5,3.14e-4 -1.318e-4,4.57e-4 -0.00209,0.0053 -0.00393,0.01082 -0.00578,0.01629 -0.00259,0.0076 -0.00491,0.01539 -0.00698,0.02327 -0.00191,0.0073 -0.00358,0.01478 -0.00506,0.02234 -0.00164,0.0085 -0.00301,0.01713 -0.00406,0.02593 -7.628e-4,0.0065 -0.00141,0.01302 -0.00187,0.01968 -7.229e-4,0.01058 -9.514e-4,0.0214 -8e-4,0.03244 6.78e-5,0.0046 3.73e-5,0.0092 2.678e-4,0.0139 6.486e-4,0.01382 0.00209,0.02813 0.00412,0.04269 5.715e-4,0.0041 0.00111,0.0081 0.00179,0.01223 0.00251,0.01538 0.00588,0.03125 0.00997,0.04747 9.514e-4,0.0038 0.00202,0.0076 0.00305,0.0115 0.00437,0.01606 0.00955,0.03256 0.015493,0.04947 9.2e-6,1.8e-5 -9.1e-6,3.4e-5 0,9.1e-5 3.77e-5,9.1e-5 1.048e-4,1.36e-4 1.319e-4,2.27e-4 0.1520597,-0.315408 0.7657283,-0.39112 1.1261412,-0.649608 -0.00194,-0.0013 -0.00385,-0.0027 -0.00578,-0.0039 -0.00217,0.0017 -0.00454,0.0034 -0.00672,0.0051 0.04702,-0.03448 0.088226,-0.07105 0.1217447,-0.110841 2.0247733,-1.129682 1.5121203,-2.648134 2.2521463,-3.829153 0.550271,-0.877696 1.256764,-1.632666 2.22801,-2.186546 0.214607,-0.122493 0.451648,-0.226168 0.700741,-0.317556 0.04143,-0.0152 0.08319,-0.03002 0.125267,-0.04455 0.473742,-0.342166 0.849339,-0.77584 1.189393,-1.226739 0.466117,-0.617778 0.725048,-1.349599 1.117359,-2.01245 0.337618,0.753643 0.551905,1.551066 0.673676,2.350497 1.222041,-0.583292 3.029246,-1.49241 3.364467,-2.7800852 -3.4e-5,-4.5e-5 -9.1e-5,-1.37e-4 -1.37e-4,-1.82e-4 l 2.28e-4,-1.36e-4 c -2.9e-5,9.1e-5 -3.4e-5,2.27e-4 -9.1e-5,3.17e-4 0.423052,0.5917352 0.621182,1.2877102 0.648007,1.9823902 7.72e-4,-0.01826 0.0016,-0.0365 0.0021,-0.05479 1.8e-5,-6.49e-4 4.6e-5,-0.0013 4.6e-5,-0.0019 2.3e-5,-8.77e-4 9e-5,-0.0017 9e-5,-0.0026 8.29e-4,-0.03111 0.0013,-0.06225 0.0015,-0.09342 0.0041,-0.756149 -0.190516,-1.5251122 -0.651771,-2.1702262 z m 1.780617,5.7379422 c -0.0099,0.0029 -0.02019,0.006 -0.03012,0.0089 v 4.5e-5 c -0.07524,0.02236 -0.152311,0.04499 -0.228261,0.06762 -0.118231,0.03524 -0.235499,0.07043 -0.35534,0.105254 -3.4e-5,1.3e-5 -9.1e-5,4.5e-5 -1.36e-4,4.5e-5 -0.103457,0.03007 -0.207503,0.05972 -0.312039,0.08857 -3.3e-5,1.3e-5 -9e-5,0 -1.36e-4,0 -0.05225,0.01441 -0.104617,0.0286 -0.157114,0.04255 -3.5e-5,1.8e-5 -1.82e-4,9.1e-5 -2.28e-4,9.1e-5 -0.05248,0.01395 -0.105128,0.02764 -0.157847,0.04102 -3.4e-5,1.7e-5 -1.81e-4,9.2e-5 -2.27e-4,9.2e-5 -0.01093,0.0028 -0.02191,0.0054 -0.03285,0.0081 -0.140325,0.03523 -0.281426,0.06817 -0.42329,0.09787 -0.0073,0.0015 -0.01448,0.0032 -0.02174,0.0047 -9.1e-5,2e-5 -1.82e-4,0 -2.73e-4,0 -0.0094,0.0019 -0.01881,0.0036 -0.02819,0.0055 -0.258015,0.05255 -0.518304,0.09419 -0.780196,0.118552 h 5.43e-4 c 0.0091,-2.27e-4 0.01784,-4.86e-4 0.02626,-7.15e-4 0.0039,0 0.008,-1.36e-4 0.01184,-1.36e-4 h 9.42e-4 c -0.129792,0.0016 -0.326128,0.0312 -0.487222,0.03477 -2.1e-5,2.4e-5 -3.5e-5,3.4e-5 -4.6e-5,4.6e-5 -0.08398,0.09684 -0.168502,0.193194 -0.253726,0.288436 0.09998,0.105485 0.518577,0.01994 0.74098,0.01715 h -9.15e-4 c -0.0039,0 -0.008,2.27e-4 -0.01184,2.27e-4 -0.0084,2.27e-4 -0.01713,4.86e-4 -0.02626,7.14e-4 H 20.1746 c 0.261896,-0.02436 0.522185,-0.06607 0.780197,-0.118619 0.0094,-0.0019 0.01881,-0.0036 0.02819,-0.0055 9e-5,0 1.81e-4,1.9e-5 2.72e-4,0 0.0073,-0.0015 0.01448,-0.0032 0.02174,-0.0047 0.14185,-0.0297 0.282951,-0.06264 0.42329,-0.09787 0.01094,-0.0027 0.02192,-0.0053 0.03285,-0.0081 3.5e-5,0 9.2e-5,-3.5e-5 1.37e-4,-4.6e-5 0.05272,-0.01338 0.10537,-0.02708 0.157847,-0.04103 3.4e-5,0 1.82e-4,1.8e-5 2.27e-4,0 0.0525,-0.01395 0.104869,-0.02814 0.157115,-0.04255 3.4e-5,0 9.1e-5,-9.1e-5 1.36e-4,-9.1e-5 0.10454,-0.02885 0.208582,-0.0585 0.312038,-0.08857 3.4e-5,0 9.1e-5,1.3e-5 1.36e-4,0 0.119825,-0.03482 0.237092,-0.07002 0.355341,-0.105255 0.07595,-0.02263 0.153019,-0.04526 0.228261,-0.06762 v -9.1e-5 c 4.6e-5,-1.9e-5 1.36e-4,-3.4e-5 1.82e-4,-4.5e-5 0.01528,-0.115447 0.02576,-0.23182 0.03012,-0.349349 z m -2.474379,0.588161 c 0.0027,3.5e-5 0.0055,-2e-6 0.0083,4.6e-5 0.0036,0 0.0075,1.2e-5 0.01084,2.72e-4 0.0065,2.27e-4 0.01226,7.14e-4 0.01829,0.0012 0.004,2.27e-4 0.008,4.57e-4 0.01177,8.85e-4 -0.01477,-0.0015 -0.03115,-0.0023 -0.0492,-0.0024 z m 0,0.34043 c 0.01805,4.5e-5 0.03443,8.86e-4 0.0492,0.0024 -0.0038,-4.28e-4 -0.0078,-6.57e-4 -0.01177,-8.86e-4 -0.006,-4.85e-4 -0.01177,-10e-4 -0.01829,-0.0012 -0.0034,-2.27e-4 -0.0072,-2.72e-4 -0.01084,-2.72e-4 -0.0028,-9.1e-5 -0.0056,-3.3e-5 -0.0083,-9.1e-5 z M 9.1341856,19.071345 c -0.00386,0.0029 -0.00791,0.0055 -0.011768,0.0081 0.00386,-0.0027 0.00791,-0.0052 0.011768,-0.0081 z M 20.67305,19.331124 c -0.0013,4.85e-4 -0.0026,0.001 -0.0039,0.0015 -0.0061,0.0024 -0.01269,0.0054 -0.01848,0.0075 0.007,-0.0025 0.01347,-0.0044 0.02088,-0.0072 4.28e-4,-4.86e-4 5.43e-4,-6.58e-4 9.14e-4,-0.0011 1.81e-4,-2.27e-4 3.71e-4,-4.57e-4 5.43e-4,-6.57e-4 z m -11.5388644,0.08065 c -0.00386,0.0029 -0.00791,0.0055 -0.011768,0.0081 0.00386,-0.0027 0.00791,-0.0052 0.011768,-0.0081 z"
     id="path18"
     inkscape:connector-curvature="0"
     style="opacity:0.1;fill:#ffffff;stroke-width:0.06173011" />
  <ellipse
     cx="12.351984"
     cy="17.870594"
     rx="0.19629629"
     ry="0.24924444"
     style="opacity:0.3;fill:#070707;stroke-width:0.04539062;paint-order:markers fill stroke"
     id="ellipse20" />
  <ellipse
     cx="12.351984"
     cy="17.734421"
     rx="0.19629629"
     ry="0.24924444"
     style="fill:#ffffff;stroke-width:0.04539062;paint-order:markers fill stroke"
     id="ellipse22" />
</svg>
