<?xml version="1.0" encoding="UTF-8" standalone="no"?>
<svg
   xmlns:dc="http://purl.org/dc/elements/1.1/"
   xmlns:cc="http://creativecommons.org/ns#"
   xmlns:rdf="http://www.w3.org/1999/02/22-rdf-syntax-ns#"
   xmlns:svg="http://www.w3.org/2000/svg"
   xmlns="http://www.w3.org/2000/svg"
   xmlns:sodipodi="http://sodipodi.sourceforge.net/DTD/sodipodi-0.dtd"
   xmlns:inkscape="http://www.inkscape.org/namespaces/inkscape"
   width="32"
   height="32"
   version="1"
   id="svg20"
   sodipodi:docname="image-svg+xml-compressed.svg"
   inkscape:version="0.92.3 (2405546, 2018-03-11)">
  <metadata
     id="metadata26">
    <rdf:RDF>
      <cc:Work
         rdf:about="">
        <dc:format>image/svg+xml</dc:format>
        <dc:type
           rdf:resource="http://purl.org/dc/dcmitype/StillImage" />
        <dc:title></dc:title>
      </cc:Work>
    </rdf:RDF>
  </metadata>
  <defs
     id="defs24" />
  <sodipodi:namedview
     pagecolor="#ffffff"
     bordercolor="#666666"
     borderopacity="1"
     objecttolerance="10"
     gridtolerance="10"
     guidetolerance="10"
     inkscape:pageopacity="0"
     inkscape:pageshadow="2"
     inkscape:window-width="1366"
     inkscape:window-height="704"
     id="namedview22"
     showgrid="false"
     inkscape:zoom="9.8333335"
     inkscape:cx="-10.26099"
     inkscape:cy="8.1872692"
     inkscape:window-x="0"
     inkscape:window-y="30"
     inkscape:window-maximized="1"
     inkscape:current-layer="svg20" />
  <path
     inkscape:connector-curvature="0"
     style="opacity:0.2;stroke-width:0.71350604"
     d="M 30,7.1818181 C 30,6.3759998 29.3756,5.7272725 28.6,5.7272725 H 3.4 c -0.7756,0 -1.4,0.6487273 -1.4,1.4545456 V 27.545454 C 2,28.351273 2.6244,29 3.4,29 h 18.2 l 0.7,-7.999999 7.7,-0.727273 z"
     id="path2" />
  <path
     style="fill:#e4e4e4;stroke-width:0.72456878"
     inkscape:connector-curvature="0"
     d="M 30,5.5000001 C 30,4.669 29.3756,4 28.6,4 H 3.4 C 2.6244,4 2,4.669 2,5.5000001 V 26.499999 C 2,27.330999 2.6244,28 3.4,28 H 21.6 L 23.701093,22.258185 30,20.272728 Z"
     id="path4"
     sodipodi:nodetypes="sssssscccs" />
  <path
     style="fill:#7d18ac;stroke-width:0.61237252;fill-opacity:1"
     inkscape:connector-curvature="0"
     d="M 28,7.25 C 28,6.5574995 27.4648,6 26.8,6 H 5.2000001 C 4.5352001,6 4,6.5574995 4,7.25 V 24.750001 C 4,25.4425 4.5352001,26 5.2000001,26 H 21.806728 L 23.701093,22.258185 28,19.373182 Z"
     id="path4-3"
     sodipodi:nodetypes="sssssscccs" />
  <path
     inkscape:connector-curvature="0"
     style="opacity:0.4;fill:currentColor;stroke-width:0.93333316"
     class="ColorScheme-Text"
     d="m 19.266667,8.994529 v 1.451042 c -0.338799,0.01988 -0.674831,0.03783 -1.040885,0.07292 -1.19364,0.11452 -2.484407,0.307038 -3.62578,0.681771 v -0.339061 h -3.733333 v 3.733332 h 0.11849 c -0.531441,1.263827 -0.858582,2.735903 -1.0846361,4.097916 -0.033059,0.1988 -0.051894,0.37555 -0.08021,0.56875 H 9 v 3.733332 H 9.9333333 L 10.4,23.005471 v -0.01094 h 2.333333 V 19.261199 H 10.76276 c 0.02156,-0.143733 0.03407,-0.271849 0.05833,-0.417449 0.243133,-1.464772 0.651455,-3.039523 1.217708,-4.249217 h 2.561198 v -2.380729 c 1.08584,-0.39564 2.452397,-0.646394 3.715104,-0.767446 0.333666,-0.03211 0.639828,-0.04851 0.951562,-0.06745 v 1.348957 h 3.733332 V 8.994533 Z m -3.733333,5.6 4.480728,8.399997 L 23,19.844527 Z"
     id="path820" />
  <path
     inkscape:connector-curvature="0"
     style="opacity:0.2;stroke-width:0.74925858"
     d="m 30,20.272728 h -7.719092 c -0.852651,0 -1.543818,0.651222 -1.543818,1.454546 V 29 Z"
     id="path8" />
  <path
     style="fill:#ffffff;stroke-width:0.71350604;fill-opacity:1"
     inkscape:connector-curvature="0"
     d="m 30,20.272728 h -7 c -0.77322,0 -1.4,0.651222 -1.4,1.454546 V 29 Z"
     id="path10" />
  <path
     style="fill-opacity:0.66666697;fill-rule:evenodd;stroke-width:0.0358893"
     inkscape:connector-curvature="0"
     d="m 14.823064,6 v 6.242209 h -0.0066 v 2.043922 c -0.135043,1.316306 2.506822,1.316306 2.366694,0 v -1.011363 h 8e-4 V 6 H 14.82313 Z"
     id="path11" />
  <g
     transform="matrix(0.40068645,0,0,0.39718537,-147.61772,-193.10823)"
     style="fill:#ffffff;stroke-width:0.08996344"
     id="g25">
    <rect
       rx="0.087458909"
       style="opacity:0.92900002;stroke-width:0.08996344"
       height="2.197578"
       ry="0.08822985"
       width="4.395155"
       x="406.2309"
       y="502.52133"
       id="rect13" />
    <rect
       rx="0.087458909"
       style="opacity:0.92900002;stroke-width:0.08996344"
       height="2.197578"
       ry="0.08822985"
       width="4.395155"
       x="406.22171"
       y="505.69974"
       id="rect15" />
    <rect
       rx="0.087458909"
       style="opacity:0.92900002;stroke-width:0.08996344"
       height="2.197578"
       ry="0.08822985"
       width="4.395155"
       x="406.19412"
       y="508.83987"
       id="rect17" />
    <rect
       rx="0.087458909"
       style="opacity:0.92900002;stroke-width:0.08996344"
       height="2.197578"
       ry="0.08822985"
       width="4.395155"
       x="406.24228"
       y="512.10864"
       id="rect19" />
    <rect
       rx="0.087458909"
       style="opacity:0.92900002;stroke-width:0.08996344"
       height="2.197578"
       ry="0.08822985"
       width="4.395155"
       x="406.24228"
       y="515.32019"
       id="rect21" />
    <rect
       rx="0.087458909"
       style="opacity:0.92900002;stroke-width:0.08996344"
       height="2.197578"
       ry="0.08822985"
       width="4.395155"
       x="406.24222"
       y="518.60736"
       id="rect23" />
  </g>
  <path
     style="fill-opacity:0.66666697;stroke-width:0.0358893"
     inkscape:connector-curvature="0"
     d="m 16.68327,15.21053 v -0.550818 c 0,-0.153462 -0.125109,-0.277924 -0.279366,-0.277924 H 15.62773 c -0.154256,0 -0.279394,0.124499 -0.279394,0.277924 v 0.550548 l -0.431708,1.261778 c -0.120791,0.351665 -0.06283,0.742378 0.15481,1.045188 C 15.289094,17.819479 15.642014,18 16.015802,18 c 0.373858,0 0.726815,-0.180521 0.944462,-0.482774 0.21765,-0.30281 0.275534,-0.693523 0.154778,-1.044912 z m -0.180313,1.981262 c -0.223955,0.311814 -0.750356,0.311814 -0.974344,0 -0.112257,-0.156211 -0.142144,-0.357698 -0.08011,-0.539263 l 0.144889,-0.423216 h 0.844782 l 0.144925,0.423491 c 0.06206,0.18129 0.03214,0.382777 -0.08014,0.538988 z"
     id="path27" />
  <path
     style="fill:#f0f5f1;stroke-width:0.0358893"
     inkscape:connector-curvature="0"
     d="m 16.68327,15.023544 v -0.550817 c 0,-0.153462 -0.125109,-0.277925 -0.279366,-0.277925 H 15.62773 c -0.154256,0 -0.279394,0.124494 -0.279394,0.277925 v 0.550547 l -0.431708,1.261779 c -0.120791,0.35166 -0.06283,0.742377 0.15481,1.045182 0.217656,0.302258 0.570576,0.482779 0.944364,0.482779 0.373858,0 0.726815,-0.180521 0.944462,-0.482779 0.21765,-0.302805 0.275534,-0.693522 0.154778,-1.044912 z m -0.180313,1.981257 c -0.223955,0.311814 -0.750356,0.311814 -0.974344,0 -0.112257,-0.156199 -0.142144,-0.357692 -0.08011,-0.539257 l 0.144889,-0.423216 h 0.844782 l 0.144925,0.423492 c 0.06206,0.181289 0.03214,0.382782 -0.08014,0.538981 z"
     id="path31" />
</svg>
