<?xml version="1.0" encoding="UTF-8" standalone="no"?>
<svg
   xmlns:dc="http://purl.org/dc/elements/1.1/"
   xmlns:cc="http://creativecommons.org/ns#"
   xmlns:rdf="http://www.w3.org/1999/02/22-rdf-syntax-ns#"
   xmlns:svg="http://www.w3.org/2000/svg"
   xmlns="http://www.w3.org/2000/svg"
   xmlns:sodipodi="http://sodipodi.sourceforge.net/DTD/sodipodi-0.dtd"
   xmlns:inkscape="http://www.inkscape.org/namespaces/inkscape"
   width="32"
   height="32"
   version="1"
   id="svg20"
   sodipodi:docname="image-png.svg"
   inkscape:version="0.92.3 (2405546, 2018-03-11)">
  <metadata
     id="metadata26">
    <rdf:RDF>
      <cc:Work
         rdf:about="">
        <dc:format>image/svg+xml</dc:format>
        <dc:type
           rdf:resource="http://purl.org/dc/dcmitype/StillImage" />
        <dc:title></dc:title>
      </cc:Work>
    </rdf:RDF>
  </metadata>
  <defs
     id="defs24" />
  <sodipodi:namedview
     pagecolor="#ffffff"
     bordercolor="#666666"
     borderopacity="1"
     objecttolerance="10"
     gridtolerance="10"
     guidetolerance="10"
     inkscape:pageopacity="0"
     inkscape:pageshadow="2"
     inkscape:window-width="1366"
     inkscape:window-height="704"
     id="namedview22"
     showgrid="false"
     inkscape:zoom="9.8333335"
     inkscape:cx="9.4169747"
     inkscape:cy="21.204218"
     inkscape:window-x="0"
     inkscape:window-y="30"
     inkscape:window-maximized="1"
     inkscape:current-layer="svg20" />
  <path
     inkscape:connector-curvature="0"
     style="opacity:0.2;stroke-width:0.71350604"
     d="M 30,7.1818181 C 30,6.3759998 29.3756,5.7272725 28.6,5.7272725 H 3.4 c -0.7756,0 -1.4,0.6487273 -1.4,1.4545456 V 27.545454 C 2,28.351273 2.6244,29 3.4,29 h 18.2 l 0.7,-7.999999 7.7,-0.727273 z"
     id="path2" />
  <path
     style="fill:#e4e4e4;stroke-width:0.72456878"
     inkscape:connector-curvature="0"
     d="M 30,5.5000001 C 30,4.669 29.3756,4 28.6,4 H 3.4 C 2.6244,4 2,4.669 2,5.5000001 V 26.499999 C 2,27.330999 2.6244,28 3.4,28 H 21.6 L 23.701093,22.258185 30,20.272728 Z"
     id="path4"
     sodipodi:nodetypes="sssssscccs" />
  <path
     style="fill:#ff5575;stroke-width:0.61237252;fill-opacity:1"
     inkscape:connector-curvature="0"
     d="M 28,7.25 C 28,6.5574995 27.4648,6 26.8,6 H 5.2000001 C 4.5352001,6 4,6.5574995 4,7.25 V 24.750001 C 4,25.4425 4.5352001,26 5.2000001,26 H 21.806728 L 23.701093,22.258185 28,19.373182 Z"
     id="path4-3"
     sodipodi:nodetypes="sssssscccs" />
  <ellipse
     style="opacity:1;fill:#ffffff;fill-opacity:1;stroke:none;stroke-width:0.75522023;stroke-miterlimit:4;stroke-dasharray:none;stroke-opacity:1"
     id="path870"
     cx="8.5376644"
     cy="16.59059"
     rx="2.7777774"
     ry="2.9813666" />
  <path
     style="fill:#4c0000;fill-opacity:1;stroke:none;stroke-width:0.68859231px;stroke-linecap:butt;stroke-linejoin:miter;stroke-opacity:1"
     d="m 4.0000019,20.334178 4.3113768,-3.582758 3.8802403,3.070935 6.179639,-5.834777 3.636517,6.125707 L 28,15.113588 27.952093,20.078266 21.814642,25.807387 4,25.913043 Z"
     id="path868"
     inkscape:connector-curvature="0"
     sodipodi:nodetypes="cccccccccc" />
  <path
     inkscape:connector-curvature="0"
     style="opacity:0.2;stroke-width:0.74925858"
     d="m 30,20.272728 h -7.719092 c -0.852651,0 -1.543818,0.651222 -1.543818,1.454546 V 29 Z"
     id="path8" />
  <path
     style="fill:#ffffff;stroke-width:0.71350604;fill-opacity:1"
     inkscape:connector-curvature="0"
     d="m 30,20.272728 h -7 c -0.77322,0 -1.4,0.651222 -1.4,1.454546 V 29 Z"
     id="path10" />
</svg>
