<?xml version="1.0" encoding="UTF-8" standalone="no"?>
<svg
   xmlns:dc="http://purl.org/dc/elements/1.1/"
   xmlns:cc="http://creativecommons.org/ns#"
   xmlns:rdf="http://www.w3.org/1999/02/22-rdf-syntax-ns#"
   xmlns:svg="http://www.w3.org/2000/svg"
   xmlns="http://www.w3.org/2000/svg"
   xmlns:xlink="http://www.w3.org/1999/xlink"
   xmlns:sodipodi="http://sodipodi.sourceforge.net/DTD/sodipodi-0.dtd"
   xmlns:inkscape="http://www.inkscape.org/namespaces/inkscape"
   width="32"
   height="32"
   version="1"
   id="svg26"
   sodipodi:docname="video-x-generic.svg"
   inkscape:version="0.92.4 5da689c313, 2019-01-14">
  <metadata
     id="metadata32">
    <rdf:RDF>
      <cc:Work
         rdf:about="">
        <dc:format>image/svg+xml</dc:format>
        <dc:type
           rdf:resource="http://purl.org/dc/dcmitype/StillImage" />
        <dc:title></dc:title>
      </cc:Work>
    </rdf:RDF>
  </metadata>
  <defs
     id="defs30">
    <linearGradient
       inkscape:collect="always"
       id="linearGradient824">
      <stop
         style="stop-color:#0083d7;stop-opacity:1;"
         offset="0"
         id="stop820" />
      <stop
         style="stop-color:#00cc00;stop-opacity:1"
         offset="1"
         id="stop822" />
    </linearGradient>
    <linearGradient
       inkscape:collect="always"
       xlink:href="#linearGradient824"
       id="linearGradient826"
       x1="23.326996"
       y1="40.420635"
       x2="24.30724"
       y2="4.2099466"
       gradientUnits="userSpaceOnUse"
       gradientTransform="matrix(0.69999999,0,0,0.71428567,-0.8,-1.7142854)" />
    <linearGradient
       inkscape:collect="always"
       xlink:href="#linearGradient824"
       id="linearGradient834"
       x1="22.961231"
       y1="40.315289"
       x2="23.758593"
       y2="4.2874856"
       gradientUnits="userSpaceOnUse"
       gradientTransform="matrix(0.69999999,0,0,0.71428567,-0.8,-0.5714276)" />
  </defs>
  <sodipodi:namedview
     pagecolor="#ffffff"
     bordercolor="#666666"
     borderopacity="1"
     objecttolerance="10"
     gridtolerance="10"
     guidetolerance="10"
     inkscape:pageopacity="0"
     inkscape:pageshadow="2"
     inkscape:window-width="1366"
     inkscape:window-height="712"
     id="namedview28"
     showgrid="false"
     inkscape:zoom="3.8664592"
     inkscape:cx="14.802074"
     inkscape:cy="30.088775"
     inkscape:window-x="0"
     inkscape:window-y="25"
     inkscape:window-maximized="1"
     inkscape:current-layer="svg26" />
  <rect
     style="fill:#000000;fill-opacity:1;stroke-width:0.6991266"
     width="27.930174"
     height="28"
     x="-30"
     y="-30"
     rx="1.3965087"
     ry="1.4"
     transform="matrix(0,-1,-1,0,0,0)"
     id="rect2" />
  <path
     style="opacity:0.2;stroke-width:0.6991266"
     d="M 3.4,30 C 2.6244,30 2,29.377157 2,28.603492 v -0.698255 c 0,0.773666 0.6244,1.396509 1.4,1.396509 h 25.2 c 0.7756,0 1.4,-0.622843 1.4,-1.396509 v 0.698255 C 30,29.377157 29.3756,30 28.6,30 Z"
     id="path6"
     inkscape:connector-curvature="0" />
  <path
     style="fill:#ffffff;stroke-width:0.6991266"
     d="M 3.4,3.4663342 V 6.2593516 H 6.2 V 3.4663342 Z m 22.4,0 v 2.7930174 h 2.8 V 3.4663342 Z M 3.4,9.0523691 V 11.845387 H 6.2 V 9.0523691 Z m 22.4,0 v 2.7930179 h 2.8 V 9.0523691 Z M 3.4,14.638404 v 2.793018 h 2.8 v -2.793018 z m 22.4,0 v 2.793018 h 2.8 V 14.638404 Z M 3.4,20.224439 v 2.793018 h 2.8 v -2.793018 z m 22.4,0 v 2.793018 h 2.8 V 20.224439 Z M 3.4,25.810474 v 2.793018 h 2.8 v -2.793018 z m 22.4,0 v 2.793018 h 2.8 v -2.793018 z"
     id="path10"
     inkscape:connector-curvature="0" />
  <rect
     style="fill:url(#linearGradient826);fill-opacity:1;stroke-width:0.70710671"
     width="14"
     height="10"
     x="9"
     y="4.0000005"
     id="rect14" />
  <rect
     style="fill:url(#linearGradient834);fill-opacity:1;stroke-width:0.70710671"
     width="14"
     height="10"
     x="9"
     y="17.999998"
     id="rect18" />
  <path
     style="opacity:0.4;fill:#ffffff;stroke-width:0.48304591"
     d="M 3.4,2 C 2.6244,2 2,2.2973334 2,2.6666667 v 0.333333 C 2,2.6306664 2.6244,2.3333337 3.4,2.3333337 h 25.2 c 0.7756,0 1.4,0.2973327 1.4,0.666666 V 2.6666667 C 30,2.2973334 29.3756,2 28.6,2 Z"
     id="path4"
     inkscape:connector-curvature="0" />
</svg>
