<?xml version="1.0" encoding="UTF-8" standalone="no"?>
<svg
   xmlns:dc="http://purl.org/dc/elements/1.1/"
   xmlns:cc="http://creativecommons.org/ns#"
   xmlns:rdf="http://www.w3.org/1999/02/22-rdf-syntax-ns#"
   xmlns:svg="http://www.w3.org/2000/svg"
   xmlns="http://www.w3.org/2000/svg"
   xmlns:xlink="http://www.w3.org/1999/xlink"
   xmlns:sodipodi="http://sodipodi.sourceforge.net/DTD/sodipodi-0.dtd"
   xmlns:inkscape="http://www.inkscape.org/namespaces/inkscape"
   width="48"
   height="48"
   version="1"
   id="svg24"
   sodipodi:docname="user-trash-full.svg"
   inkscape:version="0.92.4 5da689c313, 2019-01-14">
  <metadata
     id="metadata30">
    <rdf:RDF>
      <cc:Work
         rdf:about="">
        <dc:format>image/svg+xml</dc:format>
        <dc:type
           rdf:resource="http://purl.org/dc/dcmitype/StillImage" />
        <dc:title />
      </cc:Work>
    </rdf:RDF>
  </metadata>
  <defs
     id="defs28">
    <linearGradient
       inkscape:collect="always"
       id="linearGradient1481">
      <stop
         style="stop-color:#000000;stop-opacity:1;"
         offset="0"
         id="stop1477" />
      <stop
         style="stop-color:#000000;stop-opacity:0;"
         offset="1"
         id="stop1479" />
    </linearGradient>
    <linearGradient
       inkscape:collect="always"
       id="linearGradient1425">
      <stop
         style="stop-color:#ffffff;stop-opacity:1;"
         offset="0"
         id="stop1421" />
      <stop
         style="stop-color:#ffffff;stop-opacity:0;"
         offset="1"
         id="stop1423" />
    </linearGradient>
    <linearGradient
       inkscape:collect="always"
       xlink:href="#linearGradient849"
       id="linearGradient851"
       x1="17.426399"
       y1="136"
       x2="238.57359"
       y2="136"
       gradientUnits="userSpaceOnUse"
       gradientTransform="matrix(0.00730236,0,0,0.00745022,21.026992,222.61148)" />
    <linearGradient
       inkscape:collect="always"
       id="linearGradient849">
      <stop
         style="stop-color:#d6d6d6;stop-opacity:1"
         offset="0"
         id="stop845" />
      <stop
         style="stop-color:#eaeaea;stop-opacity:1"
         offset="1"
         id="stop847" />
    </linearGradient>
    <linearGradient
       inkscape:collect="always"
       xlink:href="#linearGradient1425"
       id="linearGradient1427"
       x1="130.78624"
       y1="46.669899"
       x2="130.75026"
       y2="66.303192"
       gradientUnits="userSpaceOnUse"
       gradientTransform="matrix(0.08510639,0,0,0.08510639,19.384808,220.03855)" />
    <linearGradient
       inkscape:collect="always"
       xlink:href="#linearGradient1481"
       id="linearGradient1483"
       x1="124.48611"
       y1="231.85847"
       x2="124.72912"
       y2="211.17752"
       gradientUnits="userSpaceOnUse"
       gradientTransform="matrix(0.08510639,0,0,0.08510639,19.384808,220.36537)" />
  </defs>
  <sodipodi:namedview
     pagecolor="#ffffff"
     bordercolor="#666666"
     borderopacity="1"
     objecttolerance="10"
     gridtolerance="10"
     guidetolerance="10"
     inkscape:pageopacity="0"
     inkscape:pageshadow="2"
     inkscape:window-width="1366"
     inkscape:window-height="691"
     id="namedview26"
     showgrid="false"
     inkscape:zoom="10.791667"
     inkscape:cx="-4.2162153"
     inkscape:cy="23.119691"
     inkscape:window-x="0"
     inkscape:window-y="0"
     inkscape:window-maximized="1"
     inkscape:current-layer="user-trash" />
  <g
     style="fill:none;fill-rule:evenodd;stroke:none;stroke-width:0.08848412"
     id="user-trash"
     transform="matrix(2.374092,0,0,2.4478583,-47.883767,-543.14628)">
    <path
       inkscape:connector-curvature="0"
       style="opacity:0.2;fill:none;fill-opacity:1;fill-rule:evenodd;stroke:url(#linearGradient1483);stroke-width:0.35303703;stroke-linecap:round;stroke-linejoin:round;stroke-miterlimit:4;stroke-dasharray:none;stroke-opacity:1"
       id="path15-5-7"
       d="m 24.083267,238.65902 c 0.0652,0.74818 0.700232,1.3525 1.418619,1.3525 h 9.553079 c 0.714512,0 1.353524,-0.60553 1.418619,-1.3525 l 1.136179,-12.84073 c 0.516162,0 0.916417,-0.47865 0.916417,-0.97884 0,-0.50368 -0.436245,-0.8157 -0.916417,-0.8157 H 22.947088 c -0.47794,0 -0.916417,0.3155 -0.916417,0.8157 0,0.50367 0.436246,0.97884 0.916417,0.97884 z" />
    <path
       inkscape:connector-curvature="0"
       style="opacity:0.9;fill:url(#linearGradient851);fill-opacity:1;stroke:none;stroke-width:0.03457874;stroke-linecap:round;stroke-linejoin:round;stroke-miterlimit:4;stroke-dasharray:none;stroke-opacity:0.39215686"
       id="path15"
       d="m 24.083267,238.47885 c 0.0652,0.76471 0.700233,1.38237 1.418619,1.38237 h 9.553079 c 0.714512,0 1.353524,-0.61891 1.418619,-1.38237 l 1.136179,-13.12427 c 0.516162,0 0.916417,-0.48923 0.916417,-1.00046 0,-0.5148 -0.436245,-0.83372 -0.916417,-0.83372 H 22.947088 c -0.47794,0 -0.916417,0.32248 -0.916417,0.83372 0,0.5148 0.436246,1.00046 0.916417,1.00046 z" />
    <path
       d="m 24.519335,234.52025 0.153719,2.04787 8.57e-4,3.4e-4 0.08462,1.19502 c 0,0 0,1.02454 0.886342,1.02454 0.197982,0 0.864615,0 1.688267,0 l 0.292885,0.004 0.002,-0.004 c 1.094749,0 2.386663,0 3.224118,0 0,0 0,0 0,0 0,0 2.991406,0 3.877748,0 0.886342,0 0.974982,-1.02454 0.974982,-1.02454 l 0.673992,-7.60197 -0.518954,-0.10734 0.5453,-0.51593 -1.931532,-3.1826 -3.427905,2.86275 0.522896,-1.47504 -4.578447,-2.17992 -1.259656,3.39327 -0.8644,-0.53205 -0.714445,1.54066 0.212401,2.64113 0.01211,0.007 0.06549,0.87237 -3.41e-4,7.2e-4 0.06857,1.02726 0.0094,0.006 z"
       id="path17"
       inkscape:connector-curvature="0"
       style="opacity:0.4;fill:#a7602f;fill-opacity:1;fill-rule:evenodd;stroke:none;stroke-width:0.00779622" />
    <path
       style="fill:#ffffff;stroke-width:0.00753056"
       inkscape:connector-curvature="0"
       id="Fill-1"
       d="m 30.247288,230.13392 c -0.872733,-1.91735 -1.790777,-0.3734 -1.790777,-0.3734 l -0.696085,1.3139 1.432884,0.89154 z m 3.09889,-0.58737 -0.77226,0.4657 -0.28303,-0.53213 c 0,0 -0.218676,-0.55381 -1.297608,-0.49577 0,0 -1.337008,0.0399 -1.476224,0.0126 0,0 0.378906,0.0797 0.567374,0.39228 l 0.853689,1.60828 -0.62385,0.3748 2.093508,0.0483 z m -5.131327,4.63744 c -1.08287,1.78939 0.6337,1.82365 0.6337,1.82365 l 1.413841,-0.0496 -0.02824,-1.76702 z m -2.080373,-2.51311 0.774887,0.4601 -0.281061,0.53354 c 0,0 -0.329655,0.48807 0.277777,1.43766 0,0 0.728263,1.19712 0.776857,1.33767 0,0 -0.133307,-0.38599 0.0197,-0.72023 l 0.847121,-1.61248 0.62582,0.37131 -1.050037,-1.92855 z m 6.532033,2.2453 c 1.995661,0.13425 1.185971,-1.47683 1.185971,-1.47683 l -0.730889,-1.29151 -1.434198,0.88944 z m -2.116492,1.36843 1.070394,-1.91665 v 0.76429 h 1.734302 c 0.348699,-0.021 0.600209,-0.33355 0.600209,-0.33355 -0.09128,0.11328 -0.717756,1.37473 -0.717756,1.37473 -0.482005,1.0279 -1.042814,0.95938 -1.042814,0.95938 h -0.573941 v 0.94399 z" />
    <path
       inkscape:connector-curvature="0"
       style="fill:#cb0000;fill-opacity:1;stroke-width:0.00753056"
       id="path18"
       d="m 30.247288,229.96371 c -0.872733,-1.91736 -1.790777,-0.37341 -1.790777,-0.37341 l -0.696085,1.3139 1.432884,0.89155 z m 3.09889,-0.58738 -0.77226,0.46571 -0.28303,-0.53214 c 0,0 -0.218676,-0.5538 -1.297608,-0.49576 0,0 -1.337008,0.0399 -1.476224,0.0126 0,0 0.378906,0.0797 0.567374,0.39228 l 0.853689,1.60828 -0.62385,0.3748 2.093508,0.0483 z m -5.131327,4.63745 c -1.08287,1.78939 0.6337,1.82365 0.6337,1.82365 l 1.413841,-0.0497 -0.02824,-1.76701 z m -2.080373,-2.51312 0.774887,0.46012 -0.281061,0.53352 c 0,0 -0.329655,0.48808 0.277777,1.43767 0,0 0.728263,1.19711 0.776857,1.33766 0,0 -0.133307,-0.38598 0.0197,-0.72023 l 0.847121,-1.61247 0.62582,0.3713 -1.050037,-1.92853 z m 6.532033,2.2453 c 1.995661,0.13426 1.185971,-1.47682 1.185971,-1.47682 l -0.730889,-1.29151 -1.434198,0.88945 z m -2.116492,1.36844 1.070394,-1.91665 v 0.76428 h 1.734302 c 0.348699,-0.021 0.600209,-0.33354 0.600209,-0.33354 -0.09128,0.11328 -0.717756,1.37473 -0.717756,1.37473 -0.482005,1.0279 -1.042814,0.95938 -1.042814,0.95938 h -0.573941 v 0.94398 z" />
    <g
       transform="matrix(0.07798119,0,0,0.08510639,26.067441,228.8045)"
       id="Group"
       style="fill:#780000;fill-opacity:1;stroke-width:0.0924382">
      <path
         inkscape:connector-curvature="0"
         style="fill:#780000;fill-opacity:1;stroke-width:0.0924382"
         id="path20"
         d="m 98.627559,60.782404 c 1.190715,-2.074987 2.165851,-3.699715 2.518411,-4.100606 0,0 -3.225268,3.672648 -7.696847,3.919135 h -22.24 v -8.980325 l -13.726316,22.520649 0.629954,0.96644 13.096362,-21.487089 v 8.980325 h 22.24 c 2.05254,-0.113142 3.842483,-0.948172 5.178436,-1.818529 z" />
      <path
         inkscape:connector-curvature="0"
         style="fill:#780000;fill-opacity:1;stroke-width:0.0924382"
         id="path22"
         d="m 101.87349,49.538031 c 0.38982,-4.396404 -2.041209,-8.828558 -2.041209,-8.828558 L 90.459649,25.534122 72.06807,35.985149 l 0.859638,1.51151 17.531941,-9.962537 9.372632,15.175351 c 0,0 1.745459,3.182261 2.041209,6.828558 z" />
      <path
         inkscape:connector-curvature="0"
         style="fill:#780000;fill-opacity:1;stroke-width:0.0924382"
         id="path24"
         d="m 22.990685,74.032242 c -0.311157,-3.059027 0.836105,-7.204849 4.546859,-12.823309 l 25.894737,0.08216 0.362105,20.762378 -0.03486,0.0011 -0.327244,-18.7635 -25.894737,-0.08216 c -2.957659,4.478196 -4.286757,8.020841 -4.546859,10.823309 z" />
      <polygon
         style="fill:#780000;fill-opacity:1;stroke-width:0.0924382"
         points="54.459649,28.171527 57.958577,28.245415 62.459649,25.767635 61.581178,24.251222 "
         id="Path" />
      <path
         inkscape:connector-curvature="0"
         style="fill:#780000;fill-opacity:1;stroke-width:0.0924382"
         id="path27"
         d="m 7.1922807,43.355095 c 0,0 -1.3989572,1.897849 -1.10444,5.634109 0.2039637,-2.412508 1.10444,-3.634109 1.10444,-3.634109 L 10.796491,39.086122 10.900002,37 Z" />
      <path
         inkscape:connector-curvature="0"
         style="fill:#780000;fill-opacity:1;stroke-width:0.0924382"
         id="path29"
         d="m 22.579878,25.167248 -0.869703,-0.495829 8.926316,-15.43827 c 0,0 11.772632,-18.1414055 22.964211,4.387459 l -0.564387,0.898895 C 42.016955,-6.3039334 30.636491,11.233149 30.636491,11.233149 Z" />
      <polygon
         style="fill:#780000;fill-opacity:1;stroke-width:0.0924382"
         points="26.392281,32.258446 4.1944644,33.494202 0.85964912,31.679852 26.392281,30.258446 39.857544,52.918771 38.101985,51.964388 "
         id="polygon31" />
      <path
         inkscape:connector-curvature="0"
         style="fill:#780000;fill-opacity:1;stroke-width:0.0924382"
         id="path33"
         d="M 49.041794,2.3707458 C 46.736367,0.74293632 44.236491,0.26104084 44.236491,0.26104084 46.021754,0.58147327 63.167017,0.11314895 63.167017,0.11314895 c 13.83579,-0.68194594 16.64,5.82529725 16.64,5.82529725 l 3.629474,6.2525408 9.903158,-5.4720002 -1.565842,2.8652079 -8.337316,4.6067923 -3.629474,-6.2525408 c 0,0 -2.80421,-6.5072432 -16.64,-5.8252973 0,0 -8.471807,0.2314082 -14.125223,0.2575969 z" />
    </g>
    <path
       inkscape:connector-curvature="0"
       style="opacity:0.8;fill:none;fill-opacity:1;fill-rule:evenodd;stroke:url(#linearGradient1427);stroke-width:0.35303703;stroke-linecap:round;stroke-linejoin:round;stroke-miterlimit:4;stroke-dasharray:none;stroke-opacity:1"
       id="path15-5"
       d="m 24.083267,238.3322 c 0.0652,0.74818 0.700232,1.3525 1.418619,1.3525 h 9.553079 c 0.714512,0 1.353524,-0.60553 1.418619,-1.3525 l 1.136179,-12.84073 c 0.516162,0 0.916417,-0.47865 0.916417,-0.97884 0,-0.50368 -0.436245,-0.8157 -0.916417,-0.8157 H 22.947088 c -0.47794,0 -0.916417,0.3155 -0.916417,0.8157 0,0.50367 0.436246,0.97884 0.916417,0.97884 z" />
  </g>
</svg>
