<?xml version="1.0" encoding="UTF-8" standalone="no"?>
<svg
   xmlns:dc="http://purl.org/dc/elements/1.1/"
   xmlns:cc="http://creativecommons.org/ns#"
   xmlns:rdf="http://www.w3.org/1999/02/22-rdf-syntax-ns#"
   xmlns:svg="http://www.w3.org/2000/svg"
   xmlns="http://www.w3.org/2000/svg"
   xmlns:xlink="http://www.w3.org/1999/xlink"
   xmlns:sodipodi="http://sodipodi.sourceforge.net/DTD/sodipodi-0.dtd"
   xmlns:inkscape="http://www.inkscape.org/namespaces/inkscape"
   width="48"
   height="48"
   version="1"
   id="svg18"
   sodipodi:docname="accessories-camera.svg"
   inkscape:version="0.92.4 5da689c313, 2019-01-14">
  <metadata
     id="metadata24">
    <rdf:RDF>
      <cc:Work
         rdf:about="">
        <dc:format>image/svg+xml</dc:format>
        <dc:type
           rdf:resource="http://purl.org/dc/dcmitype/StillImage" />
      </cc:Work>
    </rdf:RDF>
  </metadata>
  <defs
     id="defs22">
    <linearGradient
       inkscape:collect="always"
       id="linearGradient838">
      <stop
         style="stop-color:#dcdcdc;stop-opacity:1;"
         offset="0"
         id="stop834" />
      <stop
         style="stop-color:#f0f0f0;stop-opacity:1"
         offset="1"
         id="stop836" />
    </linearGradient>
    <linearGradient
       inkscape:collect="always"
       xlink:href="#linearGradient838"
       id="linearGradient840"
       x1="24.338984"
       y1="43.525425"
       x2="24.067797"
       y2="7.9322033"
       gradientUnits="userSpaceOnUse" />
  </defs>
  <sodipodi:namedview
     pagecolor="#ffffff"
     bordercolor="#666666"
     borderopacity="1"
     objecttolerance="10"
     gridtolerance="10"
     guidetolerance="10"
     inkscape:pageopacity="0"
     inkscape:pageshadow="2"
     inkscape:window-width="1366"
     inkscape:window-height="691"
     id="namedview20"
     showgrid="false"
     inkscape:zoom="9.8333333"
     inkscape:cx="7.8627479"
     inkscape:cy="23.796353"
     inkscape:window-x="0"
     inkscape:window-y="0"
     inkscape:window-maximized="1"
     inkscape:current-layer="svg18" />
  <rect
     fill="#4f4f4f"
     width="40"
     height="40"
     x="4"
     y="4"
     rx="20"
     ry="20"
     id="rect4"
     style="fill:url(#linearGradient840);fill-opacity:1" />
  <circle
     style="opacity:0.4"
     cx="24"
     cy="24"
     r="11"
     id="circle6" />
  <circle
     opacity=".2"
     cx="24"
     cy="-25"
     r="9"
     transform="scale(1,-1)"
     id="circle8" />
  <circle
     fill="#ba174e"
     cx="24"
     cy="-24"
     r="9"
     transform="scale(1,-1)"
     id="circle10" />
  <path
     fill="#fff"
     opacity=".1"
     d="m24 4c-11.08 0-20 8.92-20 20 0 0.168 0.0076 0.333 0.0117 0.5 0.2647-10.846 9.0763-19.5 19.988-19.5s19.724 8.654 19.988 19.5c0.004-0.167 0.012-0.332 0.012-0.5 0-11.08-8.92-20-20-20z"
     id="path12"
     style="opacity:0.4" />
  <circle
     opacity=".2"
     cx="24"
     cy="25"
     r="6"
     id="circle14" />
  <circle
     fill="#d67495"
     cx="24"
     cy="24"
     r="6"
     id="circle16" />
  <path
     inkscape:connector-curvature="0"
     style="opacity:0.2;fill:#000000;fill-opacity:1"
     d="m 24.00015,45 c -11.08,0 -19.9999998,-8.92 -19.9999998,-20 0,-0.168 0.0076,-0.333 0.0117,-0.5 0.2647,10.846 9.0762998,19.5 19.9879998,19.5 10.9117,0 19.724,-8.654 19.988,-19.5 0.004,0.167 0.012,0.332 0.012,0.5 0,11.08 -8.92,20 -20,20 z"
     id="path12-3" />
</svg>
