<?xml version="1.0" encoding="UTF-8" standalone="no"?>
<svg
   xmlns:dc="http://purl.org/dc/elements/1.1/"
   xmlns:cc="http://creativecommons.org/ns#"
   xmlns:rdf="http://www.w3.org/1999/02/22-rdf-syntax-ns#"
   xmlns:svg="http://www.w3.org/2000/svg"
   xmlns="http://www.w3.org/2000/svg"
   xmlns:xlink="http://www.w3.org/1999/xlink"
   xmlns:sodipodi="http://sodipodi.sourceforge.net/DTD/sodipodi-0.dtd"
   xmlns:inkscape="http://www.inkscape.org/namespaces/inkscape"
   width="48"
   height="48"
   version="1"
   id="svg18"
   sodipodi:docname="applets-screenshooter.svg"
   inkscape:version="0.92.4 5da689c313, 2019-01-14">
  <metadata
     id="metadata24">
    <rdf:RDF>
      <cc:Work
         rdf:about="">
        <dc:format>image/svg+xml</dc:format>
        <dc:type
           rdf:resource="http://purl.org/dc/dcmitype/StillImage" />
        <dc:title />
      </cc:Work>
    </rdf:RDF>
  </metadata>
  <defs
     id="defs22">
    <linearGradient
       id="linearGradient1748"
       inkscape:collect="always">
      <stop
         id="stop1744"
         offset="0"
         style="stop-color:#ffffff;stop-opacity:1" />
      <stop
         id="stop1746"
         offset="1"
         style="stop-color:#ffffff;stop-opacity:0" />
    </linearGradient>
    <linearGradient
       inkscape:collect="always"
       xlink:href="#linearGradient4556"
       id="linearGradient4558"
       x1="-6.2112632"
       y1="-27.4408"
       x2="538.62769"
       y2="562.73615"
       gradientUnits="userSpaceOnUse"
       gradientTransform="matrix(0.51270295,0,0,0.49932795,8.2997746,109.42084)" />
    <linearGradient
       inkscape:collect="always"
       id="linearGradient4556">
      <stop
         style="stop-color:#12d79c;stop-opacity:1"
         offset="0"
         id="stop4552" />
      <stop
         style="stop-color:#6020a7;stop-opacity:1"
         offset="1"
         id="stop4554" />
    </linearGradient>
    <linearGradient
       x1="24.979176"
       y1="4.5588341"
       x2="24.939274"
       y2="8.2648869"
       id="linearGradient3058"
       xlink:href="#linearGradient3924-1"
       gradientUnits="userSpaceOnUse"
       gradientTransform="matrix(0.81280613,0,0,0.67055313,9.3017455,-8.2769919)" />
    <linearGradient
       id="linearGradient3924-1">
      <stop
         id="stop3926-3"
         style="stop-color:#ffffff;stop-opacity:1"
         offset="0" />
      <stop
         id="stop3930-6"
         style="stop-color:#ffffff;stop-opacity:0.15686275"
         offset="1" />
      <stop
         id="stop3932-6"
         style="stop-color:#ffffff;stop-opacity:0"
         offset="1" />
    </linearGradient>
    <linearGradient
       gradientTransform="matrix(0.71428567,0,0,0.69565208,5.4363931,-375.51801)"
       inkscape:collect="always"
       xlink:href="#linearGradient1748"
       id="linearGradient1718-5"
       x1="196.63319"
       y1="330.93137"
       x2="196.63321"
       y2="309.85748"
       gradientUnits="userSpaceOnUse" />
  </defs>
  <sodipodi:namedview
     pagecolor="#ffffff"
     bordercolor="#666666"
     borderopacity="1"
     objecttolerance="10"
     gridtolerance="10"
     guidetolerance="10"
     inkscape:pageopacity="0"
     inkscape:pageshadow="2"
     inkscape:window-width="1366"
     inkscape:window-height="691"
     id="namedview20"
     showgrid="false"
     inkscape:zoom="8"
     inkscape:cx="-8.350236"
     inkscape:cy="33.003889"
     inkscape:window-x="0"
     inkscape:window-y="0"
     inkscape:window-maximized="1"
     inkscape:current-layer="g882" />
  <g
     transform="matrix(1.4836578,0,0,1.4836578,-18.656975,-503.06763)"
     id="g921">
    <g
       id="g866"
       transform="matrix(0.91330589,0,0,0.90000569,2.4925618,35.52286)">
      <g
         transform="matrix(1.2710655,0,0,1.2761094,-1.8895507,-104.07869)"
         id="g887"
         style="stroke-width:0.09361701">
        <g
           id="g882"
           transform="matrix(0.09398591,0,0,0.09398591,10.705927,337.20349)"
           style="stroke-width:0.09361701">
          <rect
             height="199.8114"
             ry="14.283406"
             width="247.10371"
             x="19.027397"
             y="148.29124"
             id="rect7-8"
             style="opacity:0.2;fill:#000000;fill-opacity:1;stroke:none;stroke-width:0.56659174;stroke-linecap:round;stroke-linejoin:round;stroke-miterlimit:4;stroke-dasharray:none;stroke-dashoffset:0;stroke-opacity:0.78431373;paint-order:normal"
             rx="14.665998" />
          <rect
             height="199.8114"
             ry="14.283406"
             width="247.10371"
             x="19.027391"
             y="142.04715"
             id="rect7"
             style="opacity:1;fill:url(#linearGradient4558);fill-opacity:1;stroke:none;stroke-width:0.5665918;stroke-linecap:round;stroke-linejoin:round;stroke-miterlimit:4;stroke-dasharray:none;stroke-dashoffset:0;stroke-opacity:0.78431373;paint-order:normal"
             rx="14.665998" />
          <g
             style="fill:#ffffff;stroke-width:0.09361701"
             id="g17"
             transform="matrix(4.7749214,0,0,4.6395842,-1364.3887,-2181.8361)">
            <path
               inkscape:connector-curvature="0"
               style="opacity:0.75;fill:#ffffff;fill-opacity:1;stroke-width:0.09361701"
               id="path9"
               d="m 294.90044,506.26511 v 1 4 h 1 v -4 h 4 v -1 z" />
            <path
               inkscape:connector-curvature="0"
               style="opacity:0.75;fill:#ffffff;fill-opacity:1;stroke-width:0.09361701"
               id="path11"
               d="m 294.90044,538.56511 h 1 4 v -1 h -4 v -4 h -1 z" />
            <path
               inkscape:connector-curvature="0"
               style="opacity:0.75;fill:#ffffff;fill-opacity:1;stroke-width:0.09361701"
               id="path13"
               d="m 336.2007,538.06511 v -1 -4 h -1 v 4 h -4 v 1 z" />
            <path
               inkscape:connector-curvature="0"
               style="opacity:0.75;fill:#ffffff;fill-opacity:1;stroke-width:0.09361701"
               id="path15"
               d="m 336.3007,506.56472 h -1 -4 v 1 h 4 v 4 h 1 z" />
          </g>
          <path
             inkscape:connector-curvature="0"
             style="opacity:0.75;fill:#ffffff;fill-opacity:1;stroke-width:0.58315212"
             id="path19"
             d="m 188.13988,209.38905 c -2.57428,-2.62622 -5.67927,-3.93965 -9.31762,-3.93965 h -11.5316 l -2.62474,-7.1445 c -0.6521,-1.71581 -1.84438,-3.19569 -3.57831,-4.43947 -1.73318,-1.24329 -3.50935,-1.86546 -5.32849,-1.86546 h -26.35845 c -1.81915,0 -3.59538,0.62249 -5.32862,1.86546 -1.73313,1.24378 -2.92553,2.72366 -3.57763,4.43947 l -2.62542,7.1445 h -11.5316 c -3.63835,0 -6.74395,1.31343 -9.318155,3.93965 -2.573607,2.62697 -3.860737,5.79619 -3.860737,9.50897 v 47.07076 c 0,3.71281 1.28713,6.88272 3.860737,9.50828 2.574205,2.62699 5.679805,3.94041 9.318155,3.94041 h 72.48431 c 3.63822,0 6.74329,-1.31342 9.31756,-3.94041 C 190.71279,272.8515 192,269.68159 192,265.96878 v -47.07076 c 4.3e-4,-3.71278 -1.28652,-6.882 -3.86012,-9.50897 z m -29.26699,49.6719 c -4.51277,4.60587 -9.94374,6.90847 -16.29333,6.90847 -6.34967,0 -11.77995,-2.3026 -16.29341,-6.90847 -4.5135,-4.60524 -6.76979,-10.14784 -6.76979,-16.62687 0,-6.47961 2.25696,-12.02114 6.76979,-16.62694 4.51279,-4.60586 9.94374,-6.90848 16.29341,-6.90848 6.34959,0 11.77996,2.30325 16.29333,6.90848 4.51345,4.60517 6.76992,10.14733 6.76992,16.62694 0,6.47903 -2.25709,12.02101 -6.76992,16.62687 z m -16.29333,-31.75727 c -4.0844,0 -7.57614,1.47982 -10.47642,4.43955 -2.90029,2.95962 -4.35038,6.52277 -4.35038,10.69085 0,4.16795 1.45009,7.73116 4.35038,10.69078 2.90028,2.95903 6.39202,4.43891 10.47642,4.43891 4.08372,0 7.57613,-1.47988 10.47643,-4.43891 2.90022,-2.95962 4.35036,-6.52283 4.35036,-10.69078 0,-4.16808 -1.45014,-7.73123 -4.35036,-10.69085 -2.9003,-2.95973 -6.39271,-4.43955 -10.47643,-4.43955 z" />
          <rect
             height="195.57472"
             ry="13.980546"
             width="242.75357"
             x="21.202469"
             y="-339.7402"
             id="rect7-5-7"
             style="opacity:0.4;fill:none;fill-opacity:1;stroke:url(#linearGradient1718-5);stroke-width:4.29305267;stroke-linecap:round;stroke-linejoin:round;stroke-miterlimit:4;stroke-dasharray:none;stroke-dashoffset:0;stroke-opacity:1;paint-order:normal"
             rx="14.407811"
             transform="scale(1,-1)" />
        </g>
      </g>
    </g>
  </g>
</svg>
