<?xml version="1.0" encoding="UTF-8" standalone="no"?>
<svg
   xmlns:dc="http://purl.org/dc/elements/1.1/"
   xmlns:cc="http://creativecommons.org/ns#"
   xmlns:rdf="http://www.w3.org/1999/02/22-rdf-syntax-ns#"
   xmlns:svg="http://www.w3.org/2000/svg"
   xmlns="http://www.w3.org/2000/svg"
   xmlns:xlink="http://www.w3.org/1999/xlink"
   xmlns:sodipodi="http://sodipodi.sourceforge.net/DTD/sodipodi-0.dtd"
   xmlns:inkscape="http://www.inkscape.org/namespaces/inkscape"
   width="48"
   height="48"
   version="1"
   id="svg20"
   sodipodi:docname="applications-utilities.svg"
   inkscape:version="0.92.4 5da689c313, 2019-01-14">
  <metadata
     id="metadata26">
    <rdf:RDF>
      <cc:Work
         rdf:about="">
        <dc:format>image/svg+xml</dc:format>
        <dc:type
           rdf:resource="http://purl.org/dc/dcmitype/StillImage" />
        <dc:title />
      </cc:Work>
    </rdf:RDF>
  </metadata>
  <defs
     id="defs24">
    <linearGradient
       inkscape:collect="always"
       id="linearGradient894">
      <stop
         style="stop-color:#454545;stop-opacity:1"
         offset="0"
         id="stop890" />
      <stop
         style="stop-color:#636363;stop-opacity:1"
         offset="1"
         id="stop892" />
    </linearGradient>
    <linearGradient
       inkscape:collect="always"
       xlink:href="#linearGradient894"
       id="linearGradient896"
       x1="31.661018"
       y1="56.949154"
       x2="33.423729"
       y2="9.4915257"
       gradientUnits="userSpaceOnUse"
       gradientTransform="matrix(0.7142857,0,0,0.79999998,1.1428573,-1.5999997)" />
    <filter
       inkscape:collect="always"
       style="color-interpolation-filters:sRGB"
       id="filter1491"
       x="-0.045254238"
       width="1.0905085"
       y="-0.089000002"
       height="1.178">
      <feGaussianBlur
         inkscape:collect="always"
         stdDeviation="1.0559322"
         id="feGaussianBlur1493" />
    </filter>
  </defs>
  <sodipodi:namedview
     pagecolor="#ffffff"
     bordercolor="#666666"
     borderopacity="1"
     objecttolerance="10"
     gridtolerance="10"
     guidetolerance="10"
     inkscape:pageopacity="0"
     inkscape:pageshadow="2"
     inkscape:window-width="1366"
     inkscape:window-height="691"
     id="namedview22"
     showgrid="false"
     showguides="true"
     inkscape:guide-bbox="true"
     inkscape:zoom="7.375"
     inkscape:cx="27.319116"
     inkscape:cy="29.686265"
     inkscape:window-x="0"
     inkscape:window-y="0"
     inkscape:window-maximized="1"
     inkscape:current-layer="svg20" />
  <path
     style="opacity:0.2;fill:#000000;fill-opacity:1;stroke-width:0.75592893"
     d="m 6.0000005,5 c -1.108,0 -2,0.991111 -2,2.222222 v 26.666667 8.888889 c 0,1.231111 0.892,2.222222 2,2.222222 H 42 c 1.108,0 2,-0.991111 2,-2.222222 V 33.888889 7.222222 C 44,5.991111 43.108,5 42,5 Z"
     id="path4-7"
     inkscape:connector-curvature="0" />
  <path
     style="fill:url(#linearGradient896);fill-opacity:1;stroke-width:0.75592893"
     d="m 6.0000004,4.0000003 c -1.108,0 -2,0.9911114 -2,2.2222224 v 26.6666663 8.888889 c 0,1.231111 0.892,2.222222 2,2.222222 H 42 c 1.107999,0 1.999999,-0.991111 1.999999,-2.222222 V 32.888889 6.2222227 c 0,-1.231111 -0.892,-2.2222224 -1.999999,-2.2222224 z"
     id="path4"
     inkscape:connector-curvature="0" />
  <rect
     style="opacity:0.2;stroke:#000000;stroke-width:0;stroke-linejoin:round"
     width="40"
     height="2.3999999"
     x="4"
     y="24"
     id="rect6" />
  <rect
     style="opacity:0.2;stroke:#000000;stroke-width:0;stroke-linejoin:round"
     width="40"
     height="2.3999999"
     x="4"
     y="9.6000004"
     id="rect8" />
  <rect
     style="opacity:0.2;stroke:#000000;stroke-width:0;stroke-linejoin:round"
     width="40"
     height="2.3999999"
     x="4"
     y="19.200001"
     id="rect10" />
  <path
     style="opacity:0.4;fill:#ffffff;stroke-width:0.75592893"
     d="m 6.000558,4.0000003 c -1.1079999,0 -2.0005579,0.9907643 -2.0005579,2.221875 v 0.8000002 c 0,-1.2311114 0.892558,-2.2218752 2.0005579,-2.2218752 h 35.998883 c 1.108001,0 2.000558,0.9907638 2.000558,2.2218752 V 6.2218753 c 0,-1.2311114 -0.892557,-2.221875 -2.000558,-2.221875 z"
     id="path12"
     inkscape:connector-curvature="0" />
  <rect
     style="opacity:0.2;stroke:#000000;stroke-width:0;stroke-linejoin:round"
     width="40"
     height="2.3999999"
     x="4"
     y="14.400002"
     id="rect14" />
  <rect
     style="opacity:0.2;stroke:#000000;stroke-width:0;stroke-linejoin:round"
     width="40"
     height="2.3999999"
     x="4"
     y="39.199715"
     id="rect6-6" />
  <rect
     style="opacity:0.2;stroke:#000000;stroke-width:0;stroke-linejoin:round"
     width="40"
     height="2.3999999"
     x="4"
     y="34.399715"
     id="rect10-9" />
  <rect
     style="opacity:0.2;stroke:#000000;stroke-width:0;stroke-linejoin:round"
     width="40"
     height="2.3999999"
     x="4"
     y="29.599716"
     id="rect14-1" />
  <rect
     style="opacity:0.2;stroke:#000000;stroke-width:0;stroke-linejoin:round"
     width="40"
     height="2.3999999"
     x="4"
     y="5.5999994"
     id="rect8-7" />
  <path
     style="fill:none;stroke:#16c344;stroke-width:1.51185787;stroke-linecap:butt;stroke-linejoin:miter;stroke-miterlimit:4;stroke-dasharray:none;stroke-opacity:1"
     d="M 4.0000001,26.4 H 13.636803 L 20.610169,12.331458 26.808717,35.111118 30.779661,26.4 h 13.220338"
     id="path1454"
     inkscape:connector-curvature="0"
     sodipodi:nodetypes="cccccc" />
  <path
     style="fill:none;stroke:#16c344;stroke-width:2;stroke-linecap:butt;stroke-linejoin:miter;stroke-miterlimit:4;stroke-dasharray:none;stroke-opacity:1;filter:url(#filter1491)"
     d="M 4,35 H 17.491525 L 27.254237,17.414322 35.932204,45.888897 41.491526,35 H 60"
     id="path1454-3"
     inkscape:connector-curvature="0"
     sodipodi:nodetypes="cccccc"
     transform="matrix(0.65228187,0,0,0.8058262,3.12698,-1.7844082)" />
</svg>
