<?xml version="1.0" encoding="UTF-8" standalone="no"?>
<svg
   xmlns:dc="http://purl.org/dc/elements/1.1/"
   xmlns:cc="http://creativecommons.org/ns#"
   xmlns:rdf="http://www.w3.org/1999/02/22-rdf-syntax-ns#"
   xmlns:svg="http://www.w3.org/2000/svg"
   xmlns="http://www.w3.org/2000/svg"
   xmlns:xlink="http://www.w3.org/1999/xlink"
   xmlns:sodipodi="http://sodipodi.sourceforge.net/DTD/sodipodi-0.dtd"
   xmlns:inkscape="http://www.inkscape.org/namespaces/inkscape"
   width="48"
   height="48"
   version="1.1"
   viewBox="0 0 36 36"
   id="svg26"
   sodipodi:docname="ark.svg"
   inkscape:version="0.92.4 5da689c313, 2019-01-14">
  <metadata
     id="metadata32">
    <rdf:RDF>
      <cc:Work
         rdf:about="">
        <dc:format>image/svg+xml</dc:format>
        <dc:type
           rdf:resource="http://purl.org/dc/dcmitype/StillImage" />
        <dc:title />
      </cc:Work>
    </rdf:RDF>
  </metadata>
  <defs
     id="defs30">
    <linearGradient
       inkscape:collect="always"
       id="linearGradient921">
      <stop
         style="stop-color:#ffffff;stop-opacity:1;"
         offset="0"
         id="stop917" />
      <stop
         style="stop-color:#ffffff;stop-opacity:0;"
         offset="1"
         id="stop919" />
    </linearGradient>
    <linearGradient
       inkscape:collect="always"
       xlink:href="#linearGradient1105"
       id="linearGradient1107"
       x1="194.61057"
       y1="16.483648"
       x2="198.72252"
       y2="365.54987"
       gradientUnits="userSpaceOnUse"
       gradientTransform="matrix(0.08846373,0,0,0.08914858,1.0303125,0.12264176)" />
    <linearGradient
       inkscape:collect="always"
       id="linearGradient1105">
      <stop
         style="stop-color:#58d46a;stop-opacity:1"
         offset="0"
         id="stop1101" />
      <stop
         style="stop-color:#38cc4e;stop-opacity:1"
         offset="1"
         id="stop1103" />
    </linearGradient>
    <linearGradient
       inkscape:collect="always"
       xlink:href="#linearGradient921"
       id="linearGradient923"
       x1="192.74069"
       y1="34.354218"
       x2="193.1534"
       y2="50.482765"
       gradientUnits="userSpaceOnUse"
       gradientTransform="matrix(0.08833699,0,0,0.08906672,1.0546235,0.13905268)" />
  </defs>
  <sodipodi:namedview
     pagecolor="#ffffff"
     bordercolor="#666666"
     borderopacity="1"
     objecttolerance="10"
     gridtolerance="10"
     guidetolerance="10"
     inkscape:pageopacity="0"
     inkscape:pageshadow="2"
     inkscape:window-width="1366"
     inkscape:window-height="691"
     id="namedview28"
     showgrid="false"
     inkscape:zoom="20.859649"
     inkscape:cx="23.055919"
     inkscape:cy="36.911262"
     inkscape:window-x="0"
     inkscape:window-y="0"
     inkscape:window-maximized="1"
     inkscape:current-layer="svg26" />
  <rect
     style="opacity:0.2;fill:#000000;fill-opacity:1;stroke:none;stroke-width:0.6660412;stroke-linecap:round;stroke-linejoin:round;stroke-miterlimit:4;stroke-dasharray:none;stroke-opacity:1;paint-order:stroke fill markers"
     id="rect837-9"
     width="25.5"
     height="30"
     x="5.25"
     y="3.75"
     rx="1.8824782"
     ry="1.8970517" />
  <rect
     style="opacity:1;fill:url(#linearGradient1107);fill-opacity:1;stroke:none;stroke-width:0.6660412;stroke-linecap:round;stroke-linejoin:round;stroke-miterlimit:4;stroke-dasharray:none;stroke-opacity:1;paint-order:stroke fill markers"
     id="rect837"
     width="25.5"
     height="30"
     x="5.25"
     y="3"
     rx="1.8824782"
     ry="1.8970518" />
  <path
     style="fill-opacity:0.66666697;fill-rule:evenodd;stroke-width:0.05866934"
     inkscape:connector-curvature="0"
     d="M 16.1096,3.5291064 V 13.768376 h -0.01077 v 3.352704 c -0.220005,2.159174 4.083996,2.159174 3.855707,0 v -1.658968 h 0.0013 V 3.5291064 h -3.846098 z"
     id="path11" />
  <g
     transform="matrix(0.65277925,0,0,0.65151432,-248.53119,-323.07371)"
     style="fill:#ffffff;stroke-width:0.08996344"
     id="g25">
    <rect
       rx="0.087458909"
       style="opacity:0.92900002;stroke-width:0.08996344"
       height="2.197578"
       ry="0.08822985"
       width="4.395155"
       x="406.2309"
       y="502.52133"
       id="rect13" />
    <rect
       rx="0.087458909"
       style="opacity:0.92900002;stroke-width:0.08996344"
       height="2.197578"
       ry="0.08822985"
       width="4.395155"
       x="406.22171"
       y="505.69974"
       id="rect15" />
    <rect
       rx="0.087458909"
       style="opacity:0.92900002;stroke-width:0.08996344"
       height="2.197578"
       ry="0.08822985"
       width="4.395155"
       x="406.19412"
       y="508.83987"
       id="rect17" />
    <rect
       rx="0.087458909"
       style="opacity:0.92900002;stroke-width:0.08996344"
       height="2.197578"
       ry="0.08822985"
       width="4.395155"
       x="406.24228"
       y="512.10864"
       id="rect19" />
    <rect
       rx="0.087458909"
       style="opacity:0.92900002;stroke-width:0.08996344"
       height="2.197578"
       ry="0.08822985"
       width="4.395155"
       x="406.24228"
       y="515.32019"
       id="rect21" />
    <rect
       rx="0.087458909"
       style="opacity:0.92900002;stroke-width:0.08996344"
       height="2.197578"
       ry="0.08822985"
       width="4.395155"
       x="406.24222"
       y="518.60736"
       id="rect23" />
  </g>
  <path
     style="fill-opacity:0.66666697;stroke-width:0.05866934"
     inkscape:connector-curvature="0"
     d="m 19.140162,18.637398 v -0.903522 c 0,-0.251728 -0.203823,-0.455886 -0.455131,-0.455886 h -1.264506 c -0.251306,0 -0.455175,0.204219 -0.455175,0.455886 v 0.903079 l -0.703318,2.06973 c -0.196787,0.576847 -0.102369,1.217744 0.252209,1.714452 0.354595,0.495794 0.929554,0.791906 1.538513,0.791906 0.609071,0 1.184092,-0.296112 1.538672,-0.791906 0.354585,-0.496708 0.448886,-1.137605 0.252156,-1.713998 z m -0.293759,3.249921 c -0.364857,0.511477 -1.222446,0.511477 -1.587356,0 -0.182883,-0.256238 -0.231572,-0.586743 -0.13051,-0.88457 l 0.236047,-0.694213 h 1.376279 l 0.236103,0.694665 c 0.101109,0.297375 0.05236,0.62788 -0.130563,0.884118 z"
     id="path27" />
  <path
     style="fill:#f0f5f1;stroke-width:0.05866934"
     inkscape:connector-curvature="0"
     d="m 19.140162,18.33068 v -0.903522 c 0,-0.251726 -0.203823,-0.455886 -0.455131,-0.455886 h -1.264506 c -0.251306,0 -0.455175,0.20421 -0.455175,0.455886 v 0.903079 l -0.703318,2.069731 c -0.196787,0.576837 -0.102369,1.217743 0.252209,1.714441 0.354595,0.495803 0.929554,0.791917 1.538513,0.791917 0.609071,0 1.184092,-0.296114 1.538672,-0.791917 0.354585,-0.496698 0.448886,-1.137604 0.252156,-1.713998 z m -0.293759,3.24991 c -0.364857,0.511478 -1.222446,0.511478 -1.587356,0 -0.182883,-0.256216 -0.231572,-0.586732 -0.13051,-0.884558 l 0.236047,-0.694212 h 1.376279 l 0.236103,0.694665 c 0.101109,0.297373 0.05236,0.627889 -0.130563,0.884105 z"
     id="path31" />
  <rect
     style="opacity:0.4;fill:none;fill-opacity:1;stroke:url(#linearGradient923);stroke-width:0.66525817;stroke-linecap:round;stroke-linejoin:round;stroke-miterlimit:4;stroke-dasharray:none;stroke-opacity:1;paint-order:stroke fill markers"
     id="rect837-5"
     width="24.834743"
     height="29.334742"
     x="5.5826283"
     y="3.3326292"
     rx="1.5240562"
     ry="1.5366458" />
</svg>
