<?xml version="1.0" encoding="UTF-8" standalone="no"?>
<svg
   xmlns:dc="http://purl.org/dc/elements/1.1/"
   xmlns:cc="http://creativecommons.org/ns#"
   xmlns:rdf="http://www.w3.org/1999/02/22-rdf-syntax-ns#"
   xmlns:svg="http://www.w3.org/2000/svg"
   xmlns="http://www.w3.org/2000/svg"
   xmlns:xlink="http://www.w3.org/1999/xlink"
   xmlns:sodipodi="http://sodipodi.sourceforge.net/DTD/sodipodi-0.dtd"
   xmlns:inkscape="http://www.inkscape.org/namespaces/inkscape"
   width="48"
   height="48"
   version="1"
   id="svg12"
   sodipodi:docname="ciano.svg"
   inkscape:version="0.92.4 5da689c313, 2019-01-14">
  <metadata
     id="metadata18">
    <rdf:RDF>
      <cc:Work
         rdf:about="">
        <dc:format>image/svg+xml</dc:format>
        <dc:type
           rdf:resource="http://purl.org/dc/dcmitype/StillImage" />
        <dc:title />
      </cc:Work>
    </rdf:RDF>
  </metadata>
  <defs
     id="defs16">
    <linearGradient
       inkscape:collect="always"
       id="linearGradient840">
      <stop
         style="stop-color:#1b9dce;stop-opacity:1;"
         offset="0"
         id="stop836" />
      <stop
         style="stop-color:#27afe3;stop-opacity:1"
         offset="1"
         id="stop838" />
    </linearGradient>
    <linearGradient
       inkscape:collect="always"
       xlink:href="#linearGradient840"
       id="linearGradient842"
       x1="-58"
       y1="-32"
       x2="-6"
       y2="-32"
       gradientUnits="userSpaceOnUse"
       gradientTransform="matrix(0.76923078,0,0,0.76923078,0.61538378,0.61538468)" />
  </defs>
  <sodipodi:namedview
     pagecolor="#ffffff"
     bordercolor="#666666"
     borderopacity="1"
     objecttolerance="10"
     gridtolerance="10"
     guidetolerance="10"
     inkscape:pageopacity="0"
     inkscape:pageshadow="2"
     inkscape:window-width="1366"
     inkscape:window-height="691"
     id="namedview14"
     showgrid="false"
     inkscape:zoom="10.791667"
     inkscape:cx="9.1737452"
     inkscape:cy="24"
     inkscape:window-x="0"
     inkscape:window-y="0"
     inkscape:window-maximized="1"
     inkscape:current-layer="svg12" />
  <rect
     style="opacity:0.2;fill:#000000;fill-opacity:1;stroke-width:0.76923078"
     width="40"
     height="40"
     x="-45"
     y="-44"
     rx="20"
     ry="20"
     transform="matrix(0,-1,-1,0,0,0)"
     id="rect2-8" />
  <rect
     style="fill:url(#linearGradient842);fill-opacity:1;stroke-width:0.76923078"
     width="40"
     height="40"
     x="-44"
     y="-44"
     rx="20"
     ry="20"
     transform="matrix(0,-1,-1,0,0,0)"
     id="rect2" />
  <path
     style="opacity:0.4;fill:#ffffff;stroke-width:0.76923078"
     d="M 24,4 C 12.920171,4 4,12.920171 4,24 4,24.08532 4.00893,24.168302 4.013521,24.252404 4.2866851,13.414126 13.093551,4.7692307 24,4.7692307 c 10.906449,0 19.713314,8.6448953 19.986479,19.4831733 C 43.991034,24.168302 44,24.085323 44,24 44,12.920171 35.079829,4 24,4 Z"
     id="path4"
     inkscape:connector-curvature="0" />
  <path
     style="opacity:0.2;stroke-width:0.76923078"
     d="m 24.001502,10.922419 c -1.293928,-0.01338 -2.578851,0.17814 -3.826622,0.519832 -5.810366,1.558615 -10.062619,7.309363 -9.974459,13.327825 H 7.0769229 c 1.5922792,2.34128 4.6153851,6.921574 4.6153851,6.921574 0,0 4.615384,-6.92381 4.615384,-6.924579 H 13.29387 c -0.01108,-2.520462 0.934883,-5.05506 2.612681,-6.936599 3.153429,-3.791384 8.863663,-5.369668 13.255709,-2.148438 1.392302,1.822462 4.428922,-0.24553 2.862079,-2.047775 -2.307837,-1.797278 -5.109115,-2.705686 -8.022837,-2.71184 z m 12.30619,6.923077 c 0,0 -4.615384,6.922308 -4.615384,6.923077 h 3.013822 c 0.01108,2.520461 -0.934883,5.056563 -2.612681,6.938101 -3.153429,3.791385 -8.863663,5.369668 -13.255709,2.148437 -1.392302,-1.822461 -4.428922,0.24553 -2.862079,2.047777 2.307837,1.797276 5.109115,2.705685 8.022837,2.711839 1.293928,0.01339 2.578851,-0.178139 3.826622,-0.519831 5.810366,-1.558616 10.062619,-7.309364 9.974459,-13.327825 h 3.123498 c -1.592279,-2.34128 -4.615385,-6.921575 -4.615385,-6.921575 z"
     id="path8"
     inkscape:connector-curvature="0" />
  <path
     style="fill:#ffffff;fill-opacity:1;stroke-width:0.76923078"
     d="m 24.001502,10.153846 c -1.293928,-0.01338 -2.578851,0.17814 -3.826622,0.519832 -5.810366,1.558615 -10.062619,7.309363 -9.974459,13.327824 H 7.0769229 c 1.5922792,2.34128 4.6153851,6.921575 4.6153851,6.921575 0,0 4.615384,-6.92381 4.615384,-6.924579 H 13.29387 c -0.01108,-2.520462 0.934883,-5.05506 2.612681,-6.936599 3.153429,-3.791385 8.863663,-5.369668 13.255709,-2.148438 1.392302,1.822462 4.428922,-0.24553 2.862079,-2.047775 C 29.716502,11.068409 26.915224,10.16 24.001502,10.153846 Z m 12.30619,6.923077 c 0,0 -4.615384,6.922308 -4.615384,6.923077 h 3.013822 c 0.01108,2.520461 -0.934883,5.056562 -2.612681,6.938101 -3.153429,3.791385 -8.863663,5.369668 -13.255709,2.148438 -1.392302,-1.822462 -4.428922,0.24553 -2.862079,2.047775 2.307837,1.797277 5.109115,2.705686 8.022837,2.71184 1.293928,0.01338 2.578851,-0.17814 3.826622,-0.519832 5.810366,-1.558615 10.062619,-7.309363 9.974459,-13.327824 h 3.123498 c -1.592279,-2.34128 -4.615385,-6.921575 -4.615385,-6.921575 z"
     id="path10"
     inkscape:connector-curvature="0" />
</svg>
