<?xml version="1.0" encoding="UTF-8" standalone="no"?>
<svg
   xmlns:dc="http://purl.org/dc/elements/1.1/"
   xmlns:cc="http://creativecommons.org/ns#"
   xmlns:rdf="http://www.w3.org/1999/02/22-rdf-syntax-ns#"
   xmlns:svg="http://www.w3.org/2000/svg"
   xmlns="http://www.w3.org/2000/svg"
   xmlns:xlink="http://www.w3.org/1999/xlink"
   xmlns:sodipodi="http://sodipodi.sourceforge.net/DTD/sodipodi-0.dtd"
   xmlns:inkscape="http://www.inkscape.org/namespaces/inkscape"
   width="48"
   height="48"
   version="1"
   id="svg12"
   sodipodi:docname="com.github.artemanufrij.webpin.svg"
   inkscape:version="0.92.4 5da689c313, 2019-01-14">
  <metadata
     id="metadata18">
    <rdf:RDF>
      <cc:Work
         rdf:about="">
        <dc:format>image/svg+xml</dc:format>
        <dc:type
           rdf:resource="http://purl.org/dc/dcmitype/StillImage" />
        <dc:title />
      </cc:Work>
    </rdf:RDF>
  </metadata>
  <defs
     id="defs16">
    <linearGradient
       inkscape:collect="always"
       id="linearGradient832">
      <stop
         style="stop-color:#2983f1;stop-opacity:1"
         offset="0"
         id="stop828" />
      <stop
         style="stop-color:#4f99f3;stop-opacity:1"
         offset="1"
         id="stop830" />
    </linearGradient>
    <linearGradient
       inkscape:collect="always"
       xlink:href="#linearGradient832"
       id="linearGradient834"
       x1="24.372881"
       y1="37.830509"
       x2="24"
       y2="9"
       gradientUnits="userSpaceOnUse"
       gradientTransform="matrix(0.90909092,0,0,0.86666668,2.1818181,3.2000002)" />
  </defs>
  <sodipodi:namedview
     pagecolor="#ffffff"
     bordercolor="#666666"
     borderopacity="1"
     objecttolerance="10"
     gridtolerance="10"
     guidetolerance="10"
     inkscape:pageopacity="0"
     inkscape:pageshadow="2"
     inkscape:window-width="1366"
     inkscape:window-height="691"
     id="namedview14"
     showgrid="false"
     inkscape:zoom="6.9532167"
     inkscape:cx="7.380832"
     inkscape:cy="31.963831"
     inkscape:window-x="0"
     inkscape:window-y="0"
     inkscape:window-maximized="1"
     inkscape:current-layer="svg12" />
  <path
     d="M 4.0212727,27.892267 C 4.0137273,28.043934 4,28.193 4,28.3464 4,33.568067 8.4771821,37.8 14,37.8 H 35.25 C 40.082727,37.8 44,34.096733 44,29.527667 44,29.377733 43.98727,29.2304 43.97909,29.0822 c -0.234547,4.371467 -4.047275,7.851133 -8.729093,7.851133 H 14 c -5.3753636,0 -9.7481818,-4.012666 -9.9790909,-9.041066 z"
     id="path2"
     inkscape:connector-curvature="0"
     style="opacity:0.2;stroke-width:0.88762534" />
  <path
     style="fill:url(#linearGradient834);fill-opacity:1;stroke-width:0.88762534"
     d="M 24,11 C 18.822727,11 14.413636,13.996935 12.515454,18.238401 7.6960909,18.916134 4,22.800533 4,27.545534 4,32.7672 8.4771821,37 14,37 H 35.25 C 40.082727,37 44,33.295867 44,28.727667 44,24.481001 40.622727,21.001334 36.265454,20.528134 35.129091,15.108001 30.067273,11 24,11 Z"
     id="path4"
     inkscape:connector-curvature="0" />
  <path
     d="M 24,11 C 18.822727,11 14.413636,13.996067 12.515454,18.238401 7.6960909,18.915267 4,22.801401 4,27.5464 c 0,0.139534 0.015,0.274734 0.021273,0.412534 0.227909,-4.536133 3.83,-8.198666 8.494181,-8.853867 1.898182,-4.242332 6.307273,-7.2384 11.484546,-7.2384 6.067273,0 11.129091,4.107135 12.265454,9.528134 4.203637,0.455866 7.485455,3.712799 7.713637,7.754067 C 43.986364,29.008467 44,28.8698 44,28.727667 44,24.481001 40.622727,21.001334 36.265454,20.528134 35.129091,15.107134 30.067273,11 24,11 Z"
     id="path6"
     style="opacity:0.4;fill:#ffffff;stroke-width:0.88762534"
     inkscape:connector-curvature="0" />
  <path
     style="opacity:0.2;fill:none;stroke:#000000;stroke-width:3.55050135;stroke-linecap:round;stroke-linejoin:round"
     d="m 12.181818,15.345821 5.454545,19.066667 6.363636,-14.287866 6.363637,14.287866 5.454545,-19.066667"
     id="path8"
     inkscape:connector-curvature="0" />
  <path
     style="fill:none;stroke:#ffffff;stroke-width:3.55050135;stroke-linecap:round;stroke-linejoin:round;stroke-opacity:1"
     d="m 12.181818,14.478756 5.454545,19.066665 6.363636,-14.287865 6.363637,14.287865 5.454545,-19.066665"
     id="path10"
     inkscape:connector-curvature="0" />
</svg>
