<?xml version="1.0" encoding="UTF-8" standalone="no"?>
<svg
   xmlns:dc="http://purl.org/dc/elements/1.1/"
   xmlns:cc="http://creativecommons.org/ns#"
   xmlns:rdf="http://www.w3.org/1999/02/22-rdf-syntax-ns#"
   xmlns:svg="http://www.w3.org/2000/svg"
   xmlns="http://www.w3.org/2000/svg"
   xmlns:xlink="http://www.w3.org/1999/xlink"
   xmlns:sodipodi="http://sodipodi.sourceforge.net/DTD/sodipodi-0.dtd"
   xmlns:inkscape="http://www.inkscape.org/namespaces/inkscape"
   width="48"
   height="48"
   id="svg2"
   version="1.1"
   sodipodi:docname="com.github.muriloventuroso.givemelyrics.svg"
   inkscape:version="0.92.4 5da689c313, 2019-01-14">
  <sodipodi:namedview
     pagecolor="#ffffff"
     bordercolor="#666666"
     borderopacity="1"
     objecttolerance="10"
     gridtolerance="10"
     guidetolerance="10"
     inkscape:pageopacity="0"
     inkscape:pageshadow="2"
     inkscape:window-width="1366"
     inkscape:window-height="691"
     id="namedview47"
     showgrid="false"
     inkscape:zoom="5.2149125"
     inkscape:cx="-12.54017"
     inkscape:cy="21.090504"
     inkscape:window-x="0"
     inkscape:window-y="0"
     inkscape:window-maximized="1"
     inkscape:current-layer="svg2" />
  <defs
     id="defs4">
    <linearGradient
       id="linearGradient915"
       inkscape:collect="always">
      <stop
         id="stop910"
         offset="0"
         style="stop-color:#ffffff;stop-opacity:1" />
      <stop
         id="stop913"
         offset="1"
         style="stop-color:#ffffff;stop-opacity:0" />
    </linearGradient>
    <linearGradient
       id="linearGradient902">
      <stop
         id="stop898"
         offset="0"
         style="stop-color:#770087;stop-opacity:1;" />
      <stop
         id="stop900"
         offset="1"
         style="stop-color:#452981;stop-opacity:1" />
    </linearGradient>
    <linearGradient
       id="linearGradient899">
      <stop
         id="stop895"
         style="stop-color:#f282f1;stop-opacity:1"
         offset="0" />
      <stop
         id="stop897"
         style="stop-color:#a56de2;stop-opacity:1"
         offset="1" />
    </linearGradient>
    <linearGradient
       id="linearGradient916">
      <stop
         id="stop912"
         style="stop-color:#ffffff;stop-opacity:1"
         offset="0" />
      <stop
         id="stop914"
         style="stop-color:#fafafa;stop-opacity:1"
         offset="1" />
    </linearGradient>
    <linearGradient
       id="linearGradient3688-166-749-654">
      <stop
         id="stop3088"
         style="stop-color:#181818;stop-opacity:1"
         offset="0" />
      <stop
         id="stop3090"
         style="stop-color:#181818;stop-opacity:0"
         offset="1" />
    </linearGradient>
    <linearGradient
       id="linearGradient3688-464-309-604">
      <stop
         id="stop3094"
         style="stop-color:#181818;stop-opacity:1"
         offset="0" />
      <stop
         id="stop3096"
         style="stop-color:#181818;stop-opacity:0"
         offset="1" />
    </linearGradient>
    <linearGradient
       id="linearGradient3702-501-757-795">
      <stop
         id="stop3100"
         style="stop-color:#181818;stop-opacity:0"
         offset="0" />
      <stop
         id="stop3102"
         style="stop-color:#181818;stop-opacity:1"
         offset="0.5" />
      <stop
         id="stop3104"
         style="stop-color:#181818;stop-opacity:0"
         offset="1" />
    </linearGradient>
    <radialGradient
       xlink:href="#linearGradient3688-166-749-654"
       id="radialGradient4730"
       gradientUnits="userSpaceOnUse"
       gradientTransform="matrix(3.2060542,2.6349059e-7,-8.2185947e-8,1.0000077,36.981009,15.99962)"
       cx="4.9964824"
       cy="43.5"
       fx="4.9964824"
       fy="43.5"
       r="2.5" />
    <radialGradient
       xlink:href="#linearGradient3688-464-309-604"
       id="radialGradient4732"
       gradientUnits="userSpaceOnUse"
       gradientTransform="matrix(3.163875,0,0,0.99999995,-29.702994,-103.00012)"
       cx="4.9929786"
       cy="43.5"
       fx="4.9929786"
       fy="43.5"
       r="2.5" />
    <linearGradient
       xlink:href="#linearGradient3702-501-757-795"
       id="linearGradient4734"
       gradientUnits="userSpaceOnUse"
       gradientTransform="matrix(1.3928572,0,0,0.71428561,-0.0214163,28.42862)"
       x1="25.058096"
       y1="47.027729"
       x2="25.058096"
       y2="39.999443" />
    <linearGradient
       gradientTransform="matrix(1.4324324,0,0,1.4362832,-7.3783796,-7.3995521)"
       gradientUnits="userSpaceOnUse"
       xlink:href="#linearGradient3924-2-2-5-8"
       id="linearGradient3381-5-4"
       y2="46.230125"
       x2="38.660378"
       y1="5.8481169"
       x1="38.660378" />
    <linearGradient
       id="linearGradient3924-2-2-5-8">
      <stop
         offset="0"
         style="stop-color:#ffffff;stop-opacity:1"
         id="stop3926-9-4-9-6" />
      <stop
         offset="0.06316455"
         style="stop-color:#ffffff;stop-opacity:0.23529412"
         id="stop3928-9-8-6-5" />
      <stop
         offset="0.95056331"
         style="stop-color:#ffffff;stop-opacity:0.15686275"
         id="stop3930-3-5-1-7" />
      <stop
         offset="1"
         style="stop-color:#ffffff;stop-opacity:0.39215687"
         id="stop3932-8-0-4-8" />
    </linearGradient>
    <linearGradient
       gradientTransform="matrix(0.66660953,0,0,0.67796609,-84.642308,0.93084702)"
       gradientUnits="userSpaceOnUse"
       xlink:href="#linearGradient916"
       id="linearGradient5809"
       y2="55.027"
       x2="161.97743"
       y1="10.027002"
       x1="161.97743" />
    <linearGradient
       y2="63.027"
       x2="161.97743"
       y1="5.1520023"
       x1="161.97743"
       gradientTransform="matrix(0.66660953,0,0,0.67796609,-84.642308,0.93084702)"
       gradientUnits="userSpaceOnUse"
       id="linearGradient910"
       xlink:href="#linearGradient899" />
    <linearGradient
       gradientUnits="userSpaceOnUse"
       y2="60"
       x2="32"
       y1="0"
       x1="32"
       id="linearGradient904"
       xlink:href="#linearGradient902" />
    <linearGradient
       y2="63.027"
       x2="161.97743"
       y1="5.1520023"
       x1="161.97743"
       gradientTransform="matrix(0.94117646,0,0,0.94915254,-73.044014,10.801587)"
       gradientUnits="userSpaceOnUse"
       id="linearGradient910-3"
       xlink:href="#linearGradient899" />
    <linearGradient
       gradientTransform="matrix(0.70827263,0,0,0.7142857,1.3352753,-46.857143)"
       inkscape:collect="always"
       xlink:href="#linearGradient915"
       id="linearGradient884-3"
       x1="30.052145"
       y1="59.613117"
       x2="29.920942"
       y2="55.20269"
       gradientUnits="userSpaceOnUse" />
    <linearGradient
       y2="63.027"
       x2="161.97743"
       y1="5.1520023"
       x1="161.97743"
       gradientTransform="matrix(0.66660953,0,0,0.67796609,-120.53129,7.0973742)"
       gradientUnits="userSpaceOnUse"
       id="linearGradient910-9"
       xlink:href="#linearGradient899" />
  </defs>
  <metadata
     id="metadata7">
    <rdf:RDF>
      <cc:Work
         rdf:about="">
        <dc:format>image/svg+xml</dc:format>
        <dc:type
           rdf:resource="http://purl.org/dc/dcmitype/StillImage" />
        <dc:title />
      </cc:Work>
    </rdf:RDF>
  </metadata>
  <rect
     width="33.997086"
     height="40"
     rx="2.0519073"
     ry="2.0868642"
     x="7.0014582"
     y="5"
     id="rect4897-2"
     style="opacity:0.2;vector-effect:none;fill:#000000;fill-opacity:1;stroke:none;stroke-width:0.67226386;stroke-linecap:butt;stroke-linejoin:miter;stroke-miterlimit:4;stroke-dasharray:none;stroke-dashoffset:0;stroke-opacity:1;" />
  <rect
     width="33.997086"
     height="40"
     rx="2.0519073"
     ry="2.0868642"
     x="7.0014563"
     y="4"
     id="rect4897"
     style="opacity:1;vector-effect:none;fill:url(#linearGradient910);fill-opacity:1;stroke:none;stroke-width:0.67226386;stroke-linecap:butt;stroke-linejoin:miter;stroke-miterlimit:4;stroke-dasharray:none;stroke-dashoffset:0;stroke-opacity:1" />
  <path
     d="m 12.001026,10.779661 h 2.098036 z m 2.405746,0 h 1.958165 z m 2.265877,0 h 1.734374 z m 2.014112,0 h 0.755293 z m 1.063005,0 h 1.678425 z m 2.014111,0 h 4.419858 z m 4.699596,0 h 3.384828 z m 3.664566,0 h 1.03503 z m -18.127013,2.033898 h 3.272934 z m 3.636593,0 h 1.566531 z m 1.846269,0 h 0.783267 z m 1.090978,0 h 1.426663 z m 1.734374,0 h 1.454637 z m 1.734375,0 h 2.321824 z m 2.629535,0 h 3.021169 z m 3.300907,0 h 2.014113 z m 2.29385,0 h 0.503528 z m -18.266881,2.019695 h 2.769406 z m 3.049144,0 h 4.531753 z m 4.811491,0 h 2.209928 z m 2.489665,0 h 2.070061 z m 2.349799,0 h 1.762348 z m 2.042085,0 2.769405,0.02841 z m 3.021168,0.02841 h 4.503779 z m -17.763352,2.019694 h 3.83241 z m 4.140122,0 h 4.140119 z m 4.419857,0 h 1.650453 z m 1.93019,0 h 3.888357 z m 4.14012,0 h 2.65751 z m 2.965221,0 h 1.063003 z m 1.34274,0 h 0.58745 z m 0.895162,0 h 1.650454 z m -19.833412,2.033899 h 1.426664 z m 1.874245,0 h 5.287045 z m -1.874245,3.389831 h 2.098036 z m 2.405746,0 h 1.930192 z m 2.265877,0 h 1.734374 z m 2.014112,0 h 0.755293 z m 1.063005,0 h 1.678425 z m 2.014111,0 h 4.391883 z m 4.699596,0 h 3.356853 z m 3.636591,0 h 1.063005 z m 1.342742,0 h 2.51764 z m -19.44178,2.033897 h 3.524698 z m 3.804436,0 h 3.776461 z m 4.056199,0 h 1.454636 z m 1.734374,0 h 3.55267 z m 3.832407,0 h 4.475806 z m 4.783517,0 h 1.650453 z m -18.210933,2.033899 h 3.83241 z m 4.140122,0 h 4.140119 z m 4.419857,0 h 1.650453 z m 1.93019,0 h 3.888357 z m 4.14012,0 h 2.65751 z m 2.965221,0 h 1.063003 z m 1.34274,0 h 0.58745 z m 0.895162,0 h 1.650454 z m -19.833412,2.033898 h 3.272934 z m 3.636593,0 h 1.566531 z m 1.846269,0 h 0.783267 z m 1.090978,0 h 1.426663 z m 1.734374,0 h 1.454637 z m 1.734375,0 h 2.321824 z m 2.629535,0 h 3.021169 z m 3.300907,0 h 2.014113 z m 2.29385,0 h 0.503528 z m -18.266881,3.37563 h 2.769406 z m 3.049144,0 h 4.531753 z m 4.811491,0 h 2.209928 z m 2.489665,0 h 2.070061 z m 2.349799,0 h 1.762348 z m 2.042085,0 2.769405,0.0284 z m 3.021168,0.0284 h 4.503779 z m -17.763352,2.019697 h 3.272934 z m 3.636593,0 h 1.566531 z m 1.846269,0 h 0.783267 z m 1.090978,0 h 1.426663 z m 1.734374,0 h 1.454637 z m 1.734375,0 h 2.321824 z m 2.629535,0 h 3.021169 z m 3.300907,0 h 2.014113 z m 2.29385,0 h 0.503528 z m -18.266881,2.033898 h 3.468751 z m 3.776462,0 h 1.090977 z m 1.370715,0 h 2.489667 z m 2.769404,0 h 3.664567 z m 3.972277,0 h 2.489668 z m 2.741431,0 h 0.531502 z m 0.81124,0 h 3.161037 z m 3.496721,0 h 1.650455 z m -18.93825,2.033898 h 3.468751 z m 3.776462,0 h 1.566532 z m 1.84627,0 h 2.461692 z m 2.741431,0 h 2.657508 z m 2.96522,0 h 1.063003 z m 1.342741,0 h 0.58745 z m 0.895161,0 h 1.650455 z"
     id="path3475"
     style="opacity:0.7;fill:none;stroke:#770087;stroke-width:0.6722638px;stroke-linecap:butt;stroke-linejoin:miter;stroke-opacity:1"
     inkscape:connector-curvature="0" />
  <path
     style="opacity:0.5;fill:#770087;fill-opacity:1;stroke:none;stroke-width:0.67226386"
     id="path927"
     d="m 24.348836,8.3982194 c -1.016821,0 -0.994202,0.6837493 -0.994202,1.3803936 l -0.0124,19.798176 c 0,0 -0.415417,-0.04942 -0.805945,-0.04942 -2.964639,-0.183811 -6.203774,2.002562 -6.500155,5.157823 -0.349297,2.508617 2.25688,4.572651 4.580928,4.182481 2.928168,-0.316413 5.106808,-3.321593 4.725009,-6.288976 0.0082,-5.224637 -0.01653,-10.455322 0.01239,-15.676182 0.199604,-0.232509 0.606895,0.262535 0.817178,0.286827 2.35497,1.417173 4.438137,3.754148 4.578759,6.664454 0.154614,2.274121 -0.522342,4.499308 -1.284116,6.607545 2.552395,-3.195479 3.369478,-7.857045 1.595837,-11.631384 C 30.155037,16.639009 28.108753,15.288812 26.964026,13.253802 26.11865,11.893867 25.475265,10.375691 25.273964,8.7701859 25.108231,8.435393 24.671667,8.3946266 24.348843,8.3982266 Z"
     inkscape:connector-curvature="0" />
  <path
     d="m 24.348836,7.7118225 c -1.016821,0 -0.994202,0.6837491 -0.994202,1.3803934 l -0.0124,19.7981761 c 0,0 -0.415417,-0.04942 -0.805945,-0.04942 -2.964639,-0.18381 -6.203774,2.002563 -6.500155,5.157825 -0.349297,2.508616 2.25688,4.57265 4.580928,4.182481 2.928168,-0.316414 5.106808,-3.321594 4.725009,-6.288976 0.0082,-5.224637 -0.01653,-10.455322 0.01239,-15.676183 0.199604,-0.232508 0.606895,0.262535 0.817178,0.286827 2.35497,1.417172 4.438137,3.754149 4.578759,6.664454 0.154614,2.274122 -0.522342,4.499308 -1.284116,6.607545 2.552394,-3.195477 3.369477,-7.857043 1.595836,-11.631382 C 30.155037,15.952614 28.108753,14.602417 26.964026,12.567407 26.11865,11.207472 25.475265,9.6892957 25.273964,8.0837907 25.108231,7.7489975 24.671667,7.7082313 24.348843,7.7118313 Z"
     id="path7249-8-0-3-6-1-6"
     style="opacity:1;fill:url(#linearGradient5809);fill-opacity:1;stroke:none;stroke-width:0.67226386"
     inkscape:connector-curvature="0" />
  <rect
     width="33.302258"
     height="39.299271"
     rx="2.0099707"
     ry="2.0503063"
     x="7.3488712"
     y="-43.649635"
     id="rect4897-5-2"
     style="opacity:0.4;vector-effect:none;fill:none;fill-opacity:1;stroke:url(#linearGradient884-3);stroke-width:0.6977734;stroke-linecap:butt;stroke-linejoin:miter;stroke-miterlimit:4;stroke-dasharray:none;stroke-dashoffset:0;stroke-opacity:1"
     transform="scale(1,-1)" />
</svg>
