<?xml version="1.0" encoding="UTF-8" standalone="no"?>
<svg
   xmlns:dc="http://purl.org/dc/elements/1.1/"
   xmlns:cc="http://creativecommons.org/ns#"
   xmlns:rdf="http://www.w3.org/1999/02/22-rdf-syntax-ns#"
   xmlns:svg="http://www.w3.org/2000/svg"
   xmlns="http://www.w3.org/2000/svg"
   xmlns:xlink="http://www.w3.org/1999/xlink"
   xmlns:sodipodi="http://sodipodi.sourceforge.net/DTD/sodipodi-0.dtd"
   xmlns:inkscape="http://www.inkscape.org/namespaces/inkscape"
   id="svg4569"
   height="48"
   width="48"
   version="1.0"
   sodipodi:docname="cs-login.svg"
   inkscape:version="0.92.3 (2405546, 2018-03-11)">
  <sodipodi:namedview
     pagecolor="#ffffff"
     bordercolor="#666666"
     borderopacity="1"
     objecttolerance="10"
     gridtolerance="10"
     guidetolerance="10"
     inkscape:pageopacity="0"
     inkscape:pageshadow="2"
     inkscape:window-width="1366"
     inkscape:window-height="704"
     id="namedview45"
     showgrid="false"
     inkscape:zoom="8.9062495"
     inkscape:cx="23.6664"
     inkscape:cy="23.67219"
     inkscape:window-x="0"
     inkscape:window-y="30"
     inkscape:window-maximized="1"
     inkscape:current-layer="svg4569" />
  <metadata
     id="metadata46">
    <rdf:RDF>
      <cc:Work
         rdf:about="">
        <dc:format>image/svg+xml</dc:format>
        <dc:type
           rdf:resource="http://purl.org/dc/dcmitype/StillImage" />
        <dc:title></dc:title>
      </cc:Work>
    </rdf:RDF>
  </metadata>
  <defs
     id="defs4571">
    <linearGradient
       id="linearGradient3912">
      <stop
         offset="0"
         style="stop-color:#787878;stop-opacity:1"
         id="stop3914" />
      <stop
         offset="0.35046947"
         style="stop-color:#b4b4b4;stop-opacity:1"
         id="stop3916" />
      <stop
         offset="0.49417919"
         style="stop-color:#c8c8c8;stop-opacity:1"
         id="stop3918" />
      <stop
         offset="0.58907253"
         style="stop-color:#e6e6e6;stop-opacity:1"
         id="stop3920" />
      <stop
         offset="1"
         style="stop-color:#8c8c8c;stop-opacity:1"
         id="stop3922" />
    </linearGradient>
    <linearGradient
       id="linearGradient6592-2-7">
      <stop
         offset="0"
         style="stop-color:#ffffff;stop-opacity:0.27450982"
         id="stop6594-0-2" />
      <stop
         offset="1"
         style="stop-color:#ffffff;stop-opacity:0"
         id="stop6596-2-5" />
    </linearGradient>
    <linearGradient
       id="linearGradient10691-1">
      <stop
         offset="0"
         style="stop-color:#000000;stop-opacity:1"
         id="stop10693-3" />
      <stop
         offset="1"
         style="stop-color:#000000;stop-opacity:0"
         id="stop10695-1" />
    </linearGradient>
    <linearGradient
       gradientTransform="matrix(0.85134414,0,0,0.81038178,-280.90719,-34.972325)"
       gradientUnits="userSpaceOnUse"
       xlink:href="#linearGradient3912"
       id="linearGradient3221"
       y2="94.396416"
       x2="361.10583"
       y1="87.050117"
       x1="361.10583" />
    <radialGradient
       gradientTransform="matrix(19.609558,0,0,4.1283273,124.56278,120.73303)"
       gradientUnits="userSpaceOnUse"
       xlink:href="#linearGradient10691-1"
       id="radialGradient3226"
       fy="73.615715"
       fx="6.702713"
       r="7.228416"
       cy="73.615715"
       cx="6.702713" />
    <linearGradient
       id="linearGradient4084">
      <stop
         offset="0"
         style="stop-color:#ffffff;stop-opacity:1"
         id="stop4086" />
      <stop
         offset="0.01596775"
         style="stop-color:#ffffff;stop-opacity:0.23529412"
         id="stop4088" />
      <stop
         offset="0.99257565"
         style="stop-color:#ffffff;stop-opacity:0.15686275"
         id="stop4090" />
      <stop
         offset="1"
         style="stop-color:#ffffff;stop-opacity:0.39215687"
         id="stop4092" />
    </linearGradient>
    <linearGradient
       id="outerBackgroundGradient-5-0">
      <stop
         id="stop3864-8-6-4"
         offset="0"
         style="stop-color:#0036cb;stop-opacity:1" />
      <stop
         id="stop3866-9-1-86"
         offset="1"
         style="stop-color:#0fdb00;stop-opacity:1" />
    </linearGradient>
    <linearGradient
       xlink:href="#linearGradient6592-2-7"
       id="linearGradient3141"
       gradientUnits="userSpaceOnUse"
       gradientTransform="matrix(11.563494,0,0,11.697807,13.166596,124.82849)"
       x1="10"
       y1="-3"
       x2="20"
       y2="12" />
    <linearGradient
       xlink:href="#linearGradient4084"
       id="linearGradient3144"
       gradientUnits="userSpaceOnUse"
       gradientTransform="matrix(12.400257,0,0,8.6700979,-41.606263,-14.574369)"
       x1="23.99999"
       y1="5.7531762"
       x2="23.99999"
       y2="42.121033" />
    <linearGradient
       xlink:href="#outerBackgroundGradient-5-0"
       id="linearGradient3148"
       gradientUnits="userSpaceOnUse"
       gradientTransform="matrix(10.664852,0,0,13.003648,32.03815,146.26633)"
       x1="-2.5488214"
       y1="28.788479"
       x2="44.631618"
       y2="-12.349135" />
    <linearGradient
       id="linearGradient4054-5">
      <stop
         offset="0"
         style="stop-color:#ffffff;stop-opacity:1"
         id="stop4056-0" />
      <stop
         offset="0.01719457"
         style="stop-color:#ffffff;stop-opacity:0.23529412"
         id="stop4058-4" />
      <stop
         offset="1"
         style="stop-color:#ffffff;stop-opacity:0.15686275"
         id="stop4060-4" />
      <stop
         offset="1"
         style="stop-color:#ffffff;stop-opacity:0.39215687"
         id="stop4062-0" />
    </linearGradient>
    <linearGradient
       xlink:href="#linearGradient4054-5"
       id="linearGradient3152-7"
       gradientUnits="userSpaceOnUse"
       gradientTransform="matrix(4.5366797,0,0,3.1252681,27.212142,49.812456)"
       x1="47.546879"
       y1="121.84093"
       x2="47.546879"
       y2="99.079079" />
    <linearGradient
       xlink:href="#linearGradient10691-1"
       id="linearGradient3148-3"
       gradientUnits="userSpaceOnUse"
       gradientTransform="matrix(10.664852,0,0,12.508438,41.430903,566.40042)"
       x1="15"
       y1="24.618645"
       x2="15"
       y2="2" />
    <clipPath
       id="clip1">
      <rect
         width="384"
         height="384"
         x="0"
         y="0"
         id="rect10" />
    </clipPath>
    <mask
       id="mask0">
      <g
         id="g7"
         style="filter:url(#alpha)">
        <rect
           width="384"
           height="384"
           x="0"
           y="0"
           style="fill:#000000;fill-opacity:0.2"
           id="rect5" />
      </g>
    </mask>
    <filter
       id="alpha"
       width="1"
       height="1"
       x="0"
       y="0"
       filterUnits="objectBoundingBox">
      <feColorMatrix
         in="SourceGraphic"
         type="matrix"
         values="0 0 0 0 1 0 0 0 0 1 0 0 0 0 1 0 0 0 1 0"
         id="feColorMatrix2" />
    </filter>
    <clipPath
       id="clipPath873">
      <rect
         width="384"
         height="384"
         x="0"
         y="0"
         id="rect871" />
    </clipPath>
    <clipPath
       id="clip1-4">
      <rect
         width="384"
         height="384"
         x="0"
         y="0"
         id="rect10-0" />
    </clipPath>
    <clipPath
       id="clip1-48">
      <rect
         width="384"
         height="384"
         x="0"
         y="0"
         id="rect10-8" />
    </clipPath>
  </defs>
  <path
     style="display:inline;overflow:visible;visibility:visible;fill:url(#linearGradient3221);fill-opacity:1;fill-rule:nonzero;stroke:none;stroke-width:0.31775054;stroke-linecap:round;stroke-linejoin:round;stroke-miterlimit:4;stroke-dasharray:none;stroke-dashoffset:0.5;stroke-opacity:1;marker:none;enable-background:new"
     id="rect1789"
     d="m 18.765281,34.923206 c 0,0 0.126525,3.449924 -0.477644,4.254047 -0.604169,0.80413 -1.806355,1.316685 -1.806355,1.316685 -0.771438,0.08448 -0.777819,1.114113 0,1.114113 H 31.55311 c 0.777821,0 0.771601,-1.030715 0,-1.114113 0,0 -1.202134,-0.512558 -1.806294,-1.316685 -0.60416,-0.80412 -0.477644,-4.254047 -0.477644,-4.254047 H 18.770674 Z"
     inkscape:connector-curvature="0" />
  <path
     id="rect2722-0-5"
     d="M 3.9847103,4.969994 H 43.98471 v 30 H 3.9847103 Z"
     style="display:inline;fill:#000000;fill-opacity:1;stroke:none;stroke-width:0.37463433"
     inkscape:connector-curvature="0" />
  <path
     style="color:#000000;clip-rule:nonzero;display:inline;overflow:visible;visibility:visible;opacity:0.4;isolation:auto;mix-blend-mode:normal;color-interpolation:sRGB;color-interpolation-filters:linearRGB;solid-color:#000000;solid-opacity:1;fill:none;fill-opacity:1;fill-rule:nonzero;stroke:#000000;stroke-width:0.31775054;stroke-linecap:round;stroke-linejoin:round;stroke-miterlimit:4;stroke-dasharray:none;stroke-dashoffset:0.5;stroke-opacity:1;marker:none;color-rendering:auto;image-rendering:auto;shape-rendering:auto;text-rendering:auto;enable-background:new"
     id="rect1789-8"
     d="m 18.765281,34.923206 c 0,0 0.126525,3.449924 -0.477644,4.254047 -0.604169,0.80413 -1.806355,1.316685 -1.806355,1.316685 -0.771438,0.08448 -0.777819,1.114113 0,1.114113 H 31.55311 c 0.777821,0 0.771601,-1.030715 0,-1.114113 0,0 -1.202134,-0.512558 -1.806294,-1.316685 -0.60416,-0.80412 -0.477644,-4.254047 -0.477644,-4.254047 H 18.770674 Z"
     inkscape:connector-curvature="0" />
  <path
     id="rect2722-0"
     d="M 5.9847104,6.969994 H 41.98471 v 26 H 5.9847104 Z"
     style="display:inline;fill:#0083d7;fill-opacity:1;stroke:none;stroke-width:0.33086807"
     inkscape:connector-curvature="0" />
  <rect
     y="27.324608"
     x="16"
     height="1.6753927"
     width="16"
     id="rect848"
     style="opacity:1;fill:#ffffff;fill-opacity:1;stroke:none;stroke-width:0.97428197;stroke-linejoin:round;stroke-miterlimit:4;stroke-dasharray:none;stroke-opacity:0.58823529;paint-order:normal" />
  <path
     id="path865"
     d="m 24.189649,11.394297 a 6.6666834,6.6666834 0 0 0 -6.6667,6.666701 6.6666834,6.6666834 0 0 0 6.6667,6.6667 6.6666834,6.6666834 0 0 0 6.6667,-6.6667 6.6666834,6.6666834 0 0 0 -6.6667,-6.666701 z m -0.01579,2.549358 c 0.251344,0 0.493616,0.03999 0.716095,0.118428 0.222479,0.07843 0.42512,0.19551 0.596087,0.350546 0.170966,0.155036 0.310585,0.348124 0.407392,0.577928 0.09681,0.229804 0.150798,0.496255 0.150798,0.798994 0,0.393764 -0.09903,0.790556 -0.26291,1.151118 -0.163878,0.360563 -0.39289,0.684656 -0.652143,0.933212 h 0.0031 c -0.09946,0.281436 -0.0697,0.455677 -0.0087,0.561348 0.06101,0.105673 0.153236,0.143152 0.178432,0.150798 0.301288,0.09635 0.622856,0.228134 0.93479,0.39555 0.311933,0.167416 0.614093,0.370431 0.877944,0.60714 0.26385,0.236709 0.489579,0.507395 0.646616,0.811626 0.157038,0.30423 0.245363,0.642183 0.236857,1.012163 h -7.618041 c -0.0076,-0.387297 0.107721,-0.744933 0.295281,-1.06585 0.18756,-0.320918 0.447667,-0.605601 0.731095,-0.848733 0.283427,-0.243133 0.590074,-0.444516 0.870049,-0.598456 0.279976,-0.153941 0.533364,-0.260097 0.710568,-0.31344 0.03801,-0.01283 0.147653,-0.06551 0.222644,-0.176852 0.07499,-0.111342 0.115095,-0.281505 0.01342,-0.529767 -0.260848,-0.24797 -0.489999,-0.57316 -0.653721,-0.934791 -0.163721,-0.361631 -0.262121,-0.759676 -0.262121,-1.155066 0,-0.302814 0.05364,-0.569965 0.150009,-0.799784 0.09637,-0.229817 0.235401,-0.42212 0.405813,-0.577138 0.170413,-0.155017 0.372386,-0.272135 0.594508,-0.350546 0.222123,-0.07841 0.464593,-0.118428 0.716094,-0.118428 z"
     style="opacity:1;fill:#ffffff;fill-opacity:1;stroke:none;stroke-width:0.74908018;stroke-linejoin:round;stroke-miterlimit:4;stroke-dasharray:none;stroke-opacity:0.58823529;paint-order:normal"
     inkscape:connector-curvature="0" />
</svg>
