<?xml version="1.0" encoding="UTF-8" standalone="no"?>
<svg
   xmlns:dc="http://purl.org/dc/elements/1.1/"
   xmlns:cc="http://creativecommons.org/ns#"
   xmlns:rdf="http://www.w3.org/1999/02/22-rdf-syntax-ns#"
   xmlns:svg="http://www.w3.org/2000/svg"
   xmlns="http://www.w3.org/2000/svg"
   xmlns:sodipodi="http://sodipodi.sourceforge.net/DTD/sodipodi-0.dtd"
   xmlns:inkscape="http://www.inkscape.org/namespaces/inkscape"
   width="48"
   height="48"
   version="1"
   id="svg16"
   sodipodi:docname="dconf-editor.svg"
   inkscape:version="0.92.4 5da689c313, 2019-01-14">
  <metadata
     id="metadata22">
    <rdf:RDF>
      <cc:Work
         rdf:about="">
        <dc:format>image/svg+xml</dc:format>
        <dc:type
           rdf:resource="http://purl.org/dc/dcmitype/StillImage" />
        <dc:title></dc:title>
      </cc:Work>
    </rdf:RDF>
  </metadata>
  <defs
     id="defs20" />
  <sodipodi:namedview
     pagecolor="#ffffff"
     bordercolor="#666666"
     borderopacity="1"
     objecttolerance="10"
     gridtolerance="10"
     guidetolerance="10"
     inkscape:pageopacity="0"
     inkscape:pageshadow="2"
     inkscape:window-width="1366"
     inkscape:window-height="708"
     id="namedview18"
     showgrid="false"
     inkscape:zoom="3.6875"
     inkscape:cx="-1.4915254"
     inkscape:cy="33.491525"
     inkscape:window-x="0"
     inkscape:window-y="25"
     inkscape:window-maximized="1"
     inkscape:current-layer="svg16" />
  <circle
     style="opacity:1;fill:#b42b2b;fill-opacity:1;stroke:none;stroke-width:0.71200258;stroke-miterlimit:4;stroke-dasharray:none;stroke-opacity:0"
     id="path829"
     cx="19.738499"
     cy="19.544796"
     r="14.285714" />
  <path
     style="opacity:0.2;stroke-width:0.99669641"
     d="m 26.608894,31.298414 12.185502,12.185503 c 2.818188,2.935177 7.163352,-1.409987 4.228174,-4.228174 L 30.651924,26.885096 c -4.724603,1.570969 -2.73121,1.570969 -4.04303,4.413318 z"
     id="path6"
     inkscape:connector-curvature="0" />
  <path
     style="fill:#565656;stroke-width:0.99669641"
     d="m 26.608894,30.301717 12.185502,12.185502 c 2.818188,2.935178 7.163352,-1.409986 4.228174,-4.228174 L 30.651924,25.888399 c -4.724603,1.570969 -2.73121,1.570969 -4.04303,4.413318 z"
     id="path8"
     inkscape:connector-curvature="0" />
  <path
     style="opacity:0.2;stroke-width:0.99669641"
     d="M 19.947143,4.5353523 A 15.947143,15.947143 0 0 0 3.9999999,20.482494 15.947143,15.947143 0 0 0 19.947143,36.429636 15.947143,15.947143 0 0 0 35.894285,20.482494 15.947143,15.947143 0 0 0 19.947143,4.5353523 Z m 0,5.9801777 a 9.9669636,9.9669636 0 0 1 9.966963,9.966964 9.9669636,9.9669636 0 0 1 -9.966963,9.966964 9.9669636,9.9669636 0 0 1 -9.9669645,-9.966964 9.9669636,9.9669636 0 0 1 9.9669645,-9.966964 z"
     id="path10"
     inkscape:connector-curvature="0" />
  <path
     style="fill:#ffffff;stroke-width:0.99669641"
     d="M 19.947143,3.5386537 A 15.947143,15.947143 0 0 0 3.9999999,19.485796 15.947143,15.947143 0 0 0 19.947143,35.432939 15.947143,15.947143 0 0 0 35.894285,19.485796 15.947143,15.947143 0 0 0 19.947143,3.5386537 Z m 0,5.9801786 A 9.9669636,9.9669636 0 0 1 29.914106,19.485796 9.9669636,9.9669636 0 0 1 19.947143,29.45276 9.9669636,9.9669636 0 0 1 9.9801785,19.485796 9.9669636,9.9669636 0 0 1 19.947143,9.5188323 Z"
     id="path12"
     inkscape:connector-curvature="0" />
</svg>
