<?xml version="1.0" encoding="UTF-8" standalone="no"?>
<svg
   xmlns:dc="http://purl.org/dc/elements/1.1/"
   xmlns:cc="http://creativecommons.org/ns#"
   xmlns:rdf="http://www.w3.org/1999/02/22-rdf-syntax-ns#"
   xmlns:svg="http://www.w3.org/2000/svg"
   xmlns="http://www.w3.org/2000/svg"
   xmlns:xlink="http://www.w3.org/1999/xlink"
   xmlns:sodipodi="http://sodipodi.sourceforge.net/DTD/sodipodi-0.dtd"
   xmlns:inkscape="http://www.inkscape.org/namespaces/inkscape"
   width="48"
   height="48"
   version="1.1"
   viewBox="0 0 36 36"
   id="svg22"
   sodipodi:docname="disk-utility.svg"
   inkscape:version="0.92.3 (2405546, 2018-03-11)">
  <metadata
     id="metadata28">
    <rdf:RDF>
      <cc:Work
         rdf:about="">
        <dc:format>image/svg+xml</dc:format>
        <dc:type
           rdf:resource="http://purl.org/dc/dcmitype/StillImage" />
        <dc:title></dc:title>
      </cc:Work>
    </rdf:RDF>
  </metadata>
  <defs
     id="defs26">
    <linearGradient
       inkscape:collect="always"
       id="linearGradient957">
      <stop
         style="stop-color:#d2d2d2;stop-opacity:1;"
         offset="0"
         id="stop953" />
      <stop
         style="stop-color:#dcdcdc;stop-opacity:1"
         offset="1"
         id="stop955" />
    </linearGradient>
    <linearGradient
       inkscape:collect="always"
       id="linearGradient924">
      <stop
         style="stop-color:#ffffff;stop-opacity:1;"
         offset="0"
         id="stop920" />
      <stop
         style="stop-color:#ffffff;stop-opacity:0;"
         offset="1"
         id="stop922" />
    </linearGradient>
    <linearGradient
       inkscape:collect="always"
       id="linearGradient892">
      <stop
         style="stop-color:#000000;stop-opacity:1;"
         offset="0"
         id="stop888" />
      <stop
         style="stop-color:#000000;stop-opacity:0;"
         offset="1"
         id="stop890" />
    </linearGradient>
    <linearGradient
       inkscape:collect="always"
       xlink:href="#linearGradient892"
       id="linearGradient894"
       x1="195.51483"
       y1="364.47458"
       x2="194.18008"
       y2="336.81357"
       gradientUnits="userSpaceOnUse"
       gradientTransform="matrix(0.08329383,0,0,0.08254417,2.0075876,1.8515371)" />
    <linearGradient
       inkscape:collect="always"
       xlink:href="#linearGradient924"
       id="linearGradient926"
       x1="180.87076"
       y1="18.711864"
       x2="180.34958"
       y2="46.372883"
       gradientUnits="userSpaceOnUse"
       gradientTransform="matrix(0.08326051,0,0,0.08510638,2.0139846,1.6595732)" />
    <linearGradient
       inkscape:collect="always"
       xlink:href="#linearGradient957"
       id="linearGradient959"
       x1="197.80704"
       y1="369.35593"
       x2="187.82008"
       y2="14.644068"
       gradientUnits="userSpaceOnUse"
       gradientTransform="matrix(0.08326051,0,0,0.08510638,2.0139846,1.6595732)" />
    <linearGradient
       gradientTransform="matrix(0.08326051,0,0,0.07548566,2.0139846,-31.47197)"
       inkscape:collect="always"
       xlink:href="#linearGradient924"
       id="linearGradient926-5"
       x1="180.87076"
       y1="18.711864"
       x2="180.34958"
       y2="35.170052"
       gradientUnits="userSpaceOnUse" />
  </defs>
  <sodipodi:namedview
     pagecolor="#ffffff"
     bordercolor="#666666"
     borderopacity="1"
     objecttolerance="10"
     gridtolerance="10"
     guidetolerance="10"
     inkscape:pageopacity="0"
     inkscape:pageshadow="2"
     inkscape:window-width="1366"
     inkscape:window-height="704"
     id="namedview24"
     showgrid="false"
     inkscape:zoom="8.8944491"
     inkscape:cx="18.918944"
     inkscape:cy="22.791347"
     inkscape:window-x="0"
     inkscape:window-y="30"
     inkscape:window-maximized="1"
     inkscape:current-layer="svg22"
     showguides="true"
     inkscape:guide-bbox="true" />
  <rect
     style="opacity:1;fill:url(#linearGradient959);fill-opacity:1;stroke:none;stroke-width:0.63133758;stroke-linecap:round;stroke-linejoin:round;stroke-miterlimit:4;stroke-dasharray:none;stroke-opacity:1;paint-order:stroke fill markers"
     id="rect837"
     width="23.96035"
     height="29.999998"
     x="6.0198231"
     y="2.9999998"
     rx="1.771755"
     ry="1.8110352" />
  <rect
     style="opacity:0.4;fill:none;fill-opacity:1;stroke:url(#linearGradient926);stroke-width:0.6313377;stroke-linecap:round;stroke-linejoin:round;stroke-miterlimit:4;stroke-dasharray:none;stroke-opacity:1;paint-order:stroke fill markers"
     id="rect837-3-3"
     width="23.368738"
     height="29.3617"
     x="6.3156309"
     y="3.3191476"
     rx="1.771755"
     ry="1.8110352" />
  <ellipse
     style="fill:#000000;fill-opacity:0.58823529;stroke:none;stroke-width:0.801714;stroke-miterlimit:4;stroke-dasharray:none;stroke-opacity:1"
     id="path833-2"
     cx="18"
     cy="16.978722"
     rx="9.3668051"
     ry="9.5744686" />
  <ellipse
     style="fill:#e6e6e6;fill-opacity:1;stroke:none;stroke-width:0.801714;stroke-miterlimit:4;stroke-dasharray:none;stroke-opacity:1"
     id="path833"
     cx="18"
     cy="16.468082"
     rx="9.3668051"
     ry="9.5744686" />
  <ellipse
     style="fill:#000000;fill-opacity:0.19607843;stroke:none;stroke-width:0.13361898;stroke-miterlimit:4;stroke-dasharray:none;stroke-opacity:1"
     id="path833-6"
     cx="18"
     cy="16.340427"
     rx="1.5611343"
     ry="1.5957446" />
  <rect
     style="opacity:1;fill:#000000;fill-opacity:0.58823529;stroke:none;stroke-width:0.19009201;stroke-linecap:round;stroke-linejoin:round;stroke-miterlimit:4;stroke-dasharray:none;stroke-opacity:1;paint-order:stroke fill markers"
     id="rect837-1"
     width="23.96035"
     height="2.7197278"
     x="6.0198231"
     y="30.280273"
     rx="1.1428151"
     ry="1.1681515" />
  <rect
     style="opacity:0.4;fill:none;fill-opacity:1;stroke:url(#linearGradient926-5);stroke-width:0.59458363;stroke-linecap:round;stroke-linejoin:round;stroke-miterlimit:4;stroke-dasharray:none;stroke-opacity:1;paint-order:stroke fill markers"
     id="rect837-3-3-4"
     width="23.368738"
     height="26.042551"
     x="6.3156309"
     y="-30"
     rx="0"
     ry="0"
     transform="scale(1,-1)" />
  <ellipse
     style="fill:#000000;fill-opacity:0.39215686;stroke:none;stroke-width:0.4955942;stroke-miterlimit:4;stroke-dasharray:none;stroke-opacity:1"
     id="path1084"
     cx="8.5568981"
     cy="5.7630453"
     rx="0.62445366"
     ry="0.63829792" />
  <ellipse
     style="fill:#000000;fill-opacity:0.39215686;stroke:none;stroke-width:0.4955942;stroke-miterlimit:4;stroke-dasharray:none;stroke-opacity:1"
     id="path1084-0"
     cx="27.491695"
     cy="5.7630639"
     rx="0.62445366"
     ry="0.63829792" />
  <ellipse
     style="fill:#000000;fill-opacity:0.39215686;stroke:none;stroke-width:0.4955942;stroke-miterlimit:4;stroke-dasharray:none;stroke-opacity:1"
     id="path1084-8"
     cx="8.5568848"
     cy="27.509903"
     rx="0.62445366"
     ry="0.63829792" />
  <ellipse
     style="fill:#000000;fill-opacity:0.39215686;stroke:none;stroke-width:0.4955942;stroke-miterlimit:4;stroke-dasharray:none;stroke-opacity:1"
     id="path1084-8-5"
     cx="27.491695"
     cy="27.509872"
     rx="0.62445366"
     ry="0.63829792" />
  <rect
     style="opacity:0.4;fill:none;fill-opacity:1;stroke:url(#linearGradient894);stroke-width:0.62188601;stroke-linecap:round;stroke-linejoin:round;stroke-miterlimit:4;stroke-dasharray:none;stroke-opacity:1;paint-order:stroke fill markers"
     id="rect837-3"
     width="23.37809"
     height="28.477737"
     x="6.3109555"
     y="4.0802302"
     rx="1.7724639"
     ry="1.7565123" />
  <path
     inkscape:connector-curvature="0"
     style="opacity:0.2;stroke-width:0.46875"
     d="m 35.579242,27.944886 a 7.5,7.5 0 0 1 -7.480313,7.1025 7.5,7.5 0 0 1 -7.480312,-6.96 7.5,7.5 0 0 0 -0.01969,0.3975 7.5,7.5 0 0 0 7.5,7.5 7.5,7.5 0 0 0 7.5,-7.5 7.5,7.5 0 0 0 -0.02013,-0.540159 z"
     id="path10" />
  <circle
     style="fill:#8561c5;stroke-width:0.46875"
     cx="28.098928"
     cy="28.016136"
     r="7.5"
     id="circle12" />
  <path
     inkscape:connector-curvature="0"
     style="fill:#ffffff;stroke-width:0.46875"
     d="m 27.161429,24.266136 -0.08269,0.98775 a 2.9464688,2.9464688 0 0 0 -0.861113,0.498056 l -0.89774,-0.422719 -0.9375,1.623844 0.815072,0.566062 a 2.9464688,2.9464688 0 0 0 -0.045,0.496998 2.9464688,2.9464688 0 0 0 0.04284,0.499096 l -0.812991,0.563963 0.9375,1.623843 0.89565,-0.421668 a 2.9464688,2.9464688 0 0 0 0.863203,0.494906 l 0.08269,0.989812 h 1.875 l 0.08269,-0.98775 a 2.9464688,2.9464688 0 0 0 0.86113,-0.498056 l 0.897731,0.422719 0.9375,-1.623844 -0.815081,-0.566062 a 2.9464688,2.9464688 0 0 0 0.045,-0.496997 2.9464688,2.9464688 0 0 0 -0.04284,-0.499097 l 0.812991,-0.563963 -0.9375,-1.623843 -0.89565,0.421668 a 2.9464688,2.9464688 0 0 0 -0.863438,-0.495 l -0.0825,-0.99 h -1.875 z m 0.9375,2.678625 a 1.0714688,1.0714688 0 0 1 1.071563,1.071562 1.0714688,1.0714688 0 0 1 -1.071563,1.071563 1.0714688,1.0714688 0 0 1 -1.071562,-1.071563 1.0714688,1.0714688 0 0 1 1.071562,-1.071562 z"
     id="path14" />
</svg>
