<?xml version="1.0" encoding="UTF-8" standalone="no"?>
<svg
   xmlns:dc="http://purl.org/dc/elements/1.1/"
   xmlns:cc="http://creativecommons.org/ns#"
   xmlns:rdf="http://www.w3.org/1999/02/22-rdf-syntax-ns#"
   xmlns:svg="http://www.w3.org/2000/svg"
   xmlns="http://www.w3.org/2000/svg"
   xmlns:sodipodi="http://sodipodi.sourceforge.net/DTD/sodipodi-0.dtd"
   xmlns:inkscape="http://www.inkscape.org/namespaces/inkscape"
   height="48"
   width="48"
   id="svg1008"
   version="1.1"
   viewBox="0 0 48 48"
   sodipodi:docname="firefox.svg"
   inkscape:version="0.92.4 5da689c313, 2019-01-14">
  <sodipodi:namedview
     pagecolor="#ffffff"
     bordercolor="#666666"
     borderopacity="1"
     objecttolerance="10"
     gridtolerance="10"
     guidetolerance="10"
     inkscape:pageopacity="0"
     inkscape:pageshadow="2"
     inkscape:window-width="1366"
     inkscape:window-height="708"
     id="namedview95"
     showgrid="false"
     inkscape:zoom="2.8792082"
     inkscape:cx="3.9414039"
     inkscape:cy="40.98349"
     inkscape:window-x="0"
     inkscape:window-y="19"
     inkscape:window-maximized="1"
     inkscape:current-layer="svg1008" />
  <metadata
     id="metadata1012">
    <rdf:RDF>
      <cc:Work
         rdf:about="">
        <dc:format>image/svg+xml</dc:format>
        <dc:type
           rdf:resource="http://purl.org/dc/dcmitype/StillImage" />
        <dc:title></dc:title>
      </cc:Work>
    </rdf:RDF>
  </metadata>
  <defs
     id="defs978">
    <linearGradient
       gradientTransform="matrix(0.51667195,0,0,0.51667195,3.3283306,3.3395255)"
       gradientUnits="userSpaceOnUse"
       y2="74.468002"
       x2="6.447"
       y1="12.393"
       x1="70.786003"
       id="a">
      <stop
         id="stop834"
         stop-color="#fff44f"
         offset=".048" />
      <stop
         id="stop836"
         stop-color="#ffe847"
         offset=".111" />
      <stop
         id="stop838"
         stop-color="#ffc830"
         offset=".225" />
      <stop
         id="stop840"
         stop-color="#ff980e"
         offset=".368" />
      <stop
         id="stop842"
         stop-color="#ff8b16"
         offset=".401" />
      <stop
         id="stop844"
         stop-color="#ff672a"
         offset=".462" />
      <stop
         id="stop846"
         stop-color="#ff3647"
         offset=".534" />
      <stop
         id="stop848"
         stop-color="#e31587"
         offset=".705" />
    </linearGradient>
    <radialGradient
       gradientUnits="userSpaceOnUse"
       gradientTransform="matrix(0.51667195,0,0,0.51667195,4123.7872,4407.4512)"
       r="80.796997"
       cy="-8515.1211"
       cx="-7907.187"
       id="b">
      <stop
         id="stop851"
         stop-color="#ffbd4f"
         offset=".129" />
      <stop
         id="stop853"
         stop-color="#ffac31"
         offset=".186" />
      <stop
         id="stop855"
         stop-color="#ff9d17"
         offset=".247" />
      <stop
         id="stop857"
         stop-color="#ff980e"
         offset=".283" />
      <stop
         id="stop859"
         stop-color="#ff563b"
         offset=".403" />
      <stop
         id="stop861"
         stop-color="#ff3750"
         offset=".467" />
      <stop
         id="stop863"
         stop-color="#f5156c"
         offset=".71" />
      <stop
         id="stop865"
         stop-color="#eb0878"
         offset=".782" />
      <stop
         id="stop867"
         stop-color="#e50080"
         offset=".86" />
    </radialGradient>
    <radialGradient
       gradientUnits="userSpaceOnUse"
       gradientTransform="matrix(0.51667195,0,0,0.51667195,4123.7872,4407.4512)"
       r="80.796997"
       cy="-8482.0889"
       cx="-7936.7109"
       id="c">
      <stop
         id="stop870"
         stop-color="#960e18"
         offset=".3" />
      <stop
         id="stop872"
         stop-opacity=".74"
         stop-color="#b11927"
         offset=".351" />
      <stop
         id="stop874"
         stop-opacity=".343"
         stop-color="#db293d"
         offset=".435" />
      <stop
         id="stop876"
         stop-opacity=".094"
         stop-color="#f5334b"
         offset=".497" />
      <stop
         id="stop878"
         stop-opacity="0"
         stop-color="#ff3750"
         offset=".53" />
    </radialGradient>
    <radialGradient
       gradientUnits="userSpaceOnUse"
       gradientTransform="matrix(0.51667195,0,0,0.51667195,4123.7872,4407.4512)"
       r="58.534"
       cy="-8533.457"
       cx="-7926.9702"
       id="d">
      <stop
         id="stop881"
         stop-color="#fff44f"
         offset=".132" />
      <stop
         id="stop883"
         stop-color="#ffdc3e"
         offset=".252" />
      <stop
         id="stop885"
         stop-color="#ff9d12"
         offset=".506" />
      <stop
         id="stop887"
         stop-color="#ff980e"
         offset=".526" />
    </radialGradient>
    <radialGradient
       gradientUnits="userSpaceOnUse"
       gradientTransform="matrix(0.51667195,0,0,0.51667195,4123.7872,4407.4512)"
       r="38.471001"
       cy="-8460.9844"
       cx="-7945.6479"
       id="e">
      <stop
         id="stop890"
         stop-color="#3a8ee6"
         offset=".353" />
      <stop
         id="stop892"
         stop-color="#5c79f0"
         offset=".472" />
      <stop
         id="stop894"
         stop-color="#9059ff"
         offset=".669" />
      <stop
         id="stop896"
         stop-color="#c139e6"
         offset="1" />
    </radialGradient>
    <radialGradient
       gradientUnits="userSpaceOnUse"
       gradientTransform="matrix(0.50220514,-0.12141791,0.14208479,0.58797268,5217.221,4050.8432)"
       r="20.396999"
       cy="-8491.5459"
       cx="-7935.6201"
       id="f">
      <stop
         id="stop899"
         stop-opacity="0"
         stop-color="#9059ff"
         offset=".206" />
      <stop
         id="stop901"
         stop-opacity=".064"
         stop-color="#8c4ff3"
         offset=".278" />
      <stop
         id="stop903"
         stop-opacity=".45"
         stop-color="#7716a8"
         offset=".747" />
      <stop
         id="stop905"
         stop-opacity=".6"
         stop-color="#6e008b"
         offset=".975" />
    </radialGradient>
    <radialGradient
       gradientUnits="userSpaceOnUse"
       gradientTransform="matrix(0.51667195,0,0,0.51667195,4123.7872,4407.4512)"
       r="27.676001"
       cy="-8518.4268"
       cx="-7937.731"
       id="g">
      <stop
         id="stop908"
         stop-color="#ffe226"
         offset="0" />
      <stop
         id="stop910"
         stop-color="#ffdb27"
         offset=".121" />
      <stop
         id="stop912"
         stop-color="#ffc82a"
         offset=".295" />
      <stop
         id="stop914"
         stop-color="#ffa930"
         offset=".502" />
      <stop
         id="stop916"
         stop-color="#ff7e37"
         offset=".732" />
      <stop
         id="stop918"
         stop-color="#ff7139"
         offset=".792" />
    </radialGradient>
    <radialGradient
       gradientUnits="userSpaceOnUse"
       gradientTransform="matrix(0.51667195,0,0,0.51667195,4123.7872,4407.4512)"
       r="118.081"
       cy="-8535.9814"
       cx="-7915.9771"
       id="h">
      <stop
         id="stop921"
         stop-color="#fff44f"
         offset=".113" />
      <stop
         id="stop923"
         stop-color="#ff980e"
         offset=".456" />
      <stop
         id="stop925"
         stop-color="#ff5634"
         offset=".622" />
      <stop
         id="stop927"
         stop-color="#ff3647"
         offset=".716" />
      <stop
         id="stop929"
         stop-color="#e31587"
         offset=".904" />
    </radialGradient>
    <radialGradient
       gradientUnits="userSpaceOnUse"
       gradientTransform="matrix(0.05425056,0.5140886,-0.33738679,0.03565036,-2416.7652,4379.6496)"
       r="86.499001"
       cy="-8522.8594"
       cx="-7927.165"
       id="i">
      <stop
         id="stop932"
         stop-color="#fff44f"
         offset="0" />
      <stop
         id="stop934"
         stop-color="#ffe847"
         offset=".06" />
      <stop
         id="stop936"
         stop-color="#ffc830"
         offset=".168" />
      <stop
         id="stop938"
         stop-color="#ff980e"
         offset=".304" />
      <stop
         id="stop940"
         stop-color="#ff8b16"
         offset=".356" />
      <stop
         id="stop942"
         stop-color="#ff672a"
         offset=".455" />
      <stop
         id="stop944"
         stop-color="#ff3647"
         offset=".57" />
      <stop
         id="stop946"
         stop-color="#e31587"
         offset=".737" />
    </radialGradient>
    <radialGradient
       gradientUnits="userSpaceOnUse"
       gradientTransform="matrix(0.51667195,0,0,0.51667195,4123.7872,4407.4512)"
       r="73.720001"
       cy="-8508.1758"
       cx="-7938.3828"
       id="j">
      <stop
         id="stop949"
         stop-color="#fff44f"
         offset=".137" />
      <stop
         id="stop951"
         stop-color="#ff980e"
         offset=".48" />
      <stop
         id="stop953"
         stop-color="#ff5634"
         offset=".592" />
      <stop
         id="stop955"
         stop-color="#ff3647"
         offset=".655" />
      <stop
         id="stop957"
         stop-color="#e31587"
         offset=".904" />
    </radialGradient>
    <radialGradient
       gradientUnits="userSpaceOnUse"
       gradientTransform="matrix(0.51667195,0,0,0.51667195,4123.7872,4407.4512)"
       r="80.685997"
       cy="-8503.8613"
       cx="-7918.9229"
       id="k">
      <stop
         id="stop960"
         stop-color="#fff44f"
         offset=".094" />
      <stop
         id="stop962"
         stop-color="#ffe141"
         offset=".231" />
      <stop
         id="stop964"
         stop-color="#ffaf1e"
         offset=".509" />
      <stop
         id="stop966"
         stop-color="#ff980e"
         offset=".626" />
    </radialGradient>
    <linearGradient
       gradientTransform="matrix(0.51667195,0,0,0.51667195,3.3283306,3.3395255)"
       gradientUnits="userSpaceOnUse"
       y2="66.806"
       x2="15.267"
       y1="12.061"
       x1="70.013"
       id="l">
      <stop
         id="stop969"
         stop-opacity=".8"
         stop-color="#fff44f"
         offset=".167" />
      <stop
         id="stop971"
         stop-opacity=".634"
         stop-color="#fff44f"
         offset=".266" />
      <stop
         id="stop973"
         stop-opacity=".217"
         stop-color="#fff44f"
         offset=".489" />
      <stop
         id="stop975"
         stop-opacity="0"
         stop-color="#fff44f"
         offset=".6" />
    </linearGradient>
  </defs>
  <path
     style="fill:url(#a);stroke-width:0.51667196"
     id="path980"
     d="M 42.551999,17.202352 C 41.681923,15.108797 39.916971,12.848357 38.534874,12.1338 a 20.804313,20.804313 0 0 1 2.027937,6.078129 l 0.0036,0.03359 C 38.302371,12.600871 34.462982,10.324932 31.3273,5.3690136 31.168682,5.1184279 31.010063,4.867325 30.855578,4.6022722 30.767228,4.4508872 30.696443,4.3144857 30.63496,4.188935 a 3.6440873,3.6440873 0 0 1 -0.298637,-0.7930914 0.05166719,0.05166719 0 0 0 -0.04546,-0.051664 0.07130073,0.07130073 0 0 0 -0.03771,0 c -0.0026,0 -0.0067,0.00464 -0.0098,0.00571 -0.0031,0.00107 -0.0098,0.00571 -0.01447,0.00775 l 0.0078,-0.013436 C 25.206804,6.2892063 23.500237,11.741129 23.343168,14.468124 a 10.016719,10.016719 0 0 0 -5.510822,2.124039 5.9866779,5.9866779 0 0 0 -0.516673,-0.391638 9.2835615,9.2835615 0 0 1 -0.05631,-4.894433 14.831069,14.831069 0 0 0 -4.820033,3.725204 h -0.0093 c -0.793608,-1.00596 -0.737807,-4.322994 -0.69234,-5.015851 a 3.5795033,3.5795033 0 0 0 -0.668573,0.354953 14.583066,14.583066 0 0 0 -1.9571539,1.676601 17.486762,17.486762 0 0 0 -1.8719023,2.245973 v 0.0031 -0.0036 a 16.912223,16.912223 0 0 0 -2.6866942,6.067279 l -0.026867,0.132268 c -0.037717,0.176186 -0.1736018,1.058661 -0.196852,1.250346 0,0.01499 -0.0031,0.02894 -0.00465,0.04392 A 19.084312,19.084312 0 0 0 4.0000082,24.54692 v 0.103335 a 20.025688,20.025688 0 0 0 39.7599688,3.386191 c 0.03359,-0.258336 0.06096,-0.514088 0.09093,-0.775008 A 20.592994,20.592994 0 0 0 42.551999,17.202352 Z M 19.472262,32.877145 c 0.09352,0.04495 0.181352,0.09352 0.277453,0.136402 l 0.01395,0.0088 q -0.145702,-0.06975 -0.291404,-0.145185 z m 4.587014,-12.077723 z m 16.508702,-2.549259 v -0.01911 l 0.0036,0.02119 z"
     inkscape:connector-curvature="0" />
  <path
     style="fill:url(#b);stroke-width:0.51667196"
     id="path982"
     d="M 42.551999,17.202352 C 41.681923,15.108797 39.916971,12.848357 38.534874,12.1338 a 20.804313,20.804313 0 0 1 2.027937,6.078129 v 0.01911 l 0.0036,0.02119 a 18.135186,18.135186 0 0 1 -0.62309,13.515105 C 37.648265,36.691735 32.093008,41.739103 23.397419,41.493683 14.00174,41.227598 5.7272385,34.255626 4.1803226,25.123966 c -0.2815862,-1.439965 0,-2.170022 0.1415681,-3.340284 a 14.919419,14.919419 0 0 0 -0.3218866,2.763161 v 0.103335 a 20.025688,20.025688 0 0 0 39.7599729,3.386268 c 0.03359,-0.258336 0.06096,-0.514088 0.09093,-0.775008 A 20.592994,20.592994 0 0 0 42.551999,17.202352 Z"
     inkscape:connector-curvature="0" />
  <path
     style="fill:url(#c);stroke-width:0.51667196"
     id="path984"
     d="M 42.551999,17.202352 C 41.681923,15.108797 39.916971,12.848357 38.534874,12.1338 a 20.804313,20.804313 0 0 1 2.027937,6.078129 v 0.01911 l 0.0036,0.02119 a 18.135186,18.135186 0 0 1 -0.62309,13.515105 C 37.648265,36.691735 32.093008,41.739103 23.397419,41.493683 14.00174,41.227598 5.7272385,34.255626 4.1803226,25.123966 c -0.2815862,-1.439965 0,-2.170022 0.1415681,-3.340284 a 14.919419,14.919419 0 0 0 -0.3218866,2.763161 v 0.103335 a 20.025688,20.025688 0 0 0 39.7599729,3.386268 c 0.03359,-0.258336 0.06096,-0.514088 0.09093,-0.775008 A 20.592994,20.592994 0 0 0 42.551999,17.202352 Z"
     inkscape:connector-curvature="0" />
  <path
     style="fill:url(#d);stroke-width:0.51667196"
     id="path986"
     d="m 32.820999,19.556309 c 0.0434,0.03049 0.0837,0.06096 0.124518,0.09145 A 10.901778,10.901778 0 0 0 31.085498,17.221985 C 24.861668,10.997122 29.454364,3.7249636 30.228856,3.3555429 l 0.0078,-0.011364 c -5.029852,2.9450295 -6.736419,8.3969521 -6.893488,11.1239471 0.233536,-0.01601 0.465005,-0.03565 0.703708,-0.03565 a 10.106104,10.106104 0 0 1 8.774123,5.123835 z"
     inkscape:connector-curvature="0" />
  <path
     style="fill:url(#e);stroke-width:0.51667196"
     id="path988"
     d="m 24.059793,20.799422 c -0.03306,0.498072 -1.792852,2.216006 -2.408208,2.216006 -5.694242,0 -6.618568,3.444652 -6.618568,3.444652 0.252136,2.900596 2.273356,5.289688 4.716698,6.553467 0.111601,0.05786 0.224753,0.110051 0.337903,0.161201 q 0.293987,0.130202 0.587973,0.24077 a 8.9048408,8.9048408 0 0 0 2.605577,0.502722 c 9.980552,0.468104 11.913938,-11.935122 4.711531,-15.53426 a 6.9130708,6.9130708 0 0 1 4.8283,1.172329 10.106104,10.106104 0 0 0 -8.774123,-5.123836 c -0.237669,0 -0.470172,0.01964 -0.703708,0.03565 a 10.016719,10.016719 0 0 0 -5.510822,2.124039 c 0.305352,0.258336 0.649973,0.603473 1.375897,1.319063 1.358847,1.338697 4.8438,2.725445 4.85155,2.888197 z"
     inkscape:connector-curvature="0" />
  <path
     style="fill:url(#f);stroke-width:0.51667196"
     id="path990"
     d="m 24.059793,20.799422 c -0.03306,0.498072 -1.792852,2.216006 -2.408208,2.216006 -5.694242,0 -6.618568,3.444652 -6.618568,3.444652 0.252136,2.900596 2.273356,5.289688 4.716698,6.553467 0.111601,0.05786 0.224753,0.110051 0.337903,0.161201 q 0.293987,0.130202 0.587973,0.24077 a 8.9048408,8.9048408 0 0 0 2.605577,0.502722 c 9.980552,0.468104 11.913938,-11.935122 4.711531,-15.53426 a 6.9130708,6.9130708 0 0 1 4.8283,1.172329 10.106104,10.106104 0 0 0 -8.774123,-5.123836 c -0.237669,0 -0.470172,0.01964 -0.703708,0.03565 a 10.016719,10.016719 0 0 0 -5.510822,2.124039 c 0.305352,0.258336 0.649973,0.603473 1.375897,1.319063 1.358847,1.338697 4.8438,2.725445 4.85155,2.888197 z"
     inkscape:connector-curvature="0" />
  <path
     style="fill:url(#g);stroke-width:0.51667196"
     id="path992"
     d="m 16.898719,15.926172 c 0.162235,0.103335 0.296054,0.193236 0.413338,0.274353 a 9.2835615,9.2835615 0 0 1 -0.05631,-4.894433 14.831069,14.831069 0 0 0 -4.820033,3.725204 c 0.09765,-0.0026 3.002381,-0.05476 4.463012,0.894876 z"
     inkscape:connector-curvature="0" />
  <path
     style="fill:url(#h);stroke-width:0.51667196"
     id="path994"
     d="m 4.182906,25.123966 c 1.5453658,9.13166 9.821417,16.103632 19.217097,16.369717 8.695588,0.245937 14.250846,-4.801948 16.545902,-9.726349 a 18.135186,18.135186 0 0 0 0.623106,-13.515105 v -0.01911 c 0,-0.01499 -0.0031,-0.02377 0,-0.01912 l 0.0036,0.03359 c 0.710425,4.638164 -1.6487,9.13166 -5.336704,12.170208 l -0.01136,0.02584 c -7.185874,5.852343 -14.062778,3.530936 -15.454692,2.58336 q -0.145701,-0.06975 -0.291403,-0.145185 C 15.288731,30.879182 13.557879,27.06201 13.92885,23.788376 a 5.142436,5.142436 0 0 1 -4.7435649,-2.98378 7.5527108,7.5527108 0 0 1 7.3620589,-0.295536 9.9717686,9.9717686 0 0 0 7.51861,0.295536 C 24.058254,20.641844 20.573252,19.25458 19.214404,17.9164 18.48848,17.200809 18.143859,16.856189 17.838507,16.597336 A 5.9866779,5.9866779 0 0 0 17.321873,16.205692 C 17.203039,16.124572 17.069221,16.03674 16.908536,15.931339 15.447905,14.981696 12.543175,15.03388 12.447074,15.036463 h -0.0093 c -0.793608,-1.00596 -0.737808,-4.322994 -0.692341,-5.015851 a 3.5795033,3.5795033 0 0 0 -0.668573,0.354953 14.583066,14.583066 0 0 0 -1.9571538,1.676601 17.486762,17.486762 0 0 0 -1.8796523,2.240806 v 0.0031 -0.0036 a 16.912223,16.912223 0 0 0 -2.6866942,6.067279 c -0.00982,0.04081 -0.721274,3.151182 -0.3704537,4.764232 z"
     inkscape:connector-curvature="0" />
  <path
     style="fill:url(#i);stroke-width:0.51667196"
     id="path996"
     d="m 31.086531,17.221985 a 10.901778,10.901778 0 0 1 1.860019,2.428358 c 0.110051,0.08319 0.212869,0.165852 0.300186,0.245937 4.539997,4.185042 2.16124,10.100936 1.984021,10.522023 3.688004,-3.038547 6.045062,-7.532043 5.336704,-12.170207 C 38.302371,12.600871 34.462982,10.324932 31.3273,5.3690136 31.168682,5.1184279 31.010063,4.867325 30.855578,4.6022722 30.767228,4.4508872 30.696443,4.3144857 30.63496,4.188935 a 3.6440873,3.6440873 0 0 1 -0.298637,-0.7930914 0.05166719,0.05166719 0 0 0 -0.04546,-0.051664 0.07130073,0.07130073 0 0 0 -0.03771,0 c -0.0026,0 -0.0067,0.00464 -0.0098,0.00571 -0.0031,0.00107 -0.0098,0.00571 -0.01447,0.00775 -0.774491,0.3673535 -5.367188,7.6395114 0.857676,13.8643754 z"
     inkscape:connector-curvature="0" />
  <path
     style="fill:url(#j);stroke-width:0.51667196"
     id="path998"
     d="M 33.243636,19.893696 C 33.156316,19.813616 33.053501,19.730944 32.94345,19.64776 32.90264,19.61727 32.86233,19.5868 32.818932,19.55631 a 6.9130708,6.9130708 0 0 0 -4.828299,-1.172329 c 7.202407,3.601204 5.270053,16.002364 -4.711532,15.53426 a 8.9048408,8.9048408 0 0 1 -2.605576,-0.502722 q -0.293987,-0.110052 -0.587973,-0.24077 c -0.113151,-0.05166 -0.226302,-0.103334 -0.337904,-0.161201 l 0.01395,0.0088 c 1.391915,0.950159 8.266752,3.271566 15.454692,-2.58336 l 0.01136,-0.02584 C 35.406935,29.994644 37.785693,24.0772 33.243629,19.893707 Z"
     inkscape:connector-curvature="0" />
  <path
     style="fill:url(#k);stroke-width:0.51667196"
     id="path1000"
     d="m 15.033017,26.46008 c 0,0 0.924326,-3.444652 6.618568,-3.444652 0.615356,0 2.376691,-1.717934 2.408208,-2.216006 a 9.9717686,9.9717686 0 0 1 -7.51861,-0.295537 7.5527108,7.5527108 0 0 0 -7.3620597,0.295537 5.142436,5.142436 0 0 0 4.7435657,2.983781 c -0.370971,3.27415 1.35988,7.091322 5.549573,9.093426 0.09352,0.04495 0.181352,0.09352 0.277453,0.136401 -2.445408,-1.263262 -4.464562,-3.652354 -4.716698,-6.55295 z"
     inkscape:connector-curvature="0" />
  <path
     style="fill:url(#l);stroke-width:0.51667196"
     id="path1002"
     d="M 42.551999,17.202352 C 41.681923,15.108797 39.916971,12.848357 38.534874,12.1338 a 20.804313,20.804313 0 0 1 2.027937,6.078129 l 0.0036,0.03359 C 38.302371,12.600871 34.462982,10.324932 31.3273,5.3690136 31.168682,5.1184279 31.010063,4.867325 30.855578,4.6022722 30.767228,4.4508872 30.696443,4.3144857 30.63496,4.188935 a 3.6440873,3.6440873 0 0 1 -0.298637,-0.7930914 0.05166719,0.05166719 0 0 0 -0.04546,-0.051664 0.07130073,0.07130073 0 0 0 -0.03771,0 c -0.0026,0 -0.0067,0.00464 -0.0098,0.00571 -0.0031,0.00107 -0.0098,0.00571 -0.01447,0.00775 l 0.0078,-0.013436 c -5.029879,2.945032 -6.736446,8.3969544 -6.893515,11.1239494 0.233536,-0.01601 0.465005,-0.03565 0.703708,-0.03565 a 10.106104,10.106104 0 0 1 8.774123,5.123836 6.9130708,6.9130708 0 0 0 -4.8283,-1.172329 c 7.202407,3.601204 5.270054,16.002364 -4.711531,15.53426 a 8.9048408,8.9048408 0 0 1 -2.605577,-0.502752 q -0.293986,-0.110052 -0.587973,-0.24077 c -0.11315,-0.05166 -0.226302,-0.103334 -0.337903,-0.161201 l 0.01395,0.0088 q -0.145702,-0.06975 -0.291404,-0.145185 c 0.09352,0.04495 0.181352,0.09352 0.277453,0.136401 -2.445408,-1.263779 -4.464562,-3.652871 -4.716698,-6.553467 0,0 0.924326,-3.444652 6.618568,-3.444652 0.615356,0 2.376691,-1.717934 2.408208,-2.216006 -0.0078,-0.162751 -3.492703,-1.550016 -4.85155,-2.888196 -0.725924,-0.71559 -1.070544,-1.060211 -1.375897,-1.319063 a 5.9866779,5.9866779 0 0 0 -0.516672,-0.391638 9.2835615,9.2835615 0 0 1 -0.05632,-4.894433 14.831069,14.831069 0 0 0 -4.820032,3.725204 h -0.0093 c -0.793608,-1.00596 -0.737808,-4.322994 -0.69234,-5.015851 a 3.5795033,3.5795033 0 0 0 -0.668574,0.354953 14.583066,14.583066 0 0 0 -1.9571537,1.676601 17.486762,17.486762 0 0 0 -1.8719023,2.245973 v 0.0031 -0.0036 a 16.912223,16.912223 0 0 0 -2.6866941,6.067278 l -0.026867,0.132268 c -0.037717,0.176186 -0.2066687,1.071061 -0.2309523,1.263263 0,0.01446 0,-0.01499 0,0 a 23.298805,23.298805 0 0 0 -0.2955383,2.791631 v 0.103335 a 20.025688,20.025688 0 0 0 39.7599777,3.386183 c 0.03359,-0.258336 0.06096,-0.514088 0.09093,-0.775008 A 20.592994,20.592994 0 0 0 42.551999,17.202352 Z m -1.986604,1.028693 0.0036,0.02119 z"
     inkscape:connector-curvature="0" />
</svg>
