<?xml version="1.0" encoding="UTF-8" standalone="no"?>
<!-- This Source Code Form is subject to the terms of the Mozilla Public
   - License, v. 2.0. If a copy of the MPL was not distributed with this
   - file, You can obtain one at http://mozilla.org/MPL/2.0/. -->

<!-- IMPORTANT - The text part needs 'context-fill' for dark mode support on some pages -->

<svg
   xmlns:dc="http://purl.org/dc/elements/1.1/"
   xmlns:cc="http://creativecommons.org/ns#"
   xmlns:rdf="http://www.w3.org/1999/02/22-rdf-syntax-ns#"
   xmlns:svg="http://www.w3.org/2000/svg"
   xmlns="http://www.w3.org/2000/svg"
   xmlns:sodipodi="http://sodipodi.sourceforge.net/DTD/sodipodi-0.dtd"
   xmlns:inkscape="http://www.inkscape.org/namespaces/inkscape"
   viewBox="0 0 48 48"
   version="1.1"
   id="svg5182"
   sodipodi:docname="firefox-trunk.svg"
   width="48"
   height="48"
   inkscape:version="0.92.4 5da689c313, 2019-01-14">
  <metadata
     id="metadata5186">
    <rdf:RDF>
      <cc:Work
         rdf:about="">
        <dc:format>image/svg+xml</dc:format>
        <dc:type
           rdf:resource="http://purl.org/dc/dcmitype/StillImage" />
        <dc:title></dc:title>
      </cc:Work>
    </rdf:RDF>
  </metadata>
  <sodipodi:namedview
     pagecolor="#ffffff"
     bordercolor="#666666"
     borderopacity="1"
     objecttolerance="10"
     gridtolerance="10"
     guidetolerance="10"
     inkscape:pageopacity="0"
     inkscape:pageshadow="2"
     inkscape:window-width="1366"
     inkscape:window-height="708"
     id="namedview5184"
     showgrid="false"
     fit-margin-top="0"
     fit-margin-left="0"
     fit-margin-right="0"
     fit-margin-bottom="0"
     inkscape:zoom="3.281106"
     inkscape:cx="47.006882"
     inkscape:cy="39.971062"
     inkscape:window-x="0"
     inkscape:window-y="19"
     inkscape:window-maximized="1"
     inkscape:current-layer="svg5182" />
  <defs
     id="defs5140">
    <linearGradient
       id="a"
       x1="74.803001"
       y1="20.542999"
       x2="7.7420001"
       y2="62.785999"
       gradientUnits="userSpaceOnUse"
       gradientTransform="matrix(0.51667195,0,0,0.51667195,3.3283259,3.3394953)">
      <stop
         offset="0"
         stop-color="#3fe1b0"
         id="stop4973" />
      <stop
         offset=".406"
         stop-color="#00b3f4"
         id="stop4975" />
      <stop
         offset=".421"
         stop-color="#03b0f4"
         id="stop4977" />
      <stop
         offset=".818"
         stop-color="#5561e9"
         id="stop4979" />
      <stop
         offset="1"
         stop-color="#7542e5"
         id="stop4981" />
    </linearGradient>
    <radialGradient
       id="b"
       cx="-7907.187"
       cy="-8515.1211"
       r="80.796997"
       gradientTransform="matrix(0.51667195,0,0,0.51667195,4123.7871,4407.4511)"
       gradientUnits="userSpaceOnUse">
      <stop
         offset=".108"
         stop-color="#3fe1b0"
         id="stop4984" />
      <stop
         offset=".122"
         stop-color="#3bdcb3"
         id="stop4986" />
      <stop
         offset=".254"
         stop-color="#1bb3d3"
         id="stop4988" />
      <stop
         offset=".358"
         stop-color="#0799e6"
         id="stop4990" />
      <stop
         offset=".42"
         stop-color="#0090ed"
         id="stop4992" />
      <stop
         offset=".487"
         stop-color="#2482f1"
         id="stop4994" />
      <stop
         offset=".64"
         stop-color="#7165fb"
         id="stop4996" />
      <stop
         offset=".71"
         stop-color="#9059ff"
         id="stop4998" />
      <stop
         offset=".795"
         stop-color="#7d49ed"
         id="stop5000" />
      <stop
         offset=".86"
         stop-color="#7542e5"
         id="stop5002" />
    </radialGradient>
    <radialGradient
       id="c"
       cx="-7936.7109"
       cy="-8482.0889"
       r="80.796997"
       gradientTransform="matrix(0.51667195,0,0,0.51667195,4123.7871,4407.4511)"
       gradientUnits="userSpaceOnUse">
      <stop
         offset=".3"
         stop-color="#45278d"
         id="stop5005" />
      <stop
         offset=".341"
         stop-color="#562896"
         stop-opacity=".787"
         id="stop5007" />
      <stop
         offset=".43"
         stop-color="#782aa9"
         stop-opacity=".364"
         id="stop5009" />
      <stop
         offset=".495"
         stop-color="#8d2bb5"
         stop-opacity=".1"
         id="stop5011" />
      <stop
         offset=".53"
         stop-color="#952bb9"
         stop-opacity="0"
         id="stop5013" />
    </radialGradient>
    <radialGradient
       id="d"
       cx="-7926.9702"
       cy="-8533.457"
       r="58.534"
       gradientTransform="matrix(0.51667195,0,0,0.51667195,4123.7871,4407.4511)"
       gradientUnits="userSpaceOnUse">
      <stop
         offset=".132"
         stop-color="#3fe1b0"
         id="stop5016" />
      <stop
         offset=".289"
         stop-color="#28d0c8"
         id="stop5018" />
      <stop
         offset=".526"
         stop-color="#00b3f4"
         id="stop5020" />
    </radialGradient>
    <radialGradient
       id="e"
       cx="-7945.6479"
       cy="-8460.9844"
       r="38.471001"
       gradientTransform="matrix(0.51667195,0,0,0.51667195,4123.7871,4407.4511)"
       gradientUnits="userSpaceOnUse">
      <stop
         offset=".287"
         stop-color="#0060df"
         id="stop5023" />
      <stop
         offset=".417"
         stop-color="#2357e1"
         id="stop5025" />
      <stop
         offset=".604"
         stop-color="#4f4ce3"
         id="stop5027" />
      <stop
         offset=".748"
         stop-color="#6b45e4"
         id="stop5029" />
      <stop
         offset=".833"
         stop-color="#7542e5"
         id="stop5031" />
    </radialGradient>
    <radialGradient
       id="f"
       cx="-7935.6201"
       cy="-8491.5459"
       r="20.396999"
       gradientTransform="matrix(0.50220513,-0.12141791,0.14208478,0.58797268,5217.221,4050.8431)"
       gradientUnits="userSpaceOnUse">
      <stop
         offset=".206"
         stop-color="#45278d"
         stop-opacity="0"
         id="stop5034" />
      <stop
         offset=".251"
         stop-color="#44268a"
         stop-opacity=".055"
         id="stop5036" />
      <stop
         offset=".725"
         stop-color="#371f6f"
         stop-opacity=".591"
         id="stop5038" />
      <stop
         offset=".956"
         stop-color="#321c64"
         stop-opacity=".8"
         id="stop5040" />
    </radialGradient>
    <radialGradient
       id="g"
       cx="-7943.645"
       cy="-8466.5225"
       r="0.62599999"
       gradientTransform="matrix(0.51667195,0,0,0.51667195,4123.7871,4407.4511)"
       gradientUnits="userSpaceOnUse">
      <stop
         offset=".353"
         stop-color="#3a8ee6"
         id="stop5043" />
      <stop
         offset=".472"
         stop-color="#5c79f0"
         id="stop5045" />
      <stop
         offset=".669"
         stop-color="#9059ff"
         id="stop5047" />
      <stop
         offset="1"
         stop-color="#c139e6"
         id="stop5049" />
    </radialGradient>
    <radialGradient
       id="h"
       cx="-7943.48"
       cy="-8466.749"
       r="0.22400001"
       gradientTransform="matrix(0.50220513,-0.12141791,0.14208478,0.58797268,5213.5785,4048.1141)"
       gradientUnits="userSpaceOnUse">
      <stop
         offset=".206"
         stop-color="#9059ff"
         stop-opacity="0"
         id="stop5052" />
      <stop
         offset=".278"
         stop-color="#8c4ff3"
         stop-opacity=".064"
         id="stop5054" />
      <stop
         offset=".747"
         stop-color="#7716a8"
         stop-opacity=".45"
         id="stop5056" />
      <stop
         offset=".975"
         stop-color="#6e008b"
         stop-opacity=".6"
         id="stop5058" />
    </radialGradient>
    <radialGradient
       id="i"
       cx="-7937.731"
       cy="-8518.4268"
       r="27.676001"
       gradientTransform="matrix(0.51667195,0,0,0.51667195,4123.7871,4407.4511)"
       gradientUnits="userSpaceOnUse">
      <stop
         offset="0"
         stop-color="#0df"
         id="stop5061" />
      <stop
         offset=".235"
         stop-color="#00d6fd"
         id="stop5063" />
      <stop
         offset=".572"
         stop-color="#00c3f8"
         id="stop5065" />
      <stop
         offset=".792"
         stop-color="#00b3f4"
         id="stop5067" />
    </radialGradient>
    <radialGradient
       id="j"
       cx="-7915.9771"
       cy="-8535.9814"
       r="118.081"
       gradientTransform="matrix(0.51667195,0,0,0.51667195,4123.7871,4407.4511)"
       gradientUnits="userSpaceOnUse">
      <stop
         offset=".126"
         stop-color="#3fe1b0"
         id="stop5070" />
      <stop
         offset=".429"
         stop-color="#0df"
         id="stop5072" />
      <stop
         offset=".479"
         stop-color="#1ec1ff"
         id="stop5074" />
      <stop
         offset=".624"
         stop-color="#7077ff"
         id="stop5076" />
      <stop
         offset=".69"
         stop-color="#9059ff"
         id="stop5078" />
      <stop
         offset=".904"
         stop-color="#b833e1"
         id="stop5080" />
    </radialGradient>
    <radialGradient
       id="k"
       cx="-7927.165"
       cy="-8522.8594"
       r="86.499001"
       gradientTransform="matrix(0.05425056,0.51408859,-0.33738678,0.03565036,-2416.7651,4379.6496)"
       gradientUnits="userSpaceOnUse">
      <stop
         offset="0"
         stop-color="#54ffbd"
         id="stop5083" />
      <stop
         offset=".095"
         stop-color="#4cf3b8"
         id="stop5085" />
      <stop
         offset=".197"
         stop-color="#3fe1b0"
         id="stop5087" />
      <stop
         offset=".257"
         stop-color="#33d8bd"
         id="stop5089" />
      <stop
         offset=".369"
         stop-color="#12c0e1"
         id="stop5091" />
      <stop
         offset=".423"
         stop-color="#00b3f4"
         id="stop5093" />
      <stop
         offset=".737"
         stop-color="#0060df"
         id="stop5095" />
    </radialGradient>
    <radialGradient
       id="l"
       cx="-7938.3828"
       cy="-8508.1758"
       r="73.720001"
       gradientTransform="matrix(0.51667195,0,0,0.51667195,4123.7871,4407.4511)"
       gradientUnits="userSpaceOnUse">
      <stop
         offset=".137"
         stop-color="#3fe1b0"
         id="stop5098" />
      <stop
         offset=".435"
         stop-color="#0df"
         id="stop5100" />
      <stop
         offset=".484"
         stop-color="#1ec1ff"
         id="stop5102" />
      <stop
         offset=".622"
         stop-color="#7077ff"
         id="stop5104" />
      <stop
         offset=".685"
         stop-color="#9059ff"
         id="stop5106" />
    </radialGradient>
    <radialGradient
       id="m"
       cx="-7918.9229"
       cy="-8503.8613"
       r="80.685997"
       gradientTransform="matrix(0.51667195,0,0,0.51667195,4123.7871,4407.4511)"
       gradientUnits="userSpaceOnUse">
      <stop
         offset=".094"
         stop-color="#54ffbd"
         id="stop5109" />
      <stop
         offset=".242"
         stop-color="#41f7cc"
         id="stop5111" />
      <stop
         offset=".543"
         stop-color="#0fe3f3"
         id="stop5113" />
      <stop
         offset=".626"
         stop-color="#0df"
         id="stop5115" />
    </radialGradient>
    <linearGradient
       id="n"
       x1="70.013"
       y1="12.061"
       x2="15.267"
       y2="66.806"
       gradientUnits="userSpaceOnUse"
       gradientTransform="matrix(0.51667195,0,0,0.51667195,3.3283259,3.3394953)">
      <stop
         offset=".167"
         stop-color="#54ffbd"
         stop-opacity=".8"
         id="stop5118" />
      <stop
         offset=".236"
         stop-color="#43f8ca"
         stop-opacity=".639"
         id="stop5120" />
      <stop
         offset=".361"
         stop-color="#27ede1"
         stop-opacity=".368"
         id="stop5122" />
      <stop
         offset=".466"
         stop-color="#12e4f1"
         stop-opacity=".169"
         id="stop5124" />
      <stop
         offset=".545"
         stop-color="#05dffb"
         stop-opacity=".046"
         id="stop5126" />
      <stop
         offset=".589"
         stop-color="#0df"
         stop-opacity="0"
         id="stop5128" />
    </linearGradient>
    <linearGradient
       id="o"
       x1="75.657997"
       y1="72"
       x2="203.22"
       y2="72"
       gradientUnits="userSpaceOnUse">
      <stop
         offset=".002"
         stop-color="#005e5e"
         id="stop5131" />
      <stop
         offset=".478"
         stop-color="#0250bb"
         id="stop5133" />
      <stop
         offset=".735"
         stop-color="#253ba3"
         id="stop5135" />
      <stop
         offset="1"
         stop-color="#45278d"
         id="stop5137" />
    </linearGradient>
  </defs>
  <path
     d="M 42.551994,17.20232 C 41.681919,15.108765 39.916967,12.848326 38.53487,12.133768 a 20.804313,20.804313 0 0 1 2.027937,6.07813 l 0.0036,0.03359 C 38.302367,12.60084 34.462978,10.3249 31.327296,5.3689823 31.168678,5.1183966 31.010059,4.8672937 30.855574,4.6022409 30.767224,4.4508559 30.696439,4.3144544 30.634956,4.1889037 a 3.6440873,3.6440873 0 0 1 -0.298637,-0.7930914 0.05166719,0.05166719 0 0 0 -0.04546,-0.051664 0.07130073,0.07130073 0 0 0 -0.03771,0 c -0.0026,0 -0.0067,0.00464 -0.0098,0.00571 -0.0031,0.00107 -0.0098,0.00571 -0.01446,0.00775 l 0.0078,-0.013436 C 25.2068,6.2891749 23.500233,11.741098 23.343164,14.468093 a 10.016719,10.016719 0 0 0 -5.510823,2.124038 5.9866779,5.9866779 0 0 0 -0.516672,-0.391638 9.2835614,9.2835614 0 0 1 -0.05631,-4.894433 14.831069,14.831069 0 0 0 -4.820033,3.725205 h -0.0093 c -0.793608,-1.00596 -0.737807,-4.322995 -0.69234,-5.015852 a 3.5795033,3.5795033 0 0 0 -0.668573,0.354954 14.583066,14.583066 0 0 0 -1.9571547,1.676601 17.486762,17.486762 0 0 0 -1.8719022,2.245972 v 0.0031 -0.0036 a 16.912223,16.912223 0 0 0 -2.6866942,6.067279 l -0.026867,0.132267 c -0.037717,0.176186 -0.1736017,1.058662 -0.196852,1.250347 0,0.01499 -0.0031,0.02894 -0.00465,0.04391 a 19.084311,19.084311 0 0 0 -0.3249896,2.760636 v 0.103335 a 20.025688,20.025688 0 0 0 39.7599737,3.386268 c 0.03359,-0.258337 0.06096,-0.514089 0.09093,-0.775008 A 20.592994,20.592994 0 0 0 42.551994,17.20232 Z M 19.472258,32.877114 c 0.09352,0.04495 0.181352,0.09352 0.277453,0.136401 l 0.01395,0.0088 Q 19.617959,32.952565 19.472257,32.87713 Z M 24.059271,20.79939 Z m 16.508703,-2.549259 v -0.01911 l 0.0036,0.02119 z"
     id="path5142"
     inkscape:connector-curvature="0"
     style="fill:url(#a);stroke-width:0.51667196" />
  <path
     d="m 40.569007,18.252198 -0.0036,-0.02119 v 0.01911 z"
     id="path5144"
     inkscape:connector-curvature="0"
     style="fill:none;stroke-width:0.51667196" />
  <path
     d="M 42.551994,17.20232 C 41.681919,15.108765 39.916967,12.848326 38.53487,12.133768 a 20.804313,20.804313 0 0 1 2.027937,6.07813 v 0.01911 l 0.0036,0.02119 a 18.135186,18.135186 0 0 1 -0.623133,13.515105 c -2.295056,4.9244 -7.850313,9.971768 -16.545902,9.726349 C 14.001736,41.227566 5.7272338,34.255595 4.1803179,25.123935 c -0.2815862,-1.439965 0,-2.170022 0.1415682,-3.340285 a 14.919419,14.919419 0 0 0 -0.3218867,2.763162 v 0.103335 a 20.025688,20.025688 0 0 0 39.7599736,3.386268 c 0.03359,-0.258337 0.06096,-0.514089 0.09093,-0.775008 A 20.592994,20.592994 0 0 0 42.551994,17.20232 Z"
     id="path5146"
     inkscape:connector-curvature="0"
     style="fill:url(#b);stroke-width:0.51667196" />
  <path
     d="M 42.551994,17.20232 C 41.681919,15.108765 39.916967,12.848326 38.53487,12.133768 a 20.804313,20.804313 0 0 1 2.027937,6.07813 v 0.01911 l 0.0036,0.02119 a 18.135186,18.135186 0 0 1 -0.623133,13.515105 c -2.295056,4.9244 -7.850313,9.971768 -16.545902,9.726349 C 14.001736,41.227566 5.7272338,34.255595 4.1803179,25.123935 c -0.2815862,-1.439965 0,-2.170022 0.1415682,-3.340285 a 14.919419,14.919419 0 0 0 -0.3218867,2.763162 v 0.103335 a 20.025688,20.025688 0 0 0 39.7599736,3.386268 c 0.03359,-0.258337 0.06096,-0.514089 0.09093,-0.775008 A 20.592994,20.592994 0 0 0 42.551994,17.20232 Z"
     id="path5148"
     inkscape:connector-curvature="0"
     style="fill:url(#c);stroke-width:0.51667196" />
  <path
     d="m 32.820995,19.556278 c 0.0434,0.03048 0.0837,0.06096 0.124518,0.09145 A 10.901778,10.901778 0 0 0 31.085494,17.221954 C 24.861664,10.99709 29.45436,3.7249323 30.228851,3.3555116 l 0.0078,-0.011364 C 25.2068,6.2891771 23.500233,11.7411 23.343164,14.468095 c 0.233536,-0.01602 0.465005,-0.03565 0.703707,-0.03565 a 10.106104,10.106104 0 0 1 8.774124,5.123835 z"
     id="path5150"
     inkscape:connector-curvature="0"
     style="fill:url(#d);stroke-width:0.51667196" />
  <path
     d="m 24.059789,20.79939 c -0.03306,0.498073 -1.792853,2.216006 -2.408208,2.216006 -5.694242,0 -6.618568,3.444652 -6.618568,3.444652 0.252136,2.900597 2.273356,5.289688 4.716698,6.553467 0.111601,0.05786 0.224753,0.110052 0.337903,0.161202 q 0.293987,0.130201 0.587973,0.240769 a 8.9048407,8.9048407 0 0 0 2.605577,0.502722 c 9.980552,0.468105 11.913938,-11.935122 4.711531,-15.534259 a 6.9130707,6.9130707 0 0 1 4.8283,1.172329 10.106104,10.106104 0 0 0 -8.774124,-5.123836 c -0.237668,0 -0.470171,0.01964 -0.703707,0.03565 a 10.016719,10.016719 0 0 0 -5.510823,2.124038 c 0.305353,0.258336 0.649974,0.603473 1.375898,1.319063 1.358847,1.338697 4.8438,2.725445 4.85155,2.888197 z"
     id="path5152"
     inkscape:connector-curvature="0"
     style="fill:url(#e);stroke-width:0.51667196" />
  <path
     d="m 24.059789,20.79939 c -0.03306,0.498073 -1.792853,2.216006 -2.408208,2.216006 -5.694242,0 -6.618568,3.444652 -6.618568,3.444652 0.252136,2.900597 2.273356,5.289688 4.716698,6.553467 0.111601,0.05786 0.224753,0.110052 0.337903,0.161202 q 0.293987,0.130201 0.587973,0.240769 a 8.9048407,8.9048407 0 0 0 2.605577,0.502722 c 9.980552,0.468105 11.913938,-11.935122 4.711531,-15.534259 a 6.9130707,6.9130707 0 0 1 4.8283,1.172329 10.106104,10.106104 0 0 0 -8.774124,-5.123836 c -0.237668,0 -0.470171,0.01964 -0.703707,0.03565 a 10.016719,10.016719 0 0 0 -5.510823,2.124038 c 0.305353,0.258336 0.649974,0.603473 1.375898,1.319063 1.358847,1.338697 4.8438,2.725445 4.85155,2.888197 z"
     id="path5154"
     inkscape:connector-curvature="0"
     style="fill:url(#f);stroke-width:0.51667196" />
  <path
     d="m 19.472258,32.877114 q 0.145702,0.07492 0.291403,0.145185 l -0.01395,-0.0088 c -0.09455,-0.04288 -0.183935,-0.09145 -0.277452,-0.136401 z"
     id="path5156"
     inkscape:connector-curvature="0"
     style="fill:url(#g);stroke-width:0.51667196" />
  <path
     d="m 19.472258,32.877114 q 0.145702,0.07492 0.291403,0.145185 l -0.01395,-0.0088 c -0.09455,-0.04288 -0.183935,-0.09145 -0.277452,-0.136401 z"
     id="path5158"
     inkscape:connector-curvature="0"
     style="fill:url(#h);stroke-width:0.51667196" />
  <path
     d="m 16.898715,15.92614 c 0.162235,0.103335 0.296054,0.193236 0.413338,0.274353 a 9.2835614,9.2835614 0 0 1 -0.05631,-4.894433 14.831069,14.831069 0 0 0 -4.820033,3.725205 c 0.09765,-0.0026 3.00238,-0.05476 4.463012,0.894875 z"
     id="path5160"
     inkscape:connector-curvature="0"
     style="fill:url(#i);stroke-width:0.51667196" />
  <path
     d="m 4.1829013,25.123935 c 1.5453658,9.13166 9.8214177,16.103631 19.2170977,16.369717 8.695588,0.245936 14.250845,-4.801949 16.545902,-9.726349 a 18.135186,18.135186 0 0 0 0.623106,-13.515105 v -0.01911 c 0,-0.01499 -0.0031,-0.02376 0,-0.01911 l 0.0036,0.03359 c 0.710424,4.638164 -1.6487,9.13166 -5.336704,12.170208 l -0.01136,0.02583 c -7.185873,5.852344 -14.062777,3.530937 -15.454691,2.58336 q -0.145701,-0.06975 -0.291403,-0.145185 c -4.189721,-2.00263 -5.920573,-5.819802 -5.549602,-9.093435 a 5.1424359,5.1424359 0 0 1 -4.7435657,-2.98378 7.5527107,7.5527107 0 0 1 7.3620597,-0.295537 9.9717686,9.9717686 0 0 0 7.51861,0.295537 c -0.0077,-0.162753 -3.492703,-1.550017 -4.85155,-2.888197 -0.725924,-0.715591 -1.070545,-1.060211 -1.375898,-1.319063 a 5.9866779,5.9866779 0 0 0 -0.516672,-0.391638 c -0.118834,-0.08112 -0.252652,-0.168952 -0.413337,-0.274352 -1.460631,-0.949643 -4.365361,-0.89746 -4.461462,-0.894876 h -0.0093 c -0.793609,-1.005961 -0.737808,-4.322994 -0.692341,-5.015852 a 3.5795033,3.5795033 0 0 0 -0.668573,0.354954 14.583066,14.583066 0 0 0 -1.9571545,1.676601 17.486762,17.486762 0 0 0 -1.8796523,2.240805 v 0.0031 -0.0036 a 16.912223,16.912223 0 0 0 -2.6866941,6.067279 c -0.00982,0.04081 -0.721274,3.151182 -0.3704538,4.764232 z"
     id="path5162"
     inkscape:connector-curvature="0"
     style="fill:url(#j);stroke-width:0.51667196" />
  <path
     d="m 24.059789,20.79939 h -5.18e-4 z"
     id="path5164"
     inkscape:connector-curvature="0"
     style="fill:#ff4aa2;stroke-width:0.51667196" />
  <path
     d="m 31.086527,17.221954 a 10.901778,10.901778 0 0 1 1.860019,2.428358 c 0.110051,0.08318 0.212869,0.165852 0.300186,0.245936 4.539997,4.185042 2.161239,10.100937 1.984021,10.522024 3.688004,-3.038547 6.045061,-7.532044 5.336704,-12.170207 C 38.302367,12.60084 34.462978,10.3249 31.327296,5.3689823 31.168678,5.1183966 31.010059,4.8672937 30.855574,4.6022409 30.767224,4.4508559 30.696439,4.3144544 30.634956,4.1889037 a 3.6440873,3.6440873 0 0 1 -0.298637,-0.7930914 0.05166719,0.05166719 0 0 0 -0.04546,-0.051664 0.07130073,0.07130073 0 0 0 -0.03771,0 c -0.0026,0 -0.0067,0.00464 -0.0098,0.00571 -0.0031,0.00107 -0.0098,0.00571 -0.01446,0.00775 -0.774491,0.3673536 -5.367188,7.6395117 0.857676,13.8643757 z"
     id="path5166"
     inkscape:connector-curvature="0"
     style="fill:url(#k);stroke-width:0.51667196" />
  <path
     d="m 33.243632,19.893665 c -0.08732,-0.08009 -0.190135,-0.162752 -0.300186,-0.245936 -0.04082,-0.03049 -0.08112,-0.06096 -0.124518,-0.09145 A 6.9130707,6.9130707 0 0 0 27.990629,18.38395 c 7.202407,3.601204 5.270053,16.002364 -4.711532,15.534259 a 8.9048407,8.9048407 0 0 1 -2.605576,-0.502722 q -0.293987,-0.110051 -0.587973,-0.240769 c -0.113152,-0.05166 -0.226302,-0.103334 -0.337904,-0.161202 l 0.01395,0.0088 c 1.391915,0.950159 8.266752,3.271567 15.454692,-2.58336 l 0.01136,-0.02584 c 0.179285,-0.418504 2.558043,-6.335947 -1.984021,-10.51944 z"
     id="path5168"
     inkscape:connector-curvature="0"
     style="fill:url(#l);stroke-width:0.51667196" />
  <path
     d="m 15.033013,26.460048 c 0,0 0.924326,-3.444652 6.618568,-3.444652 0.615355,0 2.37669,-1.717933 2.408208,-2.216006 a 9.9717686,9.9717686 0 0 1 -7.51861,-0.295536 7.5527107,7.5527107 0 0 0 -7.3620597,0.295536 5.1424359,5.1424359 0 0 0 4.7435657,2.983781 c -0.370971,3.27415 1.35988,7.091322 5.549573,9.093427 0.09352,0.04495 0.181352,0.09352 0.277453,0.136401 -2.445408,-1.263263 -4.464562,-3.652354 -4.716698,-6.552951 z"
     id="path5170"
     inkscape:connector-curvature="0"
     style="fill:url(#m);stroke-width:0.51667196" />
  <path
     d="m 28.881888,23.210182 -5.17e-4,5.16e-4 z"
     id="path5172"
     inkscape:connector-curvature="0"
     style="fill:#ff4aa2;stroke-width:0.51667196" />
  <path
     d="M 42.551994,17.20232 C 41.681919,15.108765 39.916967,12.848326 38.53487,12.133768 a 20.804313,20.804313 0 0 1 2.027937,6.07813 l 0.0036,0.03359 C 38.302367,12.60084 34.462978,10.3249 31.327296,5.3689823 31.168678,5.1183966 31.010059,4.8672937 30.855574,4.6022409 30.767224,4.4508559 30.696439,4.3144544 30.634956,4.1889037 a 3.6440873,3.6440873 0 0 1 -0.298637,-0.7930914 0.05166719,0.05166719 0 0 0 -0.04546,-0.051664 0.07130073,0.07130073 0 0 0 -0.03771,0 c -0.0026,0 -0.0067,0.00464 -0.0098,0.00571 -0.0031,0.00107 -0.0098,0.00571 -0.01446,0.00775 l 0.0078,-0.013436 C 25.2068,6.2892042 23.500233,11.741127 23.343164,14.468122 c 0.233536,-0.01601 0.465005,-0.03565 0.703707,-0.03565 a 10.106104,10.106104 0 0 1 8.774124,5.123836 6.9130707,6.9130707 0 0 0 -4.8283,-1.172329 c 7.202407,3.601204 5.270054,16.002364 -4.711531,15.534259 a 8.9048407,8.9048407 0 0 1 -2.605577,-0.502752 q -0.293986,-0.110051 -0.587973,-0.240769 c -0.11315,-0.05166 -0.226302,-0.103334 -0.337903,-0.161202 l 0.01395,0.0088 q -0.145702,-0.06975 -0.291404,-0.145185 c 0.09352,0.04495 0.181352,0.09352 0.277453,0.136402 -2.445408,-1.26378 -4.464562,-3.652871 -4.716698,-6.553468 0,0 0.924326,-3.444652 6.618568,-3.444652 0.615356,0 2.376691,-1.717933 2.408208,-2.216005 -0.0078,-0.162752 -3.492703,-1.550016 -4.85155,-2.888197 -0.725924,-0.71559 -1.070544,-1.060211 -1.375897,-1.319063 a 5.9866779,5.9866779 0 0 0 -0.516672,-0.391638 9.2835614,9.2835614 0 0 1 -0.05632,-4.894432 14.831069,14.831069 0 0 0 -4.820033,3.725204 h -0.0093 c -0.793607,-1.00596 -0.737807,-4.322994 -0.69234,-5.015852 a 3.5795033,3.5795033 0 0 0 -0.668573,0.354954 14.583066,14.583066 0 0 0 -1.9571544,1.676601 17.486762,17.486762 0 0 0 -1.8719023,2.245973 v 0.0031 -0.0036 a 16.912223,16.912223 0 0 0 -2.6866941,6.067279 l -0.026867,0.132268 c -0.037717,0.176185 -0.2066688,1.071061 -0.2309524,1.263262 0,0.01447 0,-0.01498 0,0 a 23.298805,23.298805 0 0 0 -0.2955385,2.791632 v 0.103335 a 20.025688,20.025688 0 0 0 39.7599737,3.386268 c 0.03359,-0.258337 0.06096,-0.514089 0.09093,-0.775008 A 20.592994,20.592994 0 0 0 42.551994,17.20232 Z m -1.986603,1.028694 0.0036,0.02119 z"
     id="path5174"
     inkscape:connector-curvature="0"
     style="fill:url(#n);stroke-width:0.51667196" />
</svg>
