<?xml version="1.0" encoding="UTF-8" standalone="no"?>
<svg
   xmlns:dc="http://purl.org/dc/elements/1.1/"
   xmlns:cc="http://creativecommons.org/ns#"
   xmlns:rdf="http://www.w3.org/1999/02/22-rdf-syntax-ns#"
   xmlns:svg="http://www.w3.org/2000/svg"
   xmlns="http://www.w3.org/2000/svg"
   xmlns:xlink="http://www.w3.org/1999/xlink"
   xmlns:sodipodi="http://sodipodi.sourceforge.net/DTD/sodipodi-0.dtd"
   xmlns:inkscape="http://www.inkscape.org/namespaces/inkscape"
   width="48"
   height="48"
   version="1.1"
   viewBox="0 0 36 36"
   id="svg26"
   sodipodi:docname="gnome-contacts.svg"
   inkscape:version="0.92.4 5da689c313, 2019-01-14">
  <metadata
     id="metadata30">
    <rdf:RDF>
      <cc:Work
         rdf:about="">
        <dc:format>image/svg+xml</dc:format>
        <dc:type
           rdf:resource="http://purl.org/dc/dcmitype/StillImage" />
        <dc:title></dc:title>
      </cc:Work>
    </rdf:RDF>
  </metadata>
  <sodipodi:namedview
     pagecolor="#ffffff"
     bordercolor="#666666"
     borderopacity="1"
     objecttolerance="10"
     gridtolerance="10"
     guidetolerance="10"
     inkscape:pageopacity="0"
     inkscape:pageshadow="2"
     inkscape:window-width="1366"
     inkscape:window-height="712"
     id="namedview28"
     showgrid="false"
     inkscape:zoom="8.484375"
     inkscape:cx="32"
     inkscape:cy="32"
     inkscape:window-x="0"
     inkscape:window-y="25"
     inkscape:window-maximized="1"
     inkscape:current-layer="svg26" />
  <defs
     id="defs10">
    <linearGradient
       inkscape:collect="always"
       id="linearGradient829">
      <stop
         style="stop-color:#0066cc;stop-opacity:1;"
         offset="0"
         id="stop825" />
      <stop
         style="stop-color:#0099ff;stop-opacity:1"
         offset="1"
         id="stop827" />
    </linearGradient>
    <clipPath
       id="clipPath4">
      <rect
         width="384"
         height="384"
         id="rect2"
         x="0"
         y="0" />
    </clipPath>
    <clipPath
       id="clipPath8">
      <rect
         width="384"
         height="384"
         id="rect6"
         x="0"
         y="0" />
    </clipPath>
    <linearGradient
       inkscape:collect="always"
       xlink:href="#linearGradient829"
       id="linearGradient831"
       x1="23.758291"
       y1="40.747311"
       x2="25.647699"
       y2="2.4176376"
       gradientUnits="userSpaceOnUse"
       gradientTransform="matrix(0.70833332,0,0,0.71428571,1,0.85714288)" />
    <filter
       inkscape:collect="always"
       style="color-interpolation-filters:sRGB"
       id="filter876"
       x="-0.04730333"
       width="1.0946068"
       y="-0.048717495"
       height="1.097435">
      <feGaussianBlur
         inkscape:collect="always"
         stdDeviation="0.35885774"
         id="feGaussianBlur878" />
    </filter>
  </defs>
  <path
     d="M 6.1831758,5.4488993 H 29.817135 c 0.515202,0 0.932772,0.4011349 0.932772,0.8958933 V 32.103839 C 30.749907,32.59891 30.332325,33 29.817135,33 H 6.1831758 C 5.6679766,33 5.2500343,32.598866 5.2500343,32.103839 V 6.3447926 c 0,-0.494723 0.4179423,-0.8958933 0.9331415,-0.8958933 z"
     id="path12"
     style="fill:#0066cc;stroke-width:0.0842312"
     inkscape:connector-curvature="0" />
  <path
     d="M 6.1828061,3 H 29.816766 c 0.5152,0 0.932772,0.4011346 0.932772,0.8961604 V 29.655207 c 0,0.494723 -0.417581,0.895893 -0.932772,0.895893 H 6.1828061 c -0.5151993,0 -0.9327718,-0.401134 -0.9327718,-0.895893 V 3.8961604 C 5.2500343,3.4010897 5.6676162,3 6.1828061,3 Z"
     id="path14"
     style="fill:url(#linearGradient831);fill-opacity:1;stroke-width:0.0842312"
     inkscape:connector-curvature="0" />
  <path
     d="m 6.4219943,3 c -0.6491244,0 -1.17196,0.3997458 -1.17196,0.8961604 V 32.104462 c 0,0.4902 0.5096716,0.885073 1.1474468,0.895181 H 10.477595 V 3.0002674 Z"
     id="path16"
     style="fill:#000000;fill-opacity:0.19607843;stroke-width:0.09441518"
     inkscape:connector-curvature="0" />
  <path
     d="m 30.749351,29.655207 c 0,0.49646 -0.416138,0.895893 -0.932769,0.895893 H 6.1826208 c -0.1099096,0 -0.2151169,-0.01879 -0.313096,-0.05219 v 1.83659 c 0.097979,0.0334 0.2031864,0.05253 0.313096,0.05253 H 29.816582 c 0.517002,0 0.933141,-0.399745 0.933141,-0.89616 z"
     id="path18"
     inkscape:connector-curvature="0"
     style="fill:#ffffff;stroke-width:0.0842312" />
  <path
     d="m 5.2500351,28.987228 v 0.667979 c 0,0.0042 6.071e-4,0.0083 6.679e-4,0.01252 l -5.4e-4,1.76834 0.6195483,0.899432 -4.969e-4,-1.837342 c 0.098134,0.03369 0.2033966,0.05297 0.3135959,0.05297 H 29.816986 c 0.515203,0 0.932816,-0.401176 0.932816,-0.895893 v -0.667979 c 0,0.494718 -0.41758,0.895892 -0.932816,0.895892 H 6.1828175 C 5.6676162,29.883151 5.25,29.481976 5.25,28.987259 Z m 1.265e-4,2.44881 v 0.667979 c 0,0.494719 0.4175805,0.895892 0.9328168,0.895892 H 29.817183 c 0.5152,0 0.932817,-0.40118 0.932817,-0.895892 v -0.667979 c 0,0.494718 -0.417582,0.957616 -0.932817,0.957616 H 6.1829912 c -0.1068391,0 -0.2176419,-0.02223 -0.3132348,-0.05819 z"
     id="path22"
     style="opacity:0.3;fill:#000000;fill-opacity:1;stroke-width:0.0842291"
     inkscape:connector-curvature="0" />
  <path
     d="m 6.1828518,3.0000443 c -0.5152014,0 -0.9328175,0.4010946 -0.9328175,0.8961604 v 0.6679791 c 0,-0.4950719 0.4175819,-0.896161 0.9328175,-0.896161 H 29.817045 c 0.5152,0 0.932815,0.4010958 0.932815,0.896161 V 3.8962053 c 0,-0.4950732 -0.41758,-0.896161 -0.932815,-0.896161 z"
     id="path24"
     inkscape:connector-curvature="0"
     style="opacity:0.4;fill:#ffffff;stroke-width:0.0842291" />
  <path
     d="m 28.662693,13.448491 c -0.12042,-0.03619 -0.881085,-0.352461 -0.405711,-1.684842 h -0.0073 c 1.239065,-1.176723 2.185992,-3.070238 2.185992,-4.934407 6e-6,-2.866464 -2.067179,-4.369131 -4.469709,-4.369131 -2.404032,0 -4.459866,1.50196 -4.459866,4.369131 0,1.871864 0.941623,3.77304 2.188314,4.946985 0.485929,1.175326 -0.383023,1.611551 -0.564685,1.672264 -1.69385,0.505071 -6.301784,3.023148 -6.228881,6.69025 h 18.204952 c 0.08131,-3.503129 -3.56353,-5.777949 -6.443463,-6.69025 z"
     id="path34-5"
     style="opacity:0.5;fill:#000000;fill-opacity:1;stroke-width:0.07803718;filter:url(#filter876)"
     inkscape:connector-curvature="0"
     transform="matrix(0.70833332,0,0,0.71428571,0.63923082,9.7500003)" />
  <path
     d="m 21.081942,18.47125 c -0.08529,-0.02585 -0.624101,-0.251758 -0.287378,-1.203458 h -0.0052 c 0.877671,-0.840517 1.548411,-2.193028 1.548411,-3.524577 4e-6,-2.047475 -1.464252,-3.120808 -3.166043,-3.120808 -1.702857,0 -3.159073,1.072828 -3.159073,3.120808 0,1.337045 0.666983,2.695028 1.550056,3.53356 0.3442,0.839519 -0.271308,1.151108 -0.399985,1.194475 -1.199811,0.360765 -4.463764,2.159391 -4.412124,4.77875 H 25.64578 c 0.0576,-2.502235 -2.524167,-4.127107 -4.56412,-4.77875 z"
     id="path34"
     style="fill:#ffffff;fill-opacity:1;stroke-width:0.0555081"
     inkscape:connector-curvature="0" />
</svg>
