<?xml version="1.0" encoding="UTF-8" standalone="no"?>
<svg
   xmlns:dc="http://purl.org/dc/elements/1.1/"
   xmlns:cc="http://creativecommons.org/ns#"
   xmlns:rdf="http://www.w3.org/1999/02/22-rdf-syntax-ns#"
   xmlns:svg="http://www.w3.org/2000/svg"
   xmlns="http://www.w3.org/2000/svg"
   xmlns:xlink="http://www.w3.org/1999/xlink"
   xmlns:sodipodi="http://sodipodi.sourceforge.net/DTD/sodipodi-0.dtd"
   xmlns:inkscape="http://www.inkscape.org/namespaces/inkscape"
   width="48"
   height="48"
   version="1.0"
   id="svg20"
   sodipodi:docname="gnome-mpv.svg"
   inkscape:version="0.92.4 5da689c313, 2019-01-14">
  <metadata
     id="metadata26">
    <rdf:RDF>
      <cc:Work
         rdf:about="">
        <dc:format>image/svg+xml</dc:format>
        <dc:type
           rdf:resource="http://purl.org/dc/dcmitype/StillImage" />
      </cc:Work>
    </rdf:RDF>
  </metadata>
  <defs
     id="defs24">
    <linearGradient
       inkscape:collect="always"
       id="linearGradient837">
      <stop
         style="stop-color:#0065e3;stop-opacity:1"
         offset="0"
         id="stop833" />
      <stop
         style="stop-color:#d80b0b;stop-opacity:1"
         offset="1"
         id="stop835" />
    </linearGradient>
    <linearGradient
       inkscape:collect="always"
       xlink:href="#linearGradient837"
       id="linearGradient839"
       x1="3"
       y1="8"
       x2="45"
       y2="40"
       gradientUnits="userSpaceOnUse" />
  </defs>
  <sodipodi:namedview
     pagecolor="#ffffff"
     bordercolor="#666666"
     borderopacity="1"
     objecttolerance="10"
     gridtolerance="10"
     guidetolerance="10"
     inkscape:pageopacity="0"
     inkscape:pageshadow="2"
     inkscape:window-width="1366"
     inkscape:window-height="709"
     id="namedview22"
     showgrid="false"
     inkscape:zoom="4.9166667"
     inkscape:cx="14.338983"
     inkscape:cy="15.254237"
     inkscape:window-x="0"
     inkscape:window-y="25"
     inkscape:window-maximized="1"
     inkscape:current-layer="svg20" />
  <rect
     style="opacity:0.2"
     width="42"
     height="33"
     x="3"
     y="8"
     rx="3"
     ry="3"
     id="rect2" />
  <rect
     style="fill:url(#linearGradient839);fill-opacity:1"
     width="42"
     height="33"
     x="3"
     y="7"
     rx="3"
     ry="3"
     id="rect4" />
  <path
     style="opacity:0.3"
     d="M 6 7 L 6 10 L 9 10 L 9 7 L 6 7 z M 39 7 L 39 10 L 42 10 L 42 7 L 39 7 z M 6 13 L 6 16 L 9 16 L 9 13 L 6 13 z M 39 13 L 39 16 L 42 16 L 42 13 L 39 13 z M 6 19 L 6 22 L 9 22 L 9 19 L 6 19 z M 39 19 L 39 22 L 42 22 L 42 19 L 39 19 z M 6 25 L 6 28 L 9 28 L 9 25 L 6 25 z M 39 25 L 39 28 L 42 28 L 42 25 L 39 25 z M 6 31 L 6 34 L 9 34 L 9 31 L 6 31 z M 39 31 L 39 34 L 42 34 L 42 31 L 39 31 z M 6 37 L 6 40 L 9 40 L 9 37 L 6 37 z M 39 37 L 39 40 L 42 40 L 42 37 L 39 37 z"
     id="path6" />
  <path
     style="opacity:0.2"
     d="m 24,13 a 8,8 0 0 0 -8,8 8,8 0 0 0 8,8 8,8 0 0 0 8,-8 8,8 0 0 0 -8,-8 z m -3,4 h 0.707031 0.07422 c 0.136514,-0.0012 0.269873,0.03057 0.388672,0.09961 l 5.464844,3.201172 C 27.877265,20.438289 28,20.718759 28,21 c 0,0.281241 -0.122736,0.561706 -0.365234,0.699219 l -5.464844,3.201172 C 22.051123,24.969351 21.917764,25.0008 21.78125,25 H 21.707031 21 Z"
     id="path8" />
  <path
     style="fill:#ffffff"
     d="M 24 12 A 8 8 0 0 0 16 20 A 8 8 0 0 0 24 28 A 8 8 0 0 0 32 20 A 8 8 0 0 0 24 12 z M 21 16 L 21.707031 16 L 21.78125 16 C 21.917764 15.9988 22.051123 16.030569 22.169922 16.099609 L 27.634766 19.300781 C 27.877265 19.438289 28 19.718759 28 20 C 28 20.281241 27.877264 20.561706 27.634766 20.699219 L 22.169922 23.900391 C 22.051123 23.969351 21.917764 24.0008 21.78125 24 L 21.707031 24 L 21 24 L 21 16 z"
     id="path10" />
  <rect
     style="opacity:0.5;fill:#ffffff"
     width="24"
     height="2"
     x="12"
     y="33"
     rx="1"
     ry="1"
     id="rect12" />
  <rect
     style="opacity:0.2"
     width="6"
     height="6"
     x="15"
     y="32"
     rx="3"
     ry="3"
     id="rect14" />
  <rect
     style="fill:#ffffff"
     width="6"
     height="6"
     x="15"
     y="31"
     rx="3"
     ry="3"
     id="rect16" />
  <path
     style="opacity:0.1;fill:#ffffff"
     d="M 6 7 C 4.338 7 3 8.338 3 10 L 3 11 C 3 9.338 4.338 8 6 8 L 42 8 C 43.662 8 45 9.338 45 11 L 45 10 C 45 8.338 43.662 7 42 7 L 6 7 z"
     id="path18" />
</svg>
