<?xml version="1.0" encoding="UTF-8" standalone="no"?>
<svg
   xmlns:dc="http://purl.org/dc/elements/1.1/"
   xmlns:cc="http://creativecommons.org/ns#"
   xmlns:rdf="http://www.w3.org/1999/02/22-rdf-syntax-ns#"
   xmlns:svg="http://www.w3.org/2000/svg"
   xmlns="http://www.w3.org/2000/svg"
   xmlns:sodipodi="http://sodipodi.sourceforge.net/DTD/sodipodi-0.dtd"
   xmlns:inkscape="http://www.inkscape.org/namespaces/inkscape"
   width="48"
   height="48"
   version="1.1"
   id="svg16"
   sodipodi:docname="gtk3-demo.svg"
   inkscape:version="0.92.4 5da689c313, 2019-01-14">
  <metadata
     id="metadata22">
    <rdf:RDF>
      <cc:Work
         rdf:about="">
        <dc:format>image/svg+xml</dc:format>
        <dc:type
           rdf:resource="http://purl.org/dc/dcmitype/StillImage" />
        <dc:title></dc:title>
      </cc:Work>
    </rdf:RDF>
  </metadata>
  <defs
     id="defs20" />
  <sodipodi:namedview
     pagecolor="#ffffff"
     bordercolor="#666666"
     borderopacity="1"
     objecttolerance="10"
     gridtolerance="10"
     guidetolerance="10"
     inkscape:pageopacity="0"
     inkscape:pageshadow="2"
     inkscape:window-width="1366"
     inkscape:window-height="709"
     id="namedview18"
     showgrid="false"
     inkscape:zoom="3.6875"
     inkscape:cx="3.3898305"
     inkscape:cy="32"
     inkscape:window-x="0"
     inkscape:window-y="25"
     inkscape:window-maximized="1"
     inkscape:current-layer="svg16" />
  <path
     style="fill:#0068f0;fill-opacity:1;stroke-width:0.69701338"
     d="M 24.10772,4.0014033 A 4.5655601,4.4681203 0 0 0 21.716527,4.5974615 L 8.2827813,12.188047 a 4.5655601,4.4681203 0 0 0 -2.28278,3.869395 V 31.23889 a 4.5655601,4.4681203 0 0 0 2.28278,3.869395 L 21.716942,42.69901 a 4.5655601,4.4681203 0 0 0 4.56556,0 l 13.434162,-7.590725 a 4.5655601,4.4681203 0 0 0 2.283195,-3.870799 V 16.056038 A 4.5655601,4.4681203 0 0 0 39.716664,12.186643 L 26.283334,4.596058 A 4.5655601,4.4681203 0 0 0 24.108136,3.9999999 Z"
     id="path2"
     inkscape:connector-curvature="0" />
  <path
     style="fill:#f00000;fill-opacity:1;stroke-width:0.69701338"
     d="m 6.3623807,14.326348 a 4.5655601,4.4681203 0 0 0 -0.3623798,1.731078 v 15.180847 a 4.5655601,4.4681203 0 0 0 2.2824517,3.870596 l 13.4350954,7.590424 a 4.5655601,4.4681203 0 0 0 2.282451,0.594844 V 23.824658 Z"
     id="path4"
     inkscape:connector-curvature="0" />
  <path
     style="fill:#61f000;fill-opacity:1;stroke-width:0.69701338"
     d="m 41.641675,14.323607 -17.641676,9.501051 v 19.469479 a 4.5655601,4.4681203 0 0 0 2.282452,-0.594844 l 13.433744,-7.590424 a 4.5655601,4.4681203 0 0 0 2.283804,-3.871967 V 16.056055 a 4.5655601,4.4681203 0 0 0 -0.358324,-1.732448 z"
     id="path6"
     inkscape:connector-curvature="0" />
  <path
     style="opacity:0.2;fill:#ffffff;stroke-width:0.69701338"
     d="M 24.108173,4.0015606 A 4.5656129,4.4715107 0 0 0 21.717548,4.5991457 L 8.2824526,12.195053 a 4.5656129,4.4715107 0 0 0 -2.2824517,3.873338 v 0.703121 A 4.5656129,4.4715107 0 0 1 8.2824526,12.896805 L 21.717548,5.3008968 a 4.5656129,4.4715107 0 0 1 2.390625,-0.5975852 4.5656129,4.4715107 0 0 1 2.174278,0.5975852 l 13.435095,7.5959082 a 4.5656129,4.4715107 0 0 1 2.282453,3.874707 V 16.068391 A 4.5656129,4.4715107 0 0 0 39.717546,12.195053 L 26.282451,4.5991457 A 4.5656129,4.4715107 0 0 0 24.108173,4.0015606 Z"
     id="path8"
     inkscape:connector-curvature="0" />
  <path
     style="opacity:0.2;stroke-width:0.69701338"
     d="m 6.0000009,30.526982 a 4.5655601,4.4716443 0 0 0 0.00135,0.05209 v -0.05209 z m 0.00135,0.701752 v 0.701751 a 4.5655601,4.4716443 0 0 0 2.2824519,3.871966 L 21.7189,43.401099 a 4.5655601,4.4716443 0 0 0 4.564904,0 l 13.433742,-7.598648 a 4.5655601,4.4716443 0 0 0 2.282453,-3.871966 v -0.701751 a 4.5655601,4.4716443 0 0 1 -2.282453,3.871965 l -13.433742,7.598649 a 4.5655601,4.4716443 0 0 1 -4.564904,0 L 8.2838048,35.100699 A 4.5655601,4.4716443 0 0 1 6.0013531,31.228734 Z"
     id="path10"
     inkscape:connector-curvature="0" />
  <path
     style="opacity:0.2;fill:#ffffff;stroke-width:0.69701338"
     d="m 6.3623807,14.326348 a 4.5655601,4.4681203 0 0 0 -0.3623798,1.731078 v 0.70175 a 4.5655601,4.4681203 0 0 1 0.3623798,-1.731077 l 17.6376183,9.49831 v -0.701751 z"
     id="path12"
     inkscape:connector-curvature="0" />
  <path
     style="opacity:0.2;fill:#ffffff;stroke-width:0.69701338"
     d="m 41.641675,14.323607 -17.641676,9.501051 v 0.701751 l 17.641676,-9.501052 a 4.5655601,4.4681203 0 0 1 0.358324,1.732449 v -0.701751 a 4.5655601,4.4681203 0 0 0 -0.358324,-1.732448 z"
     id="path14"
     inkscape:connector-curvature="0" />
</svg>
