<?xml version="1.0" encoding="UTF-8" standalone="no"?>
<svg
   xmlns:dc="http://purl.org/dc/elements/1.1/"
   xmlns:cc="http://creativecommons.org/ns#"
   xmlns:rdf="http://www.w3.org/1999/02/22-rdf-syntax-ns#"
   xmlns:svg="http://www.w3.org/2000/svg"
   xmlns="http://www.w3.org/2000/svg"
   xmlns:xlink="http://www.w3.org/1999/xlink"
   xmlns:sodipodi="http://sodipodi.sourceforge.net/DTD/sodipodi-0.dtd"
   xmlns:inkscape="http://www.inkscape.org/namespaces/inkscape"
   width="48"
   height="48"
   version="1"
   id="svg12"
   sodipodi:docname="inkscape.svg"
   inkscape:version="0.92.4 5da689c313, 2019-01-14">
  <metadata
     id="metadata18">
    <rdf:RDF>
      <cc:Work
         rdf:about="">
        <dc:format>image/svg+xml</dc:format>
        <dc:type
           rdf:resource="http://purl.org/dc/dcmitype/StillImage" />
        <dc:title></dc:title>
      </cc:Work>
    </rdf:RDF>
  </metadata>
  <defs
     id="defs16">
    <linearGradient
       inkscape:collect="always"
       id="linearGradient864">
      <stop
         style="stop-color:#000000;stop-opacity:1;"
         offset="0"
         id="stop860" />
      <stop
         style="stop-color:#000000;stop-opacity:0;"
         offset="1"
         id="stop862" />
    </linearGradient>
    <linearGradient
       inkscape:collect="always"
       id="linearGradient832">
      <stop
         style="stop-color:#3b3b3b;stop-opacity:1"
         offset="0"
         id="stop828" />
      <stop
         style="stop-color:#4f4f4f;stop-opacity:1"
         offset="1"
         id="stop830" />
    </linearGradient>
    <linearGradient
       inkscape:collect="always"
       xlink:href="#linearGradient832"
       id="linearGradient834"
       x1="33.372715"
       y1="59.660995"
       x2="31.996094"
       y2="4.0000463"
       gradientUnits="userSpaceOnUse"
       gradientTransform="matrix(0.68965544,0,0,0.68965544,1.9307966,1.9310308)" />
    <linearGradient
       inkscape:collect="always"
       xlink:href="#linearGradient864"
       id="linearGradient866"
       x1="33.237309"
       y1="60.338982"
       x2="33.203365"
       y2="37.966103"
       gradientUnits="userSpaceOnUse"
       gradientTransform="matrix(0.68965544,0,0,0.68965544,1.9307966,1.9310308)" />
  </defs>
  <sodipodi:namedview
     pagecolor="#ffffff"
     bordercolor="#666666"
     borderopacity="1"
     objecttolerance="10"
     gridtolerance="10"
     guidetolerance="10"
     inkscape:pageopacity="0"
     inkscape:pageshadow="2"
     inkscape:window-width="1366"
     inkscape:window-height="709"
     id="namedview14"
     showgrid="false"
     inkscape:zoom="7.375"
     inkscape:cx="28.843265"
     inkscape:cy="28.500511"
     inkscape:window-x="0"
     inkscape:window-y="25"
     inkscape:window-maximized="1"
     inkscape:current-layer="svg12" />
  <path
     style="fill:url(#linearGradient834);fill-opacity:1;fill-rule:evenodd;stroke-width:0.68965542"
     d="m 23.997077,3.9999975 c -1.139884,4.649e-4 -2.248714,0.428483 -3.122308,1.3321668 L 5.3278884,21.388205 c -0.8566408,0.886229 -1.3110783,2.054621 -1.3281255,3.211208 -2.562e-4,0.01759 0,0.06025 0,0.07947 -1.613e-4,3.441036 8.6943391,0.09917 9.5231721,4.306306 0.448481,2.276939 -4.6915433,1.234135 -4.6915433,3.525055 0,2.687323 8.3479563,0.495141 10.1481723,3.053611 1.378019,1.958443 -3.503078,2.043457 -2.409754,3.918374 0.93787,1.608332 4.292519,0.57817 4.851835,2.739764 0.638866,2.469149 4.751923,2.193483 7.075702,0.235722 1.424493,-1.20012 -1.892489,-1.951678 -0.59806,-3.29068 1.294343,-1.339096 7.45928,-1.087409 7.114766,-3.993805 -0.228004,-1.923489 -2.614008,-2.13495 -2.650864,-4.307653 -0.128702,-1.840021 2.273361,-1.303254 8.902213,-3.13443 2.650587,-1.245322 2.744471,-1.906724 2.734376,-3.053611 -2.1e-4,-0.02273 0,-0.05387 0,-0.07813 -0.0151,-1.156493 -0.549697,-2.325008 -1.40625,-3.211208 L 27.122078,5.3321643 C 26.248295,4.428386 25.139083,4.0004624 23.99977,3.9999975 Z M 42.219066,31.588909 c -0.307013,-0.01062 -0.61668,0.01654 -0.83513,0.08351 -0.411764,0.130189 -2.36308,0.205046 -2.202317,1.831897 1.767276,0.813047 4.461982,1.459634 4.783138,-0.167026 0.241114,-1.219831 -0.824513,-1.711047 -1.745691,-1.748384 z M 10.877459,36.42862 c -0.172196,0.02246 -0.291028,0.100503 -0.459321,0.173761 -1.34576,0.585503 -2.2473207,1.817715 -0.9900323,2.355874 1.2574733,0.538031 2.0981553,-0.03053 3.2004323,-0.697738 1.102463,-0.667534 1.072463,-0.789102 0.992726,-1.046606 -0.152818,0.03495 -1.154961,-0.679154 -2.210399,-0.785291 -0.175877,-0.01684 -0.361256,-0.02246 -0.533406,0 z"
     id="path4"
     inkscape:connector-curvature="0" />
  <path
     style="opacity:0.2;fill-rule:evenodd;stroke-width:0.68965542"
     d="m 24.07131,9.5208178 c 1.173049,0.01 4.387339,3.9877202 7.255153,6.9666762 0.806668,1.082383 -0.31202,2.191718 -0.31202,2.191718 l -6.006674,-3.287624 -2.652385,3.600958 -2.340003,-3.52191 -1.404764,5.479055 -4.134292,-2.504765 1.092382,-1.409526 6.474295,-6.653057 c 0.49662,-0.5062492 0.876916,-0.8700112 2.028289,-0.8610492 z"
     id="path6"
     inkscape:connector-curvature="0" />
  <path
     style="fill:#ffffff;fill-rule:evenodd;stroke-width:0.68965542"
     d="m 24.07131,8.8311304 c 1.173049,0.00998 4.387339,3.9877206 7.255153,6.9666766 0.806668,1.082383 -0.31202,2.191717 -0.31202,2.191717 l -6.006674,-3.287623 -2.652385,3.600957 -2.340003,-3.521909 -1.404764,5.479055 -4.134292,-2.504765 1.092382,-1.409526 6.474295,-6.6530572 c 0.49662,-0.506249 0.876916,-0.8700109 2.028289,-0.8610488 z"
     id="path8"
     inkscape:connector-curvature="0" />
  <path
     style="opacity:0.4;fill:#ffffff;fill-rule:evenodd;stroke-width:0.68965542"
     d="m 23.997077,3.9999975 c -1.139884,4.649e-4 -2.248714,0.428483 -3.122308,1.3321668 L 5.3278884,21.388205 c -0.8566408,0.886229 -1.3110783,2.054621 -1.3281255,3.211208 -2.562e-4,0.01759 0,0.06025 0,0.07947 -4.2e-6,0.09175 0.00951,0.176241 0.021552,0.258621 0.094644,-1.038846 0.5367234,-2.063204 1.3065737,-2.859645 L 20.874769,6.0218197 C 21.748363,5.1181359 22.857193,4.6901178 23.997077,4.689653 h 0.0027 c 1.139313,4.648e-4 2.248525,0.4283884 3.122308,1.3321667 l 15.47145,16.0560413 c 0.817648,0.845949 1.336405,1.949182 1.395474,3.05361 0.0094,-0.14427 0.01219,-0.293609 0.01078,-0.453933 -2.1e-4,-0.02273 0,-0.05387 0,-0.07813 C 43.984689,23.442915 43.450092,22.2744 42.593538,21.3882 L 27.122078,5.3321643 C 26.248295,4.428386 25.139083,4.0004624 23.99977,3.9999975 Z M 13.490607,29.556312 c -0.489279,1.5256 -4.6592153,0.887148 -4.6592153,2.953934 0,0.119023 0.022421,0.225253 0.053883,0.32597 0.5276071,-1.814902 5.0601363,-1.016477 4.6376633,-3.16137 -0.0082,-0.04183 -0.02255,-0.07819 -0.03232,-0.118534 z m 18.898175,1.601562 c -0.02363,0.120299 -0.03601,0.24844 -0.02559,0.397361 0.03603,2.124375 2.311999,2.378411 2.626617,4.186424 0.03655,-0.175368 0.04857,-0.363254 0.02425,-0.568427 -0.217191,-1.832273 -2.387582,-2.11501 -2.625271,-4.015358 z m 9.830284,0.431035 c -0.307013,-0.01062 -0.61668,0.01654 -0.83513,0.08351 -0.411764,0.130189 -2.36308,0.205046 -2.202317,1.831897 0.02303,0.0106 0.04939,0.02045 0.07274,0.03098 0.350721,-0.989297 1.783041,-1.063656 2.12958,-1.173223 0.21845,-0.06697 0.528117,-0.09413 0.83513,-0.08351 0.734614,0.02977 1.549869,0.35542 1.732221,1.101832 0.0035,-0.01529 0.01037,-0.02739 0.01347,-0.0431 0.241115,-1.219831 -0.824513,-1.711048 -1.74569,-1.748384 z M 10.877459,36.42862 c -0.172196,0.02246 -0.291028,0.100502 -0.459321,0.173761 -1.0763606,0.468295 -1.8644001,1.348809 -1.4951511,1.958513 0.2112428,-0.471767 0.78557,-0.960139 1.4951511,-1.268857 0.168293,-0.07326 0.287125,-0.1513 0.459321,-0.173762 0.17215,-0.02246 0.357529,-0.01683 0.533406,0 0.774044,0.07784 1.512694,0.479634 1.91541,0.676186 0.359076,-0.278144 0.350551,-0.401116 0.294989,-0.58055 -0.152818,0.03495 -1.154961,-0.679154 -2.210399,-0.785291 -0.175877,-0.01684 -0.361256,-0.02246 -0.533406,0 z m 8.263743,0.121229 c -0.498868,1.032293 -3.185124,1.410296 -2.645475,2.75458 0.517123,-1.027891 3.213536,-1.40274 2.645475,-2.75458 z m 8.545262,3.604527 c -0.400323,0.784236 0.707082,1.371926 1.064117,2.012393 0.448222,-0.728053 -0.724497,-1.308242 -1.064117,-2.012393 z"
     id="path10"
     inkscape:connector-curvature="0" />
  <path
     inkscape:connector-curvature="0"
     style="opacity:0.4;fill:none;fill-opacity:1;fill-rule:evenodd;stroke:url(#linearGradient866);stroke-width:0.67793131;stroke-miterlimit:4;stroke-dasharray:none;stroke-opacity:1"
     d="m 23.996977,4.3389784 c -1.120546,4.565e-4 -2.210565,0.4212208 -3.069339,1.3095874 L 5.6444978,21.432486 c -0.8421086,0.871208 -1.2888378,2.019798 -1.305595,3.156783 -2.524e-4,0.0173 0,0.05923 0,0.07813 -1.586e-4,3.382717 8.5468472,0.09749 9.3616192,4.233322 0.440873,2.238349 -4.611955,1.213218 -4.611955,3.465311 0,2.641778 8.20634,0.48675 9.976016,3.001857 1.354643,1.925251 -3.443651,2.008825 -2.368873,3.851965 0.921959,1.581074 4.219698,0.568371 4.769526,2.69333 0.628029,2.427302 4.671311,2.156307 6.955669,0.231727 1.400327,-1.17978 -1.860385,-1.918601 -0.587915,-3.234909 1.272385,-1.3164 7.332739,-1.068979 6.994069,-3.926117 -0.224135,-1.890888 -2.569663,-2.098766 -2.605893,-4.234646 -0.126519,-1.808836 2.234795,-1.281166 8.751193,-3.081306 2.605623,-1.224216 2.697913,-1.874409 2.68799,-3.001858 -2.06e-4,-0.02234 0,-0.05296 0,-0.0768 -0.01484,-1.136892 -0.540372,-2.285603 -1.382394,-3.156783 L 27.068966,5.6485658 C 26.210006,4.7601061 25.119611,4.3394349 23.999626,4.3389784 Z M 41.909846,31.460306 c -0.301805,-0.01044 -0.606219,0.01625 -0.820964,0.0821 -0.404778,0.127983 -2.322991,0.20157 -2.164956,1.80085 1.737296,0.799267 4.386288,1.434895 4.701996,-0.164196 0.237024,-1.199157 -0.810526,-1.682048 -1.716076,-1.718751 z m -30.809922,4.757685 c -0.169274,0.02208 -0.286091,0.0988 -0.451528,0.170817 -1.3229303,0.57558 -2.2091971,1.786908 -0.9732378,2.315946 1.2361418,0.528912 2.0625618,-0.03001 3.1461398,-0.685913 1.08376,-0.65622 1.054269,-0.775728 0.975885,-1.028868 -0.150226,0.03435 -1.135368,-0.667643 -2.172901,-0.771982 -0.172894,-0.01654 -0.355128,-0.02208 -0.524358,0 z"
     id="path4-7" />
</svg>
