<?xml version="1.0" encoding="UTF-8" standalone="no"?>
<svg
   xmlns:dc="http://purl.org/dc/elements/1.1/"
   xmlns:cc="http://creativecommons.org/ns#"
   xmlns:rdf="http://www.w3.org/1999/02/22-rdf-syntax-ns#"
   xmlns:svg="http://www.w3.org/2000/svg"
   xmlns="http://www.w3.org/2000/svg"
   xmlns:xlink="http://www.w3.org/1999/xlink"
   xmlns:sodipodi="http://sodipodi.sourceforge.net/DTD/sodipodi-0.dtd"
   xmlns:inkscape="http://www.inkscape.org/namespaces/inkscape"
   width="48"
   height="48"
   version="1.1"
   viewBox="0 0 36 36"
   id="svg46"
   sodipodi:docname="internet-mail.svg"
   inkscape:version="0.92.4 5da689c313, 2019-01-14">
  <metadata
     id="metadata52">
    <rdf:RDF>
      <cc:Work
         rdf:about="">
        <dc:format>image/svg+xml</dc:format>
        <dc:type
           rdf:resource="http://purl.org/dc/dcmitype/StillImage" />
        <dc:title />
      </cc:Work>
    </rdf:RDF>
  </metadata>
  <defs
     id="defs50">
    <linearGradient
       inkscape:collect="always"
       id="linearGradient860">
      <stop
         style="stop-color:#ffb401;stop-opacity:1"
         offset="0"
         id="stop856" />
      <stop
         style="stop-color:#fff000;stop-opacity:1"
         offset="1"
         id="stop858" />
    </linearGradient>
    <linearGradient
       inkscape:collect="always"
       xlink:href="#linearGradient860"
       id="linearGradient862"
       x1="40.861511"
       y1="335.50354"
       x2="159.60968"
       y2="108.41605"
       gradientUnits="userSpaceOnUse"
       gradientTransform="matrix(0.08957127,0,0,0.08888782,-8.3608025,341.4332)" />
    <filter
       inkscape:collect="always"
       style="color-interpolation-filters:sRGB"
       id="filter1136"
       x="-0.032304514"
       width="1.0646091"
       y="-0.093359873"
       height="1.1867197">
      <feGaussianBlur
         inkscape:collect="always"
         stdDeviation="0.55782328"
         id="feGaussianBlur1138" />
    </filter>
  </defs>
  <sodipodi:namedview
     pagecolor="#ffffff"
     bordercolor="#666666"
     borderopacity="1"
     objecttolerance="10"
     gridtolerance="10"
     guidetolerance="10"
     inkscape:pageopacity="0"
     inkscape:pageshadow="2"
     inkscape:window-width="1366"
     inkscape:window-height="691"
     id="namedview48"
     showgrid="false"
     inkscape:zoom="10.791667"
     inkscape:cx="24"
     inkscape:cy="24"
     inkscape:window-x="0"
     inkscape:window-y="0"
     inkscape:window-maximized="1"
     inkscape:current-layer="g44"
     showguides="true"
     inkscape:guide-bbox="true">
    <sodipodi:guide
       position="10.642556,35.66695"
       orientation="1,0"
       id="guide1181"
       inkscape:locked="false" />
  </sodipodi:namedview>
  <g
     transform="translate(9.9848,-339.7681)"
     id="g44">
    <path
       d="m -6.9848001,371.70127 v 0.62889 c 0,0.33477 0.081273,0.58885 0.235636,0.75002 0.183457,0.19457 0.4506142,0.28792 0.8119037,0.28792 l 27.7338244,-3.4e-4 c 0.282827,0 0.5104,-0.057 0.683263,-0.17382 l 5.09e-4,3.5e-4 c 0.240966,-0.16345 0.363936,-0.45138 0.363936,-0.8641 v -0.62876 c -2.5e-5,0.41267 -0.122997,0.70058 -0.363936,0.86397 l -5.09e-4,-3.5e-4 c -0.172838,0.11683 -0.400408,0.1738 -0.683263,0.1738 l -27.7338244,3.5e-4 c -0.3612895,0 -0.6284467,-0.0934 -0.8119037,-0.28791 -0.1543668,-0.16116 -0.235636,-0.41525 -0.235636,-0.75002 z"
       id="path42"
       inkscape:connector-curvature="0"
       style="opacity:0.2;stroke-width:0.08110011" />
    <path
       style="fill:#996600;fill-opacity:1;stroke:none;stroke-width:0.0644798px;stroke-linecap:butt;stroke-linejoin:miter;stroke-opacity:1"
       d="M -6.9500102,352.73379 7.9516172,342.7681 22.835076,352.7335 7.598108,362.97631 Z"
       id="path1151"
       inkscape:connector-curvature="0"
       sodipodi:nodetypes="ccccc" />
    <path
       d="m 19.512089,347.27981 c 0,-0.67339 -0.328842,-1.00997 -0.986873,-1.00997 H -2.4950972 c -0.6586232,0 -0.9868746,0.33591 -0.9868746,1.00997 v 19.23685 c 0,1.83312 0.3282257,2.7497 0.9868746,2.7497 H 18.525216 c 0.658622,0 0.986873,-0.91657 0.986873,-2.7497 z"
       id="path8"
       inkscape:connector-curvature="0"
       style="opacity:1;fill:#ffffff;stroke:#000000;stroke-width:0.57488209;stroke-miterlimit:4;stroke-dasharray:none;stroke-opacity:0.19607843" />
    <path
       style="opacity:0.4;fill:none;stroke:#000000;stroke-width:0.75px;stroke-linecap:butt;stroke-linejoin:miter;stroke-opacity:1;filter:url(#filter1136)"
       d="M -6.3541818,345.04763 13.431407,359.42484 34.308989,345.70723"
       id="path1098"
       inkscape:connector-curvature="0"
       transform="matrix(0.67510158,0,0,0.66026616,-1.4840077,125.50756)"
       sodipodi:nodetypes="ccc" />
    <g
       id="g1291"
       style="opacity:0.4"
       transform="matrix(0.71420947,0,0,0.71428539,-1.9947299,106.50529)">
      <path
         sodipodi:nodetypes="cc"
         inkscape:connector-curvature="0"
         id="path1146-7-9-3"
         d="M 0.657756,355.6741 27.218999,355.632"
         style="fill:none;stroke:#000000;stroke-width:0.75px;stroke-linecap:butt;stroke-linejoin:miter;stroke-opacity:1" />
      <path
         inkscape:connector-curvature="0"
         id="path1146"
         d="m 0.65775625,340.10115 5.53700625,-0.0719"
         style="fill:none;stroke:#000000;stroke-width:0.75px;stroke-linecap:butt;stroke-linejoin:miter;stroke-opacity:1" />
      <path
         sodipodi:nodetypes="cc"
         inkscape:connector-curvature="0"
         id="path1146-6"
         d="m 0.657756,341.74951 3.0454806,-0.0719"
         style="fill:none;stroke:#000000;stroke-width:0.75px;stroke-linecap:butt;stroke-linejoin:miter;stroke-opacity:1" />
      <path
         sodipodi:nodetypes="cc"
         inkscape:connector-curvature="0"
         id="path1146-7"
         d="M 0.657756,346.16567 27.219,346.12359"
         style="fill:none;stroke:#000000;stroke-width:0.75px;stroke-linecap:butt;stroke-linejoin:miter;stroke-opacity:1" />
      <path
         sodipodi:nodetypes="cc"
         inkscape:connector-curvature="0"
         id="path1146-7-1"
         d="M 0.657756,348.4546 27.219,348.4125"
         style="fill:none;stroke:#000000;stroke-width:0.75px;stroke-linecap:butt;stroke-linejoin:miter;stroke-opacity:1" />
      <path
         sodipodi:nodetypes="cc"
         inkscape:connector-curvature="0"
         id="path1146-7-4"
         d="M 0.657756,350.7241 27.219,350.682"
         style="fill:none;stroke:#000000;stroke-width:0.75px;stroke-linecap:butt;stroke-linejoin:miter;stroke-opacity:1" />
      <path
         sodipodi:nodetypes="cc"
         inkscape:connector-curvature="0"
         id="path1146-7-9"
         d="M 0.657756,353.29285 27.219,353.25075"
         style="fill:none;stroke:#000000;stroke-width:0.75px;stroke-linecap:butt;stroke-linejoin:miter;stroke-opacity:1" />
    </g>
    <path
       inkscape:connector-curvature="0"
       style="fill:#f4ac00;fill-opacity:1;stroke-width:0.08149923"
       id="path36"
       d="m 22.984434,352.73351 v -0.0469 l -15.3863245,10.28966 15.0200045,9.61767 c 0.242975,-0.16345 0.366972,-0.45137 0.366972,-0.86411 z" />
    <path
       style="opacity:0.38999999;fill:none;stroke:#ffffff;stroke-width:0.64479804;stroke-linecap:butt;stroke-linejoin:miter;stroke-miterlimit:4;stroke-dasharray:none;stroke-opacity:1"
       d="M 22.835076,353.10126 7.6109473,363.35692"
       id="path1149"
       inkscape:connector-curvature="0"
       sodipodi:nodetypes="cc" />
    <path
       inkscape:connector-curvature="0"
       id="path38"
       style="fill:url(#linearGradient862);fill-opacity:1;stroke-width:0.08003294;paint-order:markers fill stroke"
       d="m 21.788884,372.76704 c 0.282544,0 0.509956,-0.057 0.682578,-0.17393 L -6.9500102,352.73379 V 371.73 c 0,0.33475 0.081196,0.58893 0.2353395,0.75009 0.1831911,0.19457 0.4498807,0.28792 0.8106469,0.28792 z" />
    <path
       style="opacity:0.4;fill:none;stroke:#ffffff;stroke-width:0.64479804;stroke-linecap:butt;stroke-linejoin:miter;stroke-miterlimit:4;stroke-dasharray:none;stroke-opacity:1"
       d="M -6.7634636,353.24281 21.593299,372.37934"
       id="path836-9"
       inkscape:connector-curvature="0"
       sodipodi:nodetypes="cc" />
  </g>
</svg>
