<?xml version="1.0" encoding="UTF-8" standalone="no"?>
<svg
   xmlns:dc="http://purl.org/dc/elements/1.1/"
   xmlns:cc="http://creativecommons.org/ns#"
   xmlns:rdf="http://www.w3.org/1999/02/22-rdf-syntax-ns#"
   xmlns:svg="http://www.w3.org/2000/svg"
   xmlns="http://www.w3.org/2000/svg"
   xmlns:xlink="http://www.w3.org/1999/xlink"
   xmlns:sodipodi="http://sodipodi.sourceforge.net/DTD/sodipodi-0.dtd"
   xmlns:inkscape="http://www.inkscape.org/namespaces/inkscape"
   width="48"
   height="48"
   version="1"
   id="svg22"
   sodipodi:docname="juk.svg"
   inkscape:version="0.92.4 5da689c313, 2019-01-14">
  <metadata
     id="metadata28">
    <rdf:RDF>
      <cc:Work
         rdf:about="">
        <dc:format>image/svg+xml</dc:format>
        <dc:type
           rdf:resource="http://purl.org/dc/dcmitype/StillImage" />
        <dc:title />
      </cc:Work>
    </rdf:RDF>
  </metadata>
  <defs
     id="defs26">
    <linearGradient
       id="linearGradient910"
       inkscape:collect="always">
      <stop
         id="stop906"
         offset="0"
         style="stop-color:#ffffff;stop-opacity:1" />
      <stop
         id="stop908"
         offset="1"
         style="stop-color:#ffffff;stop-opacity:0" />
    </linearGradient>
    <linearGradient
       inkscape:collect="always"
       id="linearGradient2344">
      <stop
         style="stop-color:#00e764;stop-opacity:1"
         offset="0"
         id="stop2340" />
      <stop
         style="stop-color:#1770ff;stop-opacity:1"
         offset="1"
         id="stop2342" />
    </linearGradient>
    <linearGradient
       inkscape:collect="always"
       xlink:href="#linearGradient2344"
       id="linearGradient2346"
       x1="-63.451641"
       y1="0.026913203"
       x2="-0.16484457"
       y2="-63.831791"
       gradientUnits="userSpaceOnUse"
       gradientTransform="matrix(0.71428569,0,0,0.71428569,46.857141,46.85714)" />
    <linearGradient
       gradientTransform="matrix(0.71428569,0,0,0.71428569,46.857142,-1.1428579)"
       inkscape:collect="always"
       xlink:href="#linearGradient910"
       id="linearGradient880-4"
       x1="-60.000004"
       y1="-32.000004"
       x2="-51.230232"
       y2="-31.728817"
       gradientUnits="userSpaceOnUse" />
  </defs>
  <sodipodi:namedview
     pagecolor="#ffffff"
     bordercolor="#666666"
     borderopacity="1"
     objecttolerance="10"
     gridtolerance="10"
     guidetolerance="10"
     inkscape:pageopacity="0"
     inkscape:pageshadow="2"
     inkscape:window-width="1366"
     inkscape:window-height="691"
     id="namedview24"
     showgrid="false"
     inkscape:zoom="5.2149125"
     inkscape:cx="-9.1058064"
     inkscape:cy="19.046941"
     inkscape:window-x="0"
     inkscape:window-y="0"
     inkscape:window-maximized="1"
     inkscape:current-layer="svg22" />
  <rect
     style="opacity:0.2;fill:#000000;fill-opacity:1;stroke-width:1"
     width="40"
     height="40"
     x="5"
     y="4"
     rx="20"
     ry="20"
     transform="matrix(0,1,1,0,0,0)"
     id="rect8-7" />
  <rect
     style="fill:url(#linearGradient2346);fill-opacity:1;stroke-width:0.99999994"
     width="40"
     height="40"
     x="4"
     y="3.9999993"
     rx="20"
     ry="20"
     transform="matrix(0,1,1,0,0,0)"
     id="rect8" />
  <circle
     style="opacity:0.2;fill:#ffffff;fill-opacity:1;stroke:none;stroke-width:0.59942514;stroke-miterlimit:4;stroke-dasharray:none;stroke-opacity:0"
     id="path829-1-7"
     cx="24"
     cy="24"
     r="10" />
  <circle
     style="opacity:0.2;fill:#ffffff;fill-opacity:1;stroke:none;stroke-width:1.02758586;stroke-miterlimit:4;stroke-dasharray:none;stroke-opacity:0"
     id="path829"
     cx="24"
     cy="24"
     r="17.142857" />
  <circle
     style="opacity:0.2;fill:#ffffff;fill-opacity:1;stroke:none;stroke-width:0.81350553;stroke-miterlimit:4;stroke-dasharray:none;stroke-opacity:0"
     id="path829-1"
     cx="24"
     cy="24"
     r="13.571428" />
  <path
     style="opacity:0.2;fill:#ffffff;fill-opacity:1;stroke:none;stroke-width:1.47030497;stroke-miterlimit:4;stroke-dasharray:none;stroke-opacity:1"
     id="path2348"
     r="24"
     cy="32"
     cx="32"
     d=""
     inkscape:connector-curvature="0" />
  <path
     style="color:#4d4d4d;opacity:0.2;fill:#000000;fill-opacity:1;stroke:none;stroke-width:1.08507693"
     class="ColorScheme-Text"
     d="m 30.09031,17.236264 -8.10717,2.041898 c -0.609087,0.158971 -1.10049,0.791039 -1.10049,1.405268 v 9.73894 c -0.61763,-0.315017 -1.410909,-0.442342 -2.233278,-0.234206 -1.483976,0.375589 -2.412956,1.589086 -2.094852,2.710458 0.318104,1.121395 1.780581,1.746801 3.264553,1.371202 1.183906,-0.299624 1.999307,-1.145739 2.12946,-2.039749 l 0.03461,-9.20453 7.696507,-2.007829 v 7.262688 c -0.617638,-0.315028 -1.410914,-0.442355 -2.233278,-0.234206 -1.483978,0.375579 -2.415264,1.589064 -2.097161,2.710458 0.318103,1.121384 1.780585,1.746801 3.264557,1.371212 1.183907,-0.299657 1.999304,-1.145737 2.129458,-2.039771 l 0.03463,-11.980987 c 7e-6,-0.460675 -0.292646,-0.806046 -0.687511,-0.870846 z"
     id="path4-7"
     inkscape:connector-curvature="0" />
  <path
     style="color:#4d4d4d;fill:#ffffff;fill-opacity:1;stroke:none;stroke-width:1.08507693"
     class="ColorScheme-Text"
     d="m 29.026735,15.428571 -8.107171,2.041898 c -0.609087,0.158971 -1.10049,0.79104 -1.10049,1.405268 v 9.738941 c -0.61763,-0.315018 -1.410908,-0.442343 -2.233278,-0.234207 -1.483976,0.375589 -2.412956,1.589087 -2.094852,2.710459 0.318105,1.121395 1.780582,1.7468 3.264554,1.371201 1.183905,-0.299623 1.999306,-1.145739 2.129459,-2.039749 l 0.03461,-9.20453 7.696507,-2.007829 v 7.262688 c -0.617638,-0.315028 -1.410914,-0.442355 -2.233278,-0.234206 -1.483978,0.375579 -2.415264,1.589064 -2.09716,2.710458 0.318102,1.121384 1.780585,1.746802 3.264557,1.371212 1.183906,-0.299657 1.999303,-1.145737 2.129457,-2.039771 l 0.03463,-11.980987 c 7e-6,-0.460675 -0.292645,-0.806046 -0.68751,-0.870846 z"
     id="path4"
     inkscape:connector-curvature="0" />
  <rect
     style="opacity:0.4;fill:none;fill-opacity:1;stroke:url(#linearGradient880-4);stroke-width:0.70175439;stroke-miterlimit:4;stroke-dasharray:none;stroke-opacity:1"
     width="39.298244"
     height="39.298244"
     x="4.3508773"
     y="-43.649124"
     rx="19.649122"
     ry="19.649122"
     transform="rotate(90)"
     id="rect8-2-8" />
</svg>
