<?xml version="1.0" encoding="UTF-8" standalone="no"?>
<svg
   xmlns:dc="http://purl.org/dc/elements/1.1/"
   xmlns:cc="http://creativecommons.org/ns#"
   xmlns:rdf="http://www.w3.org/1999/02/22-rdf-syntax-ns#"
   xmlns:svg="http://www.w3.org/2000/svg"
   xmlns="http://www.w3.org/2000/svg"
   xmlns:xlink="http://www.w3.org/1999/xlink"
   xmlns:sodipodi="http://sodipodi.sourceforge.net/DTD/sodipodi-0.dtd"
   xmlns:inkscape="http://www.inkscape.org/namespaces/inkscape"
   width="48"
   height="48"
   version="1"
   id="svg14"
   sodipodi:docname="krfb.svg"
   inkscape:version="0.92.4 5da689c313, 2019-01-14">
  <metadata
     id="metadata20">
    <rdf:RDF>
      <cc:Work
         rdf:about="">
        <dc:format>image/svg+xml</dc:format>
        <dc:type
           rdf:resource="http://purl.org/dc/dcmitype/StillImage" />
        <dc:title></dc:title>
      </cc:Work>
    </rdf:RDF>
  </metadata>
  <defs
     id="defs18">
    <linearGradient
       inkscape:collect="always"
       id="linearGradient831">
      <stop
         style="stop-color:#ff2525;stop-opacity:1"
         offset="0"
         id="stop827" />
      <stop
         style="stop-color:#4545ff;stop-opacity:1"
         offset="1"
         id="stop829" />
    </linearGradient>
    <linearGradient
       inkscape:collect="always"
       xlink:href="#linearGradient831"
       id="linearGradient833"
       x1="14.546678"
       y1="56.928509"
       x2="87.421364"
       y2="1.1269988"
       gradientUnits="userSpaceOnUse"
       gradientTransform="matrix(0.7142857,0,0,0.7142857,1.1428559,1.1428573)" />
  </defs>
  <sodipodi:namedview
     pagecolor="#ffffff"
     bordercolor="#666666"
     borderopacity="1"
     objecttolerance="10"
     gridtolerance="10"
     guidetolerance="10"
     inkscape:pageopacity="0"
     inkscape:pageshadow="2"
     inkscape:window-width="1366"
     inkscape:window-height="714"
     id="namedview16"
     showgrid="false"
     inkscape:zoom="5.2149125"
     inkscape:cx="35.970926"
     inkscape:cy="18.161626"
     inkscape:window-x="0"
     inkscape:window-y="19"
     inkscape:window-maximized="1"
     inkscape:current-layer="svg14" />
  <rect
     style="fill:url(#linearGradient833);fill-opacity:1;stroke-width:0.71428573"
     width="40"
     height="40"
     x="3.9999986"
     y="4"
     rx="20"
     ry="20"
     id="rect4" />
  <path
     style="opacity:0.2;fill:#ffffff;stroke-width:0.71428573"
     d="M 23.999998,4.0013951 C 12.920311,4.0013951 3.9999987,12.920313 3.9999987,24 c 0,0.08103 0.00806,0.160083 0.012556,0.239956 C 4.2643728,13.382517 13.079865,4.7156808 23.999998,4.7156808 c 10.920134,0 19.735626,8.6668362 19.987444,19.5242752 0.0045,-0.07987 0.01256,-0.158924 0.01256,-0.239956 0,-11.079687 -8.920312,-19.9986049 -20,-19.9986049 z"
     id="path6"
     inkscape:connector-curvature="0" />
  <path
     style="opacity:0.7;fill:none;stroke:#000000;stroke-width:2.85714293"
     d="M 28.285028,16.857949 16.856779,24.000605 28.285028,31.14326"
     id="path8"
     inkscape:connector-curvature="0" />
  <path
     style="opacity:0.2;fill-rule:evenodd;stroke-width:0.71428573"
     d="m 28.285028,13.28636 a 4.2855934,4.2855934 0 0 0 -4.285594,4.285593 4.2855934,4.2855934 0 0 0 4.285594,4.285593 4.2855934,4.2855934 0 0 0 4.285593,-4.285593 4.2855934,4.2855934 0 0 0 -4.285593,-4.285593 z m -11.428249,7.142655 a 4.2855934,4.2855934 0 0 0 -4.285594,4.285594 4.2855934,4.2855934 0 0 0 4.285594,4.285593 4.2855934,4.2855934 0 0 0 4.285593,-4.285593 4.2855934,4.2855934 0 0 0 -4.285593,-4.285594 z m 11.428249,7.142656 a 4.2855934,4.2855934 0 0 0 -4.285594,4.285593 4.2855934,4.2855934 0 0 0 4.285594,4.285593 4.2855934,4.2855934 0 0 0 4.285593,-4.285593 4.2855934,4.2855934 0 0 0 -4.285593,-4.285593 z"
     id="path10"
     inkscape:connector-curvature="0" />
  <path
     style="fill:#ffffff;fill-rule:evenodd;stroke-width:0.71428573"
     d="m 28.285028,12.572355 a 4.2855934,4.2855934 0 0 0 -4.285594,4.285594 4.2855934,4.2855934 0 0 0 4.285594,4.285593 4.2855934,4.2855934 0 0 0 4.285593,-4.285593 4.2855934,4.2855934 0 0 0 -4.285593,-4.285594 z m -11.428249,7.142656 a 4.2855934,4.2855934 0 0 0 -4.285594,4.285594 4.2855934,4.2855934 0 0 0 4.285594,4.285593 4.2855934,4.2855934 0 0 0 4.285593,-4.285593 4.2855934,4.2855934 0 0 0 -4.285593,-4.285594 z m 11.428249,7.142656 a 4.2855934,4.2855934 0 0 0 -4.285594,4.285593 4.2855934,4.2855934 0 0 0 4.285594,4.285594 4.2855934,4.2855934 0 0 0 4.285593,-4.285594 4.2855934,4.2855934 0 0 0 -4.285593,-4.285593 z"
     id="path12"
     inkscape:connector-curvature="0" />
  <path
     style="opacity:0.2;stroke-width:0.71428573"
     d="m 4.0362831,23.286299 c -0.00843,0.238564 -0.036285,0.472843 -0.036285,0.714266 C 3.9999984,35.080252 12.919747,44 23.999434,44 35.079122,44 43.99887,35.080252 43.99887,24.000565 c 0,-0.241194 -0.02789,-0.475188 -0.03627,-0.714266 -0.377132,10.743983 -9.125457,19.28517 -19.963722,19.28517 -10.838552,0 -19.5865907,-8.541187 -19.9637229,-19.28517 z"
     id="path2"
     inkscape:connector-curvature="0" />
</svg>
