<?xml version="1.0" encoding="UTF-8" standalone="no"?>
<svg
   xmlns:dc="http://purl.org/dc/elements/1.1/"
   xmlns:cc="http://creativecommons.org/ns#"
   xmlns:rdf="http://www.w3.org/1999/02/22-rdf-syntax-ns#"
   xmlns:svg="http://www.w3.org/2000/svg"
   xmlns="http://www.w3.org/2000/svg"
   xmlns:xlink="http://www.w3.org/1999/xlink"
   xmlns:sodipodi="http://sodipodi.sourceforge.net/DTD/sodipodi-0.dtd"
   xmlns:inkscape="http://www.inkscape.org/namespaces/inkscape"
   viewBox="0 0 48 48"
   version="1.1"
   id="svg14"
   sodipodi:docname="maps.svg"
   inkscape:version="0.92.4 5da689c313, 2019-01-14"
   width="48"
   height="48">
  <metadata
     id="metadata20">
    <rdf:RDF>
      <cc:Work
         rdf:about="">
        <dc:format>image/svg+xml</dc:format>
        <dc:type
           rdf:resource="http://purl.org/dc/dcmitype/StillImage" />
        <dc:title />
      </cc:Work>
    </rdf:RDF>
  </metadata>
  <defs
     id="defs18">
    <linearGradient
       inkscape:collect="always"
       id="linearGradient854">
      <stop
         style="stop-color:#ffffff;stop-opacity:1"
         offset="0"
         id="stop850" />
      <stop
         style="stop-color:#ffffff;stop-opacity:0"
         offset="1"
         id="stop852" />
    </linearGradient>
    <linearGradient
       inkscape:collect="always"
       id="linearGradient831">
      <stop
         style="stop-color:#f60000;stop-opacity:1;"
         offset="0"
         id="stop827" />
      <stop
         style="stop-color:#ce0000;stop-opacity:1"
         offset="1"
         id="stop829" />
    </linearGradient>
    <linearGradient
       inkscape:collect="always"
       xlink:href="#linearGradient831"
       id="linearGradient833"
       x1="35.260868"
       y1="4"
       x2="35.260868"
       y2="34.692307"
       gradientUnits="userSpaceOnUse"
       gradientTransform="matrix(0.72000001,0,0,0.69432918,0.96000045,1.2226832)" />
    <linearGradient
       inkscape:collect="always"
       xlink:href="#linearGradient854"
       id="linearGradient856"
       x1="46.86578"
       y1="-20.338984"
       x2="46.964725"
       y2="-16"
       gradientUnits="userSpaceOnUse"
       gradientTransform="matrix(0.70451718,0,0,0.70069111,-8.4794358,25.306376)" />
  </defs>
  <sodipodi:namedview
     pagecolor="#ffffff"
     bordercolor="#666666"
     borderopacity="1"
     objecttolerance="10"
     gridtolerance="10"
     guidetolerance="10"
     inkscape:pageopacity="0"
     inkscape:pageshadow="2"
     inkscape:window-width="1366"
     inkscape:window-height="691"
     id="namedview16"
     showgrid="false"
     inkscape:zoom="14.75"
     inkscape:cx="21.331023"
     inkscape:cy="-0.038127692"
     inkscape:window-x="0"
     inkscape:window-y="0"
     inkscape:window-maximized="1"
     inkscape:current-layer="svg14" />
  <path
     d="M 15.782608,35.02713 6,40.635174 v 2.916183 L 15.782608,41.756783 32.21739,44 42,42.205426 V 27.17587 l -9.78261,5.608043"
     style="opacity:0.2;fill:#000000;fill-opacity:1;fill-rule:evenodd;stroke:none;stroke-width:0.76497531"
     id="path8-3"
     inkscape:connector-curvature="0" />
  <path
     d="M 15.782609,9.2341739 6.0000003,11.028748 V 42.433791 L 15.782609,40.639217 32.21739,42.882434 42,41.08786 V 9.682817 l -9.78261,1.794575 z"
     style="fill:#2ecc71;fill-opacity:1;fill-rule:evenodd;stroke:none;stroke-width:0.76497531"
     id="path4"
     inkscape:connector-curvature="0" />
  <path
     d="m 10.892087,10.169595 -3.9138258,0.746992 8.8043478,8.412065 5.010261,10.533027 -5.010261,0.68306 -9.7826087,5.608043 v 3.92563 H 42 V 22.693477 l -9.78261,5.608044 -9.426521,1.285363 -7.014129,-14.744667 -4.890522,-4.672622 z"
     style="fill:#f1c40f;fill-opacity:1;fill-rule:evenodd;stroke:none;stroke-width:0.76497531"
     id="path6"
     inkscape:connector-curvature="0" />
  <path
     d="M 15.959315,9.6582171 6.3870709,11.469233 v 31.692799 l 9.5722441,-1.811018 16.081368,2.263772 9.572245,-1.811016 v -31.6928 l -9.572245,1.811017 z"
     style="opacity:0.4;fill:none;fill-opacity:1;fill-rule:evenodd;stroke:url(#linearGradient856);stroke-width:0.76021492;stroke-miterlimit:4;stroke-dasharray:none;stroke-opacity:1"
     id="path4-2"
     inkscape:connector-curvature="0" />
  <path
     d="m 15.782609,33.909564 -9.7826087,5.608044 v 2.916183 L 15.782609,40.639217 32.21739,42.882434 42,41.08786 V 26.058304 l -9.78261,5.608043"
     style="fill:#3498db;fill-opacity:1;fill-rule:evenodd;stroke:none;stroke-width:0.76497531"
     id="path8"
     inkscape:connector-curvature="0" />
  <path
     d="M 32.21739,11.477392 42,9.682817 V 41.08786 l -9.78261,1.794574 z M 15.782609,40.639217 6.0000003,42.433791 V 11.028748 L 15.782609,9.2341739 Z"
     style="opacity:0.15;fill:#000000;fill-opacity:1;fill-rule:evenodd;stroke:none;stroke-width:0.76497531"
     id="path10"
     inkscape:connector-curvature="0"
     sodipodi:nodetypes="cccccccccc" />
  <path
     d="m 26.347826,4.0000001 c -3.890349,0 -7.043478,3.0133886 -7.043478,6.7296519 0.0016,1.081231 0.274696,2.146759 0.79826,3.106856 2.075479,3.820199 4.163479,7.651614 6.245218,11.474057 l 6.245216,-11.474057 c 0.525133,-0.958601 0.795914,-2.02413 0.798263,-3.106856 0,-3.717011 -3.153913,-6.7296519 -7.043478,-6.7296519 m 0,4.4864348 A 2.3478259,2.2432174 0 0 1 28.695653,10.729652 2.3478259,2.2432174 0 0 1 26.347827,12.97287 2.3478259,2.2432174 0 0 1 24,10.729652 2.3478259,2.2432174 0 0 1 26.347827,8.4864349 Z"
     style="opacity:1;fill:url(#linearGradient833);fill-opacity:1;fill-rule:nonzero;stroke:none;stroke-width:0.76497531"
     id="path12"
     inkscape:connector-curvature="0" />
</svg>
