<?xml version="1.0" encoding="UTF-8" standalone="no"?>
<svg
   xmlns:dc="http://purl.org/dc/elements/1.1/"
   xmlns:cc="http://creativecommons.org/ns#"
   xmlns:rdf="http://www.w3.org/1999/02/22-rdf-syntax-ns#"
   xmlns:svg="http://www.w3.org/2000/svg"
   xmlns="http://www.w3.org/2000/svg"
   xmlns:xlink="http://www.w3.org/1999/xlink"
   xmlns:sodipodi="http://sodipodi.sourceforge.net/DTD/sodipodi-0.dtd"
   xmlns:inkscape="http://www.inkscape.org/namespaces/inkscape"
   width="48"
   height="48"
   version="1"
   id="svg26"
   sodipodi:docname="multimedia-video-player.svg"
   inkscape:version="0.92.4 5da689c313, 2019-01-14">
  <metadata
     id="metadata32">
    <rdf:RDF>
      <cc:Work
         rdf:about="">
        <dc:format>image/svg+xml</dc:format>
        <dc:type
           rdf:resource="http://purl.org/dc/dcmitype/StillImage" />
        <dc:title />
      </cc:Work>
    </rdf:RDF>
  </metadata>
  <defs
     id="defs30">
    <linearGradient
       inkscape:collect="always"
       id="linearGradient8494">
      <stop
         style="stop-color:#ffffff;stop-opacity:1;"
         offset="0"
         id="stop8490" />
      <stop
         style="stop-color:#ffffff;stop-opacity:0;"
         offset="1"
         id="stop8492" />
    </linearGradient>
    <filter
       inkscape:collect="always"
       style="color-interpolation-filters:sRGB"
       id="filter2777"
       x="-0.039360002"
       width="1.07872"
       y="-0.061500002"
       height="1.123">
      <feGaussianBlur
         inkscape:collect="always"
         stdDeviation="0.82"
         id="feGaussianBlur2779" />
    </filter>
    <filter
       inkscape:collect="always"
       style="color-interpolation-filters:sRGB"
       id="filter2860"
       x="-0.22400001"
       width="1.448"
       y="-0.168"
       height="1.336">
      <feGaussianBlur
         inkscape:collect="always"
         stdDeviation="1.12"
         id="feGaussianBlur2862" />
    </filter>
    <linearGradient
       inkscape:collect="always"
       xlink:href="#linearGradient8494"
       id="linearGradient8496"
       x1="-48.000123"
       y1="-32"
       x2="-42.751698"
       y2="-31.962803"
       gradientUnits="userSpaceOnUse"
       gradientTransform="translate(64.000002)" />
    <linearGradient
       inkscape:collect="always"
       xlink:href="#linearGradient833"
       id="linearGradient826-7"
       x1="57.129814"
       y1="48.749649"
       x2="9.7931185"
       y2="2.3869731"
       gradientUnits="userSpaceOnUse"
       gradientTransform="matrix(1.5999999,0,0,3.5714286,-70.399997,-85.57143)" />
    <linearGradient
       inkscape:collect="always"
       id="linearGradient833">
      <stop
         style="stop-color:#24d8ff;stop-opacity:1"
         offset="0"
         id="stop829" />
      <stop
         id="stop1492"
         offset="0.61260545"
         style="stop-color:#18a2f0;stop-opacity:1;" />
      <stop
         style="stop-color:#127bcb;stop-opacity:1"
         offset="0.61260545"
         id="stop1494" />
      <stop
         id="stop1496"
         offset="0.69288391"
         style="stop-color:#117ee6;stop-opacity:1;" />
      <stop
         style="stop-color:#0e68cf;stop-opacity:1"
         offset="0.69288391"
         id="stop1498" />
      <stop
         id="stop1500"
         offset="0.76831985"
         style="stop-color:#0e6fde;stop-opacity:1" />
      <stop
         style="stop-color:#0b4ea0;stop-opacity:1"
         offset="0.76831985"
         id="stop1502" />
      <stop
         id="stop1504"
         offset="0.83362627"
         style="stop-color:#0a4d9f;stop-opacity:1" />
      <stop
         style="stop-color:#083e80;stop-opacity:1"
         offset="0.83362627"
         id="stop1506" />
      <stop
         style="stop-color:#052852;stop-opacity:1"
         offset="1"
         id="stop831" />
    </linearGradient>
    <filter
       style="color-interpolation-filters:sRGB"
       inkscape:label="Colorize"
       id="filter11307">
      <feComposite
         k4="0"
         k3="0"
         in2="SourceGraphic"
         operator="arithmetic"
         k1="0"
         k2="1"
         result="composite1"
         id="feComposite11293" />
      <feColorMatrix
         in="composite1"
         values="1"
         type="saturate"
         result="colormatrix1"
         id="feColorMatrix11295" />
      <feFlood
         flood-opacity="1"
         flood-color="rgb(16,255,41)"
         result="flood1"
         id="feFlood11297" />
      <feBlend
         in="flood1"
         in2="colormatrix1"
         mode="multiply"
         result="blend1"
         id="feBlend11299" />
      <feBlend
         in2="blend1"
         mode="screen"
         result="blend2"
         id="feBlend11301" />
      <feColorMatrix
         in="blend2"
         values="1"
         type="saturate"
         result="colormatrix2"
         id="feColorMatrix11303" />
      <feComposite
         in="colormatrix2"
         in2="SourceGraphic"
         operator="in"
         result="composite2"
         id="feComposite11305" />
    </filter>
  </defs>
  <sodipodi:namedview
     pagecolor="#ffffff"
     bordercolor="#666666"
     borderopacity="1"
     objecttolerance="10"
     gridtolerance="10"
     guidetolerance="10"
     inkscape:pageopacity="0"
     inkscape:pageshadow="2"
     inkscape:window-width="1366"
     inkscape:window-height="691"
     id="namedview28"
     showgrid="false"
     inkscape:zoom="5.656854"
     inkscape:cx="12.429636"
     inkscape:cy="14.706589"
     inkscape:window-x="0"
     inkscape:window-y="0"
     inkscape:window-maximized="1"
     inkscape:current-layer="svg26" />
  <path
     style="opacity:0.2;fill:#000000;fill-opacity:1;stroke-width:1.0000087"
     d="M 6.000001,5 C 4.891981,5 4,5.891163 4,6.999163 V 42.999442 C 4,44.107442 4.891981,45 6.000001,45 H 41.999999 C 43.108019,45 44,44.107441 44,42.999441 V 6.999163 C 44,5.891163 43.108019,5 41.999999,5 Z m 0,1.999163 H 10 v 4.001116 H 6.000001 Z m 7.999998,0 h 4 v 4.001116 h -4 z m 8,0 h 4 v 4.001116 h -4 z m 8,0 h 4 v 4.001116 h -4 z m 8,0 h 4 v 4.001116 h -4 z M 6.000001,38.999721 H 10 v 3.999721 H 6.000001 Z m 7.999998,0 h 4 v 3.999721 h -4 z m 8,0 h 4 v 3.999721 h -4 z m 8,0 h 4 v 3.999721 h -4 z m 8,0 h 4 v 3.999721 H 38 Z"
     id="rect2-5"
     inkscape:connector-curvature="0" />
  <path
     style="fill:#000000;fill-opacity:1;stroke-width:1.0000087"
     d="M 6.0000007,4 C 4.891981,4 4.0000004,4.8911629 4.0000004,5.999163 V 41.999442 C 4.0000004,43.107442 4.891981,44 6.0000007,44 H 41.999999 C 43.108019,44 44,43.107441 44,41.999441 V 5.9991631 C 44,4.8911629 43.108019,4 41.999999,4 Z m 0,1.999163 h 3.9999992 v 4.001116 H 6.0000007 Z m 7.9999983,0 h 4 v 4.001116 h -4 z m 8,0 h 4 v 4.001116 h -4 z m 8,0 h 4 v 4.001116 h -4 z m 8,0 h 4 v 4.001116 h -4 z M 6.0000007,37.999721 h 3.9999992 v 3.999721 H 6.0000007 Z m 7.9999983,0 h 4 v 3.999721 h -4 z m 8,0 h 4 v 3.999721 h -4 z m 8,0 h 4 v 3.999721 h -4 z m 8,0 h 4 v 3.999721 H 38 Z"
     id="rect2"
     inkscape:connector-curvature="0" />
  <rect
     transform="matrix(0,-0.71428571,-0.71428571,0,1.1428577,1.1428571)"
     ry="0"
     rx="0"
     id="rect14-8"
     y="-57"
     x="-48"
     height="50"
     width="32"
     style="fill:#000000;fill-opacity:1;stroke-width:2.39045691;filter:url(#filter2777)" />
  <g
     id="g2632"
     transform="matrix(0.72,0,0,0.6875,0.96,2)">
    <rect
       transform="matrix(0,-1,-1,0,0,0)"
       ry="0"
       rx="0"
       id="rect14-7"
       y="-57"
       x="-48"
       height="50"
       width="32"
       style="fill:url(#linearGradient826-7);fill-opacity:1;stroke-width:2.39045691;filter:url(#filter11307)" />
    <path
       sodipodi:nodetypes="cccc"
       inkscape:connector-curvature="0"
       id="path2628-0"
       d="M 28,24 V 40 L 40,32.286194 28,24"
       style="fill:#000000;fill-opacity:1;stroke:none;stroke-width:2.92587113px;stroke-linecap:butt;stroke-linejoin:miter;stroke-opacity:1;filter:url(#filter2860)" />
    <path
       sodipodi:nodetypes="cccc"
       inkscape:connector-curvature="0"
       id="path2628"
       d="M 28,24 V 40 L 40,32.286194 28,24"
       style="fill:#ffffff;fill-opacity:1;stroke:none;stroke-width:2.92587113px;stroke-linecap:butt;stroke-linejoin:miter;stroke-opacity:1" />
    <rect
       transform="rotate(90)"
       ry="0"
       rx="0"
       id="rect14-5"
       y="-56.314327"
       x="16.685675"
       height="48.628654"
       width="30.628653"
       style="fill:none;fill-opacity:1;stroke:url(#linearGradient8496);stroke-width:1.37159133;stroke-miterlimit:4;stroke-dasharray:none;stroke-opacity:1;paint-order:fill markers stroke;opacity:0.4" />
  </g>
</svg>
