<?xml version="1.0" encoding="UTF-8" standalone="no"?>
<svg
   xmlns:dc="http://purl.org/dc/elements/1.1/"
   xmlns:cc="http://creativecommons.org/ns#"
   xmlns:rdf="http://www.w3.org/1999/02/22-rdf-syntax-ns#"
   xmlns:svg="http://www.w3.org/2000/svg"
   xmlns="http://www.w3.org/2000/svg"
   xmlns:xlink="http://www.w3.org/1999/xlink"
   xmlns:sodipodi="http://sodipodi.sourceforge.net/DTD/sodipodi-0.dtd"
   xmlns:inkscape="http://www.inkscape.org/namespaces/inkscape"
   width="48"
   height="48"
   version="1"
   id="svg12"
   sodipodi:docname="preferences-desktop-online-accounts.svg"
   inkscape:version="0.92.4 5da689c313, 2019-01-14">
  <metadata
     id="metadata18">
    <rdf:RDF>
      <cc:Work
         rdf:about="">
        <dc:format>image/svg+xml</dc:format>
        <dc:type
           rdf:resource="http://purl.org/dc/dcmitype/StillImage" />
        <dc:title />
      </cc:Work>
    </rdf:RDF>
  </metadata>
  <defs
     id="defs16">
    <linearGradient
       inkscape:collect="always"
       id="linearGradient832">
      <stop
         style="stop-color:#37dbad;stop-opacity:1;"
         offset="0"
         id="stop828" />
      <stop
         style="stop-color:#0066cc;stop-opacity:1"
         offset="1"
         id="stop830" />
    </linearGradient>
    <linearGradient
       inkscape:collect="always"
       xlink:href="#linearGradient832"
       id="linearGradient834"
       x1="0.47457626"
       y1="0.67796606"
       x2="63.796612"
       y2="63.050846"
       gradientUnits="userSpaceOnUse"
       gradientTransform="matrix(0.71428571,0,0,0.71428571,1.1428571,1.1428576)" />
  </defs>
  <sodipodi:namedview
     pagecolor="#ffffff"
     bordercolor="#666666"
     borderopacity="1"
     objecttolerance="10"
     gridtolerance="10"
     guidetolerance="10"
     inkscape:pageopacity="0"
     inkscape:pageshadow="2"
     inkscape:window-width="1366"
     inkscape:window-height="691"
     id="namedview14"
     showgrid="false"
     inkscape:zoom="7.375"
     inkscape:cx="-8.9143836"
     inkscape:cy="26.405145"
     inkscape:window-x="0"
     inkscape:window-y="0"
     inkscape:window-maximized="1"
     inkscape:current-layer="svg12" />
  <rect
     style="opacity:0.2;fill:#000000;fill-opacity:1;stroke-width:0.71428573"
     width="40"
     height="40"
     x="4"
     y="5"
     rx="20"
     ry="20"
     id="rect2-8" />
  <rect
     style="fill:url(#linearGradient834);fill-opacity:1;stroke-width:0.71428573"
     width="40"
     height="40"
     x="4"
     y="4"
     rx="20"
     ry="20"
     id="rect2" />
  <path
     style="opacity:0.2;stroke-width:0.71428573"
     d="m 23.999714,13.286041 c -6.311767,0 -11.428408,5.116641 -11.428408,11.428408 0,6.311767 5.116641,11.428408 11.428408,11.428408 h 7.142755 c 0,0 1.339267,0 1.428551,-1.428551 0,-1.428551 -1.428551,-1.428551 -1.428551,-1.428551 h -7.142755 c -4.73379,0 -8.571306,-3.837516 -8.571306,-8.571306 0,-4.73379 3.837516,-8.571306 8.571306,-8.571306 4.73379,0 8.571306,3.837516 8.571306,8.571306 V 26.143 c 0,0.78896 -0.639591,1.428551 -1.428551,1.428551 -0.78896,0 -1.428551,-0.639591 -1.428551,-1.428551 v -1.428551 c 0,-3.155812 -2.558392,-5.714204 -5.714204,-5.714204 -3.155812,0 -5.714204,2.558392 -5.714204,5.714204 0,3.155812 2.558392,5.714204 5.714204,5.714204 1.49455,0 2.843245,-0.586992 3.861516,-1.526264 0.814274,0.967129 2.015686,1.525692 3.281381,1.525692 2.366824,0 4.285654,-1.918829 4.285654,-4.285652 v -1.428551 c 0,-6.311339 -5.11707,-11.428409 -11.428409,-11.428409 z m 0,8.571306 c 1.577977,0 2.857102,1.279167 2.857102,2.857102 0,1.577935 -1.279167,2.857102 -2.857102,2.857102 -1.577935,0 -2.857102,-1.279167 -2.857102,-2.857102 0,-1.577935 1.279167,-2.857102 2.857102,-2.857102 z"
     id="path4"
     inkscape:connector-curvature="0" />
  <path
     style="fill:#ffffff;stroke-width:0.71428573"
     d="m 23.999714,12.571899 c -6.311767,0 -11.428408,5.116641 -11.428408,11.428407 0,6.311768 5.116641,11.428408 11.428408,11.428408 h 7.142755 c 0,0 1.339267,0 1.428551,-1.42855 0,-1.428551 -1.428551,-1.428551 -1.428551,-1.428551 h -7.142755 c -4.73379,0 -8.571306,-3.837517 -8.571306,-8.571307 0,-4.733789 3.837516,-8.571305 8.571306,-8.571305 4.73379,0 8.571306,3.837516 8.571306,8.571305 v 1.428552 c 0,0.78896 -0.639591,1.428551 -1.428551,1.428551 -0.78896,0 -1.428551,-0.639591 -1.428551,-1.428551 v -1.428552 c 0,-3.155812 -2.558392,-5.714203 -5.714204,-5.714203 -3.155812,0 -5.714204,2.558391 -5.714204,5.714203 0,3.155813 2.558392,5.714205 5.714204,5.714205 1.49455,0 2.843245,-0.586992 3.861516,-1.526265 0.814274,0.96713 2.015686,1.525693 3.281381,1.525693 2.366824,0 4.285654,-1.91883 4.285654,-4.285653 v -1.428551 c 0,-6.311338 -5.11707,-11.428408 -11.428409,-11.428408 z m 0,8.571305 c 1.577977,0 2.857102,1.279168 2.857102,2.857102 0,1.577935 -1.279167,2.857103 -2.857102,2.857103 -1.577935,0 -2.857102,-1.279168 -2.857102,-2.857103 0,-1.577934 1.279167,-2.857102 2.857102,-2.857102 z"
     id="path6"
     inkscape:connector-curvature="0" />
  <path
     style="opacity:0.4;fill:#ffffff;stroke-width:0.71428573"
     d="M 24,4 C 12.920159,4 4,12.920159 4,24 4,24.08111 4.00806,24.160024 4.012556,24.239956 4.2636544,13.381713 13.079247,4.7142857 24,4.7142857 c 10.920754,0 19.736346,8.6674273 19.987444,19.5256703 C 43.991998,24.160024 44,24.08111 44,24 44,12.920159 35.079842,4 24,4 Z"
     id="path10"
     inkscape:connector-curvature="0" />
</svg>
