<?xml version="1.0" encoding="UTF-8" standalone="no"?>
<svg
   xmlns:dc="http://purl.org/dc/elements/1.1/"
   xmlns:cc="http://creativecommons.org/ns#"
   xmlns:rdf="http://www.w3.org/1999/02/22-rdf-syntax-ns#"
   xmlns:svg="http://www.w3.org/2000/svg"
   xmlns="http://www.w3.org/2000/svg"
   xmlns:xlink="http://www.w3.org/1999/xlink"
   xmlns:sodipodi="http://sodipodi.sourceforge.net/DTD/sodipodi-0.dtd"
   xmlns:inkscape="http://www.inkscape.org/namespaces/inkscape"
   width="48"
   height="48"
   version="1"
   id="svg10"
   sodipodi:docname="preferences-system-power.svg"
   inkscape:version="0.92.4 5da689c313, 2019-01-14">
  <metadata
     id="metadata16">
    <rdf:RDF>
      <cc:Work
         rdf:about="">
        <dc:format>image/svg+xml</dc:format>
        <dc:type
           rdf:resource="http://purl.org/dc/dcmitype/StillImage" />
        <dc:title />
      </cc:Work>
    </rdf:RDF>
  </metadata>
  <defs
     id="defs14">
    <linearGradient
       inkscape:collect="always"
       id="linearGradient827">
      <stop
         style="stop-color:#ffcc00;stop-opacity:1"
         offset="0"
         id="stop823" />
      <stop
         style="stop-color:#ffb800;stop-opacity:1"
         offset="1"
         id="stop825" />
    </linearGradient>
    <linearGradient
       inkscape:collect="always"
       xlink:href="#linearGradient827"
       id="linearGradient829"
       x1="31.999599"
       y1="16.000658"
       x2="31.999599"
       y2="48.000198"
       gradientUnits="userSpaceOnUse"
       gradientTransform="matrix(0.71428571,0,0,0.71428571,1.1428571,1.1428471)" />
  </defs>
  <sodipodi:namedview
     pagecolor="#ffffff"
     bordercolor="#666666"
     borderopacity="1"
     objecttolerance="10"
     gridtolerance="10"
     guidetolerance="10"
     inkscape:pageopacity="0"
     inkscape:pageshadow="2"
     inkscape:window-width="1366"
     inkscape:window-height="691"
     id="namedview12"
     showgrid="false"
     inkscape:zoom="10.791667"
     inkscape:cx="24"
     inkscape:cy="24"
     inkscape:window-x="0"
     inkscape:window-y="0"
     inkscape:window-maximized="1"
     inkscape:current-layer="svg10" />
  <path
     style="opacity:0.2;fill:#000000;fill-opacity:1;stroke-width:0.71428573"
     d="M 23.999998,5 C 12.92,5 4,13.92 4,25 4,36.079998 12.92,45 23.999998,45 35.08,45 44,36.079998 44,25 44,13.92 35.08,5 23.999998,5 Z"
     id="path2-5"
     inkscape:connector-curvature="0" />
  <path
     style="fill:url(#linearGradient829);fill-opacity:1;stroke-width:0.71428573"
     d="M 23.999999,4.0000105 C 12.92,4.0000105 4,12.92001 4,24.00001 c 0,11.079999 8.92,20 19.999999,20 C 35.08,44.00001 44,35.080009 44,24.00001 44,12.92001 35.08,4.0000105 23.999999,4.0000105 Z"
     id="path2"
     inkscape:connector-curvature="0" />
  <path
     style="opacity:0.4;fill:#ffffff;stroke-width:0.71428573"
     d="m 24,3.9999898 c -11.079841,0 -20,8.9201582 -20,19.9999992 0,0.07025 0.008,0.138547 0.012556,0.207869 C 4.280266,13.364629 13.090002,4.7142755 24,4.7142755 c 10.909999,0 19.719734,8.6503535 19.987444,19.4935825 C 43.991978,24.138582 44,24.070134 44,23.999989 44,12.920148 35.079842,3.9999898 24,3.9999898 Z"
     id="path4"
     inkscape:connector-curvature="0" />
  <path
     style="fill:#3f3f3f;stroke-width:0.71428573"
     d="m 23.999714,12.571888 v 8.571306 h 8.571306 l -8.571306,14.28551 v -8.571306 h -8.571306 z"
     id="path6"
     inkscape:connector-curvature="0" />
</svg>
