<?xml version="1.0" encoding="UTF-8" standalone="no"?>
<svg
   xmlns:dc="http://purl.org/dc/elements/1.1/"
   xmlns:cc="http://creativecommons.org/ns#"
   xmlns:rdf="http://www.w3.org/1999/02/22-rdf-syntax-ns#"
   xmlns:svg="http://www.w3.org/2000/svg"
   xmlns="http://www.w3.org/2000/svg"
   xmlns:xlink="http://www.w3.org/1999/xlink"
   xmlns:sodipodi="http://sodipodi.sourceforge.net/DTD/sodipodi-0.dtd"
   xmlns:inkscape="http://www.inkscape.org/namespaces/inkscape"
   width="48"
   height="48"
   version="1"
   id="svg16"
   sodipodi:docname="preferences-system-windows.svg"
   inkscape:version="0.92.4 5da689c313, 2019-01-14">
  <metadata
     id="metadata22">
    <rdf:RDF>
      <cc:Work
         rdf:about="">
        <dc:format>image/svg+xml</dc:format>
        <dc:type
           rdf:resource="http://purl.org/dc/dcmitype/StillImage" />
        <dc:title />
      </cc:Work>
    </rdf:RDF>
  </metadata>
  <defs
     id="defs20">
    <linearGradient
       inkscape:collect="always"
       id="linearGradient857">
      <stop
         style="stop-color:#50595e;stop-opacity:1"
         offset="0"
         id="stop853" />
      <stop
         style="stop-color:#768388;stop-opacity:1"
         offset="1"
         id="stop855" />
    </linearGradient>
    <linearGradient
       inkscape:collect="always"
       xlink:href="#linearGradient857"
       id="linearGradient859"
       x1="24.881355"
       y1="28.618645"
       x2="25.220339"
       y2="22.11017"
       gradientUnits="userSpaceOnUse"
       gradientTransform="matrix(0.90909092,0,0,1.0124292,0.36363632,-16.273441)" />
  </defs>
  <sodipodi:namedview
     pagecolor="#ffffff"
     bordercolor="#666666"
     borderopacity="1"
     objecttolerance="10"
     gridtolerance="10"
     guidetolerance="10"
     inkscape:pageopacity="0"
     inkscape:pageshadow="2"
     inkscape:window-width="1366"
     inkscape:window-height="691"
     id="namedview18"
     showgrid="false"
     inkscape:zoom="41.7193"
     inkscape:cx="16.346754"
     inkscape:cy="2.9928905"
     inkscape:window-x="0"
     inkscape:window-y="0"
     inkscape:window-maximized="1"
     inkscape:current-layer="svg16" />
  <path
     style="opacity:0.2;stroke-width:0.92803228"
     d="m 4,39.110526 v 0.947369 C 4,41.632421 5.2163636,42.9 6.7272727,42.9 H 41.272727 C 42.783636,42.9 44,41.632421 44,40.057895 v -0.947369 c 0,1.574526 -1.216364,2.842106 -2.727273,2.842106 H 6.7272727 C 5.2163636,41.952632 4,40.685052 4,39.110526 Z"
     id="path14"
     inkscape:connector-curvature="0" />
  <path
     style="fill:#e4e4e4;stroke-width:0.92803228"
     d="M 4,12.536841 V 39.157895 C 4,40.732421 5.2163636,42 6.7272727,42 H 41.272727 C 42.783636,42 44,40.732421 44,39.157895 V 12.536841 Z"
     id="path6"
     inkscape:connector-curvature="0" />
  <path
     style="fill:url(#linearGradient859);fill-opacity:1;stroke-width:0.9593696"
     d="M 6.7272727,6 C 5.2163636,6 4,7.3546299 4,9.037287 v 4.049716 H 44 V 9.037287 C 44,7.3546299 42.783636,6 41.272727,6 Z"
     id="path8"
     inkscape:connector-curvature="0" />
  <path
     inkscape:connector-curvature="0"
     style="opacity:0.4;fill:#ffffff;stroke-width:0.92803228"
     d="M 6.7272727,6 C 5.2163636,6 4,7.2675787 4,8.842105 V 9.7894738 C 4,8.2149475 5.2163636,6.9473681 6.7272727,6.9473681 H 41.272727 C 42.783636,6.9473681 44,8.2149475 44,9.7894738 V 8.842105 C 44,7.2675787 42.783636,6 41.272727,6 Z"
     id="path12-4" />
</svg>
