<?xml version="1.0" encoding="UTF-8" standalone="no"?>
<svg
   xmlns:dc="http://purl.org/dc/elements/1.1/"
   xmlns:cc="http://creativecommons.org/ns#"
   xmlns:rdf="http://www.w3.org/1999/02/22-rdf-syntax-ns#"
   xmlns:svg="http://www.w3.org/2000/svg"
   xmlns="http://www.w3.org/2000/svg"
   xmlns:xlink="http://www.w3.org/1999/xlink"
   xmlns:sodipodi="http://sodipodi.sourceforge.net/DTD/sodipodi-0.dtd"
   xmlns:inkscape="http://www.inkscape.org/namespaces/inkscape"
   width="48"
   height="48"
   version="1"
   id="svg12"
   sodipodi:docname="preferences-desktop-accessibility.svg"
   inkscape:version="0.92.4 5da689c313, 2019-01-14">
  <metadata
     id="metadata18">
    <rdf:RDF>
      <cc:Work
         rdf:about="">
        <dc:format>image/svg+xml</dc:format>
        <dc:type
           rdf:resource="http://purl.org/dc/dcmitype/StillImage" />
        <dc:title />
      </cc:Work>
    </rdf:RDF>
  </metadata>
  <defs
     id="defs16">
    <linearGradient
       inkscape:collect="always"
       id="linearGradient832">
      <stop
         style="stop-color:#3e50b4;stop-opacity:1;"
         offset="0"
         id="stop828" />
      <stop
         style="stop-color:#6675ca;stop-opacity:1"
         offset="1"
         id="stop830" />
    </linearGradient>
    <linearGradient
       inkscape:collect="always"
       xlink:href="#linearGradient832"
       id="linearGradient834"
       x1="4"
       y1="32"
       x2="60"
       y2="32"
       gradientUnits="userSpaceOnUse"
       gradientTransform="matrix(0.71428571,0,0,0.71428571,-46.857143,-46.857143)" />
  </defs>
  <sodipodi:namedview
     pagecolor="#ffffff"
     bordercolor="#666666"
     borderopacity="1"
     objecttolerance="10"
     gridtolerance="10"
     guidetolerance="10"
     inkscape:pageopacity="0"
     inkscape:pageshadow="2"
     inkscape:window-width="1366"
     inkscape:window-height="691"
     id="namedview14"
     showgrid="false"
     inkscape:zoom="10.791667"
     inkscape:cx="24"
     inkscape:cy="24"
     inkscape:window-x="0"
     inkscape:window-y="0"
     inkscape:window-maximized="1"
     inkscape:current-layer="svg12" />
  <rect
     style="opacity:0.2;fill:#000000;fill-opacity:1;stroke-width:0.71428573"
     width="40"
     height="40"
     x="-45"
     y="-44"
     rx="20"
     ry="20"
     id="rect2-8"
     transform="matrix(0,-1,-1,0,0,0)" />
  <rect
     style="fill:url(#linearGradient834);fill-opacity:1;stroke-width:0.71428573"
     width="40"
     height="40"
     x="-44"
     y="-44"
     rx="20"
     ry="20"
     id="rect2"
     transform="matrix(0,-1,-1,0,0,0)" />
  <path
     style="opacity:0.2;stroke-width:0.71428573"
     d="m 24,11.857143 c -1.578,0 -2.857143,1.279186 -2.857143,2.857143 0,1.577957 1.279186,2.857143 2.857143,2.857143 1.577957,0 2.857143,-1.279186 2.857143,-2.857143 0,-1.577957 -1.279186,-2.857143 -2.857143,-2.857143 z M 14,19 v 1.428571 h 7.142857 v 17.142858 h 1.428572 V 29 h 2.857142 v 8.571429 h 1.428572 V 20.428571 H 34 V 19 H 21.142857 Z"
     id="path4"
     inkscape:connector-curvature="0" />
  <path
     style="fill:#ffffff;stroke-width:0.71428573"
     d="m 24,11.142857 c -1.578,0 -2.857143,1.279186 -2.857143,2.857143 0,1.577957 1.279186,2.857143 2.857143,2.857143 1.577957,0 2.857143,-1.279186 2.857143,-2.857143 0,-1.577957 -1.279186,-2.857143 -2.857143,-2.857143 z m -10,7.142857 v 1.428572 h 7.142857 v 17.142857 h 1.428572 v -8.571429 h 2.857142 v 8.571429 h 1.428572 V 19.714286 H 34 V 18.285714 H 21.142857 Z"
     id="path6"
     inkscape:connector-curvature="0" />
  <path
     style="opacity:0.4;fill:#ffffff;stroke-width:0.71428573"
     d="M 24,4 C 12.920313,4 4,12.92 4,24 4,24.08103 4.00806,24.160081 4.012556,24.239956 4.263651,13.381558 13.079399,4.7142857 24,4.7142857 c 10.920601,0 19.736349,8.6672723 19.987444,19.5256703 C 43.991924,24.160081 44,24.081034 44,24 44,12.92 35.079687,4 24,4 Z"
     id="path8"
     inkscape:connector-curvature="0" />
</svg>
