<?xml version="1.0" encoding="UTF-8" standalone="no"?>
<svg
   xmlns:dc="http://purl.org/dc/elements/1.1/"
   xmlns:cc="http://creativecommons.org/ns#"
   xmlns:rdf="http://www.w3.org/1999/02/22-rdf-syntax-ns#"
   xmlns:svg="http://www.w3.org/2000/svg"
   xmlns="http://www.w3.org/2000/svg"
   xmlns:xlink="http://www.w3.org/1999/xlink"
   xmlns:sodipodi="http://sodipodi.sourceforge.net/DTD/sodipodi-0.dtd"
   xmlns:inkscape="http://www.inkscape.org/namespaces/inkscape"
   width="48"
   height="48"
   version="1.1"
   viewBox="0 0 36 36"
   id="svg28"
   sodipodi:docname="preferences-system-time.svg"
   inkscape:version="0.92.4 5da689c313, 2019-01-14">
  <metadata
     id="metadata32">
    <rdf:RDF>
      <cc:Work
         rdf:about="">
        <dc:format>image/svg+xml</dc:format>
        <dc:type
           rdf:resource="http://purl.org/dc/dcmitype/StillImage" />
        <dc:title></dc:title>
      </cc:Work>
    </rdf:RDF>
  </metadata>
  <sodipodi:namedview
     pagecolor="#ffffff"
     bordercolor="#666666"
     borderopacity="1"
     objecttolerance="10"
     gridtolerance="10"
     guidetolerance="10"
     inkscape:pageopacity="0"
     inkscape:pageshadow="2"
     inkscape:window-width="1366"
     inkscape:window-height="712"
     id="namedview30"
     showgrid="false"
     inkscape:zoom="5.2149125"
     inkscape:cx="36.860427"
     inkscape:cy="5.3517842"
     inkscape:window-x="0"
     inkscape:window-y="25"
     inkscape:window-maximized="1"
     inkscape:current-layer="svg28" />
  <defs
     id="defs6">
    <linearGradient
       inkscape:collect="always"
       id="linearGradient958">
      <stop
         style="stop-color:#000000;stop-opacity:1;"
         offset="0"
         id="stop954" />
      <stop
         style="stop-color:#000000;stop-opacity:0;"
         offset="1"
         id="stop956" />
    </linearGradient>
    <linearGradient
       inkscape:collect="always"
       id="linearGradient890">
      <stop
         style="stop-color:#0049dc;stop-opacity:1"
         offset="0"
         id="stop886" />
      <stop
         style="stop-color:#00e9f2;stop-opacity:1"
         offset="1"
         id="stop888" />
    </linearGradient>
    <linearGradient
       inkscape:collect="always"
       id="linearGradient843">
      <stop
         style="stop-color:#ffffff;stop-opacity:1;"
         offset="0"
         id="stop839" />
      <stop
         style="stop-color:#f0f0f0;stop-opacity:1"
         offset="1"
         id="stop841" />
    </linearGradient>
    <clipPath
       id="clipPath4">
      <rect
         width="384"
         height="384"
         id="rect2"
         x="0"
         y="0" />
    </clipPath>
    <linearGradient
       inkscape:collect="always"
       xlink:href="#linearGradient843"
       id="linearGradient845"
       x1="46.721355"
       y1="37.870853"
       x2="347.0871"
       y2="347.02341"
       gradientUnits="userSpaceOnUse"
       gradientTransform="matrix(0.08822118,0,0,0.08822118,0.91596914,1.1656358)" />
    <linearGradient
       inkscape:collect="always"
       xlink:href="#linearGradient890"
       id="linearGradient892"
       x1="-0.16400324"
       y1="49.887299"
       x2="48.020184"
       y2="0.4137941"
       gradientUnits="userSpaceOnUse"
       gradientTransform="matrix(0,-0.71428571,0.71428571,0,0.85714288,35.142857)" />
    <filter
       inkscape:collect="always"
       style="color-interpolation-filters:sRGB"
       id="filter950"
       x="-0.048"
       width="1.096"
       y="-0.048"
       height="1.096">
      <feGaussianBlur
         inkscape:collect="always"
         stdDeviation="0.73540244"
         id="feGaussianBlur952" />
    </filter>
    <linearGradient
       inkscape:collect="always"
       xlink:href="#linearGradient958"
       id="linearGradient960"
       x1="3.8499732"
       y1="23.999998"
       x2="44.150024"
       y2="23.999998"
       gradientUnits="userSpaceOnUse" />
    <filter
       inkscape:collect="always"
       style="color-interpolation-filters:sRGB"
       id="filter986"
       x="-0.051748704"
       width="1.1034974"
       y="-0.044757728"
       height="1.0895154">
      <feGaussianBlur
         inkscape:collect="always"
         stdDeviation="0.47806193"
         id="feGaussianBlur988" />
    </filter>
  </defs>
  <path
     d="M 18,3 C 26.284354,3 33,9.7156443 33,18 33,26.284 26.284355,33 18,33 9.7159993,33 2.9999999,26.284356 2.9999999,18 2.9999999,9.7156443 9.7156435,3 18,3 Z"
     style="fill:url(#linearGradient892);fill-opacity:1;fill-rule:evenodd;stroke-width:0.08888889"
     id="path10"
     inkscape:connector-curvature="0" />
  <path
     d="M 31.392857,18 C 31.392857,25.396816 25.396552,31.392857 18,31.392857 10.603184,31.392857 4.6071428,25.396552 4.6071428,18 4.6071428,10.603448 10.603449,4.6071429 18,4.6071429 25.396552,4.6071429 31.392857,10.603448 31.392857,18"
     style="fill:url(#linearGradient845);fill-opacity:1;fill-rule:evenodd;stroke-width:0.08822118"
     id="path12"
     inkscape:connector-curvature="0" />
  <path
     d="m 34.490667,0.940621 c -0.258646,0 -0.517839,0.09947 -0.715307,0.29695 l -9.97136,9.97136 -7.47e-4,-7.47e-4 V 11.20806 L 14.882827,3.326993 c -0.386338,-0.341264 -0.977561,-0.305262 -1.318863,0.08167 -0.341799,0.386313 -0.305088,0.976988 0.08167,1.318738 l 8.919929,7.880818 c 0.181614,0.160769 0.409472,0.226239 0.634007,0.222394 0.04561,0.08597 0.0948,0.171285 0.167341,0.244271 l 0.03263,0.03263 h 0.01677 c 0.396791,0.352539 1.00067,0.347923 1.380836,-0.03227 L 35.205428,2.667086 c 0.394539,-0.394538 0.394539,-1.035004 0,-1.429493 C 35.007947,1.040112 34.748879,0.940644 34.490669,0.940644 Z M 23.535822,13.961244 c -0.134686,0.0081 -0.261769,0.0841 -0.332864,0.214741 L 16.832025,25.90923 c -0.11375,0.209029 -0.04138,0.47931 0.16133,0.603754 0.202707,0.12493 0.459374,0.0559 0.573129,-0.153128 l 6.371057,-11.733245 c 0.11375,-0.20903 0.0412,-0.47931 -0.161504,-0.603755 -0.07602,-0.04685 -0.15945,-0.06647 -0.240265,-0.06162 z"
     dominant-baseline="auto"
     style="color:#000000;font-variant-ligatures:normal;font-variant-position:normal;font-variant-caps:normal;font-variant-numeric:normal;font-variant-alternates:normal;font-feature-settings:normal;text-indent:0;text-decoration:none;text-decoration-line:none;text-decoration-style:solid;text-decoration-color:#000000;text-transform:none;text-orientation:mixed;dominant-baseline:auto;white-space:normal;shape-padding:0;opacity:0.3;isolation:auto;mix-blend-mode:normal;solid-color:#000000;stroke-width:0.12444445;filter:url(#filter986);color-rendering:auto;image-rendering:auto;shape-rendering:auto"
     id="path16"
     inkscape:connector-curvature="0"
     transform="matrix(0.71428571,0,0,0.71428571,0.85714288,9.4285715)" />
  <path
     d="m 25.501333,9.5166215 c -0.164587,0 -0.328817,0.06285 -0.454862,0.1888893 l -7.178845,7.1788442 c -0.01632,-0.01875 -0.03368,-0.03681 -0.05278,-0.05382 l -6.371554,-5.629156 c -0.244098,-0.215627 -0.614588,-0.193058 -0.830205,0.05139 -0.215973,0.244097 -0.193058,0.61424 0.05139,0.830204 l 6.371555,5.629156 c 0.127085,0.112497 0.288543,0.159724 0.444445,0.144791 0.03125,0.06944 0.07465,0.134719 0.1316,0.192018 h 3.55e-4 c 0.251734,0.251732 0.65729,0.251732 0.909068,0 l 7.434399,-7.434401 c 0.251733,-0.251733 0.251733,-0.6572884 0,-0.9090662 C 25.829858,9.5794215 25.665628,9.5165772 25.501388,9.5165772 Z"
     id="path18"
     style="fill:#323232;fill-opacity:1;stroke:none;stroke-width:0.1584"
     inkscape:connector-curvature="0" />
  <path
     d="m 12.888,27.271999 4.550666,-8.380888 c 0.08125,-0.149307 0.264588,-0.198613 0.409378,-0.109378 0.144792,0.08889 0.196525,0.281947 0.11528,0.431253 l -4.550666,8.380889 c -0.08125,0.149306 -0.264587,0.198613 -0.409378,0.109378 -0.144791,-0.08889 -0.196524,-0.281947 -0.11528,-0.431254 z"
     id="path22"
     inkscape:connector-curvature="0"
     style="fill:#fd4747;stroke:none;stroke-width:0.08888889" />
  <path
     d="m 19.434666,18.29511 c -3.55e-4,0.710419 -0.57639,1.28649 -1.286844,1.28649 -0.710764,0 -1.286844,-0.576046 -1.286844,-1.28649 -3.56e-4,-0.710764 0.576044,-1.287111 1.286844,-1.287111 0.710764,0 1.287112,0.576392 1.286844,1.287111"
     style="opacity:0.3;fill:#030000;stroke-width:0.08888889"
     id="path24"
     inkscape:connector-curvature="0" />
  <path
     d="m 19.434666,17.895111 c -3.55e-4,0.710418 -0.57639,1.286489 -1.286844,1.286489 -0.710764,0 -1.286844,-0.576045 -1.286844,-1.286489 -3.56e-4,-0.710765 0.576044,-1.287112 1.286844,-1.287112 0.710764,0 1.287112,0.576392 1.286844,1.287112"
     style="fill:#ffffff;stroke:none;stroke-width:0.08888889"
     id="path26"
     inkscape:connector-curvature="0" />
  <path
     d="M 42.385061,24 C 42.385061,34.153988 34.153627,42.385061 24,42.385061 13.846011,42.385061 5.614939,34.153627 5.614939,24 5.614939,13.846374 13.846375,5.614939 24,5.614939 34.153627,5.614939 42.385061,13.846374 42.385061,24"
     style="opacity:0.5;fill:none;fill-opacity:1;fill-rule:evenodd;stroke:url(#linearGradient960);stroke-width:0.72974998;stroke-miterlimit:4;stroke-dasharray:none;stroke-opacity:1;filter:url(#filter950)"
     id="path12-7"
     inkscape:connector-curvature="0"
     transform="matrix(0,0.71428571,-0.71428571,0,35.142857,0.85714293)" />
</svg>
