<?xml version="1.0" encoding="UTF-8" standalone="no"?>
<svg
   xmlns:dc="http://purl.org/dc/elements/1.1/"
   xmlns:cc="http://creativecommons.org/ns#"
   xmlns:rdf="http://www.w3.org/1999/02/22-rdf-syntax-ns#"
   xmlns:svg="http://www.w3.org/2000/svg"
   xmlns="http://www.w3.org/2000/svg"
   xmlns:sodipodi="http://sodipodi.sourceforge.net/DTD/sodipodi-0.dtd"
   xmlns:inkscape="http://www.inkscape.org/namespaces/inkscape"
   width="48"
   height="48"
   version="1"
   id="svg1382"
   sodipodi:docname="preferences-system-notifications.svg"
   inkscape:version="0.92.3 (2405546, 2018-03-11)">
  <metadata
     id="metadata1388">
    <rdf:RDF>
      <cc:Work
         rdf:about="">
        <dc:format>image/svg+xml</dc:format>
        <dc:type
           rdf:resource="http://purl.org/dc/dcmitype/StillImage" />
      </cc:Work>
    </rdf:RDF>
  </metadata>
  <defs
     id="defs1386" />
  <sodipodi:namedview
     pagecolor="#ffffff"
     bordercolor="#666666"
     borderopacity="1"
     objecttolerance="10"
     gridtolerance="10"
     guidetolerance="10"
     inkscape:pageopacity="0"
     inkscape:pageshadow="2"
     inkscape:window-width="1366"
     inkscape:window-height="704"
     id="namedview1384"
     showgrid="false"
     inkscape:zoom="4.9166667"
     inkscape:cx="2.5423729"
     inkscape:cy="24"
     inkscape:window-x="0"
     inkscape:window-y="30"
     inkscape:window-maximized="1"
     inkscape:current-layer="svg1382" />
  <path
     fill="#4f4f4f"
     d="m10 11c-1.108 0-2 0.892-2 2v24c0 1.108 0.892 2 2 2h18l4 4 4-4h6c1.108 0 2-0.892 2-2v-24c0-1.108-0.892-2-2-2z"
     id="path1370"
     style="fill:#f0f0f0;fill-opacity:1" />
  <path
     fill="#fff"
     opacity=".1"
     d="m10 11c-1.108 0-2 0.892-2 2v1c0-1.108 0.892-2 2-2h32c1.108 0 2 0.892 2 2v-1c0-1.108-0.892-2-2-2h-32z"
     id="path1372" />
  <circle
     opacity=".2"
     cx="16"
     cy="18"
     r="12"
     id="circle1374" />
  <circle
     fill="#4daaf5"
     cx="16"
     cy="17"
     r="12"
     id="circle1376"
     style="fill:#f54d4d;fill-opacity:1" />
  <path
     fill="#fff"
     d="m15 10v10h2v-10h-2zm0 12v2h2v-2h-2z"
     id="path1378" />
  <path
     opacity=".2"
     d="m8 37v1c0 1.108 0.892 2 2 2h18l4 4 4-4h6c1.108 0 2-0.892 2-2v-1c0 1.108-0.892 2-2 2h-6l-4 4-4-4h-18c-1.108 0-2-0.892-2-2z"
     id="path1380" />
</svg>
