<?xml version="1.0" encoding="UTF-8" standalone="no"?>
<svg
   xmlns:dc="http://purl.org/dc/elements/1.1/"
   xmlns:cc="http://creativecommons.org/ns#"
   xmlns:rdf="http://www.w3.org/1999/02/22-rdf-syntax-ns#"
   xmlns:svg="http://www.w3.org/2000/svg"
   xmlns="http://www.w3.org/2000/svg"
   xmlns:xlink="http://www.w3.org/1999/xlink"
   xmlns:sodipodi="http://sodipodi.sourceforge.net/DTD/sodipodi-0.dtd"
   xmlns:inkscape="http://www.inkscape.org/namespaces/inkscape"
   width="48"
   height="48"
   version="1.1"
   viewBox="0 0 36 36"
   id="svg22"
   sodipodi:docname="preferences-system-windows-move.svg"
   inkscape:version="0.92.4 5da689c313, 2019-01-14">
  <metadata
     id="metadata28">
    <rdf:RDF>
      <cc:Work
         rdf:about="">
        <dc:format>image/svg+xml</dc:format>
        <dc:type
           rdf:resource="http://purl.org/dc/dcmitype/StillImage" />
        <dc:title />
      </cc:Work>
    </rdf:RDF>
  </metadata>
  <defs
     id="defs26">
    <linearGradient
       inkscape:collect="always"
       id="linearGradient944">
      <stop
         style="stop-color:#404040;stop-opacity:1"
         offset="0"
         id="stop940" />
      <stop
         style="stop-color:#222222;stop-opacity:1"
         offset="1"
         id="stop942" />
    </linearGradient>
    <linearGradient
       id="linearGradient938"
       inkscape:collect="always">
      <stop
         id="stop934"
         offset="0"
         style="stop-color:#ffffff;stop-opacity:1" />
      <stop
         id="stop936"
         offset="1"
         style="stop-color:#ffffff;stop-opacity:0" />
    </linearGradient>
    <linearGradient
       gradientTransform="matrix(0.08510639,0,0,0.08510639,1.659575,-382.34042)"
       inkscape:collect="always"
       xlink:href="#linearGradient938"
       id="linearGradient908-0"
       x1="188.07402"
       y1="362.47107"
       x2="188.51419"
       y2="265.19138"
       gradientUnits="userSpaceOnUse" />
    <linearGradient
       inkscape:collect="always"
       xlink:href="#linearGradient944"
       id="linearGradient946"
       x1="191.77992"
       y1="8.5582952"
       x2="186.66124"
       y2="388.41232"
       gradientUnits="userSpaceOnUse"
       gradientTransform="matrix(0.08510639,0,0,0.08510639,1.6595743,349.65957)" />
  </defs>
  <sodipodi:namedview
     pagecolor="#ffffff"
     bordercolor="#666666"
     borderopacity="1"
     objecttolerance="10"
     gridtolerance="10"
     guidetolerance="10"
     inkscape:pageopacity="0"
     inkscape:pageshadow="2"
     inkscape:window-width="1366"
     inkscape:window-height="691"
     id="namedview24"
     showgrid="false"
     inkscape:zoom="10.791667"
     inkscape:cx="24"
     inkscape:cy="24"
     inkscape:window-x="0"
     inkscape:window-y="0"
     inkscape:window-maximized="1"
     inkscape:current-layer="g20" />
  <g
     id="g20"
     style="fill-rule:evenodd"
     transform="translate(0,-348)">
    <circle
       style="opacity:0.2;fill:#000000;fill-opacity:1;fill-rule:evenodd;stroke:none;stroke-width:0.08434346;stroke-miterlimit:4;stroke-dasharray:none;stroke-opacity:0.58823529;paint-order:stroke fill markers"
       id="path821-8"
       cx="18"
       cy="366.75"
       r="15" />
    <circle
       style="opacity:1;fill:url(#linearGradient946);fill-opacity:1;stroke:none;stroke-width:0.08434346;stroke-miterlimit:4;stroke-dasharray:none;stroke-opacity:0.58823529;paint-order:stroke fill markers"
       id="path821"
       cx="18"
       cy="366"
       r="15" />
    <path
       d="M 9.6409821,361.51276 H 26.240746 c 0.671217,0 1.215449,0.36074 1.215449,0.80564 v 7.9632 c 0,0.4449 -0.544232,0.80564 -1.215449,0.80564 H 9.6409821 c -0.6712185,0 -1.2154507,-0.36074 -1.2154507,-0.80564 v -7.9632 c 0,-0.4449 0.5442322,-0.80564 1.2154507,-0.80564 z"
       id="path12-1-4"
       inkscape:connector-curvature="0"
       style="fill:#000000;fill-opacity:0.19607843;stroke-width:0.0969481" />
    <path
       d="M 9.6447586,361.21276 H 26.296106 c 0.673303,0 1.219225,0.36074 1.219225,0.80564 v 7.9632 c 0,0.4449 -0.545922,0.80564 -1.219225,0.80564 H 9.6447586 c -0.6733029,0 -1.2192265,-0.36074 -1.2192265,-0.80564 v -7.9632 c 0,-0.4449 0.5459236,-0.80564 1.2192265,-0.80564 z"
       id="path12-1"
       inkscape:connector-curvature="0"
       style="fill:#969696;fill-opacity:1;stroke-width:0.09709862" />
    <path
       d="M 11.996058,360.00465 H 23.96649 c 0.484029,0 0.876485,0.50962 0.876485,1.13815 v 11.24998 c 0,0.62853 -0.392456,1.13815 -0.876485,1.13815 H 11.996058 c -0.484029,0 -0.876486,-0.50962 -0.876486,-1.13815 V 361.1428 c 0,-0.62853 0.392457,-1.13815 0.876486,-1.13815 z"
       id="path12-9"
       inkscape:connector-curvature="0"
       style="fill:#000000;fill-opacity:0.19607843;stroke-width:0.09785324" />
    <path
       d="m 12.014784,359.25657 h 11.970432 c 0.484029,0 0.876486,0.50962 0.876486,1.13816 v 11.24997 c 0,0.62853 -0.392457,1.13816 -0.876486,1.13816 H 12.014784 c -0.484029,0 -0.876486,-0.50963 -0.876486,-1.13816 v -11.24997 c 0,-0.62854 0.392457,-1.13816 0.876486,-1.13816 z"
       id="path12"
       inkscape:connector-curvature="0"
       style="fill:#ffffff;stroke-width:0.09785324" />
    <circle
       style="opacity:0.4;fill:none;fill-opacity:1;stroke:url(#linearGradient908-0);stroke-width:0.62499994;stroke-miterlimit:4;stroke-dasharray:none;stroke-opacity:1;paint-order:stroke fill markers"
       id="path821-3-5"
       cx="18"
       cy="-366"
       r="14.6875"
       transform="scale(1,-1)" />
  </g>
</svg>
