<?xml version="1.0" encoding="UTF-8" standalone="no"?>
<svg
   xmlns:dc="http://purl.org/dc/elements/1.1/"
   xmlns:cc="http://creativecommons.org/ns#"
   xmlns:rdf="http://www.w3.org/1999/02/22-rdf-syntax-ns#"
   xmlns:svg="http://www.w3.org/2000/svg"
   xmlns="http://www.w3.org/2000/svg"
   xmlns:xlink="http://www.w3.org/1999/xlink"
   xmlns:sodipodi="http://sodipodi.sourceforge.net/DTD/sodipodi-0.dtd"
   xmlns:inkscape="http://www.inkscape.org/namespaces/inkscape"
   width="48"
   height="48"
   version="1.1"
   viewBox="0 0 36 36"
   id="svg27"
   sodipodi:docname="preferences-system-login.svg"
   inkscape:version="0.92.4 5da689c313, 2019-01-14">
  <metadata
     id="metadata31">
    <rdf:RDF>
      <cc:Work
         rdf:about="">
        <dc:format>image/svg+xml</dc:format>
        <dc:type
           rdf:resource="http://purl.org/dc/dcmitype/StillImage" />
        <dc:title />
      </cc:Work>
    </rdf:RDF>
  </metadata>
  <sodipodi:namedview
     pagecolor="#ffffff"
     bordercolor="#666666"
     borderopacity="1"
     objecttolerance="10"
     gridtolerance="10"
     guidetolerance="10"
     inkscape:pageopacity="0"
     inkscape:pageshadow="2"
     inkscape:window-width="1366"
     inkscape:window-height="691"
     id="namedview29"
     showgrid="false"
     inkscape:zoom="10.791667"
     inkscape:cx="24"
     inkscape:cy="24"
     inkscape:window-x="0"
     inkscape:window-y="0"
     inkscape:window-maximized="1"
     inkscape:current-layer="svg27" />
  <defs
     id="defs15">
    <linearGradient
       inkscape:collect="always"
       id="linearGradient4499">
      <stop
         style="stop-color:#fa006f;stop-opacity:1"
         offset="0"
         id="stop4495" />
      <stop
         style="stop-color:#ffff00;stop-opacity:1"
         offset="1"
         id="stop4497" />
    </linearGradient>
    <clipPath
       id="clipPath4">
      <rect
         width="384"
         height="384"
         id="rect2"
         x="0"
         y="0" />
    </clipPath>
    <clipPath
       id="clipPath8">
      <rect
         width="384"
         height="384"
         id="rect6"
         x="0"
         y="0" />
    </clipPath>
    <linearGradient
       id="a"
       x1="105.51208"
       x2="456.32745"
       y1="330.3624"
       y2="-70.879669"
       gradientUnits="userSpaceOnUse">
      <stop
         stop-color="#e5e5e5"
         offset="0"
         id="stop10"
         style="stop-color:#fa006f;stop-opacity:1" />
      <stop
         stop-color="#fff"
         offset="1"
         id="stop12"
         style="stop-color:#ffff00;stop-opacity:1" />
    </linearGradient>
    <linearGradient
       inkscape:collect="always"
       xlink:href="#linearGradient4499"
       id="linearGradient4509"
       x1="27.254238"
       y1="356.33899"
       x2="560.13556"
       y2="-162.71187"
       gradientUnits="userSpaceOnUse"
       gradientTransform="matrix(0.08928571,0,0,0.08928571,0.85698275,0.85714288)" />
  </defs>
  <path
     d="M 33,18.750003 C 33,10.465628 26.284376,3.750002 18.000001,3.750002 9.715626,3.750002 3,10.465628 3,18.750003 3,27.034376 9.715626,33.75 18.000001,33.75 26.28438,33.75 32.999996,27.034376 33,18.750003 Z"
     id="path17-0"
     style="opacity:0.2;fill:#000000;fill-opacity:1;fill-rule:evenodd;stroke-width:0.08928572"
     inkscape:connector-curvature="0" />
  <path
     d="m 32.99984,18 c 0,-8.284375 -6.715625,-15 -15,-15 C 9.7154649,3 2.9998399,9.715625 2.9998399,18 c 0,8.284375 6.715625,15 15.0000001,15 8.284375,0 15,-6.715625 15,-15 z"
     id="path17"
     style="fill:url(#linearGradient4509);fill-opacity:1;fill-rule:evenodd;stroke-width:0.08928572"
     inkscape:connector-curvature="0" />
  <path
     d="m 26.570376,10.099107 c 0,0 -2.570804,-0.0722 -5.139822,1.21375 -0.785437,0.356795 -1.642053,0.927768 -2.355982,1.641697 -1.154107,1.154464 -2.9475,3.279464 -4.359643,4.997232 h -3.135803 l -1.427857,2.141428 2.421518,0.654643 c 0.007,0.0865 0.02999,0.208563 0.09695,0.373536 l -0.375973,0.827286 c 0,0 -0.143,0.285642 0.927768,1.427857 1.142232,1.142946 1.499375,0.999196 1.499375,0.999196 l 0.887277,-0.402482 c 0.132883,0.0415 0.231232,0.05546 0.29541,0.05546 l 0.673134,2.488839 2.141786,-1.427857 V 21.85799 c 1.729553,-1.398571 3.852232,-3.156071 4.997232,-4.26375 0.713589,-0.713937 1.284911,-1.570536 1.7125,-2.355982 1.212678,-2.569018 1.142232,-5.139197 1.142232,-5.139197 z m -4.997232,6.424732 c -0.785786,0 -1.427857,-0.642438 -1.427857,-1.4275 0,-0.786134 0.642089,-1.427857 1.427857,-1.427857 0.785438,0 1.427857,0.641741 1.427857,1.427857 0,0.78509 -0.643134,1.4275 -1.427857,1.4275 z m -7.495447,8.566518 c 0.142643,0.0722 0.214143,0.142643 0.356795,0.214143 -0.142643,0.143 -0.285643,0.357143 -0.428991,0.499786 -1.642679,1.642053 -4.5682146,1.427857 -4.5682146,1.427857 0,0 -0.2141429,-2.927589 1.4278576,-4.568214 0.142643,-0.143349 0.356795,-0.284947 0.499785,-0.428991 0.07115,0.142643 0.141947,0.214142 0.214143,0.356794 -1.070714,1.355714 -0.928125,3.426697 -0.928125,3.426697 0,0 2.069643,0.142642 3.426697,-0.928125 z"
     id="path19"
     inkscape:connector-curvature="0"
     style="opacity:0.3;stroke-width:0.08928572" />
  <path
     d="m 26.570376,9.4291964 c 0,0 -2.570804,-0.072196 -5.139822,1.2137496 -0.785437,0.356795 -1.642053,0.927768 -2.355982,1.641697 -1.154107,1.154464 -2.9475,3.279464 -4.359643,4.997232 h -3.135803 l -1.427857,2.141429 2.421518,0.654642 c 0.007,0.0865 0.02999,0.208563 0.09695,0.373536 l -0.375973,0.827286 c 0,0 -0.143,0.285643 0.927768,1.427857 1.142232,1.142946 1.499375,0.999196 1.499375,0.999196 l 0.887277,-0.402482 c 0.132883,0.0415 0.231232,0.05546 0.29541,0.05546 l 0.673134,2.48884 2.141786,-1.427857 v -3.2317 c 1.729553,-1.398571 3.852232,-3.156071 4.997232,-4.26375 0.713589,-0.713937 1.284911,-1.570535 1.7125,-2.355982 1.212678,-2.569018 1.142232,-5.1391963 1.142232,-5.1391963 z m -4.997232,6.4247326 c -0.785786,0 -1.427857,-0.642438 -1.427857,-1.4275 0,-0.786135 0.642089,-1.427858 1.427857,-1.427858 0.785438,0 1.427857,0.641741 1.427857,1.427858 0,0.785089 -0.643134,1.4275 -1.427857,1.4275 z m -7.495447,8.566517 c 0.142643,0.0722 0.214143,0.142643 0.356795,0.214143 -0.142643,0.143 -0.285643,0.357143 -0.428991,0.499786 -1.642679,1.642054 -4.5682146,1.427857 -4.5682146,1.427857 0,0 -0.2141429,-2.927589 1.4278576,-4.568214 0.142652,-0.143349 0.356795,-0.284947 0.499795,-0.428992 0.07115,0.142653 0.141946,0.214144 0.214143,0.356795 -1.070715,1.355715 -0.928125,3.426697 -0.928125,3.426697 0,0 2.069642,0.142651 3.426696,-0.928125 z"
     id="path21"
     style="fill:#ffffff;fill-opacity:1;stroke-width:0.08928572"
     inkscape:connector-curvature="0" />
  <path
     d="M 17.99984,3 C 9.7156885,3 2.9998399,9.7158486 2.9998399,18 c 0,0.111951 0.00171,0.223453 0.00421,0.334821 0.1781293,-8.129464 6.823665,-14.6651781 14.9959861,-14.6651781 8.172323,0 14.817858,6.5355131 14.995982,14.6651781 0.0024,-0.111368 0.0042,-0.22287 0.0042,-0.334821 0,-8.2841514 -6.715848,-15 -15,-15 z"
     id="path25"
     inkscape:connector-curvature="0"
     style="opacity:0.4;fill:#ffffff;stroke-width:0.08928348" />
</svg>
