<?xml version="1.0" encoding="UTF-8" standalone="no"?>
<svg
   xmlns:dc="http://purl.org/dc/elements/1.1/"
   xmlns:cc="http://creativecommons.org/ns#"
   xmlns:rdf="http://www.w3.org/1999/02/22-rdf-syntax-ns#"
   xmlns:svg="http://www.w3.org/2000/svg"
   xmlns="http://www.w3.org/2000/svg"
   xmlns:xlink="http://www.w3.org/1999/xlink"
   xmlns:sodipodi="http://sodipodi.sourceforge.net/DTD/sodipodi-0.dtd"
   xmlns:inkscape="http://www.inkscape.org/namespaces/inkscape"
   width="48"
   height="48"
   version="1.1"
   viewBox="0 0 36 36"
   id="svg44"
   sodipodi:docname="spotify-client.svg"
   inkscape:version="0.92.4 5da689c313, 2019-01-14">
  <metadata
     id="metadata48">
    <rdf:RDF>
      <cc:Work
         rdf:about="">
        <dc:format>image/svg+xml</dc:format>
        <dc:type
           rdf:resource="http://purl.org/dc/dcmitype/StillImage" />
        <dc:title />
      </cc:Work>
    </rdf:RDF>
  </metadata>
  <sodipodi:namedview
     pagecolor="#ffffff"
     bordercolor="#666666"
     borderopacity="1"
     objecttolerance="10"
     gridtolerance="10"
     guidetolerance="10"
     inkscape:pageopacity="0"
     inkscape:pageshadow="2"
     inkscape:window-width="1366"
     inkscape:window-height="691"
     id="namedview46"
     showgrid="false"
     inkscape:zoom="10.791667"
     inkscape:cx="24"
     inkscape:cy="24"
     inkscape:window-x="0"
     inkscape:window-y="0"
     inkscape:window-maximized="1"
     inkscape:current-layer="svg44" />
  <defs
     id="defs30">
    <linearGradient
       inkscape:collect="always"
       id="linearGradient1498">
      <stop
         style="stop-color:#ffffff;stop-opacity:1;"
         offset="0"
         id="stop1494" />
      <stop
         style="stop-color:#ffffff;stop-opacity:0;"
         offset="1"
         id="stop1496" />
    </linearGradient>
    <clipPath
       id="f">
      <path
         d="m 111,119 h 177 v 23 H 111 Z"
         id="path2"
         inkscape:connector-curvature="0" />
    </clipPath>
    <clipPath
       id="d">
      <path
         d="m 177,130 h 45 v 89 h -45 z"
         id="path5"
         inkscape:connector-curvature="0" />
    </clipPath>
    <clipPath
       id="b">
      <path
         d="m 111,207 h 177 v 89 H 111 Z"
         id="path8"
         inkscape:connector-curvature="0" />
    </clipPath>
    <clipPath
       id="h">
      <rect
         width="384"
         height="384"
         id="rect11"
         x="0"
         y="0" />
    </clipPath>
    <g
       clip-path="url(#h)"
       id="g14" />
    <clipPath
       id="e">
      <path
         d="m 111,119 h 177 v 23 H 111 Z"
         id="path16"
         inkscape:connector-curvature="0" />
    </clipPath>
    <clipPath
       id="c">
      <path
         d="m 177,130 h 45 v 89 h -45 z"
         id="path19"
         inkscape:connector-curvature="0" />
    </clipPath>
    <clipPath
       id="a">
      <path
         d="m 111,207 h 177 v 89 H 111 Z"
         id="path22"
         inkscape:connector-curvature="0" />
    </clipPath>
    <clipPath
       id="g">
      <rect
         width="384"
         height="384"
         id="rect25"
         x="0"
         y="0" />
    </clipPath>
    <g
       clip-path="url(#g)"
       id="g28" />
    <linearGradient
       inkscape:collect="always"
       xlink:href="#linearGradient1498"
       id="linearGradient1500"
       x1="192.80475"
       y1="25.220339"
       x2="184.6868"
       y2="115.52542"
       gradientUnits="userSpaceOnUse"
       gradientTransform="matrix(0.08510639,0,0,0.08510639,1.659575,1.6595736)" />
  </defs>
  <path
     inkscape:connector-curvature="0"
     style="opacity:0.2;fill:#000000;fill-opacity:1;stroke-width:0.17912054"
     d="M 17.999911,3.7500017 C 9.7158639,3.7500017 3.0000002,10.465848 3.0000002,18.750091 3.0000002,27.034693 9.7158639,33.75 17.999911,33.75 26.284854,33.75 33,27.034693 33,18.750091 33,10.466386 26.284854,3.7507197 17.999733,3.7507197 Z m 6.878863,21.6344333 c -0.268678,0.440642 -0.845438,0.580358 -1.286071,0.309882 -3.521826,-2.151262 -7.955364,-2.638474 -13.176663,-1.44552 -0.5031441,0.11464 -1.0046761,-0.200618 -1.1193121,-0.703952 -0.1151801,-0.503334 0.19882,-1.004876 0.703218,-1.119516 5.7138771,-1.305982 10.6150931,-0.74336 14.5689541,1.673006 0.44063,0.270474 0.580344,0.845456 0.309874,1.2861 z m 1.835962,-4.084892 c -0.338532,0.550804 -1.058588,0.724552 -1.608482,0.38601 -4.031955,-2.478878 -10.178045,-3.19662 -14.947072,-1.748954 -0.6184962,0.18682 -1.2717401,-0.16174 -1.4594561,-0.779184 -0.18628,-0.618508 0.16246,-1.270514 0.779882,-1.458592 5.4475271,-1.652947 12.2198151,-0.852268 16.8500241,1.993094 0.549892,0.338544 0.72364,1.058618 0.385104,1.607806 z m 0.15762,-4.253086 C 22.037949,14.17494 14.061809,13.910914 9.4461059,15.311832 c -0.741192,0.2248 -1.525013,-0.19362 -1.749628,-0.93484 -0.2246141,-0.741568 0.193448,-1.524872 0.935178,-1.750208 5.2985011,-1.608522 14.1066471,-1.297744 19.6725701,2.006532 0.668112,0.395682 0.886636,1.256724 0.490786,1.922523 -0.39406,0.666696 -1.257412,0.886478 -1.921942,0.490618 z"
     id="path913-7" />
  <circle
     style="opacity:1;fill:#1b1b1b;fill-opacity:1;fill-rule:evenodd;stroke:none;stroke-width:0.7198208;stroke-linejoin:round;stroke-miterlimit:4;stroke-dasharray:none;stroke-opacity:1;paint-order:normal"
     id="path1481"
     cx="18.000002"
     cy="18"
     r="12.12766" />
  <path
     inkscape:connector-curvature="0"
     style="fill:#1ed760;stroke-width:0.17912051"
     d="M 17.99991,3.0000001 C 9.7158643,3.0000001 3,9.715845 3,18.000089 3,26.284691 9.7158643,33 17.99991,33 26.284852,33 33,26.284691 33,18.000089 33,9.7163829 26.284852,3.0007167 17.999731,3.0007167 Z m 6.878862,21.6344339 c -0.268678,0.440642 -0.845438,0.580357 -1.28607,0.309882 C 20.070876,22.793054 15.637339,22.30584 10.416039,23.498796 9.912895,23.613435 9.4113629,23.298179 9.2967271,22.794844 9.1815543,22.29151 9.4955486,21.789967 9.9999464,21.675328 15.713822,20.369345 20.615039,20.931969 24.568898,23.348334 c 0.440631,0.270475 0.580343,0.845458 0.309874,1.2861 z m 1.835963,-4.084892 c -0.338534,0.550802 -1.058589,0.724551 -1.608482,0.386009 C 21.074298,18.456674 14.928209,17.738929 10.159182,19.186598 9.5406864,19.373423 8.8874421,19.02485 8.6997257,18.407414 8.5134429,17.788904 8.8621864,17.136897 9.4796071,16.948818 14.927134,15.295874 21.699421,16.096552 26.329631,18.941916 c 0.549893,0.338542 0.723639,1.058615 0.385104,1.607805 z M 26.87236,16.296454 C 22.037955,13.424938 14.061814,13.160911 9.4461121,14.56183 8.70492,14.786629 7.9210986,14.368199 7.6964836,13.626989 7.4718693,12.885421 7.8899314,12.102118 8.6316607,11.876781 13.930162,10.268259 22.738307,10.579038 28.304232,13.883314 c 0.668112,0.395681 0.886636,1.256724 0.490784,1.922522 -0.39406,0.666695 -1.257411,0.886479 -1.92194,0.490618 z"
     id="path913" />
  <circle
     style="opacity:0.4;fill:none;fill-opacity:1;fill-rule:evenodd;stroke:url(#linearGradient1500);stroke-width:0.63829786;stroke-linejoin:round;stroke-miterlimit:4;stroke-dasharray:none;stroke-opacity:1;paint-order:normal"
     id="path1492"
     cx="18.000002"
     cy="18"
     r="14.637244" />
</svg>
