<?xml version="1.0" encoding="UTF-8" standalone="no"?>
<svg
   xmlns:dc="http://purl.org/dc/elements/1.1/"
   xmlns:cc="http://creativecommons.org/ns#"
   xmlns:rdf="http://www.w3.org/1999/02/22-rdf-syntax-ns#"
   xmlns:svg="http://www.w3.org/2000/svg"
   xmlns="http://www.w3.org/2000/svg"
   xmlns:xlink="http://www.w3.org/1999/xlink"
   xmlns:sodipodi="http://sodipodi.sourceforge.net/DTD/sodipodi-0.dtd"
   xmlns:inkscape="http://www.inkscape.org/namespaces/inkscape"
   width="48"
   height="48"
   version="1"
   id="svg24"
   sodipodi:docname="twitter.svg"
   inkscape:version="0.92.4 5da689c313, 2019-01-14">
  <metadata
     id="metadata30">
    <rdf:RDF>
      <cc:Work
         rdf:about="">
        <dc:format>image/svg+xml</dc:format>
        <dc:type
           rdf:resource="http://purl.org/dc/dcmitype/StillImage" />
        <dc:title></dc:title>
      </cc:Work>
    </rdf:RDF>
  </metadata>
  <defs
     id="defs28">
    <linearGradient
       inkscape:collect="always"
       id="linearGradient888">
      <stop
         style="stop-color:#ffffff;stop-opacity:1"
         offset="0"
         id="stop884" />
      <stop
         style="stop-color:#ffffff;stop-opacity:0"
         offset="1"
         id="stop886" />
    </linearGradient>
    <linearGradient
       inkscape:collect="always"
       id="linearGradient845">
      <stop
         style="stop-color:#0079f1;stop-opacity:1"
         offset="0"
         id="stop841" />
      <stop
         style="stop-color:#00c3f1;stop-opacity:1"
         offset="1"
         id="stop843" />
    </linearGradient>
    <linearGradient
       inkscape:collect="always"
       xlink:href="#linearGradient845"
       id="linearGradient847"
       x1="4"
       y1="51.019531"
       x2="52.337891"
       y2="14.927734"
       gradientUnits="userSpaceOnUse"
       gradientTransform="matrix(0.71428418,0,0,0.72340334,1.1440302,0.48936952)" />
    <linearGradient
       inkscape:collect="always"
       xlink:href="#linearGradient888"
       id="linearGradient890"
       x1="56.021866"
       y1="9.7434835"
       x2="60.00246"
       y2="16.336468"
       gradientUnits="userSpaceOnUse"
       gradientTransform="matrix(0.69086981,0,0,0.70810156,-8.1021363,0.45259603)" />
  </defs>
  <sodipodi:namedview
     pagecolor="#ffffff"
     bordercolor="#666666"
     borderopacity="1"
     objecttolerance="10"
     gridtolerance="10"
     guidetolerance="10"
     inkscape:pageopacity="0"
     inkscape:pageshadow="2"
     inkscape:window-width="1366"
     inkscape:window-height="691"
     id="namedview26"
     showgrid="false"
     inkscape:zoom="14.19923"
     inkscape:cx="24"
     inkscape:cy="24"
     inkscape:window-x="0"
     inkscape:window-y="0"
     inkscape:window-maximized="1"
     inkscape:current-layer="svg24" />
  <path
     inkscape:connector-curvature="0"
     style="opacity:0.2;fill:#000000;fill-opacity:1;stroke-width:0.71882927"
     d="m 31.144001,8.7234034 c -4.733858,0 -8.571409,3.8865446 -8.571409,8.6808406 0,1.011811 -0.02964,1.970764 -0.0851,2.889375 -0.0061,-1.37e-4 -0.01199,-0.0014 -0.01814,-0.0014 -8.970865,3.4e-5 -13.3540225,-4.049999 -17.366034,-8.675154 -0.7082342,1.195572 -1.1021183,3.392292 -1.1021183,4.875906 0,2.808601 3.01403,5.18348 5.2218082,6.634966 -1.3487207,-0.04204 -4.0832272,-0.655466 -5.1925112,-1.261716 -9.285e-4,0.03375 -0.00143,0.06758 -0.00143,0.101722 -2.2e-6,3.922111 5.1934304,8.835541 8.1263753,9.904411 -2.9329449,0 -5.6703148,-1.333774 -6.7257111,-1.333774 0.9786015,3.005593 5.4514711,5.290711 8.9718001,5.630394 -2.472363,1.681624 -5.3614257,3.0674 -8.4556177,3.0674 -0.6584207,0 -1.3065894,-0.04084 -1.9447509,-0.115857 C 7.6112601,41.424976 11.899672,42 16.50672,42 30.99681,42 39.143024,30.236326 39.684684,19.763823 c 1.557394,-1.152737 3.256517,-2.96982 4.316398,-4.529748 -0.2513,0.109679 -0.523084,0.218624 -0.791014,0.327793 0.283929,-0.355634 0.559871,-0.711001 0.791014,-1.051195 -1.09355,0.47727 -2.367111,0.972788 -3.62862,1.275845 1.086782,-0.966328 1.946039,-2.215766 2.392573,-3.590172 -0.122524,0.07151 -0.25187,0.136739 -0.379463,0.203458 0.144602,-0.302335 0.276378,-0.609572 0.379463,-0.926861 -1.23907,0.723051 -2.749375,1.189586 -4.236877,1.538605 -1.489885,-2.56323 -4.234859,-4.2881446 -7.384193,-4.2881446 z"
     id="path4-4" />
  <path
     style="opacity:1;fill:url(#linearGradient847);fill-opacity:1;stroke-width:0.71882927"
     d="m 31.143965,7 c -4.733858,0 -8.571409,3.886544 -8.571409,8.680841 0,1.011812 -0.02964,1.970765 -0.0851,2.889374 -0.0061,-1.37e-4 -0.01199,-0.0014 -0.01814,-0.0014 -8.970861,5e-6 -13.3540192,-4.050028 -17.3660308,-8.6751842 -0.7082345,1.1955732 -1.1021184,3.3922932 -1.1021183,4.8759082 0,2.8086 3.0140296,5.183479 5.2218083,6.634965 -1.3487209,-0.04205 -4.0832276,-0.655466 -5.1925115,-1.261716 -9.571e-4,0.03375 -0.00139,0.06758 -0.00139,0.101734 -2.2e-6,3.922108 5.1934307,8.835538 8.1263763,9.904409 -2.9329456,0 -5.670316,-1.333776 -6.7257118,-1.333776 0.9786012,3.005594 5.4514718,5.290711 8.9718008,5.630395 -2.472363,1.681624 -5.3614264,3.067402 -8.455619,3.067402 -0.6584201,0 -1.3065892,-0.04084 -1.9447503,-0.115861 3.6100932,2.304464 7.8985053,2.879486 12.5055533,2.879486 14.49009,0 22.636304,-11.763675 23.177964,-22.236176 1.557394,-1.152738 3.256517,-2.969822 4.316398,-4.529747 -0.2513,0.109677 -0.523084,0.218623 -0.791014,0.327791 0.283929,-0.355634 0.559871,-0.711001 0.791014,-1.051196 -1.09355,0.477271 -2.367111,0.972789 -3.62862,1.275847 1.086782,-0.966329 1.946039,-2.215767 2.392573,-3.590172 -0.122524,0.0715 -0.25187,0.136738 -0.379463,0.203457 0.144602,-0.302361 0.276378,-0.609599 0.379463,-0.9268873 -1.23907,0.7230923 -2.749375,1.1896273 -4.236877,1.5386453 C 37.038273,8.724914 34.293299,7 31.143965,7 Z"
     id="path4"
     inkscape:connector-curvature="0" />
  <path
     inkscape:connector-curvature="0"
     style="opacity:0.4;fill:none;fill-opacity:1;stroke:url(#linearGradient890);stroke-width:0.69943261;stroke-opacity:1"
     d="m 30.601678,7.3519722 c -4.578682,0 -8.290437,3.8043338 -8.290437,8.4972188 0,0.990409 -0.02867,1.929081 -0.08231,2.828257 -0.0059,-1.32e-4 -0.0116,-0.0014 -0.01754,-0.0014 -8.676794,4e-6 -12.916271,-3.964361 -16.7967686,-8.491684 -0.6850182,1.170286 -1.0659907,3.320539 -1.0659907,4.77277 0,2.749191 2.9152288,5.073836 5.0506367,6.494618 -1.3045097,-0.04116 -3.9493792,-0.641599 -5.0223,-1.235027 -9e-4,0.03304 -0.00138,0.06615 -0.00138,0.09958 -2e-6,3.839145 5.0231886,8.648643 7.8599916,9.694904 -2.836803,0 -5.484442,-1.305563 -6.5052415,-1.305563 0.9465227,2.942018 5.2727725,5.1788 8.6777035,5.511299 -2.391319,1.646052 -5.1856782,3.002517 -8.1784422,3.002517 -0.6368369,0 -1.2637592,-0.03998 -1.8810009,-0.113408 3.4917535,2.255717 7.6395911,2.818577 12.0956181,2.818577 14.015102,0 21.894282,-11.514843 22.418187,-21.765824 1.506341,-1.128356 3.149767,-2.907003 4.174905,-4.433935 -0.243062,0.107359 -0.505937,0.214001 -0.765085,0.32086 0.274622,-0.348112 0.541519,-0.69596 0.765085,-1.02896 -1.057703,0.467175 -2.289517,0.952212 -3.509673,1.248858 1.051157,-0.945887 1.882247,-2.168898 2.314144,-3.51423 -0.118507,0.06998 -0.243614,0.133846 -0.367024,0.199154 0.139862,-0.295941 0.267318,-0.596678 0.367024,-0.907255 -1.198452,0.70778 -2.659249,1.164447 -4.09799,1.50608 C 36.302775,9.0403693 33.647781,7.3519417 30.601683,7.3519417 Z"
     id="path4-5" />
</svg>
