<?xml version="1.0" encoding="UTF-8" standalone="no"?>
<svg
   xmlns:dc="http://purl.org/dc/elements/1.1/"
   xmlns:cc="http://creativecommons.org/ns#"
   xmlns:rdf="http://www.w3.org/1999/02/22-rdf-syntax-ns#"
   xmlns:svg="http://www.w3.org/2000/svg"
   xmlns="http://www.w3.org/2000/svg"
   xmlns:xlink="http://www.w3.org/1999/xlink"
   xmlns:sodipodi="http://sodipodi.sourceforge.net/DTD/sodipodi-0.dtd"
   xmlns:inkscape="http://www.inkscape.org/namespaces/inkscape"
   width="48"
   height="48"
   version="1"
   id="svg12"
   sodipodi:docname="utilities-tweak-tool.svg"
   inkscape:version="0.92.4 5da689c313, 2019-01-14">
  <metadata
     id="metadata18">
    <rdf:RDF>
      <cc:Work
         rdf:about="">
        <dc:format>image/svg+xml</dc:format>
        <dc:type
           rdf:resource="http://purl.org/dc/dcmitype/StillImage" />
        <dc:title />
      </cc:Work>
    </rdf:RDF>
  </metadata>
  <defs
     id="defs16">
    <linearGradient
       id="linearGradient4679"
       inkscape:collect="always">
      <stop
         id="stop4675"
         offset="0"
         style="stop-color:#ffffff;stop-opacity:1" />
      <stop
         id="stop4677"
         offset="1"
         style="stop-color:#ffffff;stop-opacity:0" />
    </linearGradient>
    <linearGradient
       inkscape:collect="always"
       id="linearGradient4607">
      <stop
         style="stop-color:#646464;stop-opacity:1;"
         offset="0"
         id="stop4603" />
      <stop
         style="stop-color:#8c8c8c;stop-opacity:1"
         offset="1"
         id="stop4605" />
    </linearGradient>
    <linearGradient
       inkscape:collect="always"
       id="linearGradient4535">
      <stop
         style="stop-color:#dcdcdc;stop-opacity:1"
         offset="0"
         id="stop4531" />
      <stop
         style="stop-color:#f0f0f0;stop-opacity:1"
         offset="1"
         id="stop4533" />
    </linearGradient>
    <linearGradient
       inkscape:collect="always"
       xlink:href="#linearGradient4535"
       id="linearGradient4537"
       x1="30.529007"
       y1="4"
       x2="33.508476"
       y2="59.389832"
       gradientUnits="userSpaceOnUse"
       gradientTransform="matrix(0.50264548,0,0,-0.51020407,7.9153445,40.32653)" />
    <linearGradient
       inkscape:collect="always"
       xlink:href="#linearGradient4607"
       id="linearGradient4609"
       x1="4"
       y1="32"
       x2="60"
       y2="32"
       gradientUnits="userSpaceOnUse"
       gradientTransform="matrix(0.7142857,0,0,0.7142857,-46.857143,1.1428573)" />
    <linearGradient
       gradientTransform="matrix(0.7142857,0,0,0.7142857,46.857143,1.1428581)"
       inkscape:collect="always"
       xlink:href="#linearGradient4679"
       id="linearGradient4649-8"
       x1="-60"
       y1="32"
       x2="-40.570034"
       y2="32"
       gradientUnits="userSpaceOnUse" />
    <filter
       inkscape:collect="always"
       style="color-interpolation-filters:sRGB"
       id="filter4721"
       x="-0.049263157"
       width="1.0985264"
       y="-0.046799999"
       height="1.0936">
      <feGaussianBlur
         inkscape:collect="always"
         stdDeviation="0.78"
         id="feGaussianBlur4723" />
    </filter>
  </defs>
  <sodipodi:namedview
     pagecolor="#ffffff"
     bordercolor="#666666"
     borderopacity="1"
     objecttolerance="10"
     gridtolerance="10"
     guidetolerance="10"
     inkscape:pageopacity="0"
     inkscape:pageshadow="2"
     inkscape:window-width="1366"
     inkscape:window-height="691"
     id="namedview14"
     showgrid="false"
     inkscape:zoom="10.791667"
     inkscape:cx="24"
     inkscape:cy="24"
     inkscape:window-x="0"
     inkscape:window-y="0"
     inkscape:window-maximized="1"
     inkscape:current-layer="svg12" />
  <rect
     style="opacity:0.2;fill:#000000;fill-opacity:1;stroke:none;stroke-width:0.61535305;stroke-miterlimit:4;stroke-dasharray:none;stroke-opacity:0"
     id="rect4601-5"
     width="40"
     height="40"
     x="-45"
     y="4"
     rx="20"
     ry="20"
     transform="rotate(-90)" />
  <rect
     style="opacity:1;fill:url(#linearGradient4609);fill-opacity:1;stroke:none;stroke-width:0.61535305;stroke-miterlimit:4;stroke-dasharray:none;stroke-opacity:0"
     id="rect4601"
     width="40"
     height="40"
     x="-44"
     y="4"
     rx="20"
     ry="20"
     transform="rotate(-90)" />
  <path
     style="fill:#000000;fill-opacity:1;stroke:none;stroke-width:0.72662705;filter:url(#filter4721)"
     d="m 30.964856,37 c -2.293237,0 -4.139128,-1.783721 -4.139128,-3.999721 v -1.875 a 15.522816,15 0 0 1 -4.895635,-2.73298 l -1.681927,0.9375 c -1.986002,1.108 -4.508411,0.454268 -5.65503,-1.464843 l -1.035143,-1.729912 c -1.146618,-1.919113 -0.470102,-4.356564 1.5159,-5.464564 l 1.674709,-0.93471 A 15.522816,15 0 0 1 16.477183,17 15.522816,15 0 0 1 16.748602,14.26423 l -1.674709,-0.93471 c -1.986002,-1.108 -2.662518,-3.545452 -1.5159,-5.464564 l 1.035143,-1.729912 c 1.146619,-1.919112 3.669029,-2.572843 5.65503,-1.464843 l 1.670376,0.93192 A 15.522816,15 0 0 1 26.825728,2.878906 V 0.999721 C 26.825728,-1.216279 28.671619,-3 30.964856,-3 h 2.070287 c 2.293238,0 4.139129,1.783721 4.139129,3.999721 v 1.88616 a 15.522816,15 0 0 1 4.895635,2.72182 l 1.681928,-0.9375 c 1.986001,-1.108 4.508409,-0.454269 5.655028,1.464843 l 1.035143,1.729912 c 1.146619,1.919112 0.470101,4.356564 -1.5159,5.464564 l -1.674709,0.93471 A 15.522816,15 0 0 1 47.522815,17 15.522816,15 0 0 1 47.251397,19.73577 l 1.674709,0.93471 c 1.986002,1.108 2.662519,3.545451 1.5159,5.464564 l -1.035143,1.729912 c -1.146619,1.919113 -3.669028,2.572843 -5.655028,1.464843 l -1.670379,-0.93192 a 15.522816,15 0 0 1 -4.907184,2.72461 v 1.87779 c 0,2.216 -1.845891,3.999721 -4.139129,3.999721 z m 1.035143,-11.429966 c 4.898721,0 8.870181,-3.8377 8.870181,-8.571429 0,-4.733729 -3.97146,-8.570034 -8.870181,-8.570034 -4.89872,0 -8.870179,3.836305 -8.870179,8.570034 0,4.733729 3.971459,8.571429 8.870179,8.571429 z"
     id="path4-6"
     inkscape:connector-curvature="0"
     transform="matrix(0.7142857,0,0,0.7142857,1.1428572,12.234285)" />
  <path
     style="fill:url(#linearGradient4537);fill-opacity:1;stroke-width:0.51901931"
     d="m 23.260612,38.285714 c -1.638026,0 -2.95652,-1.274086 -2.95652,-2.856943 V 34.089485 A 11.087726,10.714286 0 0 1 16.80721,32.137357 L 15.605834,32.807 c -1.418573,0.791428 -3.220294,0.324477 -4.039308,-1.046317 l -0.739387,-1.235651 c -0.819013,-1.370795 -0.335788,-3.111832 1.082785,-3.90326 l 1.196221,-0.66765 A 11.087726,10.714286 0 0 1 12.912274,24 11.087726,10.714286 0 0 1 13.106145,22.045879 l -1.196221,-0.66765 C 10.491351,20.5868 10.008126,18.845763 10.827139,17.474969 l 0.739387,-1.235651 c 0.819014,-1.370795 2.620735,-1.837745 4.039308,-1.046317 l 1.193125,0.665657 a 11.087726,10.714286 0 0 1 3.505133,-1.945153 V 12.57123 c 0,-1.582857 1.318494,-2.8569439 2.95652,-2.8569439 h 1.478776 c 1.638028,0 2.956521,1.2740869 2.956521,2.8569439 v 1.347257 a 11.087726,10.714286 0 0 1 3.496882,1.944157 l 1.201377,-0.669643 c 1.418572,-0.791428 3.220292,-0.324478 4.039306,1.046317 l 0.739388,1.235651 c 0.819013,1.370794 0.335786,3.111831 -1.082786,3.90326 l -1.196221,0.66765 A 11.087726,10.714286 0 0 1 35.087725,24 a 11.087726,10.714286 0 0 1 -0.19387,1.954122 l 1.196221,0.66765 c 1.418573,0.791428 1.901799,2.532465 1.082786,3.90326 l -0.739388,1.235651 C 35.61446,33.131478 33.81274,33.598428 32.394168,32.807 L 31.20104,32.141342 a 11.087726,10.714286 0 0 1 -3.505131,1.94615 v 1.341279 c 0,1.582857 -1.318493,2.856943 -2.956521,2.856943 z M 24,30.121453 c 3.499086,0 6.335843,-2.741214 6.335843,-6.122449 0,-3.381235 -2.836757,-6.121453 -6.335843,-6.121453 -3.499086,0 -6.335842,2.740218 -6.335842,6.121453 0,3.381235 2.836756,6.122449 6.335842,6.122449 z"
     id="path4"
     inkscape:connector-curvature="0" />
  <rect
     style="opacity:0.5;fill:none;fill-opacity:1;stroke:url(#linearGradient4649-8);stroke-width:0.71235168;stroke-miterlimit:4;stroke-dasharray:none;stroke-opacity:1"
     id="rect4601-7-0"
     width="39.287647"
     height="39.287647"
     x="4.3561764"
     y="4.3561764"
     rx="19.643824"
     ry="19.643824"
     transform="matrix(0,1,1,0,0,0)" />
</svg>
