<?xml version="1.0" encoding="UTF-8" standalone="no"?>
<svg
   xmlns:dc="http://purl.org/dc/elements/1.1/"
   xmlns:cc="http://creativecommons.org/ns#"
   xmlns:rdf="http://www.w3.org/1999/02/22-rdf-syntax-ns#"
   xmlns:svg="http://www.w3.org/2000/svg"
   xmlns="http://www.w3.org/2000/svg"
   xmlns:xlink="http://www.w3.org/1999/xlink"
   xmlns:sodipodi="http://sodipodi.sourceforge.net/DTD/sodipodi-0.dtd"
   xmlns:inkscape="http://www.inkscape.org/namespaces/inkscape"
   width="48"
   height="48"
   version="1.1"
   viewBox="0 0 36 36"
   id="svg14"
   sodipodi:docname="utilities-terminal.svg"
   inkscape:version="0.92.3 (2405546, 2018-03-11)">
  <metadata
     id="metadata20">
    <rdf:RDF>
      <cc:Work
         rdf:about="">
        <dc:format>image/svg+xml</dc:format>
        <dc:type
           rdf:resource="http://purl.org/dc/dcmitype/StillImage" />
        <dc:title />
      </cc:Work>
    </rdf:RDF>
  </metadata>
  <defs
     id="defs18">
    <linearGradient
       id="linearGradient896"
       inkscape:collect="always">
      <stop
         id="stop892"
         offset="0"
         style="stop-color:#ffffff;stop-opacity:1" />
      <stop
         id="stop894"
         offset="1"
         style="stop-color:#ffffff;stop-opacity:0" />
    </linearGradient>
    <linearGradient
       inkscape:collect="always"
       id="linearGradient864">
      <stop
         style="stop-color:#000000;stop-opacity:1;"
         offset="0"
         id="stop860" />
      <stop
         style="stop-color:#000000;stop-opacity:0;"
         offset="1"
         id="stop862" />
    </linearGradient>
    <linearGradient
       inkscape:collect="always"
       id="linearGradient878">
      <stop
         style="stop-color:#282828;stop-opacity:1;"
         offset="0"
         id="stop874" />
      <stop
         style="stop-color:#141414;stop-opacity:1"
         offset="1"
         id="stop876" />
    </linearGradient>
    <linearGradient
       inkscape:collect="always"
       xlink:href="#linearGradient878"
       id="linearGradient880"
       x1="191.965"
       y1="58.296616"
       x2="178.96399"
       y2="335.04663"
       gradientUnits="userSpaceOnUse"
       gradientTransform="matrix(0.08544179,0,0,0.08898669,1.5951764,349.55434)" />
    <linearGradient
       inkscape:collect="always"
       xlink:href="#linearGradient864"
       id="linearGradient866"
       x1="193.9409"
       y1="359.58432"
       x2="194.30173"
       y2="343.67441"
       gradientUnits="userSpaceOnUse"
       gradientTransform="matrix(0.08510639,0,0,0.08510639,1.6595743,349.65958)" />
    <linearGradient
       gradientTransform="matrix(0.08510639,0,0,-0.08510639,1.659575,382.34043)"
       inkscape:collect="always"
       xlink:href="#linearGradient896"
       id="linearGradient866-2"
       x1="193.9409"
       y1="359.58432"
       x2="194.30173"
       y2="343.67441"
       gradientUnits="userSpaceOnUse" />
  </defs>
  <sodipodi:namedview
     pagecolor="#ffffff"
     bordercolor="#666666"
     borderopacity="1"
     objecttolerance="10"
     gridtolerance="10"
     guidetolerance="10"
     inkscape:pageopacity="0"
     inkscape:pageshadow="2"
     inkscape:window-width="1366"
     inkscape:window-height="704"
     id="namedview16"
     showgrid="false"
     inkscape:zoom="7.828125"
     inkscape:cx="-8.0479042"
     inkscape:cy="32"
     inkscape:window-x="0"
     inkscape:window-y="30"
     inkscape:window-maximized="1"
     inkscape:current-layer="g8"
     showguides="false" />
  <g
     id="g8"
     style="fill-rule:evenodd"
     transform="translate(0,-348)">
    <path
       d="M 4.3287293,351 H 31.671606 C 32.405344,351 33,351.75769 33,352.69249 v 26.61458 C 33,380.24193 32.405324,381 31.671606,381 H 4.3287293 C 3.5949921,381 3,380.24189 3,379.30707 V 352.69249 C 3,351.75765 3.5950257,351 4.3287293,351 Z"
       id="path6"
       style="fill:url(#linearGradient880);fill-opacity:1;stroke:none;stroke-width:1.30794358;stroke-linejoin:round;stroke-miterlimit:4;stroke-dasharray:none"
       inkscape:connector-curvature="0" />
    <path
       d="M 4.6135478,351.3125 H 31.386781 c 0.718451,0 1.300718,0.74189 1.300718,1.65724 v 26.0601 c 0,0.91537 -0.582287,1.65766 -1.300718,1.65766 H 4.6135478 c -0.7184514,0 -1.3010478,-0.74233 -1.3010478,-1.65766 v -26.0601 c 0,-0.91538 0.5826293,-1.65724 1.3010478,-1.65724 z"
       id="path6-2"
       style="fill:none;fill-opacity:1;stroke:url(#linearGradient866);stroke-width:0.62500006;stroke-linejoin:round;stroke-miterlimit:4;stroke-dasharray:none;stroke-opacity:1"
       inkscape:connector-curvature="0" />
    <path
       d="M 4.6135486,380.6875 H 31.386779 c 0.718453,0 1.30072,-0.7419 1.30072,-1.65725 v -26.06009 c 0,-0.91539 -0.582287,-1.65766 -1.30072,-1.65766 H 4.6135486 c -0.7184508,0 -1.3010479,0.74232 -1.3010479,1.65766 v 26.06009 c 0,0.91538 0.5826293,1.65725 1.3010479,1.65725 z"
       id="path6-2-1"
       style="opacity:0.3;fill:none;fill-opacity:1;stroke:url(#linearGradient866-2);stroke-width:0.625;stroke-linejoin:round;stroke-miterlimit:4;stroke-dasharray:none;stroke-opacity:1"
       inkscape:connector-curvature="0" />
  </g>
  <path
     d="m 13.644256,13.154891 v 0.460775 h -3.429532 v -0.460775 z"
     id="path10"
     inkscape:connector-curvature="0"
     style="fill:#ffffff;stroke-width:0.08510638" />
  <path
     d="m 7.8603407,7.0740402 v 0.769617 c -0.376,0.042554 -0.6702129,0.1539235 -0.8812771,0.33577 -0.2340422,0.2021278 -0.3513958,0.4783914 -0.3513958,0.82846 0,0.3224764 0.1077108,0.5761278 0.3224772,0.76097 0.1968086,0.1675578 0.5013271,0.2905618 0.9102128,0.3696848 v 1.48766 C 7.666545,11.614566 7.4770471,11.581654 7.2918721,11.52547 7.0684678,11.454327 6.8470557,11.35027 6.6276428,11.212636 v 0.580451 c 0.2280593,0.09674 0.4547915,0.169549 0.6801872,0.219081 0.1841786,0.03856 0.3683486,0.06216 0.5525278,0.07214 v 0.975405 h 0.5777958 v -0.989022 c 0.3972764,-0.04421 0.7067828,-0.159906 0.9265528,-0.348408 0.2450129,-0.210775 0.3673529,-0.497668 0.3673529,-0.860681 0,-0.335439 -0.1150293,-0.599737 -0.3447486,-0.793217 C 9.1778721,9.8925222 8.860715,9.76619 8.4382043,9.6880622 V 8.298105 C 8.5911321,8.311734 8.7410636,8.337334 8.8876678,8.37623 9.0765021,8.425766 9.2603407,8.4952429 9.4385364,8.5856686 V 8.0215065 C 9.2603407,7.9633286 9.07783,7.9184513 8.8906636,7.8862045 8.7440514,7.8592759 8.5931236,7.8403259 8.4382043,7.8293559 V 7.0740367 Z m 0,1.2314041 V 9.5823807 C 7.656885,9.5365029 7.5036257,9.4710107 7.4015657,9.38524 7.2812171,9.2818529 7.2210471,9.1379043 7.2210471,8.9530615 c 0,-0.1888343 0.065493,-0.3404258 0.1964765,-0.4544508 0.1077107,-0.093421 0.2556507,-0.1575835 0.4428171,-0.1931492 z m 0.5777957,1.9478297 c 0.2207486,0.0512 0.38697,0.124 0.4976764,0.218085 0.1333108,0.111702 0.1998043,0.262298 0.1998043,0.451464 0,0.193149 -0.069814,0.349073 -0.2094385,0.467421 -0.1150293,0.09874 -0.278255,0.168554 -0.4880336,0.210443 z"
     id="path12"
     inkscape:connector-curvature="0"
     style="fill:#ffffff;stroke-width:0.08510638" />
</svg>
