<?xml version="1.0" encoding="UTF-8" standalone="no"?>
<svg
   xmlns:dc="http://purl.org/dc/elements/1.1/"
   xmlns:cc="http://creativecommons.org/ns#"
   xmlns:rdf="http://www.w3.org/1999/02/22-rdf-syntax-ns#"
   xmlns:svg="http://www.w3.org/2000/svg"
   xmlns="http://www.w3.org/2000/svg"
   xmlns:sodipodi="http://sodipodi.sourceforge.net/DTD/sodipodi-0.dtd"
   xmlns:inkscape="http://www.inkscape.org/namespaces/inkscape"
   width="48"
   height="48"
   version="1.1"
   viewBox="0 0 36 36"
   id="svg12"
   sodipodi:docname="whatsapp.svg"
   inkscape:version="0.92.4 5da689c313, 2019-01-14">
  <metadata
     id="metadata18">
    <rdf:RDF>
      <cc:Work
         rdf:about="">
        <dc:format>image/svg+xml</dc:format>
        <dc:type
           rdf:resource="http://purl.org/dc/dcmitype/StillImage" />
        <dc:title />
      </cc:Work>
    </rdf:RDF>
  </metadata>
  <defs
     id="defs16">
    <linearGradient
       id="linearGradient2630"
       x2="1"
       gradientTransform="matrix(0,-30.133987,30.133987,0,17.999997,33.06935)"
       gradientUnits="userSpaceOnUse">
      <stop
         stop-color="#f9f9f9"
         offset="0"
         id="stop963" />
      <stop
         stop-color="#fff"
         offset="1"
         id="stop965" />
    </linearGradient>
    <linearGradient
       id="linearGradient2628"
       x2="1"
       gradientTransform="matrix(0,-29.091173,29.091173,0,17.999913,32.544072)"
       gradientUnits="userSpaceOnUse">
      <stop
         stop-color="#20b038"
         offset="0"
         id="stop958" />
      <stop
         stop-color="#60d66a"
         offset="1"
         id="stop960" />
    </linearGradient>
    <linearGradient
       id="linearGradient2630-6"
       x2="1"
       gradientTransform="matrix(0,-30.133986,30.133986,0,19.32061,46.758984)"
       gradientUnits="userSpaceOnUse">
      <stop
         stop-color="#f9f9f9"
         offset="0"
         id="stop963-3" />
      <stop
         stop-color="#fff"
         offset="1"
         id="stop965-3" />
    </linearGradient>
  </defs>
  <sodipodi:namedview
     pagecolor="#ffffff"
     bordercolor="#666666"
     borderopacity="1"
     objecttolerance="10"
     gridtolerance="10"
     guidetolerance="10"
     inkscape:pageopacity="0"
     inkscape:pageshadow="2"
     inkscape:window-width="1366"
     inkscape:window-height="691"
     id="namedview14"
     showgrid="false"
     inkscape:zoom="10.791667"
     inkscape:cx="24"
     inkscape:cy="24"
     inkscape:window-x="0"
     inkscape:window-y="0"
     inkscape:window-maximized="1"
     inkscape:current-layer="svg12" />
  <path
     inkscape:connector-curvature="0"
     style="opacity:0.2;fill:#000000;fill-opacity:1;stroke-width:0.43055928"
     d="m 3.1256204,18.922815 c -9.286e-4,2.631537 0.6867006,5.20072 1.9937464,7.465032 L 3.0001504,34.125 10.918568,32.0488 c 2.181774,1.189763 4.637989,1.816786 7.137813,1.817819 h 0.0065 c 8.231868,0 14.93352,-6.699499 14.936967,-14.932226 0.0019,-3.990203 -1.551111,-7.741884 -4.371019,-10.564206 -2.820308,-2.822312 -6.570314,-4.377492 -10.5659,-4.379215 -8.2335831,0 -14.9339486,6.698214 -14.937395,14.931368 m 4.715487,7.075377 -0.295585,-0.46948 C 6.3024967,23.552142 5.6464968,21.268287 5.6474004,18.923459 5.650186,12.080576 11.219276,6.513013 18.067318,6.513013 c 3.316252,9.3e-4 6.432985,1.294135 8.777385,3.639774 2.34413,2.345816 3.633999,5.464235 3.633096,8.780405 -0.0028,6.84331 -5.572296,12.411301 -12.415176,12.411301 h -0.0046 c -2.228096,-9e-4 -4.413233,-0.599386 -6.318889,-1.730204 l -0.453471,-0.268853 -4.6991297,1.232005 z m 10.221908,7.868902 h 1.69e-4 -1.69e-4 c -1.71e-4,0 -3.41e-4,0 0,0"
     id="path980-8" />
  <path
     inkscape:connector-curvature="0"
     style="fill:#ffffff;stroke-width:0.43055931"
     d="m 11.285428,28.285844 0.453554,0.268852 c 1.905787,1.130996 4.090747,1.729124 6.31889,1.730335 h 0.0046 c 6.842881,0 12.412158,-5.567992 12.414748,-12.411302 C 30.478148,14.557168 29.188255,11.43902 26.844283,9.0928963 24.50015,6.747211 21.383501,5.4545012 18.066902,5.4531225 c -6.848051,0 -12.417337,5.5671355 -12.4199177,12.4104455 -9.286e-4,2.345043 0.6550964,4.628943 1.8980378,6.604778 l 0.2954264,0.469649 -1.2544821,4.579864 z M 3.0001771,33.065483 5.1192164,25.327901 C 3.8121707,23.063337 3.1245657,20.494443 3.1256371,17.86287 3.1284229,9.6297142 9.8290215,2.9314995 18.063032,2.9314995 c 3.995514,0.00186 7.745769,1.5567269 10.565929,4.3792162 2.819862,2.8224523 4.372332,6.5742173 4.371038,10.5642063 -0.0037,8.232725 -6.705098,14.932225 -14.936967,14.932225 -5.96e-4,0 3.41e-4,0 0,0 h -0.0065 c -2.499826,-8.57e-4 -4.956161,-0.627926 -7.137805,-1.817819 z"
     id="path976" />
  <path
     inkscape:connector-curvature="0"
     style="fill:url(#linearGradient2628);stroke-width:0.43055931"
     d="m 3.6404171,17.870619 c -9.285e-4,2.540252 0.6628457,5.020321 1.9249472,7.206696 l -2.0458436,7.469774 7.6441453,-2.004374 c 2.106129,1.147697 4.477392,1.753574 6.890676,1.754357 h 0.0065 c 7.947266,0 14.415984,-6.467003 14.41943,-14.415135 0.0019,-3.851825 -1.497056,-7.473212 -4.219701,-10.1982222 -2.722196,-2.7246281 -6.342558,-4.2259413 -10.200372,-4.2277481 -7.947694,0 -14.4164126,6.4661382 -14.4198583,14.4146893 M 18.060629,32.296979 h 1.7e-4 -1.7e-4 c -1.71e-4,0 -2.56e-4,0 0,0"
     id="path978" />
  <path
     inkscape:connector-curvature="0"
     style="fill:url(#linearGradient2630);stroke-width:0.43055931"
     d="m 3.12547,17.866315 c -9.286e-4,2.631537 0.6867007,5.20072 1.9937464,7.465032 L 3,33.0685 10.918418,30.9923 c 2.181774,1.189763 4.637989,1.816786 7.137814,1.817819 h 0.0065 c 8.231868,0 14.93352,-6.699499 14.936967,-14.932226 C 33.001556,13.88769 31.448588,10.136009 28.62868,7.3136868 25.808371,4.4913753 22.058366,2.9361949 18.062779,2.9344715 9.8291957,2.9344715 3.12883,9.6326856 3.1253836,17.865839 m 4.7154871,7.075378 -0.295585,-0.46948 C 6.3023464,22.495642 5.6463464,20.211787 5.64725,17.866958 5.6500357,11.024076 11.219126,5.4565132 18.067168,5.4565132 c 3.316253,9.285e-4 6.432986,1.2941344 8.777386,3.6397739 2.34413,2.3458159 3.633999,5.4642349 3.633096,8.7804049 -0.0028,6.84331 -5.572296,12.411301 -12.415177,12.411301 h -0.0046 c -2.228096,-9.29e-4 -4.413233,-0.599386 -6.31889,-1.730204 l -0.45347,-0.268853 -4.69913,1.232005 z m 10.2219083,7.868902 h 1.7e-4 -1.7e-4 c -1.71e-4,0 -3.41e-4,0 0,0"
     id="path980" />
  <path
     inkscape:connector-curvature="0"
     style="fill:#ffffff;fill-rule:evenodd;stroke-width:0.43055931"
     d="m 14.329487,11.6232 c -0.279638,-0.621554 -0.573854,-0.633998 -0.839808,-0.644933 -0.217658,-0.0093 -0.466594,-0.0084 -0.715243,-0.0084 -0.248955,0 -0.653289,0.09342 -0.995196,0.466902 -0.342214,0.373502 -1.306401,1.276343 -1.306401,3.112549 0,1.836383 1.337569,3.610758 1.523919,3.860012 0.186668,0.248797 2.58202,4.137545 6.375291,5.633437 3.152817,1.243239 3.794389,0.995969 4.478679,0.933672 0.684289,-0.06213 2.208209,-0.902542 2.519116,-1.774076 0.311076,-0.871413 0.311076,-1.618391 0.217807,-1.774385 -0.09326,-0.155537 -0.342205,-0.248946 -0.71541,-0.435464 -0.373353,-0.186678 -2.208209,-1.089658 -2.550246,-1.214224 -0.342214,-0.124398 -0.59103,-0.186527 -0.839986,0.187134 -0.248796,0.373194 -0.963591,1.213617 -1.181408,1.462563 -0.217658,0.249412 -0.435463,0.280551 -0.808678,0.09387 -0.373353,-0.187274 -1.575412,-0.580989 -3.001387,-1.852302 -1.109545,-0.989254 -1.858553,-2.210929 -2.076368,-2.584609 -0.217658,-0.373195 -0.02319,-0.575353 0.163893,-0.761443 0.167693,-0.167237 0.373352,-0.435772 0.56003,-0.653588 0.186211,-0.217964 0.24834,-0.373502 0.372739,-0.622457 0.124556,-0.249105 0.06231,-0.46707 -0.03101,-0.653765 -0.09341,-0.186677 -0.818711,-2.032329 -1.150586,-2.770345"
     id="path982" />
</svg>
