<?xml version="1.0" encoding="UTF-8" standalone="no"?>
<svg
   xmlns:dc="http://purl.org/dc/elements/1.1/"
   xmlns:cc="http://creativecommons.org/ns#"
   xmlns:rdf="http://www.w3.org/1999/02/22-rdf-syntax-ns#"
   xmlns:svg="http://www.w3.org/2000/svg"
   xmlns="http://www.w3.org/2000/svg"
   xmlns:xlink="http://www.w3.org/1999/xlink"
   xmlns:sodipodi="http://sodipodi.sourceforge.net/DTD/sodipodi-0.dtd"
   xmlns:inkscape="http://www.inkscape.org/namespaces/inkscape"
   width="48"
   height="48"
   version="1"
   id="svg16"
   sodipodi:docname="yast.svg"
   inkscape:version="0.92.4 5da689c313, 2019-01-14">
  <metadata
     id="metadata22">
    <rdf:RDF>
      <cc:Work
         rdf:about="">
        <dc:format>image/svg+xml</dc:format>
        <dc:type
           rdf:resource="http://purl.org/dc/dcmitype/StillImage" />
        <dc:title />
      </cc:Work>
    </rdf:RDF>
  </metadata>
  <defs
     id="defs20">
    <linearGradient
       inkscape:collect="always"
       id="linearGradient833">
      <stop
         style="stop-color:#c8c8c8;stop-opacity:1"
         offset="0"
         id="stop829" />
      <stop
         style="stop-color:#dcdcdc;stop-opacity:1"
         offset="1"
         id="stop831" />
    </linearGradient>
    <linearGradient
       inkscape:collect="always"
       xlink:href="#linearGradient833"
       id="linearGradient835"
       x1="33.016949"
       y1="58.576271"
       x2="32.203388"
       y2="5.1525426"
       gradientUnits="userSpaceOnUse"
       gradientTransform="matrix(0.71428571,0,0,0.71428571,1.1428571,1.142857)" />
  </defs>
  <sodipodi:namedview
     pagecolor="#ffffff"
     bordercolor="#666666"
     borderopacity="1"
     objecttolerance="10"
     gridtolerance="10"
     guidetolerance="10"
     inkscape:pageopacity="0"
     inkscape:pageshadow="2"
     inkscape:window-width="1366"
     inkscape:window-height="691"
     id="namedview18"
     showgrid="false"
     inkscape:zoom="10.791667"
     inkscape:cx="24"
     inkscape:cy="24"
     inkscape:window-x="0"
     inkscape:window-y="0"
     inkscape:window-maximized="1"
     inkscape:current-layer="svg16" />
  <rect
     style="opacity:0.2;fill:#000000;fill-opacity:1;stroke-width:0.71428573"
     width="40"
     height="40"
     x="4"
     y="5"
     rx="2.1428571"
     ry="2.1428571"
     id="rect2-7" />
  <rect
     style="fill:url(#linearGradient835);fill-opacity:1;stroke-width:0.71428573"
     width="40"
     height="40"
     x="4"
     y="4"
     rx="2.1428571"
     ry="2.1428571"
     id="rect2" />
  <path
     style="opacity:0.4;fill:#ffffff;stroke-width:0.71428573"
     d="M 6.1428571,4 C 4.9557143,4 4,4.955714 4,6.142857 V 6.857143 C 4,5.67 4.9557143,4.714286 6.1428571,4.714286 H 41.857143 C 43.044286,4.714286 44,5.67 44,6.857143 V 6.142857 C 44,4.955714 43.044286,4 41.857143,4 Z"
     id="path4"
     inkscape:connector-curvature="0" />
  <path
     style="opacity:0.3;stroke-width:0.71428573"
     d="m 11.857143,12.571429 c -1.187143,0 -2.1428573,0.955714 -2.1428573,2.142857 v 21.428571 c 0,1.187143 0.9557143,2.142857 2.1428573,2.142857 C 13.044286,38.285714 14,37.33 14,36.142857 V 14.714286 c 0,-1.187143 -0.955714,-2.142857 -2.142857,-2.142857 z m 11.428571,0 c -1.187143,0 -2.142857,0.955714 -2.142857,2.142857 v 21.428571 c 0,1.187143 0.955714,2.142857 2.142857,2.142857 1.187143,0 2.142857,-0.955714 2.142857,-2.142857 V 14.714286 c 0,-1.187143 -0.955714,-2.142857 -2.142857,-2.142857 z m 11.428572,0 c -1.187143,0 -2.142857,0.955714 -2.142857,2.142857 v 21.428571 c 0,1.187143 0.955714,2.142857 2.142857,2.142857 1.187143,0 2.142857,-0.955714 2.142857,-2.142857 V 14.714286 c 0,-1.187143 -0.955714,-2.142857 -2.142857,-2.142857 z"
     id="path6"
     inkscape:connector-curvature="0" />
  <path
     style="fill:#0066cc;stroke-width:0.71428573"
     d="m 9.7142857,21.857143 v 14.285714 c 0,1.187143 0.9557143,2.142857 2.1428573,2.142857 C 13.044286,38.285714 14,37.33 14,36.142857 V 21.857143 Z m 22.8571433,1.428571 v 12.857143 c 0,1.187143 0.955714,2.142857 2.142857,2.142857 1.187143,0 2.142857,-0.955714 2.142857,-2.142857 V 23.285714 Z m -11.428572,7.142857 v 5.714286 c 0,1.187143 0.955714,2.142857 2.142857,2.142857 1.187143,0 2.142857,-0.955714 2.142857,-2.142857 v -5.714286 z"
     id="path10"
     inkscape:connector-curvature="0" />
  <path
     style="opacity:0.2;stroke-width:0.71428573"
     d="m 11.857143,18.285714 c -2.3669344,0 -4.2857144,1.91878 -4.2857144,4.285715 0,2.366934 1.91878,4.285714 4.2857144,4.285714 2.366934,0 4.285714,-1.91878 4.285714,-4.285714 0,-2.366935 -1.91878,-4.285715 -4.285714,-4.285715 z m 22.857143,2.142857 c -2.366935,0 -4.285715,1.91878 -4.285715,4.285715 C 30.428571,27.08122 32.347351,29 34.714286,29 37.08122,29 39,27.08122 39,24.714286 39,22.347351 37.08122,20.428571 34.714286,20.428571 Z m -11.428572,5 C 20.91878,25.428571 19,27.347351 19,29.714286 19,32.08122 20.91878,34 23.285714,34 c 2.366935,0 4.285715,-1.91878 4.285715,-4.285714 0,-2.366935 -1.91878,-4.285715 -4.285715,-4.285715 z"
     id="path12"
     inkscape:connector-curvature="0" />
  <path
     style="fill:#ffffff;stroke-width:0.71428573"
     d="m 11.857143,17.571429 c -2.3669344,0 -4.2857144,1.91878 -4.2857144,4.285714 0,2.366934 1.91878,4.285714 4.2857144,4.285714 2.366934,0 4.285714,-1.91878 4.285714,-4.285714 0,-2.366934 -1.91878,-4.285714 -4.285714,-4.285714 z m 22.857143,2.142857 c -2.366935,0 -4.285715,1.91878 -4.285715,4.285714 0,2.366934 1.91878,4.285714 4.285715,4.285714 C 37.08122,28.285714 39,26.366934 39,24 39,21.633066 37.08122,19.714286 34.714286,19.714286 Z m -11.428572,5 C 20.91878,24.714286 19,26.633066 19,29 c 0,2.366934 1.91878,4.285714 4.285714,4.285714 2.366935,0 4.285715,-1.91878 4.285715,-4.285714 0,-2.366934 -1.91878,-4.285714 -4.285715,-4.285714 z"
     id="path14"
     inkscape:connector-curvature="0" />
</svg>
