<?xml version="1.0" encoding="UTF-8" standalone="no"?>
<svg
   xmlns:dc="http://purl.org/dc/elements/1.1/"
   xmlns:cc="http://creativecommons.org/ns#"
   xmlns:rdf="http://www.w3.org/1999/02/22-rdf-syntax-ns#"
   xmlns:svg="http://www.w3.org/2000/svg"
   xmlns="http://www.w3.org/2000/svg"
   xmlns:sodipodi="http://sodipodi.sourceforge.net/DTD/sodipodi-0.dtd"
   xmlns:inkscape="http://www.inkscape.org/namespaces/inkscape"
   width="48"
   height="48"
   version="1"
   id="svg20"
   sodipodi:docname="image-missing.svg"
   inkscape:version="0.92.3 (2405546, 2018-03-11)">
  <metadata
     id="metadata26">
    <rdf:RDF>
      <cc:Work
         rdf:about="">
        <dc:format>image/svg+xml</dc:format>
        <dc:type
           rdf:resource="http://purl.org/dc/dcmitype/StillImage" />
        <dc:title></dc:title>
      </cc:Work>
    </rdf:RDF>
  </metadata>
  <defs
     id="defs24" />
  <sodipodi:namedview
     pagecolor="#ffffff"
     bordercolor="#666666"
     borderopacity="1"
     objecttolerance="10"
     gridtolerance="10"
     guidetolerance="10"
     inkscape:pageopacity="0"
     inkscape:pageshadow="2"
     inkscape:window-width="1366"
     inkscape:window-height="704"
     id="namedview22"
     showgrid="false"
     inkscape:zoom="6.9532167"
     inkscape:cx="18.416664"
     inkscape:cy="25.945023"
     inkscape:window-x="0"
     inkscape:window-y="30"
     inkscape:window-maximized="1"
     inkscape:current-layer="svg20" />
  <path
     inkscape:connector-curvature="0"
     style="opacity:0.2"
     d="M 44,11 C 44,9.892 43.108,9 42,9 H 6 C 4.892,9 4,9.892 4,11 v 28 c 0,1.108 0.892,2 2,2 h 26 l 1,-11 11,-2 z"
     id="path2"
     sodipodi:nodetypes="sssssscccs" />
  <path
     style="fill:#e4e4e4"
     inkscape:connector-curvature="0"
     d="M 44,10 C 44,8.892 43.108,8 42,8 H 6 C 4.892,8 4,8.892 4,10 v 28 c 0,1.108 0.892,2 2,2 H 32 L 35.644068,32.152542 44,28 Z"
     id="path4"
     sodipodi:nodetypes="sssssscccs" />
  <path
     inkscape:connector-curvature="0"
     style="opacity:0.2"
     d="M 43,28 H 33 c -1.1046,0 -2,0.89543 -2,2 v 10 z"
     id="path8" />
  <path
     style="fill:#fafafa"
     inkscape:connector-curvature="0"
     d="M 44,28 H 34 c -1.1046,0 -2,0.89543 -2,2 v 10 z"
     id="path10" />
  <path
     sodipodi:type="inkscape:offset"
     inkscape:radius="0"
     inkscape:original="M 4.0078125 -7.078125 L 4.4765625 12.6875 L 7.3671875 12.6875 L 7.8359375 -7.078125 L 4.0078125 -7.078125 z M 3.96875 16.515625 L 3.96875 20.441406 L 7.7578125 20.441406 L 7.7578125 16.515625 L 3.96875 16.515625 z "
     style="font-style:normal;font-weight:normal;font-size:40px;line-height:1.25;font-family:sans-serif;letter-spacing:0px;word-spacing:0px;opacity:0.2;fill:#000000;fill-opacity:1;stroke:none"
     id="text820"
     d="m 4.0078125,-7.078125 0.46875,19.765625 h 2.890625 l 0.46875,-19.765625 z M 3.96875,16.515625 v 3.925781 h 3.7890625 v -3.925781 z"
     transform="matrix(1.0343434,0,0,0.58140526,16.89495,20.115259)" />
</svg>
