<?xml version="1.0" encoding="UTF-8" standalone="no"?>
<svg
   xmlns:dc="http://purl.org/dc/elements/1.1/"
   xmlns:cc="http://creativecommons.org/ns#"
   xmlns:rdf="http://www.w3.org/1999/02/22-rdf-syntax-ns#"
   xmlns:svg="http://www.w3.org/2000/svg"
   xmlns="http://www.w3.org/2000/svg"
   xmlns:sodipodi="http://sodipodi.sourceforge.net/DTD/sodipodi-0.dtd"
   xmlns:inkscape="http://www.inkscape.org/namespaces/inkscape"
   width="64"
   height="64"
   version="1"
   id="svg16"
   sodipodi:docname="application-vnd.oasis.opendocument.formula.svg"
   inkscape:version="0.92.3 (2405546, 2018-03-11)">
  <metadata
     id="metadata22">
    <rdf:RDF>
      <cc:Work
         rdf:about="">
        <dc:format>image/svg+xml</dc:format>
        <dc:type
           rdf:resource="http://purl.org/dc/dcmitype/StillImage" />
      </cc:Work>
    </rdf:RDF>
  </metadata>
  <defs
     id="defs20" />
  <sodipodi:namedview
     pagecolor="#ffffff"
     bordercolor="#666666"
     borderopacity="1"
     objecttolerance="10"
     gridtolerance="10"
     guidetolerance="10"
     inkscape:pageopacity="0"
     inkscape:pageshadow="2"
     inkscape:window-width="1366"
     inkscape:window-height="704"
     id="namedview18"
     showgrid="false"
     inkscape:zoom="14.75"
     inkscape:cx="27.750277"
     inkscape:cy="28.556226"
     inkscape:window-x="0"
     inkscape:window-y="30"
     inkscape:window-maximized="1"
     inkscape:current-layer="svg16" />
  <path
     style="opacity:0.2"
     d="m 14.5,8.0000001 c -1.385,0 -2.5,1.115 -2.5,2.4999999 v 45 c 0,1.385 1.115,2.5 2.5,2.5 h 35 C 50.885,58 52,56.885 52,55.5 V 23 L 38.25,21.75 37,8.0000001 Z"
     id="path2" />
  <path
     fill="#636e73"
     d="m14.5 7c-1.385 0-2.5 1.115-2.5 2.5v45c0 1.385 1.115 2.5 2.5 2.5h35c1.385 0 2.5-1.115 2.5-2.5v-32.5l-13.75-1.25-1.25-13.75z"
     id="path4"
     style="fill:#e4e4e4;fill-opacity:1" />
  <path
     style="opacity:0.2"
     d="M 37,8.0000001 V 20.5 c 0,1.3808 1.1193,2.5 2.5,2.5 H 52 Z"
     id="path6" />
  <path
     fill="#909b9f"
     d="m37 7v12.5c0 1.3808 1.1193 2.5 2.5 2.5h12.5l-15-15z"
     id="path8"
     style="fill:#fafafa;fill-opacity:1" />
  <path
     style="fill:#636e73;fill-opacity:1"
     d="M 31.5 32 L 27.300781 45 L 24.5 38 L 19 38 L 19 40 L 23 40 L 26.878906 50 L 28 50 L 33 34 L 41 34 L 41 32 L 31.5 32 z M 33.378906 38.75 L 37.451172 44.113281 L 33 50 L 35.21875 50 L 38.554688 45.580078 L 41.888672 50 L 44.111328 50 L 39.75 44.226562 L 43.896484 38.75 L 41.673828 38.75 L 38.636719 42.759766 L 35.597656 38.75 L 33.378906 38.75 z"
     id="path12" />
  <path
     style="opacity:0.1;fill:#ffffff"
     d="m 14.5,7.0000001 c -1.385,0 -2.5,1.115 -2.5,2.5 V 10.5 C 12,9.1150001 13.115,8.0000001 14.5,8.0000001 H 37 c 0,-1 0,0 0,-1 z"
     id="path14" />
</svg>
