<?xml version="1.0" encoding="UTF-8" standalone="no"?>
<svg
   xmlns:dc="http://purl.org/dc/elements/1.1/"
   xmlns:cc="http://creativecommons.org/ns#"
   xmlns:rdf="http://www.w3.org/1999/02/22-rdf-syntax-ns#"
   xmlns:svg="http://www.w3.org/2000/svg"
   xmlns="http://www.w3.org/2000/svg"
   xmlns:sodipodi="http://sodipodi.sourceforge.net/DTD/sodipodi-0.dtd"
   xmlns:inkscape="http://www.inkscape.org/namespaces/inkscape"
   width="64"
   height="64"
   version="1"
   id="svg16"
   sodipodi:docname="application-vnd.oasis.opendocument.database.svg"
   inkscape:version="0.92.3 (2405546, 2018-03-11)">
  <metadata
     id="metadata22">
    <rdf:RDF>
      <cc:Work
         rdf:about="">
        <dc:format>image/svg+xml</dc:format>
        <dc:type
           rdf:resource="http://purl.org/dc/dcmitype/StillImage" />
      </cc:Work>
    </rdf:RDF>
  </metadata>
  <defs
     id="defs20" />
  <sodipodi:namedview
     pagecolor="#ffffff"
     bordercolor="#666666"
     borderopacity="1"
     objecttolerance="10"
     gridtolerance="10"
     guidetolerance="10"
     inkscape:pageopacity="0"
     inkscape:pageshadow="2"
     inkscape:window-width="1366"
     inkscape:window-height="704"
     id="namedview18"
     showgrid="false"
     inkscape:zoom="3.6875"
     inkscape:cx="3.3898305"
     inkscape:cy="32"
     inkscape:window-x="0"
     inkscape:window-y="30"
     inkscape:window-maximized="1"
     inkscape:current-layer="svg16" />
  <path
     style="opacity:0.2"
     d="m 14.5,8.0000001 c -1.385,0 -2.5,1.115 -2.5,2.4999999 v 45 c 0,1.385 1.115,2.5 2.5,2.5 h 35 C 50.885,58 52,56.885 52,55.5 V 23 L 38.25,21.75 37,8.0000001 Z"
     id="path2" />
  <path
     fill="#e81d62"
     d="m14.5 7c-1.385 0-2.5 1.115-2.5 2.5v45c0 1.385 1.115 2.5 2.5 2.5h35c1.385 0 2.5-1.115 2.5-2.5v-32.5l-13.75-1.25-1.25-13.75z"
     id="path4"
     style="fill:#e4e4e4;fill-opacity:1" />
  <path
     style="opacity:0.2"
     d="M 37,8.0000001 V 20.5 c 0,1.3808 1.1193,2.5 2.5,2.5 H 52 Z"
     id="path6" />
  <path
     fill="#f0729d"
     d="m37 7v12.5c0 1.3808 1.1193 2.5 2.5 2.5h12.5l-15-15z"
     id="path8"
     style="fill:#fafafa;fill-opacity:1" />
  <path
     fill="#fff"
     d="m32 29c-3.3559 0-6.2224 1.1645-7.4102 2.8125-0.09973 0.13836-0.18842 0.27902-0.26367 0.42383-0.07151 0.13761-0.13349 0.2772-0.18164 0.41992a8 4.5 0 0 0 -0.0332 0.13281c-0.02742 0.09672-0.05795 0.19234-0.07422 0.29102a8 4.5 0 0 0 -0.037 0.42c0.000439 0.14622 0.01542 0.2925 0.04102 0.4375a8 4.5 0 0 0 0.10938 0.42188 8 4.5 0 0 0 0.18359 0.41992 8 4.5 0 0 0 0.25586 0.4082 8 4.5 0 0 0 7.41 2.812 8 4.5 0 0 0 7.4102 -2.8125 8 4.5 0 0 0 0.002 -0.0039 8 4.5 0 0 0 0.2168 -0.34766c0.0127-0.02282 0.02897-0.04544 0.04102-0.06836a8 4.5 0 0 0 0.13086 -0.29883c0.01864-0.04708 0.04264-0.09324 0.05859-0.14062a8 4.5 0 0 0 0.06445 -0.25c0.01541-0.06598 0.03278-0.1309 0.04297-0.19727a8 4.5 0 0 0 0.033 -0.381 8 4.5 0 0 0 -0.043 -0.449c-0.077-0.435-0.266-0.849-0.547-1.239-1.188-1.647-4.054-2.812-7.41-2.812zm-7.4102 9c-0.388 0.52-0.588 1.076-0.59 1.637 0 2.41 3.582 4.363 8 4.363s8-1.953 8-4.363c-0.002-0.561-0.202-1.117-0.59-1.637-1.222 1.647-4.152 2.999-7.41 3-3.258-0.001-6.188-1.353-7.41-3zm0 6c-0.388 0.52-0.588 1.076-0.59 1.637 0 2.41 3.582 4.363 8 4.363s8-1.953 8-4.363c-0.002-0.561-0.202-1.117-0.59-1.637-1.222 1.647-4.152 2.999-7.41 3-3.258-0.001-6.188-1.353-7.41-3z"
     id="path12"
     style="fill:#e81d62;fill-opacity:1" />
  <path
     style="opacity:0.2;fill:#ffffff"
     d="M 14.5,7 C 13.115,7 12,8.1150001 12,9.5000001 V 10.5 C 12,9.1150001 13.115,8.0000001 14.5,8.0000001 H 37 C 37,7 37,8.0000001 37,7 Z"
     id="path14" />
</svg>
