<?xml version="1.0" encoding="UTF-8" standalone="no"?>
<svg
   xmlns:dc="http://purl.org/dc/elements/1.1/"
   xmlns:cc="http://creativecommons.org/ns#"
   xmlns:rdf="http://www.w3.org/1999/02/22-rdf-syntax-ns#"
   xmlns:svg="http://www.w3.org/2000/svg"
   xmlns="http://www.w3.org/2000/svg"
   xmlns:sodipodi="http://sodipodi.sourceforge.net/DTD/sodipodi-0.dtd"
   xmlns:inkscape="http://www.inkscape.org/namespaces/inkscape"
   width="64"
   height="64"
   version="1.1"
   id="svg16"
   sodipodi:docname="application-vnd.oasis.opendocument.graphics.svg"
   inkscape:version="0.92.3 (2405546, 2018-03-11)">
  <metadata
     id="metadata22">
    <rdf:RDF>
      <cc:Work
         rdf:about="">
        <dc:format>image/svg+xml</dc:format>
        <dc:type
           rdf:resource="http://purl.org/dc/dcmitype/StillImage" />
      </cc:Work>
    </rdf:RDF>
  </metadata>
  <defs
     id="defs20" />
  <sodipodi:namedview
     pagecolor="#ffffff"
     bordercolor="#666666"
     borderopacity="1"
     objecttolerance="10"
     gridtolerance="10"
     guidetolerance="10"
     inkscape:pageopacity="0"
     inkscape:pageshadow="2"
     inkscape:window-width="1366"
     inkscape:window-height="704"
     id="namedview18"
     showgrid="false"
     inkscape:zoom="3.6875"
     inkscape:cx="3.3898305"
     inkscape:cy="32"
     inkscape:window-x="0"
     inkscape:window-y="30"
     inkscape:window-maximized="1"
     inkscape:current-layer="svg16" />
  <path
     style="opacity:0.2"
     d="m 14.5,8.0000004 c -1.385,0 -2.5,1.115 -2.5,2.4999996 v 45 c 0,1.385 1.115,2.5 2.5,2.5 h 35 C 50.885,58 52,56.885 52,55.5 V 23 L 38.25,21.75 37,8.0000004 Z"
     id="path2" />
  <path
     fill="#fec006"
     d="m14.5 7c-1.385 0-2.5 1.115-2.5 2.5v45c0 1.385 1.115 2.5 2.5 2.5h35c1.385 0 2.5-1.115 2.5-2.5v-32.5l-13.75-1.25-1.25-13.75z"
     id="path4"
     style="fill:#e4e4e4;fill-opacity:1" />
  <path
     style="opacity:0.2"
     d="M 37,8.0000004 V 20.5 c 0,1.3808 1.1193,2.5 2.5,2.5 H 52 Z"
     id="path6" />
  <path
     fill="#fed861"
     d="m37 7v12.5c0 1.3808 1.1193 2.5 2.5 2.5h12.5l-15-15z"
     id="path8"
     style="fill:#fafafa;fill-opacity:1" />
  <path
     fill="none"
     stroke="#fff"
     stroke-linecap="square"
     stroke-width="3"
     d="m20.533 39.491 1.9232 0.0425c3.7853 0.0825 7.3806 1.0259 8.722 3.108 3.1296 4.8578-3.0691 6.433-5.5596 3.0022-2.3274-3.7656-1.5231-11.589 1.8302-12.498 6.0677-1.3829 7.0725 8.2478 10.808 6.3676 2.8854-1.4522-1.8242-8.0529 0.99852-9.623 1.2098-0.673 3.7407 1.8056 3.7407 1.8056"
     id="path12"
     style="stroke:#fec006;stroke-opacity:1" />
  <path
     style="opacity:0.2;fill:#ffffff"
     d="m 14.5,7.0000004 c -1.385,0 -2.5,1.115 -2.5,2.5 V 10.5 C 12,9.1150004 13.115,8.0000004 14.5,8.0000004 H 37 c 0,-1 0,0 0,-1 z"
     id="path14" />
</svg>
