<?xml version="1.0" encoding="UTF-8" standalone="no"?>
<svg
   xmlns:dc="http://purl.org/dc/elements/1.1/"
   xmlns:cc="http://creativecommons.org/ns#"
   xmlns:rdf="http://www.w3.org/1999/02/22-rdf-syntax-ns#"
   xmlns:svg="http://www.w3.org/2000/svg"
   xmlns="http://www.w3.org/2000/svg"
   xmlns:xlink="http://www.w3.org/1999/xlink"
   xmlns:sodipodi="http://sodipodi.sourceforge.net/DTD/sodipodi-0.dtd"
   xmlns:inkscape="http://www.inkscape.org/namespaces/inkscape"
   width="64"
   height="64"
   version="1"
   id="svg16"
   sodipodi:docname="audio-x-generic.svg"
   inkscape:version="0.92.3 (2405546, 2018-03-11)">
  <metadata
     id="metadata22">
    <rdf:RDF>
      <cc:Work
         rdf:about="">
        <dc:format>image/svg+xml</dc:format>
        <dc:type
           rdf:resource="http://purl.org/dc/dcmitype/StillImage" />
        <dc:title />
      </cc:Work>
    </rdf:RDF>
  </metadata>
  <defs
     id="defs20">
    <linearGradient
       inkscape:collect="always"
       id="linearGradient848">
      <stop
         style="stop-color:#dcdcdc;stop-opacity:1;"
         offset="0"
         id="stop844" />
      <stop
         style="stop-color:#f0f0f0;stop-opacity:1"
         offset="1"
         id="stop846" />
    </linearGradient>
    <linearGradient
       inkscape:collect="always"
       xlink:href="#linearGradient848"
       id="linearGradient850"
       x1="31.118645"
       y1="59.661018"
       x2="32.610168"
       y2="4.8813558"
       gradientUnits="userSpaceOnUse" />
  </defs>
  <sodipodi:namedview
     pagecolor="#ffffff"
     bordercolor="#666666"
     borderopacity="1"
     objecttolerance="10"
     gridtolerance="10"
     guidetolerance="10"
     inkscape:pageopacity="0"
     inkscape:pageshadow="2"
     inkscape:window-width="1366"
     inkscape:window-height="704"
     id="namedview18"
     showgrid="false"
     inkscape:zoom="14.75"
     inkscape:cx="27.883515"
     inkscape:cy="50.833252"
     inkscape:window-x="0"
     inkscape:window-y="30"
     inkscape:window-maximized="1"
     inkscape:current-layer="svg16" />
  <rect
     style="fill:url(#linearGradient850);fill-opacity:1"
     width="56"
     height="56"
     x="4"
     y="4"
     rx="3"
     ry="3"
     id="rect4" />
  <path
     style="opacity:1;fill:#ffffff"
     d="M 7 4 C 5.338 4 4 5.338 4 7 L 4 8 C 4 6.338 5.338 5 7 5 L 57 5 C 58.662 5 60 6.338 60 8 L 60 7 C 60 5.338 58.662 4 57 4 L 7 4 z"
     id="path6" />
  <path
     inkscape:connector-curvature="0"
     style="opacity:0.2;fill:#000000;fill-opacity:1"
     d="M 7,60 C 5.338,60 4,58.662 4,57 v -1 c 0,1.662 1.338,3 3,3 h 50 c 1.662,0 3,-1.338 3,-3 v 1 c 0,1.662 -1.338,3 -3,3 z"
     id="path6-3" />
  <path
     style="color:#4d4d4d;opacity:0.3;fill:#000000;fill-opacity:1;stroke:none;stroke-width:2"
     class="ColorScheme-Text"
     d="M 41.748714,16 26.99363,19.811542 c -1.108536,0.296764 -2.002894,1.476606 -2.002894,2.62317 v 18.179354 c -1.124087,-0.588046 -2.567861,-0.825724 -4.064575,-0.437194 -2.700842,0.701098 -4.391592,2.96629 -3.81264,5.059536 0.578952,2.093246 3.240666,3.26069 5.941504,2.559576 2.154711,-0.559328 3.638739,-2.138722 3.875621,-3.807568 l 0.06298,-17.181756 14.007672,-3.747952 v 13.557014 c -1.1241,-0.588048 -2.56787,-0.825732 -4.064576,-0.437196 -2.700842,0.701102 -4.395788,2.966276 -3.81684,5.059536 0.57895,2.093244 3.240672,3.260692 5.941506,2.559578 2.154716,-0.559334 3.638742,-2.138716 3.875622,-3.80757 l 0.063,-22.364502 c 0,-0.85992 -0.532628,-1.50461 -1.251284,-1.625568 z"
     id="path4"
     inkscape:connector-curvature="0" />
</svg>
