<?xml version="1.0" encoding="UTF-8" standalone="no"?>
<svg
   xmlns:dc="http://purl.org/dc/elements/1.1/"
   xmlns:cc="http://creativecommons.org/ns#"
   xmlns:rdf="http://www.w3.org/1999/02/22-rdf-syntax-ns#"
   xmlns:svg="http://www.w3.org/2000/svg"
   xmlns="http://www.w3.org/2000/svg"
   xmlns:sodipodi="http://sodipodi.sourceforge.net/DTD/sodipodi-0.dtd"
   xmlns:inkscape="http://www.inkscape.org/namespaces/inkscape"
   width="64"
   height="64"
   version="1"
   id="svg20"
   sodipodi:docname="image-svg+xml-compressed.svg"
   inkscape:version="0.92.3 (2405546, 2018-03-11)">
  <metadata
     id="metadata26">
    <rdf:RDF>
      <cc:Work
         rdf:about="">
        <dc:format>image/svg+xml</dc:format>
        <dc:type
           rdf:resource="http://purl.org/dc/dcmitype/StillImage" />
        <dc:title></dc:title>
      </cc:Work>
    </rdf:RDF>
  </metadata>
  <defs
     id="defs24" />
  <sodipodi:namedview
     pagecolor="#ffffff"
     bordercolor="#666666"
     borderopacity="1"
     objecttolerance="10"
     gridtolerance="10"
     guidetolerance="10"
     inkscape:pageopacity="0"
     inkscape:pageshadow="2"
     inkscape:window-width="1366"
     inkscape:window-height="704"
     id="namedview22"
     showgrid="false"
     inkscape:zoom="4.9166667"
     inkscape:cx="16.145017"
     inkscape:cy="21.705797"
     inkscape:window-x="0"
     inkscape:window-y="30"
     inkscape:window-maximized="1"
     inkscape:current-layer="svg20"
     showguides="false" />
  <path
     inkscape:connector-curvature="0"
     style="opacity:0.2;stroke-width:1.39696634"
     d="m 60,13.181818 c 0,-1.544485 -1.2488,-2.787879 -2.8,-2.787879 H 6.8 c -1.5512,0 -2.8,1.243394 -2.8,2.787879 V 52.212121 C 4,53.756606 5.2488,55 6.8,55 H 43.2 L 44.6,39.666667 60,36.878788 Z"
     id="path2"
     sodipodi:nodetypes="sssssscccs" />
  <path
     style="fill:#e4e4e4;stroke-width:1.39696634"
     inkscape:connector-curvature="0"
     d="M 60,11.787879 C 60,10.243394 58.7512,9 57.2,9 H 6.8 C 5.2488,9 4,10.243394 4,11.787879 v 39.030303 c 0,1.544485 1.2488,2.787879 2.8,2.787879 H 43.2 L 44.6,38.272727 60,36.878788 Z"
     id="path4" />
  <path
     style="fill:#7d18ac;stroke-width:1.25;fill-opacity:1"
     inkscape:connector-curvature="0"
     d="m 56.999997,13.5 c 0,-1.385001 -1.115,-2.5 -2.5,-2.5 H 9.5000019 c -1.3849998,0 -2.4999998,1.114999 -2.4999998,2.5 v 35 c 0,1.385 1.115,2.5 2.4999998,2.5 H 44.097348 l 3.946594,-7.483629 8.956055,-5.770006 z"
     id="path4-3"
     sodipodi:nodetypes="sssssscccs" />
  <path
     inkscape:connector-curvature="0"
     style="opacity:0.4;fill:currentColor;stroke-width:1.99999964"
     class="ColorScheme-Text"
     d="m 39.000001,16.988278 v 3.109375 c -0.725999,0.0426 -1.446067,0.08106 -2.230469,0.15626 -2.5578,0.2454 -5.323729,0.657937 -7.769528,1.460938 v -0.726563 h -7.999999 v 7.999997 h 0.253906 c -1.1388,2.708201 -1.839818,5.862649 -2.324219,8.78125 -0.07084,0.426 -0.111201,0.80475 -0.171879,1.21875 H 17 v 7.999997 h 2 l 0.999999,0.02344 v -0.02344 h 5 v -7.999997 h -4.222656 c 0.0462,-0.308001 0.073,-0.582534 0.125,-0.894534 0.520999,-3.138797 1.395974,-6.513265 2.609374,-9.105466 h 5.48828 v -5.101561 c 2.3268,-0.8478 5.255138,-1.38513 7.960937,-1.644528 0.714999,-0.0688 1.371062,-0.103939 2.039062,-0.14454 v 2.890623 h 7.999998 V 16.988281 Z M 31.000002,28.988277 40.601562,46.988271 47,40.238273 Z"
     id="path820" />
  <path
     inkscape:connector-curvature="0"
     style="opacity:0.2;stroke-width:1.39696634"
     d="m 58.6,36.878788 h -14 c -1.54644,0 -2.8,1.248175 -2.8,2.787879 v 13.939394 z"
     id="path8" />
  <path
     style="fill:#fafafa;stroke-width:1.39696634"
     inkscape:connector-curvature="0"
     d="M 60,36.878788 H 46 c -1.54644,0 -2.8,1.248175 -2.8,2.787879 v 13.939394 z"
     id="path10" />
  <path
     style="fill-opacity:0.66666697;fill-rule:evenodd;stroke-width:0.10989089"
     inkscape:connector-curvature="0"
     d="m 28.396333,11.256716 v 19.113271 h -0.02025 v 6.258369 c -0.413493,4.030449 7.67574,4.030449 7.246679,0 v -3.096735 h 0.0024 V 11.256716 h -7.228621 z"
     id="path11" />
  <g
     transform="matrix(1.226878,0,0,1.2161579,-468.98768,-598.40078)"
     style="fill:#ffffff;stroke-width:0.08996344"
     id="g25">
    <rect
       rx="0.087458909"
       style="opacity:0.92900002;stroke-width:0.08996344"
       height="2.197578"
       ry="0.08822985"
       width="4.395155"
       x="406.2309"
       y="502.52133"
       id="rect13" />
    <rect
       rx="0.087458909"
       style="opacity:0.92900002;stroke-width:0.08996344"
       height="2.197578"
       ry="0.08822985"
       width="4.395155"
       x="406.22171"
       y="505.69974"
       id="rect15" />
    <rect
       rx="0.087458909"
       style="opacity:0.92900002;stroke-width:0.08996344"
       height="2.197578"
       ry="0.08822985"
       width="4.395155"
       x="406.19412"
       y="508.83987"
       id="rect17" />
    <rect
       rx="0.087458909"
       style="opacity:0.92900002;stroke-width:0.08996344"
       height="2.197578"
       ry="0.08822985"
       width="4.395155"
       x="406.24228"
       y="512.10864"
       id="rect19" />
    <rect
       rx="0.087458909"
       style="opacity:0.92900002;stroke-width:0.08996344"
       height="2.197578"
       ry="0.08822985"
       width="4.395155"
       x="406.24228"
       y="515.32019"
       id="rect21" />
    <rect
       rx="0.087458909"
       style="opacity:0.92900002;stroke-width:0.08996344"
       height="2.197578"
       ry="0.08822985"
       width="4.395155"
       x="406.24222"
       y="518.60736"
       id="rect23" />
  </g>
  <path
     style="fill-opacity:0.66666697;stroke-width:0.10989089"
     inkscape:connector-curvature="0"
     d="m 34.092175,39.45881 v -1.686573 c 0,-0.469889 -0.383078,-0.850985 -0.855404,-0.850985 h -2.376598 c -0.472323,0 -0.855488,0.381209 -0.855488,0.850985 v 1.685745 l -1.321863,3.86349 c -0.369855,1.076778 -0.192399,2.273117 0.474017,3.200304 C 29.823291,47.447256 30.90391,48 32.048427,48 c 1.14473,0 2.225463,-0.552744 2.891887,-1.478224 0.666431,-0.927187 0.843667,-2.123526 0.47392,-3.199458 z m -0.552109,6.066507 c -0.685737,0.954756 -2.297547,0.954756 -2.983384,0 -0.343724,-0.478309 -0.435235,-1.095251 -0.245291,-1.651192 l 0.443642,-1.295863 h 2.586673 l 0.443751,1.296706 c 0.190029,0.555098 0.0984,1.17204 -0.245391,1.650349 z"
     id="path27" />
  <path
     style="fill:#f0f5f1;stroke-width:0.10989089"
     inkscape:connector-curvature="0"
     d="M 34.092175,38.886271 V 37.1997 c 0,-0.469889 -0.383078,-0.850987 -0.855404,-0.850987 h -2.376598 c -0.472323,0 -0.855488,0.381191 -0.855488,0.850987 v 1.685743 l -1.321863,3.863493 c -0.369855,1.07676 -0.192399,2.273114 0.474017,3.200284 0.666452,0.925497 1.747071,1.478241 2.891588,1.478241 1.14473,0 2.225463,-0.552744 2.891887,-1.478241 0.666431,-0.92717 0.843667,-2.123524 0.47392,-3.199459 z m -0.552109,6.066489 c -0.685737,0.954756 -2.297547,0.954756 -2.983384,0 -0.343724,-0.478271 -0.435235,-1.095232 -0.245291,-1.651175 l 0.443642,-1.29586 h 2.586673 l 0.443751,1.296707 c 0.190029,0.555096 0.0984,1.172057 -0.245391,1.650328 z"
     id="path31" />
</svg>
