<?xml version="1.0" encoding="UTF-8" standalone="no"?>
<svg
   xmlns:dc="http://purl.org/dc/elements/1.1/"
   xmlns:cc="http://creativecommons.org/ns#"
   xmlns:rdf="http://www.w3.org/1999/02/22-rdf-syntax-ns#"
   xmlns:svg="http://www.w3.org/2000/svg"
   xmlns="http://www.w3.org/2000/svg"
   xmlns:xlink="http://www.w3.org/1999/xlink"
   xmlns:sodipodi="http://sodipodi.sourceforge.net/DTD/sodipodi-0.dtd"
   xmlns:inkscape="http://www.inkscape.org/namespaces/inkscape"
   width="64"
   height="64"
   version="1"
   id="svg20"
   sodipodi:docname="image-x-xcf.svg"
   inkscape:version="0.92.3 (2405546, 2018-03-11)">
  <metadata
     id="metadata26">
    <rdf:RDF>
      <cc:Work
         rdf:about="">
        <dc:format>image/svg+xml</dc:format>
        <dc:type
           rdf:resource="http://purl.org/dc/dcmitype/StillImage" />
        <dc:title></dc:title>
      </cc:Work>
    </rdf:RDF>
  </metadata>
  <defs
     id="defs24">
    <linearGradient
       inkscape:collect="always"
       xlink:href="#linearGradient852"
       id="linearGradient854"
       x1="31.9517"
       y1="191.9989"
       x2="339.66656"
       y2="191.9989"
       gradientUnits="userSpaceOnUse" />
    <linearGradient
       inkscape:collect="always"
       id="linearGradient852">
      <stop
         style="stop-color:#925130;stop-opacity:1;"
         offset="0"
         id="stop848" />
      <stop
         style="stop-color:#754127;stop-opacity:1"
         offset="1"
         id="stop850" />
    </linearGradient>
    <linearGradient
       inkscape:collect="always"
       xlink:href="#linearGradient844"
       id="linearGradient846"
       x1="272.83267"
       y1="173.62025"
       x2="370.54828"
       y2="95.383087"
       gradientUnits="userSpaceOnUse" />
    <linearGradient
       inkscape:collect="always"
       id="linearGradient844">
      <stop
         style="stop-color:#0049ff;stop-opacity:1;"
         offset="0"
         id="stop840" />
      <stop
         style="stop-color:#ff0041;stop-opacity:1"
         offset="1"
         id="stop842" />
    </linearGradient>
  </defs>
  <sodipodi:namedview
     pagecolor="#ffffff"
     bordercolor="#666666"
     borderopacity="1"
     objecttolerance="10"
     gridtolerance="10"
     guidetolerance="10"
     inkscape:pageopacity="0"
     inkscape:pageshadow="2"
     inkscape:window-width="1366"
     inkscape:window-height="704"
     id="namedview22"
     showgrid="false"
     inkscape:zoom="6.9532168"
     inkscape:cx="25.070269"
     inkscape:cy="35.030582"
     inkscape:window-x="0"
     inkscape:window-y="30"
     inkscape:window-maximized="1"
     inkscape:current-layer="svg20" />
  <path
     inkscape:connector-curvature="0"
     style="opacity:0.2;stroke-width:1.39696634"
     d="m 60,13.181818 c 0,-1.544485 -1.2488,-2.787879 -2.8,-2.787879 H 6.8 c -1.5512,0 -2.8,1.243394 -2.8,2.787879 V 52.212121 C 4,53.756606 5.2488,55 6.8,55 H 43.2 L 44.6,39.666667 60,36.878788 Z"
     id="path2"
     sodipodi:nodetypes="sssssscccs" />
  <path
     style="fill:#e4e4e4;stroke-width:1.39696634"
     inkscape:connector-curvature="0"
     d="M 60,11.787879 C 60,10.243394 58.7512,9 57.2,9 H 6.8 C 5.2488,9 4,10.243394 4,11.787879 v 39.030303 c 0,1.544485 1.2488,2.787879 2.8,2.787879 H 43.2 L 44.6,38.272727 60,36.878788 Z"
     id="path4" />
  <path
     inkscape:connector-curvature="0"
     style="opacity:0.2;stroke-width:1.39696634"
     d="m 58.6,36.878788 h -14 c -1.54644,0 -2.8,1.248175 -2.8,2.787879 v 13.939394 z"
     id="path8" />
  <path
     style="fill:#fafafa;stroke-width:1.39696634"
     inkscape:connector-curvature="0"
     d="M 60,36.878788 H 46 c -1.54644,0 -2.8,1.248175 -2.8,2.787879 v 13.939394 z"
     id="path10" />
  <ellipse
     cx="25.954935"
     cy="34.206985"
     rx="2.9768078"
     ry="3.9429018"
     style="fill:#ffffff;stroke-width:0.09078124;paint-order:markers fill stroke"
     id="ellipse2" />
  <g
     id="g12"
     style="stroke-width:1.36000001"
     transform="matrix(0.09078125,0,0,0.09078125,14.570058,14.570095)">
    <path
       d="m 211.47,52.615 c -8.6431,14.604 -14.349,30.726 -24.617,44.337 -8.0322,10.651 -16.962,20.867 -28.495,28.628 22.391,-8.2075 49.32,-11.793 66.276,-19.533 0.57904,-0.27624 1.2059,-0.57905 1.8009,-0.8606 -2.6615,-17.876 -7.416,-35.72 -14.965,-52.571 z"
       id="path4-3"
       style="fill:#4b2a19;fill-opacity:1"
       inkscape:connector-curvature="0" />
    <path
       d="m 300.43,43.142 c -7.4107,28.49 -47.539,48.576 -74.467,61.421 -0.1753,0.085 -0.3566,0.16999 -0.5319,0.25499 -0.42498,0.20186 -0.85993,0.40905 -1.269,0.60561 -0.48873,0.22311 -0.98343,0.44158 -1.4881,0.65938 -0.0797,0.0319 -0.15341,0.0637 -0.23309,0.0956 -0.2603,0.11157 -0.52724,0.21714 -0.79286,0.32871 -0.42498,0.1753 -0.85528,0.35194 -1.2909,0.52192 -0.22312,0.085 -0.45023,0.17399 -0.67334,0.25898 -0.47811,0.18593 -0.96286,0.36125 -1.4463,0.54186 l -0.6056,0.22312 c -0.6428,0.22843 -1.2962,0.45819 -1.9603,0.6813 -0.0319,0.0106 -0.0625,0.0252 -0.0996,0.0359 0,0 -0.006,6.7e-4 -0.0119,0.006 -0.72248,0.24438 -1.4596,0.48409 -2.2033,0.72315 -0.14345,0.0425 -0.28687,0.089 -0.43031,0.13148 -0.6056,0.19125 -1.2119,0.37784 -1.8228,0.56377 -0.19654,0.0637 -0.39311,0.12284 -0.58966,0.18128 -0.61623,0.18062 -1.2318,0.36522 -1.8586,0.54584 -0.13812,0.0372 -0.27624,0.0803 -0.41437,0.11754 -1.02,0.29748 -2.0612,0.58369 -3.1077,0.87055 -0.92434,0.24968 -1.8606,0.49935 -2.8009,0.74904 -0.45686,0.12218 -0.91771,0.24038 -1.3746,0.36256 -0.26031,0.0638 -0.52193,0.13148 -0.77692,0.19523 -1.5884,0.40905 -3.1914,0.81943 -4.817,1.2232 -5.0998,1.275 -10.348,2.5486 -15.602,3.9085 -7.4372,1.9284 -14.881,4.044 -21.877,6.6098 -5.4876,2.0134 -10.709,4.2977 -15.437,6.9963 -21.398,12.202 -36.963,28.835 -49.086,48.171 -16.303,26.02 -5.0102,59.472 -49.618,84.36 -0.73841,0.87654 -1.6455,1.6827 -2.6814,2.4423 0.04781,-0.0372 0.09961,-0.0744 0.14742,-0.11156 1.5034,0.86059 2.9231,3.9218 2.9284,9.5104 0.0053,14.37 -6.0029,30.21 -10.757,34.657 -0.23905,0.22312 -0.60693,0.51529 -1.0478,0.81279 15.916,15.501 38.951,26.068 63.881,28.208 12.346,1.3334 29.748,0.70588 37.079,0.69526 62.298,-0.15406 121.66,-29.073 157.33,-70.095 2.6491,-3.2168 13.069,-15.443 13.273,-17.634 16.426,-26.323 34.651,-53.265 35.77,-83.418 h -0.002 c -17.809,5.2848 -36.552,11.198 -55.684,12.979 0.20187,-0.005 0.39378,-0.0109 0.57971,-0.016 0.085,0 0.17597,-0.006 0.26097,-0.006 0.0191,0 0.0369,-2e-5 0.0558,0 -4.8912,0.0535 -14.152,1.9525 -16.359,-0.37651 21.016,-23.486 40.953,-49.107 45.388,-78.585 2.7837,-20.468 -0.72845,-42.584 -13.473,-60.407 z m -15.286,139.37 c 0.0605,7.9e-4 0.12219,3e-5 0.18328,0.002 0.0797,0 0.16468,5.3e-4 0.23906,0.006 0.14343,0.005 0.26961,0.0152 0.40241,0.0259 0.0875,0.005 0.17551,0.0112 0.25897,0.0199 -0.3254,-0.0333 -0.68601,-0.052 -1.0837,-0.0538 z m -155.67,3.1197 c 12.712,-0.016 13.663,19.741 15.06,28.607 2.1143,13.26 4.5686,28.166 -15.029,33.133 -1.3334,0.56842 -6.4804,3.8581 -4.9664,-0.21116 5.5673,-9.6844 -4.0858,-34.137 -18.987,-21.977 -1.4821,-13.801 3.4524,-29.591 17.716,-38.245 2.3321,-0.89778 4.3886,-1.3068 6.2054,-1.3068 z m 174.14,66.999 c -0.62824,0.0227 -2.3416,1.1246 -5.6477,3.8408 -2.2585,1.2327 -3.9643,1.8836 -5.2672,2.0997 0.0365,-0.006 0.0705,-0.009 0.10756,-0.016 0.31874,-0.0638 0.66405,-0.15005 1.0359,-0.26694 0.18062,-0.0585 0.37187,-0.12215 0.57374,-0.19124 0.79153,-0.28689 1.6906,-0.67932 2.7053,-1.2052 0.25499,-0.13286 0.51929,-0.27158 0.7849,-0.42033 0.53122,-0.4303 1.01,-0.81146 1.4562,-1.1674 0.17531,-0.13811 0.32337,-0.251 0.48806,-0.3785 0.26561,-0.20718 0.5259,-0.40243 0.76498,-0.57772 0.14341,-0.11151 0.28156,-0.2072 0.41436,-0.30279 0.21781,-0.1594 0.4263,-0.30348 0.61756,-0.43629 0.15936,-0.10621 0.32804,-0.22244 0.46614,-0.31276 0.0319,-0.0159 0.0651,-0.0377 0.0916,-0.0538 0.20187,-0.12742 0.38115,-0.23372 0.54585,-0.31874 0.0638,-0.0319 0.12875,-0.0691 0.18725,-0.0956 0.0265,-0.0109 0.0532,-0.0273 0.0797,-0.0378 0.0797,-0.0372 0.15405,-0.0631 0.22311,-0.0896 0.0109,0 0.0152,-0.004 0.0259,-0.0104 0.0744,-0.0265 0.14343,-0.043 0.20718,-0.0538 h 0.0219 c 0.0428,-0.005 0.0795,-0.009 0.11754,-0.006 z m -11.391,5.9983 c -0.15706,0.0137 -0.30841,0.0207 -0.45222,0.0199 0.14596,-0.001 0.2929,-0.004 0.45222,-0.0199 z m -251.49,8.5322 c -0.08501,0.0637 -0.17398,0.12086 -0.25898,0.1793 0.085,-0.0584 0.17398,-0.11554 0.25898,-0.1793 z m -8.7813,44.261 v 0.006 c 0.05844,0.0585 0.12284,0.11687 0.18129,0.17531 -0.05845,-0.0584 -0.11754,-0.12285 -0.18129,-0.18127 z"
       id="path6"
       style="fill:url(#linearGradient854);fill-opacity:1"
       inkscape:connector-curvature="0" />
    <path
       d="m 349.33,88.574 c -18.163,3.1661 2.688,22.168 -1.6628,32.538 15.767,-4.388 18.907,-28.166 1.6628,-32.538 z m 7.5382,40.188 c -0.87653,0.0106 -1.838,0.32937 -2.4384,0.76498 -11.336,8.2447 -3.5327,25.759 -11.097,36.033 5.3495,0.30281 10.72,-1.4662 15.443,-3.3521 15.353,-5.0467 9.7162,-25.876 -0.52061,-33.096 -0.36655,-0.25499 -0.8606,-0.36124 -1.3865,-0.35062 z m -23.443,0.79685 c -5.4611,-0.0425 -3.6018,14.317 2.4012,14.556 5.0733,0.20186 5.6258,-8.335 3.4955,-12.096 -0.92965,-1.6309 -4.5048,-2.449 -5.8967,-2.4596 z m 6.2367,39.996 c -17.812,5.2858 -36.559,11.198 -55.694,12.978 h 0.0107 c 0.20187,-0.005 0.39312,-0.0106 0.57905,-0.016 0.085,0 0.1753,-0.005 0.26029,-0.005 0.17531,0 0.34,0 0.51,0.005 0.0797,0 0.16467,0 0.23905,0.005 0.14343,0.005 0.27093,0.016 0.40373,0.0265 0.0957,0.005 0.19125,0.0107 0.28155,0.0213 0.17531,0.0212 0.34,0.0425 0.49405,0.0744 h 0.005 c 0.005,0 0.0107,0 0.016,0.005 0.0744,0.016 0.14875,0.0318 0.2178,0.0532 0.0107,0 0.0212,0.005 0.0319,0.005 0.069,0.0213 0.1328,0.0425 0.19124,0.0637 0.005,0.005 0.0106,0.005 0.0106,0.005 0.0637,0.0265 0.1275,0.0532 0.18063,0.085 0.28155,0.14344 0.44092,0.34531 0.46748,0.61092 0.005,0.0106 0.005,0.0213 0.005,0.0318 0.005,0.0425 0,0.085 -0.005,0.1275 0,0.0213 0,0.0372 -0.005,0.0532 -0.005,0.0478 -0.016,0.0957 -0.0319,0.14344 0,0.0212 -0.005,0.0372 -0.0159,0.0584 -0.016,0.0478 -0.0319,0.0957 -0.0584,0.14875 -0.0106,0.0265 -0.016,0.0478 -0.0318,0.0744 -0.0213,0.0478 -0.0478,0.0956 -0.0744,0.14343 -0.016,0.0318 -0.0372,0.069 -0.0584,0.10089 -0.0319,0.0478 -0.0637,0.10089 -0.0956,0.14875 -0.0265,0.0425 -0.0532,0.0797 -0.085,0.11687 -0.0319,0.0532 -0.0744,0.1009 -0.11687,0.15406 -0.0319,0.0425 -0.069,0.0903 -0.10624,0.13281 -0.0425,0.0532 -0.085,0.10624 -0.13281,0.15936 -0.0425,0.0478 -0.085,0.0957 -0.13281,0.14875 -0.0585,0.0637 -0.11687,0.12218 -0.18062,0.19124 -0.0212,0.0265 -0.0532,0.0532 -0.0797,0.0797 -0.18593,0.19124 -0.40374,0.39843 -0.63748,0.61622 -0.15406,0.13813 -0.33999,0.29749 -0.52061,0.44624 -0.13812,0.12218 -0.2603,0.23375 -0.40905,0.35593 -0.21249,0.17531 -0.45686,0.36655 -0.69059,0.55248 -0.15938,0.12218 -0.30281,0.23905 -0.4728,0.37186 -0.41968,0.32405 -0.87653,0.66404 -1.3706,1.02 -0.55778,0.61092 -1.0571,1.2112 -1.5034,1.8062 -1.3281,1.7956 -2.1462,3.5486 -2.518,5.2433 -0.0584,0.28155 -0.11156,0.5631 -0.14874,0.84465 -0.14343,1.0837 -0.10625,2.1409 0.0903,3.1662 0.005,0.0372 0.005,0.069 0.016,0.10624 0.0532,0.26562 0.11688,0.52592 0.19125,0.78623 0.22312,0.78622 0.53654,1.5565 0.94028,2.3002 0.13281,0.24968 0.27624,0.49936 0.42499,0.74373 h 0.005 c 0.14875,0.24436 0.31343,0.48342 0.48342,0.72778 0.17001,0.23905 0.34531,0.47812 0.53124,0.71185 0.19125,0.23375 0.3878,0.46748 0.58966,0.70123 0.20187,0.22843 0.41436,0.45686 0.63749,0.68529 0.44092,0.45155 0.9084,0.89247 1.4078,1.3228 2.0028,1.7212 4.457,3.2777 7.2088,4.627 -0.13812,0.28686 -0.29749,0.56841 -0.47811,0.86059 -0.0903,0.14343 -0.18593,0.28686 -0.28686,0.4303 -0.1009,0.14875 -0.20718,0.29217 -0.31874,0.44092 -0.2178,0.29217 -0.45686,0.58966 -0.71185,0.88716 -0.255,0.29749 -0.52592,0.59498 -0.81278,0.89777 -0.57374,0.60562 -1.2006,1.2165 -1.8593,1.8328 -0.66405,0.61624 -1.3653,1.2378 -2.0877,1.8646 -1.7956,1.5671 -3.7133,3.1555 -5.4558,4.7386 -2.6136,2.3852 -4.8395,4.7545 -5.6948,7.0229 -0.0584,0.15405 -0.10624,0.3028 -0.15405,0.45686 -0.0425,0.14875 -0.0797,0.29749 -0.11156,0.44624 -0.0637,0.29749 -0.10089,0.59498 -0.11155,0.89246 -0.005,0.29218 0.016,0.58436 0.069,0.87653 0.0265,0.14344 0.0584,0.28687 0.1009,0.4303 0.0425,0.14344 0.0956,0.28687 0.15405,0.4303 0.11688,0.28686 0.26561,0.56842 0.45155,0.84466 0.0957,0.13811 0.19655,0.27624 0.30812,0.41436 0.11156,0.13812 0.23373,0.27625 0.36655,0.41436 0.26029,0.27093 0.55779,0.54186 0.89778,0.80747 0.16999,0.13281 0.35061,0.26562 0.54186,0.39843 0.37717,0.2603 0.80215,0.5206 1.2696,0.77559 0.46218,0.255 0.97747,0.50999 1.53,0.75435 0.46749,0.21249 0.97747,0.41436 1.514,0.61623 0.1009,0.0372 0.19656,0.0797 0.29749,0.11688 0.65342,0.23905 1.3546,0.4781 2.1037,0.70653 0.36655,0.0265 0.70654,0.0744 1.0253,0.13812 0.0319,0.005 0.0637,0.0106 0.0904,0.016 h 0.005 c 0.0372,0.005 0.0744,0.016 0.11155,0.0265 0.30281,0.069 0.58968,0.14875 0.85529,0.24968 0.14875,0.0532 0.29217,0.11688 0.4303,0.18062 0.13812,0.0637 0.27093,0.13812 0.39842,0.21249 0.255,0.14875 0.48343,0.31343 0.70122,0.49404 0.10625,0.0904 0.20719,0.18594 0.30281,0.28157 0.10089,0.10089 0.19125,0.20186 0.28155,0.30811 0.085,0.10624 0.16999,0.21249 0.24968,0.32405 0.0797,0.11687 0.15406,0.22843 0.22844,0.35061 0.21249,0.35592 0.3931,0.73841 0.54184,1.1422 0.1275,0.3453 0.23375,0.71185 0.31875,1.089 0.016,0.0637 0.0372,0.12219 0.0478,0.18593 0.069,0.29218 0.12218,0.59498 0.16468,0.9031 0.0478,0.30811 0.085,0.61622 0.11687,0.93497 0.0265,0.31873 0.0532,0.63747 0.069,0.95622 v 0.0319 c 0.0372,0.63217 0.0532,1.275 0.0637,1.9071 0.0106,0.64279 0.016,1.2803 0.0319,1.8965 0.0213,0.92434 0.0637,1.8062 0.17531,2.5977 0.0372,0.2603 0.0797,0.50998 0.1328,0.75435 0.0265,0.11686 0.0585,0.23905 0.0903,0.35061 0.0319,0.11687 0.0637,0.22311 0.1009,0.33468 0.0372,0.10624 0.0797,0.20718 0.12217,0.30811 0.0425,0.1009 0.0904,0.19656 0.13813,0.29218 0.016,0.0319 0.0372,0.0584 0.0532,0.085 0.085,0.15406 0.18062,0.29749 0.28156,0.42499 0.0637,0.0744 0.13281,0.14875 0.20187,0.21781 0.2178,0.20187 0.46216,0.36654 0.75435,0.48342 0.28686,0.11687 0.62153,0.18593 0.99871,0.20717 0.255,0.0107 0.52592,0 0.82341,-0.0372 0.14874,-0.016 0.3028,-0.0425 0.46217,-0.069 0.31874,-0.0637 0.66404,-0.14875 1.0359,-0.26561 0.18062,-0.0584 0.37186,-0.12219 0.57374,-0.19125 0.79153,-0.28686 1.6893,-0.67997 2.704,-1.2059 0.25499,-0.13281 0.5206,-0.27093 0.78621,-0.41968 0.53124,-0.43029 1.0093,-0.81278 1.4556,-1.1687 0.1753,-0.13813 0.32405,-0.24969 0.48873,-0.37718 0.26562,-0.20718 0.52592,-0.40373 0.76497,-0.57904 0.14344,-0.11156 0.28156,-0.20718 0.41436,-0.30281 0.21781,-0.15936 0.42499,-0.30279 0.61624,-0.4356 0.15937,-0.10626 0.32936,-0.22312 0.46748,-0.31343 0.0319,-0.016 0.0637,-0.0372 0.0903,-0.0532 0.20186,-0.1275 0.38249,-0.23375 0.54717,-0.31875 0.0637,-0.0318 0.12749,-0.069 0.18593,-0.0956 0.0265,-0.0107 0.0532,-0.0265 0.0797,-0.0372 0.0797,-0.0372 0.15407,-0.0637 0.22313,-0.0903 0.0106,0 0.016,-0.005 0.0265,-0.0106 0.0744,-0.0265 0.14344,-0.0425 0.20718,-0.0532 h 0.0213 c 0.0478,-0.005 0.0903,-0.0106 0.1328,-0.005 0.0106,0 0.0213,0.005 0.0318,0.005 0.0319,0.005 0.0584,0.016 0.0797,0.0319 0.0106,0.005 0.016,0.0106 0.0212,0.016 0.0265,0.016 0.0425,0.0425 0.0584,0.069 0,0.005 0.005,0.0106 0.005,0.016 0.016,0.0318 0.0212,0.0744 0.0212,0.12218 0,0.0532 -0.005,0.11156 -0.016,0.17531 16.442,-26.354 34.711,-53.325 35.832,-83.515 z"
       id="path8-6"
       style="fill:url(#linearGradient846);fill-opacity:1"
       inkscape:connector-curvature="0" />
    <path
       d="m 41.681,266.66 c -10.832,8.0907 -32.952,8.096 -23.735,25.207 4.9511,7.6497 8.76,13.839 14.853,19.772 0.44092,-0.29749 0.80747,-0.58967 1.0518,-0.81279 4.7492,-4.4517 10.763,-20.288 10.752,-34.663 0,-5.5886 -1.4237,-8.6431 -2.9218,-9.5037 z"
       id="path10-7"
       style="fill:#4b2819;fill-opacity:1"
       inkscape:connector-curvature="0" />
  </g>
  <path
     d="m 28.311616,40.425503 c -0.02794,-0.0023 -0.05861,0.0092 -0.07979,0.0305 -0.02117,0.02127 -0.03516,0.04981 -0.04574,0.08617 -6.28e-4,0.0023 -0.0011,0.0047 -0.0014,0.0071 -0.0089,0.07419 -0.02743,0.11482 -0.06755,0.171104 -0.03983,0.05586 -0.102555,0.125515 -0.19025,0.239544 -0.815688,0.851229 -1.641507,1.895331 -2.436024,2.541149 -0.0017,0.0014 -0.0032,0.0028 -0.0046,0.0044 -0.01791,0.01963 -0.08101,0.06643 -0.164359,0.117734 -0.08335,0.0513 -0.188907,0.110399 -0.301249,0.168799 -0.224674,0.116799 -0.478362,0.230766 -0.632636,0.274114 -0.01534,0.0043 -0.02718,0.01646 -0.03103,0.03191 -0.0075,0.02981 0.01694,0.058 0.04752,0.05479 0.650257,-0.06652 0.959104,-0.09604 1.73601,-0.734766 6.29e-4,-5.44e-4 0.0013,-0.0011 0.002,-0.0016 0.851483,-0.783224 1.5943,-1.697065 2.386186,-2.545234 0.0048,-0.0052 0.0082,-0.01146 0.0101,-0.01826 0.0152,-0.05371 0.0059,-0.113104 -0.01294,-0.172167 -0.01877,-0.05905 -0.04831,-0.117252 -0.08351,-0.164005 -0.0352,-0.04675 -0.0748,-0.08669 -0.130671,-0.09132 z"
     dominant-baseline="auto"
     style="color:#000000;font-variant-ligatures:normal;font-variant-position:normal;font-variant-caps:normal;font-variant-numeric:normal;font-variant-alternates:normal;font-feature-settings:normal;text-indent:0;text-decoration:none;text-decoration-line:none;text-decoration-style:solid;text-decoration-color:#000000;text-transform:none;text-orientation:mixed;dominant-baseline:auto;white-space:normal;shape-padding:0;isolation:auto;mix-blend-mode:normal;solid-color:#000000;fill-rule:evenodd;stroke-width:0.09078124;color-rendering:auto;image-rendering:auto;shape-rendering:auto"
     id="path14"
     inkscape:connector-curvature="0" />
  <path
     d="m 43.14096,22.442872 c -0.01124,0.284367 -0.03607,0.567244 -0.07407,0.846716 -0.402688,2.67605 -2.212589,5.001933 -4.120425,7.134045 0.08326,0.08785 0.277641,0.109114 0.507588,0.103994 1.711884,-1.97422 3.246133,-4.120221 3.612776,-6.557152 0.06824,-0.501807 0.09444,-1.014549 0.07407,-1.527577 z m 2.264266,7.51941 c -0.01983,0.0059 -0.04038,0.01192 -0.06024,0.01782 -0.0028,0.02116 -0.0049,0.04244 -0.0078,0.06357 -0.0081,0.05771 -0.01773,0.115277 -0.02713,0.172741 -0.0043,0.02606 -0.0077,0.05231 -0.01223,0.07833 0,4.54e-4 -6.3e-5,8.57e-4 -1.82e-4,0.0012 -0.01441,0.08296 -0.03026,0.165687 -0.04721,0.248139 -0.01715,0.08345 -0.03555,0.166647 -0.05518,0.249603 -0.01937,0.08179 -0.03989,0.163372 -0.06157,0.244687 -6.8e-5,7.43e-4 -2.73e-4,0.0014 -5.45e-4,0.0021 -0.02167,0.08118 -0.04447,0.162221 -0.06835,0.242957 -2.72e-4,8.57e-4 -3.63e-4,0.0015 -6.29e-4,0.0023 -0.02388,0.08065 -0.04875,0.16101 -0.07474,0.241228 -1.82e-4,9.14e-4 -5.45e-4,0.002 -8.58e-4,0.0028 -0.02596,0.08008 -0.0529,0.159969 -0.08085,0.239629 -4.54e-4,9.71e-4 -7.43e-4,0.0021 -0.0011,0.003 -0.02794,0.07954 -0.05689,0.158906 -0.0867,0.238036 -4.54e-4,0.0011 -8.57e-4,0.0021 -0.0012,0.0032 -0.02982,0.07906 -0.06069,0.157912 -0.09229,0.236571 -4.53e-4,0.0012 -9.71e-4,0.0023 -0.0014,0.0036 -0.06363,0.158273 -0.130725,0.315851 -0.200935,0.472612 -0.02745,0.0613 -0.05753,0.121901 -0.08591,0.182981 -0.410299,0.883278 -0.912011,1.744633 -1.435387,2.59312 -0.0015,0.0025 -0.003,0.0049 -0.0045,0.0073 -0.278328,0.451104 -0.561941,0.898735 -0.840044,1.344425 -0.01269,0.135682 -0.454556,0.692026 -0.811993,1.126755 0.06004,-0.02379 0.124496,-0.05214 0.19734,-0.0899 0.02315,-0.01206 0.04716,-0.02466 0.07128,-0.03816 0.04822,-0.03906 0.09167,-0.07381 0.132181,-0.106119 0.01591,-0.01254 0.02933,-0.0226 0.04428,-0.03418 0.02411,-0.01881 0.04771,-0.03675 0.06942,-0.05266 0.01302,-0.01013 0.02558,-0.01872 0.03763,-0.0274 0.01977,-0.01447 0.03876,-0.02743 0.05612,-0.0395 0.01447,-0.0096 0.02975,-0.02039 0.04229,-0.02859 0.0029,-0.0014 0.0059,-0.0032 0.0084,-0.0046 0.01833,-0.01157 0.03452,-0.02127 0.04947,-0.02899 0.0058,-0.0029 0.01171,-0.0062 0.01702,-0.0086 0.0025,-9.72e-4 0.0048,-0.0025 0.0072,-0.0034 0.0072,-0.0034 0.01408,-0.0057 0.02034,-0.0081 9.71e-4,0 0.0013,-6.29e-4 0.0023,-0.0011 0.0068,-0.0025 0.0131,-0.0039 0.01888,-0.005 h 0.002 c 0.0034,-3.64e-4 0.0062,-4.55e-4 0.0093,-3.64e-4 -0.05787,0.0032 -0.212972,0.103442 -0.511311,0.348538 -0.105165,0.0574 -0.195216,0.09883 -0.2754,0.129786 -0.166008,0.201896 -0.315388,0.379905 -0.391631,0.472475 -3.237422,3.72396 -8.626493,6.349218 -14.282391,6.363175 -0.66552,9.71e-4 -2.245338,0.05801 -3.366101,-0.06303 -2.263248,-0.194275 -4.354303,-1.153504 -5.799155,-2.560704 0.01203,-0.0081 0.02202,-0.0158 0.03272,-0.02368 -0.547624,-0.535823 -0.89252,-1.095047 -1.339368,-1.785439 -0.05516,-0.102401 -0.09718,-0.197537 -0.128723,-0.287104 -0.115106,0.238729 -0.09867,0.545804 0.128723,0.967977 0.446835,0.690392 0.791704,1.249581 1.33925,1.785419 -0.0107,0.0079 -0.02068,0.01555 -0.03272,0.02367 1.444852,1.4072 3.535907,2.366463 5.799152,2.56078 1.120763,0.121043 2.700629,0.064 3.366101,0.06303 5.655423,-0.01398 11.044901,-2.639214 14.282388,-6.363243 0.240486,-0.292021 1.186329,-1.40189 1.204916,-1.600837 0.278097,-0.44567 0.561709,-0.893355 0.840044,-1.344425 0.0015,-0.0025 0.003,-0.0049 0.0045,-0.0073 0.523349,-0.848487 1.025102,-1.709843 1.435388,-2.593121 0.02837,-0.06108 0.05845,-0.121684 0.0859,-0.182982 0.07021,-0.156767 0.137302,-0.314339 0.200935,-0.472612 4.54e-4,-0.0012 9.72e-4,-0.0023 0.0014,-0.0036 0.03159,-0.07866 0.06247,-0.157517 0.09229,-0.236571 3.62e-4,-0.0011 7.43e-4,-0.0021 0.0012,-0.0032 0.02982,-0.07913 0.05877,-0.158497 0.0867,-0.238035 3.64e-4,-9.71e-4 6.29e-4,-0.0021 0.0011,-0.003 0.02795,-0.07966 0.0549,-0.159539 0.08085,-0.239628 2.72e-4,-8.58e-4 6.29e-4,-0.0019 8.58e-4,-0.0028 0.02598,-0.08022 0.05086,-0.160574 0.07474,-0.241229 2.73e-4,-7.43e-4 4.54e-4,-0.0014 6.29e-4,-0.0023 0.02388,-0.08073 0.04668,-0.161772 0.06835,-0.242957 2.72e-4,-7.43e-4 3.63e-4,-0.0014 5.44e-4,-0.0021 0.02169,-0.08132 0.0422,-0.162903 0.06157,-0.244687 0.01964,-0.08296 0.03803,-0.166151 0.05518,-0.249603 0.01694,-0.08246 0.0328,-0.16519 0.04721,-0.24814 6.7e-5,-3.63e-4 1.81e-4,-7.43e-4 1.81e-4,-0.0012 0.0045,-0.02601 0.008,-0.05227 0.01223,-0.07832 0.0094,-0.05747 0.01901,-0.115031 0.02713,-0.172741 0.02359,-0.167676 0.04181,-0.33629 0.05413,-0.506124 7e-6,-6.8e-5 -1e-5,-3.62e-4 0,-4.53e-4 0.0062,-0.08498 0.01092,-0.170181 0.0141,-0.255717 z M 26.324142,30.74105 c -0.164931,0 -0.351596,0.03711 -0.563303,0.118618 -1.264696,0.767329 -1.721144,2.152606 -1.61636,3.384076 0.08768,-1.032932 0.581134,-2.075124 1.61636,-2.703217 0.211707,-0.0815 0.398372,-0.118618 0.563303,-0.118618 1.154057,-0.0014 1.240322,1.79209 1.367165,2.597002 0.04287,0.268871 0.08614,0.54496 0.109442,0.817031 0.05438,-0.475172 -0.02994,-0.999297 -0.109442,-1.497891 -0.126837,-0.804912 -0.213122,-2.598432 -1.367165,-2.597001 z m 15.807512,6.082389 c -0.003,-6.9e-5 -0.0059,3.6e-5 -0.0093,4.53e-4 h -0.002 c -0.0058,9.71e-4 -0.01213,0.0025 -0.01888,0.005 -9.71e-4,4.54e-4 -0.0013,0.0011 -0.0023,0.0011 -0.0062,0.0025 -0.01311,0.0047 -0.02034,0.0081 -0.0025,9.72e-4 -0.0048,0.0025 -0.0072,0.0034 -0.0053,0.0025 -0.01123,0.0057 -0.01702,0.0086 -0.01495,0.0077 -0.03114,0.01742 -0.04947,0.02899 -0.0025,0.0014 -0.0055,0.0032 -0.0084,0.0046 -0.01254,0.0082 -0.02782,0.01895 -0.04229,0.02859 -0.01737,0.01205 -0.03634,0.02503 -0.05612,0.0395 -0.01205,0.0087 -0.02461,0.01727 -0.03763,0.02739 -0.02171,0.01591 -0.0453,0.03385 -0.06941,0.05266 -0.01495,0.01157 -0.02837,0.02164 -0.04428,0.03417 -0.04051,0.03231 -0.08396,0.06706 -0.132182,0.106119 -0.02411,0.01351 -0.04813,0.0261 -0.07128,0.03817 -0.09094,0.04714 -0.171501,0.0823 -0.242692,0.108243 0.09058,-0.03198 0.194835,-0.07854 0.319419,-0.146541 0.298331,-0.245102 0.453444,-0.345325 0.511311,-0.348539 z m -23.86344,1.319028 c -0.0077,0.0058 -0.01582,0.01091 -0.02354,0.01622 0.0077,-0.0053 0.01582,-0.01043 0.02354,-0.01622 z m -0.797082,4.01816 c 0.0058,0.0053 0.01105,0.01105 0.01636,0.01636 -0.0053,-0.0053 -0.01105,-0.01051 -0.01636,-0.01582 z m 0,0.680859 v 5.45e-4 c 0.0053,0.0053 0.01105,0.01051 0.01636,0.01582 -0.0053,-0.0053 -0.01057,-0.01105 -0.01636,-0.01636 z"
     id="path16"
     inkscape:connector-curvature="0"
     style="opacity:0.3;stroke-width:0.12346023" />
  <path
     d="m 41.843923,18.486603 -2.72e-4,1.81e-4 c 5.7e-5,8.1e-5 6.8e-5,1.81e-4 9.1e-5,2.72e-4 3.5e-5,-1.81e-4 6.7e-5,-2.72e-4 1.81e-4,-3.63e-4 z m -1.81e-4,3.62e-4 c -0.670246,2.575487 -4.284784,4.393791 -6.728934,5.560442 -0.243576,-1.598862 -0.672124,-3.193707 -1.347352,-4.700993 -0.784623,1.325702 -1.302553,2.789345 -2.234717,4.0249 -0.680091,0.901866 -1.431234,1.769144 -2.378786,2.453476 -0.08415,0.02905 -0.167669,0.05871 -0.250536,0.0891 -0.498171,0.182776 -0.972268,0.390125 -1.401481,0.635112 -1.942561,1.107757 -3.355548,2.61763 -4.456021,4.37309 -1.480052,2.362105 -0.454779,5.398942 -4.504293,7.658307 -0.06703,0.07957 -0.149449,0.152716 -0.243489,0.221681 0.0043,-0.0034 0.0091,-0.0067 0.01343,-0.0101 0.0039,0.0022 0.0077,0.0052 0.01157,0.0077 -0.720825,0.516956 -1.948142,0.6684 -2.252282,1.299217 -7.5e-5,-1.81e-4 -1.91e-4,-4.54e-4 -2.63e-4,-7.43e-4 -0.0072,0.01492 -0.01394,0.03015 -0.02008,0.04562 -1.18e-4,2.72e-4 -1.55e-4,6.29e-4 -2.64e-4,9.15e-4 -0.0042,0.01067 -0.0079,0.02164 -0.01157,0.03258 -0.0052,0.01523 -0.0098,0.03078 -0.01397,0.04654 -0.0038,0.01464 -0.0072,0.02955 -0.01011,0.04468 -0.0033,0.01698 -0.006,0.03426 -0.0081,0.05186 -0.0015,0.01296 -0.0028,0.02605 -0.0037,0.03936 -0.0015,0.02117 -0.0019,0.0428 -0.0016,0.06489 1.36e-4,0.0093 7.5e-5,0.01837 5.36e-4,0.02779 0.0013,0.02763 0.0042,0.05627 0.0082,0.08537 0.0011,0.0081 0.0022,0.01621 0.0036,0.02446 0.005,0.03077 0.01176,0.06249 0.01995,0.09495 0.0019,0.0076 0.004,0.01529 0.0061,0.023 0.0087,0.03211 0.01909,0.06512 0.03099,0.09894 1.8e-5,3.5e-5 -1.9e-5,6.7e-5 0,1.81e-4 7.5e-5,1.81e-4 2.09e-4,2.72e-4 2.63e-4,4.54e-4 0.30412,-0.630816 1.531457,-0.782239 2.252283,-1.299216 -0.0039,-0.0025 -0.0077,-0.0055 -0.01157,-0.0077 -0.0043,0.0034 -0.0091,0.0067 -0.01343,0.0101 0.09404,-0.06898 0.176448,-0.142112 0.243486,-0.221691 4.049547,-2.259363 3.02424,-5.296268 4.504292,-7.658305 1.100542,-1.755392 2.513529,-3.265333 4.45602,-4.373092 0.429214,-0.244986 0.903297,-0.452336 1.401482,-0.635112 0.08286,-0.03039 0.166381,-0.06005 0.250535,-0.0891 0.947484,-0.684331 1.698677,-1.551679 2.378787,-2.453477 0.932233,-1.235555 1.450094,-2.699198 2.234717,-4.0249 0.675235,1.507287 1.103809,3.102132 1.347352,4.700993 2.444081,-1.166584 6.058491,-2.984818 6.728934,-5.560169 -6.9e-5,-9.1e-5 -1.83e-4,-2.73e-4 -2.74e-4,-3.63e-4 l 4.55e-4,-2.72e-4 c -5.7e-5,1.81e-4 -6.8e-5,4.53e-4 -1.81e-4,6.28e-4 0.846103,1.18347 1.242364,2.575418 1.296014,3.96478 0.0015,-0.03652 0.0032,-0.07301 0.0043,-0.109577 3.6e-5,-0.0013 9.1e-5,-0.0026 9.1e-5,-0.0039 4.7e-5,-0.0018 1.81e-4,-0.0034 1.81e-4,-0.0052 0.0017,-0.06222 0.0026,-0.124501 0.0029,-0.186834 0.0081,-1.512298 -0.381033,-3.050223 -1.303543,-4.340451 z m 3.561235,11.475884 c -0.01983,0.0059 -0.04039,0.01191 -0.06024,0.01782 v 9.1e-5 c -0.150484,0.04473 -0.304623,0.08998 -0.456522,0.13524 -0.236463,0.07048 -0.470999,0.140863 -0.710682,0.210508 -6.8e-5,2.6e-5 -1.81e-4,9e-5 -2.72e-4,9e-5 -0.206913,0.06013 -0.415005,0.119437 -0.624076,0.177133 -6.8e-5,2.5e-5 -1.81e-4,0 -2.72e-4,0 -0.104492,0.02883 -0.209236,0.0572 -0.31423,0.08511 -6.8e-5,3.5e-5 -3.63e-4,1.82e-4 -4.54e-4,1.82e-4 -0.104955,0.02789 -0.210257,0.05529 -0.315694,0.08205 -6.9e-5,3.4e-5 -3.64e-4,1.82e-4 -4.55e-4,1.82e-4 -0.02186,0.0055 -0.04382,0.01073 -0.06569,0.01622 -0.28065,0.07046 -0.562853,0.136335 -0.846581,0.195747 -0.01451,0.003 -0.02896,0.0064 -0.04348,0.0094 -1.81e-4,3.8e-5 -3.63e-4,0 -5.45e-4,0 -0.01876,0.0039 -0.03762,0.0072 -0.05638,0.01104 -0.51603,0.105097 -1.036608,0.188386 -1.560393,0.237102 h 0.0011 c 0.01828,-4.54e-4 0.03569,-9.71e-4 0.05253,-0.0014 0.0077,0 0.01595,-2.72e-4 0.02367,-2.72e-4 h 0.0019 c -0.259584,0.0033 -0.652257,0.06239 -0.974446,0.06955 -4.2e-5,4.8e-5 -6.9e-5,6.8e-5 -9e-5,9.1e-5 -0.167956,0.193691 -0.337006,0.386388 -0.507453,0.576873 0.199956,0.21097 1.037154,0.03988 1.481959,0.03431 h -0.0018 c -0.0077,0 -0.01595,4.54e-4 -0.02367,4.54e-4 -0.01684,4.54e-4 -0.03426,9.71e-4 -0.05253,0.0014 h -9.14e-4 c 0.523791,-0.04871 1.04437,-0.132141 1.560393,-0.237238 0.01877,-0.0038 0.03763,-0.0072 0.05638,-0.01104 1.82e-4,0 3.63e-4,3.7e-5 5.45e-4,0 0.01452,-0.003 0.02897,-0.0064 0.04348,-0.0094 0.2837,-0.05941 0.565902,-0.125285 0.846581,-0.195748 0.02187,-0.0055 0.04384,-0.01067 0.06569,-0.01622 6.9e-5,0 1.82e-4,-6.8e-5 2.73e-4,-9.1e-5 0.105437,-0.02676 0.21074,-0.05415 0.315695,-0.08205 6.7e-5,0 3.63e-4,3.6e-5 4.53e-4,0 0.104995,-0.02791 0.209739,-0.05627 0.314231,-0.08511 6.8e-5,0 1.81e-4,-1.82e-4 2.72e-4,-1.82e-4 0.209078,-0.0577 0.417162,-0.116999 0.624076,-0.177132 6.8e-5,0 1.81e-4,2.7e-5 2.72e-4,0 0.239649,-0.06965 0.474184,-0.140033 0.710681,-0.210508 0.151899,-0.04526 0.306039,-0.09052 0.456523,-0.13524 v -1.81e-4 c 9e-5,-3.9e-5 2.72e-4,-6.8e-5 3.63e-4,-9.1e-5 0.03057,-0.230893 0.05151,-0.463638 0.06024,-0.698697 z m -4.948759,1.176322 c 0.0055,6.8e-5 0.01108,-4e-6 0.01662,9e-5 0.0072,0 0.01493,2.5e-5 0.02167,5.45e-4 0.01302,4.53e-4 0.02452,0.0014 0.03657,0.0023 0.0079,4.54e-4 0.01596,9.14e-4 0.02354,0.0018 -0.02954,-0.003 -0.0623,-0.0046 -0.0984,-0.0048 z m 0,0.680859 c 0.03611,9e-5 0.06886,0.0018 0.0984,0.0048 -0.0075,-8.57e-4 -0.01559,-0.0013 -0.02354,-0.0018 -0.01205,-9.72e-4 -0.02355,-0.002 -0.03657,-0.0023 -0.0068,-4.54e-4 -0.01444,-5.44e-4 -0.02167,-5.44e-4 -0.0055,-1.82e-4 -0.01113,-6.5e-5 -0.01662,-1.82e-4 z m -22.187845,6.322664 c -0.0077,0.0058 -0.01582,0.01091 -0.02354,0.01622 0.0077,-0.0053 0.01582,-0.01043 0.02354,-0.01622 z m 23.077729,0.519557 c -0.0025,9.72e-4 -0.0052,0.0021 -0.0077,0.003 -0.0121,0.0047 -0.02537,0.01079 -0.03697,0.01502 0.01406,-0.005 0.02694,-0.0087 0.04175,-0.01449 8.57e-4,-9.71e-4 0.0011,-0.0013 0.0018,-0.0023 3.62e-4,-4.54e-4 7.43e-4,-9.14e-4 0.0011,-0.0013 z m -23.077729,0.161302 c -0.0077,0.0058 -0.01582,0.01093 -0.02354,0.01623 0.0077,-0.0053 0.01582,-0.01045 0.02354,-0.01623 z"
     id="path18"
     inkscape:connector-curvature="0"
     style="opacity:0.1;fill:#ffffff;stroke-width:0.12346023" />
  <ellipse
     cx="24.703968"
     cy="35.741188"
     rx="0.39259258"
     ry="0.49848887"
     style="opacity:0.3;fill:#070707;stroke-width:0.09078124;paint-order:markers fill stroke"
     id="ellipse20" />
  <ellipse
     cx="24.703968"
     cy="35.468845"
     rx="0.39259258"
     ry="0.49848887"
     style="fill:#ffffff;stroke-width:0.09078124;paint-order:markers fill stroke"
     id="ellipse22" />
</svg>
