<?xml version="1.0" encoding="UTF-8" standalone="no"?>
<svg
   xmlns:dc="http://purl.org/dc/elements/1.1/"
   xmlns:cc="http://creativecommons.org/ns#"
   xmlns:rdf="http://www.w3.org/1999/02/22-rdf-syntax-ns#"
   xmlns:svg="http://www.w3.org/2000/svg"
   xmlns="http://www.w3.org/2000/svg"
   xmlns:xlink="http://www.w3.org/1999/xlink"
   xmlns:sodipodi="http://sodipodi.sourceforge.net/DTD/sodipodi-0.dtd"
   xmlns:inkscape="http://www.inkscape.org/namespaces/inkscape"
   width="64"
   height="64"
   version="1"
   id="svg26"
   sodipodi:docname="video-x-generic.svg"
   inkscape:version="0.92.4 5da689c313, 2019-01-14">
  <metadata
     id="metadata32">
    <rdf:RDF>
      <cc:Work
         rdf:about="">
        <dc:format>image/svg+xml</dc:format>
        <dc:type
           rdf:resource="http://purl.org/dc/dcmitype/StillImage" />
        <dc:title></dc:title>
      </cc:Work>
    </rdf:RDF>
  </metadata>
  <defs
     id="defs30">
    <linearGradient
       inkscape:collect="always"
       id="linearGradient824">
      <stop
         style="stop-color:#0083d7;stop-opacity:1;"
         offset="0"
         id="stop820" />
      <stop
         style="stop-color:#00cc00;stop-opacity:1"
         offset="1"
         id="stop822" />
    </linearGradient>
    <linearGradient
       inkscape:collect="always"
       xlink:href="#linearGradient824"
       id="linearGradient826"
       x1="23.326996"
       y1="40.420635"
       x2="24.30724"
       y2="4.2099466"
       gradientUnits="userSpaceOnUse"
       gradientTransform="matrix(1.4,0,0,1.4285714,-1.6,-3.4285714)" />
    <linearGradient
       inkscape:collect="always"
       xlink:href="#linearGradient824"
       id="linearGradient834"
       x1="22.961231"
       y1="40.315289"
       x2="23.758593"
       y2="4.2874856"
       gradientUnits="userSpaceOnUse"
       gradientTransform="matrix(1.4,0,0,1.4285714,-1.6,-1.1428559)" />
  </defs>
  <sodipodi:namedview
     pagecolor="#ffffff"
     bordercolor="#666666"
     borderopacity="1"
     objecttolerance="10"
     gridtolerance="10"
     guidetolerance="10"
     inkscape:pageopacity="0"
     inkscape:pageshadow="2"
     inkscape:window-width="1366"
     inkscape:window-height="712"
     id="namedview28"
     showgrid="false"
     inkscape:zoom="3.8664592"
     inkscape:cx="14.802074"
     inkscape:cy="30.088775"
     inkscape:window-x="0"
     inkscape:window-y="25"
     inkscape:window-maximized="1"
     inkscape:current-layer="svg26" />
  <rect
     style="fill:#000000;fill-opacity:1;stroke-width:1.3982532"
     width="55.860348"
     height="56"
     x="-60"
     y="-60"
     rx="2.7930174"
     ry="2.8"
     transform="matrix(0,-1,-1,0,0,0)"
     id="rect2" />
  <path
     style="opacity:0.2;stroke-width:1.3982532"
     d="M 6.8,60 C 5.2488,60 4,58.754314 4,57.206983 v -1.396509 c 0,1.547331 1.2488,2.793017 2.8,2.793017 h 50.4 c 1.5512,0 2.8,-1.245686 2.8,-2.793017 v 1.396509 C 60,58.754314 58.7512,60 57.2,60 Z"
     id="path6"
     inkscape:connector-curvature="0" />
  <path
     style="fill:#ffffff;stroke-width:1.3982532"
     d="m 6.8,6.9326683 v 5.5860347 h 5.6 V 6.9326683 Z m 44.8,0 v 5.5860347 h 5.6 V 6.9326683 Z M 6.8,18.104738 v 5.586035 h 5.6 v -5.586035 z m 44.8,0 v 5.586035 h 5.6 V 18.104738 Z M 6.8,29.276808 v 5.586035 h 5.6 v -5.586035 z m 44.8,0 v 5.586035 h 5.6 V 29.276808 Z M 6.8,40.448878 v 5.586035 h 5.6 v -5.586035 z m 44.8,0 v 5.586035 h 5.6 V 40.448878 Z M 6.8,51.620948 v 5.586035 h 5.6 v -5.586035 z m 44.8,0 v 5.586035 h 5.6 v -5.586035 z"
     id="path10"
     inkscape:connector-curvature="0" />
  <rect
     style="fill:url(#linearGradient826);fill-opacity:1;stroke-width:1.41421342"
     width="28"
     height="20"
     x="18"
     y="8"
     id="rect14" />
  <rect
     style="fill:url(#linearGradient834);fill-opacity:1;stroke-width:1.41421342"
     width="28"
     height="20"
     x="18"
     y="35.999996"
     id="rect18" />
  <path
     style="opacity:0.4;fill:#ffffff;stroke-width:0.96609175"
     d="M 6.8,4 C 5.2488,4 4,4.5946666 4,5.3333334 V 6 C 4,5.2613334 5.2488,4.6666666 6.8,4.6666666 H 57.2 C 58.7512,4.6666666 60,5.2613334 60,6 V 5.3333334 C 60,4.5946666 58.7512,4 57.2,4 Z"
     id="path4"
     inkscape:connector-curvature="0" />
</svg>
