<?xml version="1.0" encoding="UTF-8" standalone="no"?>
<svg
   xmlns:dc="http://purl.org/dc/elements/1.1/"
   xmlns:cc="http://creativecommons.org/ns#"
   xmlns:rdf="http://www.w3.org/1999/02/22-rdf-syntax-ns#"
   xmlns:svg="http://www.w3.org/2000/svg"
   xmlns="http://www.w3.org/2000/svg"
   xmlns:sodipodi="http://sodipodi.sourceforge.net/DTD/sodipodi-0.dtd"
   xmlns:inkscape="http://www.inkscape.org/namespaces/inkscape"
   width="64"
   height="64"
   version="1"
   id="svg14"
   sodipodi:docname="x-office-presentation.svg"
   inkscape:version="0.92.3 (2405546, 2018-03-11)">
  <metadata
     id="metadata20">
    <rdf:RDF>
      <cc:Work
         rdf:about="">
        <dc:format>image/svg+xml</dc:format>
        <dc:type
           rdf:resource="http://purl.org/dc/dcmitype/StillImage" />
        <dc:title></dc:title>
      </cc:Work>
    </rdf:RDF>
  </metadata>
  <defs
     id="defs18" />
  <sodipodi:namedview
     pagecolor="#ffffff"
     bordercolor="#666666"
     borderopacity="1"
     objecttolerance="10"
     gridtolerance="10"
     guidetolerance="10"
     inkscape:pageopacity="0"
     inkscape:pageshadow="2"
     inkscape:window-width="1366"
     inkscape:window-height="704"
     id="namedview16"
     showgrid="false"
     inkscape:zoom="8.125"
     inkscape:cx="32"
     inkscape:cy="32"
     inkscape:window-x="0"
     inkscape:window-y="30"
     inkscape:window-maximized="1"
     inkscape:current-layer="g982" />
  <path
     style="opacity:0.2"
     d="m 14.5,7.9999999 c -1.385,0 -2.5,1.115 -2.5,2.5000001 v 45 c 0,1.385 1.115,2.5 2.5,2.5 h 35 C 50.885,58 52,56.885 52,55.5 V 23 L 38.25,21.75 37,7.9999999 Z"
     id="path2" />
  <path
     d="m14.5 7c-1.385 0-2.5 1.115-2.5 2.5v45c0 1.385 1.115 2.5 2.5 2.5h35c1.385 0 2.5-1.115 2.5-2.5v-32.5l-13.75-1.25-1.25-13.75z"
     id="path4"
     fill="#e4e4e4" />
  <path
     style="opacity:0.2"
     d="M 37,7.9999999 V 20.5 c 0,1.3808 1.1193,2.5 2.5,2.5 H 52 Z"
     id="path6" />
  <path
     d="m37 7v12.5c0 1.3808 1.1193 2.5 2.5 2.5h12.5l-15-15z"
     id="path8"
     fill="#fafafa" />
  <path
     style="opacity:0.2;fill:#ffffff"
     d="m 14.5,6.9999999 c -1.385,0 -2.5,1.115 -2.5,2.5 V 10.5 C 12,9.1149999 13.115,7.9999999 14.5,7.9999999 H 37 c 0,-1 0,0 0,-1 z"
     id="path12" />
  <g
     id="g982"
     transform="translate(0.30697823,-0.61197662)">
    <rect
       y="18.611977"
       x="15.693022"
       height="12"
       width="12"
       id="rect11293"
       style="opacity:1;fill:#ff3300;fill-opacity:1;stroke:none;stroke-width:0.32887134" />
    <path
       sodipodi:type="inkscape:offset"
       inkscape:radius="0"
       inkscape:original="M -21.496094 -0.69921875 L -21.496094 35.994141 L -16.521484 35.994141 L -16.521484 21.697266 L -5.7402344 21.697266 C -1.8513456 21.697266 1.2215712 20.671658 3.4785156 18.623047 C 5.7528211 16.574436 6.890625 13.814019 6.890625 10.341797 C 6.890625 6.8348525 5.7608506 4.1184895 3.5039062 2.1914062 C 1.2469619 0.26432296 -1.9381511 -0.69921875 -6.0527344 -0.69921875 L -21.496094 -0.69921875 z M -16.521484 3.2851562 L -6.6523438 3.2851562 C -0.95789944 3.2851562 1.890625 5.654948 1.890625 10.394531 C 1.890625 15.307726 -0.88780395 17.763672 -6.4433594 17.763672 L -16.521484 17.763672 L -16.521484 3.2851562 z "
       style="font-style:normal;font-weight:normal;font-size:53.33333206px;line-height:1.25;font-family:sans-serif;letter-spacing:0px;word-spacing:0px;fill:#ffffff;fill-opacity:1;stroke:#ffffff;stroke-width:4.73111963;stroke-miterlimit:4;stroke-dasharray:none;stroke-opacity:1"
       id="text974"
       d="M -21.496094,-0.69921875 V 35.994141 h 4.97461 V 21.697266 h 10.7812496 c 3.8888888,0 6.9618056,-1.025608 9.21875,-3.074219 2.2743055,-2.048611 3.4121094,-4.809028 3.4121094,-8.28125 0,-3.5069445 -1.1297744,-6.2233075 -3.3867188,-8.1503908 -2.2569443,-1.92708324 -5.4420573,-2.89062495 -9.5566406,-2.89062495 z m 4.97461,3.98437495 h 9.8691402 c 5.69444436,0 8.5429688,2.3697918 8.5429688,7.1093748 0,4.913195 -2.77842895,7.369141 -8.3339844,7.369141 H -16.521484 Z"
       transform="matrix(0.18117125,0,0,0.18117125,23.016067,21.414764)" />
    <path
       style="opacity:1;fill:#009900;fill-opacity:1;stroke:none;stroke-width:0.84332603;stroke-miterlimit:4;stroke-dasharray:none;stroke-opacity:1"
       id="path1000"
       sodipodi:type="arc"
       sodipodi:cx="23.693022"
       sodipodi:cy="42.611977"
       sodipodi:rx="8"
       sodipodi:ry="8"
       sodipodi:start="0"
       sodipodi:end="4.6978972"
       d="m 31.693022,42.611977 a 8,8 0 0 1 -7.961356,7.999906 8,8 0 0 1 -8.038271,-7.922618 8,8 0 0 1 7.883697,-8.076448 l 0.11593,7.99916 z" />
    <rect
       style="opacity:0.2;fill:#000000;fill-opacity:1;stroke:none;stroke-width:0.85301453;stroke-miterlimit:4;stroke-dasharray:none;stroke-opacity:1"
       id="rect1058"
       width="12"
       height="2"
       x="35.69302"
       y="37.611977" />
    <rect
       style="opacity:0.2;fill:#000000;fill-opacity:1;stroke:none;stroke-width:0.69648343;stroke-miterlimit:4;stroke-dasharray:none;stroke-opacity:1"
       id="rect1058-5"
       width="8"
       height="2"
       x="-43.69302"
       y="41.611977"
       transform="scale(-1,1)" />
    <rect
       style="opacity:0.2;fill:#000000;fill-opacity:1;stroke:none;stroke-width:0.77869213;stroke-miterlimit:4;stroke-dasharray:none;stroke-opacity:1"
       id="rect1058-5-6"
       width="10"
       height="2"
       x="-45.69302"
       y="45.611977"
       transform="scale(-1,1)" />
  </g>
  <path
     style="opacity:1;fill:#ff3300;fill-opacity:1;stroke:none;stroke-width:0.84332603;stroke-miterlimit:4;stroke-dasharray:none;stroke-opacity:1"
     id="path1000-7"
     sodipodi:type="arc"
     sodipodi:cx="25.084743"
     sodipodi:cy="-40.270767"
     sodipodi:rx="8"
     sodipodi:ry="8"
     sodipodi:start="0"
     sodipodi:end="1.5707963"
     d="m 33.084743,-40.270767 a 8,8 0 0 1 -7.999999,8 l -1e-6,-8 z"
     transform="scale(1,-1)" />
</svg>
