<?xml version="1.0" encoding="UTF-8" standalone="no"?>
<svg
   xmlns:dc="http://purl.org/dc/elements/1.1/"
   xmlns:cc="http://creativecommons.org/ns#"
   xmlns:rdf="http://www.w3.org/1999/02/22-rdf-syntax-ns#"
   xmlns:svg="http://www.w3.org/2000/svg"
   xmlns="http://www.w3.org/2000/svg"
   xmlns:xlink="http://www.w3.org/1999/xlink"
   xmlns:sodipodi="http://sodipodi.sourceforge.net/DTD/sodipodi-0.dtd"
   xmlns:inkscape="http://www.inkscape.org/namespaces/inkscape"
   width="24"
   height="24"
   version="1"
   id="svg22"
   sodipodi:docname="camera-photo.svg"
   inkscape:version="0.92.3 (2405546, 2018-03-11)">
  <metadata
     id="metadata28">
    <rdf:RDF>
      <cc:Work
         rdf:about="">
        <dc:format>image/svg+xml</dc:format>
        <dc:type
           rdf:resource="http://purl.org/dc/dcmitype/StillImage" />
      </cc:Work>
    </rdf:RDF>
  </metadata>
  <defs
     id="defs26">
    <linearGradient
       inkscape:collect="always"
       id="linearGradient839">
      <stop
         style="stop-color:#dcdcdc;stop-opacity:1;"
         offset="0"
         id="stop835" />
      <stop
         style="stop-color:#f0f0f0;stop-opacity:1"
         offset="1"
         id="stop837" />
    </linearGradient>
    <linearGradient
       inkscape:collect="always"
       xlink:href="#linearGradient839"
       id="linearGradient843"
       x1="-21"
       y1="-12"
       x2="-5"
       y2="-12"
       gradientUnits="userSpaceOnUse" />
  </defs>
  <sodipodi:namedview
     pagecolor="#ffffff"
     bordercolor="#666666"
     borderopacity="1"
     objecttolerance="10"
     gridtolerance="10"
     guidetolerance="10"
     inkscape:pageopacity="0"
     inkscape:pageshadow="2"
     inkscape:window-width="1366"
     inkscape:window-height="704"
     id="namedview24"
     showgrid="false"
     inkscape:zoom="39.333333"
     inkscape:cx="1.5198307"
     inkscape:cy="5.6643059"
     inkscape:window-x="0"
     inkscape:window-y="30"
     inkscape:window-maximized="1"
     inkscape:current-layer="svg22" />
  <rect
     style="fill:#4f4f4f"
     width="3.5"
     height="2"
     x="4"
     y="4"
     rx=".5"
     ry=".5"
     id="rect4" />
  <rect
     style="fill:url(#linearGradient843);fill-opacity:1"
     width="16"
     height="20"
     x="-21"
     y="-22"
     rx="1"
     ry="1"
     transform="matrix(0,-1,-1,0,0,0)"
     id="rect6" />
  <circle
     style="opacity:0.40"
     cx="12"
     cy="13"
     r="7"
     id="circle8" />
  <circle
     style="opacity:0.2"
     cx="12"
     cy="-13.5"
     r="5"
     transform="scale(1,-1)"
     id="circle10" />
  <circle
     style="fill:#009587"
     cx="12"
     cy="-13"
     r="5"
     transform="scale(1,-1)"
     id="circle12" />
  <circle
     style="opacity:0.40"
     cx="19.5"
     cy="8"
     r="1"
     id="circle14" />
  <circle
     style="opacity:0.2"
     cx="12"
     cy="13.5"
     r="3"
     id="circle16" />
  <circle
     style="fill:#66bfb7"
     cx="12"
     cy="13"
     r="3"
     id="circle18" />
  <path
     style="opacity:0.4;fill:#ffffff"
     d="M 21,5 C 21.554,5 22,5.446 22,6 V 6.5 C 22,5.946 21.554,5.5 21,5.5 H 3 C 2.446,5.5 2,5.946 2,6.5 V 6 C 2,5.446 2.446,5 3,5 Z"
     id="path20" />
  <path
     inkscape:connector-curvature="0"
     style="opacity:0.2;fill:#000000;fill-opacity:1"
     d="m 21,21 c 0.554,0 1,-0.446 1,-1 v -0.5 c 0,0.554 -0.446,1 -1,1 H 2.9999999 C 2.446,20.5 2,20.054 2,19.5 V 20 c 0,0.554 0.446,1 0.9999999,1 z"
     id="path20-3" />
</svg>
