<?xml version="1.0" encoding="UTF-8" standalone="no"?>
<svg
   xmlns:dc="http://purl.org/dc/elements/1.1/"
   xmlns:cc="http://creativecommons.org/ns#"
   xmlns:rdf="http://www.w3.org/1999/02/22-rdf-syntax-ns#"
   xmlns:svg="http://www.w3.org/2000/svg"
   xmlns="http://www.w3.org/2000/svg"
   xmlns:xlink="http://www.w3.org/1999/xlink"
   xmlns:sodipodi="http://sodipodi.sourceforge.net/DTD/sodipodi-0.dtd"
   xmlns:inkscape="http://www.inkscape.org/namespaces/inkscape"
   width="24"
   height="24"
   version="1"
   id="svg18"
   sodipodi:docname="camera-web.svg"
   inkscape:version="0.92.3 (2405546, 2018-03-11)">
  <metadata
     id="metadata24">
    <rdf:RDF>
      <cc:Work
         rdf:about="">
        <dc:format>image/svg+xml</dc:format>
        <dc:type
           rdf:resource="http://purl.org/dc/dcmitype/StillImage" />
        <dc:title></dc:title>
      </cc:Work>
    </rdf:RDF>
  </metadata>
  <defs
     id="defs22">
    <linearGradient
       inkscape:collect="always"
       id="linearGradient838">
      <stop
         style="stop-color:#dcdcdc;stop-opacity:1"
         offset="0"
         id="stop834" />
      <stop
         style="stop-color:#f0f0f0;stop-opacity:1"
         offset="1"
         id="stop836" />
    </linearGradient>
    <linearGradient
       inkscape:collect="always"
       xlink:href="#linearGradient838"
       id="linearGradient840"
       x1="11.457627"
       y1="22.271187"
       x2="12"
       y2="3.294565"
       gradientUnits="userSpaceOnUse" />
  </defs>
  <sodipodi:namedview
     pagecolor="#ffffff"
     bordercolor="#666666"
     borderopacity="1"
     objecttolerance="10"
     gridtolerance="10"
     guidetolerance="10"
     inkscape:pageopacity="0"
     inkscape:pageshadow="2"
     inkscape:window-width="1366"
     inkscape:window-height="704"
     id="namedview20"
     showgrid="false"
     inkscape:zoom="13.906433"
     inkscape:cx="6.4830417"
     inkscape:cy="8.8195319"
     inkscape:window-x="0"
     inkscape:window-y="30"
     inkscape:window-maximized="1"
     inkscape:current-layer="svg18" />
  <rect
     width="20"
     height="20"
     x="2"
     y="2"
     rx="10"
     ry="10"
     id="rect4"
     style="fill:url(#linearGradient840);fill-opacity:1"
     fill="#4f4f4f" />
  <circle
     style="opacity:0.4"
     cx="12"
     cy="12"
     r="6"
     id="circle6" />
  <circle
     opacity=".2"
     cx="12"
     cy="-12.5"
     r="5"
     transform="scale(1,-1)"
     id="circle8" />
  <circle
     fill="#ba174e"
     cx="12"
     cy="-12"
     r="5"
     transform="scale(1,-1)"
     id="circle10" />
  <path
     fill="#fff"
     opacity=".1"
     d="m12 2.0002c-5.5401 0-10 4.4599-10 9.9998 0 0.094 0.0116 0.185 0.0141 0.278 0.1477-5.4096 4.5399-9.7222 9.9859-9.7222 5.4461 0 9.8381 4.3128 9.9859 9.722 0.003-0.093 0.014-0.184 0.014-0.278 0-5.5399-4.46-9.9998-10-9.9998z"
     id="path12"
     style="opacity:0.4" />
  <circle
     opacity=".2"
     cx="12"
     cy="12.5"
     r="3"
     id="circle14" />
  <circle
     fill="#d67495"
     cx="12"
     cy="12"
     r="3"
     id="circle16" />
  <path
     d="M 2.0141,11.722 C 2.0116,11.816 2,11.906 2,12 c 0,5.54 4.4599,10 10,10 5.5399,0 9.9998,-4.4599 9.9998,-9.9998 0,-0.09389 -0.01167,-0.18444 -0.01389,-0.27777 -0.14778,5.4093 -4.5399,9.722 -9.9859,9.722 -5.446,0 -9.8381,-4.3127 -9.9859,-9.722 z"
     id="path2"
     inkscape:connector-curvature="0"
     style="opacity:0.2" />
</svg>
