<?xml version="1.0" encoding="UTF-8" standalone="no"?>
<svg
   xmlns:dc="http://purl.org/dc/elements/1.1/"
   xmlns:cc="http://creativecommons.org/ns#"
   xmlns:rdf="http://www.w3.org/1999/02/22-rdf-syntax-ns#"
   xmlns:svg="http://www.w3.org/2000/svg"
   xmlns="http://www.w3.org/2000/svg"
   xmlns:xlink="http://www.w3.org/1999/xlink"
   xmlns:sodipodi="http://sodipodi.sourceforge.net/DTD/sodipodi-0.dtd"
   xmlns:inkscape="http://www.inkscape.org/namespaces/inkscape"
   width="24"
   height="24"
   version="1"
   id="svg10"
   sodipodi:docname="drive-optical.svg"
   inkscape:version="0.92.3 (2405546, 2018-03-11)">
  <metadata
     id="metadata16">
    <rdf:RDF>
      <cc:Work
         rdf:about="">
        <dc:format>image/svg+xml</dc:format>
        <dc:type
           rdf:resource="http://purl.org/dc/dcmitype/StillImage" />
        <dc:title></dc:title>
      </cc:Work>
    </rdf:RDF>
  </metadata>
  <defs
     id="defs14">
    <linearGradient
       inkscape:collect="always"
       id="linearGradient842">
      <stop
         style="stop-color:#d2d2d2;stop-opacity:1"
         offset="0"
         id="stop838" />
      <stop
         style="stop-color:#dcdcdc;stop-opacity:1"
         offset="1"
         id="stop840" />
    </linearGradient>
    <linearGradient
       inkscape:collect="always"
       xlink:href="#linearGradient842"
       id="linearGradient844"
       x1="-60"
       y1="-32"
       x2="-4"
       y2="-32"
       gradientUnits="userSpaceOnUse"
       gradientTransform="matrix(0.35714285,0,0,0.35714285,-0.57142905,-0.52300286)" />
  </defs>
  <sodipodi:namedview
     pagecolor="#ffffff"
     bordercolor="#666666"
     borderopacity="1"
     objecttolerance="10"
     gridtolerance="10"
     guidetolerance="10"
     inkscape:pageopacity="0"
     inkscape:pageshadow="2"
     inkscape:window-width="1366"
     inkscape:window-height="704"
     id="namedview12"
     showgrid="false"
     inkscape:zoom="5.2149125"
     inkscape:cx="14.670008"
     inkscape:cy="30.004598"
     inkscape:window-x="0"
     inkscape:window-y="30"
     inkscape:window-maximized="1"
     inkscape:current-layer="svg10" />
  <rect
     style="fill:url(#linearGradient844);fill-opacity:1;stroke-width:0.35714287"
     width="20"
     height="20"
     x="-22"
     y="-21.951574"
     rx="0.89285713"
     ry="0.89285713"
     transform="matrix(0,-1,-1,0,0,0)"
     id="rect4" />
  <path
     style="opacity:0.5;stroke-width:0.35714287"
     d="M 11.951575,4.8571429 A 7.142857,7.142857 0 0 0 4.8087172,12 7.142857,7.142857 0 0 0 11.951575,19.142857 7.142857,7.142857 0 0 0 19.094431,12 7.142857,7.142857 0 0 0 11.951575,4.8571429 Z m 0,4.2857142 A 2.8571429,2.8571429 0 0 1 14.808717,12 2.8571429,2.8571429 0 0 1 11.951575,14.857143 2.8571429,2.8571429 0 0 1 9.0944318,12 2.8571429,2.8571429 0 0 1 11.951575,9.1428571 Z"
     id="path6"
     inkscape:connector-curvature="0" />
  <path
     style="opacity:0.4;fill:#ffffff;stroke-width:0.35714287"
     d="M 2.8444315,2 C 2.3497886,2 1.9515743,2.3982145 1.9515743,2.892857 V 3.25 c 0,-0.494643 0.3982143,-0.892857 0.8928572,-0.892857 H 21.058717 c 0.496429,0 0.892857,0.398214 0.892857,0.892857 V 2.892857 C 21.951574,2.3982145 21.555146,2 21.058717,2 Z"
     id="path8"
     inkscape:connector-curvature="0" />
  <path
     inkscape:connector-curvature="0"
     style="opacity:0.2;fill:#000000;stroke-width:0.35714287"
     d="M 2.9412838,22 C 2.4466409,22 2.0484266,21.601786 2.0484266,21.107143 V 20.75 c 0,0.494643 0.3982143,0.892857 0.8928572,0.892857 H 21.155569 c 0.496429,0 0.892857,-0.398214 0.892857,-0.892857 v 0.357143 C 22.048426,21.601786 21.651998,22 21.155569,22 Z"
     id="path8-3" />
</svg>
