<?xml version="1.0" encoding="UTF-8" standalone="no"?>
<svg
   xmlns:dc="http://purl.org/dc/elements/1.1/"
   xmlns:cc="http://creativecommons.org/ns#"
   xmlns:rdf="http://www.w3.org/1999/02/22-rdf-syntax-ns#"
   xmlns:svg="http://www.w3.org/2000/svg"
   xmlns="http://www.w3.org/2000/svg"
   xmlns:xlink="http://www.w3.org/1999/xlink"
   xmlns:sodipodi="http://sodipodi.sourceforge.net/DTD/sodipodi-0.dtd"
   xmlns:inkscape="http://www.inkscape.org/namespaces/inkscape"
   width="24"
   height="24"
   version="1"
   id="svg24"
   sodipodi:docname="user-trash.svg"
   inkscape:version="0.92.4 5da689c313, 2019-01-14">
  <metadata
     id="metadata30">
    <rdf:RDF>
      <cc:Work
         rdf:about="">
        <dc:format>image/svg+xml</dc:format>
        <dc:type
           rdf:resource="http://purl.org/dc/dcmitype/StillImage" />
        <dc:title />
      </cc:Work>
    </rdf:RDF>
  </metadata>
  <defs
     id="defs28">
    <linearGradient
       inkscape:collect="always"
       id="linearGradient1481">
      <stop
         style="stop-color:#000000;stop-opacity:1;"
         offset="0"
         id="stop1477" />
      <stop
         style="stop-color:#000000;stop-opacity:0;"
         offset="1"
         id="stop1479" />
    </linearGradient>
    <linearGradient
       inkscape:collect="always"
       id="linearGradient1425">
      <stop
         style="stop-color:#ffffff;stop-opacity:1;"
         offset="0"
         id="stop1421" />
      <stop
         style="stop-color:#ffffff;stop-opacity:0;"
         offset="1"
         id="stop1423" />
    </linearGradient>
    <linearGradient
       inkscape:collect="always"
       xlink:href="#linearGradient849"
       id="linearGradient851"
       x1="17.426399"
       y1="136"
       x2="238.57359"
       y2="136"
       gradientUnits="userSpaceOnUse"
       gradientTransform="matrix(0.00365118,0,0,0.00372511,20.598145,232.05338)" />
    <linearGradient
       inkscape:collect="always"
       id="linearGradient849">
      <stop
         style="stop-color:#d6d6d6;stop-opacity:1"
         offset="0"
         id="stop845" />
      <stop
         style="stop-color:#eaeaea;stop-opacity:1"
         offset="1"
         id="stop847" />
    </linearGradient>
    <linearGradient
       inkscape:collect="always"
       xlink:href="#linearGradient1425"
       id="linearGradient1427"
       x1="130.78624"
       y1="46.669899"
       x2="130.75026"
       y2="66.303192"
       gradientUnits="userSpaceOnUse"
       gradientTransform="matrix(0.0425532,0,0,0.0425532,19.777053,230.76692)" />
    <linearGradient
       inkscape:collect="always"
       xlink:href="#linearGradient1481"
       id="linearGradient1483"
       x1="124.48611"
       y1="231.85847"
       x2="124.72912"
       y2="211.17752"
       gradientUnits="userSpaceOnUse"
       gradientTransform="matrix(0.0425532,0,0,0.0425532,19.777053,230.93033)" />
  </defs>
  <sodipodi:namedview
     pagecolor="#ffffff"
     bordercolor="#666666"
     borderopacity="1"
     objecttolerance="10"
     gridtolerance="10"
     guidetolerance="10"
     inkscape:pageopacity="0"
     inkscape:pageshadow="2"
     inkscape:window-width="1366"
     inkscape:window-height="691"
     id="namedview26"
     showgrid="false"
     inkscape:zoom="21.583333"
     inkscape:cx="3.4517373"
     inkscape:cy="15.266409"
     inkscape:window-x="0"
     inkscape:window-y="0"
     inkscape:window-maximized="1"
     inkscape:current-layer="user-trash" />
  <g
     style="fill:none;fill-rule:evenodd;stroke:none;stroke-width:0.08848412"
     id="user-trash"
     transform="matrix(2.374092,0,0,2.4478583,-47.883767,-567.14628)">
    <path
       inkscape:connector-curvature="0"
       style="opacity:0.2;fill:none;fill-opacity:1;fill-rule:evenodd;stroke:url(#linearGradient1483);stroke-width:0.17651851;stroke-linecap:round;stroke-linejoin:round;stroke-miterlimit:4;stroke-dasharray:none;stroke-opacity:1"
       id="path15-5-7"
       d="m 22.126283,240.07716 c 0.0326,0.37409 0.350116,0.67625 0.709309,0.67625 h 4.77654 c 0.357256,0 0.676761,-0.30277 0.709309,-0.67625 l 0.56809,-6.42037 c 0.258081,0 0.458208,-0.23933 0.458208,-0.48942 0,-0.25184 -0.218122,-0.40785 -0.458208,-0.40785 h -7.331338 c -0.23897,0 -0.458209,0.15776 -0.458209,0.40785 0,0.25184 0.218124,0.48942 0.458209,0.48942 z" />
    <path
       inkscape:connector-curvature="0"
       style="opacity:0.9;fill:url(#linearGradient851);fill-opacity:1;stroke:none;stroke-width:0.01728937;stroke-linecap:round;stroke-linejoin:round;stroke-miterlimit:4;stroke-dasharray:none;stroke-opacity:0.39215686"
       id="path15"
       d="m 22.126283,239.98707 c 0.0326,0.38236 0.350116,0.69118 0.709309,0.69118 h 4.77654 c 0.357256,0 0.676761,-0.30945 0.709309,-0.69118 l 0.56809,-6.56214 c 0.258081,0 0.458208,-0.2446 0.458208,-0.50023 0,-0.2574 -0.218122,-0.41685 -0.458208,-0.41685 h -7.331338 c -0.23897,0 -0.458209,0.16124 -0.458209,0.41685 0,0.2574 0.218124,0.50023 0.458209,0.50023 z" />
    <path
       style="fill:#ffffff;stroke-width:0.00376528"
       inkscape:connector-curvature="0"
       id="Fill-1"
       d="m 25.208294,235.8146 c -0.436368,-0.95867 -0.895389,-0.1867 -0.895389,-0.1867 l -0.348043,0.65695 0.716442,0.44578 z m 1.549444,-0.29368 -0.38613,0.23286 -0.141515,-0.26608 c 0,0 -0.109338,-0.2769 -0.648804,-0.24788 0,0 -0.668504,0.0199 -0.738112,0.006 0,0 0.189453,0.0399 0.283687,0.19615 l 0.426845,0.80413 -0.311925,0.1874 1.046754,0.0241 z m -2.565663,2.31872 c -0.541435,0.89469 0.31685,0.91183 0.31685,0.91183 l 0.70692,-0.0248 -0.01412,-0.8835 z m -1.040187,-1.25656 0.387443,0.23006 -0.14053,0.26676 c 0,0 -0.164827,0.24404 0.138889,0.71883 0,0 0.364131,0.59857 0.388429,0.66884 0,0 -0.06666,-0.19299 0.0099,-0.36012 l 0.42356,-0.80623 0.31291,0.18565 -0.525019,-0.96427 z m 3.266017,1.12265 c 0.997831,0.0671 0.592985,-0.7384 0.592985,-0.7384 l -0.365444,-0.64576 -0.717099,0.44472 z m -1.058246,0.68422 0.535197,-0.95832 v 0.38214 h 0.867151 c 0.174349,-0.0105 0.300104,-0.16677 0.300104,-0.16677 -0.04564,0.0567 -0.358878,0.68737 -0.358878,0.68737 -0.241002,0.51395 -0.521407,0.47968 -0.521407,0.47968 h -0.28697 v 0.472 z" />
    <path
       inkscape:connector-curvature="0"
       style="fill:#007dcb;fill-opacity:1;stroke-width:0.00376528"
       id="path18"
       d="m 25.208294,235.7295 c -0.436368,-0.95867 -0.895389,-0.1867 -0.895389,-0.1867 l -0.348043,0.65695 0.716442,0.44577 z m 1.549444,-0.29368 -0.38613,0.23285 -0.141515,-0.26607 c 0,0 -0.109338,-0.2769 -0.648804,-0.24788 0,0 -0.668504,0.0199 -0.738112,0.006 0,0 0.189453,0.0399 0.283687,0.19613 l 0.426845,0.80415 -0.311925,0.1874 1.046754,0.0241 z m -2.565663,2.31871 c -0.541435,0.8947 0.31685,0.91183 0.31685,0.91183 l 0.70692,-0.0248 -0.01412,-0.88351 z m -1.040187,-1.25655 0.387443,0.23005 -0.14053,0.26677 c 0,0 -0.164827,0.24404 0.138889,0.71883 0,0 0.364131,0.59856 0.388429,0.66884 0,0 -0.06666,-0.193 0.0099,-0.36012 l 0.42356,-0.80623 0.31291,0.18565 -0.525019,-0.96427 z m 3.266017,1.12265 c 0.997831,0.0671 0.592985,-0.73841 0.592985,-0.73841 l -0.365444,-0.64576 -0.717099,0.44472 z m -1.058246,0.68422 0.535197,-0.95832 v 0.38214 h 0.867151 c 0.174349,-0.0105 0.300104,-0.16678 0.300104,-0.16678 -0.04564,0.0566 -0.358878,0.68736 -0.358878,0.68736 -0.241002,0.51395 -0.521407,0.4797 -0.521407,0.4797 h -0.28697 v 0.47199 z" />
    <g
       transform="matrix(0.0389906,0,0,0.0425532,23.11837,235.1499)"
       id="Group"
       style="stroke-width:0.0924382">
      <path
         inkscape:connector-curvature="0"
         style="fill:#005285;fill-opacity:1;stroke-width:0.0924382"
         id="path20"
         d="m 98.627559,60.782404 c 1.190715,-2.074987 2.165851,-3.699715 2.518411,-4.100606 0,0 -3.225268,3.672648 -7.696847,3.919135 h -22.24 v -8.980325 l -13.726316,22.520649 0.629954,0.96644 13.096362,-21.487089 v 8.980325 h 22.24 c 2.05254,-0.113142 3.842483,-0.948172 5.178436,-1.818529 z" />
      <path
         inkscape:connector-curvature="0"
         style="fill:#005285;fill-opacity:1;stroke-width:0.0924382"
         id="path22"
         d="m 101.87349,49.538031 c 0.38982,-4.396404 -2.041209,-8.828558 -2.041209,-8.828558 L 90.459649,25.534122 72.06807,35.985149 l 0.859638,1.51151 17.531941,-9.962537 9.372632,15.175351 c 0,0 1.745459,3.182261 2.041209,6.828558 z" />
      <path
         inkscape:connector-curvature="0"
         style="fill:#005285;fill-opacity:1;stroke-width:0.0924382"
         id="path24"
         d="m 22.990685,74.032242 c -0.311157,-3.059027 0.836105,-7.204849 4.546859,-12.823309 l 25.894737,0.08216 0.362105,20.762378 -0.03486,0.0011 -0.327244,-18.7635 -25.894737,-0.08216 c -2.957659,4.478196 -4.286757,8.020841 -4.546859,10.823309 z" />
      <polygon
         style="fill:#005285;fill-opacity:1;stroke-width:0.0924382"
         points="57.958577,28.245415 62.459649,25.767635 61.581178,24.251222 54.459649,28.171527 "
         id="Path" />
      <path
         inkscape:connector-curvature="0"
         style="fill:#005285;fill-opacity:1;stroke-width:0.0924382"
         id="path27"
         d="m 7.1922807,43.355095 c 0,0 -1.3989572,1.897849 -1.10444,5.634109 0.2039637,-2.412508 1.10444,-3.634109 1.10444,-3.634109 L 10.796491,39.086122 10.900002,37 Z" />
      <path
         inkscape:connector-curvature="0"
         style="fill:#005285;fill-opacity:1;stroke-width:0.0924382"
         id="path29"
         d="m 22.579878,25.167248 -0.869703,-0.495829 8.926316,-15.43827 c 0,0 11.772632,-18.1414055 22.964211,4.387459 l -0.564387,0.898895 C 42.016955,-6.3039334 30.636491,11.233149 30.636491,11.233149 Z" />
      <polygon
         style="fill:#005285;fill-opacity:1;stroke-width:0.0924382"
         points="4.1944644,33.494202 0.85964912,31.679852 26.392281,30.258446 39.857544,52.918771 38.101985,51.964388 26.392281,32.258446 "
         id="polygon31" />
      <path
         inkscape:connector-curvature="0"
         style="fill:#005589;fill-opacity:1;stroke-width:0.0924382"
         id="path33"
         d="M 49.041794,2.3707458 C 46.736367,0.74293632 44.236491,0.26104084 44.236491,0.26104084 46.021754,0.58147327 63.167017,0.11314895 63.167017,0.11314895 c 13.83579,-0.68194594 16.64,5.82529725 16.64,5.82529725 l 3.629474,6.2525408 9.903158,-5.4720002 -1.565842,2.8652079 -8.337316,4.6067923 -3.629474,-6.2525408 c 0,0 -2.80421,-6.5072432 -16.64,-5.8252973 0,0 -8.471807,0.2314082 -14.125223,0.2575969 z" />
    </g>
    <path
       inkscape:connector-curvature="0"
       style="opacity:0.8;fill:none;fill-opacity:1;fill-rule:evenodd;stroke:url(#linearGradient1427);stroke-width:0.17651851;stroke-linecap:round;stroke-linejoin:round;stroke-miterlimit:4;stroke-dasharray:none;stroke-opacity:1"
       id="path15-5"
       d="m 22.126283,239.91375 c 0.0326,0.37409 0.350116,0.67625 0.709309,0.67625 h 4.77654 c 0.357256,0 0.676761,-0.30277 0.709309,-0.67625 l 0.56809,-6.42037 c 0.258081,0 0.458208,-0.23933 0.458208,-0.48942 0,-0.25184 -0.218122,-0.40785 -0.458208,-0.40785 h -7.331338 c -0.23897,0 -0.458209,0.15776 -0.458209,0.40785 0,0.25184 0.218124,0.48942 0.458209,0.48942 z" />
  </g>
</svg>
