<?xml version="1.0" encoding="UTF-8" standalone="no"?>
<svg
   xmlns:dc="http://purl.org/dc/elements/1.1/"
   xmlns:cc="http://creativecommons.org/ns#"
   xmlns:rdf="http://www.w3.org/1999/02/22-rdf-syntax-ns#"
   xmlns:svg="http://www.w3.org/2000/svg"
   xmlns="http://www.w3.org/2000/svg"
   xmlns:xlink="http://www.w3.org/1999/xlink"
   xmlns:sodipodi="http://sodipodi.sourceforge.net/DTD/sodipodi-0.dtd"
   xmlns:inkscape="http://www.inkscape.org/namespaces/inkscape"
   width="24"
   height="24"
   version="1.1"
   viewBox="0 0 18 18"
   id="svg52"
   sodipodi:docname="accessories-calculator.svg"
   inkscape:version="0.92.4 5da689c313, 2019-01-14">
  <metadata
     id="metadata56">
    <rdf:RDF>
      <cc:Work
         rdf:about="">
        <dc:format>image/svg+xml</dc:format>
        <dc:type
           rdf:resource="http://purl.org/dc/dcmitype/StillImage" />
        <dc:title />
      </cc:Work>
    </rdf:RDF>
  </metadata>
  <sodipodi:namedview
     pagecolor="#ffffff"
     bordercolor="#666666"
     borderopacity="1"
     objecttolerance="10"
     gridtolerance="10"
     guidetolerance="10"
     inkscape:pageopacity="0"
     inkscape:pageshadow="2"
     inkscape:window-width="1366"
     inkscape:window-height="691"
     id="namedview54"
     showgrid="false"
     inkscape:zoom="17.8125"
     inkscape:cx="1.4041022"
     inkscape:cy="13.349402"
     inkscape:window-x="0"
     inkscape:window-y="0"
     inkscape:window-maximized="1"
     inkscape:current-layer="g24" />
  <defs
     id="defs14">
    <linearGradient
       inkscape:collect="always"
       id="linearGradient912">
      <stop
         style="stop-color:#003399;stop-opacity:1"
         offset="0"
         id="stop908" />
      <stop
         style="stop-color:#0099ff;stop-opacity:1"
         offset="1"
         id="stop910" />
    </linearGradient>
    <clipPath
       id="clipPath4">
      <rect
         width="384"
         height="384"
         id="rect2"
         x="0"
         y="0" />
    </clipPath>
    <clipPath
       id="clipPath8">
      <rect
         width="384"
         height="384"
         id="rect6"
         x="0"
         y="0" />
    </clipPath>
    <clipPath
       id="clipPath12">
      <rect
         width="384"
         height="384"
         id="rect10"
         x="0"
         y="0" />
    </clipPath>
    <linearGradient
       inkscape:collect="always"
       xlink:href="#linearGradient912"
       id="linearGradient914"
       x1="23.246401"
       y1="192.00459"
       x2="360.75366"
       y2="192.00459"
       gradientUnits="userSpaceOnUse" />
  </defs>
  <g
     transform="translate(-0.01,-366.02)"
     id="g50">
    <g
       id="g24"
       transform="matrix(0.04444302,0,0,0.04444324,0.47685905,366.48669)">
      <path
         d="M 192.02183,40.126327 V 208.87632 h -0.0156 V 40.146327 H 50.57622 c -14.059,0.0781 -25.547,10.5 -27.328,24.07399 V 208.90033 h 0.0312 v 140.94998 c 0,15.37501 12.379,27.754 27.754,27.754 h 140.96 v 0.0304 h 141.18 c 15.15601,-0.0827 27.34,-12.18399 27.58201,-27.29699 v -141.4592 h -0.0861 V 67.838517 c 1.5e-4,-15.059 -11.87481,-27.21099 -26.8048,-27.71099 z"
         id="path16-6"
         inkscape:connector-curvature="0"
         style="fill:#000000;fill-opacity:1;stroke-width:0.99999988;opacity:0.2" />
      <path
         d="M 192.02,23.25 V 192 h -0.0156 V 23.27 h -141.43 c -14.059,0.07813 -25.547,10.5 -27.328,24.074 v 144.68 h 0.03125 v 140.95 c 0,15.375 12.379,27.754 27.754,27.754 h 140.96 v 0.0312 h 141.18 c 15.156,-0.082 27.34,-12.184 27.582,-27.297 v -141.46 h -0.0859 v -141.04 c -4e-5,-15.059 -11.875,-27.211 -26.805,-27.711 z"
         id="path16"
         inkscape:connector-curvature="0"
         style="fill:url(#linearGradient914);fill-opacity:1" />
      <path
         d="m 23.281,192.01 v 140.95 c 0,15.375 12.379,27.754 27.754,27.754 h 140.97 v -168.71 z"
         id="path20"
         inkscape:connector-curvature="0"
         style="fill:#000000;fill-opacity:0.39215686" />
    </g>
    <path
       d="m 2.7246981,367.52071 c -0.6248243,0.004 -1.1353858,0.46666 -1.2145387,1.06993 v 6.43005 h 7.5002033 v -7.4998 z"
       id="path30"
       inkscape:connector-curvature="0"
       style="fill:#000000;fill-opacity:0.19607843;stroke-width:0.04444313" />
    <path
       d="m 5.5575847,370.06398 v 1.30899 h 1.3041359 v 0.58959 H 5.5575847 v 1.30916 H 4.9631591 v -1.30916 H 3.6590235 v -0.58959 h 1.3041356 v -1.30899 z"
       id="path32"
       inkscape:connector-curvature="0"
       style="opacity:0.3;stroke-width:0.04444313" />
    <path
       d="m 5.5509412,369.61924 v 1.30237 h 1.2995722 v 0.5866 H 5.5509412 v 1.30253 H 4.9585956 v -1.30253 H 3.6590235 v -0.5866 h 1.2995721 v -1.30237 z"
       id="path34"
       inkscape:connector-curvature="0"
       style="fill:#ffffff;stroke-width:0.04425281" />
    <path
       d="m 6.764657,378.02105 -1.0843208,1.08419 1.0843208,1.07913 -0.4197777,0.41977 -1.0841871,-1.0793 -1.0841874,1.0793 -0.4197778,-0.41977 1.0841875,-1.07913 -1.0841875,-1.08419 0.4197778,-0.41978 1.0841874,1.08419 1.0841871,-1.08419 z"
       id="path40"
       inkscape:connector-curvature="0"
       style="opacity:0.3;stroke-width:0.04444313" />
    <path
       d="m 6.764657,377.68772 -1.0843208,1.0842 1.0843208,1.07912 -0.4197777,0.41978 -1.0841871,-1.0793 -1.0841874,1.0793 -0.4197778,-0.41978 1.0841875,-1.07912 -1.0841875,-1.0842 0.4197778,-0.41978 1.0841874,1.0842 1.0841871,-1.0842 z"
       id="path42"
       inkscape:connector-curvature="0"
       style="fill:#ffffff;stroke-width:0.04444313" />
    <path
       d="m 9.0109184,367.52 v 0.33332 h 6.3037976 c 0.663512,0.0222 1.191229,0.56229 1.191229,1.23154 v -0.33333 c -3e-6,-0.66925 -0.527717,-1.20933 -1.191229,-1.23153 z m -6.2861314,5e-4 c -0.6248132,0.004 -1.1353636,0.46662 -1.2145612,1.06991 v 0.33332 c 0.079164,-0.60329 0.589748,-1.06644 1.2145612,-1.06991 h 6.285465 v -0.33332 z m 6.285465,7.49879 v 0.33332 h 7e-4 v -0.33332 z m 7.495759,0 v 0.33332 h 0.0039 v -0.33332 z"
       id="path48"
       inkscape:connector-curvature="0"
       style="opacity:0.3;fill:#ffffff;stroke-width:0.04444202" />
    <path
       d="m 11.386007,374.19146 h 3.127677 v 0.64442 h -3.127677 z"
       id="path36-7"
       inkscape:connector-curvature="0"
       style="opacity:0.3;stroke-width:0.04444312" />
    <path
       d="m 11.386007,373.5567 h 3.127677 v 0.6383 h -3.127677 z"
       id="path38-4"
       inkscape:connector-curvature="0"
       style="fill:#ffffff;stroke-width:0.04423126" />
    <path
       d="m 11.392543,375.40366 h 3.127677 v 0.64443 h -3.127677 z"
       id="path36-0-5"
       inkscape:connector-curvature="0"
       style="opacity:0.3;stroke-width:0.04444312" />
    <path
       d="m 11.392543,375.01263 h 3.127677 v 0.6383 h -3.127677 z"
       id="path38-5-5"
       inkscape:connector-curvature="0"
       style="fill:#ffffff;stroke-width:0.04423126" />
  </g>
</svg>
