<?xml version="1.0" encoding="UTF-8" standalone="no"?>
<svg
   xmlns:dc="http://purl.org/dc/elements/1.1/"
   xmlns:cc="http://creativecommons.org/ns#"
   xmlns:rdf="http://www.w3.org/1999/02/22-rdf-syntax-ns#"
   xmlns:svg="http://www.w3.org/2000/svg"
   xmlns="http://www.w3.org/2000/svg"
   xmlns:xlink="http://www.w3.org/1999/xlink"
   xmlns:sodipodi="http://sodipodi.sourceforge.net/DTD/sodipodi-0.dtd"
   xmlns:inkscape="http://www.inkscape.org/namespaces/inkscape"
   width="24"
   height="24"
   version="1"
   id="svg20"
   sodipodi:docname="applications-utilities.svg"
   inkscape:version="0.92.4 5da689c313, 2019-01-14">
  <metadata
     id="metadata26">
    <rdf:RDF>
      <cc:Work
         rdf:about="">
        <dc:format>image/svg+xml</dc:format>
        <dc:type
           rdf:resource="http://purl.org/dc/dcmitype/StillImage" />
        <dc:title />
      </cc:Work>
    </rdf:RDF>
  </metadata>
  <defs
     id="defs24">
    <linearGradient
       inkscape:collect="always"
       id="linearGradient894">
      <stop
         style="stop-color:#454545;stop-opacity:1"
         offset="0"
         id="stop890" />
      <stop
         style="stop-color:#636363;stop-opacity:1"
         offset="1"
         id="stop892" />
    </linearGradient>
    <linearGradient
       inkscape:collect="always"
       xlink:href="#linearGradient894"
       id="linearGradient896"
       x1="31.661018"
       y1="56.949154"
       x2="33.423729"
       y2="9.4915257"
       gradientUnits="userSpaceOnUse"
       gradientTransform="matrix(0.35714283,0,0,0.39999996,0.57142877,-0.79999927)" />
    <filter
       inkscape:collect="always"
       style="color-interpolation-filters:sRGB"
       id="filter1491"
       x="-0.045254238"
       width="1.0905085"
       y="-0.089000002"
       height="1.178">
      <feGaussianBlur
         inkscape:collect="always"
         stdDeviation="1.0559322"
         id="feGaussianBlur1493" />
    </filter>
  </defs>
  <sodipodi:namedview
     pagecolor="#ffffff"
     bordercolor="#666666"
     borderopacity="1"
     objecttolerance="10"
     gridtolerance="10"
     guidetolerance="10"
     inkscape:pageopacity="0"
     inkscape:pageshadow="2"
     inkscape:window-width="1366"
     inkscape:window-height="691"
     id="namedview22"
     showgrid="false"
     showguides="true"
     inkscape:guide-bbox="true"
     inkscape:zoom="14.75"
     inkscape:cx="4.556491"
     inkscape:cy="8.9197339"
     inkscape:window-x="0"
     inkscape:window-y="0"
     inkscape:window-maximized="1"
     inkscape:current-layer="svg20" />
  <path
     style="opacity:0.2;fill:#000000;fill-opacity:1;stroke-width:0.37796444"
     d="m 3.0000002,3.0000001 c -0.553999,0 -0.999999,0.495556 -0.999999,1.1111114 v 13.3333325 4.444445 c 0,0.615555 0.446,1.111111 0.999999,1.111111 H 20.999999 c 0.554,0 1,-0.495556 1,-1.111111 V 17.444444 4.1111114 C 21.999999,3.495556 21.553999,3 20.999999,3 Z"
     id="path4-2"
     inkscape:connector-curvature="0" />
  <path
     style="fill:url(#linearGradient896);fill-opacity:1;stroke-width:0.37796444"
     d="m 3.0000001,2.0000004 c -0.5539999,0 -0.9999999,0.495556 -0.9999999,1.1111114 v 13.3333322 4.444445 c 0,0.615555 0.446,1.111111 0.9999999,1.111111 H 20.999998 c 0.554,0 1,-0.495556 1,-1.111111 V 16.444444 3.1111118 c 0,-0.6155554 -0.446,-1.1111114 -1,-1.1111114 z"
     id="path4"
     inkscape:connector-curvature="0" />
  <rect
     style="opacity:0.2;stroke:#000000;stroke-width:0;stroke-linejoin:round"
     width="20"
     height="1.1999998"
     x="2"
     y="12"
     id="rect6" />
  <rect
     style="opacity:0.2;stroke:#000000;stroke-width:0;stroke-linejoin:round"
     width="20"
     height="1.1999998"
     x="2"
     y="4.8000007"
     id="rect8" />
  <rect
     style="opacity:0.2;stroke:#000000;stroke-width:0;stroke-linejoin:round"
     width="20"
     height="1.1999998"
     x="2"
     y="9.6000013"
     id="rect10" />
  <path
     style="opacity:0.4;fill:#ffffff;stroke-width:0.37796444"
     d="M 3.0002789,2.0000004 C 2.446279,2.0000004 2,2.4953829 2,3.1109381 V 3.5109382 C 2,2.8953825 2.446279,2.4000004 3.0002789,2.4000004 H 20.999719 c 0.554001,0 1.000279,0.4953821 1.000279,1.1109378 V 3.1109381 c 0,-0.6155557 -0.446278,-1.1109377 -1.000279,-1.1109377 z"
     id="path12"
     inkscape:connector-curvature="0" />
  <rect
     style="opacity:0.2;stroke:#000000;stroke-width:0;stroke-linejoin:round"
     width="20"
     height="1.1999998"
     x="2"
     y="7.2000012"
     id="rect14" />
  <rect
     style="opacity:0.2;stroke:#000000;stroke-width:0;stroke-linejoin:round"
     width="20"
     height="1.1999998"
     x="2"
     y="19.599857"
     id="rect6-6" />
  <rect
     style="opacity:0.2;stroke:#000000;stroke-width:0;stroke-linejoin:round"
     width="20"
     height="1.1999998"
     x="2"
     y="17.199858"
     id="rect10-9" />
  <rect
     style="opacity:0.2;stroke:#000000;stroke-width:0;stroke-linejoin:round"
     width="20"
     height="1.1999998"
     x="2"
     y="14.799859"
     id="rect14-1" />
  <rect
     style="opacity:0.2;stroke:#000000;stroke-width:0;stroke-linejoin:round"
     width="20"
     height="1.1999998"
     x="2"
     y="2.8000002"
     id="rect8-7" />
  <path
     style="fill:none;stroke:#16c344;stroke-width:0.75592887;stroke-linecap:butt;stroke-linejoin:miter;stroke-miterlimit:4;stroke-dasharray:none;stroke-opacity:1"
     d="M 2,13.2 H 6.8184014 L 10.305084,6.1657291 13.404357,17.555559 15.389829,13.2 h 6.610169"
     id="path1454"
     inkscape:connector-curvature="0"
     sodipodi:nodetypes="cccccc" />
  <path
     style="fill:none;stroke:#16c344;stroke-width:2;stroke-linecap:butt;stroke-linejoin:miter;stroke-miterlimit:4;stroke-dasharray:none;stroke-opacity:1;filter:url(#filter1491)"
     d="M 4,35 H 17.491525 L 27.254237,17.414322 35.932204,45.888897 41.491526,35 H 60"
     id="path1454-3"
     inkscape:connector-curvature="0"
     sodipodi:nodetypes="cccccc"
     transform="matrix(0.32614092,0,0,0.40291308,1.56349,-0.8922032)" />
</svg>
