<?xml version="1.0" encoding="UTF-8" standalone="no"?>
<svg
   xmlns:dc="http://purl.org/dc/elements/1.1/"
   xmlns:cc="http://creativecommons.org/ns#"
   xmlns:rdf="http://www.w3.org/1999/02/22-rdf-syntax-ns#"
   xmlns:svg="http://www.w3.org/2000/svg"
   xmlns="http://www.w3.org/2000/svg"
   xmlns:xlink="http://www.w3.org/1999/xlink"
   xmlns:sodipodi="http://sodipodi.sourceforge.net/DTD/sodipodi-0.dtd"
   xmlns:inkscape="http://www.inkscape.org/namespaces/inkscape"
   width="24"
   height="24"
   version="1"
   id="svg18"
   sodipodi:docname="applets-screenshooter.svg"
   inkscape:version="0.92.4 5da689c313, 2019-01-14">
  <metadata
     id="metadata24">
    <rdf:RDF>
      <cc:Work
         rdf:about="">
        <dc:format>image/svg+xml</dc:format>
        <dc:type
           rdf:resource="http://purl.org/dc/dcmitype/StillImage" />
        <dc:title />
      </cc:Work>
    </rdf:RDF>
  </metadata>
  <defs
     id="defs22">
    <linearGradient
       id="linearGradient1748"
       inkscape:collect="always">
      <stop
         id="stop1744"
         offset="0"
         style="stop-color:#ffffff;stop-opacity:1" />
      <stop
         id="stop1746"
         offset="1"
         style="stop-color:#ffffff;stop-opacity:0" />
    </linearGradient>
    <linearGradient
       inkscape:collect="always"
       xlink:href="#linearGradient4556"
       id="linearGradient4558"
       x1="-6.2112632"
       y1="-27.4408"
       x2="538.62769"
       y2="562.73615"
       gradientUnits="userSpaceOnUse"
       gradientTransform="matrix(0.2563515,0,0,0.24925074,1.3083968,250.72582)" />
    <linearGradient
       inkscape:collect="always"
       id="linearGradient4556">
      <stop
         style="stop-color:#12d79c;stop-opacity:1"
         offset="0"
         id="stop4552" />
      <stop
         style="stop-color:#6020a7;stop-opacity:1"
         offset="1"
         id="stop4554" />
    </linearGradient>
    <linearGradient
       x1="24.979176"
       y1="4.5588341"
       x2="24.939274"
       y2="8.2648869"
       id="linearGradient3058"
       xlink:href="#linearGradient3924-1"
       gradientUnits="userSpaceOnUse"
       gradientTransform="matrix(0.81280613,0,0,0.67055313,9.3017455,-8.2769919)" />
    <linearGradient
       id="linearGradient3924-1">
      <stop
         id="stop3926-3"
         style="stop-color:#ffffff;stop-opacity:1"
         offset="0" />
      <stop
         id="stop3930-6"
         style="stop-color:#ffffff;stop-opacity:0.15686275"
         offset="1" />
      <stop
         id="stop3932-6"
         style="stop-color:#ffffff;stop-opacity:0"
         offset="1" />
    </linearGradient>
    <linearGradient
       gradientTransform="matrix(0.35714287,0,0,0.34725033,-0.12329392,-383.55419)"
       inkscape:collect="always"
       xlink:href="#linearGradient1748"
       id="linearGradient1718-5"
       x1="196.63319"
       y1="330.93137"
       x2="196.63321"
       y2="309.85748"
       gradientUnits="userSpaceOnUse" />
  </defs>
  <sodipodi:namedview
     pagecolor="#ffffff"
     bordercolor="#666666"
     borderopacity="1"
     objecttolerance="10"
     gridtolerance="10"
     guidetolerance="10"
     inkscape:pageopacity="0"
     inkscape:pageshadow="2"
     inkscape:window-width="1366"
     inkscape:window-height="691"
     id="namedview20"
     showgrid="false"
     inkscape:zoom="16"
     inkscape:cx="1.233968"
     inkscape:cy="8.443201"
     inkscape:window-x="0"
     inkscape:window-y="0"
     inkscape:window-maximized="1"
     inkscape:current-layer="g882" />
  <g
     transform="matrix(1.4836578,0,0,1.4836578,-18.656975,-527.06763)"
     id="g921">
    <g
       id="g866"
       transform="matrix(0.91330589,0,0,0.90000569,2.4925618,35.52286)">
      <g
         transform="matrix(1.2710655,0,0,1.2761094,-1.8895507,-104.07869)"
         id="g887"
         style="stroke-width:0.09361701">
        <g
           id="g882"
           transform="matrix(0.09398591,0,0,0.09398591,10.705927,337.20349)"
           style="stroke-width:0.09361701">
          <rect
             height="99.740349"
             ry="7.1298828"
             width="123.55186"
             x="6.6722059"
             y="273.33871"
             id="rect7-8"
             style="opacity:0.2;fill:#000000;fill-opacity:1;stroke:none;stroke-width:0.28306136;stroke-linecap:round;stroke-linejoin:round;stroke-miterlimit:4;stroke-dasharray:none;stroke-dashoffset:0;stroke-opacity:0.78431373;paint-order:normal"
             rx="7.3330002" />
          <rect
             height="99.740349"
             ry="7.1298828"
             width="123.55186"
             x="6.6722059"
             y="267.01196"
             id="rect7"
             style="opacity:1;fill:url(#linearGradient4558);fill-opacity:1;stroke:none;stroke-width:0.28306133;stroke-linecap:round;stroke-linejoin:round;stroke-miterlimit:4;stroke-dasharray:none;stroke-dashoffset:0;stroke-opacity:0.78431373;paint-order:normal"
             rx="7.3330002" />
          <g
             style="fill:#ffffff;stroke-width:0.09361701"
             id="g17"
             transform="matrix(2.3448275,0,0,2.2464111,-671.58077,-856.677)">
            <path
               inkscape:connector-curvature="0"
               style="opacity:0.75;fill:#ffffff;fill-opacity:1;stroke-width:0.09361701"
               id="path9"
               d="m 294.90044,506.26511 v 1 4 h 1 v -4 h 4 v -1 z" />
            <path
               inkscape:connector-curvature="0"
               style="opacity:0.75;fill:#ffffff;fill-opacity:1;stroke-width:0.09361701"
               id="path11"
               d="m 294.90044,538.56511 h 1 4 v -1 h -4 v -4 h -1 z" />
            <path
               inkscape:connector-curvature="0"
               style="opacity:0.75;fill:#ffffff;fill-opacity:1;stroke-width:0.09361701"
               id="path13"
               d="m 336.2007,538.06511 v -1 -4 h -1 v 4 h -4 v 1 z" />
            <path
               inkscape:connector-curvature="0"
               style="opacity:0.75;fill:#ffffff;fill-opacity:1;stroke-width:0.09361701"
               id="path15"
               d="m 336.3007,506.56472 h -1 -4 v 1 h 4 v 4 h 1 z" />
          </g>
          <path
             inkscape:connector-curvature="0"
             style="opacity:0.75;fill:#ffffff;fill-opacity:1;stroke-width:0.29157612"
             id="path19"
             d="m 91.228447,300.60023 c -1.287133,-1.31311 -2.839639,-1.96983 -4.658806,-1.96983 h -5.765806 l -1.312366,-3.57225 c -0.326054,-0.85791 -0.922194,-1.59784 -1.789161,-2.21972 -0.866579,-0.62167 -1.754666,-0.93274 -2.66424,-0.93274 H 61.858843 c -0.909577,0 -1.797692,0.31124 -2.66431,0.93274 -0.866566,0.62188 -1.462766,1.36181 -1.788816,2.21972 l -1.31271,3.57225 h -5.7658 c -1.819175,0 -3.371975,0.65672 -4.659078,1.96983 -1.286803,1.31349 -1.930368,2.8981 -1.930368,4.75448 v 23.53539 c 0,1.85641 0.643565,3.44136 1.930368,4.75415 1.287103,1.31348 2.839903,1.97019 4.659078,1.97019 h 36.242148 c 1.81912,0 3.371652,-0.65671 4.658786,-1.97019 1.28676,-1.31279 1.930367,-2.89774 1.930367,-4.75415 v -23.53539 c 2.12e-4,-1.85638 -0.64326,-3.44099 -1.930061,-4.75448 z m -14.633492,24.83595 c -2.256386,2.30293 -4.971874,3.45423 -8.146666,3.45423 -3.174836,0 -5.889977,-1.1513 -8.146707,-3.45423 -2.256751,-2.30261 -3.384895,-5.07391 -3.384895,-8.31342 0,-3.23982 1.12848,-6.0106 3.384895,-8.31348 2.256394,-2.30293 4.971871,-3.45423 8.146707,-3.45423 3.174792,0 5.88998,1.15162 8.146666,3.45423 2.25672,2.30257 3.384953,5.07366 3.384953,8.31348 0,3.23951 -1.12854,6.0105 -3.384953,8.31342 z m -8.146666,-15.87864 c -2.042199,0 -3.78807,0.73992 -5.238212,2.21977 -1.450145,1.47982 -2.17519,3.26139 -2.17519,5.34545 0,2.08395 0.725045,3.86557 2.17519,5.34539 1.450142,1.47951 3.196013,2.21945 5.238212,2.21945 2.041857,0 3.788066,-0.73994 5.238219,-2.21945 1.450101,-1.47982 2.175174,-3.26144 2.175174,-5.34539 0,-2.08406 -0.725073,-3.86563 -2.175174,-5.34545 -1.450153,-1.47985 -3.196362,-2.21977 -5.238219,-2.21977 z" />
          <rect
             height="97.625504"
             ry="6.9787025"
             width="121.37679"
             x="7.7597446"
             y="-365.69489"
             id="rect7-5-7"
             style="opacity:0.4;fill:none;fill-opacity:1;stroke:url(#linearGradient1718-5);stroke-width:2.1447494;stroke-linecap:round;stroke-linejoin:round;stroke-miterlimit:4;stroke-dasharray:none;stroke-dashoffset:0;stroke-opacity:1;paint-order:normal"
             rx="7.2039061"
             transform="scale(1,-1)" />
        </g>
      </g>
    </g>
  </g>
</svg>
