<?xml version="1.0" encoding="UTF-8" standalone="no"?>
<svg
   xmlns:dc="http://purl.org/dc/elements/1.1/"
   xmlns:cc="http://creativecommons.org/ns#"
   xmlns:rdf="http://www.w3.org/1999/02/22-rdf-syntax-ns#"
   xmlns:svg="http://www.w3.org/2000/svg"
   xmlns="http://www.w3.org/2000/svg"
   xmlns:xlink="http://www.w3.org/1999/xlink"
   xmlns:sodipodi="http://sodipodi.sourceforge.net/DTD/sodipodi-0.dtd"
   xmlns:inkscape="http://www.inkscape.org/namespaces/inkscape"
   width="24"
   height="24"
   version="1"
   id="svg22"
   sodipodi:docname="cheese.svg"
   inkscape:version="0.92.4 5da689c313, 2019-01-14">
  <metadata
     id="metadata28">
    <rdf:RDF>
      <cc:Work
         rdf:about="">
        <dc:format>image/svg+xml</dc:format>
        <dc:type
           rdf:resource="http://purl.org/dc/dcmitype/StillImage" />
        <dc:title />
      </cc:Work>
    </rdf:RDF>
  </metadata>
  <defs
     id="defs26">
    <linearGradient
       inkscape:collect="always"
       id="linearGradient839">
      <stop
         style="stop-color:#dcdcdc;stop-opacity:1;"
         offset="0"
         id="stop835" />
      <stop
         style="stop-color:#f0f0f0;stop-opacity:1"
         offset="1"
         id="stop837" />
    </linearGradient>
    <linearGradient
       inkscape:collect="always"
       xlink:href="#linearGradient839"
       id="linearGradient841"
       x1="32.033897"
       y1="52.610168"
       x2="34.949154"
       y2="11.118644"
       gradientUnits="userSpaceOnUse"
       gradientTransform="matrix(0.38461539,0,0,0.35714291,-0.30769235,1.4285712)" />
    <linearGradient
       inkscape:collect="always"
       xlink:href="#linearGradient839"
       id="linearGradient1135"
       gradientUnits="userSpaceOnUse"
       gradientTransform="matrix(0.38461539,0,0,0.35714291,-0.30769235,1.4285712)"
       x1="32.033897"
       y1="52.610168"
       x2="34.949154"
       y2="11.118644" />
  </defs>
  <sodipodi:namedview
     pagecolor="#ffffff"
     bordercolor="#666666"
     borderopacity="1"
     objecttolerance="10"
     gridtolerance="10"
     guidetolerance="10"
     inkscape:pageopacity="0"
     inkscape:pageshadow="2"
     inkscape:window-width="1366"
     inkscape:window-height="691"
     id="namedview24"
     showgrid="false"
     inkscape:zoom="20.85965"
     inkscape:cx="9.3302689"
     inkscape:cy="12.343619"
     inkscape:window-x="0"
     inkscape:window-y="0"
     inkscape:window-maximized="1"
     inkscape:current-layer="svg22" />
  <rect
     id="rect1117-7"
     ry="0.89285713"
     rx="0.96153849"
     y="6.7142859"
     x="2"
     height="14.285714"
     width="20"
     style="fill:#000000;fill-opacity:1;stroke-width:0.37062466;opacity:0.2" />
  <rect
     style="fill:#4f4f4f;stroke-width:0.37062466"
     width="3.0769231"
     height="2.8571429"
     x="3.5384617"
     y="5"
     rx="0.76923078"
     ry="0.71428573"
     id="rect4" />
  <rect
     style="fill:url(#linearGradient1135);fill-opacity:1;stroke-width:0.37062466"
     width="20"
     height="14.285714"
     x="2"
     y="5.7142849"
     rx="0.96153849"
     ry="0.89285713"
     id="rect6" />
  <ellipse
     style="opacity:0.4;stroke-width:0.37062466"
     cx="19.692307"
     cy="7.8571434"
     id="circle8"
     rx="0.76923078"
     ry="0.71428573" />
  <ellipse
     style="opacity:0.4;stroke-width:0.37062466"
     cx="12"
     cy="12.857142"
     id="circle10"
     rx="6.1538463"
     ry="5.7142859" />
  <ellipse
     style="opacity:0.2;stroke-width:0.37062466"
     cx="12"
     cy="-13.214285"
     transform="scale(1,-1)"
     id="circle12"
     rx="4.6153846"
     ry="4.2857141" />
  <ellipse
     style="fill:#8a00c6;fill-opacity:1;stroke-width:0.37062466"
     cx="12"
     cy="-12.857142"
     transform="scale(1,-1)"
     id="circle14"
     rx="4.6153846"
     ry="4.2857141" />
  <ellipse
     style="opacity:0.2;stroke-width:0.37062466"
     cx="12"
     cy="13.214285"
     id="circle16"
     rx="3.0769231"
     ry="2.8571429" />
  <ellipse
     style="fill:#ffffff;fill-opacity:0.39215686;stroke-width:0.37062466"
     cx="12"
     cy="12.857142"
     id="circle18"
     rx="3.0769231"
     ry="2.8571429" />
  <path
     style="opacity:0.4;fill:#ffffff;stroke-width:0.37062466"
     d="M 2.9615384,5.7142848 C 2.4288461,5.7142848 2,6.1124997 2,6.6071431 V 6.9642856 C 2,6.4696422 2.4288461,6.0714279 2.9615384,6.0714279 H 21.038461 C 21.569231,6.0714279 22,6.4696422 22,6.9642856 V 6.6071431 C 22,6.1124997 21.569231,5.7142848 21.038461,5.7142848 Z"
     id="path20"
     inkscape:connector-curvature="0" />
  <path
     inkscape:connector-curvature="0"
     style="opacity:0.2;fill:#000000;fill-opacity:1;stroke-width:0.37062466"
     d="M 2.9615384,20 C 2.4288461,20 2,19.601786 2,19.107143 V 18.75 c 0,0.494643 0.4288461,0.892857 0.9615384,0.892857 H 21.038461 C 21.569231,19.642857 22,19.244643 22,18.75 v 0.357143 C 22,19.601786 21.569231,20 21.038461,20 Z"
     id="path20-3" />
  <rect
     id="rect1115"
     ry="0.71428573"
     rx="0.76923078"
     y="5"
     x="3.5384617"
     height="2.8571429"
     width="3.0769231"
     style="fill:#4f4f4f;stroke-width:0.37062466" />
  <rect
     id="rect1117"
     ry="0.89285713"
     rx="0.96153849"
     y="5.7142849"
     x="2"
     height="14.285714"
     width="20"
     style="fill:url(#linearGradient841);fill-opacity:1;stroke-width:0.37062466" />
  <ellipse
     ry="0.71428573"
     rx="0.76923078"
     id="ellipse1119"
     cy="7.8571434"
     cx="19.692307"
     style="opacity:0.4;stroke-width:0.37062466" />
  <ellipse
     ry="5.7142859"
     rx="6.1538463"
     id="ellipse1121"
     cy="12.857142"
     cx="12"
     style="opacity:0.4;stroke-width:0.37062466" />
  <ellipse
     ry="4.2857141"
     rx="4.6153846"
     id="ellipse1123"
     transform="scale(1,-1)"
     cy="-13.214285"
     cx="12"
     style="opacity:0.2;stroke-width:0.37062466" />
  <ellipse
     ry="4.2857141"
     rx="4.6153846"
     id="ellipse1125"
     transform="scale(1,-1)"
     cy="-12.857142"
     cx="12"
     style="fill:#8a00c6;fill-opacity:1;stroke-width:0.37062466" />
  <ellipse
     ry="2.8571429"
     rx="3.0769231"
     id="ellipse1127"
     cy="13.214285"
     cx="12"
     style="opacity:0.2;stroke-width:0.37062466" />
  <ellipse
     ry="2.8571429"
     rx="3.0769231"
     id="ellipse1129"
     cy="12.857142"
     cx="12"
     style="fill:#ffffff;fill-opacity:0.39215686;stroke-width:0.37062466" />
  <path
     inkscape:connector-curvature="0"
     id="path1131"
     d="M 2.9615384,5.7142848 C 2.4288461,5.7142848 2,6.1124997 2,6.6071431 V 6.9642856 C 2,6.4696422 2.4288461,6.0714279 2.9615384,6.0714279 H 21.038461 C 21.569231,6.0714279 22,6.4696422 22,6.9642856 V 6.6071431 C 22,6.1124997 21.569231,5.7142848 21.038461,5.7142848 Z"
     style="opacity:0.4;fill:#ffffff;stroke-width:0.37062466" />
</svg>
