<?xml version="1.0" encoding="UTF-8" standalone="no"?>
<svg
   xmlns:dc="http://purl.org/dc/elements/1.1/"
   xmlns:cc="http://creativecommons.org/ns#"
   xmlns:rdf="http://www.w3.org/1999/02/22-rdf-syntax-ns#"
   xmlns:svg="http://www.w3.org/2000/svg"
   xmlns="http://www.w3.org/2000/svg"
   xmlns:xlink="http://www.w3.org/1999/xlink"
   xmlns:sodipodi="http://sodipodi.sourceforge.net/DTD/sodipodi-0.dtd"
   xmlns:inkscape="http://www.inkscape.org/namespaces/inkscape"
   width="24"
   height="24"
   version="1"
   id="svg12"
   sodipodi:docname="ciano.svg"
   inkscape:version="0.92.4 5da689c313, 2019-01-14">
  <metadata
     id="metadata18">
    <rdf:RDF>
      <cc:Work
         rdf:about="">
        <dc:format>image/svg+xml</dc:format>
        <dc:type
           rdf:resource="http://purl.org/dc/dcmitype/StillImage" />
        <dc:title />
      </cc:Work>
    </rdf:RDF>
  </metadata>
  <defs
     id="defs16">
    <linearGradient
       inkscape:collect="always"
       id="linearGradient840">
      <stop
         style="stop-color:#1b9dce;stop-opacity:1;"
         offset="0"
         id="stop836" />
      <stop
         style="stop-color:#27afe3;stop-opacity:1"
         offset="1"
         id="stop838" />
    </linearGradient>
    <linearGradient
       inkscape:collect="always"
       xlink:href="#linearGradient840"
       id="linearGradient842"
       x1="-58"
       y1="-32"
       x2="-6"
       y2="-32"
       gradientUnits="userSpaceOnUse"
       gradientTransform="matrix(0.38461539,0,0,0.38461539,0.30769195,0.30769235)" />
  </defs>
  <sodipodi:namedview
     pagecolor="#ffffff"
     bordercolor="#666666"
     borderopacity="1"
     objecttolerance="10"
     gridtolerance="10"
     guidetolerance="10"
     inkscape:pageopacity="0"
     inkscape:pageshadow="2"
     inkscape:window-width="1366"
     inkscape:window-height="691"
     id="namedview14"
     showgrid="false"
     inkscape:zoom="20.85965"
     inkscape:cx="8.3062832"
     inkscape:cy="4.2350882"
     inkscape:window-x="0"
     inkscape:window-y="0"
     inkscape:window-maximized="1"
     inkscape:current-layer="svg12" />
  <rect
     style="opacity:0.2;fill:#000000;fill-opacity:1;stroke-width:0.38461539"
     width="20"
     height="20"
     x="-23"
     y="-22"
     rx="10"
     ry="10"
     transform="matrix(0,-1,-1,0,0,0)"
     id="rect2-4" />
  <rect
     style="fill:url(#linearGradient842);fill-opacity:1;stroke-width:0.38461539"
     width="20"
     height="20"
     x="-22"
     y="-22"
     rx="10"
     ry="10"
     transform="matrix(0,-1,-1,0,0,0)"
     id="rect2" />
  <path
     style="opacity:0.4;fill:#ffffff;stroke-width:0.38461539"
     d="M 12,2 C 6.4600857,2 2,6.4600855 2,12 2,12.04266 2.00446,12.08415 2.00676,12.126202 2.1433426,6.707063 6.5467757,2.3846155 12,2.3846155 c 5.453224,0 9.856657,4.3224475 9.993239,9.7415865 C 21.995517,12.084151 22,12.042661 22,12 22,6.4600855 17.539914,2 12,2 Z"
     id="path4"
     inkscape:connector-curvature="0" />
  <path
     style="opacity:0.2;stroke-width:0.38461539"
     d="m 12.000751,5.4612095 c -0.646964,-0.00669 -1.289425,0.08907 -1.913311,0.259916 C 7.1822571,6.500433 5.0561305,9.3758071 5.1002105,12.385038 H 3.5384614 c 0.7961397,1.17064 2.3076926,3.460787 2.3076926,3.460787 0,0 2.3076917,-3.461905 2.3076917,-3.462289 H 6.646935 C 6.6413636,11.123304 7.1143764,9.8560057 7.9532757,8.9152357 9.52999,7.019544 12.385107,6.230402 14.58113,7.8410171 c 0.696151,0.9112308 2.214461,-0.122765 1.431039,-1.0238876 -1.153918,-0.898639 -2.554557,-1.352843 -4.011418,-1.35592 z m 6.153095,3.4615384 c 0,0 -2.307692,3.4611541 -2.307692,3.4615381 h 1.506911 c 0.0056,1.260231 -0.467441,2.528282 -1.306341,3.469051 -1.576714,1.895692 -4.431831,2.684834 -6.627854,1.074219 -0.6961507,-0.911231 -2.2144607,0.122765 -1.4310393,1.023888 1.1539186,0.898638 2.5545573,1.352842 4.0114183,1.35592 0.646964,0.0067 1.289425,-0.08907 1.913311,-0.259916 2.905183,-0.779308 5.031309,-3.654682 4.987229,-6.663912 h 1.56175 c -0.79614,-1.17064 -2.307693,-3.4607881 -2.307693,-3.4607881 z"
     id="path8"
     inkscape:connector-curvature="0" />
  <path
     style="fill:#ffffff;fill-opacity:1;stroke-width:0.38461539"
     d="M 12.000751,5.076923 C 11.353787,5.0702301 10.711326,5.165993 10.08744,5.336839 7.1822571,6.1161465 5.0561305,8.9915207 5.1002105,12.000751 H 3.5384614 c 0.7961397,1.17064 2.3076926,3.460788 2.3076926,3.460788 0,0 2.3076917,-3.461905 2.3076917,-3.46229 H 6.646935 C 6.6413636,10.739018 7.1143764,9.4717193 7.9532757,8.5309493 9.52999,6.635257 12.385107,5.8461155 14.58113,7.4567305 15.277281,8.3679614 16.795591,7.3339655 16.012169,6.432843 14.858251,5.5342045 13.457612,5.08 12.000751,5.076923 Z m 6.153095,3.4615384 c 0,0 -2.307692,3.4611546 -2.307692,3.4615386 h 1.506911 c 0.0056,1.260231 -0.467441,2.528281 -1.306341,3.469051 -1.576714,1.895692 -4.431831,2.684833 -6.627854,1.074218 -0.6961507,-0.91123 -2.2144607,0.122765 -1.4310393,1.023888 1.1539186,0.898639 2.5545573,1.352843 4.0114183,1.35592 0.646964,0.0067 1.289425,-0.08907 1.913311,-0.259916 2.905183,-0.779307 5.031309,-3.654682 4.987229,-6.663912 h 1.56175 c -0.79614,-1.17064 -2.307693,-3.4607876 -2.307693,-3.4607876 z"
     id="path10"
     inkscape:connector-curvature="0" />
</svg>
