<?xml version="1.0" encoding="UTF-8" standalone="no"?>
<svg
   xmlns:dc="http://purl.org/dc/elements/1.1/"
   xmlns:cc="http://creativecommons.org/ns#"
   xmlns:rdf="http://www.w3.org/1999/02/22-rdf-syntax-ns#"
   xmlns:svg="http://www.w3.org/2000/svg"
   xmlns="http://www.w3.org/2000/svg"
   xmlns:xlink="http://www.w3.org/1999/xlink"
   xmlns:sodipodi="http://sodipodi.sourceforge.net/DTD/sodipodi-0.dtd"
   xmlns:inkscape="http://www.inkscape.org/namespaces/inkscape"
   width="24"
   height="24"
   version="1"
   id="svg24"
   sodipodi:docname="color-picker.svg"
   inkscape:version="0.92.4 5da689c313, 2019-01-14">
  <metadata
     id="metadata30">
    <rdf:RDF>
      <cc:Work
         rdf:about="">
        <dc:format>image/svg+xml</dc:format>
        <dc:type
           rdf:resource="http://purl.org/dc/dcmitype/StillImage" />
        <dc:title />
      </cc:Work>
    </rdf:RDF>
  </metadata>
  <defs
     id="defs28">
    <linearGradient
       inkscape:collect="always"
       id="linearGradient949">
      <stop
         style="stop-color:#dcdcdc;stop-opacity:1;"
         offset="0"
         id="stop945" />
      <stop
         style="stop-color:#f0f0f0;stop-opacity:1"
         offset="1"
         id="stop947" />
    </linearGradient>
    <linearGradient
       id="linearGradient924"
       inkscape:collect="always">
      <stop
         id="stop920"
         offset="0"
         style="stop-color:#ffffff;stop-opacity:1" />
      <stop
         id="stop922"
         offset="1"
         style="stop-color:#ffffff;stop-opacity:0" />
    </linearGradient>
    <linearGradient
       inkscape:collect="always"
       xlink:href="#linearGradient924"
       id="linearGradient894-4"
       x1="32.025299"
       y1="4.506299"
       x2="33.898304"
       y2="19.79661"
       gradientUnits="userSpaceOnUse"
       gradientTransform="matrix(0.357141,0,0,0.357141,0.57148791,0.57148854)" />
    <linearGradient
       inkscape:collect="always"
       xlink:href="#linearGradient949"
       id="linearGradient951"
       x1="22.684195"
       y1="58.033897"
       x2="57.858177"
       y2="6.7796612"
       gradientUnits="userSpaceOnUse"
       gradientTransform="matrix(0.357141,0,0,0.357141,0.57148791,0.57148854)" />
  </defs>
  <sodipodi:namedview
     pagecolor="#ffffff"
     bordercolor="#666666"
     borderopacity="1"
     objecttolerance="10"
     gridtolerance="10"
     guidetolerance="10"
     inkscape:pageopacity="0"
     inkscape:pageshadow="2"
     inkscape:window-width="1366"
     inkscape:window-height="691"
     id="namedview26"
     showgrid="false"
     inkscape:zoom="7.375"
     inkscape:cx="-1.8202461"
     inkscape:cy="19.633301"
     inkscape:window-x="0"
     inkscape:window-y="0"
     inkscape:window-maximized="1"
     inkscape:current-layer="svg24" />
  <path
     style="opacity:0.2;fill:#000000;fill-opacity:1;stroke-width:0.62499672"
     d="m 12.009882,3.0000003 c -8.9096224,0 -13.3699628,10.7713287 -7.0706728,17.0706187 2.85995,2.85995 7.1608998,3.715716 10.8975448,2.168007 3.736653,-1.547713 6.173076,-5.194081 6.173076,-9.238678 V 5.4999875 c 0,-1.3849928 -1.114994,-2.4999872 -2.499987,-2.4999872 z"
     id="path20-1"
     inkscape:connector-curvature="0"
     sodipodi:nodetypes="sssssss" />
  <path
     style="fill:url(#linearGradient951);fill-opacity:1;stroke-width:0.62499672"
     d="M 12.009882,2 C 3.10026,2 -1.3600804,12.771329 4.9392099,19.070619 c 2.85995,2.85995 7.1608991,3.715716 10.8975441,2.168007 3.736653,-1.547713 6.173076,-5.194081 6.173076,-9.238678 V 4.4999872 C 22.00983,3.1149944 20.894836,2 19.509843,2 Z"
     id="path20"
     inkscape:connector-curvature="0"
     sodipodi:nodetypes="sssssss" />
  <g
     id="g871"
     transform="matrix(0.25510072,0,0,0.25510072,3.8367771,3.8367772)">
    <circle
       id="circle2"
       r="27"
       cy="32"
       cx="32"
       style="fill:#f57c00" />
    <path
       id="path6"
       d="M 31.999998,32 59.075266,24.751346 A 28.028228,28.010254 0 0 0 39.245296,4.9781078 Z"
       style="fill:#1e88e5"
       inkscape:connector-curvature="0" />
    <path
       id="path8"
       d="M 31.999998,32 51.81996,51.80725 a 28.028228,28.010254 0 0 0 7.21927,-27.0479 z"
       style="fill:#43a047"
       inkscape:connector-curvature="0" />
    <path
       id="path10"
       d="M 31.999998,32 24.744692,59.055904 A 28.028228,28.010254 0 0 0 51.793934,51.781242 Z"
       style="fill:#fbc02d"
       inkscape:connector-curvature="0" />
    <path
       id="path12"
       d="M 31.999998,32 4.9247324,39.248654 A 28.028228,28.010254 0 0 0 24.754702,59.021892 Z"
       style="fill:#f57c00"
       inkscape:connector-curvature="0" />
    <path
       id="path14"
       d="M 31.999998,32 12.180039,12.192749 A 28.028228,28.010254 0 0 0 4.9607686,39.24065 Z"
       style="fill:#e53935"
       inkscape:connector-curvature="0" />
    <path
       id="path16"
       d="M 31.999998,32 39.255306,4.9440954 A 28.028228,28.010254 0 0 0 12.206065,12.218759 Z"
       style="fill:#8e24aa"
       inkscape:connector-curvature="0" />
  </g>
  <path
     style="opacity:0.8;fill:none;fill-opacity:1;stroke:url(#linearGradient894-4);stroke-width:0.36163998;stroke-miterlimit:4;stroke-dasharray:none;stroke-opacity:1"
     d="m 12.009036,2.1808726 c -8.7485459,0 -13.1282477,10.5765944 -6.9428423,16.7620004 2.8082454,2.808244 7.0314373,3.648539 10.7005283,2.128811 3.669098,-1.519732 6.061474,-5.100177 6.061474,-9.071653 V 4.6356622 c 0,-1.3599537 -1.094837,-2.4547896 -2.454791,-2.4547896 z"
     id="path20-7-2"
     inkscape:connector-curvature="0"
     sodipodi:nodetypes="sssssss" />
</svg>
