<?xml version="1.0" encoding="UTF-8" standalone="no"?>
<svg
   xmlns:dc="http://purl.org/dc/elements/1.1/"
   xmlns:cc="http://creativecommons.org/ns#"
   xmlns:rdf="http://www.w3.org/1999/02/22-rdf-syntax-ns#"
   xmlns:svg="http://www.w3.org/2000/svg"
   xmlns="http://www.w3.org/2000/svg"
   xmlns:xlink="http://www.w3.org/1999/xlink"
   xmlns:sodipodi="http://sodipodi.sourceforge.net/DTD/sodipodi-0.dtd"
   xmlns:inkscape="http://www.inkscape.org/namespaces/inkscape"
   width="24"
   height="24"
   version="1"
   id="svg12"
   sodipodi:docname="com.github.artemanufrij.webpin.svg"
   inkscape:version="0.92.4 5da689c313, 2019-01-14">
  <metadata
     id="metadata18">
    <rdf:RDF>
      <cc:Work
         rdf:about="">
        <dc:format>image/svg+xml</dc:format>
        <dc:type
           rdf:resource="http://purl.org/dc/dcmitype/StillImage" />
        <dc:title />
      </cc:Work>
    </rdf:RDF>
  </metadata>
  <defs
     id="defs16">
    <linearGradient
       inkscape:collect="always"
       id="linearGradient832">
      <stop
         style="stop-color:#2983f1;stop-opacity:1"
         offset="0"
         id="stop828" />
      <stop
         style="stop-color:#4f99f3;stop-opacity:1"
         offset="1"
         id="stop830" />
    </linearGradient>
    <linearGradient
       inkscape:collect="always"
       xlink:href="#linearGradient832"
       id="linearGradient834"
       x1="24.372881"
       y1="37.830509"
       x2="24"
       y2="9"
       gradientUnits="userSpaceOnUse"
       gradientTransform="matrix(0.45454545,0,0,0.43333334,1.0909091,2.1000001)" />
  </defs>
  <sodipodi:namedview
     pagecolor="#ffffff"
     bordercolor="#666666"
     borderopacity="1"
     objecttolerance="10"
     gridtolerance="10"
     guidetolerance="10"
     inkscape:pageopacity="0"
     inkscape:pageshadow="2"
     inkscape:window-width="1366"
     inkscape:window-height="691"
     id="namedview14"
     showgrid="false"
     inkscape:zoom="19.666667"
     inkscape:cx="7.4087"
     inkscape:cy="5.9665347"
     inkscape:window-x="0"
     inkscape:window-y="0"
     inkscape:window-maximized="1"
     inkscape:current-layer="svg12" />
  <path
     d="M 2.0106364,14.446134 C 2.0068636,14.521967 2,14.5965 2,14.6732 2,17.284034 4.2385911,19.4 7,19.4 H 17.625 C 20.041364,19.4 22,17.548366 22,15.263834 22,15.188864 21.9936,15.1152 21.98954,15.0411 c -0.117274,2.185734 -2.023638,3.925566 -4.364547,3.925566 H 7 c -2.6876818,0 -4.8740909,-2.006332 -4.9895454,-4.520532 z"
     id="path2"
     inkscape:connector-curvature="0"
     style="opacity:0.2;stroke-width:0.44381264" />
  <path
     style="fill:url(#linearGradient834);fill-opacity:1;stroke-width:0.44381264"
     d="M 12,6 C 9.4113636,6 7.2068179,7.4984675 6.257727,9.6192007 3.8480454,9.9580671 2,11.900266 2,14.272767 2,16.8836 4.2385911,19 7,19 H 17.625 C 20.041364,19 22,17.147934 22,14.863834 22,12.740501 20.311364,11.000667 18.132727,10.764067 17.564546,8.0540005 15.033636,6 12,6 Z"
     id="path4"
     inkscape:connector-curvature="0" />
  <path
     d="M 12,6 C 9.4113636,6 7.2068179,7.4980335 6.257727,9.6192007 3.8480454,9.9576336 2,11.900701 2,14.2732 c 0,0.06976 0.0075,0.137367 0.010636,0.206267 0.1139545,-2.268066 1.915,-4.099333 4.2470905,-4.426933 C 7.2068179,7.9313675 9.4113636,6.4333335 12,6.4333335 c 3.033636,0 5.564546,2.0535672 6.132727,4.7640675 2.101819,0.227933 3.742727,1.856399 3.856819,3.877033 C 21.993182,15.004234 22,14.9349 22,14.863834 22,12.740501 20.311364,11.000667 18.132727,10.764067 17.564546,8.053567 15.033636,6 12,6 Z"
     id="path6"
     style="opacity:0.4;fill:#ffffff;stroke-width:0.44381264"
     inkscape:connector-curvature="0" />
  <path
     style="opacity:0.2;fill:none;stroke:#000000;stroke-width:1.77525055;stroke-linecap:round;stroke-linejoin:round"
     d="m 6.090909,8.1729105 2.7272724,9.5333335 3.1818176,-7.143933 3.181819,7.143933 2.727273,-9.5333335"
     id="path8"
     inkscape:connector-curvature="0" />
  <path
     style="fill:none;stroke:#ffffff;stroke-width:1.77525055;stroke-linecap:round;stroke-linejoin:round;stroke-opacity:1"
     d="m 6.090909,7.739378 2.7272724,9.533333 3.1818176,-7.143933 3.181819,7.143933 2.727273,-9.533333"
     id="path10"
     inkscape:connector-curvature="0" />
</svg>
