<?xml version="1.0" encoding="UTF-8" standalone="no"?>
<svg
   xmlns:dc="http://purl.org/dc/elements/1.1/"
   xmlns:cc="http://creativecommons.org/ns#"
   xmlns:rdf="http://www.w3.org/1999/02/22-rdf-syntax-ns#"
   xmlns:svg="http://www.w3.org/2000/svg"
   xmlns="http://www.w3.org/2000/svg"
   xmlns:xlink="http://www.w3.org/1999/xlink"
   xmlns:sodipodi="http://sodipodi.sourceforge.net/DTD/sodipodi-0.dtd"
   xmlns:inkscape="http://www.inkscape.org/namespaces/inkscape"
   id="svg4569"
   height="24"
   width="24"
   version="1.0"
   sodipodi:docname="cs-login.svg"
   inkscape:version="0.92.3 (2405546, 2018-03-11)">
  <sodipodi:namedview
     pagecolor="#ffffff"
     bordercolor="#666666"
     borderopacity="1"
     objecttolerance="10"
     gridtolerance="10"
     guidetolerance="10"
     inkscape:pageopacity="0"
     inkscape:pageshadow="2"
     inkscape:window-width="1366"
     inkscape:window-height="704"
     id="namedview45"
     showgrid="false"
     inkscape:zoom="12.595339"
     inkscape:cx="15.07672"
     inkscape:cy="8.9641181"
     inkscape:window-x="0"
     inkscape:window-y="30"
     inkscape:window-maximized="1"
     inkscape:current-layer="svg4569" />
  <metadata
     id="metadata46">
    <rdf:RDF>
      <cc:Work
         rdf:about="">
        <dc:format>image/svg+xml</dc:format>
        <dc:type
           rdf:resource="http://purl.org/dc/dcmitype/StillImage" />
        <dc:title></dc:title>
      </cc:Work>
    </rdf:RDF>
  </metadata>
  <defs
     id="defs4571">
    <linearGradient
       id="linearGradient3912">
      <stop
         offset="0"
         style="stop-color:#787878;stop-opacity:1"
         id="stop3914" />
      <stop
         offset="0.35046947"
         style="stop-color:#b4b4b4;stop-opacity:1"
         id="stop3916" />
      <stop
         offset="0.49417919"
         style="stop-color:#c8c8c8;stop-opacity:1"
         id="stop3918" />
      <stop
         offset="0.58907253"
         style="stop-color:#e6e6e6;stop-opacity:1"
         id="stop3920" />
      <stop
         offset="1"
         style="stop-color:#8c8c8c;stop-opacity:1"
         id="stop3922" />
    </linearGradient>
    <linearGradient
       id="linearGradient6592-2-7">
      <stop
         offset="0"
         style="stop-color:#ffffff;stop-opacity:0.27450982"
         id="stop6594-0-2" />
      <stop
         offset="1"
         style="stop-color:#ffffff;stop-opacity:0"
         id="stop6596-2-5" />
    </linearGradient>
    <linearGradient
       id="linearGradient10691-1">
      <stop
         offset="0"
         style="stop-color:#000000;stop-opacity:1"
         id="stop10693-3" />
      <stop
         offset="1"
         style="stop-color:#000000;stop-opacity:0"
         id="stop10695-1" />
    </linearGradient>
    <linearGradient
       gradientTransform="matrix(0.42567207,0,0,0.40519089,-140.45359,-17.274211)"
       gradientUnits="userSpaceOnUse"
       xlink:href="#linearGradient3912"
       id="linearGradient3221"
       y2="94.396416"
       x2="361.10583"
       y1="87.050117"
       x1="361.10583" />
    <radialGradient
       gradientTransform="matrix(19.609558,0,0,4.1283273,124.56278,120.73303)"
       gradientUnits="userSpaceOnUse"
       xlink:href="#linearGradient10691-1"
       id="radialGradient3226"
       fy="73.615715"
       fx="6.702713"
       r="7.228416"
       cy="73.615715"
       cx="6.702713" />
    <linearGradient
       id="linearGradient4084">
      <stop
         offset="0"
         style="stop-color:#ffffff;stop-opacity:1"
         id="stop4086" />
      <stop
         offset="0.01596775"
         style="stop-color:#ffffff;stop-opacity:0.23529412"
         id="stop4088" />
      <stop
         offset="0.99257565"
         style="stop-color:#ffffff;stop-opacity:0.15686275"
         id="stop4090" />
      <stop
         offset="1"
         style="stop-color:#ffffff;stop-opacity:0.39215687"
         id="stop4092" />
    </linearGradient>
    <linearGradient
       id="outerBackgroundGradient-5-0">
      <stop
         id="stop3864-8-6-4"
         offset="0"
         style="stop-color:#0036cb;stop-opacity:1" />
      <stop
         id="stop3866-9-1-86"
         offset="1"
         style="stop-color:#0fdb00;stop-opacity:1" />
    </linearGradient>
    <linearGradient
       xlink:href="#linearGradient6592-2-7"
       id="linearGradient3141"
       gradientUnits="userSpaceOnUse"
       gradientTransform="matrix(11.563494,0,0,11.697807,13.166596,124.82849)"
       x1="10"
       y1="-3"
       x2="20"
       y2="12" />
    <linearGradient
       xlink:href="#linearGradient4084"
       id="linearGradient3144"
       gradientUnits="userSpaceOnUse"
       gradientTransform="matrix(12.400257,0,0,8.6700979,-41.606263,-14.574369)"
       x1="23.99999"
       y1="5.7531762"
       x2="23.99999"
       y2="42.121033" />
    <linearGradient
       xlink:href="#outerBackgroundGradient-5-0"
       id="linearGradient3148"
       gradientUnits="userSpaceOnUse"
       gradientTransform="matrix(10.664852,0,0,13.003648,32.03815,146.26633)"
       x1="-2.5488214"
       y1="28.788479"
       x2="44.631618"
       y2="-12.349135" />
    <linearGradient
       id="linearGradient4054-5">
      <stop
         offset="0"
         style="stop-color:#ffffff;stop-opacity:1"
         id="stop4056-0" />
      <stop
         offset="0.01719457"
         style="stop-color:#ffffff;stop-opacity:0.23529412"
         id="stop4058-4" />
      <stop
         offset="1"
         style="stop-color:#ffffff;stop-opacity:0.15686275"
         id="stop4060-4" />
      <stop
         offset="1"
         style="stop-color:#ffffff;stop-opacity:0.39215687"
         id="stop4062-0" />
    </linearGradient>
    <linearGradient
       xlink:href="#linearGradient4054-5"
       id="linearGradient3152-7"
       gradientUnits="userSpaceOnUse"
       gradientTransform="matrix(4.5366797,0,0,3.1252681,27.212142,49.812456)"
       x1="47.546879"
       y1="121.84093"
       x2="47.546879"
       y2="99.079079" />
    <linearGradient
       xlink:href="#linearGradient10691-1"
       id="linearGradient3148-3"
       gradientUnits="userSpaceOnUse"
       gradientTransform="matrix(10.664852,0,0,12.508438,41.430903,566.40042)"
       x1="15"
       y1="24.618645"
       x2="15"
       y2="2" />
    <clipPath
       id="clip1">
      <rect
         width="384"
         height="384"
         x="0"
         y="0"
         id="rect10" />
    </clipPath>
    <mask
       id="mask0">
      <g
         id="g7"
         style="filter:url(#alpha)">
        <rect
           width="384"
           height="384"
           x="0"
           y="0"
           style="fill:#000000;fill-opacity:0.2"
           id="rect5" />
      </g>
    </mask>
    <filter
       id="alpha"
       width="1"
       height="1"
       x="0"
       y="0"
       filterUnits="objectBoundingBox">
      <feColorMatrix
         in="SourceGraphic"
         type="matrix"
         values="0 0 0 0 1 0 0 0 0 1 0 0 0 0 1 0 0 0 1 0"
         id="feColorMatrix2" />
    </filter>
    <clipPath
       id="clipPath873">
      <rect
         width="384"
         height="384"
         x="0"
         y="0"
         id="rect871" />
    </clipPath>
    <clipPath
       id="clip1-4">
      <rect
         width="384"
         height="384"
         x="0"
         y="0"
         id="rect10-0" />
    </clipPath>
    <clipPath
       id="clip1-48">
      <rect
         width="384"
         height="384"
         x="0"
         y="0"
         id="rect10-8" />
    </clipPath>
  </defs>
  <path
     style="display:inline;overflow:visible;visibility:visible;fill:url(#linearGradient3221);fill-opacity:1;fill-rule:nonzero;stroke:none;stroke-width:0.15887527;stroke-linecap:round;stroke-linejoin:round;stroke-miterlimit:4;stroke-dasharray:none;stroke-dashoffset:0.5;stroke-opacity:1;marker:none;enable-background:new"
     id="rect1789"
     d="m 9.3826407,17.673554 c 0,0 0.063264,1.724962 -0.2388221,2.127024 -0.3020843,0.402065 -0.9031779,0.658342 -0.9031779,0.658342 -0.3857186,0.04224 -0.3889093,0.557057 0,0.557057 h 7.5359143 c 0.388911,0 0.385801,-0.515358 0,-0.557057 0,0 -0.601067,-0.256279 -0.903147,-0.658342 -0.30208,-0.40206 -0.238822,-2.127024 -0.238822,-2.127024 H 9.3853371 Z"
     inkscape:connector-curvature="0" />
  <path
     id="rect2722-0-5"
     d="M 2,3 H 22 V 18 H 2 Z"
     style="display:inline;fill:#000000;fill-opacity:1;stroke:none;stroke-width:0.18731715"
     inkscape:connector-curvature="0" />
  <path
     style="color:#000000;clip-rule:nonzero;display:inline;overflow:visible;visibility:visible;opacity:0.4;isolation:auto;mix-blend-mode:normal;color-interpolation:sRGB;color-interpolation-filters:linearRGB;solid-color:#000000;solid-opacity:1;fill:none;fill-opacity:1;fill-rule:nonzero;stroke:#000000;stroke-width:0.15887527;stroke-linecap:round;stroke-linejoin:round;stroke-miterlimit:4;stroke-dasharray:none;stroke-dashoffset:0.5;stroke-opacity:1;marker:none;color-rendering:auto;image-rendering:auto;shape-rendering:auto;text-rendering:auto;enable-background:new"
     id="rect1789-8"
     d="m 9.3826407,17.673554 c 0,0 0.063264,1.724962 -0.2388221,2.127024 -0.3020843,0.402065 -0.9031779,0.658342 -0.9031779,0.658342 -0.3857186,0.04224 -0.3889093,0.557057 0,0.557057 h 7.5359143 c 0.388911,0 0.385801,-0.515358 0,-0.557057 0,0 -0.601067,-0.256279 -0.903147,-0.658342 -0.30208,-0.40206 -0.238822,-2.127024 -0.238822,-2.127024 H 9.3853371 Z"
     inkscape:connector-curvature="0" />
  <path
     id="rect2722-0"
     d="M 2.9999999,4.020244 H 21 v 13 H 2.9999999 Z"
     style="display:inline;fill:#0083d7;fill-opacity:1;stroke:none;stroke-width:0.16543403"
     inkscape:connector-curvature="0" />
  <rect
     y="14.162304"
     x="8"
     height="0.83769637"
     width="8"
     id="rect848"
     style="opacity:1;fill:#ffffff;fill-opacity:1;stroke:none;stroke-width:0.48714098;stroke-linejoin:round;stroke-miterlimit:4;stroke-dasharray:none;stroke-opacity:0.58823529;paint-order:normal" />
  <path
     id="path865"
     d="M 12.094825,6.197149 A 3.3333417,3.3333417 0 0 0 8.7614744,9.5304993 3.3333417,3.3333417 0 0 0 12.094825,12.863849 3.3333417,3.3333417 0 0 0 15.428174,9.5304993 3.3333417,3.3333417 0 0 0 12.094825,6.197149 Z m -0.0079,1.2746784 c 0.125672,0 0.246807,0.019992 0.358047,0.059216 0.111239,0.03922 0.21256,0.09775 0.298043,0.175273 0.08548,0.07752 0.155293,0.174063 0.203696,0.288964 0.0484,0.114902 0.0754,0.248127 0.0754,0.399497 0,0.196882 -0.04951,0.3952779 -0.131455,0.5755589 -0.08194,0.180282 -0.196445,0.342328 -0.326071,0.466607 h 0.0016 c -0.04973,0.140717 -0.03485,0.227837 -0.0043,0.280673 0.0305,0.05284 0.07662,0.07158 0.08922,0.0754 0.150644,0.04818 0.311428,0.114067 0.467395,0.197775 0.155966,0.08371 0.307046,0.1852157 0.438971,0.3035697 0.131926,0.118355 0.24479,0.253698 0.323309,0.405813 0.07852,0.152115 0.122681,0.321092 0.118428,0.506082 h -3.809099 c -0.0038,-0.193649 0.05386,-0.372467 0.147641,-0.532926 0.09378,-0.160458 0.223833,-0.3028 0.365547,-0.424366 0.141713,-0.121567 0.295037,-0.222258 0.435025,-0.2992277 0.139988,-0.07697 0.266681,-0.130048 0.355284,-0.15672 0.019,-0.0064 0.07382,-0.03275 0.111322,-0.08843 0.0375,-0.05567 0.05754,-0.140753 0.0067,-0.264883 -0.130424,-0.123986 -0.245,-0.28658 -0.326861,-0.467396 -0.08186,-0.180816 -0.13106,-0.3798379 -0.13106,-0.5775329 0,-0.151407 0.02682,-0.284983 0.075,-0.399891 0.04818,-0.11491 0.1177,-0.211061 0.202906,-0.28857 0.08521,-0.07751 0.186193,-0.136068 0.297254,-0.175274 0.111062,-0.039208 0.232296,-0.059216 0.358047,-0.059216 z"
     style="opacity:1;fill:#ffffff;fill-opacity:1;stroke:none;stroke-width:0.37454009;stroke-linejoin:round;stroke-miterlimit:4;stroke-dasharray:none;stroke-opacity:0.58823529;paint-order:normal"
     inkscape:connector-curvature="0" />
</svg>
