<?xml version="1.0" encoding="UTF-8" standalone="no"?>
<svg
   xmlns:dc="http://purl.org/dc/elements/1.1/"
   xmlns:cc="http://creativecommons.org/ns#"
   xmlns:rdf="http://www.w3.org/1999/02/22-rdf-syntax-ns#"
   xmlns:svg="http://www.w3.org/2000/svg"
   xmlns="http://www.w3.org/2000/svg"
   xmlns:sodipodi="http://sodipodi.sourceforge.net/DTD/sodipodi-0.dtd"
   xmlns:inkscape="http://www.inkscape.org/namespaces/inkscape"
   width="24"
   height="24"
   version="1"
   id="svg16"
   sodipodi:docname="dconf-editor.svg"
   inkscape:version="0.92.4 5da689c313, 2019-01-14">
  <metadata
     id="metadata22">
    <rdf:RDF>
      <cc:Work
         rdf:about="">
        <dc:format>image/svg+xml</dc:format>
        <dc:type
           rdf:resource="http://purl.org/dc/dcmitype/StillImage" />
        <dc:title></dc:title>
      </cc:Work>
    </rdf:RDF>
  </metadata>
  <defs
     id="defs20" />
  <sodipodi:namedview
     pagecolor="#ffffff"
     bordercolor="#666666"
     borderopacity="1"
     objecttolerance="10"
     gridtolerance="10"
     guidetolerance="10"
     inkscape:pageopacity="0"
     inkscape:pageshadow="2"
     inkscape:window-width="1366"
     inkscape:window-height="708"
     id="namedview18"
     showgrid="false"
     inkscape:zoom="3.6875"
     inkscape:cx="-1.4915254"
     inkscape:cy="33.491525"
     inkscape:window-x="0"
     inkscape:window-y="25"
     inkscape:window-maximized="1"
     inkscape:current-layer="svg16" />
  <circle
     style="opacity:1;fill:#b42b2b;fill-opacity:1;stroke:none;stroke-width:0.35600129;stroke-miterlimit:4;stroke-dasharray:none;stroke-opacity:0"
     id="path829"
     cx="9.8692493"
     cy="9.772398"
     r="7.1428571" />
  <path
     style="opacity:0.2;stroke-width:0.49834824"
     d="m 13.304447,15.649207 6.092751,6.092752 c 1.409094,1.467588 3.581676,-0.704994 2.114087,-2.114087 l -6.185323,-6.185324 c -2.362301,0.785485 -1.365605,0.785485 -2.021515,2.206659 z"
     id="path6"
     inkscape:connector-curvature="0" />
  <path
     style="fill:#565656;stroke-width:0.49834824"
     d="m 13.304447,15.150859 6.092751,6.092751 c 1.409094,1.467589 3.581676,-0.704993 2.114087,-2.114088 L 15.325962,12.9442 c -2.362301,0.785485 -1.365605,0.785485 -2.021515,2.206659 z"
     id="path8"
     inkscape:connector-curvature="0" />
  <path
     style="opacity:0.2;stroke-width:0.49834824"
     d="M 9.9735715,2.2676758 A 7.9735715,7.9735715 0 0 0 2,10.241247 7.9735715,7.9735715 0 0 0 9.9735715,18.214818 7.9735715,7.9735715 0 0 0 17.947142,10.241247 7.9735715,7.9735715 0 0 0 9.9735715,2.2676758 Z m 0,2.990089 A 4.9834818,4.9834818 0 0 1 14.957053,10.241247 4.9834818,4.9834818 0 0 1 9.9735715,15.22473 4.9834818,4.9834818 0 0 1 4.9900893,10.241247 4.9834818,4.9834818 0 0 1 9.9735715,5.2577648 Z"
     id="path10"
     inkscape:connector-curvature="0" />
  <path
     style="fill:#ffffff;stroke-width:0.49834824"
     d="M 9.9735715,1.7693268 A 7.9735715,7.9735715 0 0 0 2,9.7428978 7.9735715,7.9735715 0 0 0 9.9735715,17.71647 7.9735715,7.9735715 0 0 0 17.947142,9.7428978 7.9735715,7.9735715 0 0 0 9.9735715,1.7693268 Z m 0,2.9900892 A 4.9834818,4.9834818 0 0 1 14.957053,9.7428978 4.9834818,4.9834818 0 0 1 9.9735715,14.72638 4.9834818,4.9834818 0 0 1 4.9900893,9.7428978 4.9834818,4.9834818 0 0 1 9.9735715,4.759416 Z"
     id="path12"
     inkscape:connector-curvature="0" />
</svg>
