<?xml version="1.0" encoding="UTF-8" standalone="no"?>
<svg
   xmlns:dc="http://purl.org/dc/elements/1.1/"
   xmlns:cc="http://creativecommons.org/ns#"
   xmlns:rdf="http://www.w3.org/1999/02/22-rdf-syntax-ns#"
   xmlns:svg="http://www.w3.org/2000/svg"
   xmlns="http://www.w3.org/2000/svg"
   xmlns:xlink="http://www.w3.org/1999/xlink"
   xmlns:sodipodi="http://sodipodi.sourceforge.net/DTD/sodipodi-0.dtd"
   xmlns:inkscape="http://www.inkscape.org/namespaces/inkscape"
   width="24"
   height="24"
   version="1.1"
   viewBox="0 0 18 18"
   id="svg22"
   sodipodi:docname="disk-utility.svg"
   inkscape:version="0.92.3 (2405546, 2018-03-11)">
  <metadata
     id="metadata28">
    <rdf:RDF>
      <cc:Work
         rdf:about="">
        <dc:format>image/svg+xml</dc:format>
        <dc:type
           rdf:resource="http://purl.org/dc/dcmitype/StillImage" />
        <dc:title></dc:title>
      </cc:Work>
    </rdf:RDF>
  </metadata>
  <defs
     id="defs26">
    <linearGradient
       inkscape:collect="always"
       id="linearGradient957">
      <stop
         style="stop-color:#d2d2d2;stop-opacity:1;"
         offset="0"
         id="stop953" />
      <stop
         style="stop-color:#dcdcdc;stop-opacity:1"
         offset="1"
         id="stop955" />
    </linearGradient>
    <linearGradient
       inkscape:collect="always"
       id="linearGradient924">
      <stop
         style="stop-color:#ffffff;stop-opacity:1;"
         offset="0"
         id="stop920" />
      <stop
         style="stop-color:#ffffff;stop-opacity:0;"
         offset="1"
         id="stop922" />
    </linearGradient>
    <linearGradient
       inkscape:collect="always"
       id="linearGradient892">
      <stop
         style="stop-color:#000000;stop-opacity:1;"
         offset="0"
         id="stop888" />
      <stop
         style="stop-color:#000000;stop-opacity:0;"
         offset="1"
         id="stop890" />
    </linearGradient>
    <linearGradient
       inkscape:collect="always"
       xlink:href="#linearGradient892"
       id="linearGradient894"
       x1="195.51483"
       y1="364.47458"
       x2="194.18008"
       y2="336.81357"
       gradientUnits="userSpaceOnUse"
       gradientTransform="matrix(0.04164666,0,0,0.04127208,1.0038418,0.92576877)" />
    <linearGradient
       inkscape:collect="always"
       xlink:href="#linearGradient924"
       id="linearGradient926"
       x1="180.87076"
       y1="18.711864"
       x2="180.34958"
       y2="46.372883"
       gradientUnits="userSpaceOnUse"
       gradientTransform="matrix(0.04163001,0,0,0.04255318,1.0070403,0.82978677)" />
    <linearGradient
       inkscape:collect="always"
       xlink:href="#linearGradient957"
       id="linearGradient959"
       x1="197.80704"
       y1="369.35593"
       x2="187.82008"
       y2="14.644068"
       gradientUnits="userSpaceOnUse"
       gradientTransform="matrix(0.04163001,0,0,0.04255318,1.0070403,0.82978677)" />
    <linearGradient
       gradientTransform="matrix(0.04163001,0,0,0.03774283,1.0070403,-15.735983)"
       inkscape:collect="always"
       xlink:href="#linearGradient924"
       id="linearGradient926-5"
       x1="180.87076"
       y1="18.711864"
       x2="180.34958"
       y2="35.170052"
       gradientUnits="userSpaceOnUse" />
  </defs>
  <sodipodi:namedview
     pagecolor="#ffffff"
     bordercolor="#666666"
     borderopacity="1"
     objecttolerance="10"
     gridtolerance="10"
     guidetolerance="10"
     inkscape:pageopacity="0"
     inkscape:pageshadow="2"
     inkscape:window-width="1366"
     inkscape:window-height="704"
     id="namedview24"
     showgrid="false"
     inkscape:zoom="25.157301"
     inkscape:cx="15.891414"
     inkscape:cy="7.9230952"
     inkscape:window-x="0"
     inkscape:window-y="30"
     inkscape:window-maximized="1"
     inkscape:current-layer="svg22"
     showguides="true"
     inkscape:guide-bbox="true" />
  <rect
     style="opacity:1;fill:url(#linearGradient959);fill-opacity:1;stroke:none;stroke-width:0.31566784;stroke-linecap:round;stroke-linejoin:round;stroke-miterlimit:4;stroke-dasharray:none;stroke-opacity:1;paint-order:stroke fill markers"
     id="rect837"
     width="11.980103"
     height="14.999998"
     x="3.0099478"
     y="1.5000004"
     rx="0.88587219"
     ry="0.90551746" />
  <rect
     style="opacity:0.4;fill:none;fill-opacity:1;stroke:url(#linearGradient926);stroke-width:0.3156679;stroke-linecap:round;stroke-linejoin:round;stroke-miterlimit:4;stroke-dasharray:none;stroke-opacity:1;paint-order:stroke fill markers"
     id="rect837-3-3"
     width="11.684299"
     height="14.680848"
     x="3.1578503"
     y="1.6595739"
     rx="0.88587219"
     ry="0.90551746" />
  <ellipse
     style="fill:#000000;fill-opacity:0.58823529;stroke:none;stroke-width:0.40085575;stroke-miterlimit:4;stroke-dasharray:none;stroke-opacity:1"
     id="path833-2"
     cx="9"
     cy="8.4893599"
     rx="4.6833744"
     ry="4.7872343" />
  <ellipse
     style="fill:#e6e6e6;fill-opacity:1;stroke:none;stroke-width:0.40085575;stroke-miterlimit:4;stroke-dasharray:none;stroke-opacity:1"
     id="path833"
     cx="9"
     cy="8.2340393"
     rx="4.6833744"
     ry="4.7872343" />
  <ellipse
     style="fill:#000000;fill-opacity:0.19607843;stroke:none;stroke-width:0.06680928;stroke-miterlimit:4;stroke-dasharray:none;stroke-opacity:1"
     id="path833-6"
     cx="9"
     cy="8.1702127"
     rx="0.78056246"
     ry="0.79787225" />
  <rect
     style="opacity:1;fill:#000000;fill-opacity:0.58823529;stroke:none;stroke-width:0.09504572;stroke-linecap:round;stroke-linejoin:round;stroke-miterlimit:4;stroke-dasharray:none;stroke-opacity:1;paint-order:stroke fill markers"
     id="rect837-1"
     width="11.980103"
     height="1.3598638"
     x="3.0099478"
     y="15.140136"
     rx="0.57140416"
     ry="0.58407569" />
  <rect
     style="opacity:0.4;fill:none;fill-opacity:1;stroke:url(#linearGradient926-5);stroke-width:0.29729089;stroke-linecap:round;stroke-linejoin:round;stroke-miterlimit:4;stroke-dasharray:none;stroke-opacity:1;paint-order:stroke fill markers"
     id="rect837-3-3-4"
     width="11.684299"
     height="13.021276"
     x="3.1578503"
     y="-14.999998"
     rx="0"
     ry="0"
     transform="scale(1,-1)" />
  <ellipse
     style="fill:#000000;fill-opacity:0.39215686;stroke:none;stroke-width:0.24779636;stroke-miterlimit:4;stroke-dasharray:none;stroke-opacity:1"
     id="path1084"
     cx="4.2784772"
     cy="2.8815231"
     rx="0.31222495"
     ry="0.31914893" />
  <ellipse
     style="fill:#000000;fill-opacity:0.39215686;stroke:none;stroke-width:0.24779636;stroke-miterlimit:4;stroke-dasharray:none;stroke-opacity:1"
     id="path1084-0"
     cx="13.74582"
     cy="2.8815322"
     rx="0.31222495"
     ry="0.31914893" />
  <ellipse
     style="fill:#000000;fill-opacity:0.39215686;stroke:none;stroke-width:0.24779636;stroke-miterlimit:4;stroke-dasharray:none;stroke-opacity:1"
     id="path1084-8"
     cx="4.2784705"
     cy="13.754951"
     rx="0.31222495"
     ry="0.31914893" />
  <ellipse
     style="fill:#000000;fill-opacity:0.39215686;stroke:none;stroke-width:0.24779636;stroke-miterlimit:4;stroke-dasharray:none;stroke-opacity:1"
     id="path1084-8-5"
     cx="13.74582"
     cy="13.754935"
     rx="0.31222495"
     ry="0.31914893" />
  <rect
     style="opacity:0.4;fill:none;fill-opacity:1;stroke:url(#linearGradient894);stroke-width:0.31094205;stroke-linecap:round;stroke-linejoin:round;stroke-miterlimit:4;stroke-dasharray:none;stroke-opacity:1;paint-order:stroke fill markers"
     id="rect837-3"
     width="11.688975"
     height="14.238868"
     x="3.155513"
     y="2.0401154"
     rx="0.88622665"
     ry="0.87825608" />
  <path
     inkscape:connector-curvature="0"
     style="opacity:0.2;stroke-width:0.28125"
     d="m 17.972959,13.121057 a 4.4999999,4.4999999 0 0 1 -4.488187,4.2615 4.4999999,4.4999999 0 0 1 -4.4881881,-4.176 4.4999999,4.4999999 0 0 0 -0.011813,0.2385 4.4999999,4.4999999 0 0 0 4.5000001,4.5 4.4999999,4.4999999 0 0 0 4.499999,-4.5 4.4999999,4.4999999 0 0 0 -0.01208,-0.324095 z"
     id="path10" />
  <circle
     style="fill:#8561c5;stroke-width:0.28125"
     cx="13.484771"
     cy="13.163808"
     r="4.5"
     id="circle12" />
  <path
     inkscape:connector-curvature="0"
     style="fill:#ffffff;stroke-width:0.28125"
     d="m 12.922272,10.913807 -0.04961,0.59265 a 1.7678812,1.7678812 0 0 0 -0.516668,0.298834 l -0.538644,-0.253631 -0.5625,0.974306 0.489043,0.339637 a 1.7678812,1.7678812 0 0 0 -0.027,0.298199 1.7678812,1.7678812 0 0 0 0.02571,0.299458 l -0.487794,0.338377 0.5625,0.974306 0.53739,-0.253001 a 1.7678812,1.7678812 0 0 0 0.517922,0.296944 l 0.04961,0.593887 h 1.125 l 0.04961,-0.59265 a 1.7678812,1.7678812 0 0 0 0.516678,-0.298833 l 0.538639,0.253631 0.5625,-0.974306 -0.489049,-0.339638 a 1.7678812,1.7678812 0 0 0 0.027,-0.298198 1.7678812,1.7678812 0 0 0 -0.02571,-0.299458 l 0.487795,-0.338378 -0.5625,-0.974306 -0.53739,0.253001 a 1.7678812,1.7678812 0 0 0 -0.518063,-0.297 l -0.0495,-0.594 h -1.125 z m 0.5625,1.607175 a 0.64288123,0.64288123 0 0 1 0.642937,0.642938 0.64288123,0.64288123 0 0 1 -0.642937,0.642937 0.64288123,0.64288123 0 0 1 -0.642938,-0.642937 0.64288123,0.64288123 0 0 1 0.642938,-0.642938 z"
     id="path14" />
</svg>
