<?xml version="1.0" encoding="UTF-8" standalone="no"?>
<!-- This Source Code Form is subject to the terms of the Mozilla Public
   - License, v. 2.0. If a copy of the MPL was not distributed with this
   - file, You can obtain one at http://mozilla.org/MPL/2.0/. -->

<!-- IMPORTANT - The text part needs 'context-fill' for dark mode support on some pages -->

<svg
   xmlns:dc="http://purl.org/dc/elements/1.1/"
   xmlns:cc="http://creativecommons.org/ns#"
   xmlns:rdf="http://www.w3.org/1999/02/22-rdf-syntax-ns#"
   xmlns:svg="http://www.w3.org/2000/svg"
   xmlns="http://www.w3.org/2000/svg"
   xmlns:sodipodi="http://sodipodi.sourceforge.net/DTD/sodipodi-0.dtd"
   xmlns:inkscape="http://www.inkscape.org/namespaces/inkscape"
   viewBox="0 0 24 24"
   version="1.1"
   id="svg4959"
   sodipodi:docname="firefox-developer-icon.svg"
   width="24"
   height="24"
   inkscape:version="0.92.4 5da689c313, 2019-01-14">
  <metadata
     id="metadata4963">
    <rdf:RDF>
      <cc:Work
         rdf:about="">
        <dc:format>image/svg+xml</dc:format>
        <dc:type
           rdf:resource="http://purl.org/dc/dcmitype/StillImage" />
        <dc:title></dc:title>
      </cc:Work>
    </rdf:RDF>
  </metadata>
  <sodipodi:namedview
     pagecolor="#ffffff"
     bordercolor="#666666"
     borderopacity="1"
     objecttolerance="10"
     gridtolerance="10"
     guidetolerance="10"
     inkscape:pageopacity="0"
     inkscape:pageshadow="2"
     inkscape:window-width="1366"
     inkscape:window-height="708"
     id="namedview4961"
     showgrid="false"
     fit-margin-top="0"
     fit-margin-left="0"
     fit-margin-right="0"
     fit-margin-bottom="0"
     inkscape:zoom="3.281106"
     inkscape:cx="27.48299"
     inkscape:cy="39.997708"
     inkscape:window-x="0"
     inkscape:window-y="19"
     inkscape:window-maximized="1"
     inkscape:current-layer="svg4959" />
  <defs
     id="defs4647">
    <linearGradient
       x1="84.162506"
       y1="-3.6041653"
       x2="91.017914"
       y2="41.136391"
       id="f"
       gradientTransform="matrix(0.17764897,0,0,0.37476002,1.6766992,1.6785627)"
       gradientUnits="userSpaceOnUse">
      <stop
         stop-color="#AAF2FF"
         offset="0%"
         id="stop4518" />
      <stop
         stop-color="#0DF"
         offset="29%"
         id="stop4520" />
      <stop
         stop-color="#0090ED"
         offset="61%"
         id="stop4522" />
      <stop
         stop-color="#0250BB"
         offset="89%"
         id="stop4524" />
    </linearGradient>
    <linearGradient
       x1="59.666759"
       y1="0.0084456606"
       x2="65.72345"
       y2="30.049629"
       id="g"
       gradientTransform="matrix(0.19810659,0,0,0.33606016,1.6766992,1.6785627)"
       gradientUnits="userSpaceOnUse">
      <stop
         stop-color="#AAF2FF"
         offset="0%"
         id="stop4527" />
      <stop
         stop-color="#0DF"
         offset="29%"
         id="stop4529" />
      <stop
         stop-color="#0090ED"
         offset="74%"
         id="stop4531" />
      <stop
         stop-color="#0250BB"
         offset="100%"
         id="stop4533" />
    </linearGradient>
    <linearGradient
       x1="68.991951"
       y1="11.815484"
       x2="17.021517"
       y2="66.148209"
       id="k"
       gradientTransform="matrix(0.25398907,0,0,0.26212047,1.6766992,1.6785627)"
       gradientUnits="userSpaceOnUse">
      <stop
         stop-color="#80EBFF"
         stop-opacity=".5"
         offset="24%"
         id="stop4536" />
      <stop
         stop-color="#0DF"
         stop-opacity="0"
         offset="70%"
         id="stop4538" />
    </linearGradient>
    <linearGradient
       x1="32.206059"
       y1="33.089981"
       x2="25.120728"
       y2="60.567245"
       id="l"
       gradientTransform="matrix(0.26584199,0,0,0.25043346,1.6766992,1.6785627)"
       gradientUnits="userSpaceOnUse">
      <stop
         stop-color="#BFF3FF"
         stop-opacity=".9"
         offset="0%"
         id="stop4541" />
      <stop
         stop-color="#80EBFF"
         stop-opacity=".5"
         offset="100%"
         id="stop4543" />
    </linearGradient>
    <linearGradient
       x1="95.009483"
       y1="-0.82379484"
       x2="93.769226"
       y2="57.467999"
       id="m"
       gradientTransform="matrix(0.16583575,0,0,0.40145585,1.6766992,1.6785627)"
       gradientUnits="userSpaceOnUse">
      <stop
         stop-color="#BFF3FF"
         offset="0%"
         id="stop4546" />
      <stop
         stop-color="#0DF"
         stop-opacity="0"
         offset="100%"
         id="stop4548" />
    </linearGradient>
    <linearGradient
       x1="56.13681"
       y1="-0.63725394"
       x2="55.329029"
       y2="23.111471"
       id="n"
       gradientTransform="matrix(0.21040334,0,0,0.31641955,1.6766992,1.6785627)"
       gradientUnits="userSpaceOnUse">
      <stop
         stop-color="#BFF3FF"
         offset="0%"
         id="stop4551" />
      <stop
         stop-color="#AAF2FF"
         stop-opacity=".5"
         offset="100%"
         id="stop4553" />
    </linearGradient>
    <linearGradient
       x1="58.332546"
       y1="25.308983"
       x2="56.715939"
       y2="64.10762"
       id="o"
       gradientTransform="matrix(0.22998746,0,0,0.28947547,1.6766992,1.6785627)"
       gradientUnits="userSpaceOnUse">
      <stop
         stop-color="#BFF3FF"
         offset="0%"
         id="stop4556" />
      <stop
         stop-color="#0DF"
         stop-opacity="0"
         offset="100%"
         id="stop4558" />
    </linearGradient>
    <linearGradient
       x1="23.729013"
       y1="33.093102"
       x2="25.866491"
       y2="66.491219"
       id="p"
       gradientTransform="matrix(0.27415496,0,0,0.24283978,1.6766992,1.6785627)"
       gradientUnits="userSpaceOnUse">
      <stop
         stop-color="#BFF3FF"
         stop-opacity=".8"
         offset="0%"
         id="stop4561" />
      <stop
         stop-color="#80EBFF"
         stop-opacity=".2"
         offset="100%"
         id="stop4563" />
    </linearGradient>
    <linearGradient
       x1="29.194855"
       y1="12.974803"
       x2="20.563929"
       y2="26.988457"
       id="q"
       gradientTransform="matrix(0.25280795,0,0,0.2633451,1.6766992,1.6785627)"
       gradientUnits="userSpaceOnUse">
      <stop
         stop-color="#BFF3FF"
         stop-opacity=".8"
         offset="0%"
         id="stop4566" />
      <stop
         stop-color="#80EBFF"
         stop-opacity=".2"
         offset="100%"
         id="stop4568" />
    </linearGradient>
    <linearGradient
       x1="18.502363"
       y1="29.405516"
       x2="16.874853"
       y2="74.324791"
       id="r"
       gradientTransform="matrix(0.20641692,0,0,0.32253041,1.6766992,1.6785627)"
       gradientUnits="userSpaceOnUse">
      <stop
         stop-color="#0DF"
         stop-opacity=".4"
         offset="0%"
         id="stop4571" />
      <stop
         stop-color="#0DF"
         stop-opacity="0"
         offset="100%"
         id="stop4573" />
    </linearGradient>
    <linearGradient
       x1="25.577993"
       y1="4.5553231"
       x2="25.577993"
       y2="57.36784"
       id="s"
       gradientTransform="matrix(0.20507531,0,0,0.32464041,1.6766992,1.6785627)"
       gradientUnits="userSpaceOnUse">
      <stop
         stop-color="#BFF3FF"
         offset="0%"
         id="stop4576" />
      <stop
         stop-color="#0DF"
         stop-opacity="0"
         offset="100%"
         id="stop4578" />
    </linearGradient>
    <linearGradient
       x1="68.298668"
       y1="12.77847"
       x2="65.108376"
       y2="89.877266"
       id="t"
       gradientTransform="matrix(0.21785245,0,0,0.30560011,1.6766992,1.6785627)"
       gradientUnits="userSpaceOnUse">
      <stop
         stop-color="#BFF3FF"
         stop-opacity=".8"
         offset="0%"
         id="stop4581" />
      <stop
         stop-color="#0DF"
         stop-opacity="0"
         offset="100%"
         id="stop4583" />
    </linearGradient>
    <linearGradient
       x1="-0.1"
       y1="0.66000003"
       x2="1.1"
       y2="0.33000001"
       id="u">
      <stop
         offset="0"
         stop-color="#0250bb"
         id="stop4586" />
      <stop
         offset=".123"
         stop-color="#024eb6"
         id="stop4588" />
      <stop
         offset="1"
         stop-color="#054096"
         id="stop4590" />
    </linearGradient>
    <radialGradient
       cx="42.067257"
       cy="30.945194"
       r="22.6548"
       id="a"
       gradientTransform="matrix(0.25809108,0,0,0.25795441,1.6766992,1.6785627)"
       fx="42.067257"
       fy="30.945194"
       gradientUnits="userSpaceOnUse">
      <stop
         stop-color="#0DF"
         stop-opacity=".4"
         offset="10%"
         id="stop4593" />
      <stop
         stop-color="#7542E5"
         stop-opacity=".25"
         offset="90%"
         id="stop4595" />
    </radialGradient>
    <radialGradient
       cx="39.89164"
       cy="41.40416"
       fx="39.801777"
       fy="41.40416"
       r="19.256578"
       id="b"
       gradientTransform="matrix(0.25809108,0,0,0.25795441,1.6766992,1.6785627)"
       gradientUnits="userSpaceOnUse">
      <stop
         stop-color="#7542E5"
         stop-opacity="0"
         offset="91%"
         id="stop4598" />
      <stop
         stop-color="#0DF"
         stop-opacity=".4"
         offset="100%"
         id="stop4600" />
    </radialGradient>
    <radialGradient
       cx="61.200493"
       cy="9.810463"
       fx="61.200493"
       fy="9.810463"
       r="89.403168"
       gradientTransform="matrix(0.28632857,0,0,0.23251515,1.6766992,1.6785627)"
       id="c"
       gradientUnits="userSpaceOnUse">
      <stop
         stop-color="#80EBFF"
         offset="0%"
         id="stop4603" />
      <stop
         stop-color="#0DF"
         offset="26%"
         id="stop4605" />
      <stop
         stop-color="#0090ED"
         offset="53%"
         id="stop4607" />
      <stop
         stop-color="#0060DF"
         offset="86%"
         id="stop4609" />
    </radialGradient>
    <radialGradient
       cx="34.469643"
       cy="46.828964"
       fx="34.658924"
       fy="46.828964"
       r="89.403168"
       gradientTransform="matrix(0.28632857,0,0,0.23251515,1.6766992,1.6785627)"
       id="d"
       gradientUnits="userSpaceOnUse">
      <stop
         stop-color="#321C64"
         stop-opacity=".8"
         offset="30%"
         id="stop4612" />
      <stop
         stop-color="#212F83"
         stop-opacity=".5"
         offset="37%"
         id="stop4614" />
      <stop
         stop-color="#0A47AC"
         stop-opacity=".14"
         offset="48%"
         id="stop4616" />
      <stop
         stop-color="#0250BB"
         stop-opacity="0"
         offset="53%"
         id="stop4618" />
    </radialGradient>
    <radialGradient
       cx="61.191902"
       cy="-19.160242"
       r="139.74019"
       gradientTransform="matrix(0.28174717,0,0,0.236296,1.6766992,1.6785627)"
       id="e"
       fx="61.191902"
       fy="-19.160242"
       gradientUnits="userSpaceOnUse">
      <stop
         stop-color="#80EBFF"
         offset="0%"
         id="stop4621" />
      <stop
         stop-color="#00B3F4"
         offset="47%"
         id="stop4623" />
      <stop
         stop-color="#0060DF"
         offset="84%"
         id="stop4625" />
      <stop
         stop-color="#592ACB"
         offset="100%"
         id="stop4627" />
    </radialGradient>
    <radialGradient
       cx="37.300232"
       cy="5.5633535"
       fx="37.300232"
       fy="5.5633535"
       r="28.381479"
       gradientTransform="matrix(0.25770928,0,0,0.25833657,1.6766992,1.6785627)"
       id="h"
       gradientUnits="userSpaceOnUse">
      <stop
         stop-color="#0DF"
         offset="0%"
         id="stop4630" />
      <stop
         stop-color="#0090ED"
         offset="82%"
         id="stop4632" />
    </radialGradient>
    <radialGradient
       cx="52.950813"
       cy="21.181152"
       fx="52.950813"
       fy="21.181152"
       r="85.359634"
       gradientTransform="matrix(0.27280649,0,0,0.24404015,1.6766992,1.6785627)"
       id="i"
       gradientUnits="userSpaceOnUse">
      <stop
         stop-color="#80EBFF"
         offset="29%"
         id="stop4635" />
      <stop
         stop-color="#00B3F4"
         offset="100%"
         id="stop4637" />
    </radialGradient>
    <radialGradient
       cx="36.138844"
       cy="15.884185"
       fx="36.138844"
       fy="15.884185"
       r="71.746956"
       gradientTransform="matrix(0.26060877,0,0,0.25546236,1.6766992,1.6785627)"
       id="j"
       gradientUnits="userSpaceOnUse">
      <stop
         stop-color="#AAF2FF"
         offset="18%"
         id="stop4640" />
      <stop
         stop-color="#0DF"
         offset="43%"
         id="stop4642" />
      <stop
         stop-color="#0060DF"
         offset="69%"
         id="stop4644" />
    </radialGradient>
  </defs>
  <path
     d="m 7.4463461,13.709904 0.6300914,1.746814 0.9466851,1.277471 2.2226074,0.424189 1.063312,0.09031 1.815448,-0.453605 0.782067,-0.749555 z"
     id="path4649"
     inkscape:connector-curvature="0"
     style="fill:#09204d;stroke-width:0.25802276" />
  <path
     d="M 16.85308,11.133032 16.630407,10.39457 15.994123,9.1937333 15.266241,8.4263733 14.493463,7.8744625 13.822603,7.6112792 13.017572,7.3248742 11.69211,7.2405007 10.856116,7.3911862 10.174162,7.6009587 8.9640355,8.3092311 8.2077711,9.1532233 7.5103354,10.285943 l -0.2742779,0.963972 -0.051343,1.462732 0.261635,0.997257 0.5769386,1.135301 0.4066436,0.548298 0.5627479,0.516046 0.7025958,0.475278 0.8664406,0.37697 1.44983,0.170037 0.757296,0.02116 1.120335,-0.315562 1.001644,-0.549846 0.644283,-0.549846 0.49979,-0.596033 0.706466,-1.383002 0.155845,-0.946169 z"
     id="path4651"
     inkscape:connector-curvature="0"
     style="fill:#09204d;stroke-width:0.25802276" />
  <path
     d="m 11.716364,7.9051675 -0.593711,0.5888079 0.96836,0.39271 0.720399,-0.8935329 z"
     id="path4653"
     inkscape:connector-curvature="0"
     style="fill:#0e56d7;stroke-width:0.25802276" />
  <path
     d="M 12.091013,8.8866854 13.965806,8.829664 12.811412,7.9931539 Z"
     id="path4655"
     inkscape:connector-curvature="0"
     style="fill:#1053d1;stroke-width:0.25802276" />
  <path
     d="m 13.826474,7.9869604 -1.015062,0.00621 1.154394,0.8365094 1.06744,-0.069664 z"
     id="path4657"
     inkscape:connector-curvature="0"
     style="fill:#0b4fbf;stroke-width:0.25802276" />
  <path
     d="M 15.033246,8.7599961 14.426377,7.9232289 15.266241,8.4263733 Z"
     id="path4659"
     inkscape:connector-curvature="0"
     style="fill:#0b48b0;stroke-width:0.25802276" />
  <path
     d="M 15.836729,9.2724298 15.033246,8.7599961 15.266241,8.4263733 Z"
     id="path4661"
     inkscape:connector-curvature="0"
     style="fill:#0c45a7;stroke-width:0.25802276" />
  <path
     d="m 15.033246,8.7599961 -0.134429,0.5733272 0.734848,0.2938879 z"
     id="path4663"
     inkscape:connector-curvature="0"
     style="fill:#0f46af;stroke-width:0.25802276" />
  <path
     d="m 15.033246,8.7599961 0.803483,0.5124337 -0.203064,0.3547814 z"
     id="path4665"
     inkscape:connector-curvature="0"
     style="fill:#0c47ad;stroke-width:0.25802276" />
  <path
     d="m 13.965806,8.8296633 1.06744,-0.069664 -0.134429,0.5733265 z"
     id="path4667"
     inkscape:connector-curvature="0"
     style="fill:#0e4fc3;stroke-width:0.25802276" />
  <path
     d="m 13.965806,8.8296633 -0.843477,0.7637465 1.085502,0.5315272 z"
     id="path4669"
     inkscape:connector-curvature="0"
     style="fill:#174dca;stroke-width:0.25802276" />
  <path
     d="m 12.091013,8.8866854 1.874793,-0.057021 -0.843477,0.7637465 z"
     id="path4671"
     inkscape:connector-curvature="0"
     style="fill:#1650d4;stroke-width:0.25802276" />
  <path
     d="m 14.898817,9.3333233 0.510368,0.9902907 0.22448,-0.6964028 z"
     id="path4673"
     inkscape:connector-curvature="0"
     style="fill:#1246b2;stroke-width:0.25802276" />
  <path
     d="m 15.409185,10.323614 0.22448,-0.6964028 0.534881,1.2720518 z"
     id="path4675"
     inkscape:connector-curvature="0"
     style="fill:#133ea1;stroke-width:0.25802276" />
  <path
     d="m 15.633665,9.6272112 0.815093,0.5970638 -0.280212,0.674988 z"
     id="path4677"
     inkscape:connector-curvature="0"
     style="fill:#103d98;stroke-width:0.25802276" />
  <path
     d="m 15.836729,9.2724298 0.157394,-0.078696 0.454635,1.0305422 z"
     id="path4679"
     inkscape:connector-curvature="0"
     style="fill:#0b3785;stroke-width:0.25802276" />
  <path
     d="M 16.448758,10.224275 16.630407,10.39457 15.994123,9.1937333 Z"
     id="path4681"
     inkscape:connector-curvature="0"
     style="fill:#0b3685;stroke-width:0.25802276" />
  <path
     d="M 16.448758,10.224275 15.836729,9.2724298 15.633665,9.6272112 Z m -1.182517,-1.7979017 0.570488,0.8460565 0.157394,-0.077407 z"
     id="path4683"
     inkscape:connector-curvature="0"
     style="fill:#0c3b91;stroke-width:0.25802276" />
  <path
     d="m 16.812055,11.70997 -0.181648,-1.3154 0.222673,0.738462 -0.04386,0.576938 z"
     id="path4685"
     inkscape:connector-curvature="0"
     style="fill:#0b3279;stroke-width:0.25802276" />
  <path
     d="m 16.448758,10.224275 0.363297,1.485695 -0.181648,-1.3154 z"
     id="path4687"
     inkscape:connector-curvature="0"
     style="fill:#0f388d;stroke-width:0.25802276" />
  <path
     d="m 16.168546,10.899263 0.643509,0.810707 -0.363297,-1.485695 z"
     id="path4689"
     inkscape:connector-curvature="0"
     style="fill:#0d3481;stroke-width:0.25802276" />
  <path
     d="m 16.809217,11.70997 0.04386,-0.576938 0.04412,1.479502 -0.08515,-0.902564 z"
     id="path4691"
     inkscape:connector-curvature="0"
     style="fill:#0b2e71;stroke-width:0.25802276" />
  <path
     d="m 16.704201,12.879329 0.193001,-0.266795 -0.08515,-0.902564 z"
     id="path4693"
     inkscape:connector-curvature="0"
     style="fill:#0e2f77;stroke-width:0.25802276" />
  <path
     d="m 16.741357,13.558703 -0.154298,0.07431 0.310143,-1.020479 z"
     id="path4695"
     inkscape:connector-curvature="0"
     style="fill:#0e2969;stroke-width:0.25802276" />
  <path
     d="m 16.587059,13.633013 0.310143,-1.020479 -0.193001,0.266795 z"
     id="path4697"
     inkscape:connector-curvature="0"
     style="fill:#0c2a69;stroke-width:0.25802276" />
  <path
     d="m 16.704201,12.879329 0.107854,-1.169359 -0.330527,0.389873 z"
     id="path4699"
     inkscape:connector-curvature="0"
     style="fill:#123180;stroke-width:0.25802276" />
  <path
     d="m 16.587059,13.633013 0.117142,-0.753684 -0.637574,1.071569 z"
     id="path4701"
     inkscape:connector-curvature="0"
     style="fill:#112b70;stroke-width:0.25802276" />
  <path
     d="m 16.168546,10.899263 0.643509,0.810707 -0.330527,0.389873 z"
     id="path4703"
     inkscape:connector-curvature="0"
     style="fill:#12378c;stroke-width:0.25802276" />
  <path
     d="m 16.704201,12.879329 -0.222673,-0.779486 -0.336204,0.959844 z"
     id="path4705"
     inkscape:connector-curvature="0"
     style="fill:#122e7b;stroke-width:0.25802276" />
  <path
     d="m 16.03489,14.941705 0.552169,-1.308692 -0.516561,0.953911 z"
     id="path4707"
     inkscape:connector-curvature="0"
     style="fill:#11296c;stroke-width:0.25802276" />
  <path
     d="m 16.070498,14.586924 0.516561,-0.953911 -0.520432,0.317885 z"
     id="path4709"
     inkscape:connector-curvature="0"
     style="fill:#142a72;stroke-width:0.25802276" />
  <path
     d="m 16.587059,13.633013 -0.552169,1.307918 0.706467,-1.383002 z m -1.051701,1.904724 0.499532,-0.596032 0.03561,-0.354781 z m -0.645056,0.549847 0.645056,-0.549847 -0.68118,0.31324 z"
     id="path4711"
     inkscape:connector-curvature="0"
     style="fill:#112768;stroke-width:0.25802276" />
  <path
     d="m 11.129878,16.47049 -0.650991,0.159457 0.01987,-0.454635 z"
     id="path4713"
     inkscape:connector-curvature="0"
     style="fill:#1c226a;stroke-width:0.25802276" />
  <path
     d="M 7.5103354,10.285943 7.689919,10.219373 7.2360575,11.249915 Z"
     id="path4715"
     inkscape:connector-curvature="0"
     style="fill:#182b7a;stroke-width:0.25802276" />
  <path
     d="M 7.2360575,11.249915 7.5797433,11.185925 7.689919,10.219372 Z"
     id="path4717"
     inkscape:connector-curvature="0"
     style="fill:#1f308d;stroke-width:0.25802276" />
  <path
     d="M 7.256699,12.487651 7.236056,11.249915 7.5797425,11.185925 Z"
     id="path4719"
     inkscape:connector-curvature="0"
     style="fill:#1e2b7f;stroke-width:0.25802276" />
  <path
     d="m 14.898817,9.3333233 -0.690986,0.7916137 1.201354,0.198677 z M 8.8693412,8.5215833 9.7512627,7.9180682 8.9640355,8.3097468 Z"
     id="path4721"
     inkscape:connector-curvature="0"
     style="fill:#1346b5;stroke-width:0.25802276" />
  <path
     d="M 8.9640355,8.3092311 10.174162,7.6009587 9.7512627,7.9180682 8.9640355,8.3092311"
     id="path4723"
     inkscape:connector-curvature="0"
     style="fill:#1244ac;stroke-width:0.25802276" />
  <path
     d="M 9.7512627,7.9180682 10.856116,7.3911862 10.174162,7.6009587 Z"
     id="path4725"
     inkscape:connector-curvature="0"
     style="fill:#0e4ab6;stroke-width:0.25802276" />
  <path
     d="m 13.965806,8.8296633 0.242025,1.2952737 0.690986,-0.7916137 z M 10.42367,7.8566589 11.453181,7.4438227 10.8556,7.3901534 Z"
     id="path4727"
     inkscape:connector-curvature="0"
     style="fill:#0e4bba;stroke-width:0.25802276" />
  <path
     d="m 11.69211,7.2405007 -0.835994,0.1506855 0.597581,0.053669 z"
     id="path4729"
     inkscape:connector-curvature="0"
     style="fill:#0a4ebc;stroke-width:0.25802276" />
  <path
     d="m 12.482691,7.4347917 -1.028994,0.010065 0.238413,-0.204354"
     id="path4731"
     inkscape:connector-curvature="0"
     style="fill:#0c54cc;stroke-width:0.25802276" />
  <path
     d="m 14.426377,7.9227125 -0.599903,0.063729 1.206772,0.7740686 z m -1.943686,-0.4879208 1.339912,0.1764875 -0.805031,-0.286405 z"
     id="path4733"
     inkscape:connector-curvature="0"
     style="fill:#0b4bb4;stroke-width:0.25802276" />
  <path
     d="m 14.426377,7.9232289 -0.603774,-0.3119497 0.67086,0.2631833 z"
     id="path4735"
     inkscape:connector-curvature="0"
     style="fill:#0c3889;stroke-width:0.25802276" />
  <path
     d="m 7.4463461,13.709904 0.3970964,0.325883 -0.5857114,-1.548136 z m 5.4672429,3.078986 0.348331,-0.819996 -1.269214,0.340848 z m 0.348331,-0.819996 1.06099,0.294403 0.06425,-0.820512 z"
     id="path4737"
     inkscape:connector-curvature="0"
     style="fill:#202575;stroke-width:0.25802276" />
  <path
     d="m 14.854178,15.850977 -0.467021,-0.408192 1.128334,-0.749814 z"
     id="path4739"
     inkscape:connector-curvature="0"
     style="fill:#1b2773;stroke-width:0.25802276" />
  <path
     d="m 15.515491,14.692971 -0.661313,1.158006 0.68118,-0.31324 0.53514,-0.950813 z"
     id="path4741"
     inkscape:connector-curvature="0"
     style="fill:#15276d;stroke-width:0.25802276" />
  <path
     d="m 14.493463,7.8744625 -0.06709,0.048764 0.839865,0.5031443 z m -0.666989,0.1124979 0.599903,-0.063729 -0.603774,-0.3119497 z"
     id="path4743"
     inkscape:connector-curvature="0"
     style="fill:#0c409d;stroke-width:0.25802276" />
  <path
     d="m 11.69211,7.2405007 0.790581,0.194291 0.534881,-0.1099175 z m 2.130493,0.3707785 -1.339912,-0.1764875 1.343783,0.5521687 z"
     id="path4745"
     inkscape:connector-curvature="0"
     style="fill:#0b4cb7;stroke-width:0.25802276" />
  <path
     d="m 12.482691,7.4347917 0.328721,0.5583608 1.015062,-0.00621 z"
     id="path4747"
     inkscape:connector-curvature="0"
     style="fill:#0b55ce;stroke-width:0.25802276" />
  <path
     d="m 12.482691,7.4347917 0.328721,0.5583608 -1.095048,-0.087985 z"
     id="path4749"
     inkscape:connector-curvature="0"
     style="fill:#0a52c5;stroke-width:0.25802276" />
  <path
     d="m 11.453697,7.4448547 0.262667,0.4603128 0.766327,-0.4703758 z"
     id="path4751"
     inkscape:connector-curvature="0"
     style="fill:#0951c4;stroke-width:0.25802276" />
  <path
     d="m 10.424186,7.8566589 1.029511,-0.4118042 0.262667,0.4603128 z"
     id="path4753"
     inkscape:connector-curvature="0"
     style="fill:#0b50c4;stroke-width:0.25802276" />
  <path
     d="m 9.7512627,7.9180682 0.6729233,-0.061407 0.43193,-0.4644405 z m 0.6729233,-0.061407 0.698467,0.6373164 0.593453,-0.5888079 z"
     id="path4755"
     inkscape:connector-curvature="0"
     style="fill:#0f4dbf;stroke-width:0.25802276" />
  <path
     d="M 10.424186,7.8566589 9.2870798,8.9230669 9.7512627,7.9180682 Z"
     id="path4757"
     inkscape:connector-curvature="0"
     style="fill:#1546b6;stroke-width:0.25802276" />
  <path
     d="M 9.2870798,8.9230669 10.01264,9.0435633 10.424186,7.8566589 Z"
     id="path4759"
     inkscape:connector-curvature="0"
     style="fill:#1549bd;stroke-width:0.25802276" />
  <path
     d="m 10.01264,9.0435633 0.411546,-1.1869044 0.698467,0.6373165 z"
     id="path4761"
     inkscape:connector-curvature="0"
     style="fill:#144bc3;stroke-width:0.25802276" />
  <path
     d="M 8.2077711,9.1532233 8.2518926,9.5820569 8.8693405,8.5215833 Z"
     id="path4763"
     inkscape:connector-curvature="0"
     style="fill:#173794;stroke-width:0.25802276" />
  <path
     d="M 7.689919,10.219373 8.2077711,9.1532233 8.2518921,9.5820569 Z"
     id="path4765"
     inkscape:connector-curvature="0"
     style="fill:#192f84;stroke-width:0.25802276" />
  <path
     d="M 8.2518926,9.5820569 8.8693412,8.5215833 9.2870798,8.9230669 Z"
     id="path4767"
     inkscape:connector-curvature="0"
     style="fill:#1a389b;stroke-width:0.25802276" />
  <path
     d="M 8.2144797,10.50165 8.251894,9.5820569 7.6899204,10.219373 Z"
     id="path4769"
     inkscape:connector-curvature="0"
     style="fill:#1d3089;stroke-width:0.25802276" />
  <path
     d="M 8.2144797,10.50165 8.251894,9.5820569 8.9813241,10.174219 Z"
     id="path4771"
     inkscape:connector-curvature="0"
     style="fill:#1e389f;stroke-width:0.25802276" />
  <path
     d="M 8.9813226,10.174219 9.2870798,8.9230669 8.2518926,9.5820569 Z"
     id="path4773"
     inkscape:connector-curvature="0"
     style="fill:#1c40af;stroke-width:0.25802276" />
  <path
     d="M 8.9813226,10.174219 9.2870798,8.9230669 10.01264,9.0435633 Z"
     id="path4775"
     inkscape:connector-curvature="0"
     style="fill:#1e41b7;stroke-width:0.25802276" />
  <path
     d="M 7.5797433,11.185926 7.689919,10.219373 8.2144797,10.50165 Z"
     id="path4777"
     inkscape:connector-curvature="0"
     style="fill:#192c7d;stroke-width:0.25802276" />
  <path
     d="m 12.913589,16.78889 0.975584,-0.15146 0.433737,-0.374133 z M 7.1854847,12.712131 7.2574727,12.487134 7.2368297,11.248625 Z M 7.5805176,11.18541 7.2574732,12.487134 7.8431847,14.035271 7.5565211,12.242013 Z"
     id="path4779"
     inkscape:connector-curvature="0"
     style="fill:#162467;stroke-width:0.25802276" />
  <path
     d="m 7.8424111,14.035787 0.4832765,0.06786 -0.3385265,-0.790066 z"
     id="path4781"
     inkscape:connector-curvature="0"
     style="fill:#1a236a;stroke-width:0.25802276" />
  <path
     d="m 14.854178,15.850977 -0.531268,0.412837 -0.433737,0.374133 1.001644,-0.549847 z m -2.842636,1.080857 0.757297,0.02116 1.120334,-0.315562 -0.975584,0.15146 z m -3.7181073,-1.997612 0.5077879,0.09753 -0.475535,-0.928882 z"
     id="path4783"
     inkscape:connector-curvature="0"
     style="fill:#132668;stroke-width:0.25802276" />
  <path
     d="M 10.498755,16.175312 9.6387648,15.513225 9.2814034,15.85717 10.478887,16.629947 Z M 7.4463461,13.709904 8.0232847,14.845205 7.8426682,14.035787 Z m -0.261635,-0.997257 0.261635,0.997257 -0.1896471,-1.222253 z m 4.8079949,3.597095 -1.493951,-0.13443 0.631123,0.295178 -0.650991,0.159457 -0.783615,-0.244088 0.86644,0.376971 1.44983,0.170037 0.90308,-0.142945 z m -3.6670184,-2.206095 -0.4822451,-0.06786 0.4510236,0.898435 z m -0.7691665,-1.861634 0.2869214,1.793774 0.1447508,-0.722464 z m 1.2447015,2.789742 -0.5077879,-0.09753 -0.2693764,-0.08902 0.4066443,0.548298 0.5627472,0.516046 0.7018222,0.47631 -0.4128365,-0.527657 z"
     id="path4785"
     inkscape:connector-curvature="0"
     style="fill:#1b2268;stroke-width:0.25802276" />
  <path
     d="M 7.5797433,11.185926 8.2616976,12.24098 8.2144756,10.50165 Z"
     id="path4787"
     inkscape:connector-curvature="0"
     style="fill:#212a81;stroke-width:0.25802276" />
  <path
     d="m 7.5565211,12.242013 0.43064,1.071568 0.2745365,-1.072601 z"
     id="path4789"
     inkscape:connector-curvature="0"
     style="fill:#21267a;stroke-width:0.25802276" />
  <path
     d="M 7.9871611,13.313581 8.2616976,12.24098 8.6025462,13.088586 Z"
     id="path4791"
     inkscape:connector-curvature="0"
     style="fill:#262781;stroke-width:0.25802276" />
  <path
     d="m 8.3256876,14.103647 1.3076587,0.810449 -1.0308001,-1.82551 z"
     id="path4793"
     inkscape:connector-curvature="0"
     style="fill:#272379;stroke-width:0.25802276" />
  <path
     d="m 8.0240583,14.845205 0.27015,0.08902 -0.4507658,-0.898435 z m 2.8883067,0.466247 -0.412837,0.86386 1.493953,0.13443 z m -2.5866774,-1.207805 0.475535,0.928882 0.4801808,0.825673 0.3573614,-0.343945 -0.00543,-0.599128 z"
     id="path4795"
     inkscape:connector-curvature="0"
     style="fill:#1e226d;stroke-width:0.25802276" />
  <path
     d="m 14.387157,15.442785 -0.06425,0.820512 0.531269,-0.412835 z m -2.286339,-0.117916 -0.108627,0.984873 1.269729,-0.340848 -0.04516,-1.107176 z"
     id="path4797"
     inkscape:connector-curvature="0"
     style="fill:#222475;stroke-width:0.25802276" />
  <path
     d="M 7.5565211,12.242013 H 8.2616976 L 7.5797433,11.186958 Z m 5.6602449,2.619705 0.04516,1.107176 1.125237,-0.526109 z"
     id="path4799"
     inkscape:connector-curvature="0"
     style="fill:#23277d;stroke-width:0.25802276" />
  <path
     d="m 13.216766,14.861718 0.72427,-0.655894 0.446121,1.236961 z"
     id="path4801"
     inkscape:connector-curvature="0"
     style="fill:#1e2776;stroke-width:0.25802276" />
  <path
     d="m 14.387157,15.442785 0.547525,-1.658312 -0.993646,0.421351 z"
     id="path4803"
     inkscape:connector-curvature="0"
     style="fill:#222b86;stroke-width:0.25802276" />
  <path
     d="m 15.515491,14.692971 -1.128334,0.749814 0.547525,-1.658312 z"
     id="path4805"
     inkscape:connector-curvature="0"
     style="fill:#192974;stroke-width:0.25802276" />
  <path
     d="m 16.066627,13.950898 -1.131945,-0.166425 0.580809,0.908498 0.555007,-0.106047 z"
     id="path4807"
     inkscape:connector-curvature="0"
     style="fill:#172a75;stroke-width:0.25802276" />
  <path
     d="m 16.145324,13.059687 -1.210642,0.724786 1.131945,0.166425 0.637574,-1.071827 z"
     id="path4809"
     inkscape:connector-curvature="0"
     style="fill:#172d7d;stroke-width:0.25802276" />
  <path
     d="M 7.689919,10.219115 8.2077711,9.1529655 7.5111097,10.285685 Z m 8.003866,1.319786 0.451539,1.520528 0.335429,-0.959845 z"
     id="path4811"
     inkscape:connector-curvature="0"
     style="fill:#18338a;stroke-width:0.25802276" />
  <path
     d="m 16.481528,12.099843 -0.312982,-1.20058 -0.474761,0.639896 z"
     id="path4813"
     inkscape:connector-curvature="0"
     style="fill:#153791;stroke-width:0.25802276" />
  <path
     d="m 14.934682,13.784473 1.210642,-0.724786 -1.173229,-0.522238 z"
     id="path4815"
     inkscape:connector-curvature="0"
     style="fill:#1b318b;stroke-width:0.25802276" />
  <path
     d="m 14.934682,13.784473 -1.097113,-1.108465 0.103467,1.529816 z"
     id="path4817"
     inkscape:connector-curvature="0"
     style="fill:#242d8d;stroke-width:0.25802276" />
  <path
     d="m 13.216766,14.861718 -0.842444,-0.745944 1.566714,0.09005 z"
     id="path4819"
     inkscape:connector-curvature="0"
     style="fill:#2a2b8f;stroke-width:0.25802276" />
  <path
     d="m 8.3256876,14.103647 0.2768586,-1.015061 -0.6153851,0.224995 z m 4.0486344,0.01161 -0.273504,1.209611 1.115432,-0.463151 z"
     id="path4821"
     inkscape:connector-curvature="0"
     style="fill:#27267f;stroke-width:0.25802276" />
  <path
     d="m 10.630604,14.363218 -0.810707,-0.41232 -0.1865507,0.963198 1.2782447,0.397356 1.189743,0.01342 z"
     id="path4823"
     inkscape:connector-curvature="0"
     style="fill:#2d2381;stroke-width:0.25802276" />
  <path
     d="m 12.101334,15.324869 0.272988,-1.209095 -1.743718,0.247444 z"
     id="path4825"
     inkscape:connector-curvature="0"
     style="fill:#2f2485;stroke-width:0.25802276" />
  <path
     d="M 8.2616976,12.24098 8.6113183,11.124259 8.2144797,10.50165 Z"
     id="path4827"
     inkscape:connector-curvature="0"
     style="fill:#233196;stroke-width:0.25802276" />
  <path
     d="M 8.9813226,10.174219 10.516558,9.7268077 9.7055927,11.383572 Z"
     id="path4829"
     inkscape:connector-curvature="0"
     style="fill:#293cb7;stroke-width:0.25802276" />
  <path
     d="m 14.934682,13.784473 -1.097113,-1.108465 1.134526,-0.138559 z"
     id="path4831"
     inkscape:connector-curvature="0"
     style="fill:#25339c;stroke-width:0.25802276" />
  <path
     d="m 16.145324,13.059687 -0.451539,-1.520528 -0.72169,0.99829 z"
     id="path4833"
     inkscape:connector-curvature="0"
     style="fill:#19348f;stroke-width:0.25802276" />
  <path
     d="m 13.941036,14.205824 -1.254765,-1.213223 1.151298,-0.316593 z"
     id="path4835"
     inkscape:connector-curvature="0"
     style="fill:#2a309a;stroke-width:0.25802276" />
  <path
     d="m 12.374322,14.115774 1.566714,0.09005 -1.254765,-1.213223 z"
     id="path4837"
     inkscape:connector-curvature="0"
     style="fill:#302b96;stroke-width:0.25802276" />
  <path
     d="m 12.374322,14.115774 -0.857926,-0.698726 1.169875,-0.424447 z"
     id="path4839"
     inkscape:connector-curvature="0"
     style="fill:#3630a7;stroke-width:0.25802276" />
  <path
     d="M 8.8693412,8.5215833 8.9640355,8.3092311 8.2077711,9.1532233 Z m 6.5398438,1.8020307 0.283825,1.215545 0.474762,-0.639896 z"
     id="path4841"
     inkscape:connector-curvature="0"
     style="fill:#173da2;stroke-width:0.25802276" />
  <path
     d="M 8.9813226,10.174219 9.7055927,11.383572 8.6113183,11.124259 Z"
     id="path4843"
     inkscape:connector-curvature="0"
     style="fill:#2a36a8;stroke-width:0.25802276" />
  <path
     d="m 8.6113183,11.124259 1.0942744,0.259313 -0.7400093,1.165489 z"
     id="path4845"
     inkscape:connector-curvature="0"
     style="fill:#312e9f;stroke-width:0.25802276" />
  <path
     d="M 10.516558,9.7268077 11.122653,8.4939754 10.01264,9.0435633 Z"
     id="path4847"
     inkscape:connector-curvature="0"
     style="fill:#184dcd;stroke-width:0.25802276" />
  <path
     d="m 8.2616976,12.24098 0.7038858,0.308081 -0.3630372,0.539525 z"
     id="path4849"
     inkscape:connector-curvature="0"
     style="fill:#272986;stroke-width:0.25802276" />
  <path
     d="m 8.9655834,12.549061 -0.3630372,0.539525 1.0308001,1.82551 0.1865507,-0.963198 z"
     id="path4851"
     inkscape:connector-curvature="0"
     style="fill:#2c2584;stroke-width:0.25802276" />
  <path
     d="M 9.819897,13.950898 9.9339427,12.254914 8.9655834,12.549061 Z"
     id="path4853"
     inkscape:connector-curvature="0"
     style="fill:#32268b;stroke-width:0.25802276" />
  <path
     d="m 9.819897,13.950898 1.696499,-0.53385 -1.5824533,-1.162134 z"
     id="path4855"
     inkscape:connector-curvature="0"
     style="fill:#372999;stroke-width:0.25802276" />
  <path
     d="M 11.516396,13.417048 11.351003,12.105777 9.9339427,12.254914 Z"
     id="path4857"
     inkscape:connector-curvature="0"
     style="fill:#392da5;stroke-width:0.25802276" />
  <path
     d="m 11.351003,12.105777 1.19671,-0.447412 0.138558,1.334236 z"
     id="path4859"
     inkscape:connector-curvature="0"
     style="fill:#3338bc;stroke-width:0.25802276" />
  <path
     d="m 10.630604,14.363218 1.743718,-0.247444 -0.857926,-0.698726 z"
     id="path4861"
     inkscape:connector-curvature="0"
     style="fill:#362896;stroke-width:0.25802276" />
  <path
     d="m 10.630604,14.363218 -0.810707,-0.41232 1.696499,-0.53385 z"
     id="path4863"
     inkscape:connector-curvature="0"
     style="fill:#35268f;stroke-width:0.25802276" />
  <path
     d="M 10.516558,9.7268077 11.555616,9.8367255 11.122653,8.4939754 Z"
     id="path4865"
     inkscape:connector-curvature="0"
     style="fill:#2648d3;stroke-width:0.25802276" />
  <path
     d="m 12.091013,8.8866854 -0.96836,-0.39271 0.432963,1.3427501 z"
     id="path4867"
     inkscape:connector-curvature="0"
     style="fill:#1057dc;stroke-width:0.25802276" />
  <path
     d="m 12.091013,8.8866854 1.031316,0.7067244 -1.566713,0.2433157 z"
     id="path4869"
     inkscape:connector-curvature="0"
     style="fill:#1653da;stroke-width:0.25802276" />
  <path
     d="m 11.555616,9.8367255 1.536783,0.8150935 -0.544686,1.006546 z"
     id="path4871"
     inkscape:connector-curvature="0"
     style="fill:#2b46d5;stroke-width:0.25802276" />
  <path
     d="m 13.092399,10.651819 0.02993,-1.0584092 -1.566714,0.2433157 z"
     id="path4873"
     inkscape:connector-curvature="0"
     style="fill:#244ad7;stroke-width:0.25802276" />
  <path
     d="m 13.092399,10.651819 0.02993,-1.0584092 1.085501,0.5315272 z"
     id="path4875"
     inkscape:connector-curvature="0"
     style="fill:#2547cf;stroke-width:0.25802276" />
  <path
     d="m 11.555616,9.8367255 0.992097,1.8216395 -1.739847,-0.8716 z"
     id="path4877"
     inkscape:connector-curvature="0"
     style="fill:#333cc5;stroke-width:0.25802276" />
  <path
     d="m 11.351003,12.105777 1.19671,-0.447412 -1.739847,-0.8716 z"
     id="path4879"
     inkscape:connector-curvature="0"
     style="fill:#3833b6;stroke-width:0.25802276" />
  <path
     d="m 12.547713,11.658365 1.534461,-0.28047 -0.989775,-0.726076 z"
     id="path4881"
     inkscape:connector-curvature="0"
     style="fill:#2a41c6;stroke-width:0.25802276" />
  <path
     d="m 14.207831,10.124937 -0.125657,1.252958 -0.989775,-0.726076 z"
     id="path4883"
     inkscape:connector-curvature="0"
     style="fill:#2045c1;stroke-width:0.25802276" />
  <path
     d="m 14.207831,10.124937 0.724271,0.98384 -0.849928,0.269118 z"
     id="path4885"
     inkscape:connector-curvature="0"
     style="fill:#1b43b7;stroke-width:0.25802276" />
  <path
     d="m 15.409185,10.323614 -1.201354,-0.198677 0.724271,0.98384 z"
     id="path4887"
     inkscape:connector-curvature="0"
     style="fill:#1742af;stroke-width:0.25802276" />
  <path
     d="M 9.2883698,8.9230669 9.7528113,7.9167782 8.8708898,8.5202933 Z m 6.1221052,1.4005471 -0.477083,0.785163 0.761683,0.430382 z"
     id="path4889"
     inkscape:connector-curvature="0"
     style="fill:#1740a9;stroke-width:0.25802276" />
  <path
     d="m 14.972095,12.537449 0.72169,-0.99829 -0.761683,-0.430382 z"
     id="path4891"
     inkscape:connector-curvature="0"
     style="fill:#1b3ca4;stroke-width:0.25802276" />
  <path
     d="m 14.972095,12.537449 -0.03999,-1.428672 -0.849928,0.269118 z"
     id="path4893"
     inkscape:connector-curvature="0"
     style="fill:#1f3dad;stroke-width:0.25802276" />
  <path
     d="M 8.9813226,10.174219 10.516558,9.7268077 10.01264,9.0435633 Z m 3.5663904,1.484146 1.290114,1.017643 0.244605,-1.298113 z"
     id="path4895"
     inkscape:connector-curvature="0"
     style="fill:#2543c3;stroke-width:0.25802276" />
  <path
     d="m 12.686271,12.992601 1.151298,-0.316593 -1.289856,-1.017643 z"
     id="path4897"
     inkscape:connector-curvature="0"
     style="fill:#2e37b2;stroke-width:0.25802276" />
  <path
     d="m 10.516558,9.7268077 0.291308,1.0599573 0.74775,-0.9500395 z"
     id="path4899"
     inkscape:connector-curvature="0"
     style="fill:#2d40c7;stroke-width:0.25802276" />
  <path
     d="M 10.516558,9.7268077 9.7055927,11.383572 10.807866,10.786765 Z"
     id="path4901"
     inkscape:connector-curvature="0"
     style="fill:#3537b8;stroke-width:0.25802276" />
  <path
     d="M 10.807866,10.786765 9.9339427,12.254914 11.351003,12.105777 Z"
     id="path4903"
     inkscape:connector-curvature="0"
     style="fill:#3931b0;stroke-width:0.25802276" />
  <path
     d="m 11.351003,12.105777 0.165393,1.311271 1.169875,-0.424447 z M 9.9334263,12.254914 10.80735,10.786765 9.7050763,11.383572 Z"
     id="path4905"
     inkscape:connector-curvature="0"
     style="fill:#3735b8;stroke-width:0.25802276" />
  <path
     d="m 8.9655834,12.549061 0.7400093,-1.165489 0.22835,0.871342 z"
     id="path4907"
     inkscape:connector-curvature="0"
     style="fill:#342892;stroke-width:0.25802276" />
  <path
     d="m 9.695272,16.385859 0.783615,0.245121 -1.1974836,-0.772778 z m -0.056507,-0.871602 0.85999,0.662087 0.412836,-0.86386 -1.2782445,-0.397355 z m 2.353941,0.796517 0.108628,-0.984873 -1.189743,-0.01342 z m 1.269214,-0.34188 -0.348331,0.819996 1.409321,-0.525593 z"
     id="path4909"
     inkscape:connector-curvature="0"
     style="fill:#232372;stroke-width:0.25802276" />
  <path
     d="m 8.2616976,12.24098 0.3496207,-1.116721 0.3542651,1.424802 z"
     id="path4911"
     inkscape:connector-curvature="0"
     style="fill:#2a2f96;stroke-width:0.25802276" />
  <path
     d="m 8.6113183,11.124259 0.3700043,-0.95004 -0.766585,0.328721 z m 5.4700817,0.253636 -0.244606,1.298113 1.135301,-0.138559 z"
     id="path4913"
     inkscape:connector-curvature="0"
     style="fill:#2636a5;stroke-width:0.25802276" />
  <path
     d="m 16.919134,12.613824 v -0.0021 l -0.04489,-1.479503 v -0.0051 l -0.222418,-0.738199 v -0.0016 l -0.636284,-1.2008151 -0.7333,-0.7751008 h -0.0016 L 14.508169,7.8600268 h -0.0031 L 13.834208,7.5968387 h -0.0046 l -0.805033,-0.286405 h -0.0054 l -1.325462,-0.084374 h -0.0056 L 10.85212,7.3770032 h -0.0031 l -0.681437,0.2095145 h -0.0044 L 8.9529419,8.290404 8.1969347,9.1338798 7.500274,10.266342 v 0.0028 l -0.2745365,0.963973 v 0.0036 l -0.051607,1.462731 v 0.007 l 0.2613764,0.996484 v 0.0034 l 0.5766815,1.1353 v 0.0018 l 0.3989029,0.561973 v 0.0013 l 0.5624893,0.516045 h 0.00157 l 0.7025965,0.475278 h 0.00157 l 0.8664429,0.3766 h 0.0054 l 1.44983,0.170037 h 0.0021 l 0.757039,0.02116 h 0.0059 l 1.120336,-0.31582 h 0.0039 l 1.001127,-0.549588 0.0018,-0.0013 h 0.0013 l 0.645057,-0.549589 0.499532,-0.596291 0.0018,-0.0026 0.706466,-1.383002 v -0.0054 l 0.154814,-0.945654 v -0.0023 z m -7.9127828,3.278437 -0.1457829,-0.133656 0.3276894,0.256732 z m 2.1266228,0.555523 -0.512175,-0.239445 1.212707,0.109143 z m 0.186551,-4.360585 -1.3442987,0.141396 0.8290267,-1.393322 z m -0.469085,-1.254764 1.642572,0.822834 -1.129881,0.421609 z m 0.48147,1.297338 0.156362,1.238509 -1.4965321,-1.098403 z m 0.136752,1.279277 -1.6255436,0.511401 0.1091443,-1.625543 z m -0.09031,-1.258635 1.25941,0.836252 -1.103305,0.400451 z m 0.02013,-0.03922 1.13014,-0.422641 0.130818,1.260183 z m 1.736236,-1.455507 1.047314,-0.494371 -0.118174,1.176325 z m 0.893274,0.709821 -1.439766,0.263183 0.511401,-0.945137 z M 12.5472,11.612436 11.610577,9.8901353 13.063504,10.660591 Z m -0.05161,-0.0049 -1.65341,-0.828253 0.710596,-0.9030787 z M 9.9424585,12.198895 9.7316541,11.39438 10.749038,10.84376 Z M 9.8031263,13.880688 8.9991276,12.561933 9.9099477,12.285075 Z m 1.6407667,-0.417739 -0.817417,0.873149 -0.7482654,-0.380326 z m 1.210384,-0.435285 -0.291565,1.050152 -0.803741,-0.653313 z m -0.07896,-1.320044 1.215287,0.958554 -1.083695,0.298532 z m 0.02426,-0.03664 1.455507,-0.265764 -0.23222,1.231027 z m 1.508144,-0.323819 0.116626,-1.163424 0.672407,0.9134 z m 0.80374,-0.208998 0.03716,1.332171 -0.8298,-1.080857 z m -1.79558,-0.521465 0.02787,-0.9887416 1.014288,0.4966936 z m -0.04386,0 -1.447508,-0.7678745 1.475633,-0.2291243 z M 10.817935,10.739775 10.546753,9.7525814 11.514596,9.85579 Z m -0.03535,0.0369 -1.0271889,0.555008 0.7554899,-1.5432345 z M 9.9076277,12.240178 9.0161591,12.511101 9.697597,11.437469 Z m -0.161265,1.631477 -1.1136258,-0.788517 0.332075,-0.493082 z m 0.089792,0.111982 0.7482663,0.380326 -0.9201092,0.508304 z m 1.6825663,-0.536687 0.803483,0.654345 -1.632768,0.232221 z m 1.179164,-0.412837 1.186904,1.146653 -1.480792,-0.08489 z m 0.03148,-0.03044 1.08834,-0.299306 0.09779,1.446475 z m 1.365456,-1.573939 0.836768,1.090146 -1.066666,0.129012 z m 0.860506,-0.283825 0.706209,0.400193 -0.67086,0.926044 z m 0.0075,-0.04593 0.438638,-0.720141 0.260087,1.115691 z m -0.03226,-0.03148 -0.672923,-0.913917 1.116465,0.184486 z m -1.769262,-1.4815666 0.790324,-0.7154972 0.226802,1.2139968 z m -1.564134,0.2203514 0.501597,-0.8899208 0.966037,0.6620865 z m -1.047055,-0.099081 0.56765,-1.1559423 0.406127,1.2591516 z M 9.7037806,11.337618 9.0148605,10.187352 10.475011,9.7616148 Z M 8.9746091,12.494333 8.6412433,11.153905 9.6707541,11.397736 Z M 8.6074419,13.041858 8.301944,12.28327 8.9328091,12.559355 Z M 9.795637,13.960419 9.6237941,14.851371 8.6691097,13.16287 Z m 0.821802,0.434767 0.261377,0.882955 -1.1900004,-0.370005 z m 1.728752,-0.253635 -0.259312,1.147684 -1.395645,-0.912884 z m 1.541428,0.08282 -0.670859,0.607643 -0.780519,-0.690985 z m -0.02426,-1.49163 1.032091,1.04396 -0.935848,0.396839 z m 0.02116,-0.04077 1.06486,-0.129011 -0.03612,1.169874 z m 1.800999,-1.104079 0.425222,1.432284 -1.10537,-0.491791 z m -0.241251,-1.210643 0.693823,0.526109 -0.433736,0.584679 z m -1.19413,-0.267569 0.645057,-0.7376871 0.475536,0.9226891 z m -0.02916,-0.03329 -0.225253,-1.2057397 0.868504,0.4688272 z m -1.100461,-0.5108466 -0.961909,-0.6589901 1.748362,-0.05315 z m -1.559231,0.2167386 -0.40329,-1.2503773 0.90179,0.3656179 z M 10.512681,9.6847498 10.045918,9.0515619 11.074654,8.5419668 Z M 10.480423,9.7146784 9.0499455,10.131642 10.010822,9.0781355 Z M 9.6601691,11.350284 8.640979,11.108774 8.9856976,10.224015 Z M 8.9335769,12.511386 8.2885204,12.228851 8.6092426,11.205275 Z M 8.5738933,13.075682 8.0188868,13.278746 8.2663304,12.31116 Z m 0.9982901,1.77468 -1.2209637,-0.756781 0.2580229,-0.947975 z m 1.2434116,0.45412 -1.155168,0.183197 -0.00493,-0.543913 z m -0.147073,-0.890436 1.358232,0.888114 -1.098919,-0.01239 z m 1.719205,-0.258023 0.78826,0.698209 -1.043961,0.433479 z m 1.54504,0.08824 0.416707,1.154911 -1.092984,-0.541848 z m 0.03716,-0.02581 0.928883,-0.394258 -0.512433,1.552007 z m 1.024351,-1.647217 1.105112,0.491791 -1.140203,0.682729 z m 0.739752,-0.976874 0.722463,0.514239 -0.309627,0.880632 z m -0.008,-0.0596 0.434251,-0.585196 0.286147,1.098145 z m -0.290018,-1.2189 0.199709,-0.6257046 0.48018,1.1425236 z m -0.03019,-0.04876 -0.460829,-0.8917264 0.66157,0.2644729 z M 14.044233,8.847979 15.0064,8.7850219 14.885129,9.3010676 Z m -1.904982,0.016771 0.67731,-0.84038 1.08576,0.7867107 z m -0.03999,-0.020129 -0.348847,-0.9136587 1.01919,0.082051 z m -0.04541,0.00414 -0.890953,-0.3612314 0.546235,-0.541848 z m -2.00174,0.1530072 0.383163,-1.1053687 0.650476,0.5934522 z M 9.0244062,10.097595 9.3048762,8.9491354 9.9708335,9.0598276 Z M 8.6079576,11.078081 8.248274,10.513269 8.9433869,10.216543 Z m -0.019093,0.05161 -0.3075628,0.980486 -0.041286,-1.529043 z m -0.354265,1.1353 -0.2507986,0.980486 -0.393485,-0.980486 z m -0.6543457,-0.04283 0.0209,-0.962166 0.6215764,0.961392 z m 0.9913229,0.90308 -0.25054,0.912627 -0.3044665,-0.711369 z m 1.0000965,1.77726 -0.7567808,0.10708 -0.4324457,-0.84425 z m 0.041286,0.03819 0.00493,0.536172 -0.7482665,-0.430641 z m 1.2619887,0.400452 -0.384195,0.800386 -0.7983222,-0.61461 z m 0.04489,0.008 1.010933,0.933526 -1.398741,-0.125915 z m 0.04954,-0.01367 1.109498,0.01264 -0.101145,0.917787 z m 2.228027,-0.438639 0.04231,1.036736 -1.087308,-0.605579 z m 0.04412,0.0039 1.096596,0.544428 -1.054281,0.492823 z m 1.700885,-1.062538 0.544428,0.851475 -1.057893,0.702854 z m 0.03793,-0.02219 1.048089,0.154813 -0.51166,0.683761 z m 0.01935,-0.04129 1.121367,-0.67086 -0.07302,0.825673 z m 1.481051,-1.599741 0.197903,0.692791 -0.496694,0.16049 z m -0.264732,-1.181745 0.56765,0.715239 -0.291565,0.344203 z m -0.531527,-1.3027565 0.737687,0.5402995 -0.253636,0.61074 z M 14.924345,9.3191198 15.043293,8.8121054 15.574304,9.5789491 Z M 13.984368,8.8066869 13.855357,8.0326182 14.964855,8.7432133 Z m -0.04876,-0.025807 -1.057893,-0.7660701 0.928882,-0.00593 z m -2.15062,-0.8922315 0.69021,-0.4236735 0.296468,0.5031449 z m -0.662861,0.5759065 -0.639122,-0.5831315 1.182002,0.044379 z M 9.9979185,9.0190462 9.3342841,8.9086119 10.374373,7.9332861 Z M 8.9684076,10.13551 8.2892919,9.5841155 9.2530062,8.9705376 Z m -0.0289,0.03303 -0.7015636,0.299306 0.034057,-0.8414116 z m -0.7018215,1.99503 -0.63035,-0.975067 0.5867436,-0.632672 z M 7.9644397,13.315384 7.8449754,13.911933 7.608884,12.430624 Z m 0.030443,0.07121 0.2954365,0.689696 -0.4210936,-0.05883 z m 0.766328,1.614966 -0.4453479,-0.08644 0.028379,-0.72814 z m 0.8414115,0.516045 -0.3163358,0.304209 -0.4249636,-0.730463 z m 0.037671,0.02426 0.7598778,0.585969 -1.0756971,-0.281244 z m 2.4790828,-0.182164 1.083695,0.601709 -1.186905,0.318657 z m 2.242991,0.118432 -0.05934,0.75678 -0.978165,-0.271697 z m 1.08834,-0.716013 -0.602225,1.056087 -0.42548,-0.373101 z m 0.593453,-0.745685 0.0031,0.552168 -0.481728,0.09211 z m 0.120754,-0.940494 0.490244,-0.158426 -0.558362,0.93972 z m 0.339816,-0.971197 0.278149,-0.327947 -0.08928,0.983841 z m -0.311949,-1.209095 0.249765,-0.60145 0.323561,1.323398 z m -0.531269,-1.2746316 0.175456,-0.3062736 0.528688,0.8220602 z m -0.03044,-0.034829 -0.519142,-0.7482665 0.694598,0.4427672 z m -1.741395,-1.5840023 0.525334,-0.055993 0.531527,0.733043 z m -1.066928,-0.030956 -0.289243,-0.4915329 1.182776,0.4861144 z m -1.099693,-0.096503 -0.232221,-0.4081924 0.912884,-0.00929 z m -0.04644,0.007 -1.14975,-0.043093 0.916239,-0.3661344 z M 9.3544077,8.830219 9.7672441,7.9387496 10.364308,7.8843068 Z M 9.2803555,8.8859547 8.9041583,8.5247233 9.698352,7.9813268 Z m -0.028128,0.033543 -0.9358487,0.595775 0.559135,-0.958555 z M 8.1943333,10.465827 7.7247325,10.213223 8.2278761,9.6427348 Z m -0.014707,0.04154 -0.5707457,0.614868 0.09908,-0.868247 z M 7.5337954,12.231735 7.292544,12.428866 7.5523733,11.382583 Z m 0.00593,0.05161 0.2461542,1.544523 -0.5044342,-1.332944 z m 0.7622,1.839443 -0.028121,0.725818 -0.3932283,-0.784907 z m 0.4843072,0.928879 0.4014836,0.689179 -0.8241251,-0.769941 z m 1.6890164,1.14046 -0.01729,0.398645 -1.0506689,-0.677825 z m 0.04309,0.01703 0.54546,0.254926 -0.562489,0.137526 z m 1.45241,0.126946 0.01703,0.559136 -0.792388,-0.414642 z m 1.2527,-0.335429 -0.321495,0.756782 -0.849927,-0.441994 z m 0.05161,-0.0067 0.977648,0.27144 -1.29837,0.484309 z m 1.131172,-0.507015 0.414126,0.361233 -0.471923,0.367423 z m 1.123947,-0.775358 0.477342,-0.09134 -1.04654,1.087824 z m 0.562232,-0.211063 -0.0034,-0.538493 0.440444,-0.269117 z m 0.03871,-0.615384 0.534107,-0.897402 -0.09831,0.631897 z m 0.681696,-1.940331 0.06244,0.660538 -0.141396,0.195324 z m -0.325625,-1.654183 0.122045,0.114562 0.122302,0.885018 z m -0.619254,-1.0093845 0.11482,-0.0578 0.332333,0.7531698 z M 15.063677,8.7538411 15.26545,8.465114 15.759306,9.1976405 Z m -0.03148,-0.031478 -0.525851,-0.7255594 0.72814,0.4363158 z m -1.184581,-0.7596151 -0.0034,-0.3153036 0.506757,0.261635 z m -0.04387,-0.00851 -1.158264,-0.4757941 1.15491,0.1519755 z m -2.290983,-0.5317851 0.184485,-0.1581675 0.611256,0.150427 z m -1.006291,0.3777122 0.358395,-0.3870336 0.495919,0.04464 z M 10.413848,7.8357675 9.8720013,7.8850461 10.76347,7.4603404 Z M 8.9209298,8.4596668 8.9807869,8.3252368 9.4790291,8.0777925 Z M 8.2668411,9.5129155 8.2304626,9.1612305 8.7723112,8.6451847 Z M 8.2291701,9.5748445 7.7796951,10.084439 8.1938208,9.2329644 Z M 7.5596015,11.16736 7.2726801,11.22077 7.6517151,10.360264 Z m -0.00954,0.04644 -0.2742786,1.105627 -0.017543,-1.051442 z M 7.7918254,13.966648 7.4656847,13.698304 7.3093233,12.692016 Z M 8.2490418,14.89553 8.0408168,14.82715 7.9014847,14.202993 Z M 9.1394784,15.754229 8.4484933,15.37958 8.3372854,15.005964 Z m 0.1264307,0.118691 0.2995643,0.381874 -0.9159801,-0.717562 z m 0.1119814,0.07199 0.9528785,0.614868 -0.6236406,-0.195065 z m 1.7481045,0.547524 0.740525,0.387034 -1.287275,-0.253636 z m 0.888889,-0.147331 0.828768,0.431156 -0.811998,0.129012 z m 2.200418,-0.02013 -0.33543,0.290535 -0.757297,0.1174 z m 0.621834,-0.435025 0.02812,0.180615 -0.435026,0.13443 z m 1.128849,-1.165231 -0.446379,0.796258 -0.569456,0.261893 z m 0.124883,-0.132624 0.299565,-0.553458 -0.320206,0.75936 z m 0.633188,-1.70553 0.113014,-0.156362 -0.180616,0.598097 z m 0.108886,-1.17968 -0.0016,-0.01161 0.01136,-0.148105 0.01136,0.383679 z m -0.03019,-0.218029 -0.113014,-0.819996 0.140106,0.46444 z M 16.46732,10.210092 16.260901,9.7417805 16.549886,10.287499 Z M 15.844453,9.2430233 15.431616,8.6312511 15.957983,9.1859998 Z m -1.378358,-1.3203022 0.02761,-0.019872 0.316336,0.2262858 z m -0.0418,-0.023993 -0.214416,-0.1106914 0.238413,0.093662 z m -1.810287,-0.4688266 0.401999,-0.082567 0.604805,0.2151905 z m -0.131076,-0.017545 -0.547266,-0.134688 0.917529,0.058313 z M 11.446199,7.4224237 11.01943,7.3839787 11.616752,7.2761252 Z M 9.9401206,7.803781 10.18421,7.6208427 10.577953,7.4995722 Z M 9.7396363,7.8992496 9.5277998,8.0045225 9.8534249,7.8141018 Z M 8.8510062,8.508699 8.5996926,8.7486597 8.8868712,8.4281961 Z m -1.1770993,1.693403 -0.1117236,0.04129 0.4342521,-0.7051743 z m -0.1455243,0.100371 0.1204964,-0.04464 -0.304725,0.692275 z m -0.3000808,1.796612 0.00621,0.385228 -0.022193,0.07018 z m 0.0209,0.483793 0.1099179,0.708273 -0.1514593,-0.577972 z m 0.5735843,1.465053 0.1411386,0.632155 -0.4507657,-0.886823 z m 0.45283,0.90308 0.098049,0.329752 -0.2918236,-0.393484 z m 2.1890649,1.697015 0.04076,0.06528 -0.428318,-0.186293 z m 0.109917,0.09289 -0.05161,-0.07999 0.93172,0.183454 z m 2.28247,0.07741 -0.09805,0.11095 -0.511401,-0.01419 z m 0.06786,-0.01058 0.609708,-0.09469 -0.700274,0.197129 z m 1.408805,-0.526624 0.357618,-0.110434 -0.629575,0.347557 z m 0.57281,-0.237123 -0.02812,-0.180616 0.522496,-0.240219 z m 1.131688,-1.356684 -0.02451,0.243832 -0.343687,0.409999 z m 0.565842,-1.039831 0.08825,-0.04257 -0.404322,0.794195 z m 0.117401,-0.105273 -0.09908,0.04799 0.199194,-0.655378 z"
     id="path4915"
     inkscape:connector-curvature="0"
     style="fill:url(#a);stroke-width:0.25802276" />
  <path
     d="m 16.919134,12.613824 v -0.0021 l -0.04489,-1.479503 v -0.0051 l -0.222418,-0.738199 v -0.0016 l -0.636284,-1.2008151 -0.7333,-0.7751008 h -0.0016 L 14.508169,7.8600268 h -0.0031 L 13.834208,7.5968387 h -0.0046 l -0.805033,-0.286405 h -0.0054 l -1.325462,-0.084374 h -0.0056 L 10.85212,7.3770032 h -0.0031 l -0.681437,0.2095145 h -0.0044 L 8.9529419,8.290404 8.1969347,9.1338798 7.500274,10.266342 v 0.0028 l -0.2745365,0.963973 v 0.0036 l -0.051607,1.462731 v 0.007 l 0.2613764,0.996484 v 0.0034 l 0.5766815,1.1353 v 0.0018 l 0.3989029,0.561973 v 0.0013 l 0.5624893,0.516045 h 0.00157 l 0.7025965,0.475278 h 0.00157 l 0.8664429,0.3766 h 0.0054 l 1.44983,0.170037 h 0.0021 l 0.757039,0.02116 h 0.0059 l 1.120336,-0.31582 h 0.0039 l 1.001127,-0.549588 0.0018,-0.0013 h 0.0013 l 0.645057,-0.549589 0.499532,-0.596291 0.0018,-0.0026 0.706466,-1.383002 v -0.0054 l 0.154814,-0.945654 v -0.0023 z m -7.9127828,3.278437 -0.1457829,-0.133656 0.3276894,0.256732 z m 2.1266228,0.555523 -0.512175,-0.239445 1.212707,0.109143 z m 0.186551,-4.360585 -1.3442987,0.141396 0.8290267,-1.393322 z m -0.469085,-1.254764 1.642572,0.822834 -1.129881,0.421609 z m 0.48147,1.297338 0.156362,1.238509 -1.4965321,-1.098403 z m 0.136752,1.279277 -1.6255436,0.511401 0.1091443,-1.625543 z m -0.09031,-1.258635 1.25941,0.836252 -1.103305,0.400451 z m 0.02013,-0.03922 1.13014,-0.422641 0.130818,1.260183 z m 1.736236,-1.455507 1.047314,-0.494371 -0.118174,1.176325 z m 0.893274,0.709821 -1.439766,0.263183 0.511401,-0.945137 z M 12.5472,11.612436 11.610577,9.8901353 13.063504,10.660591 Z m -0.05161,-0.0049 -1.65341,-0.828253 0.710596,-0.9030787 z M 9.9424585,12.198895 9.7316541,11.39438 10.749038,10.84376 Z M 9.8031263,13.880688 8.9991276,12.561933 9.9099477,12.285075 Z m 1.6407667,-0.417739 -0.817417,0.873149 -0.7482654,-0.380326 z m 1.210384,-0.435285 -0.291565,1.050152 -0.803741,-0.653313 z m -0.07896,-1.320044 1.215287,0.958554 -1.083695,0.298532 z m 0.02426,-0.03664 1.455507,-0.265764 -0.23222,1.231027 z m 1.508144,-0.323819 0.116626,-1.163424 0.672407,0.9134 z m 0.80374,-0.208998 0.03716,1.332171 -0.8298,-1.080857 z m -1.79558,-0.521465 0.02787,-0.9887416 1.014288,0.4966936 z m -0.04386,0 -1.447508,-0.7678745 1.475633,-0.2291243 z M 10.817935,10.739775 10.546753,9.7525814 11.514596,9.85579 Z m -0.03535,0.0369 -1.0271889,0.555008 0.7554899,-1.5432345 z M 9.9076277,12.240178 9.0161591,12.511101 9.697597,11.437469 Z m -0.161265,1.631477 -1.1136258,-0.788517 0.332075,-0.493082 z m 0.089792,0.111982 0.7482663,0.380326 -0.9201092,0.508304 z m 1.6825663,-0.536687 0.803483,0.654345 -1.632768,0.232221 z m 1.179164,-0.412837 1.186904,1.146653 -1.480792,-0.08489 z m 0.03148,-0.03044 1.08834,-0.299306 0.09779,1.446475 z m 1.365456,-1.573939 0.836768,1.090146 -1.066666,0.129012 z m 0.860506,-0.283825 0.706209,0.400193 -0.67086,0.926044 z m 0.0075,-0.04593 0.438638,-0.720141 0.260087,1.115691 z m -0.03226,-0.03148 -0.672923,-0.913917 1.116465,0.184486 z m -1.769262,-1.4815666 0.790324,-0.7154972 0.226802,1.2139968 z m -1.564134,0.2203514 0.501597,-0.8899208 0.966037,0.6620865 z m -1.047055,-0.099081 0.56765,-1.1559423 0.406127,1.2591516 z M 9.7037806,11.337618 9.0148605,10.187352 10.475011,9.7616148 Z M 8.9746091,12.494333 8.6412433,11.153905 9.6707541,11.397736 Z M 8.6074419,13.041858 8.301944,12.28327 8.9328091,12.559355 Z M 9.795637,13.960419 9.6237941,14.851371 8.6691097,13.16287 Z m 0.821802,0.434767 0.261377,0.882955 -1.1900004,-0.370005 z m 1.728752,-0.253635 -0.259312,1.147684 -1.395645,-0.912884 z m 1.541428,0.08282 -0.670859,0.607643 -0.780519,-0.690985 z m -0.02426,-1.49163 1.032091,1.04396 -0.935848,0.396839 z m 0.02116,-0.04077 1.06486,-0.129011 -0.03612,1.169874 z m 1.800999,-1.104079 0.425222,1.432284 -1.10537,-0.491791 z m -0.241251,-1.210643 0.693823,0.526109 -0.433736,0.584679 z m -1.19413,-0.267569 0.645057,-0.7376871 0.475536,0.9226891 z m -0.02916,-0.03329 -0.225253,-1.2057397 0.868504,0.4688272 z m -1.100461,-0.5108466 -0.961909,-0.6589901 1.748362,-0.05315 z m -1.559231,0.2167386 -0.40329,-1.2503773 0.90179,0.3656179 z M 10.512681,9.6847498 10.045918,9.0515619 11.074654,8.5419668 Z M 10.480423,9.7146784 9.0499455,10.131642 10.010822,9.0781355 Z M 9.6601691,11.350284 8.640979,11.108774 8.9856976,10.224015 Z M 8.9335769,12.511386 8.2885204,12.228851 8.6092426,11.205275 Z M 8.5738933,13.075682 8.0188868,13.278746 8.2663304,12.31116 Z m 0.9982901,1.77468 -1.2209637,-0.756781 0.2580229,-0.947975 z m 1.2434116,0.45412 -1.155168,0.183197 -0.00493,-0.543913 z m -0.147073,-0.890436 1.358232,0.888114 -1.098919,-0.01239 z m 1.719205,-0.258023 0.78826,0.698209 -1.043961,0.433479 z m 1.54504,0.08824 0.416707,1.154911 -1.092984,-0.541848 z m 0.03716,-0.02581 0.928883,-0.394258 -0.512433,1.552007 z m 1.024351,-1.647217 1.105112,0.491791 -1.140203,0.682729 z m 0.739752,-0.976874 0.722463,0.514239 -0.309627,0.880632 z m -0.008,-0.0596 0.434251,-0.585196 0.286147,1.098145 z m -0.290018,-1.2189 0.199709,-0.6257046 0.48018,1.1425236 z m -0.03019,-0.04876 -0.460829,-0.8917264 0.66157,0.2644729 z M 14.044233,8.847979 15.0064,8.7850219 14.885129,9.3010676 Z m -1.904982,0.016771 0.67731,-0.84038 1.08576,0.7867107 z m -0.03999,-0.020129 -0.348847,-0.9136587 1.01919,0.082051 z m -0.04541,0.00414 -0.890953,-0.3612314 0.546235,-0.541848 z m -2.00174,0.1530072 0.383163,-1.1053687 0.650476,0.5934522 z M 9.0244062,10.097595 9.3048762,8.9491354 9.9708335,9.0598276 Z M 8.6079576,11.078081 8.248274,10.513269 8.9433869,10.216543 Z m -0.019093,0.05161 -0.3075628,0.980486 -0.041286,-1.529043 z m -0.354265,1.1353 -0.2507986,0.980486 -0.393485,-0.980486 z m -0.6543457,-0.04283 0.0209,-0.962166 0.6215764,0.961392 z m 0.9913229,0.90308 -0.25054,0.912627 -0.3044665,-0.711369 z m 1.0000965,1.77726 -0.7567808,0.10708 -0.4324457,-0.84425 z m 0.041286,0.03819 0.00493,0.536172 -0.7482665,-0.430641 z m 1.2619887,0.400452 -0.384195,0.800386 -0.7983222,-0.61461 z m 0.04489,0.008 1.010933,0.933526 -1.398741,-0.125915 z m 0.04954,-0.01367 1.109498,0.01264 -0.101145,0.917787 z m 2.228027,-0.438639 0.04231,1.036736 -1.087308,-0.605579 z m 0.04412,0.0039 1.096596,0.544428 -1.054281,0.492823 z m 1.700885,-1.062538 0.544428,0.851475 -1.057893,0.702854 z m 0.03793,-0.02219 1.048089,0.154813 -0.51166,0.683761 z m 0.01935,-0.04129 1.121367,-0.67086 -0.07302,0.825673 z m 1.481051,-1.599741 0.197903,0.692791 -0.496694,0.16049 z m -0.264732,-1.181745 0.56765,0.715239 -0.291565,0.344203 z m -0.531527,-1.3027565 0.737687,0.5402995 -0.253636,0.61074 z M 14.924345,9.3191198 15.043293,8.8121054 15.574304,9.5789491 Z M 13.984368,8.8066869 13.855357,8.0326182 14.964855,8.7432133 Z m -0.04876,-0.025807 -1.057893,-0.7660701 0.928882,-0.00593 z m -2.15062,-0.8922315 0.69021,-0.4236735 0.296468,0.5031449 z m -0.662861,0.5759065 -0.639122,-0.5831315 1.182002,0.044379 z M 9.9979185,9.0190462 9.3342841,8.9086119 10.374373,7.9332861 Z M 8.9684076,10.13551 8.2892919,9.5841155 9.2530062,8.9705376 Z m -0.0289,0.03303 -0.7015636,0.299306 0.034057,-0.8414116 z m -0.7018215,1.99503 -0.63035,-0.975067 0.5867436,-0.632672 z M 7.9644397,13.315384 7.8449754,13.911933 7.608884,12.430624 Z m 0.030443,0.07121 0.2954365,0.689696 -0.4210936,-0.05883 z m 0.766328,1.614966 -0.4453479,-0.08644 0.028379,-0.72814 z m 0.8414115,0.516045 -0.3163358,0.304209 -0.4249636,-0.730463 z m 0.037671,0.02426 0.7598778,0.585969 -1.0756971,-0.281244 z m 2.4790828,-0.182164 1.083695,0.601709 -1.186905,0.318657 z m 2.242991,0.118432 -0.05934,0.75678 -0.978165,-0.271697 z m 1.08834,-0.716013 -0.602225,1.056087 -0.42548,-0.373101 z m 0.593453,-0.745685 0.0031,0.552168 -0.481728,0.09211 z m 0.120754,-0.940494 0.490244,-0.158426 -0.558362,0.93972 z m 0.339816,-0.971197 0.278149,-0.327947 -0.08928,0.983841 z m -0.311949,-1.209095 0.249765,-0.60145 0.323561,1.323398 z m -0.531269,-1.2746316 0.175456,-0.3062736 0.528688,0.8220602 z m -0.03044,-0.034829 -0.519142,-0.7482665 0.694598,0.4427672 z m -1.741395,-1.5840023 0.525334,-0.055993 0.531527,0.733043 z m -1.066928,-0.030956 -0.289243,-0.4915329 1.182776,0.4861144 z m -1.099693,-0.096503 -0.232221,-0.4081924 0.912884,-0.00929 z m -0.04644,0.007 -1.14975,-0.043093 0.916239,-0.3661344 z M 9.3544077,8.830219 9.7672441,7.9387496 10.364308,7.8843068 Z M 9.2803555,8.8859547 8.9041583,8.5247233 9.698352,7.9813268 Z m -0.028128,0.033543 -0.9358487,0.595775 0.559135,-0.958555 z M 8.1943333,10.465827 7.7247325,10.213223 8.2278761,9.6427348 Z m -0.014707,0.04154 -0.5707457,0.614868 0.09908,-0.868247 z M 7.5337954,12.231735 7.292544,12.428866 7.5523733,11.382583 Z m 0.00593,0.05161 0.2461542,1.544523 -0.5044342,-1.332944 z m 0.7622,1.839443 -0.028121,0.725818 -0.3932283,-0.784907 z m 0.4843072,0.928879 0.4014836,0.689179 -0.8241251,-0.769941 z m 1.6890164,1.14046 -0.01729,0.398645 -1.0506689,-0.677825 z m 0.04309,0.01703 0.54546,0.254926 -0.562489,0.137526 z m 1.45241,0.126946 0.01703,0.559136 -0.792388,-0.414642 z m 1.2527,-0.335429 -0.321495,0.756782 -0.849927,-0.441994 z m 0.05161,-0.0067 0.977648,0.27144 -1.29837,0.484309 z m 1.131172,-0.507015 0.414126,0.361233 -0.471923,0.367423 z m 1.123947,-0.775358 0.477342,-0.09134 -1.04654,1.087824 z m 0.562232,-0.211063 -0.0034,-0.538493 0.440444,-0.269117 z m 0.03871,-0.615384 0.534107,-0.897402 -0.09831,0.631897 z m 0.681696,-1.940331 0.06244,0.660538 -0.141396,0.195324 z m -0.325625,-1.654183 0.122045,0.114562 0.122302,0.885018 z m -0.619254,-1.0093845 0.11482,-0.0578 0.332333,0.7531698 z M 15.063677,8.7538411 15.26545,8.465114 15.759306,9.1976405 Z m -0.03148,-0.031478 -0.525851,-0.7255594 0.72814,0.4363158 z m -1.184581,-0.7596151 -0.0034,-0.3153036 0.506757,0.261635 z m -0.04387,-0.00851 -1.158264,-0.4757941 1.15491,0.1519755 z m -2.290983,-0.5317851 0.184485,-0.1581675 0.611256,0.150427 z m -1.006291,0.3777122 0.358395,-0.3870336 0.495919,0.04464 z M 10.413848,7.8357675 9.8720013,7.8850461 10.76347,7.4603404 Z M 8.9209298,8.4596668 8.9807869,8.3252368 9.4790291,8.0777925 Z M 8.2668411,9.5129155 8.2304626,9.1612305 8.7723112,8.6451847 Z M 8.2291701,9.5748445 7.7796951,10.084439 8.1938208,9.2329644 Z M 7.5596015,11.16736 7.2726801,11.22077 7.6517151,10.360264 Z m -0.00954,0.04644 -0.2742786,1.105627 -0.017543,-1.051442 z M 7.7918254,13.966648 7.4656847,13.698304 7.3093233,12.692016 Z M 8.2490418,14.89553 8.0408168,14.82715 7.9014847,14.202993 Z M 9.1394784,15.754229 8.4484933,15.37958 8.3372854,15.005964 Z m 0.1264307,0.118691 0.2995643,0.381874 -0.9159801,-0.717562 z m 0.1119814,0.07199 0.9528785,0.614868 -0.6236406,-0.195065 z m 1.7481045,0.547524 0.740525,0.387034 -1.287275,-0.253636 z m 0.888889,-0.147331 0.828768,0.431156 -0.811998,0.129012 z m 2.200418,-0.02013 -0.33543,0.290535 -0.757297,0.1174 z m 0.621834,-0.435025 0.02812,0.180615 -0.435026,0.13443 z m 1.128849,-1.165231 -0.446379,0.796258 -0.569456,0.261893 z m 0.124883,-0.132624 0.299565,-0.553458 -0.320206,0.75936 z m 0.633188,-1.70553 0.113014,-0.156362 -0.180616,0.598097 z m 0.108886,-1.17968 -0.0016,-0.01161 0.01136,-0.148105 0.01136,0.383679 z m -0.03019,-0.218029 -0.113014,-0.819996 0.140106,0.46444 z M 16.46732,10.210092 16.260901,9.7417805 16.549886,10.287499 Z M 15.844453,9.2430233 15.431616,8.6312511 15.957983,9.1859998 Z m -1.378358,-1.3203022 0.02761,-0.019872 0.316336,0.2262858 z m -0.0418,-0.023993 -0.214416,-0.1106914 0.238413,0.093662 z m -1.810287,-0.4688266 0.401999,-0.082567 0.604805,0.2151905 z m -0.131076,-0.017545 -0.547266,-0.134688 0.917529,0.058313 z M 11.446199,7.4224237 11.01943,7.3839787 11.616752,7.2761252 Z M 9.9401206,7.803781 10.18421,7.6208427 10.577953,7.4995722 Z M 9.7396363,7.8992496 9.5277998,8.0045225 9.8534249,7.8141018 Z M 8.8510062,8.508699 8.5996926,8.7486597 8.8868712,8.4281961 Z m -1.1770993,1.693403 -0.1117236,0.04129 0.4342521,-0.7051743 z m -0.1455243,0.100371 0.1204964,-0.04464 -0.304725,0.692275 z m -0.3000808,1.796612 0.00621,0.385228 -0.022193,0.07018 z m 0.0209,0.483793 0.1099179,0.708273 -0.1514593,-0.577972 z m 0.5735843,1.465053 0.1411386,0.632155 -0.4507657,-0.886823 z m 0.45283,0.90308 0.098049,0.329752 -0.2918236,-0.393484 z m 2.1890649,1.697015 0.04076,0.06528 -0.428318,-0.186293 z m 0.109917,0.09289 -0.05161,-0.07999 0.93172,0.183454 z m 2.28247,0.07741 -0.09805,0.11095 -0.511401,-0.01419 z m 0.06786,-0.01058 0.609708,-0.09469 -0.700274,0.197129 z m 1.408805,-0.526624 0.357618,-0.110434 -0.629575,0.347557 z m 0.57281,-0.237123 -0.02812,-0.180616 0.522496,-0.240219 z m 1.131688,-1.356684 -0.02451,0.243832 -0.343687,0.409999 z m 0.565842,-1.039831 0.08825,-0.04257 -0.404322,0.794195 z m 0.117401,-0.105273 -0.09908,0.04799 0.199194,-0.655378 z"
     id="path4917"
     inkscape:connector-curvature="0"
     style="fill:url(#b);stroke-width:0.25802276" />
  <path
     d="M 21.275848,8.6018283 C 20.840822,7.5563202 19.959932,6.427471 19.267399,6.0708835 a 10.363483,10.363483 0 0 1 1.012739,3.0351213 c 0,-0.00229 0,0.00207 0.0016,0.00954 l 0.0018,0.010579 a 9.0444709,9.0444709 0 0 1 -0.311693,6.7491022 c -1.147176,2.459476 -3.924792,4.979842 -8.272475,4.857281 -4.6965295,-0.132881 -8.8344402,-3.61464 -9.6069602,-8.174676 -0.1406224,-0.719109 0,-1.083695 0.070699,-1.668117 a 7.4501479,7.4501479 0 0 0 -0.1620817,1.379649 v 0.05161 a 10.013346,10.013346 0 0 0 19.8788449,1.691081 c 0.01677,-0.129011 0.03044,-0.256733 0.04541,-0.385744 A 10.269305,10.269305 0 0 0 21.275848,8.6018283 Z"
     id="path4919"
     inkscape:connector-curvature="0"
     style="fill:url(#c);stroke-width:0.25802276" />
  <path
     d="M 21.275848,8.6018283 C 20.840822,7.5563202 19.959932,6.427471 19.267399,6.0708835 a 10.363483,10.363483 0 0 1 1.012739,3.0351213 c 0,-0.00229 0,0.00207 0.0016,0.00954 l 0.0018,0.010579 a 9.0444709,9.0444709 0 0 1 -0.311693,6.7491022 c -1.147176,2.459476 -3.924792,4.979842 -8.272475,4.857281 -4.6965295,-0.132881 -8.8344402,-3.61464 -9.6069602,-8.174676 -0.1406224,-0.719109 0,-1.083695 0.070699,-1.668117 a 7.4501479,7.4501479 0 0 0 -0.1620817,1.379649 v 0.05161 a 10.013346,10.013346 0 0 0 19.8788449,1.691081 c 0.01677,-0.129011 0.03044,-0.256733 0.04541,-0.385744 A 10.269305,10.269305 0 0 0 21.275848,8.6018283 Z"
     id="path4921"
     inkscape:connector-curvature="0"
     style="fill:url(#d);stroke-width:0.25802276" />
  <path
     d="m 2.0923738,12.557833 c 0.77252,4.560036 4.9104309,8.041795 9.6079922,8.174676 4.347684,0.12282 7.125298,-2.397805 8.272467,-4.857277 a 9.0444709,9.0444709 0 0 0 0.311691,-6.7491015 v -0.00954 c 0,-0.00748 -0.0016,-0.011871 -0.0016,-0.00954 l 0.0021,0.016771 c 0.35504,2.3162695 -0.824382,4.5602935 -2.668212,6.0777255 l -0.0056,0.0129 c -3.594758,2.921332 -7.032653,1.762036 -7.7293141,1.28779 A 6.3886431,6.3886431 0 0 1 9.736072,16.429469 C 7.6414433,15.429632 6.7760346,13.523102 6.9615525,11.88827 A 2.5709385,2.5709385 0 0 1 4.589776,10.397925 3.780291,3.780291 0 0 1 8.2707283,10.250593 4.9893855,4.9893855 0 0 0 12.029604,10.398183 C 12.026032,10.316905 10.283563,9.6241148 9.6041898,8.9558354 9.241152,8.598474 9.0687926,8.4263733 8.9163012,8.297104 A 3.0348635,3.0348635 0 0 0 8.6582783,8.1015225 C 8.5986755,8.0610125 8.5318476,8.0171489 8.4518604,7.9645125 7.7216561,7.4902667 6.2695041,7.5165852 6.2215121,7.5176172 h -0.00465 C 5.8197705,7.0152466 5.847895,5.3587409 5.870601,5.0129903 A 1.7942901,1.7942901 0 0 0 5.5351715,5.1899939 7.2955929,7.2955929 0 0 0 4.5567488,6.0272774 8.772773,8.772773 0 0 0 3.6209005,7.1486446 v 0.00155 -0.00155 A 8.4345051,8.4345051 0 0 0 2.2773761,10.177315 c -0.00464,0.02168 -0.3601998,1.57497 -0.1850023,2.380518 z"
     id="path4923"
     inkscape:connector-curvature="0"
     style="fill:url(#e);stroke-width:0.25802276" />
  <path
     d="m 15.543357,8.6116333 a 5.4342169,5.4342169 0 0 1 0.928882,1.2127072 2.0321871,2.0321871 0 0 1 0.150427,0.1228188 c 2.2706,2.0899837 1.080341,5.0440857 0.99184,5.2546317 1.84383,-1.517431 3.023252,-3.761454 2.668213,-6.0777241 C 19.150515,6.3051685 17.231084,5.1685784 15.664112,2.6938824 a 12.357741,12.357741 0 0 1 -0.235833,-0.3831641 3.030993,3.030993 0 0 1 -0.110176,-0.206418 1.8144158,1.8144158 0 0 1 -0.149653,-0.397097 0.02580227,0.02580227 0 0 0 -0.02271,-0.025805 0.03328493,0.03328493 0 0 0 -0.01884,0 l -0.0049,0.00255 -0.0075,0.0031 c -0.387004,0.1844865 -2.683149,3.8161561 0.428864,6.9245557 z"
     id="path4925"
     inkscape:connector-curvature="0"
     style="fill:url(#f);stroke-width:0.25802276" />
  <path
     d="m 11.69211,7.2405007 1.325462,0.084374 0.805031,0.286405 0.67086,0.2631833 0.772778,0.5519108 0.727882,0.76736 0.252862,0.4770837 a 6.0532135,6.0532135 0 0 1 0.163587,0.1065628 c 0.02193,0.015229 0.0418,0.030443 0.06219,0.045671 A 5.4342169,5.4342169 0 0 0 15.543873,8.6116333 C 12.431345,5.5032334 14.72749,1.8715638 15.114523,1.6870773 l 0.0051,-0.00567 c -2.51493,1.4707261 -3.368211,4.193124 -3.446392,5.5549678 v 0.00774 z"
     id="path4927"
     inkscape:connector-curvature="0"
     style="fill:url(#g);stroke-width:0.25802276" />
  <path
     d="M 8.4497962,7.9645125 A 5.8870465,5.8870465 0 0 1 8.6562147,8.1015225 4.6255736,4.6255736 0 0 1 8.6280937,5.6575309 7.4145415,7.4145415 0 0 0 6.218161,7.5176172 c 0.049285,-0.00105 1.5014341,-0.02735 2.2316391,0.4468953 z"
     id="path4929"
     inkscape:connector-curvature="0"
     style="fill:url(#h);stroke-width:0.25802276" />
  <path
     d="m 7.517044,13.225079 c 0,0 0.4621185,-1.720237 3.309141,-1.720237 0.307821,0 1.186906,-0.857925 1.203934,-1.106659 a 4.9893855,4.9893855 0 0 1 -3.7588743,-0.14759 3.780291,3.780291 0 0 0 -3.6809527,0.147332 2.5709385,2.5709385 0 0 0 2.3717455,1.490339 c -0.1855186,1.634832 0.6798901,3.541363 2.7745181,4.5412 0.046957,0.02244 0.090824,0.04696 0.1388157,0.06838 C 8.6528597,15.866461 7.6432176,14.673621 7.517044,13.225081 Z"
     id="path4931"
     inkscape:connector-curvature="0"
     style="fill:url(#i);stroke-width:0.25802276" />
  <path
     d="M 16.623182,9.9458693 A 2.0321871,2.0321871 0 0 0 16.472755,9.8230498 c -0.02038,-0.015221 -0.04025,-0.030443 -0.06219,-0.045671 A 3.4590528,3.4590528 0 0 0 13.996508,9.1919255 c 3.601223,1.7984175 2.634412,7.9912215 -2.355489,7.7574535 a 4.44857,4.44857 0 0 1 -1.302757,-0.251057 5.867437,5.867437 0 0 1 -0.294146,-0.11998 c -0.056251,-0.02581 -0.1127561,-0.05161 -0.1687476,-0.0805 l 0.007,0.0044 c 0.6966616,0.474245 4.1340406,1.633542 7.7270076,-1.288823 l 0.0057,-0.0129 c 0.0885,-0.210547 1.277728,-3.165424 -0.99184,-5.2546337 z"
     id="path4933"
     inkscape:connector-curvature="0"
     style="fill:url(#j);stroke-width:0.25802276" />
  <path
     d="M 21.275075,8.6015704 C 20.840048,7.5558042 19.959158,6.427213 19.266625,6.0703675 a 10.369934,10.369934 0 0 1 1.013513,3.0353794 l 0.0021,0.016514 C 19.150257,6.30362 17.230568,5.1670299 15.66308,2.6920759 a 11.691526,11.691526 0 0 1 -0.235833,-0.3829056 3.301659,3.301659 0 0 1 -0.110434,-0.206418 1.8198343,1.8198343 0 0 1 -0.149137,-0.396065 0.02580227,0.02580227 0 0 0 -0.02271,-0.025805 0.03560714,0.03560714 0 0 0 -0.01884,0 c -0.0016,0 -0.0036,0.0023 -0.0051,0.00285 -0.0016,5e-4 -0.0049,0.0028 -0.0072,0.00385 l 0.0041,-0.00567 c -2.514975,1.4707317 -3.36774,4.2013861 -3.446179,5.5632299 l 0.02039,-0.0036 1.325463,0.084373 0.745945,0.2652475 0.729946,0.2838248 0.772777,0.5519107 0.727109,0.7668437 c 0,0 0.250282,0.4696015 0.253637,0.4776 a 3.4262839,3.4262839 0 0 0 -2.251275,-0.4794 c 3.600965,1.7984181 2.634412,7.9912221 -2.35549,7.7574541 a 4.4565686,4.4565686 0 0 1 -1.302758,-0.2508 q -0.146041,-0.0547 -0.294146,-0.120755 a 3.7258485,3.7258485 0 0 1 -0.1687473,-0.08051 l 0.007,0.0044 a 5.8870465,5.8870465 0 0 1 -0.1458136,-0.0725 c 0.046707,0.02219 0.090824,0.04671 0.1388165,0.06812 -1.2225116,-0.631124 -2.2321545,-1.824221 -2.358328,-3.27276 0,0 0.4621185,-1.720238 3.3091414,-1.720238 0.307821,0 1.186905,-0.857926 1.203935,-1.10666 C 12.025777,10.316416 10.283051,9.6236255 9.6039348,8.9553462 9.2408962,8.5982397 9.0685376,8.4258811 8.9157876,8.2966111 A 2.9414592,2.9414592 0 0 0 8.6564747,8.1012882 4.6297018,4.6297018 0 0 1 8.6283497,5.6570389 7.4168629,7.4168629 0 0 0 6.2184176,7.5173827 h -0.00465 C 5.816929,7.0152706 5.8450535,5.3587644 5.8675015,5.0127563 A 1.8169961,1.8169961 0 0 0 5.5320715,5.1897599 7.2819179,7.2819179 0 0 0 4.5536494,6.0273014 8.7490352,8.7490352 0 0 0 3.6185749,7.1471201 8.4401816,8.4401816 0 0 0 2.2765987,10.177081 c -0.00491,0.02168 -0.00877,0.04412 -0.013417,0.06579 -0.018836,0.08824 -0.1032091,0.534881 -0.1155941,0.630866 0,0.0072 0,-0.0075 0,0 A 11.634503,11.634503 0 0 0 2.0000017,12.2691 v 0.05161 A 10.013089,10.013089 0 0 0 21.87988,14.012049 c 0.01703,-0.129011 0.03071,-0.258023 0.04567,-0.387034 A 10.271111,10.271111 0 0 0 21.275075,8.6015704 Z m -0.993131,0.5134651 0.0016,0.010836 z"
     id="path4935"
     inkscape:connector-curvature="0"
     style="fill:url(#k);stroke-width:0.25802276" />
  <path
     d="m 12.030119,10.398183 c 0,0 -0.04231,0.01754 -0.120754,0.04438 -0.195581,0.330527 -0.890952,0.961651 -1.156717,0.960361 -2.8470219,-0.01239 -3.3166233,1.689016 -3.3166233,1.689016 a 3.6363146,3.6363146 0 0 0 0.557845,1.634058 3.6623746,3.6623746 0 0 1 -0.4768257,-1.500919 c 0,0 0.4621185,-1.720237 3.309141,-1.720237 0.307821,0 1.186906,-0.857926 1.203934,-1.106659 z"
     id="path4937"
     inkscape:connector-curvature="0"
     style="fill:url(#l);stroke-width:0.25802276" />
  <path
     d="m 20.284524,9.1261305 v -0.00954 c 0,-0.00748 -0.0016,-0.011871 0,-0.00954 0.0016,0.00229 0,0.00564 0.0018,0.016771 a 9.9950267,9.9950267 0 0 0 -0.21519,-0.4954147 c -0.02581,-0.0547 -0.05161,-0.1057885 -0.0787,-0.1592 C 19.942124,8.3659982 19.892321,8.262789 19.8402,8.1657725 19.80794,8.1051365 19.77414,8.0475975 19.74112,7.9887689 19.69261,7.9023309 19.64462,7.8153775 19.594821,7.730746 19.558181,7.669853 19.520511,7.6115397 19.483355,7.5521942 c -0.04876,-0.077407 -0.09727,-0.1548135 -0.147073,-0.2301565 -0.03948,-0.059603 -0.07999,-0.117142 -0.119981,-0.1751971 -0.0498,-0.071731 -0.09934,-0.1434605 -0.150169,-0.213385 -0.0418,-0.057796 -0.08437,-0.114304 -0.126947,-0.170811 -0.0516,-0.067344 -0.101403,-0.1346875 -0.152749,-0.2007415 A 17.299135,17.299135 0 0 0 18.653284,6.3939295 C 18.601694,6.3296805 18.550096,6.2649165 18.497201,6.201701 Q 18.428821,6.118876 18.359675,6.0368249 c -0.02581,-0.02967 -0.0498,-0.060119 -0.07508,-0.089793 l 0.03199,0.03922 C 17.446017,4.962934 16.504492,4.019861 15.663853,2.6925924 A 12.169643,12.169643 0 0 1 15.428021,2.3094283 3.030993,3.030993 0 0 1 15.317845,2.1030098 2.0510227,2.0510227 0 0 1 15.180061,1.7515833 c -0.0018,-0.00645 -0.0049,-0.016255 -0.0059,-0.021415 a 1.1662628,1.1662628 0 0 1 -0.0056,-0.02322 0.02580227,0.02580227 0 0 0 -0.02271,-0.025805 0.03328493,0.03328493 0 0 0 -0.01884,0 l -0.0049,0.0028 a 0.06966614,0.06966614 0 0 0 -0.0075,0.00385 0.29362987,0.29362987 0 0 0 -0.06064,0.04464 0.32510865,0.32510865 0 0 0 -0.01445,0.0129 0.9603606,0.9603606 0 0 0 -0.07921,0.083858 l -0.0028,0.0028 C 14.358517,2.5358789 12.826636,5.6004149 15.29514,8.349389 12.984029,5.6298294 14.440568,2.6909504 15.073498,1.9210108 a 2.2215758,2.2215758 0 0 0 0.123593,0.3024025 2.9641652,2.9641652 0 0 0 0.110176,0.2064181 c 0.07741,0.1323655 0.156619,0.2580225 0.235832,0.3829056 1.567747,2.4749544 3.487435,3.612318 4.618608,6.4301849 0,-0.010836 -0.0018,-0.014964 -0.0018,-0.016514 0,-0.00157 0,0.00207 0.0013,0.00954 l 0.0016,0.00954 a 9.0447288,9.0447288 0 0 1 -0.31066,6.7506491 8.2962051,8.2962051 0 0 1 -1.590452,2.280404 8.3119444,8.3119444 0 0 0 1.711207,-2.401417 9.0457609,9.0457609 0 0 0 0.311691,-6.7491011 z"
     id="path4939"
     inkscape:connector-curvature="0"
     style="fill:url(#m);stroke-width:0.25802276" />
  <path
     d="m 15.114523,1.6870773 0.0051,-0.00567 c -2.265422,1.3254629 -3.182435,3.665471 -3.399174,5.1119463 a 7.3980279,7.3980279 0 0 1 3.024327,-4.6671203 1.4026116,1.4026116 0 0 1 0.369747,-0.4391545 z"
     id="path4941"
     inkscape:connector-curvature="0"
     style="fill:url(#n);stroke-width:0.25802276" />
  <path
     d="m 17.609345,15.213403 0.0057,-0.0129 c 0.0885,-0.210547 1.277728,-3.165423 -0.991839,-5.2546327 a 2.0321871,2.0321871 0 0 0 -0.150414,-0.122819 c -0.02038,-0.015221 -0.04025,-0.030443 -0.06219,-0.045671 A 3.4944019,3.4944019 0 0 0 14.088399,9.1774762 h -7.85e-4 a 2.2220918,2.2220918 0 0 0 -0.09108,0.014193 c 3.560455,1.7782928 2.65557,7.8521478 -2.188291,7.7618398 l 0.03947,0.0023 c 4.910442,0.193 5.878027,-5.828993 2.466192,-7.7172036 a 3.6252196,3.6252196 0 0 1 1.89621,0.5475243 2.1114001,2.1114001 0 0 1 0.06373,0.043607 1.9093683,1.9093683 0 0 1 0.154814,0.1166266 c 2.349813,1.9989017 1.277213,4.9978997 1.196709,5.2120587 l -0.0051,0.01342"
     id="path4943"
     inkscape:connector-curvature="0"
     style="fill:url(#o);stroke-width:0.25802276" />
  <path
     d="m 8.298079,10.350707 a 5.0017708,5.0017708 0 0 0 3.619801,0.08902 5.0025448,5.0025448 0 0 1 -3.6466353,-0.189131 3.8040292,3.8040292 0 0 0 -3.6332186,0.116111 l -0.013161,0.0085 h -0.00129 l -0.010836,0.0072 -0.00826,0.0057 -0.00516,0.0036 h -0.00154 l -0.00361,0.0026 h -0.00129 l 0.00464,0.01109 v 0.0016 l 0.00567,0.0129 v 0.0026 l 0.00851,0.01858 v 0.0016 a 2.0641819,2.0641819 0 0 0 0.065796,0.125658 2.5608756,2.5608756 0 0 0 2.2840179,1.315915 C 6.7809268,13.469963 7.5906026,15.311214 9.5510591,16.332984 7.6772983,15.253159 6.8900711,13.293476 7.1088739,11.73476 5.662143,11.696487 5.0152799,10.829275 4.8302774,10.461593 a 3.9562625,3.9562625 0 0 1 3.4678259,-0.11095 z"
     id="path4945"
     inkscape:connector-curvature="0"
     style="fill:url(#p);stroke-width:0.25802276" />
  <path
     d="m 8.6559562,8.0961039 -0.049029,-0.028643 0.051607,0.034057 z M 8.6456347,8.0594611 A 4.6333143,4.6333143 0 0 1 8.6293776,5.6575299 7.2981729,7.2981729 0 0 0 6.3123339,7.4149227 7.5580015,7.5580015 0 0 1 8.4252812,5.9225194 4.6905954,4.6905954 0 0 0 8.6456326,8.0594639 Z"
     id="path4947"
     inkscape:connector-curvature="0"
     style="fill:url(#q);stroke-width:0.25802276" />
  <path
     d="m 2.333883,13.605921 -0.008,-0.02864 a 9.2594038,9.2594038 0 0 1 -0.2322205,-1.019448 4.3257511,4.3257511 0 0 1 0,-1.290113 8.5116537,8.5116537 0 0 0 -0.091598,1.001128 v 0.05161 a 10.004574,10.004574 0 0 0 6.7189117,9.445697 10.120684,10.120684 0 0 1 -6.3870946,-8.160228 z"
     id="path4949"
     inkscape:connector-curvature="0"
     style="fill:url(#r);stroke-width:0.25802276" />
  <path
     d="M 2.253638,12.598084 C 2.0784406,11.792538 2.4342539,10.239499 2.4386403,10.217567 A 8.4345051,8.4345051 0 0 1 3.7821647,7.1878637 v 0.00155 -0.00155 A 8.772773,8.772773 0 0 1 4.7169811,6.0677875 7.2955929,7.2955929 0 0 1 5.6954035,5.2305034 0.86127987,0.86127987 0 0 1 5.7377185,5.2046984 c -0.0036,0.760651 0.039735,2.0443138 0.3919361,2.4651488 h 0.00465 c 0.04825,-0.00255 1.505563,-0.066828 2.2509901,0.3870346 0.082826,0.051607 0.1509436,0.09263 0.2118372,0.1315914 a 3.0774372,3.0774372 0 0 1 0.265505,0.188615 C 9.0189991,8.5024868 9.1965184,8.669944 9.5703934,9.0174997 10.112241,9.5209026 11.291147,10.021467 11.800742,10.25988 11.304306,10.009855 10.132883,9.4754905 9.6047106,8.9555747 9.2416727,8.5982133 9.0693134,8.4261125 8.9168219,8.2968432 A 3.0348635,3.0348635 0 0 0 8.6587997,8.1012611 C 8.5991962,8.0607511 8.5323676,8.0168882 8.4523812,7.9642511 7.7221768,7.4900057 6.2700246,7.5163237 6.2220326,7.5173562 h -0.00465 C 5.8546025,7.0583336 5.846862,5.6355964 5.8654395,5.1301298 c 0,-0.01961 0,-0.037415 0.00205,-0.054185 v -0.03277 c 0,-0.010835 0,-0.021415 0.0018,-0.030445 0,0 -0.0018,-0.0018 -0.00415,-0.0018 h -0.00903 l -0.00568,0.00205 -0.00826,0.0031 -0.008,0.00335 -0.00955,0.0044 -0.01032,0.0049 -0.01032,0.00516 -0.012645,0.00619 -0.010065,0.00542 -0.014965,0.00774 -0.00852,0.00465 A 4.9777748,4.9777748 0 0 0 5.534851,5.1869034 7.2955929,7.2955929 0 0 0 4.5564285,6.0241869 8.772773,8.772773 0 0 0 3.620838,7.1486501 v 0.00155 -0.00155 A 8.4345051,8.4345051 0 0 0 2.2773761,10.177315 c -0.00464,0.02168 -0.3612318,1.573939 -0.1850023,2.380518 0.6574419,3.879629 3.7524247,6.979773 7.5551639,7.899108 C 5.918851,19.49013 2.9017911,16.423787 2.253638,12.598084 Z"
     id="path4951"
     inkscape:connector-curvature="0"
     style="fill:url(#s);stroke-width:0.25802276" />
  <path
     d="M 21.275848,8.6018283 A 6.1319105,6.1319105 0 0 0 19.518714,6.2280195 l -0.01781,-0.012645 a 3.5124635,3.5124635 0 0 0 -0.05934,-0.04077 q -0.01109,-0.00774 -0.02244,-0.014705 -0.02838,-0.01806 -0.05574,-0.03483 l -0.02168,-0.0129 a 2.0288328,2.0288328 0 0 0 -0.07431,-0.041025 9.0661445,9.0661445 0 0 1 0.07895,0.158684 8.6667259,8.6667259 0 0 1 0.04799,0.098823 10.252534,10.252534 0 0 1 0.885791,2.7773568 l 0.0021,0.016772 c 0.355039,2.3162697 -0.824383,4.5602927 -2.668214,6.0777247 l -0.0057,0.0129 c -2.292016,1.864214 -4.520558,2.067536 -6.015025,1.847185 1.489048,0.278148 3.837829,0.160747 6.257051,-1.80616 l 0.0054,-0.0129 c 1.843822,-1.517434 3.023502,-3.761458 2.668463,-6.0777274 l -0.0021,-0.016771 a 10.047147,10.047147 0 0 0 -0.729948,-2.4370246 6.6213791,6.6213791 0 0 1 1.094791,1.5602631 9.963806,9.963806 0 0 1 0.92527,4.9024309 c -0.0077,0.127722 -0.01419,0.255185 -0.02399,0.381874 a 9.9674189,9.9674189 0 0 1 -9.395093,8.719362 10.230344,10.230344 0 0 1 -1.976712,-0.0805 10.020829,10.020829 0 0 0 11.463435,-8.181385 c 0.01677,-0.129011 0.03044,-0.256733 0.04541,-0.385744 A 10.269305,10.269305 0 0 0 21.275848,8.6018283 Z m -0.991324,0.5243022 v -0.00954 z"
     id="path4953"
     inkscape:connector-curvature="0"
     style="fill:url(#t);stroke-width:0.25802276" />
</svg>
