<?xml version="1.0" encoding="UTF-8" standalone="no"?>
<!-- This Source Code Form is subject to the terms of the Mozilla Public
   - License, v. 2.0. If a copy of the MPL was not distributed with this
   - file, You can obtain one at http://mozilla.org/MPL/2.0/. -->

<!-- IMPORTANT - The text part needs 'context-fill' for dark mode support on some pages -->

<svg
   xmlns:dc="http://purl.org/dc/elements/1.1/"
   xmlns:cc="http://creativecommons.org/ns#"
   xmlns:rdf="http://www.w3.org/1999/02/22-rdf-syntax-ns#"
   xmlns:svg="http://www.w3.org/2000/svg"
   xmlns="http://www.w3.org/2000/svg"
   xmlns:sodipodi="http://sodipodi.sourceforge.net/DTD/sodipodi-0.dtd"
   xmlns:inkscape="http://www.inkscape.org/namespaces/inkscape"
   viewBox="0 0 24 24"
   version="1.1"
   id="svg5182"
   sodipodi:docname="firefox-trunk.svg"
   width="24"
   height="24"
   inkscape:version="0.92.4 5da689c313, 2019-01-14">
  <metadata
     id="metadata5186">
    <rdf:RDF>
      <cc:Work
         rdf:about="">
        <dc:format>image/svg+xml</dc:format>
        <dc:type
           rdf:resource="http://purl.org/dc/dcmitype/StillImage" />
        <dc:title></dc:title>
      </cc:Work>
    </rdf:RDF>
  </metadata>
  <sodipodi:namedview
     pagecolor="#ffffff"
     bordercolor="#666666"
     borderopacity="1"
     objecttolerance="10"
     gridtolerance="10"
     guidetolerance="10"
     inkscape:pageopacity="0"
     inkscape:pageshadow="2"
     inkscape:window-width="1366"
     inkscape:window-height="708"
     id="namedview5184"
     showgrid="false"
     fit-margin-top="0"
     fit-margin-left="0"
     fit-margin-right="0"
     fit-margin-bottom="0"
     inkscape:zoom="3.281106"
     inkscape:cx="47.006882"
     inkscape:cy="39.971062"
     inkscape:window-x="0"
     inkscape:window-y="19"
     inkscape:window-maximized="1"
     inkscape:current-layer="svg5182" />
  <defs
     id="defs5140">
    <linearGradient
       id="a"
       x1="74.803001"
       y1="20.542999"
       x2="7.7420001"
       y2="62.785999"
       gradientUnits="userSpaceOnUse"
       gradientTransform="matrix(0.25833579,0,0,0.25833579,1.6641763,1.6697581)">
      <stop
         offset="0"
         stop-color="#3fe1b0"
         id="stop4973" />
      <stop
         offset=".406"
         stop-color="#00b3f4"
         id="stop4975" />
      <stop
         offset=".421"
         stop-color="#03b0f4"
         id="stop4977" />
      <stop
         offset=".818"
         stop-color="#5561e9"
         id="stop4979" />
      <stop
         offset="1"
         stop-color="#7542e5"
         id="stop4981" />
    </linearGradient>
    <radialGradient
       id="b"
       cx="-7907.187"
       cy="-8515.1211"
       r="80.796997"
       gradientTransform="matrix(0.25833579,0,0,0.25833579,2061.8921,2203.724)"
       gradientUnits="userSpaceOnUse">
      <stop
         offset=".108"
         stop-color="#3fe1b0"
         id="stop4984" />
      <stop
         offset=".122"
         stop-color="#3bdcb3"
         id="stop4986" />
      <stop
         offset=".254"
         stop-color="#1bb3d3"
         id="stop4988" />
      <stop
         offset=".358"
         stop-color="#0799e6"
         id="stop4990" />
      <stop
         offset=".42"
         stop-color="#0090ed"
         id="stop4992" />
      <stop
         offset=".487"
         stop-color="#2482f1"
         id="stop4994" />
      <stop
         offset=".64"
         stop-color="#7165fb"
         id="stop4996" />
      <stop
         offset=".71"
         stop-color="#9059ff"
         id="stop4998" />
      <stop
         offset=".795"
         stop-color="#7d49ed"
         id="stop5000" />
      <stop
         offset=".86"
         stop-color="#7542e5"
         id="stop5002" />
    </radialGradient>
    <radialGradient
       id="c"
       cx="-7936.7109"
       cy="-8482.0889"
       r="80.796997"
       gradientTransform="matrix(0.25833579,0,0,0.25833579,2061.8921,2203.724)"
       gradientUnits="userSpaceOnUse">
      <stop
         offset=".3"
         stop-color="#45278d"
         id="stop5005" />
      <stop
         offset=".341"
         stop-color="#562896"
         stop-opacity=".787"
         id="stop5007" />
      <stop
         offset=".43"
         stop-color="#782aa9"
         stop-opacity=".364"
         id="stop5009" />
      <stop
         offset=".495"
         stop-color="#8d2bb5"
         stop-opacity=".1"
         id="stop5011" />
      <stop
         offset=".53"
         stop-color="#952bb9"
         stop-opacity="0"
         id="stop5013" />
    </radialGradient>
    <radialGradient
       id="d"
       cx="-7926.9702"
       cy="-8533.457"
       r="58.534"
       gradientTransform="matrix(0.25833579,0,0,0.25833579,2061.8921,2203.724)"
       gradientUnits="userSpaceOnUse">
      <stop
         offset=".132"
         stop-color="#3fe1b0"
         id="stop5016" />
      <stop
         offset=".289"
         stop-color="#28d0c8"
         id="stop5018" />
      <stop
         offset=".526"
         stop-color="#00b3f4"
         id="stop5020" />
    </radialGradient>
    <radialGradient
       id="e"
       cx="-7945.6479"
       cy="-8460.9844"
       r="38.471001"
       gradientTransform="matrix(0.25833579,0,0,0.25833579,2061.8921,2203.724)"
       gradientUnits="userSpaceOnUse">
      <stop
         offset=".287"
         stop-color="#0060df"
         id="stop5023" />
      <stop
         offset=".417"
         stop-color="#2357e1"
         id="stop5025" />
      <stop
         offset=".604"
         stop-color="#4f4ce3"
         id="stop5027" />
      <stop
         offset=".748"
         stop-color="#6b45e4"
         id="stop5029" />
      <stop
         offset=".833"
         stop-color="#7542e5"
         id="stop5031" />
    </radialGradient>
    <radialGradient
       id="f"
       cx="-7935.6201"
       cy="-8491.5459"
       r="20.396999"
       gradientTransform="matrix(0.25110239,-0.06070891,0.07104234,0.29398614,2608.6087,2025.4201)"
       gradientUnits="userSpaceOnUse">
      <stop
         offset=".206"
         stop-color="#45278d"
         stop-opacity="0"
         id="stop5034" />
      <stop
         offset=".251"
         stop-color="#44268a"
         stop-opacity=".055"
         id="stop5036" />
      <stop
         offset=".725"
         stop-color="#371f6f"
         stop-opacity=".591"
         id="stop5038" />
      <stop
         offset=".956"
         stop-color="#321c64"
         stop-opacity=".8"
         id="stop5040" />
    </radialGradient>
    <radialGradient
       id="g"
       cx="-7943.645"
       cy="-8466.5225"
       r="0.62599999"
       gradientTransform="matrix(0.25833579,0,0,0.25833579,2061.8921,2203.724)"
       gradientUnits="userSpaceOnUse">
      <stop
         offset=".353"
         stop-color="#3a8ee6"
         id="stop5043" />
      <stop
         offset=".472"
         stop-color="#5c79f0"
         id="stop5045" />
      <stop
         offset=".669"
         stop-color="#9059ff"
         id="stop5047" />
      <stop
         offset="1"
         stop-color="#c139e6"
         id="stop5049" />
    </radialGradient>
    <radialGradient
       id="h"
       cx="-7943.48"
       cy="-8466.749"
       r="0.22400001"
       gradientTransform="matrix(0.25110239,-0.06070891,0.07104234,0.29398614,2606.7874,2024.0557)"
       gradientUnits="userSpaceOnUse">
      <stop
         offset=".206"
         stop-color="#9059ff"
         stop-opacity="0"
         id="stop5052" />
      <stop
         offset=".278"
         stop-color="#8c4ff3"
         stop-opacity=".064"
         id="stop5054" />
      <stop
         offset=".747"
         stop-color="#7716a8"
         stop-opacity=".45"
         id="stop5056" />
      <stop
         offset=".975"
         stop-color="#6e008b"
         stop-opacity=".6"
         id="stop5058" />
    </radialGradient>
    <radialGradient
       id="i"
       cx="-7937.731"
       cy="-8518.4268"
       r="27.676001"
       gradientTransform="matrix(0.25833579,0,0,0.25833579,2061.8921,2203.724)"
       gradientUnits="userSpaceOnUse">
      <stop
         offset="0"
         stop-color="#0df"
         id="stop5061" />
      <stop
         offset=".235"
         stop-color="#00d6fd"
         id="stop5063" />
      <stop
         offset=".572"
         stop-color="#00c3f8"
         id="stop5065" />
      <stop
         offset=".792"
         stop-color="#00b3f4"
         id="stop5067" />
    </radialGradient>
    <radialGradient
       id="j"
       cx="-7915.9771"
       cy="-8535.9814"
       r="118.081"
       gradientTransform="matrix(0.25833579,0,0,0.25833579,2061.8921,2203.724)"
       gradientUnits="userSpaceOnUse">
      <stop
         offset=".126"
         stop-color="#3fe1b0"
         id="stop5070" />
      <stop
         offset=".429"
         stop-color="#0df"
         id="stop5072" />
      <stop
         offset=".479"
         stop-color="#1ec1ff"
         id="stop5074" />
      <stop
         offset=".624"
         stop-color="#7077ff"
         id="stop5076" />
      <stop
         offset=".69"
         stop-color="#9059ff"
         id="stop5078" />
      <stop
         offset=".904"
         stop-color="#b833e1"
         id="stop5080" />
    </radialGradient>
    <radialGradient
       id="k"
       cx="-7927.165"
       cy="-8522.8594"
       r="86.499001"
       gradientTransform="matrix(0.02712526,0.25704412,-0.16869327,0.01782516,-1208.3817,2189.8233)"
       gradientUnits="userSpaceOnUse">
      <stop
         offset="0"
         stop-color="#54ffbd"
         id="stop5083" />
      <stop
         offset=".095"
         stop-color="#4cf3b8"
         id="stop5085" />
      <stop
         offset=".197"
         stop-color="#3fe1b0"
         id="stop5087" />
      <stop
         offset=".257"
         stop-color="#33d8bd"
         id="stop5089" />
      <stop
         offset=".369"
         stop-color="#12c0e1"
         id="stop5091" />
      <stop
         offset=".423"
         stop-color="#00b3f4"
         id="stop5093" />
      <stop
         offset=".737"
         stop-color="#0060df"
         id="stop5095" />
    </radialGradient>
    <radialGradient
       id="l"
       cx="-7938.3828"
       cy="-8508.1758"
       r="73.720001"
       gradientTransform="matrix(0.25833579,0,0,0.25833579,2061.8921,2203.724)"
       gradientUnits="userSpaceOnUse">
      <stop
         offset=".137"
         stop-color="#3fe1b0"
         id="stop5098" />
      <stop
         offset=".435"
         stop-color="#0df"
         id="stop5100" />
      <stop
         offset=".484"
         stop-color="#1ec1ff"
         id="stop5102" />
      <stop
         offset=".622"
         stop-color="#7077ff"
         id="stop5104" />
      <stop
         offset=".685"
         stop-color="#9059ff"
         id="stop5106" />
    </radialGradient>
    <radialGradient
       id="m"
       cx="-7918.9229"
       cy="-8503.8613"
       r="80.685997"
       gradientTransform="matrix(0.25833579,0,0,0.25833579,2061.8921,2203.724)"
       gradientUnits="userSpaceOnUse">
      <stop
         offset=".094"
         stop-color="#54ffbd"
         id="stop5109" />
      <stop
         offset=".242"
         stop-color="#41f7cc"
         id="stop5111" />
      <stop
         offset=".543"
         stop-color="#0fe3f3"
         id="stop5113" />
      <stop
         offset=".626"
         stop-color="#0df"
         id="stop5115" />
    </radialGradient>
    <linearGradient
       id="n"
       x1="70.013"
       y1="12.061"
       x2="15.267"
       y2="66.806"
       gradientUnits="userSpaceOnUse"
       gradientTransform="matrix(0.25833579,0,0,0.25833579,1.6641763,1.6697581)">
      <stop
         offset=".167"
         stop-color="#54ffbd"
         stop-opacity=".8"
         id="stop5118" />
      <stop
         offset=".236"
         stop-color="#43f8ca"
         stop-opacity=".639"
         id="stop5120" />
      <stop
         offset=".361"
         stop-color="#27ede1"
         stop-opacity=".368"
         id="stop5122" />
      <stop
         offset=".466"
         stop-color="#12e4f1"
         stop-opacity=".169"
         id="stop5124" />
      <stop
         offset=".545"
         stop-color="#05dffb"
         stop-opacity=".046"
         id="stop5126" />
      <stop
         offset=".589"
         stop-color="#0df"
         stop-opacity="0"
         id="stop5128" />
    </linearGradient>
    <linearGradient
       id="o"
       x1="75.657997"
       y1="72"
       x2="203.22"
       y2="72"
       gradientUnits="userSpaceOnUse">
      <stop
         offset=".002"
         stop-color="#005e5e"
         id="stop5131" />
      <stop
         offset=".478"
         stop-color="#0250bb"
         id="stop5133" />
      <stop
         offset=".735"
         stop-color="#253ba3"
         id="stop5135" />
      <stop
         offset="1"
         stop-color="#45278d"
         id="stop5137" />
    </linearGradient>
  </defs>
  <path
     d="M 21.275996,8.6011657 C 20.840959,7.5543891 19.958484,6.4241704 19.267435,6.0668916 a 10.402149,10.402149 0 0 1 1.013968,3.0390625 l 0.0018,0.016793 C 19.151184,6.3004274 17.231491,5.1624583 15.663651,2.684501 15.584342,2.5592086 15.505033,2.4336572 15.42779,2.3011307 15.383615,2.2254383 15.348223,2.1572374 15.317481,2.0944624 a 1.8220424,1.8220424 0 0 1 -0.149318,-0.3965457 0.02583358,0.02583358 0 0 0 -0.02273,-0.02583 0.03565034,0.03565034 0 0 0 -0.01886,0 c -0.0013,0 -0.0034,0.0023 -0.0049,0.00285 -0.0016,5.5e-4 -0.0049,0.00285 -0.0072,0.0039 l 0.0039,-0.00672 c -2.514943,1.4725018 -3.368226,4.1984615 -3.44676,5.561958 A 5.008356,5.008356 0 0 0 8.9161786,8.2960916 2.9933368,2.9933368 0 0 0 8.657843,8.1002724 4.6417775,4.6417775 0 0 1 8.629688,5.6530579 7.4155291,7.4155291 0 0 0 6.2196731,7.5156591 h -0.00465 C 5.8182193,7.0126794 5.8461198,5.3541631 5.8688533,5.0077349 A 1.7897504,1.7897504 0 0 0 5.5345671,5.1852118 7.2915277,7.2915277 0 0 0 4.5559904,6.0235116 8.743375,8.743375 0 0 0 3.62004,7.1464969 v 0.00155 -0.0018 A 8.4561058,8.4561058 0 0 0 2.2766938,10.179864 l -0.013434,0.06614 c -0.018859,0.08809 -0.086801,0.529331 -0.098426,0.625174 0,0.0075 -0.00155,0.01447 -0.00233,0.02196 a 9.5421489,9.5421489 0 0 0 -0.1624947,1.380317 v 0.05166 a 10.012837,10.012837 0 0 0 19.8799719,1.693133 c 0.01679,-0.129168 0.03048,-0.257044 0.04547,-0.387504 A 10.29649,10.29649 0 0 0 21.275996,8.6011657 Z M 9.7361368,16.438557 c 0.046757,0.02248 0.090676,0.04676 0.1387264,0.0682 l 0.007,0.0044 q -0.072851,-0.03488 -0.1457021,-0.07259 z m 2.2935042,-6.038858 z m 8.254346,-1.2746285 v -0.00956 l 0.0018,0.010593 z"
     id="path5142"
     inkscape:connector-curvature="0"
     style="fill:url(#a);stroke-width:0.2583358" />
  <path
     d="m 20.284503,9.1261041 -0.0018,-0.010593 v 0.00956 z"
     id="path5144"
     inkscape:connector-curvature="0"
     style="fill:none;stroke-width:0.2583358" />
  <path
     d="M 21.275996,8.6011657 C 20.840959,7.5543889 19.958484,6.4241701 19.267435,6.0668914 a 10.402149,10.402149 0 0 1 1.013968,3.0390627 v 0.00956 l 0.0018,0.010593 a 9.067587,9.067587 0 0 1 -0.31158,6.7575449 c -1.147528,2.462198 -3.925154,4.98588 -8.272945,4.863171 C 7.0008629,20.61378 2.8636151,17.127797 2.0901577,12.56197 c -0.1407931,-0.719982 0,-1.08501 0.070784,-1.670142 a 7.4597041,7.4597041 0 0 0 -0.1609432,1.38158 v 0.05166 a 10.012837,10.012837 0 0 0 19.8799725,1.693133 c 0.01679,-0.129169 0.03048,-0.257045 0.04546,-0.387504 A 10.29649,10.29649 0 0 0 21.275996,8.6011657 Z"
     id="path5146"
     inkscape:connector-curvature="0"
     style="fill:url(#b);stroke-width:0.2583358" />
  <path
     d="M 21.275996,8.6011657 C 20.840959,7.5543889 19.958484,6.4241701 19.267435,6.0668914 a 10.402149,10.402149 0 0 1 1.013968,3.0390627 v 0.00956 l 0.0018,0.010593 a 9.067587,9.067587 0 0 1 -0.31158,6.7575449 c -1.147528,2.462198 -3.925154,4.98588 -8.272945,4.863171 C 7.0008629,20.61378 2.8636151,17.127797 2.0901577,12.56197 c -0.1407931,-0.719982 0,-1.08501 0.070784,-1.670142 a 7.4597041,7.4597041 0 0 0 -0.1609432,1.38158 v 0.05166 a 10.012837,10.012837 0 0 0 19.8799725,1.693133 c 0.01679,-0.129169 0.03048,-0.257045 0.04546,-0.387504 A 10.29649,10.29649 0 0 0 21.275996,8.6011657 Z"
     id="path5148"
     inkscape:connector-curvature="0"
     style="fill:url(#c);stroke-width:0.2583358" />
  <path
     d="m 16.4105,9.7781438 c 0.0217,0.015243 0.04185,0.030479 0.06226,0.045721 A 5.4508852,5.4508852 0 0 0 15.54275,8.6109829 C 12.430837,5.4985531 14.727184,1.8624766 15.114429,1.6777667 l 0.0039,-0.00568 c -2.514924,1.4725136 -3.368208,4.1984731 -3.446742,5.5619697 0.116768,-0.00801 0.232503,-0.017825 0.351854,-0.017825 A 5.0530484,5.0530484 0 0 1 16.4105,9.7781467 Z"
     id="path5150"
     inkscape:connector-curvature="0"
     style="fill:url(#d);stroke-width:0.2583358" />
  <path
     d="m 12.0299,10.399699 c -0.01653,0.249037 -0.896426,1.108002 -1.204103,1.108002 -2.8471188,0 -3.3092814,1.722325 -3.3092814,1.722325 0.1260678,1.450298 1.1366774,2.644842 2.3583476,3.276731 0.0558,0.02893 0.1123764,0.05503 0.1689508,0.0806 q 0.146994,0.0651 0.293986,0.120385 a 4.4524172,4.4524172 0 0 0 1.302788,0.251361 c 4.990273,0.234052 5.956964,-5.967557 2.355764,-7.767125 A 3.4565329,3.4565329 0 0 1 16.4105,9.7781421 5.0530484,5.0530484 0 0 0 12.023441,7.2162266 c -0.118834,0 -0.235086,0.00982 -0.351853,0.017825 A 5.008356,5.008356 0 0 0 8.9161786,8.2960708 C 9.0688549,8.4252386 9.2411656,8.5978071 9.6041269,8.955602 10.28355,9.6249496 12.026025,10.318323 12.0299,10.399699 Z"
     id="path5152"
     inkscape:connector-curvature="0"
     style="fill:url(#e);stroke-width:0.2583358" />
  <path
     d="m 12.0299,10.399699 c -0.01653,0.249037 -0.896426,1.108002 -1.204103,1.108002 -2.8471188,0 -3.3092814,1.722325 -3.3092814,1.722325 0.1260678,1.450298 1.1366774,2.644842 2.3583476,3.276731 0.0558,0.02893 0.1123764,0.05503 0.1689508,0.0806 q 0.146994,0.0651 0.293986,0.120385 a 4.4524172,4.4524172 0 0 0 1.302788,0.251361 c 4.990273,0.234052 5.956964,-5.967557 2.355764,-7.767125 A 3.4565329,3.4565329 0 0 1 16.4105,9.7781421 5.0530484,5.0530484 0 0 0 12.023441,7.2162266 c -0.118834,0 -0.235086,0.00982 -0.351853,0.017825 A 5.008356,5.008356 0 0 0 8.9161786,8.2960708 C 9.0688549,8.4252386 9.2411656,8.5978071 9.6041269,8.955602 10.28355,9.6249496 12.026025,10.318323 12.0299,10.399699 Z"
     id="path5154"
     inkscape:connector-curvature="0"
     style="fill:url(#f);stroke-width:0.2583358" />
  <path
     d="m 9.7361368,16.438557 q 0.072851,0.03746 0.1457014,0.07259 l -0.007,-0.0044 c -0.047279,-0.02144 -0.091968,-0.04573 -0.1387264,-0.0682 z"
     id="path5156"
     inkscape:connector-curvature="0"
     style="fill:url(#g);stroke-width:0.2583358" />
  <path
     d="m 9.7361368,16.438557 q 0.072851,0.03746 0.1457014,0.07259 l -0.007,-0.0044 c -0.047279,-0.02144 -0.091968,-0.04573 -0.1387264,-0.0682 z"
     id="path5158"
     inkscape:connector-curvature="0"
     style="fill:url(#h);stroke-width:0.2583358" />
  <path
     d="M 8.4493659,7.963076 C 8.5304839,8.01474 8.597393,8.059694 8.6560351,8.1002524 A 4.6417775,4.6417775 0 0 1 8.627878,5.6530376 7.4155291,7.4155291 0 0 0 6.217863,7.5156389 c 0.048825,-0.0013 1.5011889,-0.02738 2.2315043,0.4474371 z"
     id="path5160"
     inkscape:connector-curvature="0"
     style="fill:url(#i);stroke-width:0.2583358" />
  <path
     d="m 2.0914637,12.56197 c 0.7726823,4.565827 4.9107057,8.05181 9.6085423,8.184853 4.34779,0.122968 7.125417,-2.400973 8.272945,-4.863171 a 9.067587,9.067587 0 0 0 0.311552,-6.7575479 v -0.00956 c 0,-0.00749 -0.0016,-0.011878 0,-0.00956 l 0.0018,0.016793 c 0.355211,2.3190809 -0.82435,4.5658259 -2.66835,6.0850999 l -0.0057,0.01291 c -3.592935,2.92617 -7.031384,1.765467 -7.7273404,1.291679 q -0.07285,-0.03488 -0.1457014,-0.07259 C 7.6443248,15.439569 6.7788995,13.530984 6.9643844,11.894169 A 2.5712162,2.5712162 0 0 1 4.5926519,10.402287 3.7763527,3.7763527 0 0 1 8.2736788,10.254519 4.9858808,4.9858808 0 0 0 12.032981,10.402287 C 12.029124,10.320911 10.286631,9.6272789 9.6072083,8.9581899 9.2442463,8.6003943 9.0719364,8.4280844 8.91926,8.2986587 A 2.9933368,2.9933368 0 0 0 8.6609237,8.1028402 C 8.6015073,8.0622802 8.534598,8.0183638 8.4542552,7.9656638 7.7239405,7.4908429 6.2715766,7.5169344 6.2235261,7.5182264 h -0.00465 C 5.8220718,7.0152462 5.8499723,5.3567309 5.8727058,5.0103021 A 1.7897504,1.7897504 0 0 0 5.5384196,5.187779 7.2915277,7.2915277 0 0 0 4.559843,6.0260789 8.743375,8.743375 0 0 0 3.6200175,7.1464806 v 0.00155 -0.0018 A 8.4561058,8.4561058 0 0 0 2.2766714,10.179868 c -0.00491,0.02041 -0.3606367,1.575589 -0.1852267,2.382114 z"
     id="path5162"
     inkscape:connector-curvature="0"
     style="fill:url(#j);stroke-width:0.2583358" />
  <path
     d="m 12.0299,10.399699 h -2.59e-4 z"
     id="path5164"
     inkscape:connector-curvature="0"
     style="fill:#ff4aa2;stroke-width:0.2583358" />
  <path
     d="m 15.543267,8.6109829 a 5.4508852,5.4508852 0 0 1 0.930009,1.214178 c 0.05503,0.041593 0.106434,0.082926 0.150092,0.1229681 2.269997,2.092519 1.080619,5.050465 0.99201,5.261008 1.844001,-1.519273 3.022529,-3.76602 2.66835,-6.0850994 C 19.151184,6.3004274 17.231491,5.1624583 15.663651,2.684501 15.584342,2.5592086 15.505033,2.4336572 15.42779,2.3011307 15.383612,2.2254383 15.348223,2.1572374 15.317481,2.0944624 a 1.8220424,1.8220424 0 0 1 -0.149318,-0.3965457 0.02583358,0.02583358 0 0 0 -0.02273,-0.02583 0.03565034,0.03565034 0 0 0 -0.01886,0 c -0.0013,0 -0.0034,0.0023 -0.0049,0.00285 -0.0016,5.5e-4 -0.0049,0.00285 -0.0072,0.0039 -0.387245,0.1836769 -2.683592,3.8197534 0.428838,6.9321833 z"
     id="path5166"
     inkscape:connector-curvature="0"
     style="fill:url(#k);stroke-width:0.2583358" />
  <path
     d="m 16.621818,9.946837 c -0.04366,-0.04004 -0.09507,-0.081376 -0.150092,-0.1229682 -0.02041,-0.015243 -0.04056,-0.030479 -0.06226,-0.045721 A 3.4565329,3.4565329 0 0 0 13.995321,9.1919833 c 3.601201,1.8006007 2.635025,8.0011767 -2.355765,7.7671247 a 4.4524172,4.4524172 0 0 1 -1.302789,-0.251365 q -0.146993,-0.05503 -0.293986,-0.120384 c -0.056577,-0.02583 -0.1131507,-0.05166 -0.1689514,-0.0806 l 0.007,0.0044 c 0.6959564,0.475079 4.1333724,1.635782 7.7273404,-1.29168 l 0.0057,-0.01292 c 0.08964,-0.209252 1.279021,-3.167972 -0.99201,-5.259717 z"
     id="path5168"
     inkscape:connector-curvature="0"
     style="fill:url(#l);stroke-width:0.2583358" />
  <path
     d="m 7.5165156,13.230026 c 0,0 0.4621626,-1.722325 3.3092814,-1.722325 0.307677,0 1.188344,-0.858965 1.204103,-1.108002 a 4.9858808,4.9858808 0 0 1 -3.7593019,-0.147768 3.7763527,3.7763527 0 0 0 -3.6810272,0.147768 2.5712162,2.5712162 0 0 0 2.3717813,1.49189 c -0.1854856,1.637073 0.679939,3.545658 2.7747846,4.54671 0.046757,0.02247 0.090676,0.04676 0.1387264,0.0682 C 8.6521601,15.874868 7.6425834,14.680323 7.5165156,13.230026 Z"
     id="path5170"
     inkscape:connector-curvature="0"
     style="fill:url(#m);stroke-width:0.2583358" />
  <path
     d="m 14.440948,11.605094 -2.59e-4,2.58e-4 z"
     id="path5172"
     inkscape:connector-curvature="0"
     style="fill:#ff4aa2;stroke-width:0.2583358" />
  <path
     d="M 21.275996,8.6011657 C 20.840959,7.5543891 19.958484,6.4241704 19.267435,6.0668916 a 10.402149,10.402149 0 0 1 1.013968,3.0390625 l 0.0018,0.016793 C 19.151184,6.3004274 17.231491,5.1624583 15.663651,2.684501 15.584342,2.5592086 15.505033,2.4336572 15.42779,2.3011307 15.383615,2.2254383 15.348223,2.1572374 15.317481,2.0944624 a 1.8220424,1.8220424 0 0 1 -0.149318,-0.3965457 0.02583358,0.02583358 0 0 0 -0.02273,-0.02583 0.03565034,0.03565034 0 0 0 -0.01886,0 c -0.0013,0 -0.0034,0.0023 -0.0049,0.00285 -0.0016,5.5e-4 -0.0049,0.00285 -0.0072,0.0039 l 0.0039,-0.00672 c -2.514943,1.4725151 -3.368226,4.1984745 -3.44676,5.5619711 0.116767,-0.008 0.232502,-0.017825 0.351853,-0.017825 a 5.0530484,5.0530484 0 0 1 4.387059,2.561916 3.4565329,3.4565329 0 0 0 -2.414148,-0.5861641 c 3.6012,1.8006003 2.635025,8.0011753 -2.355764,7.7671233 A 4.4524172,4.4524172 0 0 1 10.3378,16.707762 q -0.146992,-0.05503 -0.293986,-0.120385 c -0.05657,-0.02583 -0.1131508,-0.05166 -0.1689508,-0.0806 l 0.007,0.0044 q -0.072851,-0.03488 -0.1457021,-0.07259 c 0.046757,0.02247 0.090676,0.04676 0.1387264,0.0682 -1.2227031,-0.63189 -2.2322791,-1.826434 -2.3583476,-3.276732 0,0 0.4621626,-1.722325 3.3092821,-1.722325 0.307677,0 1.188344,-0.858966 1.204103,-1.108001 C 12.025996,10.31836 10.283574,9.6247282 9.6041519,8.9556384 9.2411649,8.5978157 9.0688549,8.4255058 8.9161786,8.2960794 A 2.9933368,2.9933368 0 0 0 8.657843,8.1002609 4.6417775,4.6417775 0 0 1 8.6296858,5.6530464 7.4155291,7.4155291 0 0 0 6.219671,7.5156471 H 6.215021 C 5.8182148,7.0126674 5.8461148,5.3541516 5.8688483,5.0077229 A 1.7897504,1.7897504 0 0 0 5.5345621,5.1851998 7.2915277,7.2915277 0 0 0 4.5559856,6.0234996 8.743375,8.743375 0 0 0 3.620035,7.1464854 v 0.00155 -0.0018 A 8.4561058,8.4561058 0 0 0 2.2766889,10.179872 l -0.013434,0.06614 c -0.018859,0.08809 -0.1033343,0.53553 -0.1154761,0.63163 0,0.0072 0,-0.0075 0,0 a 11.649395,11.649395 0 0 0 -0.1477686,1.39581 v 0.05166 a 10.012837,10.012837 0 0 0 19.8799728,1.693133 c 0.01679,-0.129168 0.03048,-0.257044 0.04546,-0.387503 A 10.29649,10.29649 0 0 0 21.275996,8.6011657 Z m -0.9933,0.5143462 0.0018,0.010593 z"
     id="path5174"
     inkscape:connector-curvature="0"
     style="fill:url(#n);stroke-width:0.2583358" />
</svg>
