<?xml version="1.0" encoding="UTF-8" standalone="no"?>
<svg
   xmlns:dc="http://purl.org/dc/elements/1.1/"
   xmlns:cc="http://creativecommons.org/ns#"
   xmlns:rdf="http://www.w3.org/1999/02/22-rdf-syntax-ns#"
   xmlns:svg="http://www.w3.org/2000/svg"
   xmlns="http://www.w3.org/2000/svg"
   xmlns:sodipodi="http://sodipodi.sourceforge.net/DTD/sodipodi-0.dtd"
   xmlns:inkscape="http://www.inkscape.org/namespaces/inkscape"
   height="24"
   width="24"
   id="svg1008"
   version="1.1"
   viewBox="0 0 24 24"
   sodipodi:docname="firefox.svg"
   inkscape:version="0.92.4 5da689c313, 2019-01-14">
  <sodipodi:namedview
     pagecolor="#ffffff"
     bordercolor="#666666"
     borderopacity="1"
     objecttolerance="10"
     gridtolerance="10"
     guidetolerance="10"
     inkscape:pageopacity="0"
     inkscape:pageshadow="2"
     inkscape:window-width="1366"
     inkscape:window-height="708"
     id="namedview95"
     showgrid="false"
     inkscape:zoom="2.8792082"
     inkscape:cx="3.9414039"
     inkscape:cy="40.98349"
     inkscape:window-x="0"
     inkscape:window-y="19"
     inkscape:window-maximized="1"
     inkscape:current-layer="svg1008" />
  <metadata
     id="metadata1012">
    <rdf:RDF>
      <cc:Work
         rdf:about="">
        <dc:format>image/svg+xml</dc:format>
        <dc:type
           rdf:resource="http://purl.org/dc/dcmitype/StillImage" />
        <dc:title></dc:title>
      </cc:Work>
    </rdf:RDF>
  </metadata>
  <defs
     id="defs978">
    <linearGradient
       gradientTransform="matrix(0.25833582,0,0,0.25833582,1.6641792,1.6697336)"
       gradientUnits="userSpaceOnUse"
       y2="74.468002"
       x2="6.447"
       y1="12.393"
       x1="70.786003"
       id="a">
      <stop
         id="stop834"
         stop-color="#fff44f"
         offset=".048" />
      <stop
         id="stop836"
         stop-color="#ffe847"
         offset=".111" />
      <stop
         id="stop838"
         stop-color="#ffc830"
         offset=".225" />
      <stop
         id="stop840"
         stop-color="#ff980e"
         offset=".368" />
      <stop
         id="stop842"
         stop-color="#ff8b16"
         offset=".401" />
      <stop
         id="stop844"
         stop-color="#ff672a"
         offset=".462" />
      <stop
         id="stop846"
         stop-color="#ff3647"
         offset=".534" />
      <stop
         id="stop848"
         stop-color="#e31587"
         offset=".705" />
    </linearGradient>
    <radialGradient
       gradientUnits="userSpaceOnUse"
       gradientTransform="matrix(0.25833582,0,0,0.25833582,2061.8923,2203.7242)"
       r="80.796997"
       cy="-8515.1211"
       cx="-7907.187"
       id="b">
      <stop
         id="stop851"
         stop-color="#ffbd4f"
         offset=".129" />
      <stop
         id="stop853"
         stop-color="#ffac31"
         offset=".186" />
      <stop
         id="stop855"
         stop-color="#ff9d17"
         offset=".247" />
      <stop
         id="stop857"
         stop-color="#ff980e"
         offset=".283" />
      <stop
         id="stop859"
         stop-color="#ff563b"
         offset=".403" />
      <stop
         id="stop861"
         stop-color="#ff3750"
         offset=".467" />
      <stop
         id="stop863"
         stop-color="#f5156c"
         offset=".71" />
      <stop
         id="stop865"
         stop-color="#eb0878"
         offset=".782" />
      <stop
         id="stop867"
         stop-color="#e50080"
         offset=".86" />
    </radialGradient>
    <radialGradient
       gradientUnits="userSpaceOnUse"
       gradientTransform="matrix(0.25833582,0,0,0.25833582,2061.8923,2203.7242)"
       r="80.796997"
       cy="-8482.0889"
       cx="-7936.7109"
       id="c">
      <stop
         id="stop870"
         stop-color="#960e18"
         offset=".3" />
      <stop
         id="stop872"
         stop-opacity=".74"
         stop-color="#b11927"
         offset=".351" />
      <stop
         id="stop874"
         stop-opacity=".343"
         stop-color="#db293d"
         offset=".435" />
      <stop
         id="stop876"
         stop-opacity=".094"
         stop-color="#f5334b"
         offset=".497" />
      <stop
         id="stop878"
         stop-opacity="0"
         stop-color="#ff3750"
         offset=".53" />
    </radialGradient>
    <radialGradient
       gradientUnits="userSpaceOnUse"
       gradientTransform="matrix(0.25833582,0,0,0.25833582,2061.8923,2203.7242)"
       r="58.534"
       cy="-8533.457"
       cx="-7926.9702"
       id="d">
      <stop
         id="stop881"
         stop-color="#fff44f"
         offset=".132" />
      <stop
         id="stop883"
         stop-color="#ffdc3e"
         offset=".252" />
      <stop
         id="stop885"
         stop-color="#ff9d12"
         offset=".506" />
      <stop
         id="stop887"
         stop-color="#ff980e"
         offset=".526" />
    </radialGradient>
    <radialGradient
       gradientUnits="userSpaceOnUse"
       gradientTransform="matrix(0.25833582,0,0,0.25833582,2061.8923,2203.7242)"
       r="38.471001"
       cy="-8460.9844"
       cx="-7945.6479"
       id="e">
      <stop
         id="stop890"
         stop-color="#3a8ee6"
         offset=".353" />
      <stop
         id="stop892"
         stop-color="#5c79f0"
         offset=".472" />
      <stop
         id="stop894"
         stop-color="#9059ff"
         offset=".669" />
      <stop
         id="stop896"
         stop-color="#c139e6"
         offset="1" />
    </radialGradient>
    <radialGradient
       gradientUnits="userSpaceOnUse"
       gradientTransform="matrix(0.25110242,-0.06070892,0.07104235,0.29398616,2608.6089,2025.4203)"
       r="20.396999"
       cy="-8491.5459"
       cx="-7935.6201"
       id="f">
      <stop
         id="stop899"
         stop-opacity="0"
         stop-color="#9059ff"
         offset=".206" />
      <stop
         id="stop901"
         stop-opacity=".064"
         stop-color="#8c4ff3"
         offset=".278" />
      <stop
         id="stop903"
         stop-opacity=".45"
         stop-color="#7716a8"
         offset=".747" />
      <stop
         id="stop905"
         stop-opacity=".6"
         stop-color="#6e008b"
         offset=".975" />
    </radialGradient>
    <radialGradient
       gradientUnits="userSpaceOnUse"
       gradientTransform="matrix(0.25833582,0,0,0.25833582,2061.8923,2203.7242)"
       r="27.676001"
       cy="-8518.4268"
       cx="-7937.731"
       id="g">
      <stop
         id="stop908"
         stop-color="#ffe226"
         offset="0" />
      <stop
         id="stop910"
         stop-color="#ffdb27"
         offset=".121" />
      <stop
         id="stop912"
         stop-color="#ffc82a"
         offset=".295" />
      <stop
         id="stop914"
         stop-color="#ffa930"
         offset=".502" />
      <stop
         id="stop916"
         stop-color="#ff7e37"
         offset=".732" />
      <stop
         id="stop918"
         stop-color="#ff7139"
         offset=".792" />
    </radialGradient>
    <radialGradient
       gradientUnits="userSpaceOnUse"
       gradientTransform="matrix(0.25833582,0,0,0.25833582,2061.8923,2203.7242)"
       r="118.081"
       cy="-8535.9814"
       cx="-7915.9771"
       id="h">
      <stop
         id="stop921"
         stop-color="#fff44f"
         offset=".113" />
      <stop
         id="stop923"
         stop-color="#ff980e"
         offset=".456" />
      <stop
         id="stop925"
         stop-color="#ff5634"
         offset=".622" />
      <stop
         id="stop927"
         stop-color="#ff3647"
         offset=".716" />
      <stop
         id="stop929"
         stop-color="#e31587"
         offset=".904" />
    </radialGradient>
    <radialGradient
       gradientUnits="userSpaceOnUse"
       gradientTransform="matrix(0.02712526,0.25704414,-0.16869329,0.01782517,-1208.3819,2189.8234)"
       r="86.499001"
       cy="-8522.8594"
       cx="-7927.165"
       id="i">
      <stop
         id="stop932"
         stop-color="#fff44f"
         offset="0" />
      <stop
         id="stop934"
         stop-color="#ffe847"
         offset=".06" />
      <stop
         id="stop936"
         stop-color="#ffc830"
         offset=".168" />
      <stop
         id="stop938"
         stop-color="#ff980e"
         offset=".304" />
      <stop
         id="stop940"
         stop-color="#ff8b16"
         offset=".356" />
      <stop
         id="stop942"
         stop-color="#ff672a"
         offset=".455" />
      <stop
         id="stop944"
         stop-color="#ff3647"
         offset=".57" />
      <stop
         id="stop946"
         stop-color="#e31587"
         offset=".737" />
    </radialGradient>
    <radialGradient
       gradientUnits="userSpaceOnUse"
       gradientTransform="matrix(0.25833582,0,0,0.25833582,2061.8923,2203.7242)"
       r="73.720001"
       cy="-8508.1758"
       cx="-7938.3828"
       id="j">
      <stop
         id="stop949"
         stop-color="#fff44f"
         offset=".137" />
      <stop
         id="stop951"
         stop-color="#ff980e"
         offset=".48" />
      <stop
         id="stop953"
         stop-color="#ff5634"
         offset=".592" />
      <stop
         id="stop955"
         stop-color="#ff3647"
         offset=".655" />
      <stop
         id="stop957"
         stop-color="#e31587"
         offset=".904" />
    </radialGradient>
    <radialGradient
       gradientUnits="userSpaceOnUse"
       gradientTransform="matrix(0.25833582,0,0,0.25833582,2061.8923,2203.7242)"
       r="80.685997"
       cy="-8503.8613"
       cx="-7918.9229"
       id="k">
      <stop
         id="stop960"
         stop-color="#fff44f"
         offset=".094" />
      <stop
         id="stop962"
         stop-color="#ffe141"
         offset=".231" />
      <stop
         id="stop964"
         stop-color="#ffaf1e"
         offset=".509" />
      <stop
         id="stop966"
         stop-color="#ff980e"
         offset=".626" />
    </radialGradient>
    <linearGradient
       gradientTransform="matrix(0.25833582,0,0,0.25833582,1.6641792,1.6697336)"
       gradientUnits="userSpaceOnUse"
       y2="66.806"
       x2="15.267"
       y1="12.061"
       x1="70.013"
       id="l">
      <stop
         id="stop969"
         stop-opacity=".8"
         stop-color="#fff44f"
         offset=".167" />
      <stop
         id="stop971"
         stop-opacity=".634"
         stop-color="#fff44f"
         offset=".266" />
      <stop
         id="stop973"
         stop-opacity=".217"
         stop-color="#fff44f"
         offset=".489" />
      <stop
         id="stop975"
         stop-opacity="0"
         stop-color="#fff44f"
         offset=".6" />
    </linearGradient>
  </defs>
  <path
     style="fill:url(#a);stroke-width:0.25833583"
     id="path980"
     d="M 21.276002,8.6011423 C 20.840964,7.5543656 19.958489,6.4241463 19.267441,6.066868 a 10.402151,10.402151 0 0 1 1.013968,3.0390633 l 0.0018,0.016793 C 19.15119,6.3004033 17.231496,5.1624346 15.663656,2.684477 15.584347,2.5591841 15.505037,2.4336327 15.427795,2.3011062 15.38362,2.2254138 15.348227,2.1572134 15.317486,2.0944379 a 1.8220425,1.8220425 0 0 1 -0.149319,-0.3965452 0.02583358,0.02583358 0 0 0 -0.02273,-0.02583 0.03565034,0.03565034 0 0 0 -0.01886,0 c -0.0013,0 -0.0034,0.0023 -0.0049,0.00285 -0.0016,5.5e-4 -0.0049,0.00285 -0.0072,0.00385 l 0.0039,-0.00672 C 12.60341,3.1445415 11.750127,5.8705012 11.671592,7.2339979 A 5.0083565,5.0083565 0 0 0 8.9161827,8.2960182 2.9933372,2.9933372 0 0 0 8.6578464,8.100199 4.641778,4.641778 0 0 1 8.6296915,5.6529842 7.4155301,7.4155301 0 0 0 6.2196762,7.5155851 h -0.00465 C 5.8182224,7.0126054 5.8461229,5.3540895 5.8688564,5.0076611 a 1.7897506,1.7897506 0 0 0 -0.3342863,0.1774764 7.2915287,7.2915287 0 0 0 -0.9785764,0.8383 8.7433758,8.7433758 0 0 0 -0.9359506,1.1229859 v 0.00155 -0.0018 A 8.4561067,8.4561067 0 0 0 2.2766968,10.179842 l -0.013434,0.06613 c -0.018859,0.08809 -0.086801,0.52933 -0.098426,0.625173 0,0.0075 -0.00155,0.01447 -0.00233,0.02196 a 9.5421503,9.5421503 0 0 0 -0.1624947,1.380316 v 0.05167 a 10.012838,10.012838 0 0 0 19.8799769,1.693092 c 0.01679,-0.129168 0.03048,-0.257044 0.04546,-0.387504 A 10.296491,10.296491 0 0 0 21.276002,8.6011423 Z M 9.7361401,16.438534 c 0.046757,0.02248 0.090676,0.04676 0.1387264,0.0682 l 0.007,0.0044 q -0.072851,-0.03488 -0.1457021,-0.07259 z m 2.2935059,-6.038857 z m 8.254346,-1.2746293 v -0.00956 l 0.0018,0.010593 z"
     inkscape:connector-curvature="0" />
  <path
     style="fill:url(#b);stroke-width:0.25833583"
     id="path982"
     d="M 21.276002,8.6011423 C 20.840964,7.5543656 19.958489,6.4241463 19.267441,6.066868 a 10.402151,10.402151 0 0 1 1.013968,3.0390633 v 0.00956 l 0.0018,0.010593 A 9.0675877,9.0675877 0 0 1 19.97165,15.88363 c -1.147528,2.462198 -3.925154,4.985881 -8.272946,4.863171 -4.6978373,-0.133042 -8.8350859,-3.619026 -9.6085434,-8.184854 -0.1407929,-0.719981 0,-1.08501 0.070784,-1.67014 a 7.4597051,7.4597051 0 0 0 -0.1609432,1.381579 v 0.05166 a 10.012838,10.012838 0 0 0 19.8799896,1.693137 c 0.01679,-0.129168 0.03048,-0.257044 0.04546,-0.387504 A 10.296491,10.296491 0 0 0 21.276002,8.6011423 Z"
     inkscape:connector-curvature="0" />
  <path
     style="fill:url(#c);stroke-width:0.25833583"
     id="path984"
     d="M 21.276002,8.6011423 C 20.840964,7.5543656 19.958489,6.4241463 19.267441,6.066868 a 10.402151,10.402151 0 0 1 1.013968,3.0390633 v 0.00956 l 0.0018,0.010593 A 9.0675877,9.0675877 0 0 1 19.97165,15.88363 c -1.147528,2.462198 -3.925154,4.985881 -8.272946,4.863171 -4.6978373,-0.133042 -8.8350859,-3.619026 -9.6085434,-8.184854 -0.1407929,-0.719981 0,-1.08501 0.070784,-1.67014 a 7.4597051,7.4597051 0 0 0 -0.1609432,1.381579 v 0.05166 a 10.012838,10.012838 0 0 0 19.8799896,1.693137 c 0.01679,-0.129168 0.03048,-0.257044 0.04546,-0.387504 A 10.296491,10.296491 0 0 0 21.276002,8.6011423 Z"
     inkscape:connector-curvature="0" />
  <path
     style="fill:url(#d);stroke-width:0.25833583"
     id="path986"
     d="m 16.410505,9.7781209 c 0.0217,0.015243 0.04185,0.030479 0.06226,0.045721 A 5.4508857,5.4508857 0 0 0 15.542755,8.6109587 C 12.430842,5.4985293 14.727188,1.8624526 15.114434,1.6777422 l 0.0039,-0.00568 c -2.514952,1.4725123 -3.368235,4.198472 -3.44677,5.5619687 0.116768,-0.008 0.232502,-0.017825 0.351854,-0.017825 a 5.0530489,5.0530489 0 0 1 4.387059,2.5619164 z"
     inkscape:connector-curvature="0" />
  <path
     style="fill:url(#e);stroke-width:0.25833583"
     id="path988"
     d="m 12.029904,10.399677 c -0.01653,0.249036 -0.896425,1.108002 -1.204103,1.108002 -2.8471192,0 -3.3092824,1.722325 -3.3092824,1.722325 0.1260685,1.450297 1.1366779,2.644843 2.3583479,3.276732 0.0558,0.02893 0.1123763,0.05503 0.1689515,0.0806 q 0.146994,0.0651 0.293986,0.120384 a 4.4524177,4.4524177 0 0 0 1.302788,0.251361 c 4.990273,0.234052 5.956966,-5.967557 2.355764,-7.7671258 a 3.4565333,3.4565333 0 0 1 2.414149,0.5861657 5.0530489,5.0530489 0 0 0 -4.387059,-2.5619171 c -0.118835,0 -0.235086,0.00982 -0.351854,0.017825 A 5.0083565,5.0083565 0 0 0 8.9161827,8.2960474 C 9.0688584,8.4252159 9.241169,8.5977837 9.6041302,8.9555785 10.283554,9.6249274 12.026029,10.318301 12.029904,10.399677 Z"
     inkscape:connector-curvature="0" />
  <path
     style="fill:url(#f);stroke-width:0.25833583"
     id="path990"
     d="m 12.029904,10.399677 c -0.01653,0.249036 -0.896425,1.108002 -1.204103,1.108002 -2.8471192,0 -3.3092824,1.722325 -3.3092824,1.722325 0.1260685,1.450297 1.1366779,2.644843 2.3583479,3.276732 0.0558,0.02893 0.1123763,0.05503 0.1689515,0.0806 q 0.146994,0.0651 0.293986,0.120384 a 4.4524177,4.4524177 0 0 0 1.302788,0.251361 c 4.990273,0.234052 5.956966,-5.967557 2.355764,-7.7671258 a 3.4565333,3.4565333 0 0 1 2.414149,0.5861657 5.0530489,5.0530489 0 0 0 -4.387059,-2.5619171 c -0.118835,0 -0.235086,0.00982 -0.351854,0.017825 A 5.0083565,5.0083565 0 0 0 8.9161827,8.2960474 C 9.0688584,8.4252159 9.241169,8.5977837 9.6041302,8.9555785 10.283554,9.6249274 12.026029,10.318301 12.029904,10.399677 Z"
     inkscape:connector-curvature="0" />
  <path
     style="fill:url(#g);stroke-width:0.25833583"
     id="path992"
     d="m 8.4493694,7.9630526 c 0.081117,0.051664 0.1480271,0.096618 0.2066685,0.1371764 A 4.641778,4.641778 0 0 1 8.6278808,5.6530142 7.4155301,7.4155301 0 0 0 6.217866,7.5156151 c 0.048825,-0.0013 1.5011895,-0.02738 2.2315049,0.4474375 z"
     inkscape:connector-curvature="0" />
  <path
     style="fill:url(#h);stroke-width:0.25833583"
     id="path994"
     d="m 2.0914666,12.561947 c 0.7726825,4.565828 4.9107059,8.051812 9.6085424,8.184854 4.347792,0.122969 7.125419,-2.400973 8.272946,-4.863171 a 9.0675877,9.0675877 0 0 0 0.311554,-6.7575487 v -0.00956 c 0,-0.00749 -0.0016,-0.011886 0,-0.00956 l 0.0018,0.016793 c 0.355212,2.3190797 -0.82435,4.5658267 -2.668351,6.0850997 l -0.0057,0.01292 c -3.592935,2.926169 -7.031385,1.765466 -7.7273421,1.291679 q -0.072879,-0.03487 -0.1457293,-0.07259 C 7.6443757,15.439554 6.7789504,13.530969 6.964436,11.894153 a 2.5712165,2.5712165 0 0 1 -2.3717813,-1.491889 3.7763532,3.7763532 0 0 1 3.681027,-0.147768 4.9858813,4.9858813 0 0 0 3.7593033,0.147768 C 12.029128,10.320888 10.286635,9.627256 9.6072109,8.9581664 9.244249,8.6003708 9.0719391,8.4280609 8.9192627,8.2986346 A 2.9933372,2.9933372 0 0 0 8.6609464,8.1028125 C 8.6015293,8.0622526 8.5346201,8.0183369 8.454278,7.9656362 7.7239627,7.4908151 6.2715986,7.5169071 6.2235482,7.5181986 h -0.00465 C 5.8220944,7.0152189 5.8499944,5.356703 5.8727279,5.0102746 A 1.7897506,1.7897506 0 0 0 5.5384416,5.187751 7.2915287,7.2915287 0 0 0 4.5598653,6.026051 8.7433758,8.7433758 0 0 0 3.6200396,7.1464534 v 0.00155 -0.0018 A 8.4561067,8.4561067 0 0 0 2.2766934,10.179842 c -0.00491,0.02041 -0.3606368,1.575589 -0.1852268,2.382114 z"
     inkscape:connector-curvature="0" />
  <path
     style="fill:url(#i);stroke-width:0.25833583"
     id="path996"
     d="m 15.543272,8.6109587 a 5.4508857,5.4508857 0 0 1 0.930008,1.2141786 c 0.05503,0.041593 0.106435,0.082926 0.150093,0.1229685 2.269997,2.0925202 1.080619,5.0504652 0.99201,5.2610082 1.844001,-1.519272 3.022529,-3.766019 2.668351,-6.0850992 C 19.15119,6.3004033 17.231496,5.1624346 15.663656,2.684477 15.584347,2.5591841 15.505037,2.4336327 15.427795,2.3011062 15.383624,2.2254138 15.348227,2.1572134 15.317486,2.0944379 a 1.8220425,1.8220425 0 0 1 -0.149319,-0.3965452 0.02583358,0.02583358 0 0 0 -0.02273,-0.02583 0.03565034,0.03565034 0 0 0 -0.01886,0 c -0.0013,0 -0.0034,0.0023 -0.0049,0.00285 -0.0016,5.5e-4 -0.0049,0.00285 -0.0072,0.00385 -0.387214,0.1836764 -2.683562,3.8197531 0.428868,6.9321831 z"
     inkscape:connector-curvature="0" />
  <path
     style="fill:url(#j);stroke-width:0.25833583"
     id="path998"
     d="m 16.621823,9.9468148 c -0.04366,-0.04004 -0.09507,-0.081377 -0.150093,-0.1229689 -0.02041,-0.015243 -0.04056,-0.030479 -0.06226,-0.045721 a 3.4565333,3.4565333 0 0 0 -2.414148,-0.586164 c 3.601202,1.8006011 2.635025,8.0011771 -2.355764,7.7671251 A 4.4524177,4.4524177 0 0 1 10.336771,16.707725 Q 10.189777,16.652695 10.042784,16.58734 C 9.986206,16.56151 9.9296327,16.53568 9.873832,16.50674 l 0.007,0.0044 c 0.695957,0.475079 4.133374,1.635782 7.727342,-1.29168 l 0.0057,-0.01292 c 0.08964,-0.209252 1.279021,-3.167972 -0.99201,-5.2597182 z"
     inkscape:connector-curvature="0" />
  <path
     style="fill:url(#k);stroke-width:0.25833583"
     id="path1000"
     d="m 7.5165186,13.230004 c 0,0 0.4621632,-1.722325 3.3092824,-1.722325 0.307678,0 1.188345,-0.858966 1.204103,-1.108002 a 4.9858813,4.9858813 0 0 1 -3.7593023,-0.147768 3.7763532,3.7763532 0 0 0 -3.6810279,0.147768 2.5712165,2.5712165 0 0 0 2.3717815,1.491889 c -0.1854856,1.637074 0.6799396,3.54566 2.7747848,4.546711 0.046757,0.02248 0.090676,0.04676 0.1387264,0.0682 C 8.6521629,15.874846 7.6425871,14.6803 7.5165186,13.230004 Z"
     inkscape:connector-curvature="0" />
  <path
     style="fill:url(#l);stroke-width:0.25833583"
     id="path1002"
     d="M 21.276002,8.6011423 C 20.840964,7.5543656 19.958489,6.4241463 19.267441,6.066868 a 10.402151,10.402151 0 0 1 1.013968,3.0390633 l 0.0018,0.016793 C 19.15119,6.3004033 17.231496,5.1624346 15.663656,2.684477 15.584347,2.5591841 15.505037,2.4336327 15.427795,2.3011062 15.38362,2.2254138 15.348227,2.1572134 15.317486,2.0944379 a 1.8220425,1.8220425 0 0 1 -0.149319,-0.3965452 0.02583358,0.02583358 0 0 0 -0.02273,-0.02583 0.03565034,0.03565034 0 0 0 -0.01886,0 c -0.0013,0 -0.0034,0.0023 -0.0049,0.00285 -0.0016,5.5e-4 -0.0049,0.00285 -0.0072,0.00385 l 0.0039,-0.00672 c -2.514938,1.4725149 -3.368221,4.1984745 -3.446755,5.5619712 0.116768,-0.008 0.232502,-0.017825 0.351853,-0.017825 a 5.0530489,5.0530489 0 0 1 4.387028,2.5619156 3.4565333,3.4565333 0 0 0 -2.414148,-0.5861647 c 3.601201,1.8006012 2.635025,8.0011782 -2.355764,7.7671262 a 4.4524177,4.4524177 0 0 1 -1.302788,-0.251375 q -0.146993,-0.05503 -0.293986,-0.120384 c -0.056572,-0.02583 -0.1131513,-0.05166 -0.168952,-0.0806 l 0.007,0.0044 q -0.072851,-0.03488 -0.145702,-0.07259 c 0.046757,0.02248 0.090676,0.04676 0.1387263,0.0682 -1.2227028,-0.631889 -2.2322794,-1.826435 -2.3583471,-3.276732 0,0 0.4621625,-1.722325 3.3092818,-1.722325 0.307678,0 1.188345,-0.858967 1.204104,-1.108002 C 12.025999,10.318307 10.283577,9.6246753 9.6041538,8.9555849 9.2411918,8.5977901 9.0688819,8.4254802 8.9162056,8.2960539 A 2.9933372,2.9933372 0 0 0 8.65787,8.1002354 4.641778,4.641778 0 0 1 8.6297129,5.6530201 7.4155301,7.4155301 0 0 0 6.2196981,7.515621 h -0.00465 C 5.8182179,7.0126134 5.8461179,5.3540975 5.8688519,5.0076691 a 1.7897506,1.7897506 0 0 0 -0.3342868,0.1774764 7.2915287,7.2915287 0 0 0 -0.9785763,0.8383 8.7433758,8.7433758 0 0 0 -0.9359506,1.1229859 v 0.00155 -0.0018 A 8.4561067,8.4561067 0 0 0 2.276692,10.179849 l -0.013434,0.06614 c -0.018859,0.08809 -0.1033343,0.535531 -0.1154761,0.631631 0,0.0072 0,-0.0075 0,0 a 11.649396,11.649396 0 0 0 -0.147769,1.395815 v 0.05166 a 10.012838,10.012838 0 0 0 19.8799781,1.693092 c 0.01679,-0.129168 0.03048,-0.257044 0.04546,-0.387504 A 10.296491,10.296491 0 0 0 21.276002,8.6011423 Z m -0.993302,0.5143468 0.0018,0.010593 z"
     inkscape:connector-curvature="0" />
</svg>
