<?xml version="1.0" encoding="UTF-8" standalone="no"?>
<svg
   xmlns:dc="http://purl.org/dc/elements/1.1/"
   xmlns:cc="http://creativecommons.org/ns#"
   xmlns:rdf="http://www.w3.org/1999/02/22-rdf-syntax-ns#"
   xmlns:svg="http://www.w3.org/2000/svg"
   xmlns="http://www.w3.org/2000/svg"
   xmlns:xlink="http://www.w3.org/1999/xlink"
   xmlns:sodipodi="http://sodipodi.sourceforge.net/DTD/sodipodi-0.dtd"
   xmlns:inkscape="http://www.inkscape.org/namespaces/inkscape"
   width="24"
   height="24"
   version="1.0"
   id="svg20"
   sodipodi:docname="gnome-mpv.svg"
   inkscape:version="0.92.4 5da689c313, 2019-01-14">
  <metadata
     id="metadata26">
    <rdf:RDF>
      <cc:Work
         rdf:about="">
        <dc:format>image/svg+xml</dc:format>
        <dc:type
           rdf:resource="http://purl.org/dc/dcmitype/StillImage" />
      </cc:Work>
    </rdf:RDF>
  </metadata>
  <defs
     id="defs24">
    <linearGradient
       inkscape:collect="always"
       id="linearGradient837">
      <stop
         style="stop-color:#0065e3;stop-opacity:1"
         offset="0"
         id="stop833" />
      <stop
         style="stop-color:#d90b0b;stop-opacity:1"
         offset="1"
         id="stop835" />
    </linearGradient>
    <linearGradient
       inkscape:collect="always"
       xlink:href="#linearGradient837"
       id="linearGradient839"
       x1="2"
       y1="5"
       x2="22"
       y2="21"
       gradientUnits="userSpaceOnUse" />
  </defs>
  <sodipodi:namedview
     pagecolor="#ffffff"
     bordercolor="#666666"
     borderopacity="1"
     objecttolerance="10"
     gridtolerance="10"
     guidetolerance="10"
     inkscape:pageopacity="0"
     inkscape:pageshadow="2"
     inkscape:window-width="1366"
     inkscape:window-height="709"
     id="namedview22"
     showgrid="false"
     inkscape:zoom="9.8333333"
     inkscape:cx="2.1864407"
     inkscape:cy="12"
     inkscape:window-x="0"
     inkscape:window-y="25"
     inkscape:window-maximized="1"
     inkscape:current-layer="svg20" />
  <rect
     style="opacity:0.2"
     width="21"
     height="16"
     x="1"
     y="5.5"
     rx="1.5"
     ry="1.5"
     id="rect2" />
  <rect
     style="fill:url(#linearGradient839);fill-opacity:1"
     width="21"
     height="17"
     x="1"
     y="4"
     rx="1.5"
     ry="1.5"
     id="rect4" />
  <path
     style="opacity:0.2"
     d="M 11.5,6.5 A 4.5,4.5 0 0 0 7,11 4.5,4.5 0 0 0 11.5,15.5 4.5,4.5 0 0 0 16,11 4.5,4.5 0 0 0 11.5,6.5 Z M 10,8.5 H 10.441 10.488 C 10.574,8.4992 10.656,8.5194 10.73,8.5625 L 14.146,10.563 C 14.298,10.648 14.375,10.824 14.375,11 14.375,11.176 14.298,11.352 14.146,11.438 L 10.73,13.438 C 10.656,13.481 10.574,13.501 10.488,13.5 H 10.441 10 Z"
     id="path6" />
  <path
     style="fill:#ffffff"
     d="M 11.5,6 A 4.5,4.5 0 0 0 7,10.5 4.5,4.5 0 0 0 11.5,15 4.5,4.5 0 0 0 16,10.5 4.5,4.5 0 0 0 11.5,6 Z M 10,8 H 10.441 10.488 C 10.574,7.9992 10.656,8.0194 10.73,8.0625 L 14.146,10.063 C 14.298,10.148 14.375,10.324 14.375,10.5 14.375,10.676 14.298,10.852 14.146,10.938 L 10.73,12.938 C 10.656,12.981 10.574,13.001 10.488,13 H 10.441 10 Z"
     id="path8" />
  <rect
     style="opacity:0.5;fill:#ffffff"
     width="11"
     height="1"
     x="6"
     y="17"
     rx=".5"
     ry=".5"
     id="rect10" />
  <rect
     style="opacity:0.2"
     width="3"
     height="3"
     x="7"
     y="16.5"
     rx="1.5"
     ry="1.5"
     id="rect12" />
  <rect
     style="fill:#ffffff"
     width="3"
     height="3"
     x="7"
     y="16"
     rx="1.5"
     ry="1.5"
     id="rect14" />
  <path
     style="opacity:0.3"
     d="M 2,5 V 7 H 4 V 5 Z M 19,5 V 7 H 21 V 5 Z M 2,9 V 11 H 4 V 9 Z M 19,9 V 11 H 21 V 9 Z M 2,13 V 15 H 4 V 13 Z M 19,13 V 15 H 21 V 13 Z M 2,17 V 19 H 4 V 17 Z M 19,17 V 19 H 21 V 17 Z"
     id="path16" />
  <path
     style="fill:#ffffff;opacity:0.1"
     d="M 2.5 4 C 1.669 4 1 4.669 1 5.5 L 1 6 C 1 5.169 1.669 4.5 2.5 4.5 L 20.5 4.5 C 21.331 4.5 22 5.169 22 6 L 22 5.5 C 22 4.669 21.331 4 20.5 4 L 2.5 4 z"
     id="path18" />
</svg>
