<?xml version="1.0" encoding="UTF-8" standalone="no"?>
<svg
   xmlns:dc="http://purl.org/dc/elements/1.1/"
   xmlns:cc="http://creativecommons.org/ns#"
   xmlns:rdf="http://www.w3.org/1999/02/22-rdf-syntax-ns#"
   xmlns:svg="http://www.w3.org/2000/svg"
   xmlns="http://www.w3.org/2000/svg"
   xmlns:xlink="http://www.w3.org/1999/xlink"
   xmlns:sodipodi="http://sodipodi.sourceforge.net/DTD/sodipodi-0.dtd"
   xmlns:inkscape="http://www.inkscape.org/namespaces/inkscape"
   width="24"
   height="24"
   version="1.1"
   viewBox="0 0 18 18"
   id="svg26"
   sodipodi:docname="gnome-contacts.svg"
   inkscape:version="0.92.4 5da689c313, 2019-01-14">
  <metadata
     id="metadata30">
    <rdf:RDF>
      <cc:Work
         rdf:about="">
        <dc:format>image/svg+xml</dc:format>
        <dc:type
           rdf:resource="http://purl.org/dc/dcmitype/StillImage" />
        <dc:title></dc:title>
      </cc:Work>
    </rdf:RDF>
  </metadata>
  <sodipodi:namedview
     pagecolor="#ffffff"
     bordercolor="#666666"
     borderopacity="1"
     objecttolerance="10"
     gridtolerance="10"
     guidetolerance="10"
     inkscape:pageopacity="0"
     inkscape:pageshadow="2"
     inkscape:window-width="1366"
     inkscape:window-height="712"
     id="namedview28"
     showgrid="false"
     inkscape:zoom="33.9375"
     inkscape:cx="11.741973"
     inkscape:cy="22.499763"
     inkscape:window-x="0"
     inkscape:window-y="25"
     inkscape:window-maximized="1"
     inkscape:current-layer="svg26" />
  <defs
     id="defs10">
    <linearGradient
       inkscape:collect="always"
       id="linearGradient829">
      <stop
         style="stop-color:#0066cc;stop-opacity:1;"
         offset="0"
         id="stop825" />
      <stop
         style="stop-color:#0099ff;stop-opacity:1"
         offset="1"
         id="stop827" />
    </linearGradient>
    <clipPath
       id="clipPath4">
      <rect
         width="384"
         height="384"
         id="rect2"
         x="0"
         y="0" />
    </clipPath>
    <clipPath
       id="clipPath8">
      <rect
         width="384"
         height="384"
         id="rect6"
         x="0"
         y="0" />
    </clipPath>
    <linearGradient
       inkscape:collect="always"
       xlink:href="#linearGradient829"
       id="linearGradient831"
       x1="23.758291"
       y1="40.747311"
       x2="25.647699"
       y2="2.4176376"
       gradientUnits="userSpaceOnUse"
       gradientTransform="matrix(0.33333331,0,0,0.34977638,1,1.2100631)" />
    <filter
       inkscape:collect="always"
       style="color-interpolation-filters:sRGB"
       id="filter876"
       x="-0.04730333"
       width="1.0946068"
       y="-0.048717495"
       height="1.097435">
      <feGaussianBlur
         inkscape:collect="always"
         stdDeviation="0.35885774"
         id="feGaussianBlur878" />
    </filter>
  </defs>
  <path
     d="M 3.4391415,3.4585862 H 14.561004 c 0.242448,0 0.438952,0.1964305 0.438952,0.4387073 V 16.51116 c 0,0.24243 -0.19651,0.43884 -0.438952,0.43884 H 3.4391415 c -0.2424466,0 -0.4391254,-0.19643 -0.4391254,-0.43884 V 3.8972935 c 0,-0.2422593 0.1966788,-0.4387073 0.4391254,-0.4387073 z"
     id="path12"
     style="fill:#0066cc;stroke-width:0.04043456"
     inkscape:connector-curvature="0" />
  <path
     d="M 3.4389676,2.2593923 H 14.56083 c 0.242447,0 0.438952,0.1964302 0.438952,0.4388379 V 15.312099 c 0,0.242259 -0.196509,0.438707 -0.438952,0.438707 H 3.4389676 c -0.2424467,0 -0.4389515,-0.196429 -0.4389515,-0.438707 V 2.6982302 c 0,-0.2424295 0.1965091,-0.4388379 0.4389515,-0.4388379 z"
     id="path14"
     style="fill:url(#linearGradient831);fill-opacity:1;stroke-width:0.04043456"
     inkscape:connector-curvature="0" />
  <path
     d="m 3.5515267,2.2593923 c -0.3054703,0 -0.5515106,0.1957503 -0.5515106,0.4388379 V 16.511467 c 0,0.240043 0.2398454,0.433408 0.539975,0.438358 H 5.4600446 V 2.2595231 Z"
     id="path16"
     style="fill:#000000;fill-opacity:0.19607843;stroke-width:0.04532332"
     inkscape:connector-curvature="0" />
  <path
     d="m 14.999694,15.312099 c 0,0.243111 -0.195829,0.438707 -0.43895,0.438707 H 3.4388804 c -0.051723,0 -0.1012315,-0.0092 -0.1473394,-0.02555 v 0.899354 c 0.046109,0.01635 0.095617,0.02572 0.1473394,0.02572 H 14.560743 c 0.243296,0 0.439127,-0.19575 0.439127,-0.438838 z"
     id="path18"
     inkscape:connector-curvature="0"
     style="fill:#ffffff;stroke-width:0.04043456" />
  <path
     d="m 3.0000165,14.984998 v 0.327101 c 0,0.0022 2.857e-4,0.004 3.144e-4,0.0062 l -2.542e-4,0.865932 0.2915522,0.44044 -2.339e-4,-0.89972 c 0.04618,0.01649 0.095716,0.02593 0.1475745,0.02593 H 14.560933 c 0.242449,0 0.438973,-0.196449 0.438973,-0.438706 v -0.327101 c 0,0.242257 -0.196508,0.438708 -0.438973,0.438708 H 3.4389729 C 3.1965252,15.42372 3,15.22727 3,14.985013 Z m 5.96e-5,1.19915 v 0.327101 c 0,0.242256 0.1965084,0.438706 0.4389726,0.438706 H 14.561027 C 14.803472,16.949955 15,16.753502 15,16.511249 v -0.327101 c 0,0.242257 -0.19651,0.468932 -0.438973,0.468932 H 3.4390546 c -0.050277,0 -0.1024196,-0.01088 -0.1474046,-0.02849 z"
     id="path22"
     style="opacity:0.3;fill:#000000;fill-opacity:1;stroke-width:0.04043355"
     inkscape:connector-curvature="0" />
  <path
     d="m 3.438989,2.2594138 c -0.2424477,0 -0.4389729,0.1964109 -0.4389729,0.4388382 v 0.3271006 c 0,-0.2424303 0.1965091,-0.4388384 0.4389729,-0.4388384 h 11.121972 c 0.242448,0 0.438972,0.1964115 0.438972,0.4388384 V 2.6982522 c 0,-0.2424307 -0.196507,-0.4388384 -0.438972,-0.4388384 z"
     id="path24"
     inkscape:connector-curvature="0"
     style="opacity:0.4;fill:#ffffff;stroke-width:0.04043355" />
  <path
     d="m 28.662693,13.448491 c -0.12042,-0.03619 -0.881085,-0.352461 -0.405711,-1.684842 h -0.0073 c 1.239065,-1.176723 2.185992,-3.070238 2.185992,-4.934407 6e-6,-2.866464 -2.067179,-4.369131 -4.469709,-4.369131 -2.404032,0 -4.459866,1.50196 -4.459866,4.369131 0,1.871864 0.941623,3.77304 2.188314,4.946985 0.485929,1.175326 -0.383023,1.611551 -0.564685,1.672264 -1.69385,0.505071 -6.301784,3.023148 -6.228881,6.69025 h 18.204952 c 0.08131,-3.503129 -3.56353,-5.777949 -6.443463,-6.69025 z"
     id="path34-5"
     style="opacity:0.5;fill:#000000;fill-opacity:1;stroke-width:0.07803718;filter:url(#filter876)"
     inkscape:connector-curvature="0"
     transform="matrix(0.3333333,0,0,0.34977638,0.83022634,5.5647792)" />
  <path
     d="M 10.450324,9.8354613 C 10.410194,9.8228062 10.156631,9.7121784 10.315089,9.2461434 h -0.0024 c 0.413024,-0.4115903 0.728666,-1.073897 0.728666,-1.7259392 2e-6,-1.0026217 -0.689059,-1.5282189 -1.4899022,-1.5282189 -0.801344,0 -1.4866216,0.5253499 -1.4866216,1.5282189 0,0.6547336 0.3138744,1.31972 0.7294381,1.7303387 C 8.9561755,9.661644 8.666524,9.8142249 8.6059703,9.8354613 8.0413857,10.012124 6.5054075,10.892887 6.5297087,12.175552 h 6.0683173 c 0.0271,-1.225312 -1.187845,-2.020989 -2.147822,-2.3400907 z"
     id="path34"
     style="fill:#ffffff;fill-opacity:1;stroke-width:0.02664625"
     inkscape:connector-curvature="0" />
</svg>
