<?xml version="1.0" encoding="UTF-8" standalone="no"?>
<svg
   xmlns:dc="http://purl.org/dc/elements/1.1/"
   xmlns:cc="http://creativecommons.org/ns#"
   xmlns:rdf="http://www.w3.org/1999/02/22-rdf-syntax-ns#"
   xmlns:svg="http://www.w3.org/2000/svg"
   xmlns="http://www.w3.org/2000/svg"
   xmlns:xlink="http://www.w3.org/1999/xlink"
   xmlns:sodipodi="http://sodipodi.sourceforge.net/DTD/sodipodi-0.dtd"
   xmlns:inkscape="http://www.inkscape.org/namespaces/inkscape"
   width="24"
   height="24"
   version="1"
   id="svg12"
   sodipodi:docname="inkscape.svg"
   inkscape:version="0.92.4 5da689c313, 2019-01-14">
  <metadata
     id="metadata18">
    <rdf:RDF>
      <cc:Work
         rdf:about="">
        <dc:format>image/svg+xml</dc:format>
        <dc:type
           rdf:resource="http://purl.org/dc/dcmitype/StillImage" />
        <dc:title></dc:title>
      </cc:Work>
    </rdf:RDF>
  </metadata>
  <defs
     id="defs16">
    <linearGradient
       inkscape:collect="always"
       id="linearGradient864">
      <stop
         style="stop-color:#000000;stop-opacity:1;"
         offset="0"
         id="stop860" />
      <stop
         style="stop-color:#000000;stop-opacity:0;"
         offset="1"
         id="stop862" />
    </linearGradient>
    <linearGradient
       inkscape:collect="always"
       id="linearGradient832">
      <stop
         style="stop-color:#3b3b3b;stop-opacity:1"
         offset="0"
         id="stop828" />
      <stop
         style="stop-color:#4f4f4f;stop-opacity:1"
         offset="1"
         id="stop830" />
    </linearGradient>
    <linearGradient
       inkscape:collect="always"
       xlink:href="#linearGradient832"
       id="linearGradient834"
       x1="33.372715"
       y1="59.660995"
       x2="31.996094"
       y2="4.0000463"
       gradientUnits="userSpaceOnUse"
       gradientTransform="matrix(0.34482307,0,0,0.34482307,0.96554519,0.96553146)" />
    <linearGradient
       inkscape:collect="always"
       xlink:href="#linearGradient864"
       id="linearGradient866"
       x1="33.237309"
       y1="60.338982"
       x2="33.203365"
       y2="37.966103"
       gradientUnits="userSpaceOnUse"
       gradientTransform="matrix(0.34482307,0,0,0.34482307,0.96554519,0.96553146)" />
  </defs>
  <sodipodi:namedview
     pagecolor="#ffffff"
     bordercolor="#666666"
     borderopacity="1"
     objecttolerance="10"
     gridtolerance="10"
     guidetolerance="10"
     inkscape:pageopacity="0"
     inkscape:pageshadow="2"
     inkscape:window-width="1366"
     inkscape:window-height="709"
     id="namedview14"
     showgrid="false"
     inkscape:zoom="7.375"
     inkscape:cx="28.843265"
     inkscape:cy="28.500511"
     inkscape:window-x="0"
     inkscape:window-y="25"
     inkscape:window-maximized="1"
     inkscape:current-layer="svg12" />
  <path
     style="fill:url(#linearGradient834);fill-opacity:1;fill-rule:evenodd;stroke-width:0.34482306"
     d="m 11.998536,2.0000032 c -0.569932,2.3e-4 -1.124341,0.2141971 -1.561134,0.666091 L 2.6640687,10.693987 c -0.4283143,0.443094 -0.6555312,1.027296 -0.6640511,1.605588 -1.28e-4,0.0088 0,0.03 0,0.04 -8.1e-5,1.720497 4.3471106,0.05 4.7615211,2.153131 0.2242369,1.138445 -2.3457395,0.617092 -2.3457395,1.762496 0,1.343642 4.1739209,0.247597 5.0740168,1.52679 0.689001,0.979186 -1.7515145,1.021716 -1.2048608,1.959153 0.4689237,0.80419 2.1462298,0.289096 2.4258848,1.369872 0.319425,1.234553 2.37593,1.096725 3.537803,0.117898 0.712241,-0.600092 -0.946227,-0.975787 -0.299026,-1.645318 0.647162,-0.669591 3.729589,-0.543692 3.557335,-1.996873 -0.113998,-0.961787 -1.306986,-1.067465 -1.325414,-2.153801 -0.0644,-0.919987 1.136666,-0.651591 4.451046,-1.567199 1.325276,-0.622691 1.372217,-0.953387 1.367169,-1.526779 -1.05e-4,-0.011 0,-0.027 0,-0.039 -0.0075,-0.578192 -0.274846,-1.162484 -0.70311,-1.605578 L 13.561015,2.6660742 C 13.124129,2.2141903 12.569532,2.0002332 11.999882,2.0000032 Z m 9.110871,13.7942648 c -0.153508,-0.0053 -0.308336,0.0083 -0.417554,0.042 -0.205878,0.065 -1.181524,0.102498 -1.101144,0.915887 0.883629,0.406495 2.23096,0.729791 2.391536,-0.084 0.120559,-0.609892 -0.412254,-0.855489 -0.872828,-0.874189 z M 5.4388164,18.214096 c -0.086099,0.011 -0.145508,0.05 -0.2296569,0.087 -0.672871,0.292696 -1.1236449,0.908887 -0.4950134,1.177924 0.6287316,0.268996 1.049064,-0.015 1.6001946,-0.348895 0.5512226,-0.333796 0.5362228,-0.394595 0.4963533,-0.523293 -0.076399,0.017 -0.5774723,-0.339596 -1.1051842,-0.392595 -0.087899,-0.0084 -0.1806275,-0.011 -0.2666964,0 z"
     id="path4"
     inkscape:connector-curvature="0" />
  <path
     style="opacity:0.2;fill-rule:evenodd;stroke-width:0.34482306"
     d="m 12.035652,4.7603761 c 0.586512,0.005 2.19364,1.9938332 3.627527,3.4832932 0.403325,0.5411928 -0.156008,1.0958453 -0.156008,1.0958453 L 12.503875,7.6957167 11.1777,9.4961725 10.007715,7.7352462 9.3053425,10.47474 7.2382242,9.2223662 7.7844079,8.5176157 11.021512,5.1911303 c 0.248306,-0.2530966 0.438454,-0.4349941 1.01413,-0.4304942 z"
     id="path6"
     inkscape:connector-curvature="0" />
  <path
     style="fill:#ffffff;fill-rule:evenodd;stroke-width:0.34482306"
     d="m 12.035652,4.4155408 c 0.586512,0.00499 2.19364,1.9938332 3.627527,3.4832832 0.403325,0.5411927 -0.156008,1.0958453 -0.156008,1.0958453 L 12.503875,7.3508813 11.1777,9.1513371 10.007715,7.3904008 9.3053425,10.129894 7.2382242,8.8775308 7.7844079,8.1727803 11.021512,4.846295 c 0.248306,-0.2530966 0.438454,-0.4349942 1.01413,-0.4304943 z"
     id="path8"
     inkscape:connector-curvature="0" />
  <path
     style="opacity:0.4;fill:#ffffff;fill-rule:evenodd;stroke-width:0.34482306"
     d="m 11.998536,2.0000032 c -0.569932,2.3e-4 -1.124341,0.2141971 -1.561134,0.666091 L 2.6640687,10.693987 c -0.4283143,0.443094 -0.6555312,1.027296 -0.6640511,1.605588 -1.28e-4,0.0088 0,0.03 0,0.04 -2e-6,0.046 0.00476,0.088 0.0108,0.129298 0.047299,-0.519393 0.2683564,-1.031586 0.6532812,-1.429801 L 10.437432,3.0111596 c 0.436795,-0.4517939 0.991197,-0.665791 1.561134,-0.666091 h 0.0014 c 0.569653,2.3e-4 1.124247,0.2141971 1.561133,0.666091 l 7.735613,8.0279124 c 0.408814,0.422995 0.668191,0.974587 0.69773,1.52679 0.0047,-0.072 0.0061,-0.146798 0.0054,-0.226997 -1.05e-4,-0.011 0,-0.027 0,-0.039 -0.0076,-0.578192 -0.274846,-1.162484 -0.70311,-1.605578 L 13.561015,2.6660742 C 13.124129,2.2141903 12.569532,2.0002332 11.999882,2.0000032 Z M 6.7453729,14.777992 c -0.2446367,0.76279 -2.3295767,0.443594 -2.3295767,1.47694 0,0.06 0.0112,0.112599 0.0269,0.162998 0.2637965,-0.907488 2.530033,-0.508193 2.3187999,-1.580669 -0.00407,-0.021 -0.0113,-0.039 -0.0162,-0.059 z m 9.4489581,0.800789 c -0.0118,0.06 -0.018,0.124199 -0.0128,0.198698 0.018,1.062165 1.155985,1.189184 1.313292,2.093181 0.0183,-0.088 0.0243,-0.181597 0.0121,-0.284196 -0.108598,-0.916087 -1.193774,-1.057496 -1.312617,-2.007653 z m 4.915076,0.215497 c -0.153508,-0.0053 -0.308336,0.0083 -0.417554,0.042 -0.205878,0.065 -1.181524,0.102498 -1.101144,0.915887 0.0115,0.0053 0.0247,0.01 0.0364,0.015 0.175358,-0.494693 0.891508,-0.531793 1.064776,-0.586592 0.109218,-0.033 0.264056,-0.047 0.417554,-0.042 0.367305,0.015 0.77493,0.177697 0.866098,0.550892 0.0017,-0.0076 0.0052,-0.014 0.0067,-0.022 0.120559,-0.609892 -0.412254,-0.855489 -0.872828,-0.874189 z M 5.4388164,18.214096 c -0.086099,0.011 -0.145508,0.05 -0.2296569,0.087 -0.5381728,0.234097 -0.9321875,0.674391 -0.74757,0.979287 0.1056186,-0.235897 0.3927748,-0.480094 0.74757,-0.634392 0.084099,-0.037 0.1435581,-0.076 0.2296569,-0.087 0.086099,-0.011 0.1787576,-0.0084 0.2666964,0 0.3870148,0.039 0.7563399,0.239797 0.9576872,0.338096 0.1795376,-0.139098 0.1752776,-0.200598 0.147488,-0.290296 -0.076399,0.017 -0.5774723,-0.339596 -1.1051842,-0.392595 -0.087899,-0.0084 -0.1806275,-0.011 -0.2666964,0 z m 4.1318155,0.061 c -0.2494366,0.516092 -1.5925416,0.70519 -1.3227202,1.377271 0.2585565,-0.513894 1.6067464,-0.701391 1.3227202,-1.377272 z m 4.2725731,1.802246 c -0.200158,0.392095 0.353535,0.685991 0.532052,1.006176 0.224107,-0.363995 -0.362245,-0.654091 -0.532052,-1.006176 z"
     id="path10"
     inkscape:connector-curvature="0" />
  <path
     inkscape:connector-curvature="0"
     style="opacity:0.4;fill:none;fill-opacity:1;fill-rule:evenodd;stroke:url(#linearGradient866);stroke-width:0.33896106;stroke-miterlimit:4;stroke-dasharray:none;stroke-opacity:1"
     d="m 11.998486,2.1694909 c -0.560262,2.3e-4 -1.105268,0.2105972 -1.534649,0.6547912 L 2.8223706,10.716137 c -0.4210444,0.435594 -0.6444114,1.009886 -0.6527913,1.578368 -1.26e-4,0.0087 0,0.03 0,0.039 -7.9e-5,1.691337 4.2733656,0.049 4.6807462,2.116631 0.220437,1.119155 -2.3059461,0.606592 -2.3059461,1.732627 0,1.320872 4.1031139,0.243397 4.98794,1.50091 0.6773106,0.962587 -1.7218018,1.004406 -1.1844211,1.925964 0.4609739,0.790489 2.1098207,0.284196 2.3847307,1.346642 0.314006,1.213634 2.335624,1.078136 3.477788,0.115898 0.70015,-0.589892 -0.930178,-0.959287 -0.293956,-1.617428 0.636181,-0.658191 3.666319,-0.534493 3.496987,-1.963033 -0.112069,-0.945388 -1.284815,-1.049366 -1.30293,-2.117292 -0.0633,-0.904388 1.117383,-0.640591 4.375537,-1.540629 1.302795,-0.612092 1.348939,-0.937188 1.343977,-1.50091 -1.03e-4,-0.011 0,-0.026 0,-0.038 -0.0074,-0.568392 -0.270186,-1.142784 -0.69119,-1.578368 L 13.53446,2.8242721 C 13.104986,2.3800781 12.559793,2.1696809 11.99981,2.1694809 Z m 8.956313,13.5604781 c -0.150898,-0.0052 -0.303106,0.0081 -0.410474,0.041 -0.202388,0.064 -1.16148,0.100798 -1.082464,0.900388 0.868639,0.399594 2.193115,0.71739 2.350967,-0.082 0.118508,-0.599592 -0.405255,-0.840989 -0.858029,-0.859389 z M 5.5500469,18.108777 c -0.084599,0.011 -0.1430381,0.049 -0.2257569,0.085 -0.6614612,0.287796 -1.1045832,0.893488 -0.4866135,1.157965 0.6180617,0.264496 1.0312671,-0.015 1.5730489,-0.342996 0.5418727,-0.328095 0.5271229,-0.387895 0.4879334,-0.514393 -0.075099,0.017 -0.5676724,-0.333795 -1.0864364,-0.385995 -0.086399,-0.0083 -0.1775576,-0.011 -0.2621765,0 z"
     id="path4-7" />
</svg>
