<?xml version="1.0" encoding="UTF-8" standalone="no"?>
<svg
   xmlns:dc="http://purl.org/dc/elements/1.1/"
   xmlns:cc="http://creativecommons.org/ns#"
   xmlns:rdf="http://www.w3.org/1999/02/22-rdf-syntax-ns#"
   xmlns:svg="http://www.w3.org/2000/svg"
   xmlns="http://www.w3.org/2000/svg"
   xmlns:xlink="http://www.w3.org/1999/xlink"
   xmlns:sodipodi="http://sodipodi.sourceforge.net/DTD/sodipodi-0.dtd"
   xmlns:inkscape="http://www.inkscape.org/namespaces/inkscape"
   width="24"
   height="24"
   version="1.1"
   viewBox="0 0 18 18"
   id="svg46"
   sodipodi:docname="internet-mail.svg"
   inkscape:version="0.92.4 5da689c313, 2019-01-14">
  <metadata
     id="metadata52">
    <rdf:RDF>
      <cc:Work
         rdf:about="">
        <dc:format>image/svg+xml</dc:format>
        <dc:type
           rdf:resource="http://purl.org/dc/dcmitype/StillImage" />
        <dc:title />
      </cc:Work>
    </rdf:RDF>
  </metadata>
  <defs
     id="defs50">
    <linearGradient
       inkscape:collect="always"
       id="linearGradient860">
      <stop
         style="stop-color:#ffb401;stop-opacity:1"
         offset="0"
         id="stop856" />
      <stop
         style="stop-color:#fff000;stop-opacity:1"
         offset="1"
         id="stop858" />
    </linearGradient>
    <linearGradient
       inkscape:collect="always"
       xlink:href="#linearGradient860"
       id="linearGradient862"
       x1="40.861511"
       y1="335.50354"
       x2="159.60968"
       y2="108.41605"
       gradientUnits="userSpaceOnUse"
       gradientTransform="matrix(0.04478564,0,0,0.04444391,-9.1728013,358.60066)" />
    <filter
       inkscape:collect="always"
       style="color-interpolation-filters:sRGB"
       id="filter1136"
       x="-0.032304514"
       width="1.0646091"
       y="-0.093359873"
       height="1.1867197">
      <feGaussianBlur
         inkscape:collect="always"
         stdDeviation="0.55782328"
         id="feGaussianBlur1138" />
    </filter>
  </defs>
  <sodipodi:namedview
     pagecolor="#ffffff"
     bordercolor="#666666"
     borderopacity="1"
     objecttolerance="10"
     gridtolerance="10"
     guidetolerance="10"
     inkscape:pageopacity="0"
     inkscape:pageshadow="2"
     inkscape:window-width="1366"
     inkscape:window-height="691"
     id="namedview48"
     showgrid="false"
     inkscape:zoom="21.583333"
     inkscape:cx="12"
     inkscape:cy="12"
     inkscape:window-x="0"
     inkscape:window-y="0"
     inkscape:window-maximized="1"
     inkscape:current-layer="g44"
     showguides="true"
     inkscape:guide-bbox="true">
    <sodipodi:guide
       position="10.642556,35.66695"
       orientation="1,0"
       id="guide1181"
       inkscape:locked="false" />
  </sodipodi:namedview>
  <g
     transform="translate(9.9848,-357.7681)"
     id="g44">
    <path
       d="m -8.4848,373.73469 v 0.31444 c 0,0.16738 0.040636,0.29443 0.117818,0.37501 0.091729,0.0973 0.2253071,0.14396 0.4059519,0.14396 l 13.8669114,-1.7e-4 c 0.1414136,0 0.2552,-0.0285 0.3416315,-0.0869 l 2.55e-4,1.7e-4 c 0.1204828,-0.0817 0.1819678,-0.22568 0.1819678,-0.43205 v -0.31438 c -1.28e-5,0.20634 -0.0615,0.3503 -0.1819678,0.43199 l -2.55e-4,-1.7e-4 c -0.086419,0.0584 -0.2002036,0.0869 -0.3416315,0.0869 l -13.8669114,1.7e-4 c -0.1806448,0 -0.3142234,-0.0467 -0.4059519,-0.14396 -0.077183,-0.0806 -0.117818,-0.20762 -0.117818,-0.375 z"
       id="path42"
       inkscape:connector-curvature="0"
       style="opacity:0.2;stroke-width:0.04055006" />
    <path
       style="fill:#996600;fill-opacity:1;stroke:none;stroke-width:0.0322399px;stroke-linecap:butt;stroke-linejoin:miter;stroke-opacity:1"
       d="m -8.4674051,364.25094 7.4508135,-4.98284 7.4417294,4.9827 -7.618484,5.12141 z"
       id="path1151"
       inkscape:connector-curvature="0"
       sodipodi:nodetypes="ccccc" />
    <path
       d="m 4.7636442,361.52396 c 0,-0.3367 -0.1644214,-0.50499 -0.4934364,-0.50499 H -6.2399486 c -0.3293116,0 -0.4934373,0.16796 -0.4934373,0.50499 v 9.61842 c 0,0.91656 0.1641128,1.37485 0.4934373,1.37485 H 4.2702078 c 0.3293107,0 0.4934364,-0.45829 0.4934364,-1.37485 z"
       id="path8"
       inkscape:connector-curvature="0"
       style="opacity:1;fill:#ffffff;stroke:#000000;stroke-width:0.28744105;stroke-miterlimit:4;stroke-dasharray:none;stroke-opacity:0.19607843" />
    <path
       style="opacity:0.4;fill:none;stroke:#000000;stroke-width:0.75px;stroke-linecap:butt;stroke-linejoin:miter;stroke-opacity:1;filter:url(#filter1136)"
       d="M -6.3541818,345.04763 13.431407,359.42484 34.308989,345.70723"
       id="path1098"
       inkscape:connector-curvature="0"
       transform="matrix(0.33755078,0,0,0.33013307,-5.7344039,250.63784)"
       sodipodi:nodetypes="ccc" />
    <g
       id="g1291"
       style="opacity:0.4"
       transform="matrix(0.35710472,0,0,0.35714268,-5.989765,241.1367)">
      <path
         sodipodi:nodetypes="cc"
         inkscape:connector-curvature="0"
         id="path1146-7-9-3"
         d="M 0.657756,355.6741 27.218999,355.632"
         style="fill:none;stroke:#000000;stroke-width:0.75px;stroke-linecap:butt;stroke-linejoin:miter;stroke-opacity:1" />
      <path
         inkscape:connector-curvature="0"
         id="path1146"
         d="m 0.65775625,340.10115 5.53700625,-0.0719"
         style="fill:none;stroke:#000000;stroke-width:0.75px;stroke-linecap:butt;stroke-linejoin:miter;stroke-opacity:1" />
      <path
         sodipodi:nodetypes="cc"
         inkscape:connector-curvature="0"
         id="path1146-6"
         d="m 0.657756,341.74951 3.0454806,-0.0719"
         style="fill:none;stroke:#000000;stroke-width:0.75px;stroke-linecap:butt;stroke-linejoin:miter;stroke-opacity:1" />
      <path
         sodipodi:nodetypes="cc"
         inkscape:connector-curvature="0"
         id="path1146-7"
         d="M 0.657756,346.16567 27.219,346.12359"
         style="fill:none;stroke:#000000;stroke-width:0.75px;stroke-linecap:butt;stroke-linejoin:miter;stroke-opacity:1" />
      <path
         sodipodi:nodetypes="cc"
         inkscape:connector-curvature="0"
         id="path1146-7-1"
         d="M 0.657756,348.4546 27.219,348.4125"
         style="fill:none;stroke:#000000;stroke-width:0.75px;stroke-linecap:butt;stroke-linejoin:miter;stroke-opacity:1" />
      <path
         sodipodi:nodetypes="cc"
         inkscape:connector-curvature="0"
         id="path1146-7-4"
         d="M 0.657756,350.7241 27.219,350.682"
         style="fill:none;stroke:#000000;stroke-width:0.75px;stroke-linecap:butt;stroke-linejoin:miter;stroke-opacity:1" />
      <path
         sodipodi:nodetypes="cc"
         inkscape:connector-curvature="0"
         id="path1146-7-9"
         d="M 0.657756,353.29285 27.219,353.25075"
         style="fill:none;stroke:#000000;stroke-width:0.75px;stroke-linecap:butt;stroke-linejoin:miter;stroke-opacity:1" />
    </g>
    <path
       inkscape:connector-curvature="0"
       style="fill:#f4ac00;fill-opacity:1;stroke-width:0.04074961"
       id="path36"
       d="m 6.4998163,364.25081 v -0.0234 l -7.6931617,5.14483 7.5100017,4.80883 c 0.1214879,-0.0817 0.1834864,-0.22568 0.1834864,-0.43205 z" />
    <path
       style="opacity:0.38999999;fill:none;stroke:#ffffff;stroke-width:0.32239902;stroke-linecap:butt;stroke-linejoin:miter;stroke-miterlimit:4;stroke-dasharray:none;stroke-opacity:1"
       d="m 6.4251378,364.43468 -7.6120643,5.12783"
       id="path1149"
       inkscape:connector-curvature="0"
       sodipodi:nodetypes="cc" />
    <path
       inkscape:connector-curvature="0"
       id="path38"
       style="fill:url(#linearGradient862);fill-opacity:1;stroke-width:0.04001646;paint-order:markers fill stroke"
       d="m 5.9020413,374.26757 c 0.1412722,0 0.2549786,-0.0285 0.3412893,-0.087 L -8.4674051,364.2509 v 9.49811 c 0,0.16738 0.040598,0.29446 0.1176698,0.37504 0.091596,0.0973 0.2249404,0.14397 0.4053234,0.14397 z" />
    <path
       style="opacity:0.4;fill:none;stroke:#ffffff;stroke-width:0.32239902;stroke-linecap:butt;stroke-linejoin:miter;stroke-miterlimit:4;stroke-dasharray:none;stroke-opacity:1"
       d="m -8.3741318,364.50546 14.178381,9.56826"
       id="path836-9"
       inkscape:connector-curvature="0"
       sodipodi:nodetypes="cc" />
  </g>
</svg>
