<?xml version="1.0" encoding="UTF-8" standalone="no"?>
<svg
   xmlns:dc="http://purl.org/dc/elements/1.1/"
   xmlns:cc="http://creativecommons.org/ns#"
   xmlns:rdf="http://www.w3.org/1999/02/22-rdf-syntax-ns#"
   xmlns:svg="http://www.w3.org/2000/svg"
   xmlns="http://www.w3.org/2000/svg"
   xmlns:xlink="http://www.w3.org/1999/xlink"
   xmlns:sodipodi="http://sodipodi.sourceforge.net/DTD/sodipodi-0.dtd"
   xmlns:inkscape="http://www.inkscape.org/namespaces/inkscape"
   width="24"
   height="24"
   version="1"
   id="svg14"
   sodipodi:docname="krfb.svg"
   inkscape:version="0.92.4 5da689c313, 2019-01-14">
  <metadata
     id="metadata20">
    <rdf:RDF>
      <cc:Work
         rdf:about="">
        <dc:format>image/svg+xml</dc:format>
        <dc:type
           rdf:resource="http://purl.org/dc/dcmitype/StillImage" />
        <dc:title></dc:title>
      </cc:Work>
    </rdf:RDF>
  </metadata>
  <defs
     id="defs18">
    <linearGradient
       inkscape:collect="always"
       id="linearGradient831">
      <stop
         style="stop-color:#ff2525;stop-opacity:1"
         offset="0"
         id="stop827" />
      <stop
         style="stop-color:#4545ff;stop-opacity:1"
         offset="1"
         id="stop829" />
    </linearGradient>
    <linearGradient
       inkscape:collect="always"
       xlink:href="#linearGradient831"
       id="linearGradient833"
       x1="14.546678"
       y1="56.928509"
       x2="87.421364"
       y2="1.1269988"
       gradientUnits="userSpaceOnUse"
       gradientTransform="matrix(0.35714284,0,0,0.35714284,0.57141789,0.57142848)" />
  </defs>
  <sodipodi:namedview
     pagecolor="#ffffff"
     bordercolor="#666666"
     borderopacity="1"
     objecttolerance="10"
     gridtolerance="10"
     guidetolerance="10"
     inkscape:pageopacity="0"
     inkscape:pageshadow="2"
     inkscape:window-width="1366"
     inkscape:window-height="714"
     id="namedview16"
     showgrid="false"
     inkscape:zoom="5.2149125"
     inkscape:cx="35.970926"
     inkscape:cy="18.161626"
     inkscape:window-x="0"
     inkscape:window-y="19"
     inkscape:window-maximized="1"
     inkscape:current-layer="svg14" />
  <rect
     style="fill:url(#linearGradient833);fill-opacity:1;stroke-width:0.35714287"
     width="20"
     height="20"
     x="1.9999892"
     y="2"
     rx="10"
     ry="10"
     id="rect4" />
  <path
     style="opacity:0.2;fill:#ffffff;stroke-width:0.35714287"
     d="m 11.999989,2.0006976 c -5.5398435,0 -9.9999998,4.4594588 -9.9999998,9.9993014 0,0.04052 0.00403,0.08004 0.00628,0.119979 0.1259085,-5.4287196 4.5336543,-9.7621375 9.9937208,-9.7621375 5.460067,0 9.867813,4.3334179 9.993721,9.7621375 0.0023,-0.03994 0.0063,-0.07946 0.0063,-0.119979 0,-5.5398426 -4.460156,-9.9993014 -10,-9.9993014 z"
     id="path6"
     inkscape:connector-curvature="0" />
  <path
     style="opacity:0.7;fill:none;stroke:#000000;stroke-width:1.42857146"
     d="M 14.142503,8.4289741 8.4283794,12.000302 14.142503,15.57163"
     id="path8"
     inkscape:connector-curvature="0" />
  <path
     style="opacity:0.2;fill-rule:evenodd;stroke-width:0.35714287"
     d="M 14.142503,6.6431796 A 2.1427966,2.1427966 0 0 0 11.999707,8.7859763 2.1427966,2.1427966 0 0 0 14.142503,10.928772 2.1427966,2.1427966 0 0 0 16.2853,8.7859763 2.1427966,2.1427966 0 0 0 14.142503,6.6431796 Z M 8.4283794,10.214507 A 2.1427966,2.1427966 0 0 0 6.2855822,12.357304 2.1427966,2.1427966 0 0 0 8.4283794,14.5001 2.1427966,2.1427966 0 0 0 10.571176,12.357304 2.1427966,2.1427966 0 0 0 8.4283794,10.214507 Z m 5.7141236,3.571328 a 2.1427966,2.1427966 0 0 0 -2.142796,2.142797 2.1427966,2.1427966 0 0 0 2.142796,2.142796 2.1427966,2.1427966 0 0 0 2.142797,-2.142796 2.1427966,2.1427966 0 0 0 -2.142797,-2.142797 z"
     id="path10"
     inkscape:connector-curvature="0" />
  <path
     style="fill:#ffffff;fill-rule:evenodd;stroke-width:0.35714287"
     d="M 14.142503,6.2861772 A 2.1427966,2.1427966 0 0 0 11.999707,8.4289741 2.1427966,2.1427966 0 0 0 14.142503,10.571771 2.1427966,2.1427966 0 0 0 16.2853,8.4289741 2.1427966,2.1427966 0 0 0 14.142503,6.2861772 Z M 8.4283794,9.8575049 A 2.1427966,2.1427966 0 0 0 6.2855822,12.000302 2.1427966,2.1427966 0 0 0 8.4283794,14.143099 2.1427966,2.1427966 0 0 0 10.571176,12.000302 2.1427966,2.1427966 0 0 0 8.4283794,9.8575049 Z m 5.7141236,3.5713281 a 2.1427966,2.1427966 0 0 0 -2.142796,2.142797 2.1427966,2.1427966 0 0 0 2.142796,2.142796 2.1427966,2.1427966 0 0 0 2.142797,-2.142796 2.1427966,2.1427966 0 0 0 -2.142797,-2.142797 z"
     id="path12"
     inkscape:connector-curvature="0" />
  <path
     style="opacity:0.2;stroke-width:0.35714287"
     d="m 2.0181314,11.643149 c -0.00421,0.119282 -0.018142,0.236421 -0.018142,0.357133 -2e-7,5.539843 4.4598742,9.999717 9.9997176,9.999717 5.539844,0 9.999718,-4.459874 9.999718,-9.999717 0,-0.120597 -0.01394,-0.237594 -0.01814,-0.357133 -0.188566,5.371991 -4.562729,9.642585 -9.981861,9.642585 -5.4192758,0 -9.793295,-4.270594 -9.9818611,-9.642585 z"
     id="path2"
     inkscape:connector-curvature="0" />
</svg>
