<?xml version="1.0" encoding="UTF-8" standalone="no"?>
<svg
   xmlns:dc="http://purl.org/dc/elements/1.1/"
   xmlns:cc="http://creativecommons.org/ns#"
   xmlns:rdf="http://www.w3.org/1999/02/22-rdf-syntax-ns#"
   xmlns:svg="http://www.w3.org/2000/svg"
   xmlns="http://www.w3.org/2000/svg"
   xmlns:xlink="http://www.w3.org/1999/xlink"
   xmlns:sodipodi="http://sodipodi.sourceforge.net/DTD/sodipodi-0.dtd"
   xmlns:inkscape="http://www.inkscape.org/namespaces/inkscape"
   viewBox="0 0 24 24"
   version="1.1"
   id="svg14"
   sodipodi:docname="maps.svg"
   inkscape:version="0.92.4 5da689c313, 2019-01-14"
   width="24"
   height="24">
  <metadata
     id="metadata20">
    <rdf:RDF>
      <cc:Work
         rdf:about="">
        <dc:format>image/svg+xml</dc:format>
        <dc:type
           rdf:resource="http://purl.org/dc/dcmitype/StillImage" />
        <dc:title />
      </cc:Work>
    </rdf:RDF>
  </metadata>
  <defs
     id="defs18">
    <linearGradient
       inkscape:collect="always"
       id="linearGradient854">
      <stop
         style="stop-color:#ffffff;stop-opacity:1"
         offset="0"
         id="stop850" />
      <stop
         style="stop-color:#ffffff;stop-opacity:0"
         offset="1"
         id="stop852" />
    </linearGradient>
    <linearGradient
       inkscape:collect="always"
       id="linearGradient831">
      <stop
         style="stop-color:#f60000;stop-opacity:1;"
         offset="0"
         id="stop827" />
      <stop
         style="stop-color:#ce0000;stop-opacity:1"
         offset="1"
         id="stop829" />
    </linearGradient>
    <linearGradient
       inkscape:collect="always"
       xlink:href="#linearGradient831"
       id="linearGradient833"
       x1="35.260868"
       y1="4"
       x2="35.260868"
       y2="34.692307"
       gradientUnits="userSpaceOnUse"
       gradientTransform="matrix(0.36000004,0,0,0.34716796,0.47999993,0.61132775)" />
    <linearGradient
       inkscape:collect="always"
       xlink:href="#linearGradient854"
       id="linearGradient856"
       x1="46.86578"
       y1="-20.338984"
       x2="46.964725"
       y2="-16"
       gradientUnits="userSpaceOnUse"
       gradientTransform="matrix(0.35225863,0,0,0.35034895,-4.2397185,12.65329)" />
  </defs>
  <sodipodi:namedview
     pagecolor="#ffffff"
     bordercolor="#666666"
     borderopacity="1"
     objecttolerance="10"
     gridtolerance="10"
     guidetolerance="10"
     inkscape:pageopacity="0"
     inkscape:pageshadow="2"
     inkscape:window-width="1366"
     inkscape:window-height="691"
     id="namedview16"
     showgrid="false"
     inkscape:zoom="14.75"
     inkscape:cx="0.31393193"
     inkscape:cy="9.9910943"
     inkscape:window-x="0"
     inkscape:window-y="0"
     inkscape:window-maximized="1"
     inkscape:current-layer="svg14" />
  <path
     d="m 7.8913041,17.513522 -4.891304,2.804049 v 1.458105 L 7.8913041,20.878382 16.108694,22 21,21.102706 v -7.514852 l -4.891306,2.804049"
     style="opacity:0.2;fill:#000000;fill-opacity:1;fill-rule:evenodd;stroke:none;stroke-width:0.3824895"
     id="path8-5"
     inkscape:connector-curvature="0" />
  <path
     d="M 7.8913042,4.6171122 3.0000001,5.5144079 V 21.21708 L 7.8913043,20.319786 16.108694,21.441404 21,20.54411 V 4.8414359 l -4.891306,0.8972962 z"
     style="fill:#2ecc71;fill-opacity:1;fill-rule:evenodd;stroke:none;stroke-width:0.3824895"
     id="path4"
     inkscape:connector-curvature="0" />
  <path
     d="M 5.4460433,5.0848272 3.4891305,5.4583268 7.8913042,9.6643997 10.396435,14.930964 7.8913042,15.272497 3,18.076546 v 1.962834 h 18 v -8.692553 l -4.891306,2.80405 -4.71326,0.642688 L 7.8883695,7.4211609 5.4431089,5.0848272 Z"
     style="fill:#f1c40f;fill-opacity:1;fill-rule:evenodd;stroke:none;stroke-width:0.3824895"
     id="path6"
     inkscape:connector-curvature="0" />
  <path
     d="M 7.9796573,4.8291358 3.1935354,5.7346525 V 21.581206 l 4.7861219,-0.905518 8.0406837,1.131896 4.786123,-0.905517 V 5.0555145 l -4.786123,0.9055173 z"
     style="opacity:0.4;fill:none;fill-opacity:1;fill-rule:evenodd;stroke:url(#linearGradient856);stroke-width:0.38010934;stroke-miterlimit:4;stroke-dasharray:none;stroke-opacity:1"
     id="path4-2"
     inkscape:connector-curvature="0" />
  <path
     d="M 7.8913042,16.954926 3.0000001,19.758975 V 21.21708 L 7.8913043,20.319786 16.108694,21.441404 21,20.54411 v -7.514852 l -4.891306,2.804049"
     style="fill:#3498db;fill-opacity:1;fill-rule:evenodd;stroke:none;stroke-width:0.3824895"
     id="path8"
     inkscape:connector-curvature="0" />
  <path
     d="M 16.108694,5.7387321 21,4.8414359 V 20.54411 l -4.891306,0.897294 z M 7.8913042,20.319786 3.0000001,21.21708 V 5.5144079 L 7.8913042,4.6171122 Z"
     style="opacity:0.15;fill:#000000;fill-opacity:1;fill-rule:evenodd;stroke:none;stroke-width:0.3824895"
     id="path10"
     inkscape:connector-curvature="0"
     sodipodi:nodetypes="cccccccccc" />
  <path
     d="m 13.173913,1.9999998 c -1.945174,0 -3.5217386,1.5067089 -3.5217386,3.3648587 7.615e-4,0.5406207 0.1373473,1.0733898 0.3991296,1.553443 1.037738,1.910118 2.081739,3.8258435 3.122609,5.7370835 L 16.29652,6.9183015 c 0.262568,-0.4793051 0.397957,-1.0120748 0.399132,-1.553443 0,-1.8585235 -1.576956,-3.3648587 -3.521739,-3.3648587 m 0,2.2432392 A 1.1739131,1.1216196 0 0 1 14.347826,5.3648585 1.1739131,1.1216196 0 0 1 13.173913,6.4864783 1.1739131,1.1216196 0 0 1 12,5.3648585 1.1739131,1.1216196 0 0 1 13.173913,4.243239 Z"
     style="opacity:1;fill:url(#linearGradient833);fill-opacity:1;fill-rule:nonzero;stroke:none;stroke-width:0.3824895"
     id="path12"
     inkscape:connector-curvature="0" />
</svg>
