<?xml version="1.0" encoding="UTF-8" standalone="no"?>
<svg
   xmlns:dc="http://purl.org/dc/elements/1.1/"
   xmlns:cc="http://creativecommons.org/ns#"
   xmlns:rdf="http://www.w3.org/1999/02/22-rdf-syntax-ns#"
   xmlns:svg="http://www.w3.org/2000/svg"
   xmlns="http://www.w3.org/2000/svg"
   xmlns:xlink="http://www.w3.org/1999/xlink"
   xmlns:sodipodi="http://sodipodi.sourceforge.net/DTD/sodipodi-0.dtd"
   xmlns:inkscape="http://www.inkscape.org/namespaces/inkscape"
   width="24"
   height="24"
   version="1"
   id="svg22"
   sodipodi:docname="multimedia-audio-player.svg"
   inkscape:version="0.92.4 5da689c313, 2019-01-14">
  <metadata
     id="metadata28">
    <rdf:RDF>
      <cc:Work
         rdf:about="">
        <dc:format>image/svg+xml</dc:format>
        <dc:type
           rdf:resource="http://purl.org/dc/dcmitype/StillImage" />
        <dc:title />
      </cc:Work>
    </rdf:RDF>
  </metadata>
  <defs
     id="defs26">
    <linearGradient
       id="linearGradient910"
       inkscape:collect="always">
      <stop
         id="stop906"
         offset="0"
         style="stop-color:#ffffff;stop-opacity:1" />
      <stop
         id="stop908"
         offset="1"
         style="stop-color:#ffffff;stop-opacity:0" />
    </linearGradient>
    <linearGradient
       inkscape:collect="always"
       id="linearGradient2344">
      <stop
         style="stop-color:#ff9900;stop-opacity:1"
         offset="0"
         id="stop2340" />
      <stop
         style="stop-color:#ff6600;stop-opacity:1"
         offset="1"
         id="stop2342" />
    </linearGradient>
    <linearGradient
       inkscape:collect="always"
       xlink:href="#linearGradient2344"
       id="linearGradient2346"
       x1="-63.451641"
       y1="0.026913203"
       x2="-0.16484457"
       y2="-63.831791"
       gradientUnits="userSpaceOnUse"
       gradientTransform="matrix(0.35714284,0,0,0.35714284,23.428571,23.42857)" />
    <linearGradient
       gradientTransform="matrix(0.35714284,0,0,0.35714284,23.428571,-0.57142901)"
       inkscape:collect="always"
       xlink:href="#linearGradient910"
       id="linearGradient880-4"
       x1="-60.000004"
       y1="-32.000004"
       x2="-51.230232"
       y2="-31.728817"
       gradientUnits="userSpaceOnUse" />
  </defs>
  <sodipodi:namedview
     pagecolor="#ffffff"
     bordercolor="#666666"
     borderopacity="1"
     objecttolerance="10"
     gridtolerance="10"
     guidetolerance="10"
     inkscape:pageopacity="0"
     inkscape:pageshadow="2"
     inkscape:window-width="1366"
     inkscape:window-height="691"
     id="namedview24"
     showgrid="false"
     inkscape:zoom="14.75"
     inkscape:cx="7.5610667"
     inkscape:cy="11.122676"
     inkscape:window-x="0"
     inkscape:window-y="0"
     inkscape:window-maximized="1"
     inkscape:current-layer="svg22" />
  <rect
     style="opacity:0.2;fill:#000000;fill-opacity:1;stroke-width:0.49999997"
     width="20"
     height="20"
     x="3"
     y="2"
     rx="10"
     ry="10"
     transform="matrix(0,1,1,0,0,0)"
     id="rect8-4" />
  <rect
     style="fill:url(#linearGradient2346);fill-opacity:1;stroke-width:0.49999997"
     width="20"
     height="20"
     x="2"
     y="1.9999998"
     rx="10"
     ry="10"
     transform="matrix(0,1,1,0,0,0)"
     id="rect8" />
  <circle
     style="opacity:0.2;fill:#ffffff;fill-opacity:1;stroke:none;stroke-width:0.29971257;stroke-miterlimit:4;stroke-dasharray:none;stroke-opacity:0"
     id="path829-1-7"
     cx="12.000001"
     cy="12"
     r="5" />
  <circle
     style="opacity:0.2;fill:#ffffff;fill-opacity:1;stroke:none;stroke-width:0.51379293;stroke-miterlimit:4;stroke-dasharray:none;stroke-opacity:0"
     id="path829"
     cx="12.000001"
     cy="12"
     r="8.5714283" />
  <circle
     style="opacity:0.2;fill:#ffffff;fill-opacity:1;stroke:none;stroke-width:0.40675277;stroke-miterlimit:4;stroke-dasharray:none;stroke-opacity:0"
     id="path829-1"
     cx="12.000001"
     cy="12"
     r="6.7857141" />
  <path
     style="opacity:0.2;fill:#ffffff;fill-opacity:1;stroke:none;stroke-width:0.73515248;stroke-miterlimit:4;stroke-dasharray:none;stroke-opacity:1"
     id="path2348"
     r="24"
     cy="32"
     cx="32"
     d=""
     inkscape:connector-curvature="0" />
  <path
     style="color:#4d4d4d;opacity:0.2;fill:#000000;fill-opacity:1;stroke:none;stroke-width:0.54253846"
     class="ColorScheme-Text"
     d="m 15.045156,8.6181322 -4.053585,1.0209493 c -0.304544,0.079485 -0.550245,0.3955195 -0.550245,0.7026335 v 4.86947 C 10.13251,15.053677 9.7358707,14.990015 9.3246864,15.094083 8.5826985,15.281877 8.1182085,15.888625 8.2772599,16.449311 8.436312,17.010009 9.1675507,17.322712 9.9095364,17.134913 10.50149,16.9851 10.909191,16.562043 10.974267,16.115038 l 0.01731,-4.602265 3.848254,-1.003915 v 3.631344 c -0.308819,-0.157514 -0.705457,-0.221177 -1.116639,-0.117102 -0.741989,0.187789 -1.207632,0.794531 -1.048581,1.355228 0.159052,0.560692 0.890293,0.873401 1.632278,0.685606 0.591954,-0.149828 0.999653,-0.572868 1.06473,-1.019885 l 0.01731,-5.990494 c 4e-6,-0.2303371 -0.146323,-0.4030228 -0.343756,-0.4354228 z"
     id="path4-7"
     inkscape:connector-curvature="0" />
  <path
     style="color:#4d4d4d;fill:#ffffff;fill-opacity:1;stroke:none;stroke-width:0.54253846"
     class="ColorScheme-Text"
     d="m 14.513368,7.7142855 -4.053585,1.0209488 c -0.304544,0.079486 -0.5502459,0.39552 -0.5502459,0.7026343 V 14.30734 C 9.6007221,14.14983 9.2040828,14.086167 8.7928978,14.190236 8.0509099,14.37803 7.5864197,14.98478 7.745472,15.545465 c 0.1590529,0.560698 0.8902915,0.8734 1.6322772,0.685601 0.5919522,-0.149812 0.9996538,-0.57287 1.0647298,-1.019875 l 0.01731,-4.602264 3.848254,-1.0039155 v 3.6313445 c -0.308819,-0.157514 -0.705457,-0.221178 -1.116639,-0.117103 -0.741989,0.187789 -1.207633,0.794532 -1.04858,1.355229 0.159051,0.560692 0.890293,0.873401 1.632278,0.685606 0.591953,-0.149828 0.999652,-0.572868 1.064729,-1.019886 l 0.01731,-5.9904934 c 2e-6,-0.2303379 -0.146324,-0.4030229 -0.343756,-0.4354231 z"
     id="path4"
     inkscape:connector-curvature="0" />
  <rect
     style="opacity:0.4;fill:none;fill-opacity:1;stroke:url(#linearGradient880-4);stroke-width:0.3508772;stroke-miterlimit:4;stroke-dasharray:none;stroke-opacity:1"
     width="19.649122"
     height="19.649122"
     x="2.1754389"
     y="-21.824562"
     rx="9.8245611"
     ry="9.8245611"
     transform="rotate(90)"
     id="rect8-2-8" />
</svg>
