<?xml version="1.0" encoding="UTF-8" standalone="no"?>
<svg
   xmlns:dc="http://purl.org/dc/elements/1.1/"
   xmlns:cc="http://creativecommons.org/ns#"
   xmlns:rdf="http://www.w3.org/1999/02/22-rdf-syntax-ns#"
   xmlns:svg="http://www.w3.org/2000/svg"
   xmlns="http://www.w3.org/2000/svg"
   xmlns:xlink="http://www.w3.org/1999/xlink"
   xmlns:sodipodi="http://sodipodi.sourceforge.net/DTD/sodipodi-0.dtd"
   xmlns:inkscape="http://www.inkscape.org/namespaces/inkscape"
   width="24"
   height="24"
   version="1"
   id="svg26"
   sodipodi:docname="multimedia-video-player.svg"
   inkscape:version="0.92.4 5da689c313, 2019-01-14">
  <metadata
     id="metadata32">
    <rdf:RDF>
      <cc:Work
         rdf:about="">
        <dc:format>image/svg+xml</dc:format>
        <dc:type
           rdf:resource="http://purl.org/dc/dcmitype/StillImage" />
        <dc:title />
      </cc:Work>
    </rdf:RDF>
  </metadata>
  <defs
     id="defs30">
    <linearGradient
       inkscape:collect="always"
       id="linearGradient8444">
      <stop
         style="stop-color:#ffffff;stop-opacity:1;"
         offset="0"
         id="stop8440" />
      <stop
         style="stop-color:#ffffff;stop-opacity:0;"
         offset="1"
         id="stop8442" />
    </linearGradient>
    <filter
       inkscape:collect="always"
       style="color-interpolation-filters:sRGB"
       id="filter2777"
       x="-0.039360002"
       width="1.07872"
       y="-0.061500002"
       height="1.123">
      <feGaussianBlur
         inkscape:collect="always"
         stdDeviation="0.82"
         id="feGaussianBlur2779" />
    </filter>
    <linearGradient
       inkscape:collect="always"
       xlink:href="#linearGradient8444"
       id="linearGradient8446"
       x1="11.839779"
       y1="6.5193372"
       x2="11.80663"
       y2="8.3462248"
       gradientUnits="userSpaceOnUse" />
    <linearGradient
       inkscape:collect="always"
       xlink:href="#linearGradient833"
       id="linearGradient826-0"
       x1="57.129814"
       y1="48.749649"
       x2="9.7931185"
       y2="2.3869731"
       gradientUnits="userSpaceOnUse"
       gradientTransform="matrix(1.5999999,0,0,3.5714286,-70.399997,-85.57143)" />
    <linearGradient
       inkscape:collect="always"
       id="linearGradient833">
      <stop
         style="stop-color:#24d8ff;stop-opacity:1"
         offset="0"
         id="stop829" />
      <stop
         id="stop1492"
         offset="0.61260545"
         style="stop-color:#18a2f0;stop-opacity:1;" />
      <stop
         style="stop-color:#127bcb;stop-opacity:1"
         offset="0.61260545"
         id="stop1494" />
      <stop
         id="stop1496"
         offset="0.69288391"
         style="stop-color:#117ee6;stop-opacity:1;" />
      <stop
         style="stop-color:#0e68cf;stop-opacity:1"
         offset="0.69288391"
         id="stop1498" />
      <stop
         id="stop1500"
         offset="0.76831985"
         style="stop-color:#0e6fde;stop-opacity:1" />
      <stop
         style="stop-color:#0b4ea0;stop-opacity:1"
         offset="0.76831985"
         id="stop1502" />
      <stop
         id="stop1504"
         offset="0.83362627"
         style="stop-color:#0a4d9f;stop-opacity:1" />
      <stop
         style="stop-color:#083e80;stop-opacity:1"
         offset="0.83362627"
         id="stop1506" />
      <stop
         style="stop-color:#052852;stop-opacity:1"
         offset="1"
         id="stop831" />
    </linearGradient>
    <filter
       style="color-interpolation-filters:sRGB"
       inkscape:label="Colorize"
       id="filter11307">
      <feComposite
         k4="0"
         k3="0"
         in2="SourceGraphic"
         operator="arithmetic"
         k1="0"
         k2="1"
         result="composite1"
         id="feComposite11293" />
      <feColorMatrix
         in="composite1"
         values="1"
         type="saturate"
         result="colormatrix1"
         id="feColorMatrix11295" />
      <feFlood
         flood-opacity="1"
         flood-color="rgb(16,255,41)"
         result="flood1"
         id="feFlood11297" />
      <feBlend
         in="flood1"
         in2="colormatrix1"
         mode="multiply"
         result="blend1"
         id="feBlend11299" />
      <feBlend
         in2="blend1"
         mode="screen"
         result="blend2"
         id="feBlend11301" />
      <feColorMatrix
         in="blend2"
         values="1"
         type="saturate"
         result="colormatrix2"
         id="feColorMatrix11303" />
      <feComposite
         in="colormatrix2"
         in2="SourceGraphic"
         operator="in"
         result="composite2"
         id="feComposite11305" />
    </filter>
  </defs>
  <sodipodi:namedview
     pagecolor="#ffffff"
     bordercolor="#666666"
     borderopacity="1"
     objecttolerance="10"
     gridtolerance="10"
     guidetolerance="10"
     inkscape:pageopacity="0"
     inkscape:pageshadow="2"
     inkscape:window-width="1366"
     inkscape:window-height="691"
     id="namedview28"
     showgrid="false"
     inkscape:zoom="23.997436"
     inkscape:cx="9.1216819"
     inkscape:cy="6.4327992"
     inkscape:window-x="0"
     inkscape:window-y="0"
     inkscape:window-maximized="1"
     inkscape:current-layer="svg26" />
  <path
     style="opacity:0.2;fill:#000000;fill-opacity:1;stroke-width:0.50000435"
     d="M 3.0000004,3 C 2.4459905,3 2.0000002,3.445582 2.0000002,3.999582 V 21.999721 C 2.0000002,22.553721 2.4459905,23 3.0000004,23 H 21 c 0.55401,0 1,-0.446279 1,-1.000279 V 3.999582 C 22,3.445582 21.55401,3 21,3 Z m 0,0.999582 H 5 V 6.00014 H 3.0000004 Z m 3.9999994,0 H 8.9999996 V 6.00014 H 6.9999998 Z m 4.0000002,0 h 2 V 6.00014 h -2 z m 4,0 h 2 V 6.00014 h -2 z m 4,0 h 2 V 6.00014 H 19 Z M 3.0000004,19.999861 H 5 v 1.99986 H 3.0000004 Z m 3.9999994,0 h 1.9999998 v 1.99986 H 6.9999998 Z m 4.0000002,0 h 2 v 1.99986 h -2 z m 4,0 h 2 v 1.99986 h -2 z m 4,0 h 2 v 1.99986 h -2 z"
     id="rect2-8"
     inkscape:connector-curvature="0" />
  <path
     style="fill:#000000;fill-opacity:1;stroke-width:0.50000435"
     d="m 3.0000003,1.9999996 c -0.5540099,0 -1.0000002,0.4455816 -1.0000002,0.9995816 V 20.999721 C 2.0000001,21.553721 2.4459904,22 3.0000003,22 H 21 c 0.55401,0 1,-0.446279 1,-1.000279 V 2.9995812 c 0,-0.554 -0.44599,-0.9995816 -1,-0.9995816 z m 0,0.9995816 H 4.9999999 V 5.0001393 H 3.0000003 Z m 3.9999994,0 H 8.9999995 V 5.0001393 H 6.9999997 Z m 4.0000003,0 h 2 v 2.0005581 h -2 z m 4,0 h 2 v 2.0005581 h -2 z m 4,0 h 2 V 5.0001393 H 19 Z M 3.0000003,18.999861 h 1.9999996 v 1.99986 H 3.0000003 Z m 3.9999994,0 h 1.9999998 v 1.99986 H 6.9999997 Z m 4.0000003,0 h 2 v 1.99986 h -2 z m 4,0 h 2 v 1.99986 h -2 z m 4,0 h 2 v 1.99986 h -2 z"
     id="rect2"
     inkscape:connector-curvature="0" />
  <rect
     transform="matrix(0,-0.3302753,-0.34346776,0,1.0090323,1.4311903)"
     ry="0"
     rx="0"
     id="rect14-8"
     y="-57"
     x="-48"
     height="50"
     width="32"
     style="fill:#000000;fill-opacity:1;stroke-width:2.39045691;filter:url(#filter2777)" />
  <rect
     transform="matrix(0,-0.375,-0.36,0,0.48,0)"
     ry="0"
     rx="0"
     id="rect14-6"
     y="-57"
     x="-48"
     height="50"
     width="32"
     style="fill:url(#linearGradient826-0);fill-opacity:1;stroke-width:2.39045691;filter:url(#filter11307)" />
  <g
     id="g2632"
     transform="matrix(0.36,0,0,0.375,0.48,0)">
    <path
       sodipodi:nodetypes="cccc"
       inkscape:connector-curvature="0"
       id="path2628-4"
       d="m 27.245038,25.826888 v 16 L 41.133927,34.113082 27.245038,25.826888"
       style="fill:#000000;fill-opacity:1;stroke:none;stroke-width:3.14773607px;stroke-linecap:butt;stroke-linejoin:miter;stroke-opacity:1" />
    <path
       sodipodi:nodetypes="cccc"
       inkscape:connector-curvature="0"
       id="path2628"
       d="M 26.444444,24 V 40 L 40.333333,32.286194 26.444444,24"
       style="fill:#ffffff;fill-opacity:1;stroke:none;stroke-width:3.14773607px;stroke-linecap:butt;stroke-linejoin:miter;stroke-opacity:1" />
  </g>
  <rect
     style="opacity:0.4;fill:none;fill-opacity:1;stroke:url(#linearGradient8446);stroke-width:1.0272522;stroke-miterlimit:4;stroke-dasharray:none;stroke-opacity:1"
     id="rect8438"
     width="16.972748"
     height="10.972748"
     x="3.5136261"
     y="6.5136261" />
</svg>
