<?xml version="1.0" encoding="UTF-8" standalone="no"?>
<svg
   xmlns:dc="http://purl.org/dc/elements/1.1/"
   xmlns:cc="http://creativecommons.org/ns#"
   xmlns:rdf="http://www.w3.org/1999/02/22-rdf-syntax-ns#"
   xmlns:svg="http://www.w3.org/2000/svg"
   xmlns="http://www.w3.org/2000/svg"
   xmlns:xlink="http://www.w3.org/1999/xlink"
   xmlns:sodipodi="http://sodipodi.sourceforge.net/DTD/sodipodi-0.dtd"
   xmlns:inkscape="http://www.inkscape.org/namespaces/inkscape"
   width="24"
   height="24"
   version="1.1"
   viewBox="0 0 18 18"
   id="svg27"
   sodipodi:docname="preferences-system-login.svg"
   inkscape:version="0.92.4 5da689c313, 2019-01-14">
  <metadata
     id="metadata31">
    <rdf:RDF>
      <cc:Work
         rdf:about="">
        <dc:format>image/svg+xml</dc:format>
        <dc:type
           rdf:resource="http://purl.org/dc/dcmitype/StillImage" />
        <dc:title />
      </cc:Work>
    </rdf:RDF>
  </metadata>
  <sodipodi:namedview
     pagecolor="#ffffff"
     bordercolor="#666666"
     borderopacity="1"
     objecttolerance="10"
     gridtolerance="10"
     guidetolerance="10"
     inkscape:pageopacity="0"
     inkscape:pageshadow="2"
     inkscape:window-width="1366"
     inkscape:window-height="691"
     id="namedview29"
     showgrid="false"
     inkscape:zoom="21.583333"
     inkscape:cx="12"
     inkscape:cy="12"
     inkscape:window-x="0"
     inkscape:window-y="0"
     inkscape:window-maximized="1"
     inkscape:current-layer="svg27" />
  <defs
     id="defs15">
    <linearGradient
       inkscape:collect="always"
       id="linearGradient4499">
      <stop
         style="stop-color:#fa006f;stop-opacity:1"
         offset="0"
         id="stop4495" />
      <stop
         style="stop-color:#ffff00;stop-opacity:1"
         offset="1"
         id="stop4497" />
    </linearGradient>
    <clipPath
       id="clipPath4">
      <rect
         width="384"
         height="384"
         id="rect2"
         x="0"
         y="0" />
    </clipPath>
    <clipPath
       id="clipPath8">
      <rect
         width="384"
         height="384"
         id="rect6"
         x="0"
         y="0" />
    </clipPath>
    <linearGradient
       id="a"
       x1="105.51208"
       x2="456.32745"
       y1="330.3624"
       y2="-70.879669"
       gradientUnits="userSpaceOnUse">
      <stop
         stop-color="#e5e5e5"
         offset="0"
         id="stop10"
         style="stop-color:#fa006f;stop-opacity:1" />
      <stop
         stop-color="#fff"
         offset="1"
         id="stop12"
         style="stop-color:#ffff00;stop-opacity:1" />
    </linearGradient>
    <linearGradient
       inkscape:collect="always"
       xlink:href="#linearGradient4499"
       id="linearGradient4509"
       x1="27.254238"
       y1="356.33899"
       x2="560.13556"
       y2="-162.71187"
       gradientUnits="userSpaceOnUse"
       gradientTransform="matrix(0.04464286,0,0,0.04464286,0.42849128,0.42857151)" />
  </defs>
  <path
     d="m 16.499999,9.7500013 c 0,-4.1421872 -3.357811,-7.4999996 -7.4999985,-7.4999996 -4.1421877,0 -7.5,3.3578124 -7.5,7.4999996 0,4.1421867 3.3578123,7.4999987 7.5,7.4999987 4.1421885,0 7.4999975,-3.357812 7.4999985,-7.4999987 z"
     id="path17-0"
     style="opacity:0.2;fill:#000000;fill-opacity:1;fill-rule:evenodd;stroke-width:0.04464286"
     inkscape:connector-curvature="0" />
  <path
     d="m 16.499919,9 c 0,-4.1421875 -3.357811,-7.5 -7.4999988,-7.5 -4.1421879,0 -7.5000003,3.3578125 -7.5000003,7.5 0,4.142187 3.3578124,7.5 7.5000003,7.5 4.1421878,0 7.4999988,-3.357813 7.4999988,-7.5 z"
     id="path17"
     style="fill:url(#linearGradient4509);fill-opacity:1;fill-rule:evenodd;stroke-width:0.04464286"
     inkscape:connector-curvature="0" />
  <path
     d="m 13.285187,5.0495535 c 0,0 -1.285401,-0.0361 -2.56991,0.606875 C 10.322559,5.834826 9.8942502,6.1203125 9.5372859,6.477277 8.9602324,7.054509 8.0635359,8.1170093 7.3574645,8.9758929 H 5.7895629 l -0.7139285,1.0707141 1.210759,0.327322 c 0.0035,0.04325 0.014995,0.104281 0.048475,0.186767 l -0.1879865,0.413643 c 0,0 -0.0715,0.142822 0.463884,0.713929 0.5711157,0.571473 0.7496879,0.499598 0.7496879,0.499598 l 0.4436379,-0.201241 c 0.066443,0.02075 0.1156164,0.02773 0.147705,0.02773 l 0.3365671,1.244419 1.0708929,-0.713929 v -1.61585 C 10.224034,10.229708 11.285372,9.3509579 11.857872,8.7971186 12.214668,8.44015 12.500329,8.0118507 12.714123,7.6191279 13.320462,6.3346186 13.285239,5.0495291 13.285239,5.0495291 Z m -2.498616,3.2123658 c -0.392893,0 -0.713927,-0.3212186 -0.713927,-0.7137498 0,-0.393067 0.321044,-0.7139285 0.713927,-0.7139285 0.392719,0 0.713928,0.3208705 0.713928,0.7139285 0,0.3925448 -0.321566,0.7137498 -0.713928,0.7137498 z M 7.0388488,12.545179 c 0.071321,0.0361 0.1070714,0.07132 0.1783971,0.107071 -0.071321,0.0715 -0.1428214,0.178571 -0.2144957,0.249893 -0.8213393,0.821026 -2.2841071,0.713928 -2.2841071,0.713928 0,0 -0.1070714,-1.463794 0.7139288,-2.284107 0.071321,-0.07167 0.1783975,-0.142473 0.2498925,-0.214495 0.035575,0.07132 0.070974,0.107071 0.1070715,0.178397 -0.535357,0.677857 -0.4640625,1.713348 -0.4640625,1.713348 0,0 1.0348215,0.07132 1.7133482,-0.464062 z"
     id="path19"
     inkscape:connector-curvature="0"
     style="opacity:0.3;stroke-width:0.04464286" />
  <path
     d="m 13.285187,4.7145982 c 0,0 -1.285401,-0.036098 -2.56991,0.6068748 C 10.322559,5.4998705 9.8942502,5.785357 9.5372859,6.1423215 8.9602324,6.7195535 8.0635359,7.7820536 7.3574645,8.6409379 H 5.7895629 l -0.7139285,1.0707142 1.210759,0.3273209 c 0.0035,0.04325 0.014995,0.104281 0.048475,0.186768 l -0.1879865,0.413643 c 0,0 -0.0715,0.142822 0.463884,0.713929 0.5711157,0.571473 0.7496879,0.499598 0.7496879,0.499598 l 0.4436379,-0.201242 c 0.066443,0.02075 0.1156164,0.02773 0.147705,0.02773 l 0.3365671,1.24442 1.0708929,-0.713929 V 10.59404 C 10.224034,9.8947543 11.285372,9.0160043 11.857872,8.4621643 12.214668,8.1051957 12.500329,7.6768971 12.714123,7.2841736 13.320462,5.9996646 13.285239,4.7145754 13.285239,4.7145754 Z m -2.498616,3.2123661 c -0.392893,0 -0.713927,-0.3212186 -0.713927,-0.7137498 0,-0.3930675 0.321044,-0.713929 0.713927,-0.713929 0.392719,0 0.713928,0.3208705 0.713928,0.713929 0,0.3925448 -0.321566,0.7137498 -0.713928,0.7137498 z M 7.0388487,12.210223 c 0.071321,0.0361 0.1070715,0.07132 0.1783972,0.107071 -0.071321,0.0715 -0.1428215,0.178572 -0.2144957,0.249893 -0.8213393,0.821027 -2.2841071,0.713929 -2.2841071,0.713929 0,0 -0.1070714,-1.463795 0.7139288,-2.284107 0.071326,-0.07168 0.1783975,-0.142473 0.2498975,-0.214496 0.035575,0.07133 0.070973,0.107072 0.1070715,0.178398 -0.5353575,0.677857 -0.4640625,1.713348 -0.4640625,1.713348 0,0 1.034821,0.07132 1.7133482,-0.464063 z"
     id="path21"
     style="fill:#ffffff;fill-opacity:1;stroke-width:0.04464286"
     inkscape:connector-curvature="0" />
  <path
     d="m 8.9999202,1.5 c -4.142076,0 -7.5000003,3.3579243 -7.5000003,7.5 0,0.055979 8.571e-4,0.1117264 0.00211,0.1674107 0.089063,-4.0647322 3.4118304,-7.3325893 7.4979911,-7.3325893 4.086162,0 7.408928,3.2677566 7.49799,7.3325893 0.0012,-0.055686 0.0021,-0.111435 0.0021,-0.1674107 0,-4.1420757 -3.357922,-7.5 -7.499999,-7.5 z"
     id="path25"
     inkscape:connector-curvature="0"
     style="opacity:0.4;fill:#ffffff;stroke-width:0.04464174" />
</svg>
