<?xml version="1.0" encoding="UTF-8" standalone="no"?>
<svg
   xmlns:dc="http://purl.org/dc/elements/1.1/"
   xmlns:cc="http://creativecommons.org/ns#"
   xmlns:rdf="http://www.w3.org/1999/02/22-rdf-syntax-ns#"
   xmlns:svg="http://www.w3.org/2000/svg"
   xmlns="http://www.w3.org/2000/svg"
   xmlns:sodipodi="http://sodipodi.sourceforge.net/DTD/sodipodi-0.dtd"
   xmlns:inkscape="http://www.inkscape.org/namespaces/inkscape"
   width="24"
   height="24"
   version="1"
   id="svg2072"
   sodipodi:docname="preferences-system-notifications.svg"
   inkscape:version="0.92.3 (2405546, 2018-03-11)">
  <metadata
     id="metadata2078">
    <rdf:RDF>
      <cc:Work
         rdf:about="">
        <dc:format>image/svg+xml</dc:format>
        <dc:type
           rdf:resource="http://purl.org/dc/dcmitype/StillImage" />
      </cc:Work>
    </rdf:RDF>
  </metadata>
  <defs
     id="defs2076" />
  <sodipodi:namedview
     pagecolor="#ffffff"
     bordercolor="#666666"
     borderopacity="1"
     objecttolerance="10"
     gridtolerance="10"
     guidetolerance="10"
     inkscape:pageopacity="0"
     inkscape:pageshadow="2"
     inkscape:window-width="1366"
     inkscape:window-height="704"
     id="namedview2074"
     showgrid="false"
     inkscape:zoom="9.8333333"
     inkscape:cx="1.2711864"
     inkscape:cy="12"
     inkscape:window-x="0"
     inkscape:window-y="30"
     inkscape:window-maximized="1"
     inkscape:current-layer="g2070" />
  <g
     transform="translate(1,1)"
     id="g2070">
    <path
       fill="#4f4f4f"
       d="m3 4c-0.554 0-1 0.446-1 1v12c0 0.554 0.446 1 1 1h9l2 2 2-2h3c0.554 0 1-0.446 1-1v-12c0-0.554-0.446-1-1-1z"
       id="path2058"
       style="fill:#f0f0f0;fill-opacity:1" />
    <circle
       opacity=".2"
       cx="7"
       cy="8.5"
       r="6"
       id="circle2060" />
    <path
       fill="#fff"
       opacity=".1"
       d="m3 4c-0.554 0-1 0.446-1 1v0.5c0-0.554 0.446-1 1-1h16c0.554 0 1 0.446 1 1v-0.5c0-0.554-0.446-1-1-1h-16z"
       id="path2062" />
    <circle
       fill="#4daaf5"
       cx="7"
       cy="8"
       r="6"
       id="circle2064"
       style="fill:#f54d4d;fill-opacity:1" />
    <path
       fill="#fff"
       d="m6 12v-2h2v2h-2zm0-3v-5h2v5h-2z"
       id="path2066" />
    <path
       opacity=".2"
       d="m2 17v0.5c0 0.554 0.446 1 1 1h9l2 2 2-2h3c0.554 0 1-0.446 1-1v-0.5c0 0.554-0.446 1-1 1h-3l-2 2-2-2h-9c-0.554 0-1-0.446-1-1z"
       id="path2068" />
  </g>
</svg>
