<?xml version="1.0" encoding="UTF-8" standalone="no"?>
<svg
   xmlns:dc="http://purl.org/dc/elements/1.1/"
   xmlns:cc="http://creativecommons.org/ns#"
   xmlns:rdf="http://www.w3.org/1999/02/22-rdf-syntax-ns#"
   xmlns:svg="http://www.w3.org/2000/svg"
   xmlns="http://www.w3.org/2000/svg"
   xmlns:xlink="http://www.w3.org/1999/xlink"
   xmlns:sodipodi="http://sodipodi.sourceforge.net/DTD/sodipodi-0.dtd"
   xmlns:inkscape="http://www.inkscape.org/namespaces/inkscape"
   width="24"
   height="24"
   version="1"
   id="svg12"
   sodipodi:docname="preferences-desktop-accessibility.svg"
   inkscape:version="0.92.4 5da689c313, 2019-01-14">
  <metadata
     id="metadata18">
    <rdf:RDF>
      <cc:Work
         rdf:about="">
        <dc:format>image/svg+xml</dc:format>
        <dc:type
           rdf:resource="http://purl.org/dc/dcmitype/StillImage" />
        <dc:title />
      </cc:Work>
    </rdf:RDF>
  </metadata>
  <defs
     id="defs16">
    <linearGradient
       inkscape:collect="always"
       id="linearGradient832">
      <stop
         style="stop-color:#3e50b4;stop-opacity:1;"
         offset="0"
         id="stop828" />
      <stop
         style="stop-color:#6675ca;stop-opacity:1"
         offset="1"
         id="stop830" />
    </linearGradient>
    <linearGradient
       inkscape:collect="always"
       xlink:href="#linearGradient832"
       id="linearGradient834"
       x1="4"
       y1="32"
       x2="60"
       y2="32"
       gradientUnits="userSpaceOnUse"
       gradientTransform="matrix(0.35714285,0,0,0.35714285,-23.428571,-23.428571)" />
  </defs>
  <sodipodi:namedview
     pagecolor="#ffffff"
     bordercolor="#666666"
     borderopacity="1"
     objecttolerance="10"
     gridtolerance="10"
     guidetolerance="10"
     inkscape:pageopacity="0"
     inkscape:pageshadow="2"
     inkscape:window-width="1366"
     inkscape:window-height="691"
     id="namedview14"
     showgrid="false"
     inkscape:zoom="20.85965"
     inkscape:cx="1.1613036"
     inkscape:cy="11.058201"
     inkscape:window-x="0"
     inkscape:window-y="0"
     inkscape:window-maximized="1"
     inkscape:current-layer="svg12" />
  <rect
     style="opacity:0.2;fill:#000000;fill-opacity:1;stroke-width:0.35714287"
     width="20"
     height="20"
     x="-23"
     y="-22"
     rx="10"
     ry="10"
     id="rect2-8"
     transform="matrix(0,-1,-1,0,0,0)" />
  <rect
     style="fill:url(#linearGradient834);fill-opacity:1;stroke-width:0.35714287"
     width="20"
     height="20"
     x="-22"
     y="-22"
     rx="10"
     ry="10"
     id="rect2"
     transform="matrix(0,-1,-1,0,0,0)" />
  <path
     style="opacity:0.2;stroke-width:0.35714287"
     d="m 12,5.9285715 c -0.789,0 -1.428571,0.639593 -1.428571,1.4285715 0,0.7889784 0.639592,1.4285713 1.428571,1.4285713 0.788979,0 1.428571,-0.6395929 1.428571,-1.4285713 C 13.428571,6.5681645 12.788979,5.9285715 12,5.9285715 Z M 7,9.5 v 0.714286 h 3.571429 v 8.571428 h 0.714285 V 14.5 h 1.428572 v 4.285714 h 0.714285 V 10.214286 H 17 V 9.5 h -6.428571 z"
     id="path4"
     inkscape:connector-curvature="0" />
  <path
     style="fill:#ffffff;stroke-width:0.35714287"
     d="m 12,5.5714285 c -0.789,0 -1.428571,0.639593 -1.428571,1.4285715 0,0.7889786 0.639592,1.4285714 1.428571,1.4285714 0.788979,0 1.428571,-0.6395928 1.428571,-1.4285714 C 13.428571,6.2110215 12.788979,5.5714285 12,5.5714285 Z M 7,9.1428571 v 0.7142858 h 3.571429 v 8.5714281 h 0.714285 v -4.285714 h 1.428572 v 4.285714 h 0.714285 V 9.8571429 H 17 V 9.1428571 h -6.428571 z"
     id="path6"
     inkscape:connector-curvature="0" />
  <path
     style="opacity:0.4;fill:#ffffff;stroke-width:0.35714287"
     d="M 12,2 C 6.4601564,2 2,6.46 2,12 2,12.04051 2.00403,12.08004 2.00628,12.119978 2.1318255,6.690779 6.5396993,2.357143 12,2.357143 c 5.460301,0 9.868174,4.333636 9.993722,9.762835 C 21.995962,12.080041 22,12.040517 22,12 22,6.46 17.539844,2 12,2 Z"
     id="path8"
     inkscape:connector-curvature="0" />
</svg>
