<?xml version="1.0" encoding="UTF-8" standalone="no"?>
<svg
   xmlns:dc="http://purl.org/dc/elements/1.1/"
   xmlns:cc="http://creativecommons.org/ns#"
   xmlns:rdf="http://www.w3.org/1999/02/22-rdf-syntax-ns#"
   xmlns:svg="http://www.w3.org/2000/svg"
   xmlns="http://www.w3.org/2000/svg"
   xmlns:xlink="http://www.w3.org/1999/xlink"
   xmlns:sodipodi="http://sodipodi.sourceforge.net/DTD/sodipodi-0.dtd"
   xmlns:inkscape="http://www.inkscape.org/namespaces/inkscape"
   width="24"
   height="24"
   version="1"
   id="svg16"
   sodipodi:docname="preferences-system-windows.svg"
   inkscape:version="0.92.4 5da689c313, 2019-01-14">
  <metadata
     id="metadata22">
    <rdf:RDF>
      <cc:Work
         rdf:about="">
        <dc:format>image/svg+xml</dc:format>
        <dc:type
           rdf:resource="http://purl.org/dc/dcmitype/StillImage" />
        <dc:title />
      </cc:Work>
    </rdf:RDF>
  </metadata>
  <defs
     id="defs20">
    <linearGradient
       inkscape:collect="always"
       id="linearGradient857">
      <stop
         style="stop-color:#50595e;stop-opacity:1"
         offset="0"
         id="stop853" />
      <stop
         style="stop-color:#768388;stop-opacity:1"
         offset="1"
         id="stop855" />
    </linearGradient>
    <linearGradient
       inkscape:collect="always"
       xlink:href="#linearGradient857"
       id="linearGradient859"
       x1="24.881355"
       y1="28.618645"
       x2="25.220339"
       y2="22.11017"
       gradientUnits="userSpaceOnUse"
       gradientTransform="matrix(0.45454546,0,0,0.55741373,0.1818182,-9.2243189)" />
  </defs>
  <sodipodi:namedview
     pagecolor="#ffffff"
     bordercolor="#666666"
     borderopacity="1"
     objecttolerance="10"
     gridtolerance="10"
     guidetolerance="10"
     inkscape:pageopacity="0"
     inkscape:pageshadow="2"
     inkscape:window-width="1366"
     inkscape:window-height="691"
     id="namedview18"
     showgrid="false"
     inkscape:zoom="29.5"
     inkscape:cx="11.513911"
     inkscape:cy="0.74255507"
     inkscape:window-x="0"
     inkscape:window-y="0"
     inkscape:window-maximized="1"
     inkscape:current-layer="svg16" />
  <path
     style="opacity:0.2;stroke-width:0.46537888"
     d="m 2,19.594118 v 0.47647 C 2,20.862482 2.6081818,21.5 3.3636363,21.5 H 20.636364 C 21.391818,21.5 22,20.862482 22,20.070588 v -0.47647 c 0,0.791893 -0.608182,1.429412 -1.363636,1.429412 H 3.3636363 C 2.6081818,21.02353 2,20.386011 2,19.594118 Z"
     id="path14"
     inkscape:connector-curvature="0" />
  <path
     style="fill:#e4e4e4;stroke-width:0.46537888"
     d="M 2,6.1817643 V 19.570588 C 2,20.362482 2.6081818,21 3.3636363,21 H 20.636364 C 21.391818,21 22,20.362482 22,19.570588 V 6.1817643 Z"
     id="path6"
     inkscape:connector-curvature="0" />
  <path
     style="fill:url(#linearGradient859);fill-opacity:1;stroke-width:0.5033586"
     d="M 3.3636363,3.0387821 C 2.6081818,3.0387821 2,3.7846016 2,4.7110232 V 6.9406778 H 22 V 4.7110232 C 22,3.7846016 21.391818,3.0387821 20.636364,3.0387821 Z"
     id="path8"
     inkscape:connector-curvature="0" />
  <path
     inkscape:connector-curvature="0"
     style="opacity:0.4;fill:#ffffff;stroke-width:0.46537888"
     d="M 3.3636363,3 C 2.6081818,3 2,3.6375177 2,4.4294116 V 4.9058825 C 2,4.113988 2.6081818,3.4764704 3.3636363,3.4764704 H 20.636364 C 21.391818,3.4764704 22,4.113988 22,4.9058825 V 4.4294116 C 22,3.6375177 21.391818,3 20.636364,3 Z"
     id="path12-4" />
</svg>
