<?xml version="1.0" encoding="UTF-8" standalone="no"?>
<svg
   xmlns:dc="http://purl.org/dc/elements/1.1/"
   xmlns:cc="http://creativecommons.org/ns#"
   xmlns:rdf="http://www.w3.org/1999/02/22-rdf-syntax-ns#"
   xmlns:svg="http://www.w3.org/2000/svg"
   xmlns="http://www.w3.org/2000/svg"
   xmlns:xlink="http://www.w3.org/1999/xlink"
   xmlns:sodipodi="http://sodipodi.sourceforge.net/DTD/sodipodi-0.dtd"
   xmlns:inkscape="http://www.inkscape.org/namespaces/inkscape"
   width="24"
   height="24"
   version="1"
   id="svg12"
   sodipodi:docname="preferences-desktop-online-accounts.svg"
   inkscape:version="0.92.4 5da689c313, 2019-01-14">
  <metadata
     id="metadata18">
    <rdf:RDF>
      <cc:Work
         rdf:about="">
        <dc:format>image/svg+xml</dc:format>
        <dc:type
           rdf:resource="http://purl.org/dc/dcmitype/StillImage" />
        <dc:title />
      </cc:Work>
    </rdf:RDF>
  </metadata>
  <defs
     id="defs16">
    <linearGradient
       inkscape:collect="always"
       id="linearGradient832">
      <stop
         style="stop-color:#37dbad;stop-opacity:1;"
         offset="0"
         id="stop828" />
      <stop
         style="stop-color:#0066cc;stop-opacity:1"
         offset="1"
         id="stop830" />
    </linearGradient>
    <linearGradient
       inkscape:collect="always"
       xlink:href="#linearGradient832"
       id="linearGradient834"
       x1="0.47457626"
       y1="0.67796606"
       x2="63.796612"
       y2="63.050846"
       gradientUnits="userSpaceOnUse"
       gradientTransform="matrix(0.35714285,0,0,0.35714285,0.57142857,0.57142862)" />
  </defs>
  <sodipodi:namedview
     pagecolor="#ffffff"
     bordercolor="#666666"
     borderopacity="1"
     objecttolerance="10"
     gridtolerance="10"
     guidetolerance="10"
     inkscape:pageopacity="0"
     inkscape:pageshadow="2"
     inkscape:window-width="1366"
     inkscape:window-height="691"
     id="namedview14"
     showgrid="false"
     inkscape:zoom="21.583333"
     inkscape:cx="12"
     inkscape:cy="12"
     inkscape:window-x="0"
     inkscape:window-y="0"
     inkscape:window-maximized="1"
     inkscape:current-layer="svg12" />
  <rect
     style="opacity:0.2;fill:#000000;fill-opacity:1;stroke-width:0.35714287"
     width="20"
     height="20"
     x="2"
     y="3"
     rx="10"
     ry="10"
     id="rect2-6" />
  <rect
     style="fill:url(#linearGradient834);fill-opacity:1;stroke-width:0.35714287"
     width="20"
     height="20"
     x="2"
     y="2"
     rx="10"
     ry="10"
     id="rect2" />
  <path
     style="opacity:0.2;stroke-width:0.35714287"
     d="m 11.999857,6.6430205 c -3.1558834,0 -5.714204,2.5583202 -5.714204,5.7142035 0,3.155884 2.5583206,5.714205 5.714204,5.714205 h 3.571377 c 0,0 0.669634,0 0.714276,-0.714276 0,-0.714275 -0.714276,-0.714275 -0.714276,-0.714275 h -3.571377 c -2.3668949,0 -4.2856527,-1.918759 -4.2856527,-4.285654 0,-2.3668947 1.9187578,-4.2856526 4.2856527,-4.2856526 2.366895,0 4.285653,1.9187579 4.285653,4.2856526 V 13.0715 c 0,0.39448 -0.319796,0.714276 -0.714276,0.714276 -0.39448,0 -0.714275,-0.319796 -0.714275,-0.714276 v -0.714276 c 0,-1.577905 -1.279196,-2.8571011 -2.857102,-2.8571011 -1.577906,0 -2.857102,1.2791961 -2.857102,2.8571011 0,1.577907 1.279196,2.857102 2.857102,2.857102 0.747275,0 1.421622,-0.293495 1.930758,-0.763132 0.407137,0.483565 1.007843,0.762847 1.640691,0.762847 1.183411,0 2.142827,-0.959415 2.142827,-2.142827 v -0.714275 c 0,-3.1556697 -2.558536,-5.7142045 -5.714205,-5.7142045 z m 0,4.2856535 c 0.788989,0 1.428551,0.639583 1.428551,1.42855 0,0.788968 -0.639584,1.428552 -1.428551,1.428552 -0.788968,0 -1.428551,-0.639584 -1.428551,-1.428552 0,-0.788967 0.639583,-1.42855 1.428551,-1.42855 z"
     id="path4"
     inkscape:connector-curvature="0" />
  <path
     style="fill:#ffffff;stroke-width:0.35714287"
     d="m 11.999857,6.2859495 c -3.1558834,0 -5.714204,2.5583205 -5.714204,5.7142035 0,3.155884 2.5583206,5.714204 5.714204,5.714204 h 3.571377 c 0,0 0.669634,0 0.714276,-0.714275 0,-0.714276 -0.714276,-0.714276 -0.714276,-0.714276 h -3.571377 c -2.3668949,0 -4.2856527,-1.918758 -4.2856527,-4.285653 0,-2.3668944 1.9187578,-4.2856523 4.2856527,-4.2856523 2.366895,0 4.285653,1.9187579 4.285653,4.2856523 v 0.714276 c 0,0.39448 -0.319796,0.714275 -0.714276,0.714275 -0.39448,0 -0.714275,-0.319795 -0.714275,-0.714275 v -0.714276 c 0,-1.577906 -1.279196,-2.8571016 -2.857102,-2.8571016 -1.577906,0 -2.857102,1.2791956 -2.857102,2.8571016 0,1.577906 1.279196,2.857103 2.857102,2.857103 0.747275,0 1.421622,-0.293497 1.930758,-0.763133 0.407137,0.483565 1.007843,0.762846 1.640691,0.762846 1.183411,0 2.142827,-0.959415 2.142827,-2.142826 v -0.714275 c 0,-3.1556694 -2.558536,-5.7142045 -5.714205,-5.7142045 z m 0,4.2856525 c 0.788989,0 1.428551,0.639584 1.428551,1.428551 0,0.788968 -0.639584,1.428551 -1.428551,1.428551 -0.788968,0 -1.428551,-0.639583 -1.428551,-1.428551 0,-0.788967 0.639583,-1.428551 1.428551,-1.428551 z"
     id="path6"
     inkscape:connector-curvature="0" />
  <path
     style="opacity:0.4;fill:#ffffff;stroke-width:0.35714287"
     d="M 12,2 C 6.4600793,2 2,6.4600795 2,12 2,12.04056 2.00403,12.08001 2.00628,12.119978 2.1318272,6.6908565 6.5396236,2.357143 12,2.357143 c 5.460377,0 9.868173,4.3337135 9.993722,9.762835 C 21.995999,12.080012 22,12.040555 22,12 22,6.4600795 17.539921,2 12,2 Z"
     id="path10"
     inkscape:connector-curvature="0" />
</svg>
