<?xml version="1.0" encoding="UTF-8" standalone="no"?>
<svg
   xmlns:dc="http://purl.org/dc/elements/1.1/"
   xmlns:cc="http://creativecommons.org/ns#"
   xmlns:rdf="http://www.w3.org/1999/02/22-rdf-syntax-ns#"
   xmlns:svg="http://www.w3.org/2000/svg"
   xmlns="http://www.w3.org/2000/svg"
   xmlns:xlink="http://www.w3.org/1999/xlink"
   xmlns:sodipodi="http://sodipodi.sourceforge.net/DTD/sodipodi-0.dtd"
   xmlns:inkscape="http://www.inkscape.org/namespaces/inkscape"
   width="24"
   height="24"
   version="1.1"
   viewBox="0 0 18 18"
   id="svg28"
   sodipodi:docname="preferences-system-time.svg"
   inkscape:version="0.92.4 5da689c313, 2019-01-14">
  <metadata
     id="metadata32">
    <rdf:RDF>
      <cc:Work
         rdf:about="">
        <dc:format>image/svg+xml</dc:format>
        <dc:type
           rdf:resource="http://purl.org/dc/dcmitype/StillImage" />
        <dc:title></dc:title>
      </cc:Work>
    </rdf:RDF>
  </metadata>
  <sodipodi:namedview
     pagecolor="#ffffff"
     bordercolor="#666666"
     borderopacity="1"
     objecttolerance="10"
     gridtolerance="10"
     guidetolerance="10"
     inkscape:pageopacity="0"
     inkscape:pageshadow="2"
     inkscape:window-width="1366"
     inkscape:window-height="712"
     id="namedview30"
     showgrid="false"
     inkscape:zoom="5.2149125"
     inkscape:cx="36.860427"
     inkscape:cy="5.3517842"
     inkscape:window-x="0"
     inkscape:window-y="25"
     inkscape:window-maximized="1"
     inkscape:current-layer="svg28"
     showguides="false" />
  <defs
     id="defs6">
    <linearGradient
       inkscape:collect="always"
       id="linearGradient958">
      <stop
         style="stop-color:#000000;stop-opacity:1;"
         offset="0"
         id="stop954" />
      <stop
         style="stop-color:#000000;stop-opacity:0;"
         offset="1"
         id="stop956" />
    </linearGradient>
    <linearGradient
       inkscape:collect="always"
       id="linearGradient890">
      <stop
         style="stop-color:#0049dc;stop-opacity:1"
         offset="0"
         id="stop886" />
      <stop
         style="stop-color:#00e9f2;stop-opacity:1"
         offset="1"
         id="stop888" />
    </linearGradient>
    <linearGradient
       inkscape:collect="always"
       id="linearGradient843">
      <stop
         style="stop-color:#ffffff;stop-opacity:1;"
         offset="0"
         id="stop839" />
      <stop
         style="stop-color:#f0f0f0;stop-opacity:1"
         offset="1"
         id="stop841" />
    </linearGradient>
    <clipPath
       id="clipPath4">
      <rect
         width="384"
         height="384"
         id="rect2"
         x="0"
         y="0" />
    </clipPath>
    <linearGradient
       inkscape:collect="always"
       xlink:href="#linearGradient843"
       id="linearGradient845"
       x1="46.721355"
       y1="37.870853"
       x2="347.0871"
       y2="347.02341"
       gradientUnits="userSpaceOnUse"
       gradientTransform="matrix(0.04411059,0,0,0.04411059,0.45798464,0.58281806)" />
    <linearGradient
       inkscape:collect="always"
       xlink:href="#linearGradient890"
       id="linearGradient892"
       x1="-0.16400324"
       y1="49.887299"
       x2="48.020184"
       y2="0.4137941"
       gradientUnits="userSpaceOnUse"
       gradientTransform="matrix(0,-0.35714285,0.35714285,0,0.4285715,17.571429)" />
    <filter
       inkscape:collect="always"
       style="color-interpolation-filters:sRGB"
       id="filter950"
       x="-0.048"
       width="1.096"
       y="-0.048"
       height="1.096">
      <feGaussianBlur
         inkscape:collect="always"
         stdDeviation="0.73540244"
         id="feGaussianBlur952" />
    </filter>
    <linearGradient
       inkscape:collect="always"
       xlink:href="#linearGradient958"
       id="linearGradient960"
       x1="3.8499732"
       y1="23.999998"
       x2="44.150024"
       y2="23.999998"
       gradientUnits="userSpaceOnUse" />
    <filter
       inkscape:collect="always"
       style="color-interpolation-filters:sRGB"
       id="filter986"
       x="-0.051748704"
       width="1.1034974"
       y="-0.044757728"
       height="1.0895154">
      <feGaussianBlur
         inkscape:collect="always"
         stdDeviation="0.47806193"
         id="feGaussianBlur988" />
    </filter>
  </defs>
  <path
     d="m 9,1.5000001 c 4.142177,0 7.5,3.3578222 7.5,7.4999999 0,4.142 -3.357823,7.5 -7.5,7.5 C 4.8579996,16.5 1.4999999,13.142178 1.4999999,9 1.4999999,4.8578223 4.8578217,1.5000001 9,1.5000001 Z"
     style="fill:url(#linearGradient892);fill-opacity:1;fill-rule:evenodd;stroke-width:0.04444444"
     id="path10"
     inkscape:connector-curvature="0" />
  <path
     d="m 15.696428,9 c 0,3.698408 -2.998152,6.696429 -6.696428,6.696429 C 5.301592,15.696429 2.3035713,12.698276 2.3035713,9 2.3035713,5.3017241 5.3017245,2.3035716 9,2.3035716 c 3.698276,0 6.696428,2.9981525 6.696428,6.6964284"
     style="fill:url(#linearGradient845);fill-opacity:1;fill-rule:evenodd;stroke-width:0.04411059"
     id="path12"
     inkscape:connector-curvature="0" />
  <path
     d="m 34.490667,0.940621 c -0.258646,0 -0.517839,0.09947 -0.715307,0.29695 l -9.97136,9.97136 -7.47e-4,-7.47e-4 V 11.20806 L 14.882827,3.326993 c -0.386338,-0.341264 -0.977561,-0.305262 -1.318863,0.08167 -0.341799,0.386313 -0.305088,0.976988 0.08167,1.318738 l 8.919929,7.880818 c 0.181614,0.160769 0.409472,0.226239 0.634007,0.222394 0.04561,0.08597 0.0948,0.171285 0.167341,0.244271 l 0.03263,0.03263 h 0.01677 c 0.396791,0.352539 1.00067,0.347923 1.380836,-0.03227 L 35.205428,2.667086 c 0.394539,-0.394538 0.394539,-1.035004 0,-1.429493 C 35.007947,1.040112 34.748879,0.940644 34.490669,0.940644 Z M 23.535822,13.961244 c -0.134686,0.0081 -0.261769,0.0841 -0.332864,0.214741 L 16.832025,25.90923 c -0.11375,0.209029 -0.04138,0.47931 0.16133,0.603754 0.202707,0.12493 0.459374,0.0559 0.573129,-0.153128 l 6.371057,-11.733245 c 0.11375,-0.20903 0.0412,-0.47931 -0.161504,-0.603755 -0.07602,-0.04685 -0.15945,-0.06647 -0.240265,-0.06162 z"
     dominant-baseline="auto"
     style="color:#000000;font-variant-ligatures:normal;font-variant-position:normal;font-variant-caps:normal;font-variant-numeric:normal;font-variant-alternates:normal;font-feature-settings:normal;text-indent:0;text-decoration:none;text-decoration-line:none;text-decoration-style:solid;text-decoration-color:#000000;text-transform:none;text-orientation:mixed;dominant-baseline:auto;white-space:normal;shape-padding:0;opacity:0.3;isolation:auto;mix-blend-mode:normal;solid-color:#000000;stroke-width:0.12444445;filter:url(#filter986);color-rendering:auto;image-rendering:auto;shape-rendering:auto"
     id="path16"
     inkscape:connector-curvature="0"
     transform="matrix(0.35714286,0,0,0.35714286,0.42857146,4.7142857)" />
  <path
     d="m 12.750666,4.7583108 c -0.08229,0 -0.164408,0.031425 -0.22743,0.094445 L 8.9338129,8.4421772 C 8.9256558,8.4327986 8.91697,8.42377 8.90742,8.41527 L 5.7216461,5.6006896 C 5.599597,5.4928761 5.414352,5.5041606 5.3065436,5.6263846 5.198557,5.7484331 5.2100146,5.9335046 5.3322385,6.0414865 l 3.1857773,2.8145778 c 0.063543,0.05625 0.1442713,0.079862 0.2222228,0.072396 0.015621,0.034721 0.037329,0.067357 0.0658,0.096009 h 1.772e-4 c 0.1258671,0.1258657 0.3286449,0.1258657 0.4545341,0 L 12.977949,5.3072686 c 0.125867,-0.1258665 0.125867,-0.3286442 0,-0.4545331 -0.06302,-0.063024 -0.145135,-0.094447 -0.227255,-0.094447 z"
     id="path18"
     style="fill:#323232;fill-opacity:1;stroke:none;stroke-width:0.0792"
     inkscape:connector-curvature="0" />
  <path
     d="m 6.4439999,13.635999 2.275333,-4.1904433 c 0.040621,-0.074654 0.1322943,-0.099306 0.2046893,-0.054693 0.072396,0.044443 0.098262,0.1409736 0.057643,0.2156264 l -2.275333,4.1904449 c -0.040629,0.07465 -0.1322936,0.09931 -0.2046893,0.05469 -0.072396,-0.04444 -0.098262,-0.140974 -0.05764,-0.215627 z"
     id="path22"
     inkscape:connector-curvature="0"
     style="fill:#fd4747;stroke:none;stroke-width:0.04444444" />
  <path
     d="M 9.7173329,9.147555 C 9.7171557,9.5027643 9.4291379,9.7908 9.0739107,9.7908 8.7185293,9.7908 8.4304893,9.5027772 8.4304893,9.147555 8.4303108,8.7921729 8.7185108,8.5039993 9.0739107,8.5039993 c 0.3553822,0 0.6435565,0.2881965 0.6434222,0.6435557"
     style="opacity:0.3;fill:#030000;stroke-width:0.04444444"
     id="path24"
     inkscape:connector-curvature="0" />
  <path
     d="M 9.7173329,8.9475558 C 9.7171557,9.3027643 9.4291379,9.5908 9.0739107,9.5908 8.7185293,9.5908 8.4304893,9.3027779 8.4304893,8.9475558 8.4303108,8.5921729 8.7185108,8.3039993 9.0739107,8.3039993 c 0.3553822,0 0.6435565,0.2881965 0.6434222,0.6435565"
     style="fill:#ffffff;stroke:none;stroke-width:0.04444444"
     id="path26"
     inkscape:connector-curvature="0" />
  <path
     d="M 42.385061,24 C 42.385061,34.153988 34.153627,42.385061 24,42.385061 13.846011,42.385061 5.614939,34.153627 5.614939,24 5.614939,13.846374 13.846375,5.614939 24,5.614939 34.153627,5.614939 42.385061,13.846374 42.385061,24"
     style="opacity:0.5;fill:none;fill-opacity:1;fill-rule:evenodd;stroke:url(#linearGradient960);stroke-width:0.72974998;stroke-miterlimit:4;stroke-dasharray:none;stroke-opacity:1;filter:url(#filter950)"
     id="path12-7"
     inkscape:connector-curvature="0"
     transform="matrix(0,0.35714286,-0.35714286,0,17.571428,0.4285716)" />
</svg>
