<?xml version="1.0" encoding="UTF-8" standalone="no"?>
<svg
   xmlns:dc="http://purl.org/dc/elements/1.1/"
   xmlns:cc="http://creativecommons.org/ns#"
   xmlns:rdf="http://www.w3.org/1999/02/22-rdf-syntax-ns#"
   xmlns:svg="http://www.w3.org/2000/svg"
   xmlns="http://www.w3.org/2000/svg"
   xmlns:xlink="http://www.w3.org/1999/xlink"
   xmlns:sodipodi="http://sodipodi.sourceforge.net/DTD/sodipodi-0.dtd"
   xmlns:inkscape="http://www.inkscape.org/namespaces/inkscape"
   width="24"
   height="24"
   version="1"
   id="svg10"
   sodipodi:docname="preferences-system-power.svg"
   inkscape:version="0.92.4 5da689c313, 2019-01-14">
  <metadata
     id="metadata16">
    <rdf:RDF>
      <cc:Work
         rdf:about="">
        <dc:format>image/svg+xml</dc:format>
        <dc:type
           rdf:resource="http://purl.org/dc/dcmitype/StillImage" />
        <dc:title />
      </cc:Work>
    </rdf:RDF>
  </metadata>
  <defs
     id="defs14">
    <linearGradient
       inkscape:collect="always"
       id="linearGradient827">
      <stop
         style="stop-color:#ffcc00;stop-opacity:1"
         offset="0"
         id="stop823" />
      <stop
         style="stop-color:#ffb800;stop-opacity:1"
         offset="1"
         id="stop825" />
    </linearGradient>
    <linearGradient
       inkscape:collect="always"
       xlink:href="#linearGradient827"
       id="linearGradient829"
       x1="31.999599"
       y1="16.000658"
       x2="31.999599"
       y2="48.000198"
       gradientUnits="userSpaceOnUse"
       gradientTransform="matrix(0.35714285,0,0,0.35714285,0.57142857,0.57142355)" />
  </defs>
  <sodipodi:namedview
     pagecolor="#ffffff"
     bordercolor="#666666"
     borderopacity="1"
     objecttolerance="10"
     gridtolerance="10"
     guidetolerance="10"
     inkscape:pageopacity="0"
     inkscape:pageshadow="2"
     inkscape:window-width="1366"
     inkscape:window-height="691"
     id="namedview12"
     showgrid="false"
     inkscape:zoom="21.583333"
     inkscape:cx="12"
     inkscape:cy="12"
     inkscape:window-x="0"
     inkscape:window-y="0"
     inkscape:window-maximized="1"
     inkscape:current-layer="svg10" />
  <path
     style="opacity:0.2;fill:#000000;fill-opacity:1;stroke-width:0.35714287"
     d="M 11.999999,3 C 6.4600001,3 2.0000001,7.46 2.0000001,13 c 0,5.539999 4.46,10 9.9999989,10 C 17.54,23 22,18.539999 22,13 22,7.46 17.54,3 11.999999,3 Z"
     id="path2-5"
     inkscape:connector-curvature="0" />
  <path
     style="fill:url(#linearGradient829);fill-opacity:1;stroke-width:0.35714287"
     d="M 11.999999,2.000005 C 6.46,2.000005 2,6.460005 2,12.000005 c 0,5.539999 4.46,10 9.999999,10 5.540001,0 10.000001,-4.460001 10.000001,-10 0,-5.54 -4.46,-10 -10.000001,-10 z"
     id="path2"
     inkscape:connector-curvature="0" />
  <path
     style="opacity:0.4;fill:#ffffff;stroke-width:0.35714287"
     d="m 12,1.999995 c -5.5399207,0 -10,4.460079 -10,9.999999 0,0.03512 0.004,0.06927 0.00628,0.103935 C 2.140133,6.6823145 6.5450007,2.3571375 12,2.3571375 c 5.454999,0 9.859867,4.325177 9.993722,9.7467915 C 21.995989,12.069291 22,12.035067 22,11.999994 22,6.460074 17.539921,1.999995 12,1.999995 Z"
     id="path4"
     inkscape:connector-curvature="0" />
  <path
     style="fill:#3f3f3f;stroke-width:0.35714287"
     d="m 11.999857,6.2859441 v 4.2856529 h 4.285653 l -4.285653,7.142755 V 13.428699 H 7.7142043 Z"
     id="path6"
     inkscape:connector-curvature="0" />
</svg>
