<?xml version="1.0" encoding="UTF-8" standalone="no"?>
<svg
   xmlns:dc="http://purl.org/dc/elements/1.1/"
   xmlns:cc="http://creativecommons.org/ns#"
   xmlns:rdf="http://www.w3.org/1999/02/22-rdf-syntax-ns#"
   xmlns:svg="http://www.w3.org/2000/svg"
   xmlns="http://www.w3.org/2000/svg"
   xmlns:xlink="http://www.w3.org/1999/xlink"
   xmlns:sodipodi="http://sodipodi.sourceforge.net/DTD/sodipodi-0.dtd"
   xmlns:inkscape="http://www.inkscape.org/namespaces/inkscape"
   width="24"
   height="24"
   version="1.1"
   viewBox="0 0 18 18"
   id="svg26"
   sodipodi:docname="steam.svg"
   inkscape:version="0.92.4 5da689c313, 2019-01-14">
  <metadata
     id="metadata30">
    <rdf:RDF>
      <cc:Work
         rdf:about="">
        <dc:format>image/svg+xml</dc:format>
        <dc:type
           rdf:resource="http://purl.org/dc/dcmitype/StillImage" />
        <dc:title />
      </cc:Work>
    </rdf:RDF>
  </metadata>
  <sodipodi:namedview
     pagecolor="#ffffff"
     bordercolor="#666666"
     borderopacity="1"
     objecttolerance="10"
     gridtolerance="10"
     guidetolerance="10"
     inkscape:pageopacity="0"
     inkscape:pageshadow="2"
     inkscape:window-width="1366"
     inkscape:window-height="691"
     id="namedview28"
     showgrid="false"
     inkscape:zoom="21.583333"
     inkscape:cx="12"
     inkscape:cy="12"
     inkscape:window-x="0"
     inkscape:window-y="0"
     inkscape:window-maximized="1"
     inkscape:current-layer="svg26" />
  <defs
     id="defs10">
    <linearGradient
       inkscape:collect="always"
       id="linearGradient912">
      <stop
         style="stop-color:#ffffff;stop-opacity:1"
         offset="0"
         id="stop908" />
      <stop
         style="stop-color:#ffffff;stop-opacity:0"
         offset="1"
         id="stop910" />
    </linearGradient>
    <clipPath
       id="clipPath4">
      <rect
         width="384"
         height="384"
         id="rect2"
         x="0"
         y="0" />
    </clipPath>
    <clipPath
       id="clipPath8">
      <rect
         width="384"
         height="384"
         id="rect6"
         x="0"
         y="0" />
    </clipPath>
    <linearGradient
       gradientUnits="userSpaceOnUse"
       y1="2.1683273"
       gradientTransform="matrix(0.03189777,0,0,0.03193203,0.82978732,0.8297879)"
       id="a"
       x2="231.73351"
       x1="257.78137"
       y2="499.57922">
      <stop
         stop-color="#111D2E"
         offset="0"
         id="stop905" />
      <stop
         stop-color="#051839"
         offset=".21248"
         id="stop907" />
      <stop
         stop-color="#0A1B48"
         offset=".40695"
         id="stop909" />
      <stop
         stop-color="#132E62"
         offset=".58110"
         id="stop911" />
      <stop
         stop-color="#144B7E"
         offset=".73760"
         id="stop913" />
      <stop
         stop-color="#136497"
         offset=".87279"
         id="stop915" />
      <stop
         stop-color="#1387B8"
         offset="1"
         id="stop917" />
    </linearGradient>
    <linearGradient
       gradientUnits="userSpaceOnUse"
       y1="2.1683273"
       gradientTransform="matrix(0.74959755,0,0,0.75040267,-5.9322034e-6,4.2372881e-7)"
       id="a-3"
       x2="231.73351"
       x1="257.78137"
       y2="499.57922">
      <stop
         stop-color="#111D2E"
         offset="0"
         id="stop905-6" />
      <stop
         stop-color="#051839"
         offset=".21248"
         id="stop907-7" />
      <stop
         stop-color="#0A1B48"
         offset=".40695"
         id="stop909-5" />
      <stop
         stop-color="#132E62"
         offset=".58110"
         id="stop911-3" />
      <stop
         stop-color="#144B7E"
         offset=".73760"
         id="stop913-5" />
      <stop
         stop-color="#136497"
         offset=".87279"
         id="stop915-6" />
      <stop
         stop-color="#1387B8"
         offset="1"
         id="stop917-2" />
    </linearGradient>
    <linearGradient
       gradientUnits="userSpaceOnUse"
       y1="2.1683273"
       gradientTransform="matrix(0.74959755,0,0,0.75040267,-159.53373,196.88136)"
       id="a-4"
       x2="231.73351"
       x1="257.78137"
       y2="499.57922">
      <stop
         stop-color="#111D2E"
         offset="0"
         id="stop905-0" />
      <stop
         stop-color="#051839"
         offset=".21248"
         id="stop907-5" />
      <stop
         stop-color="#0A1B48"
         offset=".40695"
         id="stop909-7" />
      <stop
         stop-color="#132E62"
         offset=".58110"
         id="stop911-7" />
      <stop
         stop-color="#144B7E"
         offset=".73760"
         id="stop913-3" />
      <stop
         stop-color="#136497"
         offset=".87279"
         id="stop915-2" />
      <stop
         stop-color="#1387B8"
         offset="1"
         id="stop917-8" />
    </linearGradient>
    <linearGradient
       inkscape:collect="always"
       xlink:href="#linearGradient912"
       id="linearGradient914"
       x1="190.70628"
       y1="25.220339"
       x2="196.54797"
       y2="151.32204"
       gradientUnits="userSpaceOnUse"
       gradientTransform="matrix(0.04255319,0,0,0.04255319,0.82978732,0.8297879)" />
    <linearGradient
       gradientUnits="userSpaceOnUse"
       y1="2.1683273"
       gradientTransform="matrix(0.03189777,0,0,0.03193203,3.849715,5.486159)"
       id="a-1"
       x2="231.73351"
       x1="257.78137"
       y2="499.57922">
      <stop
         stop-color="#111D2E"
         offset="0"
         id="stop905-65" />
      <stop
         stop-color="#051839"
         offset=".21248"
         id="stop907-2" />
      <stop
         stop-color="#0A1B48"
         offset=".40695"
         id="stop909-3" />
      <stop
         stop-color="#132E62"
         offset=".58110"
         id="stop911-1" />
      <stop
         stop-color="#144B7E"
         offset=".73760"
         id="stop913-1" />
      <stop
         stop-color="#136497"
         offset=".87279"
         id="stop915-4" />
      <stop
         stop-color="#1387B8"
         offset="1"
         id="stop917-4" />
    </linearGradient>
  </defs>
  <path
     inkscape:connector-curvature="0"
     style="opacity:0.2;fill:#000000;fill-opacity:1;stroke-width:0.03192179"
     d="M 1.8022716,11.907297 C 2.7298559,14.99807 5.5992213,17.25 8.9951835,17.25 c 4.1465095,0 7.5080555,-3.35794 7.5080555,-7.4999986 0,-4.1421242 -3.361545,-7.4999998 -7.5080555,-7.4999998 -3.979012,0 -7.2348016,3.0919955 -7.4919445,7.0017158 0.4858712,0.8150216 0.6754674,1.3190996 0.2991045,2.6555796 z"
     id="path922-7" />
  <path
     inkscape:connector-curvature="0"
     style="fill:url(#a);stroke-width:0.03191489"
     d="M 1.8053809,11.157296 C 2.7325646,14.248069 5.6006909,16.5 8.9951864,16.5 13.139906,16.5 16.5,13.14206 16.5,9 16.5,4.8578756 13.139906,1.5 8.9951864,1.5 c -3.9772935,0 -7.2316772,3.0919956 -7.488709,7.001716 0.4856614,0.815022 0.6751757,1.3191 0.2989753,2.65558 z"
     id="path922" />
  <path
     inkscape:connector-curvature="0"
     style="fill:#ffffff;stroke-width:0.03191489"
     d="m 8.6086021,7.121588 c 0,0.01262 0,0.02524 7e-4,0.03708 L 6.7728514,9.824676 c -0.297487,-0.01352 -0.596005,0.03862 -0.879062,0.155151 -0.12478,0.05086 -0.2417,0.113304 -0.351406,0.185407 l -4.032585,-1.65901 c 3.22e-5,0 -0.093311,1.53412 0.2955547,2.677467 l 2.8507983,1.175537 c 0.143139,0.63927 0.5819615,1.2 1.229372,1.469743 1.0592408,0.442273 2.2805615,-0.0618 2.7211887,-1.120817 0.114665,-0.276823 0.1681328,-0.567167 0.1604021,-0.856866 l 2.6276498,-1.87661 c 0.02126,7e-4 0.04316,0.0013 0.06442,0.0013 1.572468,0 2.85054,-1.281116 2.85054,-2.854378 0,-1.5733908 -1.278072,-2.8533478 -2.85054,-2.8533478 -1.5718227,0 -2.8505391,1.279957 -2.8505391,2.8533478 z m -0.4406264,5.402446 c -0.341035,0.818241 -1.2819386,1.206438 -2.0998013,0.86588 -0.3773025,-0.157081 -0.6621635,-0.44485 -0.8264965,-0.787983 l 0.927956,0.384335 c 0.6031546,0.251073 1.2951439,-0.03477 1.5458618,-0.637339 0.2514928,-0.603219 -0.033822,-1.295923 -0.6366529,-1.546996 l -0.9592629,-0.39721 c 0.370152,-0.140343 0.7909357,-0.145493 1.184085,0.01803 0.3963708,0.164806 0.7039079,0.475107 0.8668879,0.871674 0.16298,0.396567 0.1623357,0.834335 -0.00257,1.229614 M 11.459149,9.02318 c -1.04681,0 -1.8990719,-0.853004 -1.8990719,-1.901587 0,-1.0477475 0.8522619,-1.901009 1.8990719,-1.901009 1.047452,0 1.899716,0.8532615 1.899716,1.901009 0,1.048583 -0.852264,1.901587 -1.899716,1.901587 M 10.036126,7.118695 c 0,-0.7888205 0.639035,-1.4286055 1.426235,-1.4286055 0.787845,0 1.426881,0.639785 1.426881,1.4286055 0,0.788884 -0.639036,1.42809 -1.426881,1.42809 -0.7872,0 -1.426235,-0.639206 -1.426235,-1.42809 z"
     id="path924" />
  <path
     inkscape:connector-curvature="0"
     style="opacity:0.4;fill:none;stroke:url(#linearGradient914);stroke-width:0.31249997;stroke-miterlimit:4;stroke-dasharray:none;stroke-opacity:1"
     d="m 1.9535234,11.112352 c 0.9078672,3.026382 3.716241,5.231397 7.040018,5.231397 4.0583696,0 7.3484626,-3.287982 7.3484626,-7.343749 0,-4.0558298 -3.290093,-7.3437499 -7.3484626,-7.3437499 -3.8944335,0 -7.0810172,3.0275798 -7.3326943,6.8558469 0.4755435,0.798043 0.6611096,1.291618 0.2927463,2.600255 z"
     id="path922-9-7" />
</svg>
