<?xml version="1.0" encoding="UTF-8" standalone="no"?>
<svg
   xmlns:dc="http://purl.org/dc/elements/1.1/"
   xmlns:cc="http://creativecommons.org/ns#"
   xmlns:rdf="http://www.w3.org/1999/02/22-rdf-syntax-ns#"
   xmlns:svg="http://www.w3.org/2000/svg"
   xmlns="http://www.w3.org/2000/svg"
   xmlns:xlink="http://www.w3.org/1999/xlink"
   xmlns:sodipodi="http://sodipodi.sourceforge.net/DTD/sodipodi-0.dtd"
   xmlns:inkscape="http://www.inkscape.org/namespaces/inkscape"
   width="24"
   height="24"
   version="1"
   id="svg24"
   sodipodi:docname="twitter.svg"
   inkscape:version="0.92.4 5da689c313, 2019-01-14">
  <metadata
     id="metadata30">
    <rdf:RDF>
      <cc:Work
         rdf:about="">
        <dc:format>image/svg+xml</dc:format>
        <dc:type
           rdf:resource="http://purl.org/dc/dcmitype/StillImage" />
        <dc:title></dc:title>
      </cc:Work>
    </rdf:RDF>
  </metadata>
  <defs
     id="defs28">
    <linearGradient
       inkscape:collect="always"
       id="linearGradient888">
      <stop
         style="stop-color:#ffffff;stop-opacity:1"
         offset="0"
         id="stop884" />
      <stop
         style="stop-color:#ffffff;stop-opacity:0"
         offset="1"
         id="stop886" />
    </linearGradient>
    <linearGradient
       inkscape:collect="always"
       id="linearGradient845">
      <stop
         style="stop-color:#0079f1;stop-opacity:1"
         offset="0"
         id="stop841" />
      <stop
         style="stop-color:#00c3f1;stop-opacity:1"
         offset="1"
         id="stop843" />
    </linearGradient>
    <linearGradient
       inkscape:collect="always"
       xlink:href="#linearGradient845"
       id="linearGradient847"
       x1="4"
       y1="51.019531"
       x2="52.337891"
       y2="14.927734"
       gradientUnits="userSpaceOnUse"
       gradientTransform="matrix(0.35712274,0,0,0.36168207,0.57264838,0.42616967)" />
    <linearGradient
       inkscape:collect="always"
       xlink:href="#linearGradient888"
       id="linearGradient890"
       x1="56.021866"
       y1="9.7434835"
       x2="60.00246"
       y2="16.336468"
       gradientUnits="userSpaceOnUse"
       gradientTransform="matrix(0.34541619,0,0,0.3540316,-4.0501844,0.40778367)" />
  </defs>
  <sodipodi:namedview
     pagecolor="#ffffff"
     bordercolor="#666666"
     borderopacity="1"
     objecttolerance="10"
     gridtolerance="10"
     guidetolerance="10"
     inkscape:pageopacity="0"
     inkscape:pageshadow="2"
     inkscape:window-width="1366"
     inkscape:window-height="691"
     id="namedview26"
     showgrid="false"
     inkscape:zoom="10.143429"
     inkscape:cx="8.4089864"
     inkscape:cy="22.731071"
     inkscape:window-x="0"
     inkscape:window-y="0"
     inkscape:window-maximized="1"
     inkscape:current-layer="svg24" />
  <path
     style="opacity:0.2;fill:#000000;fill-opacity:1;stroke-width:0.35941538"
     d="m 15.571425,4.3616741 c -2.366934,0 -4.285714,1.943276 -4.285714,4.34043 0,0.505907 -0.01482,0.985385 -0.04255,1.4446899 -0.0031,-6.9e-5 -0.006,-7e-4 -0.0091,-7e-4 -4.4854348,2e-6 -6.6770182,-2.0250189 -8.6830292,-4.3376019 -0.354117,0.597788 -0.55106,1.69615 -0.55106,2.43796 0,1.404302 1.5070186,2.5917439 2.6109105,3.3174879 -0.6743622,-0.02102 -2.0416185,-0.327733 -2.5962615,-0.630858 -4.79e-4,0.01687 -6.95e-4,0.03379 -6.95e-4,0.05087 -2e-6,1.961057 2.5967207,4.417777 4.0631969,4.952214 -1.4664762,0 -2.8351642,-0.666889 -3.3628639,-0.666889 0.4893023,1.502799 2.7257423,2.645361 4.4859107,2.815202 -1.2361846,0.840814 -2.6807188,1.533705 -4.2278185,1.533705 -0.3292112,0 -0.6532962,-0.02042 -0.9723782,-0.05793 C 3.8050241,20.712488 5.9492348,21 8.2527627,21 15.497823,21 19.570938,15.11815 19.841769,9.8818891 c 0.778698,-0.57637 1.628262,-1.484913 2.158203,-2.264878 -0.12565,0.05484 -0.261542,0.109312 -0.395507,0.163896 0.141964,-0.177817 0.279936,-0.355502 0.395507,-0.525599 -0.546776,0.238636 -1.183557,0.486395 -1.814313,0.637924 0.543392,-0.483165 0.973021,-1.107885 1.196288,-1.795089 -0.06126,0.03575 -0.125935,0.06837 -0.189731,0.101728 0.0723,-0.151179 0.138189,-0.304798 0.189731,-0.463442 -0.619536,0.361547 -1.37469,0.594814 -2.118443,0.769324 -0.744945,-1.281616 -2.117435,-2.144074 -3.692105,-2.144074 z"
     id="path4-9"
     inkscape:connector-curvature="0" />
  <path
     style="opacity:1;fill:url(#linearGradient847);fill-opacity:1;stroke-width:0.35939518"
     d="m 15.571804,3.6813083 c -2.366801,0 -4.285473,1.9431668 -4.285473,4.3401855 0,0.5058786 -0.01482,0.9853293 -0.04255,1.4446086 -0.0031,-6.85e-5 -0.006,-7e-4 -0.0091,-7e-4 C 6.7494968,9.4654053 4.5580368,7.4404981 2.5521396,5.1280453 2.1980416,5.7257995 2.0011103,6.8241 2.0011104,7.5658673 c 0,1.4042237 1.5069331,2.5915987 2.6107626,3.3173027 -0.6743239,-0.02102 -2.0415031,-0.327715 -2.596115,-0.630824 -4.785e-4,0.01687 -6.95e-4,0.03379 -6.95e-4,0.05086 -1.1e-6,1.960949 2.5965747,4.41753 4.062968,4.951937 -1.4663933,0 -2.8350044,-0.666852 -3.3626737,-0.666852 0.4892741,1.502715 2.7255882,2.645212 4.4856574,2.815045 -1.2361146,0.840766 -2.680568,1.533617 -4.2275805,1.533617 -0.3291922,0 -0.6532591,-0.02042 -0.9723225,-0.05793 1.8049489,1.152169 3.9490388,1.439665 6.2524378,1.439665 7.2446525,0 11.3175385,-5.881519 11.5883545,-11.1174861 0.778654,-0.5763379 1.62817,-1.48483 2.158082,-2.2647505 -0.125643,0.054836 -0.261528,0.1093056 -0.395485,0.1638866 0.141956,-0.1778073 0.27992,-0.3554813 0.395485,-0.5255695 -0.546716,0.2386247 -1.183462,0.4863703 -1.814183,0.6378911 0.543362,-0.4831383 0.972967,-1.1078235 1.196222,-1.7949888 -0.06126,0.035748 -0.125928,0.068365 -0.189721,0.1017231 0.0723,-0.1511709 0.138181,-0.3047816 0.189721,-0.4634171 -0.619502,0.3615265 -1.374613,0.5947813 -2.118324,0.7692809 -0.744904,-1.281543 -2.117316,-2.1439534 -3.691897,-2.1439534 z"
     id="path4"
     inkscape:connector-curvature="0" />
  <path
     inkscape:connector-curvature="0"
     style="opacity:0.4;fill:none;fill-opacity:1;stroke:url(#linearGradient890);stroke-width:0.34969735;stroke-opacity:1"
     d="m 15.300674,3.857285 c -2.289216,0 -4.144994,1.9020638 -4.144994,4.2483788 0,0.4951779 -0.01434,0.9644886 -0.04115,1.4140522 -0.0029,-6.57e-5 -0.0058,-7e-4 -0.0088,-7e-4 C 6.7675965,9.5190182 4.6479732,7.536943 2.7078295,5.2734041 2.365339,5.8585154 2.174863,6.9335836 2.174863,7.6596598 c 0,1.3745212 1.4575355,2.5367802 2.5251816,3.2471332 -0.6522195,-0.02058 -1.9745826,-0.320783 -2.511014,-0.617481 -4.499e-4,0.01652 -6.899e-4,0.03307 -6.899e-4,0.04979 -10e-7,1.919469 2.5114582,4.324088 3.9297829,4.84719 -1.4183247,0 -2.7420725,-0.652746 -3.2524446,-0.652746 0.4732358,1.47093 2.6362435,2.58926 4.3386168,2.7555 -1.1955948,0.822982 -2.5926987,1.501178 -4.0889996,1.501178 -0.3184013,0 -0.6318454,-0.01999 -0.9404495,-0.0567 1.7457822,1.127798 3.8195886,1.409212 6.0474811,1.409212 7.0071712,0 10.9465482,-5.75711 11.2084872,-10.8823222 0.753129,-0.5641472 1.574797,-1.453423 2.087339,-2.2168474 -0.121524,0.053677 -0.252955,0.1069947 -0.382522,0.1604213 0.137303,-0.1740466 0.270745,-0.3479611 0.382522,-0.5144522 -0.528823,0.2335749 -1.144697,0.4760803 -1.754742,0.6243952 0.52555,-0.4729179 0.941073,-1.0843902 1.15701,-1.7570197 -0.05925,0.034988 -0.121801,0.066919 -0.183502,0.099572 0.06993,-0.1479625 0.133651,-0.2983229 0.183502,-0.453603 -0.599194,0.3538709 -1.329552,0.582192 -2.048885,0.7529993 -0.720468,-1.254437 -2.047893,-2.098605 -3.570859,-2.098605 z"
     id="path4-5" />
</svg>
