<?xml version="1.0" encoding="UTF-8" standalone="no"?>
<svg
   xmlns:dc="http://purl.org/dc/elements/1.1/"
   xmlns:cc="http://creativecommons.org/ns#"
   xmlns:rdf="http://www.w3.org/1999/02/22-rdf-syntax-ns#"
   xmlns:svg="http://www.w3.org/2000/svg"
   xmlns="http://www.w3.org/2000/svg"
   xmlns:xlink="http://www.w3.org/1999/xlink"
   xmlns:sodipodi="http://sodipodi.sourceforge.net/DTD/sodipodi-0.dtd"
   xmlns:inkscape="http://www.inkscape.org/namespaces/inkscape"
   width="24"
   height="24"
   version="1.1"
   viewBox="0 0 18 18"
   id="svg14"
   sodipodi:docname="utilities-terminal_su.svg"
   inkscape:version="0.92.3 (2405546, 2018-03-11)">
  <metadata
     id="metadata20">
    <rdf:RDF>
      <cc:Work
         rdf:about="">
        <dc:format>image/svg+xml</dc:format>
        <dc:type
           rdf:resource="http://purl.org/dc/dcmitype/StillImage" />
        <dc:title></dc:title>
      </cc:Work>
    </rdf:RDF>
  </metadata>
  <defs
     id="defs18">
    <linearGradient
       id="linearGradient896"
       inkscape:collect="always">
      <stop
         id="stop892"
         offset="0"
         style="stop-color:#ffffff;stop-opacity:1" />
      <stop
         id="stop894"
         offset="1"
         style="stop-color:#ffffff;stop-opacity:0" />
    </linearGradient>
    <linearGradient
       inkscape:collect="always"
       id="linearGradient864">
      <stop
         style="stop-color:#000000;stop-opacity:1;"
         offset="0"
         id="stop860" />
      <stop
         style="stop-color:#000000;stop-opacity:0;"
         offset="1"
         id="stop862" />
    </linearGradient>
    <linearGradient
       inkscape:collect="always"
       xlink:href="#linearGradient864"
       id="linearGradient866"
       x1="193.9409"
       y1="359.58432"
       x2="194.30173"
       y2="343.67441"
       gradientUnits="userSpaceOnUse"
       gradientTransform="matrix(0.04255319,0,0,0.04255319,0.82978716,366.82978)" />
    <linearGradient
       gradientTransform="matrix(0.04255319,0,0,-0.04255319,0.82978752,383.17021)"
       inkscape:collect="always"
       xlink:href="#linearGradient896"
       id="linearGradient866-2"
       x1="193.9409"
       y1="359.58432"
       x2="194.30173"
       y2="343.67441"
       gradientUnits="userSpaceOnUse" />
  </defs>
  <sodipodi:namedview
     pagecolor="#ffffff"
     bordercolor="#666666"
     borderopacity="1"
     objecttolerance="10"
     gridtolerance="10"
     guidetolerance="10"
     inkscape:pageopacity="0"
     inkscape:pageshadow="2"
     inkscape:window-width="1366"
     inkscape:window-height="704"
     id="namedview16"
     showgrid="false"
     inkscape:zoom="15.65625"
     inkscape:cx="9.1533244"
     inkscape:cy="10.857367"
     inkscape:window-x="0"
     inkscape:window-y="30"
     inkscape:window-maximized="1"
     inkscape:current-layer="g8"
     showguides="false" />
  <g
     id="g8"
     style="fill-rule:evenodd"
     transform="translate(0,-366)">
    <path
       d="M 2.1643646,367.5 H 15.835803 c 0.366869,0 0.664197,0.37884 0.664197,0.84624 v 13.3073 c 0,0.46742 -0.297338,0.84646 -0.664197,0.84646 H 2.1643646 C 1.7974961,382.5 1.5,382.12094 1.5,381.65354 v -13.3073 C 1.5,367.87883 1.7975129,367.5 2.1643646,367.5 Z"
       id="path6"
       style="fill:#da0c0c;fill-opacity:1;stroke:none;stroke-width:0.65397179;stroke-linejoin:round;stroke-miterlimit:4;stroke-dasharray:none"
       inkscape:connector-curvature="0" />
    <path
       d="M 2.3067743,382.34375 H 15.693389 c 0.359227,0 0.65036,-0.37095 0.65036,-0.82862 v -13.03005 c 0,-0.45769 -0.291143,-0.82883 -0.65036,-0.82883 H 2.3067743 c -0.3592254,0 -0.6505239,0.37116 -0.6505239,0.82883 v 13.03005 c 0,0.45768 0.2913146,0.82862 0.6505239,0.82862 z"
       id="path6-2-1"
       style="opacity:0.3;fill:none;fill-opacity:1;stroke:url(#linearGradient866-2);stroke-width:0.3125;stroke-linejoin:round;stroke-miterlimit:4;stroke-dasharray:none;stroke-opacity:1"
       inkscape:connector-curvature="0" />
    <path
       d="M 2.3067739,367.65625 H 15.693391 c 0.359225,0 0.650358,0.37094 0.650358,0.82862 v 13.03005 c 0,0.45769 -0.291143,0.82883 -0.650358,0.82883 H 2.3067739 c -0.3592257,0 -0.6505239,-0.37116 -0.6505239,-0.82883 v -13.03005 c 0,-0.45769 0.2913146,-0.82862 0.6505239,-0.82862 z"
       id="path6-2"
       style="fill:none;fill-opacity:1;stroke:url(#linearGradient866);stroke-width:0.31250003;stroke-linejoin:round;stroke-miterlimit:4;stroke-dasharray:none;stroke-opacity:1;opacity:0.2"
       inkscape:connector-curvature="0" />
  </g>
  <path
     d="M 9.3138214,9.3559851 V 9.75 H 6.3811828 V 9.3559851 Z"
     id="path10"
     inkscape:connector-curvature="0"
     style="fill:#ffffff;stroke-width:0.07277561" />
  <path
     d="M 4.3679181,4.1561679 V 4.8142778 C 4.0463954,4.8506663 3.7948099,4.9459003 3.6143261,5.1013992 3.4141934,5.2742413 3.3138428,5.510478 3.3138428,5.8098265 c 0,0.2757538 0.092106,0.4926545 0.2757546,0.6507157 0.1682931,0.1432811 0.4286916,0.2484631 0.7783352,0.3161223 V 8.0487826 C 4.2022007,8.0388325 4.0401585,8.010689 3.8818129,7.9626453 3.6907768,7.9018099 3.5014444,7.8128294 3.3138214,7.6951367 v 0.4963515 c 0.1950167,0.082724 0.3888983,0.1449828 0.5816372,0.1873391 0.1574931,0.032973 0.3149799,0.053154 0.472474,0.061688 V 9.2745971 H 4.8620135 V 8.4288711 C 5.2017299,8.3910665 5.466393,8.2921333 5.6543213,8.1309427 5.8638351,7.9507062 5.9684496,7.7053801 5.9684496,7.3949628 c 0,-0.2868384 -0.098362,-0.5128432 -0.294799,-0.6782905 C 5.4945569,6.5662898 5.2233515,6.4582613 4.8620568,6.3914533 V 5.2028821 c 0.1307708,0.011647 0.2589792,0.033544 0.3843424,0.066805 0.1614745,0.042359 0.3186777,0.1017688 0.4710551,0.1790936 V 4.966359 C 5.5650769,4.9166102 5.4090094,4.8782352 5.2489609,4.8506605 5.1235909,4.8276331 4.9945305,4.8114287 4.8620568,4.8020481 V 4.1561645 Z m 0,1.0529902 V 6.3010836 C 4.1939403,6.2618528 4.0628863,6.2058496 3.9756134,6.1325058 3.8727017,6.0440982 3.8212495,5.9210058 3.8212495,5.7629443 c 0,-0.1614745 0.056003,-0.2911027 0.1680093,-0.388607 0.092106,-0.079887 0.2186102,-0.1347522 0.3786589,-0.1651652 z m 0.4940807,1.6656153 c 0.1887651,0.043782 0.3309033,0.106034 0.4255698,0.1864874 0.1139952,0.095518 0.1708551,0.2242945 0.1708551,0.3860529 0,0.1651652 -0.059699,0.298497 -0.1790937,0.399698 -0.098362,0.084434 -0.2379396,0.1441328 -0.4173241,0.1799526 z"
     id="path12"
     inkscape:connector-curvature="0"
     style="fill:#ffffff;stroke-width:0.07277561" />
</svg>
