<?xml version="1.0" encoding="UTF-8" standalone="no"?>
<svg
   xmlns:dc="http://purl.org/dc/elements/1.1/"
   xmlns:cc="http://creativecommons.org/ns#"
   xmlns:rdf="http://www.w3.org/1999/02/22-rdf-syntax-ns#"
   xmlns:svg="http://www.w3.org/2000/svg"
   xmlns="http://www.w3.org/2000/svg"
   xmlns:xlink="http://www.w3.org/1999/xlink"
   xmlns:sodipodi="http://sodipodi.sourceforge.net/DTD/sodipodi-0.dtd"
   xmlns:inkscape="http://www.inkscape.org/namespaces/inkscape"
   width="24"
   height="24"
   version="1"
   id="svg12"
   sodipodi:docname="utilities-tweak-tool.svg"
   inkscape:version="0.92.4 5da689c313, 2019-01-14">
  <metadata
     id="metadata18">
    <rdf:RDF>
      <cc:Work
         rdf:about="">
        <dc:format>image/svg+xml</dc:format>
        <dc:type
           rdf:resource="http://purl.org/dc/dcmitype/StillImage" />
        <dc:title />
      </cc:Work>
    </rdf:RDF>
  </metadata>
  <defs
     id="defs16">
    <linearGradient
       id="linearGradient4679"
       inkscape:collect="always">
      <stop
         id="stop4675"
         offset="0"
         style="stop-color:#ffffff;stop-opacity:1" />
      <stop
         id="stop4677"
         offset="1"
         style="stop-color:#ffffff;stop-opacity:0" />
    </linearGradient>
    <linearGradient
       inkscape:collect="always"
       id="linearGradient4607">
      <stop
         style="stop-color:#646464;stop-opacity:1;"
         offset="0"
         id="stop4603" />
      <stop
         style="stop-color:#8c8c8c;stop-opacity:1"
         offset="1"
         id="stop4605" />
    </linearGradient>
    <linearGradient
       inkscape:collect="always"
       id="linearGradient4535">
      <stop
         style="stop-color:#dcdcdc;stop-opacity:1"
         offset="0"
         id="stop4531" />
      <stop
         style="stop-color:#f0f0f0;stop-opacity:1"
         offset="1"
         id="stop4533" />
    </linearGradient>
    <linearGradient
       inkscape:collect="always"
       xlink:href="#linearGradient4535"
       id="linearGradient4537"
       x1="30.529007"
       y1="4"
       x2="33.508476"
       y2="59.389832"
       gradientUnits="userSpaceOnUse"
       gradientTransform="matrix(0.25132274,0,0,-0.25510203,3.9576721,20.163265)" />
    <linearGradient
       inkscape:collect="always"
       xlink:href="#linearGradient4607"
       id="linearGradient4609"
       x1="4"
       y1="32"
       x2="60"
       y2="32"
       gradientUnits="userSpaceOnUse"
       gradientTransform="matrix(0.35714285,0,0,0.35714285,-23.428571,0.57142865)" />
    <linearGradient
       gradientTransform="matrix(0.35714285,0,0,0.35714285,23.428571,0.57142918)"
       inkscape:collect="always"
       xlink:href="#linearGradient4679"
       id="linearGradient4649-8"
       x1="-60"
       y1="32"
       x2="-40.570034"
       y2="32"
       gradientUnits="userSpaceOnUse" />
    <filter
       inkscape:collect="always"
       style="color-interpolation-filters:sRGB"
       id="filter4721"
       x="-0.049263157"
       width="1.0985264"
       y="-0.046799999"
       height="1.0936">
      <feGaussianBlur
         inkscape:collect="always"
         stdDeviation="0.78"
         id="feGaussianBlur4723" />
    </filter>
  </defs>
  <sodipodi:namedview
     pagecolor="#ffffff"
     bordercolor="#666666"
     borderopacity="1"
     objecttolerance="10"
     gridtolerance="10"
     guidetolerance="10"
     inkscape:pageopacity="0"
     inkscape:pageshadow="2"
     inkscape:window-width="1366"
     inkscape:window-height="691"
     id="namedview14"
     showgrid="false"
     inkscape:zoom="21.583333"
     inkscape:cx="12"
     inkscape:cy="12"
     inkscape:window-x="0"
     inkscape:window-y="0"
     inkscape:window-maximized="1"
     inkscape:current-layer="svg12" />
  <rect
     style="opacity:0.2;fill:#000000;fill-opacity:1;stroke:none;stroke-width:0.30767652;stroke-miterlimit:4;stroke-dasharray:none;stroke-opacity:0"
     id="rect4601-5"
     width="20"
     height="20"
     x="-23"
     y="2"
     rx="10"
     ry="10"
     transform="rotate(-90)" />
  <rect
     style="opacity:1;fill:url(#linearGradient4609);fill-opacity:1;stroke:none;stroke-width:0.30767652;stroke-miterlimit:4;stroke-dasharray:none;stroke-opacity:0"
     id="rect4601"
     width="20"
     height="20"
     x="-22"
     y="2"
     rx="10"
     ry="10"
     transform="rotate(-90)" />
  <path
     style="fill:#000000;fill-opacity:1;stroke:none;stroke-width:0.72662705;filter:url(#filter4721)"
     d="m 30.964856,37 c -2.293237,0 -4.139128,-1.783721 -4.139128,-3.999721 v -1.875 a 15.522816,15 0 0 1 -4.895635,-2.73298 l -1.681927,0.9375 c -1.986002,1.108 -4.508411,0.454268 -5.65503,-1.464843 l -1.035143,-1.729912 c -1.146618,-1.919113 -0.470102,-4.356564 1.5159,-5.464564 l 1.674709,-0.93471 A 15.522816,15 0 0 1 16.477183,17 15.522816,15 0 0 1 16.748602,14.26423 l -1.674709,-0.93471 c -1.986002,-1.108 -2.662518,-3.545452 -1.5159,-5.464564 l 1.035143,-1.729912 c 1.146619,-1.919112 3.669029,-2.572843 5.65503,-1.464843 l 1.670376,0.93192 A 15.522816,15 0 0 1 26.825728,2.878906 V 0.999721 C 26.825728,-1.216279 28.671619,-3 30.964856,-3 h 2.070287 c 2.293238,0 4.139129,1.783721 4.139129,3.999721 v 1.88616 a 15.522816,15 0 0 1 4.895635,2.72182 l 1.681928,-0.9375 c 1.986001,-1.108 4.508409,-0.454269 5.655028,1.464843 l 1.035143,1.729912 c 1.146619,1.919112 0.470101,4.356564 -1.5159,5.464564 l -1.674709,0.93471 A 15.522816,15 0 0 1 47.522815,17 15.522816,15 0 0 1 47.251397,19.73577 l 1.674709,0.93471 c 1.986002,1.108 2.662519,3.545451 1.5159,5.464564 l -1.035143,1.729912 c -1.146619,1.919113 -3.669028,2.572843 -5.655028,1.464843 l -1.670379,-0.93192 a 15.522816,15 0 0 1 -4.907184,2.72461 v 1.87779 c 0,2.216 -1.845891,3.999721 -4.139129,3.999721 z m 1.035143,-11.429966 c 4.898721,0 8.870181,-3.8377 8.870181,-8.571429 0,-4.733729 -3.97146,-8.570034 -8.870181,-8.570034 -4.89872,0 -8.870179,3.836305 -8.870179,8.570034 0,4.733729 3.971459,8.571429 8.870179,8.571429 z"
     id="path4-6"
     inkscape:connector-curvature="0"
     transform="matrix(0.35714285,0,0,0.35714285,0.5714286,6.6171426)" />
  <path
     style="fill:url(#linearGradient4537);fill-opacity:1;stroke-width:0.25950965"
     d="m 11.630306,19.142857 c -0.819013,0 -1.47826,-0.637043 -1.47826,-1.428471 V 17.044743 A 5.543863,5.357143 0 0 1 8.403605,16.068679 L 7.8029171,16.4035 C 7.0936306,16.799214 6.1927699,16.565739 5.7832629,15.880341 L 5.4135694,15.262516 C 5.0040629,14.577119 5.2456754,13.7066 5.9549619,13.310886 L 6.553072,12.977061 A 5.543863,5.357143 0 0 1 6.456137,12 5.543863,5.357143 0 0 1 6.553072,11.022939 L 5.9549619,10.689114 C 5.2456754,10.2934 5.0040629,9.4228815 5.4135694,8.7374843 L 5.7832629,8.1196587 C 6.1927699,7.4342614 7.0936306,7.2007864 7.8029171,7.5965004 L 8.3994792,7.9293286 A 5.543863,5.357143 0 0 1 10.152046,6.9567524 V 6.2856149 c 0,-0.7914285 0.659247,-1.4284719 1.47826,-1.4284719 h 0.739388 c 0.819014,0 1.47826,0.6370434 1.47826,1.4284719 v 0.6736285 a 5.543863,5.357143 0 0 1 1.748442,0.9720787 l 0.600688,-0.3348217 c 0.709286,-0.395714 1.610146,-0.162239 2.019653,0.5231582 l 0.369694,0.6178257 c 0.409506,0.6853971 0.167893,1.5559157 -0.541393,1.9516297 l -0.598111,0.333825 A 5.543863,5.357143 0 0 1 17.543862,12 a 5.543863,5.357143 0 0 1 -0.09694,0.977061 l 0.598111,0.333825 c 0.709286,0.395714 0.950899,1.266233 0.541393,1.95163 l -0.369694,0.617825 C 17.80723,16.565739 16.90637,16.799214 16.197084,16.4035 L 15.60052,16.070671 a 5.543863,5.357143 0 0 1 -1.752566,0.973075 v 0.67064 c 0,0.791428 -0.659246,1.428471 -1.47826,1.428471 z M 12,15.060726 c 1.749543,0 3.167921,-1.370607 3.167921,-3.061224 0,-1.690618 -1.418378,-3.0607262 -3.167921,-3.0607262 -1.749543,0 -3.1679208,1.3701082 -3.1679208,3.0607262 0,1.690617 1.4183778,3.061224 3.1679208,3.061224 z"
     id="path4"
     inkscape:connector-curvature="0" />
  <rect
     style="opacity:0.5;fill:none;fill-opacity:1;stroke:url(#linearGradient4649-8);stroke-width:0.35617584;stroke-miterlimit:4;stroke-dasharray:none;stroke-opacity:1"
     id="rect4601-7-0"
     width="19.643824"
     height="19.643824"
     x="2.1780882"
     y="2.1780882"
     rx="9.8219118"
     ry="9.8219118"
     transform="matrix(0,1,1,0,0,0)" />
</svg>
