<?xml version="1.0" encoding="UTF-8" standalone="no"?>
<svg
   xmlns:dc="http://purl.org/dc/elements/1.1/"
   xmlns:cc="http://creativecommons.org/ns#"
   xmlns:rdf="http://www.w3.org/1999/02/22-rdf-syntax-ns#"
   xmlns:svg="http://www.w3.org/2000/svg"
   xmlns="http://www.w3.org/2000/svg"
   xmlns:sodipodi="http://sodipodi.sourceforge.net/DTD/sodipodi-0.dtd"
   xmlns:inkscape="http://www.inkscape.org/namespaces/inkscape"
   width="24"
   height="24"
   version="1.1"
   viewBox="0 0 18 18"
   id="svg12"
   sodipodi:docname="whatsapp.svg"
   inkscape:version="0.92.4 5da689c313, 2019-01-14">
  <metadata
     id="metadata18">
    <rdf:RDF>
      <cc:Work
         rdf:about="">
        <dc:format>image/svg+xml</dc:format>
        <dc:type
           rdf:resource="http://purl.org/dc/dcmitype/StillImage" />
        <dc:title />
      </cc:Work>
    </rdf:RDF>
  </metadata>
  <defs
     id="defs16">
    <linearGradient
       id="linearGradient2630"
       x2="1"
       gradientTransform="matrix(0,-15.066994,15.066994,0,8.9999984,16.534675)"
       gradientUnits="userSpaceOnUse">
      <stop
         stop-color="#f9f9f9"
         offset="0"
         id="stop963" />
      <stop
         stop-color="#fff"
         offset="1"
         id="stop965" />
    </linearGradient>
    <linearGradient
       id="linearGradient2628"
       x2="1"
       gradientTransform="matrix(0,-14.545587,14.545587,0,8.9999563,16.272036)"
       gradientUnits="userSpaceOnUse">
      <stop
         stop-color="#20b038"
         offset="0"
         id="stop958" />
      <stop
         stop-color="#60d66a"
         offset="1"
         id="stop960" />
    </linearGradient>
    <linearGradient
       id="linearGradient2630-5"
       x2="1"
       gradientTransform="matrix(0,-15.066994,15.066994,0,6.1853763,23.553237)"
       gradientUnits="userSpaceOnUse">
      <stop
         stop-color="#f9f9f9"
         offset="0"
         id="stop963-1" />
      <stop
         stop-color="#fff"
         offset="1"
         id="stop965-4" />
    </linearGradient>
  </defs>
  <sodipodi:namedview
     pagecolor="#ffffff"
     bordercolor="#666666"
     borderopacity="1"
     objecttolerance="10"
     gridtolerance="10"
     guidetolerance="10"
     inkscape:pageopacity="0"
     inkscape:pageshadow="2"
     inkscape:window-width="1366"
     inkscape:window-height="691"
     id="namedview14"
     showgrid="false"
     inkscape:zoom="21.583333"
     inkscape:cx="12"
     inkscape:cy="19.413127"
     inkscape:window-x="0"
     inkscape:window-y="0"
     inkscape:window-maximized="1"
     inkscape:current-layer="svg12" />
  <path
     inkscape:connector-curvature="0"
     style="opacity:0.2;fill:#000000;fill-opacity:1;stroke-width:0.21527964"
     d="m 1.5627845,9.648907 c -4.643e-4,1.315769 0.3433504,2.60036 0.9968732,3.732516 L 1.5000495,17.25 5.4592585,16.211899 c 1.0908868,0.594882 2.3189944,0.908394 3.5689063,0.90891 h 0.0033 c 4.1159352,0 7.4667622,-3.349749 7.4684852,-7.466112 9e-4,-1.995102 -0.77556,-3.870942 -2.185514,-5.282103 -1.410164,-1.4111561 -3.285168,-2.1887464 -5.2829615,-2.189608 -4.1167914,0 -7.4669743,3.349107 -7.4686975,7.465684 m 2.3577078,3.537688 -0.1477924,-0.23474 C 3.1512227,11.963571 2.8232227,10.821643 2.8236745,9.64923 2.8250674,6.227788 5.6096125,3.4440068 9.0336338,3.4440068 10.691761,3.4444711 12.250128,4.091074 13.422328,5.263894 c 1.172065,1.172908 1.816999,2.732117 1.816547,4.390202 -0.0014,3.421655 -2.786147,6.20565 -6.2075895,6.20565 h -0.00232 C 7.9149523,15.859282 6.8223838,15.560053 5.8695553,14.994643 l -0.226735,-0.134425 -2.349565,0.616003 z m 5.1109537,3.934451 h 8.55e-5 -8.55e-5 c -8.48e-5,0 -1.695e-4,0 0,0"
     id="path980-5" />
  <path
     inkscape:connector-curvature="0"
     style="fill:#ffffff;stroke-width:0.21527965"
     d="m 5.6427138,14.142922 0.226777,0.134426 c 0.9528933,0.565498 2.0453732,0.864562 3.1594447,0.865168 h 0.00229 c 3.4214415,0 6.2060795,-2.783997 6.2073745,-6.2056514 4.6e-4,-1.6582803 -0.644486,-3.2173544 -1.816472,-4.3904162 -1.172067,-1.1728427 -2.730391,-1.8191977 -4.3886918,-1.819887 -3.4240252,0 -6.2086682,2.7835678 -6.2099586,6.2052232 -4.643e-4,1.1725214 0.3275482,2.3144714 0.949019,3.3023884 l 0.1477275,0.234824 -0.6272411,2.289932 z m -4.1426255,2.389819 1.0595196,-3.86879 C 1.9060851,11.531668 1.5622826,10.247221 1.5628183,8.9314353 1.5642111,4.8148573 4.9145106,1.4657499 9.0315155,1.4657499 11.029273,1.4666785 12.904401,2.2441134 14.314481,3.655358 15.724412,5.0665842 16.500647,6.9424668 16.5,8.937461 c -0.0019,4.116362 -3.352549,7.466113 -7.4684845,7.466113 -2.979e-4,0 1.707e-4,0 0,0 h -0.00329 C 7.7783169,16.403145 6.5501499,16.089611 5.4593276,15.494664 Z"
     id="path976" />
  <path
     inkscape:connector-curvature="0"
     style="fill:url(#linearGradient2628);stroke-width:0.21527965"
     d="M 1.8202083,8.9353096 C 1.819744,10.205436 2.1516311,11.44547 2.7826819,12.538657 l -1.0229218,3.734887 3.8220727,-1.002187 c 1.0530649,0.573849 2.2386962,0.876787 3.4453377,0.877179 h 0.00329 c 3.9736335,0 7.2079925,-3.233502 7.2097165,-7.2075672 9.24e-4,-1.9259125 -0.748569,-3.7366061 -2.109891,-5.0991113 -1.361098,-1.362314 -3.171279,-2.1129706 -5.1001869,-2.113874 -3.9738468,0 -7.2082062,3.2330692 -7.209929,7.2073446 m 7.210144,7.2131609 h 8.5e-5 -8.5e-5 c -8.5e-5,0 -1.279e-4,0 0,0"
     id="path978" />
  <path
     inkscape:connector-curvature="0"
     style="fill:url(#linearGradient2630);stroke-width:0.21527965"
     d="m 1.5627347,8.9331574 c -4.643e-4,1.3157686 0.3433504,2.6003596 0.9968732,3.7325156 l -1.0596082,3.868577 3.9592091,-1.0381 c 1.0908868,0.594881 2.3189945,0.908393 3.5689067,0.908909 h 0.00329 c 4.1159345,0 7.4667615,-3.349749 7.4684845,-7.4661122 9.24e-4,-1.9951015 -0.77556,-3.8709421 -2.185514,-5.2821033 -1.410154,-1.4111557 -3.285157,-2.188746 -5.2829512,-2.1896076 -4.1167914,0 -7.4669744,3.3491071 -7.4686976,7.4656837 M 3.9204351,12.470608 3.7726426,12.235868 C 3.151173,11.247821 2.823173,10.105893 2.8236247,8.9334796 2.8250176,5.5120382 5.6095628,2.7282567 9.0335841,2.7282567 10.691711,2.728721 12.250078,3.375324 13.422278,4.5481438 c 1.172065,1.1729079 1.816999,2.7321175 1.816547,4.3902022 -0.0014,3.421655 -2.786147,6.20565 -6.2075888,6.20565 h -0.00229 C 7.9149026,15.143532 6.8223341,14.844304 5.8695056,14.278894 l -0.226735,-0.134426 -2.3495651,0.616003 z m 5.110954,3.934451 h 8.5e-5 -8.5e-5 c -8.5e-5,0 -1.7e-4,0 0,0"
     id="path980" />
  <path
     inkscape:connector-curvature="0"
     style="fill:#ffffff;fill-rule:evenodd;stroke-width:0.21527965"
     d="M 7.1647434,5.8116002 C 7.0249242,5.5008232 6.8778163,5.4946012 6.7448391,5.4891337 c -0.1088285,-0.00465 -0.2332964,-0.0042 -0.3576213,-0.0042 -0.1244775,0 -0.3266445,0.04671 -0.497598,0.233451 -0.171107,0.1867511 -0.6532005,0.6381716 -0.6532005,1.5562746 0,0.9181917 0.6687845,1.8053788 0.7619595,1.930006 0.093334,0.1243986 1.2910104,2.0687717 3.1876453,2.8167177 1.5764089,0.62162 1.8971959,0.497985 2.2393409,0.466836 0.342144,-0.03106 1.104104,-0.451271 1.259558,-0.887038 0.155537,-0.435706 0.155537,-0.809195 0.108903,-0.887192 -0.04663,-0.07777 -0.171103,-0.124473 -0.357705,-0.217732 -0.186676,-0.09334 -1.104105,-0.5448288 -1.275123,-0.6071117 -0.171107,-0.0622 -0.295515,-0.093264 -0.419993,0.093567 -0.124398,0.1865967 -0.481795,0.6068087 -0.590704,0.7312807 -0.108829,0.124706 -0.2177319,0.140276 -0.4043398,0.04694 C 9.5592848,10.667291 8.9582555,10.470434 8.2452676,9.8347774 7.6904955,9.340151 7.3159913,8.7293131 7.2070842,8.5424731 7.0982549,8.355876 7.1954892,8.2547967 7.2890306,8.1617517 7.372877,8.0781331 7.4757063,7.943866 7.5690456,7.8349581 7.6621505,7.7259759 7.6932155,7.6482067 7.7554147,7.5237293 7.8176933,7.3991768 7.7865719,7.2901943 7.7399076,7.1968468 7.6932047,7.1035083 7.3305542,6.1806823 7.164617,5.8116742"
     id="path982" />
</svg>
