<?xml version="1.0" encoding="UTF-8" standalone="no"?>
<svg
   xmlns:dc="http://purl.org/dc/elements/1.1/"
   xmlns:cc="http://creativecommons.org/ns#"
   xmlns:rdf="http://www.w3.org/1999/02/22-rdf-syntax-ns#"
   xmlns:svg="http://www.w3.org/2000/svg"
   xmlns="http://www.w3.org/2000/svg"
   xmlns:xlink="http://www.w3.org/1999/xlink"
   xmlns:sodipodi="http://sodipodi.sourceforge.net/DTD/sodipodi-0.dtd"
   xmlns:inkscape="http://www.inkscape.org/namespaces/inkscape"
   width="24"
   height="24"
   version="1"
   id="svg16"
   sodipodi:docname="yast.svg"
   inkscape:version="0.92.4 5da689c313, 2019-01-14">
  <metadata
     id="metadata22">
    <rdf:RDF>
      <cc:Work
         rdf:about="">
        <dc:format>image/svg+xml</dc:format>
        <dc:type
           rdf:resource="http://purl.org/dc/dcmitype/StillImage" />
        <dc:title />
      </cc:Work>
    </rdf:RDF>
  </metadata>
  <defs
     id="defs20">
    <linearGradient
       inkscape:collect="always"
       id="linearGradient833">
      <stop
         style="stop-color:#c8c8c8;stop-opacity:1"
         offset="0"
         id="stop829" />
      <stop
         style="stop-color:#dcdcdc;stop-opacity:1"
         offset="1"
         id="stop831" />
    </linearGradient>
    <linearGradient
       inkscape:collect="always"
       xlink:href="#linearGradient833"
       id="linearGradient835"
       x1="33.016949"
       y1="58.576271"
       x2="32.203388"
       y2="5.1525426"
       gradientUnits="userSpaceOnUse"
       gradientTransform="matrix(0.35714285,0,0,0.35714285,0.57142857,0.57142862)" />
  </defs>
  <sodipodi:namedview
     pagecolor="#ffffff"
     bordercolor="#666666"
     borderopacity="1"
     objecttolerance="10"
     gridtolerance="10"
     guidetolerance="10"
     inkscape:pageopacity="0"
     inkscape:pageshadow="2"
     inkscape:window-width="1366"
     inkscape:window-height="691"
     id="namedview18"
     showgrid="false"
     inkscape:zoom="21.583333"
     inkscape:cx="12"
     inkscape:cy="12"
     inkscape:window-x="0"
     inkscape:window-y="0"
     inkscape:window-maximized="1"
     inkscape:current-layer="svg16" />
  <rect
     style="opacity:0.2;fill:#000000;fill-opacity:1;stroke-width:0.35714287"
     width="20"
     height="20"
     x="2"
     y="3"
     rx="1.0714285"
     ry="1.0714285"
     id="rect2-7" />
  <rect
     style="fill:url(#linearGradient835);fill-opacity:1;stroke-width:0.35714287"
     width="20"
     height="20"
     x="2"
     y="2"
     rx="1.0714285"
     ry="1.0714285"
     id="rect2" />
  <path
     style="opacity:0.4;fill:#ffffff;stroke-width:0.35714287"
     d="M 3.0714286,2 C 2.4778571,2 2,2.4778571 2,3.0714286 V 3.4285714 C 2,2.835 2.4778571,2.3571429 3.0714286,2.3571429 H 20.928571 C 21.522143,2.3571429 22,2.835 22,3.4285714 V 3.0714286 C 22,2.4778571 21.522143,2 20.928571,2 Z"
     id="path4"
     inkscape:connector-curvature="0" />
  <path
     style="opacity:0.3;stroke-width:0.35714287"
     d="m 5.9285715,6.2857143 c -0.5935715,0 -1.0714286,0.4778571 -1.0714286,1.0714286 V 18.071429 c 0,0.593571 0.4778571,1.071428 1.0714286,1.071428 C 6.5221429,19.142857 7,18.665 7,18.071429 V 7.3571429 C 7,6.7635714 6.5221429,6.2857143 5.9285715,6.2857143 Z m 5.7142855,0 c -0.593571,0 -1.071428,0.4778571 -1.071428,1.0714286 V 18.071429 c 0,0.593571 0.477857,1.071428 1.071428,1.071428 0.593572,0 1.071429,-0.477857 1.071429,-1.071428 V 7.3571429 c 0,-0.5935715 -0.477857,-1.0714286 -1.071429,-1.0714286 z m 5.714286,0 c -0.593572,0 -1.071429,0.4778571 -1.071429,1.0714286 V 18.071429 c 0,0.593571 0.477857,1.071428 1.071429,1.071428 0.593571,0 1.071428,-0.477857 1.071428,-1.071428 V 7.3571429 c 0,-0.5935715 -0.477857,-1.0714286 -1.071428,-1.0714286 z"
     id="path6"
     inkscape:connector-curvature="0" />
  <path
     style="fill:#0066cc;stroke-width:0.35714287"
     d="m 4.8571429,10.928571 v 7.142858 c 0,0.593571 0.4778571,1.071428 1.0714286,1.071428 C 6.5221429,19.142857 7,18.665 7,18.071429 v -7.142858 z m 11.4285711,0.714286 v 6.428572 c 0,0.593571 0.477857,1.071428 1.071429,1.071428 0.593571,0 1.071428,-0.477857 1.071428,-1.071428 v -6.428572 z m -5.714285,3.571429 v 2.857143 c 0,0.593571 0.477857,1.071428 1.071428,1.071428 0.593572,0 1.071429,-0.477857 1.071429,-1.071428 v -2.857143 z"
     id="path10"
     inkscape:connector-curvature="0" />
  <path
     style="opacity:0.2;stroke-width:0.35714287"
     d="m 5.9285715,9.1428571 c -1.1834672,0 -2.1428572,0.9593899 -2.1428572,2.1428569 0,1.183467 0.95939,2.142857 2.1428572,2.142857 1.1834671,0 2.1428571,-0.95939 2.1428571,-2.142857 0,-1.183467 -0.95939,-2.1428569 -2.1428571,-2.1428569 z M 17.357143,10.214286 c -1.183467,0 -2.142857,0.95939 -2.142857,2.142857 0,1.183467 0.95939,2.142857 2.142857,2.142857 C 18.54061,14.5 19.5,13.54061 19.5,12.357143 c 0,-1.183467 -0.95939,-2.142857 -2.142857,-2.142857 z m -5.714286,2.5 C 10.45939,12.714286 9.5,13.673676 9.5,14.857143 9.5,16.04061 10.45939,17 11.642857,17 c 1.183467,0 2.142857,-0.95939 2.142857,-2.142857 0,-1.183467 -0.95939,-2.142857 -2.142857,-2.142857 z"
     id="path12"
     inkscape:connector-curvature="0" />
  <path
     style="fill:#ffffff;stroke-width:0.35714287"
     d="m 5.9285715,8.7857143 c -1.1834672,0 -2.1428572,0.95939 -2.1428572,2.1428567 0,1.183468 0.95939,2.142858 2.1428572,2.142858 1.1834671,0 2.1428571,-0.95939 2.1428571,-2.142858 0,-1.1834667 -0.95939,-2.1428567 -2.1428571,-2.1428567 z M 17.357143,9.8571429 c -1.183467,0 -2.142857,0.9593901 -2.142857,2.1428571 0,1.183467 0.95939,2.142857 2.142857,2.142857 C 18.54061,14.142857 19.5,13.183467 19.5,12 19.5,10.816533 18.54061,9.8571429 17.357143,9.8571429 Z M 11.642857,12.357143 C 10.45939,12.357143 9.5,13.316533 9.5,14.5 c 0,1.183467 0.95939,2.142857 2.142857,2.142857 1.183467,0 2.142857,-0.95939 2.142857,-2.142857 0,-1.183467 -0.95939,-2.142857 -2.142857,-2.142857 z"
     id="path14"
     inkscape:connector-curvature="0" />
</svg>
