<?xml version="1.0" encoding="UTF-8" standalone="no"?>
<svg
   xmlns:dc="http://purl.org/dc/elements/1.1/"
   xmlns:cc="http://creativecommons.org/ns#"
   xmlns:rdf="http://www.w3.org/1999/02/22-rdf-syntax-ns#"
   xmlns:svg="http://www.w3.org/2000/svg"
   xmlns="http://www.w3.org/2000/svg"
   xmlns:xlink="http://www.w3.org/1999/xlink"
   xmlns:sodipodi="http://sodipodi.sourceforge.net/DTD/sodipodi-0.dtd"
   xmlns:inkscape="http://www.inkscape.org/namespaces/inkscape"
   width="64"
   height="64"
   version="1"
   id="svg24"
   sodipodi:docname="user-trash-full.svg"
   inkscape:version="0.92.4 5da689c313, 2019-01-14">
  <metadata
     id="metadata30">
    <rdf:RDF>
      <cc:Work
         rdf:about="">
        <dc:format>image/svg+xml</dc:format>
        <dc:type
           rdf:resource="http://purl.org/dc/dcmitype/StillImage" />
        <dc:title />
      </cc:Work>
    </rdf:RDF>
  </metadata>
  <defs
     id="defs28">
    <linearGradient
       inkscape:collect="always"
       id="linearGradient1481">
      <stop
         style="stop-color:#000000;stop-opacity:1;"
         offset="0"
         id="stop1477" />
      <stop
         style="stop-color:#000000;stop-opacity:0;"
         offset="1"
         id="stop1479" />
    </linearGradient>
    <linearGradient
       inkscape:collect="always"
       id="linearGradient1425">
      <stop
         style="stop-color:#ffffff;stop-opacity:1;"
         offset="0"
         id="stop1421" />
      <stop
         style="stop-color:#ffffff;stop-opacity:0;"
         offset="1"
         id="stop1423" />
    </linearGradient>
    <linearGradient
       inkscape:collect="always"
       xlink:href="#linearGradient849"
       id="linearGradient851"
       x1="17.426399"
       y1="136"
       x2="238.57359"
       y2="136"
       gradientUnits="userSpaceOnUse"
       gradientTransform="matrix(0.01022331,0,0,0.01043031,20.696128,215.71158)" />
    <linearGradient
       inkscape:collect="always"
       id="linearGradient849">
      <stop
         style="stop-color:#d6d6d6;stop-opacity:1"
         offset="0"
         id="stop845" />
      <stop
         style="stop-color:#eaeaea;stop-opacity:1"
         offset="1"
         id="stop847" />
    </linearGradient>
    <linearGradient
       inkscape:collect="always"
       xlink:href="#linearGradient1425"
       id="linearGradient1427"
       x1="130.78624"
       y1="46.669899"
       x2="130.75026"
       y2="66.303192"
       gradientUnits="userSpaceOnUse"
       gradientTransform="matrix(0.11914894,0,0,0.11914894,18.39707,212.10948)" />
    <linearGradient
       inkscape:collect="always"
       xlink:href="#linearGradient1481"
       id="linearGradient1483"
       x1="124.48611"
       y1="231.85847"
       x2="124.72912"
       y2="211.17752"
       gradientUnits="userSpaceOnUse"
       gradientTransform="matrix(0.11914894,0,0,0.11914894,18.39707,212.55885)" />
  </defs>
  <sodipodi:namedview
     pagecolor="#ffffff"
     bordercolor="#666666"
     borderopacity="1"
     objecttolerance="10"
     gridtolerance="10"
     guidetolerance="10"
     inkscape:pageopacity="0"
     inkscape:pageshadow="2"
     inkscape:window-width="1366"
     inkscape:window-height="691"
     id="namedview26"
     showgrid="false"
     inkscape:zoom="8.09375"
     inkscape:cx="-5.6216216"
     inkscape:cy="30.826255"
     inkscape:window-x="0"
     inkscape:window-y="0"
     inkscape:window-maximized="1"
     inkscape:current-layer="user-trash" />
  <g
     style="fill:none;fill-rule:evenodd;stroke:none;stroke-width:0.08848412"
     id="user-trash"
     transform="matrix(2.374092,0,0,2.4478583,-47.883767,-527.14628)">
    <path
       inkscape:connector-curvature="0"
       style="opacity:0.2;fill:none;fill-opacity:1;fill-rule:evenodd;stroke:url(#linearGradient1483);stroke-width:0.49425182;stroke-linecap:round;stroke-linejoin:round;stroke-miterlimit:4;stroke-dasharray:none;stroke-opacity:1"
       id="path15-5-7"
       d="m 24.974913,238.16996 c 0.09128,1.04746 0.980325,1.89351 1.986066,1.89351 h 13.37431 c 1.000318,0 1.894934,-0.84775 1.986067,-1.89351 l 1.590651,-17.97702 c 0.722627,0 1.282984,-0.67011 1.282984,-1.37038 0,-0.70515 -0.610744,-1.14198 -1.282984,-1.14198 H 23.384262 c -0.669115,0 -1.282984,0.44171 -1.282984,1.14198 0,0.70515 0.610745,1.37038 1.282984,1.37038 z" />
    <path
       inkscape:connector-curvature="0"
       style="opacity:0.9;fill:url(#linearGradient851);fill-opacity:1;stroke:none;stroke-width:0.04841023;stroke-linecap:round;stroke-linejoin:round;stroke-miterlimit:4;stroke-dasharray:none;stroke-opacity:0.39215686"
       id="path15"
       d="m 24.974913,237.9259 c 0.09128,1.0706 0.980326,1.93532 1.986067,1.93532 h 13.374309 c 1.000318,0 1.894934,-0.86647 1.986067,-1.93532 l 1.590651,-18.37398 c 0.722627,0 1.282984,-0.68491 1.282984,-1.40064 0,-0.72072 -0.610744,-1.1672 -1.282984,-1.1672 H 23.384262 c -0.669115,0 -1.282984,0.45147 -1.282984,1.1672 0,0.72072 0.610745,1.40064 1.282984,1.40064 z" />
    <path
       d="m 25.585408,232.38386 0.215206,2.86702 0.0012,4.8e-4 0.118467,1.67302 c 0,0 0,1.43436 1.240879,1.43436 0.277174,0 1.210461,0 2.363573,0 l 0.41004,0.005 0.0028,-0.005 c 1.532648,0 3.341328,0 4.513765,0 0,0 0,0 0,0 0,0 4.187968,0 5.428847,0 1.240879,0 1.364975,-1.43436 1.364975,-1.43436 l 0.943588,-10.64275 -0.726535,-0.15028 0.76342,-0.7223 -2.704145,-4.45564 -4.799067,4.00785 0.732054,-2.06505 -6.409825,-3.05189 -1.763519,4.75057 -1.210159,-0.74486 -1.000223,2.15692 0.297361,3.69758 0.01695,0.01 0.09168,1.22132 -4.77e-4,0.001 0.096,1.43817 0.01318,0.009 z"
       id="path17"
       inkscape:connector-curvature="0"
       style="opacity:0.4;fill:#a7602f;fill-opacity:1;fill-rule:evenodd;stroke:none;stroke-width:0.01091471" />
    <path
       style="fill:#ffffff;stroke-width:0.01054279"
       inkscape:connector-curvature="0"
       id="Fill-1"
       d="m 33.604542,226.243 c -1.221826,-2.68429 -2.507087,-0.52276 -2.507087,-0.52276 l -0.974519,1.83946 2.006037,1.24816 z m 4.338446,-0.82232 -1.081164,0.65199 -0.396242,-0.74499 c 0,0 -0.306146,-0.77533 -1.816651,-0.69408 0,0 -1.871812,0.0558 -2.066714,0.0176 0,0 0.530469,0.11161 0.794324,0.5492 l 1.195165,2.25159 -0.87339,0.52472 2.93091,0.0676 z m -7.183857,6.49242 c -1.516019,2.50514 0.88718,2.55311 0.88718,2.55311 l 1.979376,-0.0695 -0.03953,-2.47382 z m -2.912523,-3.51836 1.084842,0.64415 -0.393485,0.74695 c 0,0 -0.461518,0.6833 0.388888,2.01272 0,0 1.019567,1.67597 1.087599,1.87274 0,0 -0.18663,-0.54038 0.02758,-1.00832 l 1.18597,-2.25747 0.876148,0.51983 -1.470052,-2.69996 z m 9.144846,3.14342 c 2.793926,0.18796 1.660359,-2.06755 1.660359,-2.06755 l -1.023244,-1.80812 -2.007877,1.24522 z m -2.963089,1.91581 1.498552,-2.68331 v 1.07 h 2.428023 c 0.488178,-0.0294 0.840292,-0.46696 0.840292,-0.46696 -0.127789,0.15859 -1.004858,1.92462 -1.004858,1.92462 -0.674807,1.43906 -1.459939,1.34313 -1.459939,1.34313 h -0.803518 v 1.32158 z" />
    <path
       inkscape:connector-curvature="0"
       style="fill:#cb0000;fill-opacity:1;stroke-width:0.01054279"
       id="path18"
       d="m 33.604542,226.00471 c -1.221826,-2.6843 -2.507087,-0.52277 -2.507087,-0.52277 l -0.974519,1.83946 2.006037,1.24816 z m 4.338446,-0.82233 -1.081164,0.65199 -0.396242,-0.74499 c 0,0 -0.306146,-0.77533 -1.816651,-0.69407 0,0 -1.871812,0.0558 -2.066714,0.0176 0,0 0.530469,0.1116 0.794324,0.54919 l 1.195165,2.25159 -0.87339,0.52472 2.93091,0.0676 z m -7.183857,6.49242 c -1.516019,2.50515 0.88718,2.55311 0.88718,2.55311 l 1.979376,-0.0695 -0.03953,-2.47382 z m -2.912523,-3.51836 1.084842,0.64416 -0.393485,0.74694 c 0,0 -0.461518,0.68331 0.388888,2.01273 0,0 1.019567,1.67596 1.087599,1.87273 0,0 -0.18663,-0.54038 0.02758,-1.00832 l 1.18597,-2.25746 0.876148,0.51982 -1.470052,-2.69995 z m 9.144846,3.14342 c 2.793926,0.18796 1.660359,-2.06755 1.660359,-2.06755 l -1.023244,-1.80812 -2.007877,1.24523 z m -2.963089,1.91582 1.498552,-2.68331 v 1.06999 h 2.428023 c 0.488178,-0.0294 0.840292,-0.46696 0.840292,-0.46696 -0.127789,0.15859 -1.004858,1.92462 -1.004858,1.92462 -0.674807,1.43906 -1.459939,1.34313 -1.459939,1.34313 h -0.803518 v 1.32158 z" />
    <g
       transform="matrix(0.10917367,0,0,0.11914894,27.752757,224.38182)"
       id="Group"
       style="fill:#780000;fill-opacity:1;stroke-width:0.0924382">
      <path
         inkscape:connector-curvature="0"
         style="fill:#780000;fill-opacity:1;stroke-width:0.0924382"
         id="path20"
         d="m 98.627559,60.782404 c 1.190715,-2.074987 2.165851,-3.699715 2.518411,-4.100606 0,0 -3.225268,3.672648 -7.696847,3.919135 h -22.24 v -8.980325 l -13.726316,22.520649 0.629954,0.96644 13.096362,-21.487089 v 8.980325 h 22.24 c 2.05254,-0.113142 3.842483,-0.948172 5.178436,-1.818529 z" />
      <path
         inkscape:connector-curvature="0"
         style="fill:#780000;fill-opacity:1;stroke-width:0.0924382"
         id="path22"
         d="m 101.87349,49.538031 c 0.38982,-4.396404 -2.041209,-8.828558 -2.041209,-8.828558 L 90.459649,25.534122 72.06807,35.985149 l 0.859638,1.51151 17.531941,-9.962537 9.372632,15.175351 c 0,0 1.745459,3.182261 2.041209,6.828558 z" />
      <path
         inkscape:connector-curvature="0"
         style="fill:#780000;fill-opacity:1;stroke-width:0.0924382"
         id="path24"
         d="m 22.990685,74.032242 c -0.311157,-3.059027 0.836105,-7.204849 4.546859,-12.823309 l 25.894737,0.08216 0.362105,20.762378 -0.03486,0.0011 -0.327244,-18.7635 -25.894737,-0.08216 c -2.957659,4.478196 -4.286757,8.020841 -4.546859,10.823309 z" />
      <polygon
         style="fill:#780000;fill-opacity:1;stroke-width:0.0924382"
         points="57.958577,28.245415 62.459649,25.767635 61.581178,24.251222 54.459649,28.171527 "
         id="Path" />
      <path
         inkscape:connector-curvature="0"
         style="fill:#780000;fill-opacity:1;stroke-width:0.0924382"
         id="path27"
         d="m 7.1922807,43.355095 c 0,0 -1.3989572,1.897849 -1.10444,5.634109 0.2039637,-2.412508 1.10444,-3.634109 1.10444,-3.634109 L 10.796491,39.086122 10.900002,37 Z" />
      <path
         inkscape:connector-curvature="0"
         style="fill:#780000;fill-opacity:1;stroke-width:0.0924382"
         id="path29"
         d="m 22.579878,25.167248 -0.869703,-0.495829 8.926316,-15.43827 c 0,0 11.772632,-18.1414055 22.964211,4.387459 l -0.564387,0.898895 C 42.016955,-6.3039334 30.636491,11.233149 30.636491,11.233149 Z" />
      <polygon
         style="fill:#780000;fill-opacity:1;stroke-width:0.0924382"
         points="38.101985,51.964388 26.392281,32.258446 4.1944644,33.494202 0.85964912,31.679852 26.392281,30.258446 39.857544,52.918771 "
         id="polygon31" />
      <path
         inkscape:connector-curvature="0"
         style="fill:#780000;fill-opacity:1;stroke-width:0.0924382"
         id="path33"
         d="M 49.041794,2.3707458 C 46.736367,0.74293632 44.236491,0.26104084 44.236491,0.26104084 46.021754,0.58147327 63.167017,0.11314895 63.167017,0.11314895 c 13.83579,-0.68194594 16.64,5.82529725 16.64,5.82529725 l 3.629474,6.2525408 9.903158,-5.4720002 -1.565842,2.8652079 -8.337316,4.6067923 -3.629474,-6.2525408 c 0,0 -2.80421,-6.5072432 -16.64,-5.8252973 0,0 -8.471807,0.2314082 -14.125223,0.2575969 z" />
    </g>
    <path
       inkscape:connector-curvature="0"
       style="opacity:0.8;fill:none;fill-opacity:1;fill-rule:evenodd;stroke:url(#linearGradient1427);stroke-width:0.49425182;stroke-linecap:round;stroke-linejoin:round;stroke-miterlimit:4;stroke-dasharray:none;stroke-opacity:1"
       id="path15-5"
       d="m 24.974913,237.72059 c 0.09128,1.04746 0.980325,1.89351 1.986066,1.89351 h 13.37431 c 1.000318,0 1.894934,-0.84775 1.986067,-1.89351 l 1.590651,-17.97702 c 0.722627,0 1.282984,-0.67011 1.282984,-1.37038 0,-0.70515 -0.610744,-1.14198 -1.282984,-1.14198 H 23.384262 c -0.669115,0 -1.282984,0.44171 -1.282984,1.14198 0,0.70515 0.610745,1.37038 1.282984,1.37038 z" />
  </g>
</svg>
